<svg xmlns="http://www.w3.org/2000/svg" width="200" height="71.544" viewBox="470.835 397.97 200 71.544" enable-background="new 470.835 397.97 200 71.544"><path d="M494.152 438.58c0 1.522 1.015 2.578 3.045 3.168.508.15.883.32 1.126.514.243.193.365.557.365 1.092 0 .28-.164.52-.492.723-.328.203-.682.305-1.063.305-.402 0-.947-.095-1.634-.286-.69-.19-1.246-.286-1.67-.286-.486 0-1.1.095-1.84.286-.74.19-1.236.286-1.49.286-.296 0-.587-.106-.872-.317-.287-.21-.43-.423-.43-.634 0-.335-.105-.505-.316-.505-.148 0-.34.074-.57.222-2.39 1.48-4.97 2.22-7.742 2.22-1.312 0-2.776-.338-4.394-1.014s-2.915-1.717-3.887-3.124c-.973-1.407-1.46-3.147-1.46-5.22 0-2.2 1.05-4.145 3.152-5.837 2.1-1.692 4.808-2.538 8.122-2.538 1.12 0 2.35.312 3.69.936 1.34.625 2.01 1.265 2.01 1.92 0 .317-.138.57-.412.76-.275.19-.614.286-1.015.286-.275 0-.814-.19-1.618-.57-.805-.382-1.63-.572-2.475-.572-1.734 0-3.172.512-4.314 1.536-1.14 1.022-1.712 2.387-1.712 4.096 0 1.983.655 3.507 1.967 4.572 1.31 1.065 2.823 1.598 4.537 1.598 1.544 0 2.966-.508 4.267-1.523 1.3-1.015 1.95-2.368 1.95-4.06v-8.598c0-1.29-.426-2.337-1.28-3.14-.856-.805-2-1.207-3.435-1.207-1.836 0-3.62.582-5.348 1.745-.592.402-.993.603-1.204.603-.507 0-.94-.132-1.298-.397-.36-.266-.538-.61-.538-1.03 0-1.04.946-1.917 2.84-2.636 1.89-.72 3.96-1.08 6.2-1.08 2.77 0 5.002.698 6.695 2.092 1.692 1.394 2.538 3.052 2.538 4.973v10.643zm11.262 10.35c.127-1.202.19-4.536.19-10.003 0-2.638-.063-6.49-.19-11.554-.043-.527-.26-.986-.65-1.376-.39-.39-1.21-.692-2.46-.903-.95-.15-1.57-.332-1.855-.546s-.43-.482-.43-.803c0-.835.656-1.253 1.972-1.253.255 0 .88.1 1.878.3.998.202 1.623.302 1.878.302.274 0 .848-.122 1.718-.365.87-.246 1.41-.368 1.623-.368.57 0 .932.127 1.08.38.15.254.223.644.223 1.172v11.18c0 2.282.72 4.092 2.157 5.433 1.44 1.34 3.12 2.01 5.045 2.01.93 0 2.12-.405 3.57-1.217 1.448-.81 2.58-1.986 3.393-3.524.813-1.54 1.22-3.278 1.22-5.217 0-2.298-.703-4.34-2.11-6.134-1.407-1.79-3.04-2.688-4.9-2.688-1.122 0-2.153.205-3.094.62-.94.41-1.56.617-1.856.617-.296 0-.56-.095-.793-.286-.233-.19-.35-.423-.35-.698 0-.62.777-1.256 2.33-1.908 1.55-.652 2.886-.98 4.005-.98 3.42 0 6.286 1.09 8.598 3.27 2.312 2.177 3.468 5.138 3.468 8.882 0 2.898-1.193 5.562-3.58 7.994-2.385 2.433-5.257 3.65-8.615 3.65-1.286 0-2.505-.17-3.656-.51-1.15-.34-2.656-1.12-4.514-2.347-.17 0-.253.54-.253 1.618 0 2.688-.18 4.734-.54 6.14-.362 1.407-.977 2.63-1.848 3.665-.87 1.036-1.726 1.77-2.565 2.205-.838.432-1.65.65-2.435.65-1.166 0-1.75-.28-1.75-.84 0-.24.264-.498.793-.78 1.27-.695 2.136-1.6 2.6-2.705.468-1.107.7-2.135.7-3.085zm32.232 0c.127-1.202.19-4.536.19-10.003 0-2.638-.063-6.49-.19-11.554-.043-.527-.26-.986-.65-1.376-.39-.39-1.21-.692-2.46-.903-.95-.15-1.57-.332-1.855-.546s-.425-.482-.425-.803c0-.835.657-1.253 1.973-1.253.255 0 .88.1 1.878.3.997.202 1.622.302 1.877.302.276 0 .85-.122 1.72-.365.87-.246 1.41-.368 1.623-.368.572 0 .933.127 1.08.38.15.254.224.644.224 1.172v11.18c0 2.282.72 4.092 2.156 5.433 1.438 1.34 3.12 2.01 5.044 2.01.93 0 2.12-.405 3.57-1.217 1.447-.81 2.58-1.986 3.393-3.524.815-1.54 1.222-3.278 1.222-5.217 0-2.298-.703-4.34-2.11-6.134-1.407-1.79-3.04-2.688-4.9-2.688-1.122 0-2.153.205-3.094.62-.94.41-1.56.617-1.854.617-.296 0-.56-.095-.793-.286-.234-.19-.35-.423-.35-.698 0-.62.776-1.256 2.328-1.908 1.55-.652 2.888-.98 4.007-.98 3.42 0 6.286 1.09 8.598 3.27 2.312 2.177 3.468 5.138 3.468 8.882 0 2.898-1.193 5.562-3.58 7.994-2.385 2.433-5.257 3.65-8.615 3.65-1.288 0-2.508-.17-3.658-.51-1.15-.34-2.657-1.12-4.515-2.347-.17 0-.253.54-.253 1.618 0 2.688-.18 4.734-.54 6.14-.362 1.407-.977 2.63-1.848 3.665-.87 1.036-1.724 1.77-2.563 2.205-.84.432-1.65.65-2.434.65-1.167 0-1.75-.28-1.75-.84 0-.24.263-.498.792-.78 1.27-.695 2.136-1.6 2.6-2.705.467-1.107.7-2.135.7-3.085z" enable-background="new" fill="#EB3C00"/><path d="M588.244 439.75c.593 0 .89.494.89 1.482 0 .63-1.068 1.446-3.204 2.444s-4.378 1.498-6.725 1.498c-3.85 0-7.15-1.17-9.898-3.505-2.75-2.34-4.124-5.285-4.124-8.838 0-3.15 1.3-5.92 3.902-8.312 2.6-2.39 5.71-3.584 9.327-3.584 1.946 0 4.156.4 6.63 1.202 2.474.8 3.712 1.527 3.712 2.18 0 1.18.063 2.14.19 2.876s.19 1.16.19 1.264c0 .95-.44 1.423-1.318 1.423-.665 0-1.183-.632-1.553-1.9-.37-1.27-1.147-2.28-2.332-3.03-1.182-.75-2.64-1.127-4.375-1.127-2.178 0-4.203.806-6.075 2.42-1.873 1.612-2.81 3.893-2.81 6.843 0 2.716 1.05 4.94 3.147 6.67 2.097 1.73 4.28 2.593 6.546 2.593.826 0 1.684-.107 2.574-.318.89-.21 1.88-.644 2.97-1.3 1.093-.654 1.87-.982 2.338-.982zm12.913-.158c0 .57.148 1.058.444 1.46.3.4.955.686 1.97.856 1.015.17 1.634.383 1.856.64.222.257.333.58.333.964 0 .686-.52 1.03-1.56 1.03-.636 0-1.58-.08-2.83-.24-1.25-.158-2.194-.237-2.83-.237-.593 0-1.462.08-2.606.238-1.145.16-2.014.238-2.607.238-.848 0-1.394-.094-1.638-.286-.245-.194-.366-.46-.366-.804s.1-.634.3-.87c.202-.235.836-.432 1.904-.59 1.068-.16 1.766-.507 2.094-1.047.33-.54.494-1.167.494-1.886v-34.204c0-.74-.17-1.39-.508-1.95-.34-.56-1.036-.966-2.094-1.22-1.057-.253-1.686-.508-1.887-.765-.2-.257-.3-.547-.3-.87 0-.32.174-.577.524-.77.35-.194.716-.29 1.098-.29.34 0 .843.063 1.51.19.67.127 1.163.19 1.48.19.362 0 .903-.063 1.624-.19s1.26-.19 1.623-.19c.68 0 1.178.18 1.496.54.318.36.477 1.004.477 1.934v38.132zm17.163-.984c0 1.036.394 1.893 1.18 2.57.788.677 1.728 1.015 2.82 1.015.673 0 1.466-.27 2.38-.81s1.58-.808 2-.808c.42 0 .63.26.63.776 0 .607-.786 1.36-2.358 2.27s-3.35 1.366-5.333 1.366c-1.544 0-2.89-.475-4.04-1.425-1.15-.95-1.814-2.006-1.993-3.17-.18-1.16-.27-5.51-.27-13.047 0-1.013-1.036-1.752-3.11-2.217-.91-.193-1.363-.547-1.363-1.063 0-.343.143-.61.43-.805.286-.193.642-.29 1.066-.29.128 0 .748.085 1.863.254 1.114.17 2.053.256 2.818.256.277 0 .686-.08 1.227-.238.54-.16.876-.238 1.003-.238.7 0 1.05 1.438 1.05 4.313v11.295zm10.437-10.822c0-1.52-.825-2.396-2.474-2.63-.994-.15-1.618-.336-1.872-.56-.25-.225-.38-.51-.38-.852 0-.792.607-1.188 1.816-1.188.318 0 .96.11 1.925.333.965.22 2 .33 3.103.33.297 0 .668-.04 1.114-.127.446-.084.722-.127.828-.127.573 0 .86.644.86 1.932 0 9.733.083 14.91.253 15.534.17.623 1.026 1.125 2.57 1.504.804.214 1.3.406 1.49.578s.287.375.287.61c0 .28-.175.537-.525.773-.35.236-.803.354-1.355.354-.234 0-.806-.073-1.72-.22-.91-.15-1.56-.223-1.94-.223-.405 0-.892.075-1.465.223-.572.148-.954.222-1.145.222-.467 0-.785-.127-.955-.38-.17-.253-.28-.876-.334-1.87-.053-.99-.08-2.902-.08-5.732v-8.487zm21.572 15.137c-.13.127-.257.344-.384.65-.127.306-.28.534-.46.682-.18.148-.503.222-.968.222-.36 0-.926-.09-1.698-.27-.772-.18-1.38-.27-1.824-.27s-1.064.09-1.857.27c-.793.18-1.39.27-1.79.27-.488 0-.91-.123-1.27-.37-.36-.246-.54-.584-.54-1.013 0-.28.106-.514.316-.707.21-.193.94-.416 2.193-.67 1.25-.252 2.103-.738 2.555-1.456.452-.715.68-1.57.68-2.562v-32.563c0-1.753-.412-2.978-1.23-3.674-.464-.4-1.205-.676-2.225-.823-1.02-.148-1.633-.345-1.843-.59-.21-.247-.315-.542-.315-.885 0-.34.207-.625.62-.85.412-.225.81-.34 1.19-.34.423 0 1.047.09 1.872.27.825.18 1.438.27 1.84.27.38 0 .92-.066 1.618-.204.698-.137 1.216-.206 1.555-.206.634 0 1.1.174 1.396.523.297.35.445 1 .445 1.952v37.113c0 1.313.807 2.48 2.422 3.507 1.614 1.026 3.14 1.54 4.575 1.54 1.646 0 3.387-.7 5.224-2.095 1.834-1.396 2.752-3.712 2.752-6.948 0-2.517-.728-4.668-2.184-6.456-1.457-1.787-3.346-2.68-5.666-2.68-.885 0-1.798.242-2.737.73-.94.486-1.556.73-1.85.73-.254 0-.513-.112-.776-.334-.264-.222-.396-.44-.396-.65 0-.952.813-1.787 2.44-2.506 1.625-.72 3.06-1.08 4.306-1.08 3.464 0 6.35 1.244 8.663 3.73 2.312 2.484 3.468 5.514 3.468 9.088 0 3.278-1.21 5.98-3.625 8.105-2.42 2.124-5.338 3.187-8.76 3.187-1.73 0-3.926-.696-6.587-2.087l-1.144-.548z"/><path d="M546.77 460.273c.536.197.966.484 1.292.86.325.38.488.815.488 1.31v2.922c0 .723.08 1.396.243 2.018.162.622.458 1.148.89 1.58.09.09.133.15.133.18 0 .248-.044.372-.133.372-.108 0-.367-.12-.776-.362-.41-.24-.826-.58-1.25-1.014-.425-.438-.723-1.004-.895-1.7-.07-.275-.105-.73-.105-1.37v-2.57c0-.465-.13-.865-.39-1.2-.26-.337-.6-.58-1.018-.734v-.58c.416-.153.755-.39 1.015-.715.26-.323.39-.703.39-1.14v-2.57c0-.837.063-1.393.19-1.665.153-.533.43-1.007.828-1.423.4-.415.805-.746 1.218-.99.414-.244.678-.366.79-.366.09 0 .135.124.135.37l-.133.182c-.432.43-.728.954-.89 1.573-.162.62-.243 1.294-.243 2.023v2.922c0 .47-.163.887-.488 1.252-.327.364-.758.64-1.293.832zm9.774 6.11l-.114.195c-.038.092-.084.16-.138.205-.054.044-.15.067-.29.067-.108 0-.278-.027-.51-.08-.23-.055-.413-.082-.546-.082s-.32.027-.557.08c-.24.055-.42.082-.54.082-.147 0-.274-.037-.38-.11-.11-.075-.164-.176-.164-.305 0-.084.032-.154.095-.212.064-.058.284-.125.66-.2.375-.077.63-.222.767-.438.136-.215.204-.472.204-.77v-9.77c0-.525-.122-.892-.37-1.1-.137-.122-.36-.204-.665-.248-.306-.044-.49-.103-.554-.177-.062-.074-.094-.162-.094-.265 0-.103.062-.188.186-.256s.243-.104.357-.104c.126 0 .313.027.56.08.248.055.43.082.553.082.114 0 .276-.02.485-.063.207-.04.363-.062.464-.062.19 0 .33.053.42.157.088.105.132.3.132.586v11.133c0 .394.242.744.726 1.052.484.308.942.462 1.372.462.494 0 1.016-.21 1.567-.628.55-.42.826-1.115.826-2.085 0-.754-.218-1.4-.655-1.936-.436-.536-1.002-.804-1.7-.804-.264 0-.54.074-.82.22-.28.146-.466.22-.555.22-.076 0-.153-.034-.232-.1-.08-.068-.12-.133-.12-.196 0-.286.245-.536.733-.752.488-.216.918-.324 1.292-.324 1.04 0 1.904.374 2.6 1.12.692.745 1.04 1.653 1.04 2.726 0 .983-.365 1.794-1.09 2.432-.725.638-1.6.956-2.627.956-.52 0-1.177-.21-1.976-.626l-.343-.165zm9.393-1.294c0 .31.118.565.354.77.24.2.52.303.85.303.2 0 .44-.08.712-.243.275-.16.475-.242.6-.242s.19.077.19.232c0 .18-.236.408-.707.68s-1.005.41-1.6.41c-.462 0-.866-.143-1.21-.428-.346-.285-.545-.602-.6-.95s-.08-1.653-.08-3.915c0-.305-.31-.527-.933-.666-.274-.056-.41-.162-.41-.32 0-.1.043-.18.13-.24.085-.056.192-.085.32-.085l.558.076c.334.05.616.077.845.077.083 0 .205-.025.368-.072l.303-.07c.21 0 .315.43.315 1.293v3.39zm3.13-3.25c0-.456-.246-.72-.74-.79-.3-.044-.486-.1-.563-.168-.076-.067-.114-.152-.114-.255 0-.24.18-.358.544-.358.095 0 .288.032.578.1s.6.1.93.1l.335-.04.248-.037c.172 0 .258.193.258.58 0 2.92.025 4.474.076 4.66.05.187.305.338.77.45.24.065.39.123.445.175.057.05.086.112.086.183 0 .085-.052.16-.157.233s-.24.106-.406.106c-.07 0-.243-.02-.517-.067-.273-.044-.467-.067-.58-.067-.12 0-.267.022-.44.067l-.343.067c-.14 0-.236-.037-.286-.113-.05-.076-.082-.263-.1-.56-.014-.3-.022-.872-.022-1.72v-2.546zm6.51 3.37c0 .31.058.514.172.61.11.094.263.156.454.185.19.03.325.07.404.12.08.05.12.158.12.318 0 .213-.187.32-.555.32-.16 0-.398-.02-.716-.058-.32-.038-.555-.057-.707-.057-.153 0-.376.024-.668.075-.292.05-.512.076-.658.076s-.272-.04-.377-.125-.156-.193-.156-.328c0-.084.03-.157.087-.218.057-.06.203-.11.438-.15.235-.038.398-.114.49-.228.092-.114.138-.39.138-.826v-3.212c0-.272-.057-.453-.17-.54-.115-.09-.283-.156-.505-.2-.22-.045-.36-.103-.412-.174-.054-.07-.08-.156-.08-.26 0-.114.045-.21.137-.283.093-.074.202-.11.33-.11.108 0 .263.023.463.07.2.048.35.07.444.07.11 0 .275-.016.498-.05.223-.036.388-.053.496-.053.236 0 .353.197.353.59l-.01.252-.01.213v3.97zm-.775-8.26c.29 0 .542.105.753.316.212.212.318.463.318.753 0 .26-.104.48-.313.66-.208.18-.455.27-.74.27s-.528-.1-.733-.3c-.205-.2-.308-.437-.308-.715 0-.265.1-.496.305-.69.205-.197.444-.295.715-.295zm5.687 8.432c0 .17.04.317.13.438s.286.207.59.258c.305.05.49.114.557.19.066.078.1.175.1.29 0 .206-.157.31-.468.31-.19 0-.475-.025-.85-.072-.375-.048-.658-.07-.85-.07-.177 0-.44.023-.78.07-.344.048-.605.07-.783.07-.254 0-.418-.028-.49-.086-.074-.058-.11-.138-.11-.24 0-.104.03-.19.09-.26.06-.072.25-.13.57-.18.32-.047.53-.15.63-.313.097-.163.147-.35.147-.567v-10.26c0-.223-.05-.418-.152-.586-.102-.168-.31-.29-.628-.366s-.506-.152-.566-.23c-.06-.076-.09-.163-.09-.26 0-.096.052-.174.157-.23.105-.06.215-.088.33-.088.102 0 .253.02.453.057.202.037.35.056.445.056.108 0 .27-.02.487-.057.216-.04.38-.058.487-.058.202 0 .35.054.447.162.095.108.143.3.143.58v11.44zm10.085-.77c0 .31.063.594.19.85s.355.443.685.557c.33.114.52.197.57.25.053.05.078.11.078.173 0 .277-.148.415-.44.415-.095 0-.23-.027-.4-.078-.173-.05-.396-.076-.67-.076-.184 0-.386.025-.605.076-.22.05-.358.076-.415.076-.12 0-.223-.045-.306-.134-.083-.09-.13-.18-.14-.276-.01-.095-.03-.143-.06-.143l-.153.067c-.964.546-1.775.818-2.434.818-.937 0-1.782-.358-2.533-1.075-.75-.717-1.126-1.54-1.126-2.465 0-1.06.38-1.932 1.14-2.617s1.643-1.027 2.65-1.027c.424 0 .862.106 1.31.317.45.21.676.446.676.704 0 .082-.03.152-.09.208-.06.057-.128.085-.204.085-.096 0-.316-.078-.66-.233-.346-.155-.664-.233-.955-.233-.64 0-1.18.268-1.624.8-.442.536-.664 1.17-.664 1.91 0 .63.2 1.25.602 1.87.4.614.95.923 1.647.923.374 0 .803-.103 1.287-.31s.793-.484.926-.836.2-.885.2-1.6v-8.18c0-.526-.09-.89-.266-1.094-.178-.203-.435-.355-.77-.457-.337-.104-.543-.18-.62-.23-.076-.053-.114-.137-.114-.253 0-.084.048-.156.143-.217.096-.06.23-.09.4-.09l.45.047c.23.032.414.048.555.048.293 0 .546-.012.76-.037l.385-.038c.23 0 .382.063.458.193.076.13.115.31.115.537 0 .42.003.756.01 1.01l.01.674v9.09zm2.984.2c.297 0 .562.14.796.422.234.282.35.655.35 1.118 0 .393-.212.996-.637 1.808s-.74 1.22-.95 1.22c-.116 0-.174-.06-.174-.18 0-.034.12-.297.364-.79.245-.497.366-.884.366-1.163 0-.216-.138-.392-.412-.528s-.458-.28-.55-.43-.136-.31-.136-.48c0-.31.092-.556.275-.734.182-.177.418-.265.71-.265zm6.295-3.086c0-.228-.068-.405-.205-.532s-.266-.19-.393-.19c-.38 0-.57-.12-.57-.357 0-.277.136-.415.41-.415.076 0 .224.022.444.067.22.043.39.066.5.066.156 0 .314-.02.476-.058l.33-.058c.17 0 .285.043.343.13.056.085.1.432.123 1.04.026.61.04 1.318.04 2.123l-.02 1.656c0 .292.017.474.052.547s.11.145.228.215.255.114.414.133c.16.02.274.05.347.09.074.043.11.13.11.267 0 .225-.162.338-.487.338-.235 0-.474-.023-.716-.07-.24-.05-.48-.07-.714-.07-.19 0-.425.024-.7.07-.278.05-.486.07-.626.07-.357 0-.535-.1-.535-.307 0-.154.033-.255.1-.304.067-.05.19-.085.366-.108.18-.022.324-.073.435-.152.112-.08.182-.18.21-.31.03-.125.043-.384.043-.777v-3.106zm4.33-.02c0-.138-.06-.257-.184-.355-.122-.097-.257-.146-.402-.146-.318 0-.69.18-1.12.536-.254.22-.438.33-.55.33-.165 0-.247-.072-.247-.22 0-.322.298-.7.89-1.126.594-.428 1.13-.642 1.605-.642.406 0 .76.144 1.066.433.306.29.458.63.458 1.023l-.018 3.844c0 .197.067.36.2.49s.292.195.476.195c.324 0 .485.127.485.385 0 .225-.17.338-.505.338l-.568-.062c-.34-.04-.627-.06-.856-.06-.38 0-.702.023-.963.07-.26.048-.428.07-.505.07-.115 0-.215-.036-.3-.11-.086-.074-.13-.17-.13-.285 0-.18.112-.27.334-.27.2 0 .39-.065.57-.195.177-.13.265-.325.265-.584v-3.657zm4.35 0c0-.138-.062-.257-.185-.355-.12-.097-.256-.146-.4-.146-.254 0-.565.144-.935.433-.37.288-.615.432-.735.432-.077 0-.145-.025-.205-.07-.06-.05-.09-.105-.09-.17 0-.285.28-.645.837-1.08.558-.434 1.126-.65 1.704-.65.673 0 1.133.28 1.38.846.09.17.133 1.11.133 2.816l-.02 1.618c0 .204.052.356.16.458.11.103.273.175.495.22.222.044.357.097.404.158.05.06.07.134.07.217 0 .238-.155.357-.467.357l-.572-.062c-.336-.04-.622-.062-.86-.062-.233 0-.49.024-.766.07s-.507.072-.692.072c-.115 0-.215-.037-.3-.11-.086-.075-.13-.17-.13-.286 0-.2.15-.313.444-.342s.49-.106.585-.233c.096-.128.144-.286.144-.476v-3.653zm7.414-1.882c1.052 0 1.97.362 2.754 1.085s1.175 1.56 1.175 2.503c0 1.06-.375 1.922-1.124 2.59-.75.665-1.75.998-3.007.998-.99 0-1.88-.34-2.67-1.017s-1.186-1.523-1.186-2.532c0-.963.347-1.81 1.042-2.535.695-.727 1.7-1.09 3.013-1.09zm.01 6.338c.73 0 1.31-.263 1.744-.79.435-.527.652-1.193.652-2 0-.792-.233-1.442-.7-1.95-.466-.508-1.058-.76-1.775-.76-.735 0-1.306.248-1.712.746-.408.497-.61 1.14-.61 1.926 0 .87.224 1.558.675 2.065.45.51 1.025.762 1.723.762zm5.9-4.437c0-.234-.047-.41-.14-.527-.09-.118-.283-.2-.575-.253-.292-.05-.438-.182-.438-.395 0-.09.05-.178.153-.265.104-.087.238-.13.403-.13.07 0 .193.022.368.067.177.044.32.067.437.067.07 0 .23-.02.483-.057l.472-.057c.13 0 .218.052.268.157.05.105.08.316.086.633.013.527.02 1.088.02 1.685l-.058 2.713c0 .197.016.317.048.362.032.044.106.102.224.17s.268.125.452.163c.184.037.3.09.352.16.05.066.076.144.076.234 0 .213-.165.32-.496.32-.23 0-.464-.022-.706-.063-.242-.04-.48-.06-.716-.06-.19 0-.437.015-.74.05-.3.035-.525.052-.672.052-.325 0-.487-.12-.487-.357 0-.103.03-.186.087-.25.057-.065.18-.104.37-.117.217-.014.35-.045.4-.096.147-.152.24-.285.277-.4s.057-.347.057-.702v-3.106zm5.833 3.657c0 .273.046.452.138.538.093.087.258.156.496.21.238.054.357.155.357.304 0 .2-.118.3-.353.3l-.57-.033c-.338-.02-.62-.03-.85-.03-.38 0-.703.022-.963.07s-.43.07-.506.07c-.113 0-.22-.04-.32-.116-.1-.077-.146-.17-.146-.28 0-.082.04-.16.124-.235.082-.075.178-.11.286-.11.203 0 .384-.06.542-.178.16-.116.238-.292.238-.526 0-1.526.01-2.47.03-2.835l.028-.612c0-.494-.226-.74-.68-.74-.194 0-.473.148-.835.446-.362.298-.62.447-.77.447-.05 0-.107-.03-.17-.094-.063-.064-.095-.132-.095-.203 0-.226.29-.567.872-1.023.582-.46 1.152-.687 1.71-.687.328 0 .613.084.853.252.24.168.4.38.48.633.08.253.12.61.12 1.074l-.01.61v2.75zm7.823-2.408c.146 0 .244-.025.295-.076s.077-.14.077-.275c0-.484-.19-.938-.566-1.36s-.946-.632-1.707-.632c-.527 0-1.07.25-1.632.75-.56.503-.84 1.21-.84 2.13 0 .67.295 1.275.887 1.81.592.535 1.256.803 1.99.803.558 0 1.16-.174 1.806-.523.247-.133.408-.2.484-.2.114 0 .204.032.27.096.068.063.1.144.1.24 0 .232-.35.512-1.05.842-.702.33-1.424.495-2.166.495-1.097 0-2.02-.374-2.77-1.123-.75-.75-1.122-1.64-1.122-2.674 0-.945.41-1.754 1.23-2.427s1.743-1.01 2.765-1.01c1.326 0 2.32.34 2.98 1.02s.99 1.49.99 2.435c0 .203-.052.328-.153.376-.1.05-.288.07-.56.07h-4.36c-.356 0-.533-.13-.533-.393 0-.25.183-.376.55-.376h3.036zm5.482 1.618c0 .533.023.874.073 1.023.05.15.14.224.274.224.207 0 .46-.114.762-.343.3-.228.502-.343.606-.343.084 0 .16.04.223.116.064.08.096.173.096.28 0 .18-.25.475-.746.88s-.938.61-1.32.61c-1.002 0-1.503-.735-1.503-2.204v-3.658c0-.12-.015-.185-.047-.195-.033-.01-.21-.014-.534-.014-.254 0-.425-.04-.514-.11s-.133-.184-.133-.326c0-.122.032-.21.1-.26.066-.05.196-.104.39-.158.193-.054.342-.117.446-.19s.25-.225.437-.457.32-.56.4-.977c.08-.42.12-1.022.12-1.808 0-.374.1-.56.307-.56.232 0 .377.05.434.156.057.106.086.28.086.53v3.18c0 .125.083.19.248.19h1.35c.274 0 .41.117.41.355 0 .276-.197.414-.59.414h-1.19c-.09 0-.143.013-.162.042l-.03.214v3.387zm5.86.618c0 .31.058.515.17.61.116.095.268.157.46.186.19.03.324.07.403.12.08.05.12.158.12.318 0 .213-.185.32-.553.32-.16 0-.4-.02-.717-.058-.318-.038-.554-.057-.706-.057-.153 0-.376.023-.668.074-.293.05-.513.076-.66.076s-.27-.04-.376-.124-.157-.193-.157-.328c0-.084.03-.157.086-.218.056-.06.202-.11.437-.15.236-.037.4-.113.49-.227.093-.114.14-.39.14-.826v-3.212c0-.272-.058-.453-.17-.54-.116-.09-.284-.156-.506-.2-.22-.045-.36-.103-.413-.174-.053-.07-.08-.155-.08-.26 0-.113.046-.21.138-.282.093-.074.202-.11.33-.11.108 0 .263.023.463.07s.35.07.446.07c.108 0 .274-.016.497-.05.224-.036.39-.053.498-.053.235 0 .352.197.352.59l-.01.252-.01.213v3.97zm-.775-8.26c.29 0 .542.106.753.317.21.212.317.463.317.753 0 .26-.104.48-.313.66-.208.18-.455.27-.74.27s-.528-.1-.733-.3c-.205-.198-.308-.436-.308-.714 0-.265.1-.496.307-.69.206-.197.444-.295.716-.295zm6.4 9.146c.26 0 .39-.117.39-.352v-.257c0-.35.122-.523.366-.523.16 0 .28.074.36.22.08.147.12.453.12.918 0 .293-.02.48-.06.56-.04.08-.145.13-.31.148-.165.02-.504.03-1.018.03h-2.846c-.362 0-.542-.11-.542-.333 0-.16.09-.403.266-.733l2.163-3.997c.1-.21.152-.37.152-.485 0-.135-.036-.216-.108-.244s-.22-.042-.447-.042h-.564c-.34 0-.542.022-.607.067-.07.044-.14.2-.21.466-.077.263-.21.4-.41.4-.22 0-.33-.16-.33-.47l-.02-.68c0-.21.03-.354.088-.428.056-.073.15-.11.275-.11h4.12c.077 0 .144.03.2.09.058.06.087.128.087.205 0 .132-.083.354-.248.665l-2.292 4.15c-.083.146-.124.28-.124.4 0 .222.126.333.38.333h1.166zm7.976-3.12c.146 0 .244-.026.295-.077.05-.05.076-.14.076-.276 0-.484-.19-.938-.565-1.36-.378-.42-.947-.632-1.708-.632-.528 0-1.072.25-1.633.75-.562.502-.842 1.21-.842 2.13 0 .67.296 1.274.888 1.81.593.534 1.257.802 1.99.802.56 0 1.16-.174 1.807-.523.246-.132.407-.2.483-.2.114 0 .204.033.27.097.068.063.1.144.1.24 0 .232-.35.512-1.05.842-.702.33-1.424.494-2.166.494-1.098 0-2.02-.374-2.77-1.123-.748-.75-1.122-1.64-1.122-2.673 0-.945.41-1.754 1.232-2.427s1.743-1.01 2.765-1.01c1.324 0 2.32.34 2.98 1.02.66.68.99 1.49.99 2.436 0 .203-.054.328-.155.376-.102.048-.29.07-.56.07h-4.362c-.355 0-.532-.13-.532-.394 0-.25.185-.376.553-.376h3.034zm10.373-2.41c-.42.153-.757.398-1.014.734-.257.337-.385.737-.385 1.2v2.57c0 .673-.056 1.204-.167 1.594-.113.39-.28.746-.51 1.066-.225.32-.506.617-.84.89-.335.273-.65.49-.944.652-.295.162-.487.243-.576.243s-.132-.124-.132-.37c0-.033.048-.093.143-.182.432-.43.727-.958.886-1.58.16-.622.238-1.294.238-2.018v-2.922c0-.495.164-.93.493-1.31.328-.377.758-.664 1.287-.86-.536-.19-.966-.468-1.292-.833-.326-.365-.488-.782-.488-1.252v-2.922c0-.73-.08-1.404-.238-2.022-.16-.62-.454-1.143-.885-1.575l-.14-.184c0-.247.043-.37.132-.37.11 0 .367.118.777.356.41.238.825.576 1.25 1.014.424.438.725 1.006.904 1.704.07.274.105.73.105 1.37v2.57c0 .44.127.82.384 1.143.257.324.595.562 1.014.714v.58z" enable-background="new"/></svg>