<svg xmlns="http://www.w3.org/2000/svg" width="200" height="71.544" viewBox="470.835 397.97 200 71.544" enable-background="new 470.835 397.97 200 71.544"><path d="M494.152 438.58c0 1.522 1.015 2.578 3.045 3.168.508.15.883.32 1.126.514.243.193.365.557.365 1.092 0 .28-.164.52-.492.723-.328.203-.682.305-1.063.305-.402 0-.947-.095-1.634-.286-.69-.19-1.245-.286-1.668-.286-.487 0-1.1.095-1.84.286-.74.19-1.237.286-1.49.286-.297 0-.588-.106-.873-.317-.287-.21-.43-.423-.43-.634 0-.336-.105-.506-.316-.506-.148 0-.34.074-.57.222-2.39 1.48-4.97 2.22-7.742 2.22-1.312 0-2.776-.338-4.394-1.014s-2.915-1.717-3.887-3.124c-.972-1.406-1.46-3.146-1.46-5.22 0-2.198 1.05-4.144 3.153-5.836 2.1-1.692 4.808-2.538 8.122-2.538 1.12 0 2.35.312 3.69.936 1.34.624 2.01 1.264 2.01 1.92 0 .316-.138.57-.412.76-.275.19-.614.285-1.015.285-.275 0-.814-.19-1.618-.57-.804-.382-1.63-.572-2.474-.572-1.734 0-3.172.512-4.314 1.536-1.142 1.022-1.713 2.387-1.713 4.096 0 1.983.655 3.507 1.967 4.572 1.31 1.065 2.823 1.598 4.537 1.598 1.544 0 2.966-.508 4.267-1.523 1.3-1.015 1.95-2.368 1.95-4.06v-8.598c0-1.29-.425-2.337-1.28-3.14-.855-.805-2-1.207-3.434-1.207-1.836 0-3.62.582-5.348 1.745-.592.402-.993.603-1.204.603-.507 0-.94-.132-1.298-.397-.36-.265-.538-.61-.538-1.03 0-1.038.946-1.916 2.84-2.635 1.89-.72 3.96-1.08 6.2-1.08 2.77 0 5.002.698 6.695 2.092 1.692 1.394 2.538 3.052 2.538 4.973v10.644zm11.262 10.35c.127-1.202.19-4.536.19-10.003 0-2.638-.063-6.49-.19-11.554-.043-.527-.26-.986-.65-1.376-.39-.39-1.21-.692-2.46-.903-.95-.15-1.57-.332-1.855-.546s-.43-.482-.43-.803c0-.835.657-1.253 1.973-1.253.255 0 .88.1 1.878.3.998.202 1.623.302 1.878.302.274 0 .848-.122 1.718-.365.87-.245 1.41-.367 1.623-.367.572 0 .933.127 1.08.38.15.254.224.644.224 1.172v11.18c0 2.282.72 4.092 2.157 5.433 1.44 1.34 3.12 2.01 5.045 2.01.93 0 2.12-.405 3.57-1.217 1.448-.81 2.58-1.986 3.393-3.524.813-1.54 1.22-3.278 1.22-5.217 0-2.297-.703-4.34-2.11-6.133-1.407-1.79-3.04-2.688-4.9-2.688-1.122 0-2.153.205-3.094.62-.94.41-1.56.617-1.856.617-.296 0-.56-.095-.793-.286-.233-.19-.35-.422-.35-.697 0-.62.777-1.256 2.33-1.908 1.55-.652 2.886-.98 4.005-.98 3.42 0 6.286 1.09 8.598 3.27 2.312 2.177 3.468 5.138 3.468 8.882 0 2.898-1.193 5.562-3.58 7.994-2.385 2.433-5.257 3.65-8.615 3.65-1.287 0-2.506-.17-3.657-.51-1.15-.34-2.656-1.12-4.514-2.347-.17 0-.253.54-.253 1.618 0 2.687-.18 4.733-.54 6.14-.362 1.406-.977 2.628-1.848 3.664-.87 1.036-1.725 1.77-2.564 2.205-.838.432-1.65.65-2.435.65-1.166 0-1.75-.28-1.75-.84 0-.24.264-.498.793-.78 1.27-.695 2.136-1.6 2.6-2.705.468-1.107.7-2.135.7-3.085zm32.232 0c.127-1.202.19-4.536.19-10.003 0-2.638-.063-6.49-.19-11.554-.043-.527-.26-.986-.65-1.376-.39-.39-1.21-.692-2.46-.903-.95-.15-1.57-.332-1.855-.546s-.426-.482-.426-.803c0-.835.657-1.253 1.973-1.253.255 0 .88.1 1.878.3.997.202 1.622.302 1.877.302.276 0 .85-.122 1.72-.365.87-.245 1.41-.367 1.623-.367.572 0 .933.127 1.08.38.15.254.224.644.224 1.172v11.18c0 2.282.72 4.092 2.156 5.433 1.438 1.34 3.12 2.01 5.044 2.01.93 0 2.12-.405 3.57-1.217 1.447-.81 2.58-1.986 3.393-3.524.815-1.54 1.222-3.278 1.222-5.217 0-2.297-.703-4.34-2.11-6.133-1.407-1.79-3.04-2.688-4.9-2.688-1.122 0-2.153.205-3.094.62-.94.41-1.56.617-1.855.617-.296 0-.56-.095-.793-.286-.234-.19-.35-.422-.35-.697 0-.62.776-1.256 2.328-1.908 1.55-.652 2.887-.98 4.006-.98 3.42 0 6.286 1.09 8.598 3.27 2.312 2.177 3.468 5.138 3.468 8.882 0 2.898-1.193 5.562-3.58 7.994-2.385 2.433-5.257 3.65-8.615 3.65-1.288 0-2.508-.17-3.658-.51-1.15-.34-2.657-1.12-4.515-2.347-.17 0-.253.54-.253 1.618 0 2.687-.18 4.733-.54 6.14-.362 1.406-.977 2.628-1.848 3.664-.87 1.036-1.724 1.77-2.563 2.205-.84.432-1.65.65-2.435.65-1.167 0-1.75-.28-1.75-.84 0-.24.263-.498.792-.78 1.27-.695 2.136-1.6 2.6-2.705.467-1.107.7-2.135.7-3.085z" enable-background="new" fill="#EB3C00"/><path d="M588.244 439.75c.593 0 .89.494.89 1.482 0 .63-1.068 1.446-3.204 2.444s-4.378 1.498-6.725 1.498c-3.85 0-7.15-1.17-9.898-3.505-2.75-2.34-4.124-5.284-4.124-8.837 0-3.15 1.3-5.92 3.902-8.312 2.6-2.39 5.71-3.584 9.327-3.584 1.946 0 4.156.4 6.63 1.202 2.474.8 3.712 1.527 3.712 2.18 0 1.18.063 2.14.19 2.876s.19 1.16.19 1.264c0 .95-.44 1.423-1.318 1.423-.665 0-1.183-.633-1.553-1.902-.37-1.27-1.147-2.28-2.332-3.03-1.183-.75-2.642-1.126-4.376-1.126-2.178 0-4.203.806-6.075 2.42-1.873 1.612-2.81 3.893-2.81 6.843 0 2.716 1.05 4.94 3.147 6.67 2.097 1.73 4.28 2.593 6.546 2.593.826 0 1.684-.106 2.574-.317.89-.21 1.88-.644 2.97-1.3 1.093-.654 1.87-.982 2.338-.982zm12.913-.158c0 .57.148 1.058.444 1.46.298.4.954.686 1.97.856 1.014.17 1.633.383 1.855.64.222.257.333.58.333.964 0 .686-.52 1.03-1.558 1.03-.637 0-1.58-.08-2.83-.24-1.252-.158-2.195-.237-2.83-.237-.594 0-1.463.08-2.607.238-1.145.16-2.014.238-2.607.238-.848 0-1.394-.095-1.638-.287-.244-.194-.365-.46-.365-.804s.1-.634.3-.87c.202-.235.836-.432 1.904-.59 1.068-.16 1.766-.507 2.094-1.047.33-.54.494-1.167.494-1.886v-34.204c0-.74-.17-1.39-.508-1.95-.34-.56-1.036-.966-2.094-1.22-1.057-.253-1.686-.508-1.887-.765-.2-.257-.3-.547-.3-.87 0-.32.174-.577.524-.77.35-.194.715-.29 1.097-.29.34 0 .843.063 1.51.19.67.127 1.163.19 1.48.19.362 0 .903-.063 1.624-.19s1.26-.19 1.623-.19c.68 0 1.178.18 1.496.54.317.36.476 1.004.476 1.934v38.132zm17.163-.984c0 1.036.394 1.893 1.18 2.57.788.677 1.728 1.015 2.82 1.015.673 0 1.466-.27 2.38-.81s1.58-.808 2-.808c.42 0 .63.26.63.776 0 .606-.786 1.36-2.358 2.27s-3.35 1.365-5.333 1.365c-1.543 0-2.888-.475-4.038-1.425-1.15-.95-1.815-2.007-1.994-3.17-.18-1.16-.27-5.51-.27-13.048 0-1.013-1.036-1.752-3.11-2.217-.91-.193-1.363-.547-1.363-1.063 0-.343.143-.61.43-.805.286-.193.642-.29 1.066-.29.128 0 .748.085 1.863.254 1.114.17 2.053.256 2.818.256.276 0 .685-.08 1.226-.238.54-.16.876-.238 1.003-.238.7 0 1.05 1.438 1.05 4.313v11.295zm10.437-10.822c0-1.52-.825-2.396-2.474-2.63-.994-.15-1.618-.336-1.872-.56-.252-.225-.38-.51-.38-.852 0-.792.606-1.188 1.815-1.188.318 0 .96.11 1.925.333.964.22 2 .33 3.102.33.297 0 .668-.04 1.114-.126.446-.084.722-.127.828-.127.573 0 .86.644.86 1.932 0 9.733.083 14.91.253 15.534.17.623 1.026 1.125 2.57 1.504.804.214 1.3.406 1.49.578s.287.375.287.61c0 .28-.175.537-.525.773-.35.236-.803.354-1.355.354-.234 0-.806-.074-1.72-.222-.91-.148-1.56-.222-1.94-.222-.405 0-.892.075-1.465.223-.572.148-.954.222-1.145.222-.467 0-.785-.127-.955-.38-.17-.253-.28-.876-.334-1.87-.053-.99-.08-2.902-.08-5.732v-8.487zm21.572 15.137c-.13.127-.256.344-.383.65-.127.306-.28.534-.46.682-.18.148-.503.222-.968.222-.36 0-.926-.09-1.698-.27-.772-.18-1.38-.27-1.824-.27s-1.064.09-1.857.27c-.792.18-1.39.27-1.79.27-.487 0-.91-.123-1.27-.37-.36-.246-.54-.584-.54-1.013 0-.28.107-.514.317-.707.21-.193.94-.416 2.193-.67 1.252-.252 2.104-.738 2.556-1.456.452-.716.68-1.57.68-2.563v-32.563c0-1.753-.412-2.978-1.23-3.674-.464-.402-1.205-.677-2.225-.824-1.02-.148-1.633-.345-1.843-.59-.21-.247-.315-.542-.315-.885 0-.34.207-.625.62-.85.412-.225.81-.34 1.19-.34.423 0 1.047.09 1.872.27.825.18 1.438.27 1.84.27.38 0 .92-.066 1.618-.204.698-.137 1.216-.206 1.555-.206.634 0 1.1.174 1.396.523.297.35.445 1 .445 1.952v37.113c0 1.313.807 2.48 2.422 3.507 1.614 1.026 3.14 1.54 4.575 1.54 1.646 0 3.387-.7 5.224-2.095 1.835-1.396 2.753-3.712 2.753-6.948 0-2.517-.728-4.668-2.184-6.456-1.457-1.787-3.346-2.68-5.666-2.68-.885 0-1.798.242-2.737.73-.94.486-1.556.73-1.85.73-.254 0-.513-.112-.776-.334-.263-.222-.395-.44-.395-.65 0-.952.813-1.787 2.44-2.506 1.625-.72 3.06-1.08 4.306-1.08 3.464 0 6.35 1.244 8.663 3.73 2.312 2.484 3.468 5.514 3.468 9.088 0 3.278-1.21 5.98-3.626 8.105-2.42 2.123-5.338 3.186-8.76 3.186-1.73 0-3.926-.696-6.587-2.087l-1.144-.548z"/><path d="M546.77 460.273c.536.197.966.484 1.292.86.325.38.488.815.488 1.31v2.922c0 .723.08 1.396.243 2.018.162.622.458 1.148.89 1.58.09.09.133.15.133.18 0 .248-.044.372-.133.372-.108 0-.367-.12-.776-.362-.41-.24-.826-.58-1.25-1.014-.425-.437-.723-1.003-.895-1.7-.07-.274-.105-.73-.105-1.37v-2.57c0-.464-.13-.864-.39-1.2-.26-.336-.6-.58-1.018-.733v-.58c.417-.153.756-.39 1.016-.715.26-.324.39-.704.39-1.142v-2.57c0-.836.063-1.392.19-1.664.153-.533.43-1.007.828-1.423.4-.415.805-.746 1.218-.99.413-.244.677-.366.79-.366.09 0 .134.124.134.37l-.133.182c-.432.43-.728.954-.89 1.573-.162.62-.243 1.293-.243 2.022v2.922c0 .47-.162.887-.487 1.252-.327.364-.758.64-1.293.832zm9.774 6.11l-.114.195c-.038.092-.084.16-.138.205-.054.044-.15.067-.29.067-.108 0-.278-.027-.51-.08-.23-.055-.413-.082-.546-.082s-.32.027-.557.08c-.24.055-.42.082-.54.082-.146 0-.273-.037-.38-.11-.11-.075-.163-.176-.163-.305 0-.084.032-.154.095-.212.063-.058.283-.125.658-.2.376-.077.632-.222.768-.438.136-.215.204-.472.204-.77v-9.77c0-.525-.123-.892-.37-1.1-.138-.122-.36-.204-.666-.248-.306-.044-.49-.103-.554-.177-.063-.074-.095-.162-.095-.265 0-.103.062-.188.186-.256s.243-.103.357-.103c.127 0 .314.027.562.08.247.055.43.082.552.082.114 0 .276-.02.485-.063.207-.04.363-.062.464-.062.19 0 .33.053.42.157.088.105.132.3.132.586v11.133c0 .395.242.745.726 1.053.484.308.942.462 1.372.462.494 0 1.016-.21 1.567-.628.55-.42.827-1.115.827-2.085 0-.755-.218-1.4-.655-1.937-.437-.536-1.003-.804-1.7-.804-.265 0-.54.074-.82.22-.282.146-.467.22-.556.22-.076 0-.153-.034-.232-.1-.08-.068-.12-.133-.12-.196 0-.286.245-.536.733-.752.488-.216.918-.324 1.292-.324 1.04 0 1.904.374 2.6 1.12.692.745 1.04 1.653 1.04 2.726 0 .983-.365 1.794-1.09 2.432-.725.638-1.6.956-2.627.956-.52 0-1.178-.21-1.977-.626l-.343-.165zm9.393-1.294c0 .31.118.566.354.77.238.202.52.304.848.304.202 0 .44-.08.713-.243.275-.16.475-.242.6-.242s.19.077.19.232c0 .18-.236.408-.707.68s-1.005.41-1.6.41c-.462 0-.866-.143-1.21-.428-.346-.285-.545-.602-.6-.95s-.08-1.653-.08-3.915c0-.305-.31-.527-.933-.666-.274-.057-.41-.163-.41-.32 0-.1.043-.18.13-.24.085-.057.192-.086.32-.086l.558.076c.334.05.616.076.845.076.083 0 .205-.025.368-.072l.303-.07c.21 0 .315.43.315 1.293v3.39zm3.13-3.25c0-.455-.246-.72-.74-.79-.3-.043-.486-.1-.563-.167-.076-.067-.114-.152-.114-.255 0-.24.18-.358.544-.358.095 0 .288.033.578.1s.6.1.93.1l.335-.038.248-.038c.172 0 .258.193.258.58 0 2.92.025 4.474.076 4.66.05.187.306.338.77.45.24.065.39.123.446.175.057.05.086.112.086.183 0 .084-.053.16-.158.232s-.24.106-.406.106c-.07 0-.243-.02-.517-.066-.273-.044-.467-.067-.58-.067-.12 0-.267.022-.44.067l-.343.067c-.14 0-.236-.037-.286-.113-.05-.076-.083-.263-.1-.56-.015-.3-.023-.872-.023-1.72v-2.546zm6.51 3.37c0 .31.058.515.172.61.112.095.264.157.455.186.19.03.325.07.404.12.08.05.12.158.12.318 0 .213-.187.32-.555.32-.16 0-.398-.02-.716-.058-.32-.038-.555-.057-.707-.057-.153 0-.376.024-.668.075-.292.05-.512.076-.658.076s-.272-.04-.377-.124-.156-.193-.156-.328c0-.084.03-.157.086-.218.057-.06.203-.11.438-.15.235-.037.398-.113.49-.227.092-.114.138-.39.138-.826v-3.212c0-.272-.057-.453-.17-.54-.115-.09-.283-.156-.505-.2-.22-.045-.36-.103-.412-.174-.054-.07-.08-.156-.08-.26 0-.114.045-.21.137-.283.093-.074.202-.11.33-.11.108 0 .263.023.463.07.2.048.35.07.444.07.11 0 .275-.016.498-.05.223-.036.388-.053.496-.053.236 0 .353.197.353.59l-.01.252-.01.213v3.97zm-.775-8.26c.29 0 .542.106.753.317.212.212.318.463.318.753 0 .26-.104.48-.313.66-.208.18-.455.27-.74.27s-.528-.1-.733-.3c-.205-.198-.308-.436-.308-.714 0-.265.1-.496.306-.69.205-.197.444-.295.715-.295zm5.687 8.433c0 .17.042.317.13.438s.287.207.59.258c.306.05.49.114.558.19.066.078.1.175.1.29 0 .206-.157.31-.468.31-.19 0-.474-.025-.85-.072-.374-.048-.657-.07-.848-.07-.178 0-.44.023-.782.07-.343.048-.604.07-.782.07-.254 0-.418-.028-.49-.086-.074-.058-.11-.138-.11-.24 0-.104.03-.19.09-.26.06-.072.25-.13.57-.18.32-.047.53-.15.63-.313.097-.163.147-.35.147-.567v-10.26c0-.223-.05-.418-.152-.586-.102-.168-.31-.29-.628-.366s-.506-.152-.566-.23c-.06-.076-.09-.163-.09-.26 0-.096.052-.174.157-.23.105-.06.215-.088.33-.088.102 0 .253.02.453.057.202.037.35.056.445.056.108 0 .27-.02.487-.057.216-.04.38-.058.487-.058.202 0 .35.054.447.162.095.108.143.3.143.58v11.44zm10.086-.77c0 .31.063.594.19.85s.355.443.685.557c.33.115.52.198.57.25.053.05.078.11.078.174 0 .277-.148.415-.44.415-.095 0-.23-.027-.4-.078-.173-.05-.396-.076-.67-.076-.184 0-.386.025-.605.076-.22.05-.358.076-.415.076-.12 0-.223-.045-.306-.134-.083-.09-.13-.18-.14-.276-.01-.095-.03-.143-.06-.143l-.153.067c-.963.546-1.774.818-2.433.818-.937 0-1.782-.358-2.533-1.075-.75-.717-1.126-1.54-1.126-2.465 0-1.06.38-1.932 1.14-2.617s1.643-1.028 2.65-1.028c.424 0 .862.106 1.31.317.45.21.676.446.676.704 0 .082-.03.152-.09.208-.06.057-.128.085-.204.085-.095 0-.315-.078-.66-.233-.345-.155-.663-.233-.954-.233-.64 0-1.18.267-1.624.8-.443.535-.665 1.17-.665 1.908 0 .63.2 1.252.602 1.87.4.615.95.924 1.647.924.374 0 .803-.103 1.287-.31s.793-.484.926-.836.2-.885.2-1.6v-8.18c0-.526-.09-.89-.266-1.094-.178-.203-.435-.355-.77-.457-.337-.104-.543-.18-.62-.23-.076-.053-.114-.137-.114-.253 0-.084.048-.156.143-.217.095-.06.23-.09.4-.09l.45.047c.23.032.413.048.554.048.293 0 .546-.013.76-.038l.385-.038c.23 0 .382.063.458.193.076.13.115.31.115.537 0 .42.003.756.01 1.01l.01.674v9.09zm2.984.2c.298 0 .563.14.797.422.234.282.35.655.35 1.118 0 .393-.212.996-.637 1.808s-.74 1.22-.948 1.22c-.117 0-.175-.06-.175-.18 0-.034.12-.297.364-.79.245-.497.366-.884.366-1.163 0-.216-.138-.392-.412-.528s-.458-.28-.55-.43-.136-.31-.136-.48c0-.31.092-.555.275-.733.182-.177.418-.265.71-.265zm6.296-3.086c0-.228-.068-.405-.205-.532s-.266-.19-.393-.19c-.38 0-.57-.12-.57-.357 0-.277.136-.415.41-.415.076 0 .224.022.444.067.22.044.388.067.5.067.155 0 .313-.02.475-.058l.33-.058c.17 0 .285.043.343.13.057.085.1.432.124 1.04.026.61.04 1.318.04 2.123l-.02 1.656c0 .293.017.475.052.548s.11.145.228.215.255.114.414.133c.16.02.274.05.347.09.074.043.11.13.11.267 0 .225-.162.338-.487.338-.235 0-.474-.023-.716-.07-.242-.05-.48-.07-.715-.07-.19 0-.425.024-.7.07-.278.05-.486.07-.626.07-.357 0-.535-.1-.535-.307 0-.154.033-.255.1-.304.067-.05.19-.084.366-.107.18-.022.323-.073.434-.152.112-.08.182-.18.21-.31.03-.125.043-.384.043-.777v-3.106zm4.33-.02c0-.138-.06-.257-.184-.355-.123-.098-.258-.147-.403-.147-.318 0-.69.18-1.12.536-.254.22-.438.33-.55.33-.165 0-.247-.072-.247-.22 0-.322.297-.7.89-1.126.593-.428 1.128-.642 1.604-.642.406 0 .76.144 1.066.433.305.29.457.63.457 1.023l-.018 3.844c0 .197.067.36.2.49s.292.195.476.195c.324 0 .485.127.485.385 0 .225-.17.338-.506.338l-.568-.062c-.34-.04-.627-.06-.856-.06-.382 0-.703.023-.964.07-.26.048-.428.07-.505.07-.115 0-.215-.036-.3-.11-.086-.074-.13-.17-.13-.285 0-.18.112-.27.334-.27.2 0 .39-.065.57-.195.177-.13.265-.325.265-.584v-3.657zm4.35 0c0-.138-.062-.257-.185-.355-.12-.098-.256-.147-.4-.147-.254 0-.565.144-.935.433-.37.288-.615.432-.735.432-.077 0-.145-.024-.205-.07-.06-.05-.09-.104-.09-.168 0-.286.28-.646.837-1.08.558-.435 1.126-.652 1.704-.652.673 0 1.133.282 1.38.847.09.17.133 1.11.133 2.816l-.02 1.618c0 .204.053.356.16.458.11.103.274.175.496.22.222.044.357.097.404.158.05.06.072.134.072.217 0 .238-.156.357-.468.357l-.572-.062c-.337-.04-.623-.062-.86-.062-.234 0-.49.024-.767.07s-.507.072-.692.072c-.115 0-.215-.037-.3-.11-.086-.075-.13-.17-.13-.286 0-.2.15-.313.444-.342s.49-.106.585-.233c.095-.128.143-.286.143-.476v-3.654zm7.414-1.882c1.053 0 1.972.362 2.755 1.085.784.724 1.175 1.56 1.175 2.504 0 1.06-.374 1.922-1.123 2.59-.75.665-1.75.998-3.007.998-.99 0-1.88-.34-2.67-1.018s-1.185-1.523-1.185-2.532c0-.964.347-1.81 1.042-2.536.695-.727 1.7-1.09 3.013-1.09zm.01 6.338c.73 0 1.31-.263 1.745-.79.435-.527.652-1.193.652-2 0-.792-.233-1.442-.7-1.95-.466-.508-1.058-.76-1.775-.76-.736 0-1.307.248-1.713.746-.408.497-.61 1.14-.61 1.926 0 .87.224 1.558.675 2.065.45.51 1.025.763 1.723.763zm5.9-4.437c0-.234-.046-.41-.138-.527-.092-.118-.284-.2-.576-.253-.292-.05-.438-.182-.438-.395 0-.09.05-.178.153-.265.104-.087.238-.13.403-.13.07 0 .193.022.368.067.176.044.32.067.436.067.07 0 .23-.02.483-.056l.472-.057c.13 0 .218.052.268.157.05.105.08.316.086.633.013.527.02 1.088.02 1.685l-.058 2.712c0 .197.016.317.048.362.032.044.106.102.224.17s.268.125.452.163c.184.037.3.09.352.16.05.066.076.144.076.234 0 .213-.165.32-.496.32-.23 0-.464-.022-.706-.063-.242-.04-.48-.06-.716-.06-.19 0-.437.016-.74.05-.3.036-.525.053-.672.053-.325 0-.487-.12-.487-.357 0-.103.03-.186.087-.25.057-.065.18-.104.37-.117.217-.014.35-.045.4-.096.147-.152.24-.285.277-.4s.057-.347.057-.702v-3.106zm5.834 3.657c0 .273.046.452.138.538.092.087.257.156.495.21.238.054.357.155.357.304 0 .2-.118.3-.353.3l-.57-.033c-.338-.02-.62-.032-.85-.032-.38 0-.703.023-.963.07s-.43.07-.506.07c-.114 0-.22-.038-.32-.115-.1-.077-.147-.17-.147-.28 0-.082.04-.16.124-.235.082-.074.178-.11.286-.11.203 0 .384-.06.542-.177.16-.116.238-.292.238-.526 0-1.526.01-2.47.03-2.835l.028-.613c0-.494-.226-.74-.68-.74-.194 0-.473.148-.835.446-.362.298-.62.447-.77.447-.05 0-.107-.03-.17-.095-.063-.064-.095-.132-.095-.203 0-.226.29-.567.872-1.023.582-.46 1.152-.687 1.71-.687.328 0 .613.084.853.252.24.168.4.38.48.633.08.253.12.61.12 1.074l-.01.61v2.75zm7.823-2.408c.146 0 .244-.025.295-.076s.076-.14.076-.275c0-.484-.19-.938-.566-1.36s-.947-.632-1.708-.632c-.527 0-1.07.25-1.632.75-.562.502-.842 1.21-.842 2.13 0 .67.296 1.274.888 1.81.592.534 1.256.802 1.99.802.558 0 1.16-.174 1.806-.523.247-.133.408-.2.484-.2.114 0 .204.032.27.096.068.063.1.144.1.24 0 .232-.35.512-1.05.842-.702.33-1.424.495-2.166.495-1.098 0-2.02-.374-2.77-1.123-.75-.75-1.123-1.64-1.123-2.674 0-.945.41-1.754 1.23-2.427s1.743-1.01 2.765-1.01c1.326 0 2.32.34 2.98 1.02s.99 1.49.99 2.436c0 .203-.052.328-.153.376-.1.048-.288.07-.56.07h-4.36c-.356 0-.533-.13-.533-.394 0-.25.183-.376.55-.376h3.036zm5.482 1.618c0 .533.023.874.073 1.023.05.15.14.224.273.224.207 0 .46-.113.762-.342.3-.228.502-.343.606-.343.084 0 .16.04.223.116.064.08.096.173.096.28 0 .18-.25.475-.747.88s-.938.61-1.32.61c-1.002 0-1.503-.735-1.503-2.204v-3.658c0-.12-.016-.185-.048-.195-.033-.01-.21-.014-.534-.014-.253 0-.424-.038-.513-.11s-.133-.183-.133-.325c0-.122.032-.21.1-.26.066-.05.196-.104.39-.158.193-.054.342-.117.446-.19s.25-.225.438-.457.32-.558.4-.976c.08-.42.12-1.022.12-1.808 0-.374.1-.56.307-.56.232 0 .377.05.434.156.057.105.086.28.086.528v3.18c0 .126.083.19.248.19h1.35c.274 0 .41.118.41.356 0 .276-.197.414-.59.414h-1.19c-.09 0-.143.014-.162.043l-.03.214v3.387zm5.86.618c0 .31.058.515.17.61.116.095.268.157.46.186.19.03.324.07.403.12.08.05.12.158.12.318 0 .213-.186.32-.554.32-.16 0-.4-.02-.717-.058-.318-.038-.554-.057-.706-.057-.153 0-.376.024-.668.075-.293.05-.513.076-.66.076s-.27-.04-.376-.124-.157-.193-.157-.328c0-.084.03-.157.086-.218.057-.06.203-.11.438-.15.236-.037.4-.113.49-.227.093-.114.14-.39.14-.826v-3.212c0-.272-.058-.453-.17-.54-.116-.09-.284-.156-.506-.2-.222-.045-.36-.103-.414-.174-.053-.07-.08-.156-.08-.26 0-.114.046-.21.138-.283.093-.074.202-.11.33-.11.108 0 .263.023.463.07s.35.07.446.07c.108 0 .274-.016.497-.05.223-.036.388-.053.497-.053.235 0 .352.197.352.59l-.01.252-.01.213v3.97zm-.775-8.26c.29 0 .542.106.753.317.21.212.317.463.317.753 0 .26-.104.48-.313.66-.208.18-.455.27-.74.27s-.528-.1-.733-.3c-.205-.198-.308-.436-.308-.714 0-.265.102-.496.308-.69.206-.197.444-.295.716-.295zm6.4 9.146c.26 0 .39-.117.39-.352v-.257c0-.35.122-.523.366-.523.16 0 .28.074.36.22.08.147.12.453.12.918 0 .293-.02.48-.06.56-.04.08-.144.13-.31.148-.164.02-.503.03-1.017.03h-2.846c-.362 0-.542-.11-.542-.333 0-.16.09-.403.266-.733l2.163-3.997c.1-.21.152-.37.152-.485 0-.135-.036-.216-.108-.244s-.22-.042-.447-.042h-.564c-.34 0-.542.022-.607.067-.068.044-.138.2-.21.466-.076.264-.21.4-.41.4-.22 0-.328-.158-.328-.47l-.02-.68c0-.21.03-.353.087-.427.056-.073.15-.11.275-.11h4.12c.077 0 .144.03.2.09.058.06.087.128.087.205 0 .132-.083.354-.248.665l-2.292 4.15c-.083.146-.124.28-.124.4 0 .222.126.333.38.333h1.166zm7.976-3.12c.147 0 .245-.026.296-.077.05-.05.076-.14.076-.275 0-.484-.19-.938-.566-1.36-.378-.42-.947-.632-1.708-.632-.528 0-1.072.25-1.633.75-.562.502-.842 1.21-.842 2.13 0 .67.296 1.274.888 1.81.593.534 1.257.802 1.99.802.56 0 1.16-.174 1.807-.523.246-.133.407-.2.483-.2.114 0 .204.032.27.096.068.063.1.144.1.24 0 .232-.35.512-1.05.842-.702.33-1.424.495-2.166.495-1.098 0-2.02-.374-2.77-1.123-.748-.75-1.122-1.64-1.122-2.674 0-.945.41-1.754 1.232-2.427s1.743-1.01 2.765-1.01c1.325 0 2.32.34 2.98 1.02.66.68.99 1.49.99 2.436 0 .203-.053.328-.154.376-.102.048-.29.07-.56.07h-4.362c-.355 0-.532-.13-.532-.394 0-.25.184-.376.552-.376h3.034zm10.374-2.41c-.42.153-.757.398-1.014.734-.256.337-.384.737-.384 1.2v2.57c0 .673-.056 1.204-.167 1.594-.113.39-.28.746-.51 1.066-.225.32-.506.617-.84.89-.335.273-.65.49-.944.652-.295.162-.487.243-.576.243s-.132-.124-.132-.37c0-.033.048-.093.143-.182.433-.43.728-.958.887-1.58.16-.622.238-1.294.238-2.018v-2.922c0-.495.164-.93.493-1.31.328-.377.758-.664 1.287-.86-.536-.19-.966-.468-1.292-.833-.326-.365-.488-.782-.488-1.252v-2.922c0-.73-.08-1.404-.238-2.022-.16-.62-.454-1.143-.885-1.575l-.142-.183c0-.247.044-.37.133-.37.11 0 .367.118.777.356.41.238.826.576 1.25 1.014.425.438.726 1.006.905 1.704.07.274.105.73.105 1.37v2.57c0 .44.128.82.385 1.143.257.324.595.562 1.014.714v.58z" enable-background="new"/></svg>