<?xml version="1.0" encoding="utf-8"?>
<!-- Generator: Adobe Illustrator 17.0.1, SVG Export Plug-In . SVG Version: 6.00 Build 0)  -->
<!DOCTYPE svg PUBLIC "-//W3C//DTD SVG 1.1//EN" "http://www.w3.org/Graphics/SVG/1.1/DTD/svg11.dtd">
<svg version="1.1"
	 id="svg2" xmlns:dc="http://purl.org/dc/elements/1.1/" xmlns:cc="http://creativecommons.org/ns#" xmlns:inkscape="http://www.inkscape.org/namespaces/inkscape" xmlns:sodipodi="http://sodipodi.sourceforge.net/DTD/sodipodi-0.dtd" xmlns:svg="http://www.w3.org/2000/svg" xmlns:rdf="http://www.w3.org/1999/02/22-rdf-syntax-ns#" sodipodi:docname="appclub-all.eps" inkscape:version="0.48.4 r9939"
	 xmlns="http://www.w3.org/2000/svg" xmlns:xlink="http://www.w3.org/1999/xlink" x="0px" y="0px" width="200px" height="71.544px"
	 viewBox="470.835 397.97 200 71.544" enable-background="new 470.835 397.97 200 71.544" xml:space="preserve">
<sodipodi:namedview  bordercolor="#666666" borderopacity="1.0" pagecolor="#ffffff" showgrid="false" inkscape:cy="595.51299" inkscape:cx="-153.70387" inkscape:zoom="0.7" id="base" inkscape:window-maximized="1" inkscape:window-y="-8" inkscape:current-layer="layer1" inkscape:pageshadow="2" inkscape:document-units="px" inkscape:pageopacity="0.0" inkscape:window-x="-8" inkscape:window-height="987" inkscape:window-width="1680">
	</sodipodi:namedview>
<g id="layer1" inkscape:label="Layer 1" inkscape:groupmode="layer">
	<g enable-background="new    ">
		<path fill="#EB3C00" d="M494.152,438.581c0,1.521,1.015,2.577,3.045,3.167c0.508,0.15,0.883,0.321,1.126,0.514
			c0.243,0.193,0.365,0.557,0.365,1.092c0,0.279-0.164,0.519-0.492,0.723c-0.328,0.203-0.682,0.305-1.063,0.305
			c-0.402,0-0.947-0.095-1.634-0.286c-0.687-0.19-1.243-0.286-1.666-0.286c-0.487,0-1.1,0.095-1.84,0.286
			c-0.741,0.19-1.237,0.286-1.491,0.286c-0.296,0-0.587-0.106-0.872-0.317c-0.286-0.211-0.428-0.423-0.428-0.634
			c0-0.338-0.106-0.508-0.317-0.508c-0.148,0-0.339,0.074-0.571,0.222c-2.39,1.48-4.97,2.221-7.741,2.221
			c-1.312,0-2.776-0.339-4.394-1.015s-2.914-1.718-3.886-3.125c-0.973-1.406-1.459-3.146-1.459-5.219
			c0-2.199,1.05-4.145,3.151-5.837c2.1-1.692,4.808-2.538,8.122-2.538c1.119,0,2.349,0.312,3.689,0.936
			c1.34,0.624,2.011,1.264,2.011,1.919c0,0.317-0.138,0.571-0.412,0.761c-0.275,0.19-0.614,0.285-1.015,0.285
			c-0.275,0-0.814-0.19-1.618-0.571c-0.804-0.381-1.629-0.571-2.474-0.571c-1.734,0-3.172,0.511-4.314,1.535
			c-1.142,1.023-1.713,2.388-1.713,4.097c0,1.983,0.655,3.507,1.967,4.572c1.311,1.065,2.823,1.598,4.537,1.598
			c1.544,0,2.966-0.508,4.267-1.523c1.301-1.015,1.951-2.368,1.951-4.061v-8.597c0-1.29-0.427-2.337-1.282-3.141
			c-0.855-0.804-1.999-1.206-3.434-1.206c-1.836,0-3.619,0.582-5.348,1.745c-0.591,0.402-0.992,0.603-1.203,0.603
			c-0.507,0-0.939-0.132-1.298-0.397c-0.359-0.264-0.538-0.608-0.538-1.031c0-1.036,0.946-1.914,2.839-2.633
			c1.892-0.719,3.96-1.079,6.202-1.079c2.77,0,5.001,0.697,6.694,2.091c1.692,1.394,2.538,3.052,2.538,4.973V438.581z"/>
		<path fill="#EB3C00" d="M505.414,448.931c0.127-1.203,0.19-4.537,0.19-10.004c0-2.638-0.063-6.489-0.19-11.554
			c-0.043-0.527-0.259-0.986-0.65-1.376c-0.391-0.391-1.211-0.692-2.459-0.903c-0.952-0.15-1.57-0.332-1.856-0.546
			s-0.428-0.482-0.428-0.803c0-0.835,0.657-1.253,1.973-1.253c0.255,0,0.88,0.101,1.878,0.301c0.997,0.201,1.622,0.301,1.877,0.301
			c0.275,0,0.849-0.122,1.719-0.365c0.869-0.243,1.411-0.365,1.623-0.365c0.572,0,0.933,0.127,1.081,0.38
			c0.149,0.254,0.223,0.644,0.223,1.172v11.181c0,2.281,0.719,4.091,2.157,5.432c1.438,1.341,3.119,2.011,5.044,2.011
			c0.93,0,2.12-0.405,3.569-1.217c1.449-0.812,2.58-1.987,3.394-3.525c0.814-1.539,1.221-3.278,1.221-5.217
			c0-2.297-0.703-4.342-2.11-6.133c-1.407-1.791-3.04-2.688-4.901-2.688c-1.121,0-2.152,0.206-3.093,0.619
			c-0.941,0.412-1.56,0.619-1.856,0.619c-0.296,0-0.561-0.095-0.793-0.286c-0.233-0.19-0.349-0.423-0.349-0.698
			c0-0.62,0.776-1.256,2.328-1.908c1.551-0.652,2.887-0.979,4.006-0.979c3.42,0,6.286,1.09,8.598,3.268
			c2.312,2.178,3.468,5.139,3.468,8.883c0,2.898-1.193,5.562-3.579,7.994c-2.386,2.432-5.258,3.648-8.616,3.648
			c-1.288,0-2.507-0.169-3.658-0.508c-1.151-0.339-2.656-1.121-4.514-2.348c-0.169,0-0.253,0.539-0.253,1.618
			c0,2.686-0.18,4.732-0.541,6.139c-0.361,1.406-0.976,2.628-1.847,3.664c-0.87,1.036-1.724,1.771-2.563,2.205
			c-0.838,0.433-1.65,0.65-2.435,0.65c-1.167,0-1.751-0.28-1.751-0.841c0-0.237,0.264-0.496,0.793-0.777
			c1.269-0.696,2.136-1.599,2.601-2.706C505.182,450.909,505.414,449.881,505.414,448.931z"/>
		<path fill="#EB3C00" d="M537.646,448.931c0.127-1.203,0.19-4.537,0.19-10.004c0-2.638-0.063-6.489-0.19-11.554
			c-0.043-0.527-0.259-0.986-0.65-1.376c-0.391-0.391-1.211-0.692-2.459-0.903c-0.952-0.15-1.57-0.332-1.856-0.546
			s-0.428-0.482-0.428-0.803c0-0.835,0.657-1.253,1.973-1.253c0.255,0,0.88,0.101,1.878,0.301c0.997,0.201,1.622,0.301,1.877,0.301
			c0.275,0,0.849-0.122,1.719-0.365c0.869-0.243,1.411-0.365,1.623-0.365c0.572,0,0.933,0.127,1.081,0.38
			c0.149,0.254,0.223,0.644,0.223,1.172v11.181c0,2.281,0.719,4.091,2.157,5.432c1.438,1.341,3.119,2.011,5.044,2.011
			c0.93,0,2.12-0.405,3.569-1.217c1.448-0.812,2.58-1.987,3.394-3.525c0.814-1.539,1.221-3.278,1.221-5.217
			c0-2.297-0.703-4.342-2.11-6.133c-1.407-1.791-3.04-2.688-4.901-2.688c-1.121,0-2.152,0.206-3.093,0.619
			c-0.941,0.412-1.56,0.619-1.856,0.619c-0.296,0-0.561-0.095-0.793-0.286c-0.233-0.19-0.349-0.423-0.349-0.698
			c0-0.62,0.776-1.256,2.328-1.908c1.551-0.652,2.887-0.979,4.006-0.979c3.42,0,6.286,1.09,8.598,3.268
			c2.312,2.178,3.468,5.139,3.468,8.883c0,2.898-1.193,5.562-3.579,7.994c-2.386,2.432-5.258,3.648-8.616,3.648
			c-1.288,0-2.508-0.169-3.658-0.508c-1.151-0.339-2.656-1.121-4.514-2.348c-0.169,0-0.253,0.539-0.253,1.618
			c0,2.686-0.18,4.732-0.541,6.139c-0.361,1.406-0.976,2.628-1.847,3.664c-0.87,1.036-1.724,1.771-2.563,2.205
			c-0.838,0.433-1.65,0.65-2.435,0.65c-1.167,0-1.751-0.28-1.751-0.841c0-0.237,0.264-0.496,0.793-0.777
			c1.269-0.696,2.136-1.599,2.601-2.706C537.413,450.909,537.646,449.881,537.646,448.931z"/>
	</g>
	<g>
		<path d="M588.244,439.75c0.593,0,0.89,0.494,0.89,1.482c0,0.631-1.068,1.446-3.204,2.444c-2.136,0.998-4.378,1.498-6.725,1.498
			c-3.849,0-7.149-1.169-9.898-3.505c-2.75-2.337-4.124-5.282-4.124-8.835c0-3.151,1.301-5.921,3.902-8.312
			c2.601-2.39,5.71-3.585,9.327-3.585c1.946,0,4.156,0.401,6.63,1.202c2.474,0.801,3.712,1.528,3.712,2.181
			c0,1.18,0.063,2.139,0.19,2.876s0.19,1.159,0.19,1.264c0,0.949-0.44,1.423-1.318,1.423c-0.665,0-1.183-0.634-1.553-1.903
			c-0.37-1.269-1.147-2.279-2.332-3.03c-1.185-0.75-2.644-1.126-4.378-1.126c-2.178,0-4.203,0.806-6.075,2.419
			c-1.872,1.613-2.808,3.894-2.808,6.844c0,2.716,1.048,4.939,3.146,6.669c2.097,1.73,4.279,2.594,6.546,2.594
			c0.826,0,1.684-0.106,2.574-0.317c0.89-0.211,1.88-0.645,2.971-1.301C586.999,440.078,587.777,439.75,588.244,439.75z"/>
		<path d="M601.157,439.592c0,0.571,0.148,1.058,0.444,1.459c0.296,0.402,0.952,0.687,1.967,0.857
			c1.015,0.169,1.634,0.383,1.856,0.64c0.222,0.257,0.333,0.579,0.333,0.964c0,0.686-0.52,1.029-1.558,1.029
			c-0.636,0-1.579-0.079-2.83-0.238c-1.251-0.159-2.194-0.238-2.829-0.238c-0.594,0-1.463,0.079-2.607,0.238
			c-1.145,0.159-2.014,0.238-2.607,0.238c-0.848,0-1.394-0.097-1.638-0.289c-0.244-0.194-0.365-0.461-0.365-0.804
			c0-0.343,0.1-0.633,0.301-0.868c0.201-0.236,0.835-0.433,1.903-0.591c1.068-0.159,1.766-0.507,2.094-1.047
			c0.328-0.539,0.492-1.167,0.492-1.886v-34.204c0-0.739-0.169-1.389-0.508-1.949c-0.339-0.56-1.036-0.967-2.094-1.22
			c-1.058-0.254-1.687-0.509-1.888-0.766c-0.201-0.257-0.301-0.547-0.301-0.869c0-0.321,0.175-0.578,0.525-0.772
			c0.35-0.193,0.716-0.289,1.098-0.289c0.339,0,0.843,0.063,1.511,0.19c0.668,0.127,1.162,0.19,1.48,0.19
			c0.361,0,0.902-0.063,1.623-0.19c0.721-0.127,1.262-0.19,1.623-0.19c0.679,0,1.178,0.18,1.496,0.539
			c0.318,0.36,0.477,1.005,0.477,1.935V439.592z"/>
		<path d="M618.32,438.608c0,1.036,0.394,1.893,1.181,2.57c0.787,0.677,1.727,1.015,2.82,1.015c0.672,0,1.465-0.27,2.378-0.809
			s1.58-0.809,2.001-0.809c0.42,0,0.63,0.259,0.63,0.776c0,0.604-0.786,1.36-2.358,2.269c-1.572,0.909-3.35,1.364-5.333,1.364
			c-1.541,0-2.886-0.475-4.036-1.425c-1.15-0.95-1.815-2.006-1.994-3.168c-0.179-1.161-0.269-5.511-0.269-13.049
			c0-1.013-1.036-1.752-3.109-2.217c-0.91-0.193-1.364-0.547-1.364-1.063c0-0.343,0.143-0.611,0.43-0.805
			c0.286-0.193,0.642-0.29,1.066-0.29c0.127,0,0.747,0.085,1.862,0.254c1.114,0.17,2.053,0.254,2.818,0.254
			c0.275,0,0.684-0.079,1.225-0.238c0.541-0.159,0.876-0.238,1.003-0.238c0.7,0,1.05,1.439,1.05,4.314V438.608z M628.757,427.786
			c0-1.52-0.825-2.396-2.474-2.629c-0.994-0.15-1.618-0.337-1.872-0.562c-0.254-0.224-0.381-0.508-0.381-0.851
			c0-0.792,0.605-1.188,1.814-1.188c0.318,0,0.96,0.111,1.925,0.333c0.965,0.222,2,0.333,3.103,0.333
			c0.297,0,0.668-0.042,1.114-0.127c0.446-0.084,0.722-0.127,0.828-0.127c0.573,0,0.859,0.644,0.859,1.932
			c0,9.734,0.084,14.912,0.254,15.535c0.169,0.623,1.026,1.125,2.57,1.504c0.804,0.215,1.301,0.407,1.491,0.579
			s0.286,0.375,0.286,0.611c0,0.279-0.175,0.536-0.525,0.772c-0.35,0.236-0.801,0.354-1.353,0.354c-0.234,0-0.806-0.074-1.719-0.222
			c-0.912-0.148-1.56-0.222-1.942-0.222c-0.404,0-0.891,0.074-1.464,0.222c-0.573,0.148-0.955,0.222-1.146,0.222
			c-0.467,0-0.785-0.127-0.955-0.38c-0.169-0.253-0.281-0.876-0.334-1.869c-0.053-0.992-0.079-2.903-0.079-5.733V427.786z"/>
		<path d="M650.329,442.923c-0.127,0.127-0.254,0.344-0.381,0.65c-0.127,0.306-0.28,0.534-0.46,0.682
			c-0.18,0.148-0.503,0.222-0.968,0.222c-0.36,0-0.925-0.09-1.697-0.27c-0.772-0.18-1.38-0.27-1.824-0.27s-1.063,0.09-1.856,0.27
			c-0.793,0.18-1.391,0.27-1.792,0.27c-0.487,0-0.91-0.123-1.269-0.37c-0.36-0.246-0.539-0.584-0.539-1.013
			c0-0.279,0.105-0.514,0.315-0.707c0.21-0.193,0.941-0.416,2.193-0.669c1.251-0.253,2.103-0.739,2.555-1.457
			c0.452-0.718,0.679-1.573,0.679-2.565v-32.563c0-1.753-0.411-2.978-1.23-3.674c-0.463-0.401-1.204-0.676-2.224-0.823
			c-1.02-0.148-1.635-0.345-1.845-0.591c-0.21-0.246-0.315-0.541-0.315-0.884c0-0.342,0.206-0.627,0.619-0.852
			c0.412-0.225,0.809-0.338,1.19-0.338c0.423,0,1.047,0.09,1.872,0.27c0.825,0.18,1.438,0.27,1.84,0.27
			c0.381,0,0.92-0.068,1.618-0.206c0.698-0.137,1.216-0.206,1.555-0.206c0.634,0,1.1,0.175,1.396,0.524
			c0.296,0.349,0.444,1,0.444,1.952v37.113c0,1.313,0.807,2.481,2.422,3.507c1.614,1.026,3.139,1.539,4.575,1.539
			c1.646,0,3.387-0.698,5.224-2.094c1.836-1.396,2.754-3.712,2.754-6.948c0-2.517-0.728-4.668-2.184-6.456
			c-1.456-1.787-3.345-2.681-5.665-2.681c-0.886,0-1.799,0.243-2.738,0.73c-0.939,0.487-1.556,0.73-1.851,0.73
			c-0.253,0-0.512-0.111-0.775-0.333c-0.264-0.222-0.396-0.439-0.396-0.65c0-0.952,0.812-1.787,2.438-2.506
			c1.626-0.719,3.061-1.079,4.307-1.079c3.463,0,6.35,1.243,8.662,3.728c2.312,2.485,3.468,5.515,3.468,9.089
			c0,3.278-1.209,5.98-3.627,8.105c-2.418,2.125-5.337,3.188-8.758,3.188c-1.732,0-3.927-0.696-6.588-2.087L650.329,442.923z"/>
	</g>
	<g enable-background="new    ">
		<path d="M546.77,460.273c0.536,0.197,0.966,0.484,1.292,0.861c0.325,0.378,0.488,0.814,0.488,1.309v2.922
			c0,0.723,0.081,1.396,0.243,2.018c0.162,0.622,0.458,1.148,0.89,1.58c0.089,0.089,0.133,0.149,0.133,0.181
			c0,0.247-0.044,0.371-0.133,0.371c-0.108,0-0.367-0.121-0.776-0.362c-0.41-0.241-0.826-0.579-1.251-1.014
			c-0.424-0.435-0.722-1.001-0.894-1.699c-0.07-0.273-0.105-0.73-0.105-1.37v-2.57c0-0.463-0.13-0.863-0.39-1.199
			c-0.26-0.336-0.6-0.581-1.018-0.733v-0.581c0.419-0.152,0.758-0.39,1.018-0.714c0.26-0.324,0.39-0.704,0.39-1.142v-2.57
			c0-0.837,0.063-1.393,0.19-1.665c0.153-0.533,0.429-1.007,0.828-1.423c0.399-0.415,0.805-0.746,1.218-0.99
			c0.413-0.244,0.677-0.366,0.791-0.366c0.089,0,0.133,0.124,0.133,0.371l-0.133,0.181c-0.432,0.432-0.728,0.956-0.89,1.575
			c-0.162,0.619-0.243,1.293-0.243,2.022v2.922c0,0.47-0.163,0.887-0.488,1.252C547.736,459.805,547.305,460.082,546.77,460.273z"/>
		<path d="M556.544,466.383c-0.038,0.038-0.076,0.103-0.114,0.195c-0.038,0.092-0.084,0.16-0.138,0.205
			c-0.054,0.044-0.151,0.067-0.29,0.067c-0.108,0-0.278-0.027-0.509-0.081c-0.232-0.054-0.414-0.081-0.547-0.081
			s-0.319,0.027-0.557,0.081c-0.238,0.054-0.417,0.081-0.538,0.081c-0.146,0-0.273-0.037-0.381-0.111
			c-0.108-0.074-0.162-0.175-0.162-0.304c0-0.084,0.032-0.154,0.095-0.212c0.063-0.058,0.283-0.125,0.658-0.201
			c0.375-0.076,0.631-0.221,0.767-0.437c0.136-0.215,0.204-0.472,0.204-0.77v-9.769c0-0.526-0.123-0.893-0.369-1.102
			c-0.139-0.121-0.361-0.203-0.667-0.247c-0.306-0.044-0.491-0.103-0.554-0.177c-0.063-0.074-0.095-0.162-0.095-0.265
			c0-0.103,0.062-0.188,0.186-0.256c0.124-0.067,0.243-0.101,0.357-0.101c0.127,0,0.314,0.027,0.562,0.081
			c0.247,0.054,0.431,0.081,0.552,0.081c0.114,0,0.276-0.02,0.485-0.062c0.209-0.041,0.365-0.062,0.466-0.062
			c0.19,0,0.33,0.053,0.419,0.157c0.089,0.105,0.133,0.3,0.133,0.586v11.134c0,0.394,0.242,0.744,0.726,1.052
			c0.484,0.308,0.942,0.462,1.372,0.462c0.494,0,1.016-0.209,1.567-0.628c0.551-0.419,0.826-1.114,0.826-2.084
			c0-0.755-0.218-1.401-0.655-1.937c-0.437-0.536-1.003-0.804-1.699-0.804c-0.266,0-0.54,0.073-0.821,0.219
			c-0.282,0.146-0.467,0.219-0.556,0.219c-0.076,0-0.153-0.033-0.232-0.1c-0.079-0.067-0.119-0.132-0.119-0.195
			c0-0.286,0.244-0.536,0.732-0.752c0.488-0.216,0.918-0.324,1.292-0.324c1.039,0,1.905,0.373,2.599,1.118
			c0.694,0.746,1.04,1.654,1.04,2.727c0,0.983-0.363,1.794-1.088,2.432c-0.725,0.638-1.601,0.956-2.627,0.956
			c-0.519,0-1.178-0.209-1.977-0.626L556.544,466.383z"/>
		<path d="M565.937,465.089c0,0.311,0.118,0.568,0.354,0.771c0.236,0.203,0.518,0.305,0.846,0.305c0.202,0,0.439-0.081,0.713-0.243
			c0.274-0.162,0.474-0.243,0.6-0.243c0.126,0,0.189,0.078,0.189,0.233c0,0.181-0.236,0.408-0.707,0.681s-1.005,0.409-1.6,0.409
			c-0.462,0-0.866-0.143-1.211-0.428c-0.345-0.285-0.544-0.602-0.598-0.95s-0.081-1.653-0.081-3.915
			c0-0.304-0.311-0.526-0.933-0.665c-0.273-0.058-0.409-0.164-0.409-0.319c0-0.103,0.043-0.183,0.129-0.241
			c0.086-0.058,0.193-0.087,0.32-0.087c0.038,0,0.224,0.025,0.559,0.076c0.334,0.051,0.616,0.076,0.845,0.076
			c0.083,0,0.205-0.024,0.368-0.071c0.162-0.048,0.263-0.071,0.301-0.071c0.21,0,0.315,0.431,0.315,1.294V465.089z M569.068,461.842
			c0-0.456-0.247-0.719-0.742-0.789c-0.298-0.045-0.485-0.101-0.562-0.169c-0.076-0.067-0.114-0.152-0.114-0.255
			c0-0.238,0.181-0.357,0.544-0.357c0.095,0,0.288,0.033,0.578,0.1c0.29,0.067,0.6,0.1,0.931,0.1c0.089,0,0.201-0.013,0.334-0.038
			c0.134-0.025,0.217-0.038,0.248-0.038c0.172,0,0.258,0.193,0.258,0.58c0,2.92,0.025,4.474,0.076,4.66
			c0.051,0.187,0.308,0.338,0.771,0.451c0.241,0.064,0.39,0.122,0.447,0.174c0.057,0.051,0.086,0.112,0.086,0.183
			c0,0.084-0.053,0.161-0.158,0.232s-0.24,0.106-0.406,0.106c-0.07,0-0.242-0.022-0.516-0.067c-0.274-0.044-0.468-0.067-0.582-0.067
			c-0.121,0-0.267,0.022-0.439,0.067c-0.172,0.044-0.286,0.067-0.344,0.067c-0.14,0-0.236-0.038-0.286-0.114
			c-0.051-0.076-0.084-0.263-0.1-0.561c-0.016-0.298-0.024-0.871-0.024-1.72V461.842z"/>
		<path d="M575.578,465.212c0,0.311,0.057,0.514,0.171,0.609c0.114,0.095,0.266,0.157,0.457,0.186
			c0.19,0.029,0.325,0.069,0.404,0.12c0.079,0.051,0.119,0.158,0.119,0.318c0,0.213-0.185,0.319-0.553,0.319
			c-0.159,0-0.398-0.019-0.716-0.057c-0.318-0.038-0.554-0.057-0.706-0.057c-0.153,0-0.376,0.025-0.668,0.076
			c-0.292,0.051-0.512,0.076-0.658,0.076s-0.272-0.042-0.377-0.125s-0.157-0.193-0.157-0.328c0-0.083,0.029-0.156,0.086-0.217
			c0.057-0.061,0.203-0.111,0.438-0.149c0.235-0.038,0.398-0.114,0.49-0.228c0.092-0.114,0.138-0.39,0.138-0.826v-3.211
			c0-0.272-0.057-0.453-0.171-0.541c-0.114-0.089-0.282-0.155-0.504-0.2c-0.222-0.044-0.36-0.102-0.414-0.173
			c-0.054-0.071-0.081-0.157-0.081-0.26c0-0.115,0.046-0.21,0.138-0.284c0.093-0.074,0.202-0.111,0.33-0.111
			c0.108,0,0.263,0.024,0.463,0.071c0.2,0.048,0.349,0.071,0.444,0.071c0.108,0,0.274-0.017,0.497-0.052
			c0.223-0.035,0.388-0.052,0.496-0.052c0.236,0,0.353,0.197,0.353,0.59c0,0.063-0.003,0.147-0.01,0.252
			c-0.006,0.105-0.01,0.176-0.01,0.214V465.212z M574.802,456.951c0.291,0,0.542,0.106,0.753,0.317
			c0.212,0.212,0.318,0.463,0.318,0.753c0,0.259-0.104,0.478-0.313,0.658c-0.208,0.18-0.455,0.27-0.739,0.27
			s-0.529-0.099-0.734-0.298c-0.205-0.199-0.308-0.437-0.308-0.715c0-0.265,0.102-0.496,0.308-0.691
			C574.292,457.049,574.531,456.951,574.802,456.951z"/>
		<path d="M580.489,465.384c0,0.171,0.044,0.317,0.133,0.438s0.286,0.206,0.59,0.257c0.305,0.051,0.49,0.115,0.557,0.192
			c0.067,0.077,0.1,0.174,0.1,0.289c0,0.206-0.156,0.309-0.467,0.309c-0.191,0-0.474-0.024-0.849-0.071
			c-0.375-0.048-0.658-0.071-0.849-0.071c-0.178,0-0.439,0.024-0.782,0.071c-0.343,0.048-0.604,0.071-0.782,0.071
			c-0.254,0-0.418-0.029-0.491-0.087c-0.073-0.058-0.109-0.138-0.109-0.241c0-0.103,0.03-0.19,0.09-0.26
			c0.06-0.071,0.251-0.13,0.571-0.178c0.32-0.048,0.53-0.152,0.628-0.314c0.098-0.162,0.148-0.35,0.148-0.566v-10.261
			c0-0.222-0.051-0.417-0.152-0.585c-0.102-0.168-0.311-0.29-0.628-0.366s-0.506-0.153-0.566-0.23
			c-0.06-0.077-0.09-0.164-0.09-0.261c0-0.096,0.052-0.174,0.157-0.231c0.105-0.058,0.215-0.087,0.33-0.087
			c0.102,0,0.253,0.019,0.453,0.057c0.201,0.038,0.349,0.057,0.444,0.057c0.108,0,0.271-0.019,0.487-0.057
			c0.216-0.038,0.379-0.057,0.487-0.057c0.204,0,0.353,0.054,0.449,0.162c0.095,0.108,0.143,0.301,0.143,0.581V465.384z"/>
		<path d="M590.577,464.614c0,0.311,0.063,0.594,0.19,0.851c0.127,0.257,0.355,0.442,0.685,0.556c0.33,0.114,0.52,0.197,0.571,0.249
			c0.051,0.051,0.076,0.109,0.076,0.174c0,0.277-0.147,0.415-0.439,0.415c-0.095,0-0.229-0.025-0.401-0.076
			c-0.172-0.051-0.395-0.076-0.668-0.076c-0.185,0-0.387,0.025-0.606,0.076c-0.219,0.051-0.358,0.076-0.415,0.076
			c-0.121,0-0.223-0.044-0.306-0.133c-0.083-0.089-0.129-0.181-0.139-0.276c-0.01-0.095-0.03-0.143-0.062-0.143l-0.152,0.067
			c-0.963,0.546-1.774,0.818-2.433,0.818c-0.937,0-1.782-0.358-2.533-1.075c-0.751-0.717-1.126-1.539-1.126-2.465
			c0-1.06,0.38-1.932,1.14-2.617s1.644-1.028,2.651-1.028c0.424,0,0.862,0.106,1.311,0.317c0.45,0.211,0.675,0.446,0.675,0.704
			c0,0.082-0.03,0.152-0.09,0.208c-0.06,0.057-0.128,0.085-0.204,0.085c-0.095,0-0.315-0.078-0.66-0.233
			c-0.345-0.155-0.663-0.233-0.954-0.233c-0.64,0-1.181,0.267-1.624,0.801c-0.443,0.534-0.665,1.169-0.665,1.907
			c0,0.629,0.201,1.252,0.603,1.869c0.402,0.616,0.951,0.925,1.648,0.925c0.374,0,0.803-0.103,1.287-0.309s0.793-0.485,0.926-0.837
			s0.2-0.886,0.2-1.602v-8.179c0-0.526-0.089-0.891-0.266-1.094c-0.178-0.203-0.435-0.355-0.771-0.457
			c-0.336-0.102-0.542-0.178-0.619-0.23c-0.076-0.051-0.114-0.135-0.114-0.251c0-0.084,0.048-0.156,0.143-0.217
			c0.095-0.061,0.229-0.092,0.401-0.092c0.07,0,0.22,0.016,0.449,0.048c0.229,0.032,0.413,0.048,0.554,0.048
			c0.293,0,0.546-0.013,0.759-0.038c0.213-0.025,0.342-0.038,0.386-0.038c0.229,0,0.382,0.065,0.458,0.195
			c0.076,0.13,0.115,0.309,0.115,0.537c0,0.418,0.003,0.755,0.01,1.008c0.006,0.254,0.01,0.479,0.01,0.675V464.614z"/>
		<path d="M593.561,464.813c0.297,0,0.562,0.141,0.796,0.423c0.234,0.282,0.351,0.655,0.351,1.118c0,0.393-0.213,0.996-0.638,1.808
			s-0.741,1.218-0.948,1.218c-0.117,0-0.175-0.06-0.175-0.181c0-0.032,0.121-0.295,0.364-0.79c0.243-0.495,0.364-0.882,0.364-1.161
			c0-0.216-0.138-0.392-0.412-0.528s-0.458-0.279-0.549-0.428s-0.137-0.309-0.137-0.481c0-0.311,0.092-0.555,0.275-0.733
			C593.034,464.901,593.27,464.813,593.561,464.813z"/>
		<path d="M599.856,461.728c0-0.228-0.068-0.405-0.205-0.532s-0.268-0.19-0.395-0.19c-0.381,0-0.571-0.119-0.571-0.357
			c0-0.276,0.137-0.414,0.411-0.414c0.076,0,0.224,0.022,0.444,0.067c0.219,0.044,0.387,0.067,0.501,0.067
			c0.153,0,0.311-0.019,0.473-0.057c0.162-0.038,0.272-0.057,0.329-0.057c0.172,0,0.286,0.043,0.344,0.129
			c0.057,0.086,0.099,0.433,0.124,1.042c0.025,0.609,0.038,1.317,0.038,2.122l-0.019,1.656c0,0.292,0.017,0.474,0.052,0.547
			s0.111,0.144,0.228,0.214s0.255,0.114,0.414,0.133c0.159,0.019,0.274,0.049,0.347,0.091c0.073,0.042,0.109,0.13,0.109,0.266
			c0,0.225-0.162,0.338-0.487,0.338c-0.235,0-0.474-0.024-0.716-0.071c-0.242-0.048-0.48-0.071-0.715-0.071
			c-0.191,0-0.425,0.024-0.701,0.071c-0.277,0.048-0.485,0.071-0.625,0.071c-0.356,0-0.534-0.103-0.534-0.309
			c0-0.154,0.033-0.255,0.1-0.304c0.067-0.048,0.189-0.083,0.366-0.106c0.178-0.022,0.322-0.073,0.433-0.152
			c0.111-0.079,0.181-0.182,0.209-0.309c0.029-0.127,0.043-0.386,0.043-0.779V461.728z M604.187,461.709
			c0-0.139-0.062-0.258-0.185-0.356c-0.123-0.098-0.258-0.147-0.403-0.147c-0.316,0-0.689,0.179-1.119,0.536
			c-0.253,0.22-0.437,0.33-0.55,0.33c-0.164,0-0.246-0.073-0.246-0.219c0-0.324,0.297-0.7,0.89-1.128
			c0.593-0.428,1.128-0.642,1.604-0.642c0.406,0,0.761,0.144,1.066,0.433c0.305,0.289,0.457,0.63,0.457,1.023l-0.019,3.845
			c0,0.197,0.067,0.36,0.2,0.49s0.292,0.195,0.476,0.195c0.324,0,0.485,0.128,0.485,0.386c0,0.225-0.169,0.338-0.506,0.338
			c-0.038,0-0.227-0.021-0.568-0.062c-0.34-0.041-0.625-0.062-0.854-0.062c-0.382,0-0.703,0.024-0.964,0.071
			c-0.261,0.048-0.429,0.071-0.506,0.071c-0.115,0-0.215-0.037-0.3-0.111c-0.086-0.074-0.129-0.169-0.129-0.285
			c0-0.18,0.111-0.27,0.333-0.27c0.203,0,0.393-0.065,0.571-0.195c0.178-0.13,0.266-0.325,0.266-0.584V461.709z M608.536,461.709
			c0-0.139-0.062-0.258-0.185-0.356c-0.123-0.098-0.258-0.147-0.403-0.147c-0.253,0-0.564,0.144-0.934,0.433
			c-0.37,0.289-0.615,0.433-0.735,0.433c-0.076,0-0.144-0.024-0.204-0.071c-0.06-0.048-0.09-0.103-0.09-0.167
			c0-0.286,0.279-0.646,0.837-1.08c0.558-0.435,1.126-0.652,1.704-0.652c0.673,0,1.133,0.282,1.38,0.847
			c0.089,0.171,0.133,1.11,0.133,2.817l-0.019,1.618c0,0.203,0.054,0.355,0.162,0.457c0.108,0.102,0.273,0.174,0.495,0.219
			c0.222,0.044,0.357,0.097,0.404,0.158c0.048,0.061,0.071,0.134,0.071,0.217c0,0.238-0.156,0.357-0.468,0.357
			c-0.044,0-0.235-0.021-0.572-0.062c-0.337-0.041-0.623-0.062-0.859-0.062c-0.235,0-0.491,0.024-0.768,0.071
			s-0.507,0.071-0.692,0.071c-0.115,0-0.215-0.037-0.3-0.111c-0.086-0.074-0.129-0.169-0.129-0.285c0-0.199,0.148-0.313,0.443-0.342
			s0.49-0.106,0.585-0.233c0.095-0.127,0.143-0.285,0.143-0.475V461.709z"/>
		<path d="M615.95,459.826c1.053,0,1.972,0.362,2.755,1.085c0.784,0.723,1.175,1.558,1.175,2.503c0,1.06-0.374,1.922-1.123,2.589
			c-0.749,0.666-1.751,0.999-3.007,0.999c-0.99,0-1.88-0.339-2.67-1.018s-1.185-1.523-1.185-2.532c0-0.964,0.347-1.81,1.042-2.536
			C613.632,460.189,614.636,459.826,615.95,459.826z M615.959,466.164c0.73,0,1.312-0.263,1.746-0.79
			c0.435-0.527,0.652-1.193,0.652-1.999c0-0.793-0.233-1.443-0.7-1.951c-0.466-0.508-1.058-0.761-1.775-0.761
			c-0.736,0-1.307,0.249-1.713,0.747c-0.406,0.498-0.609,1.14-0.609,1.927c0,0.869,0.225,1.558,0.676,2.065
			C614.687,465.91,615.261,466.164,615.959,466.164z"/>
		<path d="M621.86,461.727c0-0.234-0.046-0.41-0.138-0.527c-0.092-0.117-0.284-0.201-0.576-0.252
			c-0.292-0.051-0.438-0.182-0.438-0.395c0-0.09,0.051-0.178,0.153-0.265c0.102-0.087,0.236-0.13,0.401-0.13
			c0.07,0,0.193,0.022,0.368,0.067c0.175,0.044,0.32,0.067,0.435,0.067c0.07,0,0.231-0.019,0.483-0.057
			c0.252-0.038,0.409-0.057,0.473-0.057c0.128,0,0.217,0.052,0.267,0.157c0.051,0.105,0.08,0.316,0.086,0.633
			c0.013,0.527,0.019,1.088,0.019,1.685l-0.057,2.712c0,0.197,0.016,0.317,0.048,0.362c0.032,0.044,0.106,0.102,0.224,0.171
			s0.268,0.124,0.452,0.162c0.184,0.038,0.301,0.091,0.352,0.159c0.051,0.068,0.076,0.146,0.076,0.236
			c0,0.213-0.165,0.319-0.496,0.319c-0.229,0-0.464-0.021-0.706-0.062c-0.242-0.041-0.48-0.062-0.716-0.062
			c-0.191,0-0.437,0.017-0.739,0.052c-0.302,0.035-0.526,0.052-0.673,0.052c-0.325,0-0.487-0.119-0.487-0.357
			c0-0.103,0.029-0.186,0.086-0.251c0.057-0.064,0.181-0.103,0.371-0.116c0.216-0.013,0.349-0.044,0.4-0.095
			c0.146-0.152,0.238-0.285,0.276-0.399s0.057-0.348,0.057-0.703V461.727z M627.694,465.384c0,0.273,0.046,0.452,0.138,0.538
			c0.092,0.086,0.257,0.155,0.495,0.209c0.238,0.054,0.357,0.155,0.357,0.304c0,0.201-0.118,0.3-0.353,0.3
			c-0.044,0-0.235-0.011-0.573-0.033c-0.337-0.022-0.62-0.033-0.849-0.033c-0.381,0-0.703,0.024-0.963,0.071
			s-0.43,0.071-0.506,0.071c-0.115,0-0.221-0.039-0.32-0.116c-0.099-0.077-0.148-0.17-0.148-0.279c0-0.083,0.041-0.162,0.124-0.236
			c0.082-0.074,0.178-0.111,0.286-0.111c0.203,0,0.384-0.058,0.542-0.176c0.159-0.117,0.238-0.293,0.238-0.527
			c0-1.526,0.01-2.471,0.029-2.835c0.019-0.364,0.029-0.568,0.029-0.613c0-0.494-0.227-0.741-0.68-0.741
			c-0.195,0-0.474,0.149-0.836,0.447c-0.362,0.298-0.619,0.447-0.77,0.447c-0.05,0-0.107-0.032-0.17-0.096
			c-0.063-0.064-0.095-0.132-0.095-0.203c0-0.226,0.291-0.567,0.873-1.023c0.582-0.457,1.152-0.685,1.709-0.685
			c0.329,0,0.614,0.084,0.854,0.252c0.241,0.168,0.401,0.379,0.48,0.633c0.079,0.254,0.119,0.612,0.119,1.075l-0.01,0.609V465.384z"
			/>
		<path d="M635.517,462.976c0.146,0,0.244-0.025,0.295-0.076s0.076-0.141,0.076-0.274c0-0.484-0.189-0.938-0.566-1.359
			s-0.947-0.633-1.708-0.633c-0.527,0-1.071,0.25-1.632,0.751c-0.562,0.501-0.842,1.21-0.842,2.128c0,0.672,0.296,1.275,0.888,1.81
			c0.592,0.535,1.256,0.803,1.991,0.803c0.557,0,1.159-0.174,1.805-0.523c0.247-0.133,0.408-0.2,0.484-0.2
			c0.114,0,0.204,0.032,0.271,0.096c0.067,0.064,0.1,0.145,0.1,0.241c0,0.232-0.351,0.512-1.052,0.842
			c-0.701,0.33-1.423,0.495-2.165,0.495c-1.098,0-2.021-0.374-2.77-1.123c-0.749-0.749-1.123-1.64-1.123-2.674
			c0-0.945,0.411-1.754,1.232-2.427s1.743-1.009,2.765-1.009c1.326,0,2.319,0.339,2.979,1.018s0.99,1.491,0.99,2.436
			c0,0.203-0.051,0.328-0.152,0.376c-0.101,0.048-0.288,0.071-0.56,0.071h-4.361c-0.355,0-0.532-0.132-0.532-0.395
			c0-0.251,0.184-0.376,0.552-0.376H635.517z"/>
		<path d="M640.999,464.594c0,0.533,0.025,0.874,0.075,1.023c0.05,0.149,0.141,0.224,0.273,0.224c0.207,0,0.461-0.114,0.762-0.343
			c0.301-0.228,0.503-0.343,0.607-0.343c0.084,0,0.159,0.039,0.223,0.116c0.065,0.077,0.097,0.171,0.097,0.28
			c0,0.18-0.249,0.473-0.747,0.879s-0.937,0.609-1.318,0.609c-1.003,0-1.504-0.735-1.504-2.204v-3.658
			c0-0.12-0.016-0.185-0.048-0.195c-0.032-0.01-0.209-0.014-0.533-0.014c-0.254,0-0.425-0.037-0.514-0.111s-0.133-0.181-0.133-0.323
			c0-0.122,0.033-0.209,0.1-0.26c0.067-0.051,0.197-0.104,0.39-0.158c0.194-0.054,0.343-0.117,0.447-0.19s0.251-0.225,0.438-0.457
			c0.187-0.232,0.32-0.557,0.4-0.975c0.079-0.419,0.119-1.022,0.119-1.808c0-0.374,0.102-0.561,0.308-0.561
			c0.231,0,0.376,0.052,0.433,0.157c0.058,0.105,0.087,0.281,0.087,0.528v3.179c0,0.127,0.082,0.19,0.247,0.19h1.351
			c0.273,0,0.409,0.119,0.409,0.357c0,0.276-0.197,0.414-0.59,0.414h-1.19c-0.089,0-0.143,0.014-0.162,0.043
			c-0.019,0.029-0.029,0.1-0.029,0.214V464.594z"/>
		<path d="M646.862,465.212c0,0.311,0.057,0.514,0.171,0.609c0.114,0.095,0.266,0.157,0.457,0.186
			c0.19,0.029,0.325,0.069,0.404,0.12c0.079,0.051,0.119,0.158,0.119,0.318c0,0.213-0.185,0.319-0.553,0.319
			c-0.159,0-0.398-0.019-0.716-0.057c-0.318-0.038-0.554-0.057-0.706-0.057c-0.153,0-0.376,0.025-0.668,0.076
			c-0.292,0.051-0.512,0.076-0.658,0.076s-0.272-0.042-0.377-0.125s-0.157-0.193-0.157-0.328c0-0.083,0.029-0.156,0.086-0.217
			c0.057-0.061,0.203-0.111,0.438-0.149c0.235-0.038,0.398-0.114,0.49-0.228c0.092-0.114,0.138-0.39,0.138-0.826v-3.211
			c0-0.272-0.057-0.453-0.171-0.541c-0.114-0.089-0.282-0.155-0.504-0.2c-0.222-0.044-0.36-0.102-0.414-0.173
			c-0.054-0.071-0.081-0.157-0.081-0.26c0-0.115,0.046-0.21,0.138-0.284c0.093-0.074,0.202-0.111,0.33-0.111
			c0.108,0,0.263,0.024,0.463,0.071s0.349,0.071,0.444,0.071c0.108,0,0.274-0.017,0.497-0.052c0.223-0.035,0.388-0.052,0.497-0.052
			c0.236,0,0.353,0.197,0.353,0.59c0,0.063-0.003,0.147-0.01,0.252c-0.006,0.105-0.01,0.176-0.01,0.214V465.212z M646.086,456.951
			c0.291,0,0.542,0.106,0.753,0.317c0.212,0.212,0.318,0.463,0.318,0.753c0,0.259-0.104,0.478-0.313,0.658
			c-0.208,0.18-0.455,0.27-0.739,0.27s-0.529-0.099-0.734-0.298c-0.205-0.199-0.308-0.437-0.308-0.715
			c0-0.265,0.102-0.496,0.308-0.691C645.576,457.049,645.814,456.951,646.086,456.951z"/>
		<path d="M652.486,466.097c0.26,0,0.39-0.117,0.39-0.352v-0.257c0-0.349,0.122-0.523,0.366-0.523c0.16,0,0.281,0.074,0.361,0.22
			c0.08,0.147,0.12,0.453,0.12,0.918c0,0.293-0.021,0.48-0.062,0.56c-0.041,0.08-0.144,0.129-0.309,0.148
			c-0.165,0.019-0.504,0.029-1.018,0.029h-2.846c-0.362,0-0.542-0.111-0.542-0.333c0-0.159,0.089-0.403,0.266-0.733l2.162-3.997
			c0.101-0.209,0.152-0.371,0.152-0.485c0-0.135-0.036-0.216-0.108-0.244s-0.221-0.042-0.447-0.042h-0.565
			c-0.339,0-0.542,0.022-0.607,0.067c-0.066,0.044-0.136,0.2-0.21,0.466c-0.074,0.266-0.21,0.4-0.409,0.4
			c-0.218,0-0.327-0.156-0.327-0.469l-0.019-0.68c0-0.21,0.029-0.352,0.086-0.426c0.057-0.073,0.149-0.11,0.276-0.11h4.121
			c0.076,0,0.143,0.03,0.2,0.09c0.057,0.06,0.086,0.128,0.086,0.205c0,0.133-0.083,0.355-0.248,0.666l-2.292,4.15
			c-0.083,0.146-0.124,0.279-0.124,0.4c0,0.222,0.127,0.333,0.381,0.333H652.486z"/>
		<path d="M660.462,462.976c0.146,0,0.244-0.025,0.295-0.076c0.051-0.05,0.076-0.141,0.076-0.274c0-0.484-0.189-0.938-0.566-1.359
			c-0.378-0.422-0.947-0.633-1.708-0.633c-0.527,0-1.071,0.25-1.632,0.751c-0.562,0.501-0.842,1.21-0.842,2.128
			c0,0.672,0.296,1.275,0.888,1.81c0.592,0.535,1.256,0.803,1.991,0.803c0.557,0,1.159-0.174,1.805-0.523
			c0.247-0.133,0.408-0.2,0.484-0.2c0.114,0,0.204,0.032,0.271,0.096c0.067,0.064,0.1,0.145,0.1,0.241
			c0,0.232-0.351,0.512-1.052,0.842c-0.701,0.33-1.423,0.495-2.165,0.495c-1.098,0-2.021-0.374-2.769-1.123
			c-0.749-0.749-1.123-1.64-1.123-2.674c0-0.945,0.411-1.754,1.232-2.427s1.743-1.009,2.765-1.009c1.326,0,2.319,0.339,2.979,1.018
			c0.66,0.679,0.99,1.491,0.99,2.436c0,0.203-0.051,0.328-0.152,0.376c-0.101,0.048-0.288,0.071-0.56,0.071h-4.361
			c-0.355,0-0.532-0.132-0.532-0.395c0-0.251,0.184-0.376,0.552-0.376H660.462z"/>
		<path d="M670.835,460.568c-0.419,0.152-0.757,0.397-1.014,0.733c-0.257,0.336-0.385,0.736-0.385,1.199v2.57
			c0,0.673-0.056,1.204-0.167,1.594c-0.111,0.39-0.28,0.746-0.507,1.066c-0.226,0.32-0.507,0.617-0.841,0.89
			c-0.335,0.273-0.649,0.49-0.944,0.652c-0.295,0.162-0.487,0.243-0.576,0.243s-0.133-0.124-0.133-0.371
			c0-0.032,0.048-0.092,0.143-0.181c0.431-0.431,0.726-0.958,0.885-1.58c0.159-0.622,0.238-1.294,0.238-2.018v-2.922
			c0-0.495,0.164-0.931,0.493-1.309c0.328-0.378,0.758-0.665,1.287-0.861c-0.536-0.19-0.966-0.468-1.292-0.833
			c-0.326-0.365-0.488-0.782-0.488-1.252v-2.922c0-0.73-0.079-1.404-0.238-2.022c-0.159-0.619-0.454-1.143-0.885-1.575l-0.143-0.181
			c0-0.247,0.044-0.371,0.133-0.371c0.108,0,0.366,0.119,0.776,0.357c0.41,0.238,0.826,0.576,1.251,1.014
			c0.424,0.438,0.725,1.006,0.904,1.704c0.07,0.273,0.105,0.73,0.105,1.37v2.57c0,0.438,0.128,0.818,0.385,1.142
			c0.257,0.324,0.595,0.562,1.014,0.714V460.568z"/>
	</g>
</g>
</svg>
