<svg xmlns="http://www.w3.org/2000/svg" width="200" height="71.544" viewBox="470.835 397.97 200 71.544" enable-background="new 470.835 397.97 200 71.544"><g><g enable-background="new" fill="#EB3C00"><path d="M494.152 438.581c0 1.521 1.015 2.577 3.045 3.167.508.15.883.321 1.126.514.243.193.365.557.365 1.092 0 .279-.164.519-.492.723-.328.203-.682.305-1.063.305-.402 0-.947-.095-1.634-.286-.687-.19-1.243-.286-1.666-.286-.487 0-1.1.095-1.84.286-.741.19-1.237.286-1.491.286-.296 0-.587-.106-.872-.317-.286-.211-.428-.423-.428-.634 0-.338-.106-.508-.317-.508-.148 0-.339.074-.571.222-2.39 1.48-4.97 2.221-7.741 2.221-1.312 0-2.776-.339-4.394-1.015s-2.914-1.718-3.886-3.125c-.973-1.406-1.459-3.146-1.459-5.219 0-2.199 1.05-4.145 3.151-5.837 2.1-1.692 4.808-2.538 8.122-2.538 1.119 0 2.349.312 3.689.936 1.34.624 2.011 1.264 2.011 1.919 0 .317-.138.571-.412.761-.275.19-.614.285-1.015.285-.275 0-.814-.19-1.618-.571-.804-.381-1.629-.571-2.474-.571-1.734 0-3.172.511-4.314 1.535-1.142 1.023-1.713 2.388-1.713 4.097 0 1.983.655 3.507 1.967 4.572 1.311 1.065 2.823 1.598 4.537 1.598 1.544 0 2.966-.508 4.267-1.523 1.301-1.015 1.951-2.368 1.951-4.061v-8.597c0-1.29-.427-2.337-1.282-3.141-.855-.804-1.999-1.206-3.434-1.206-1.836 0-3.619.582-5.348 1.745-.591.402-.992.603-1.203.603-.507 0-.939-.132-1.298-.397-.359-.264-.538-.608-.538-1.031 0-1.036.946-1.914 2.839-2.633 1.892-.719 3.96-1.079 6.202-1.079 2.77 0 5.001.697 6.694 2.091 1.692 1.394 2.538 3.052 2.538 4.973v10.644zM505.414 448.931c.127-1.203.19-4.537.19-10.004 0-2.638-.063-6.489-.19-11.554-.043-.527-.259-.986-.65-1.376-.391-.391-1.211-.692-2.459-.903-.952-.15-1.57-.332-1.856-.546s-.428-.482-.428-.803c0-.835.657-1.253 1.973-1.253.255 0 .88.101 1.878.301.997.201 1.622.301 1.877.301.275 0 .849-.122 1.719-.365.869-.243 1.411-.365 1.623-.365.572 0 .933.127 1.081.38.149.254.223.644.223 1.172v11.181c0 2.281.719 4.091 2.157 5.432 1.438 1.341 3.119 2.011 5.044 2.011.93 0 2.12-.405 3.569-1.217 1.449-.812 2.58-1.987 3.394-3.525.814-1.539 1.221-3.278 1.221-5.217 0-2.297-.703-4.342-2.11-6.133-1.407-1.791-3.04-2.688-4.901-2.688-1.121 0-2.152.206-3.093.619-.941.412-1.56.619-1.856.619-.296 0-.561-.095-.793-.286-.233-.19-.349-.423-.349-.698 0-.62.776-1.256 2.328-1.908 1.551-.652 2.887-.979 4.006-.979 3.42 0 6.286 1.09 8.598 3.268 2.312 2.178 3.468 5.139 3.468 8.883 0 2.898-1.193 5.562-3.579 7.994-2.386 2.432-5.258 3.648-8.616 3.648-1.288 0-2.507-.169-3.658-.508-1.151-.339-2.656-1.121-4.514-2.348-.169 0-.253.539-.253 1.618 0 2.686-.18 4.732-.541 6.139-.361 1.406-.976 2.628-1.847 3.664-.87 1.036-1.724 1.771-2.563 2.205-.838.433-1.65.65-2.435.65-1.167 0-1.751-.28-1.751-.841 0-.237.264-.496.793-.777 1.269-.696 2.136-1.599 2.601-2.706.467-1.107.699-2.135.699-3.085zM537.646 448.931c.127-1.203.19-4.537.19-10.004 0-2.638-.063-6.489-.19-11.554-.043-.527-.259-.986-.65-1.376-.391-.391-1.211-.692-2.459-.903-.952-.15-1.57-.332-1.856-.546s-.428-.482-.428-.803c0-.835.657-1.253 1.973-1.253.255 0 .88.101 1.878.301.997.201 1.622.301 1.877.301.275 0 .849-.122 1.719-.365.869-.243 1.411-.365 1.623-.365.572 0 .933.127 1.081.38.149.254.223.644.223 1.172v11.181c0 2.281.719 4.091 2.157 5.432 1.438 1.341 3.119 2.011 5.044 2.011.93 0 2.12-.405 3.569-1.217 1.448-.812 2.58-1.987 3.394-3.525.814-1.539 1.221-3.278 1.221-5.217 0-2.297-.703-4.342-2.11-6.133-1.407-1.791-3.04-2.688-4.901-2.688-1.121 0-2.152.206-3.093.619-.941.412-1.56.619-1.856.619-.296 0-.561-.095-.793-.286-.233-.19-.349-.423-.349-.698 0-.62.776-1.256 2.328-1.908 1.551-.652 2.887-.979 4.006-.979 3.42 0 6.286 1.09 8.598 3.268 2.312 2.178 3.468 5.139 3.468 8.883 0 2.898-1.193 5.562-3.579 7.994-2.386 2.432-5.258 3.648-8.616 3.648-1.288 0-2.508-.169-3.658-.508-1.151-.339-2.656-1.121-4.514-2.348-.169 0-.253.539-.253 1.618 0 2.686-.18 4.732-.541 6.139-.361 1.406-.976 2.628-1.847 3.664-.87 1.036-1.724 1.771-2.563 2.205-.838.433-1.65.65-2.435.65-1.167 0-1.751-.28-1.751-.841 0-.237.264-.496.793-.777 1.269-.696 2.136-1.599 2.601-2.706.466-1.107.699-2.135.699-3.085z"/></g><path d="M588.244 439.75c.593 0 .89.494.89 1.482 0 .631-1.068 1.446-3.204 2.444s-4.378 1.498-6.725 1.498c-3.849 0-7.149-1.169-9.898-3.505-2.75-2.337-4.124-5.282-4.124-8.835 0-3.151 1.301-5.921 3.902-8.312 2.601-2.39 5.71-3.585 9.327-3.585 1.946 0 4.156.401 6.63 1.202 2.474.801 3.712 1.528 3.712 2.181 0 1.18.063 2.139.19 2.876s.19 1.159.19 1.264c0 .949-.44 1.423-1.318 1.423-.665 0-1.183-.634-1.553-1.903-.37-1.269-1.147-2.279-2.332-3.03-1.185-.75-2.644-1.126-4.378-1.126-2.178 0-4.203.806-6.075 2.419-1.872 1.613-2.808 3.894-2.808 6.844 0 2.716 1.048 4.939 3.146 6.669 2.097 1.73 4.279 2.594 6.546 2.594.826 0 1.684-.106 2.574-.317.89-.211 1.88-.645 2.971-1.301 1.092-.654 1.87-.982 2.337-.982zM601.157 439.592c0 .571.148 1.058.444 1.459.296.402.952.687 1.967.857 1.015.169 1.634.383 1.856.64.222.257.333.579.333.964 0 .686-.52 1.029-1.558 1.029-.636 0-1.579-.079-2.83-.238-1.251-.159-2.194-.238-2.829-.238-.594 0-1.463.079-2.607.238-1.145.159-2.014.238-2.607.238-.848 0-1.394-.097-1.638-.289-.244-.194-.365-.461-.365-.804s.1-.633.301-.868c.201-.236.835-.433 1.903-.591 1.068-.159 1.766-.507 2.094-1.047.328-.539.492-1.167.492-1.886v-34.204c0-.739-.169-1.389-.508-1.949-.339-.56-1.036-.967-2.094-1.22-1.058-.254-1.687-.509-1.888-.766-.201-.257-.301-.547-.301-.869 0-.321.175-.578.525-.772.35-.193.716-.289 1.098-.289.339 0 .843.063 1.511.19.668.127 1.162.19 1.48.19.361 0 .902-.063 1.623-.19s1.262-.19 1.623-.19c.679 0 1.178.18 1.496.539.318.36.477 1.005.477 1.935v38.131zM618.32 438.608c0 1.036.394 1.893 1.181 2.57.787.677 1.727 1.015 2.82 1.015.672 0 1.465-.27 2.378-.809s1.58-.809 2.001-.809c.42 0 .63.259.63.776 0 .604-.786 1.36-2.358 2.269s-3.35 1.364-5.333 1.364c-1.541 0-2.886-.475-4.036-1.425-1.15-.95-1.815-2.006-1.994-3.168-.179-1.161-.269-5.511-.269-13.049 0-1.013-1.036-1.752-3.109-2.217-.91-.193-1.364-.547-1.364-1.063 0-.343.143-.611.43-.805.286-.193.642-.29 1.066-.29.127 0 .747.085 1.862.254 1.114.17 2.053.254 2.818.254.275 0 .684-.079 1.225-.238.541-.159.876-.238 1.003-.238.7 0 1.05 1.439 1.05 4.314v11.295zm10.437-10.822c0-1.52-.825-2.396-2.474-2.629-.994-.15-1.618-.337-1.872-.562-.254-.224-.381-.508-.381-.851 0-.792.605-1.188 1.814-1.188.318 0 .96.111 1.925.333.965.222 2 .333 3.103.333.297 0 .668-.042 1.114-.127.446-.084.722-.127.828-.127.573 0 .859.644.859 1.932 0 9.734.084 14.912.254 15.535.169.623 1.026 1.125 2.57 1.504.804.215 1.301.407 1.491.579s.286.375.286.611c0 .279-.175.536-.525.772-.35.236-.801.354-1.353.354-.234 0-.806-.074-1.719-.222-.912-.148-1.56-.222-1.942-.222-.404 0-.891.074-1.464.222-.573.148-.955.222-1.146.222-.467 0-.785-.127-.955-.38-.169-.253-.281-.876-.334-1.869-.053-.992-.079-2.903-.079-5.733v-8.487zM650.329 442.923c-.127.127-.254.344-.381.65-.127.306-.28.534-.46.682-.18.148-.503.222-.968.222-.36 0-.925-.09-1.697-.27-.772-.18-1.38-.27-1.824-.27s-1.063.09-1.856.27c-.793.18-1.391.27-1.792.27-.487 0-.91-.123-1.269-.37-.36-.246-.539-.584-.539-1.013 0-.279.105-.514.315-.707.21-.193.941-.416 2.193-.669 1.251-.253 2.103-.739 2.555-1.457.452-.718.679-1.573.679-2.565v-32.563c0-1.753-.411-2.978-1.23-3.674-.463-.401-1.204-.676-2.224-.823-1.02-.148-1.635-.345-1.845-.591-.21-.246-.315-.541-.315-.884 0-.342.206-.627.619-.852.412-.225.809-.338 1.19-.338.423 0 1.047.09 1.872.27.825.18 1.438.27 1.84.27.381 0 .92-.068 1.618-.206.698-.137 1.216-.206 1.555-.206.634 0 1.1.175 1.396.524.296.349.444 1 .444 1.952v37.113c0 1.313.807 2.481 2.422 3.507 1.614 1.026 3.139 1.539 4.575 1.539 1.646 0 3.387-.698 5.224-2.094 1.836-1.396 2.754-3.712 2.754-6.948 0-2.517-.728-4.668-2.184-6.456-1.456-1.787-3.345-2.681-5.665-2.681-.886 0-1.799.243-2.738.73-.939.487-1.556.73-1.851.73-.253 0-.512-.111-.775-.333-.264-.222-.396-.439-.396-.65 0-.952.812-1.787 2.438-2.506 1.626-.719 3.061-1.079 4.307-1.079 3.463 0 6.35 1.243 8.662 3.728 2.312 2.485 3.468 5.515 3.468 9.089 0 3.278-1.209 5.98-3.627 8.105-2.418 2.125-5.337 3.188-8.758 3.188-1.732 0-3.927-.696-6.588-2.087l-1.144-.547z"/><g enable-background="new"><path d="M546.77 460.273c.536.197.966.484 1.292.861.325.378.488.814.488 1.309v2.922c0 .723.081 1.396.243 2.018.162.622.458 1.148.89 1.58.089.089.133.149.133.181 0 .247-.044.371-.133.371-.108 0-.367-.121-.776-.362-.41-.241-.826-.579-1.251-1.014-.424-.435-.722-1.001-.894-1.699-.07-.273-.105-.73-.105-1.37v-2.57c0-.463-.13-.863-.39-1.199-.26-.336-.6-.581-1.018-.733v-.581c.419-.152.758-.39 1.018-.714.26-.324.39-.704.39-1.142v-2.57c0-.837.063-1.393.19-1.665.153-.533.429-1.007.828-1.423.399-.415.805-.746 1.218-.99.413-.244.677-.366.791-.366.089 0 .133.124.133.371l-.133.181c-.432.432-.728.956-.89 1.575-.162.619-.243 1.293-.243 2.022v2.922c0 .47-.163.887-.488 1.252-.327.365-.758.642-1.293.833zM556.544 466.383l-.114.195c-.038.092-.084.16-.138.205-.054.044-.151.067-.29.067-.108 0-.278-.027-.509-.081-.232-.054-.414-.081-.547-.081s-.319.027-.557.081c-.238.054-.417.081-.538.081-.146 0-.273-.037-.381-.111-.108-.074-.162-.175-.162-.304 0-.084.032-.154.095-.212.063-.058.283-.125.658-.201.375-.076.631-.221.767-.437.136-.215.204-.472.204-.77v-9.769c0-.526-.123-.893-.369-1.102-.139-.121-.361-.203-.667-.247-.306-.044-.491-.103-.554-.177-.063-.074-.095-.162-.095-.265 0-.103.062-.188.186-.256.124-.067.243-.101.357-.101.127 0 .314.027.562.081.247.054.431.081.552.081.114 0 .276-.02.485-.062.209-.041.365-.062.466-.062.19 0 .33.053.419.157.089.105.133.3.133.586v11.134c0 .394.242.744.726 1.052.484.308.942.462 1.372.462.494 0 1.016-.209 1.567-.628.551-.419.826-1.114.826-2.084 0-.755-.218-1.401-.655-1.937-.437-.536-1.003-.804-1.699-.804-.266 0-.54.073-.821.219-.282.146-.467.219-.556.219-.076 0-.153-.033-.232-.1-.079-.067-.119-.132-.119-.195 0-.286.244-.536.732-.752.488-.216.918-.324 1.292-.324 1.039 0 1.905.373 2.599 1.118.694.746 1.04 1.654 1.04 2.727 0 .983-.363 1.794-1.088 2.432-.725.638-1.601.956-2.627.956-.519 0-1.178-.209-1.977-.626l-.343-.165zM565.937 465.089c0 .311.118.568.354.771.236.203.518.305.846.305.202 0 .439-.081.713-.243.274-.162.474-.243.6-.243s.189.078.189.233c0 .181-.236.408-.707.681s-1.005.409-1.6.409c-.462 0-.866-.143-1.211-.428-.345-.285-.544-.602-.598-.95s-.081-1.653-.081-3.915c0-.304-.311-.526-.933-.665-.273-.058-.409-.164-.409-.319 0-.103.043-.183.129-.241.086-.058.193-.087.32-.087l.559.076c.334.051.616.076.845.076.083 0 .205-.024.368-.071l.301-.071c.21 0 .315.431.315 1.294v3.388zm3.131-3.247c0-.456-.247-.719-.742-.789-.298-.045-.485-.101-.562-.169-.076-.067-.114-.152-.114-.255 0-.238.181-.357.544-.357.095 0 .288.033.578.1s.6.1.931.1l.334-.038.248-.038c.172 0 .258.193.258.58 0 2.92.025 4.474.076 4.66.051.187.308.338.771.451.241.064.39.122.447.174.057.051.086.112.086.183 0 .084-.053.161-.158.232s-.24.106-.406.106c-.07 0-.242-.022-.516-.067-.274-.044-.468-.067-.582-.067-.121 0-.267.022-.439.067l-.344.067c-.14 0-.236-.038-.286-.114-.051-.076-.084-.263-.1-.561-.016-.298-.024-.871-.024-1.72v-2.545zM575.578 465.212c0 .311.057.514.171.609.114.095.266.157.457.186.19.029.325.069.404.12.079.051.119.158.119.318 0 .213-.185.319-.553.319-.159 0-.398-.019-.716-.057-.318-.038-.554-.057-.706-.057-.153 0-.376.025-.668.076-.292.051-.512.076-.658.076s-.272-.042-.377-.125-.157-.193-.157-.328c0-.083.029-.156.086-.217.057-.061.203-.111.438-.149.235-.038.398-.114.49-.228.092-.114.138-.39.138-.826v-3.211c0-.272-.057-.453-.171-.541-.114-.089-.282-.155-.504-.2-.222-.044-.36-.102-.414-.173-.054-.071-.081-.157-.081-.26 0-.115.046-.21.138-.284.093-.074.202-.111.33-.111.108 0 .263.024.463.071.2.048.349.071.444.071.108 0 .274-.017.497-.052.223-.035.388-.052.496-.052.236 0 .353.197.353.59l-.01.252-.01.214v3.969zm-.776-8.261c.291 0 .542.106.753.317.212.212.318.463.318.753 0 .259-.104.478-.313.658-.208.18-.455.27-.739.27s-.529-.099-.734-.298c-.205-.199-.308-.437-.308-.715 0-.265.102-.496.308-.691.205-.196.444-.294.715-.294zM580.489 465.384c0 .171.044.317.133.438s.286.206.59.257c.305.051.49.115.557.192.067.077.1.174.1.289 0 .206-.156.309-.467.309-.191 0-.474-.024-.849-.071-.375-.048-.658-.071-.849-.071-.178 0-.439.024-.782.071-.343.048-.604.071-.782.071-.254 0-.418-.029-.491-.087-.073-.058-.109-.138-.109-.241 0-.103.03-.19.09-.26.06-.071.251-.13.571-.178.32-.048.53-.152.628-.314.098-.162.148-.35.148-.566v-10.261c0-.222-.051-.417-.152-.585-.102-.168-.311-.29-.628-.366s-.506-.153-.566-.23c-.06-.077-.09-.164-.09-.261 0-.096.052-.174.157-.231.105-.058.215-.087.33-.087.102 0 .253.019.453.057.201.038.349.057.444.057.108 0 .271-.019.487-.057.216-.038.379-.057.487-.057.204 0 .353.054.449.162.095.108.143.301.143.581v11.439zM590.577 464.614c0 .311.063.594.19.851s.355.442.685.556c.33.114.52.197.571.249.051.051.076.109.076.174 0 .277-.147.415-.439.415-.095 0-.229-.025-.401-.076-.172-.051-.395-.076-.668-.076-.185 0-.387.025-.606.076-.219.051-.358.076-.415.076-.121 0-.223-.044-.306-.133-.083-.089-.129-.181-.139-.276-.01-.095-.03-.143-.062-.143l-.152.067c-.963.546-1.774.818-2.433.818-.937 0-1.782-.358-2.533-1.075-.751-.717-1.126-1.539-1.126-2.465 0-1.06.38-1.932 1.14-2.617s1.644-1.028 2.651-1.028c.424 0 .862.106 1.311.317.45.211.675.446.675.704 0 .082-.03.152-.09.208-.06.057-.128.085-.204.085-.095 0-.315-.078-.66-.233-.345-.155-.663-.233-.954-.233-.64 0-1.181.267-1.624.801-.443.534-.665 1.169-.665 1.907 0 .629.201 1.252.603 1.869.402.616.951.925 1.648.925.374 0 .803-.103 1.287-.309s.793-.485.926-.837.2-.886.2-1.602v-8.179c0-.526-.089-.891-.266-1.094-.178-.203-.435-.355-.771-.457-.336-.102-.542-.178-.619-.23-.076-.051-.114-.135-.114-.251 0-.084.048-.156.143-.217.095-.061.229-.092.401-.092l.449.048c.229.032.413.048.554.048.293 0 .546-.013.759-.038l.386-.038c.229 0 .382.065.458.195.076.13.115.309.115.537 0 .418.003.755.01 1.008l.01.675v9.09zM593.561 464.813c.297 0 .562.141.796.423.234.282.351.655.351 1.118 0 .393-.213.996-.638 1.808s-.741 1.218-.948 1.218c-.117 0-.175-.06-.175-.181 0-.032.121-.295.364-.79.243-.495.364-.882.364-1.161 0-.216-.138-.392-.412-.528s-.458-.279-.549-.428-.137-.309-.137-.481c0-.311.092-.555.275-.733.182-.177.418-.265.709-.265zM599.856 461.728c0-.228-.068-.405-.205-.532s-.268-.19-.395-.19c-.381 0-.571-.119-.571-.357 0-.276.137-.414.411-.414.076 0 .224.022.444.067.219.044.387.067.501.067.153 0 .311-.019.473-.057l.329-.057c.172 0 .286.043.344.129.057.086.099.433.124 1.042.025.609.038 1.317.038 2.122l-.019 1.656c0 .292.017.474.052.547s.111.144.228.214.255.114.414.133c.159.019.274.049.347.091.073.042.109.13.109.266 0 .225-.162.338-.487.338-.235 0-.474-.024-.716-.071-.242-.048-.48-.071-.715-.071-.191 0-.425.024-.701.071-.277.048-.485.071-.625.071-.356 0-.534-.103-.534-.309 0-.154.033-.255.1-.304.067-.048.189-.083.366-.106.178-.022.322-.073.433-.152.111-.079.181-.182.209-.309.029-.127.043-.386.043-.779v-3.106zm4.331-.019c0-.139-.062-.258-.185-.356-.123-.098-.258-.147-.403-.147-.316 0-.689.179-1.119.536-.253.22-.437.33-.55.33-.164 0-.246-.073-.246-.219 0-.324.297-.7.89-1.128.593-.428 1.128-.642 1.604-.642.406 0 .761.144 1.066.433.305.289.457.63.457 1.023l-.019 3.845c0 .197.067.36.2.49s.292.195.476.195c.324 0 .485.128.485.386 0 .225-.169.338-.506.338l-.568-.062c-.34-.041-.625-.062-.854-.062-.382 0-.703.024-.964.071-.261.048-.429.071-.506.071-.115 0-.215-.037-.3-.111-.086-.074-.129-.169-.129-.285 0-.18.111-.27.333-.27.203 0 .393-.065.571-.195.178-.13.266-.325.266-.584v-3.657zm4.349 0c0-.139-.062-.258-.185-.356-.123-.098-.258-.147-.403-.147-.253 0-.564.144-.934.433-.37.289-.615.433-.735.433-.076 0-.144-.024-.204-.071-.06-.048-.09-.103-.09-.167 0-.286.279-.646.837-1.08.558-.435 1.126-.652 1.704-.652.673 0 1.133.282 1.38.847.089.171.133 1.11.133 2.817l-.019 1.618c0 .203.054.355.162.457.108.102.273.174.495.219.222.044.357.097.404.158.048.061.071.134.071.217 0 .238-.156.357-.468.357l-.572-.062c-.337-.041-.623-.062-.859-.062-.235 0-.491.024-.768.071s-.507.071-.692.071c-.115 0-.215-.037-.3-.111-.086-.074-.129-.169-.129-.285 0-.199.148-.313.443-.342s.49-.106.585-.233c.095-.127.143-.285.143-.475v-3.655zM615.95 459.826c1.053 0 1.972.362 2.755 1.085.784.723 1.175 1.558 1.175 2.503 0 1.06-.374 1.922-1.123 2.589-.749.666-1.751.999-3.007.999-.99 0-1.88-.339-2.67-1.018s-1.185-1.523-1.185-2.532c0-.964.347-1.81 1.042-2.536.695-.727 1.699-1.09 3.013-1.09zm.009 6.338c.73 0 1.312-.263 1.746-.79.435-.527.652-1.193.652-1.999 0-.793-.233-1.443-.7-1.951-.466-.508-1.058-.761-1.775-.761-.736 0-1.307.249-1.713.747-.406.498-.609 1.14-.609 1.927 0 .869.225 1.558.676 2.065.451.508 1.025.762 1.723.762zM621.86 461.727c0-.234-.046-.41-.138-.527-.092-.117-.284-.201-.576-.252-.292-.051-.438-.182-.438-.395 0-.09.051-.178.153-.265.102-.087.236-.13.401-.13.07 0 .193.022.368.067.175.044.32.067.435.067.07 0 .231-.019.483-.057l.473-.057c.128 0 .217.052.267.157.051.105.08.316.086.633.013.527.019 1.088.019 1.685l-.057 2.712c0 .197.016.317.048.362.032.044.106.102.224.171s.268.124.452.162c.184.038.301.091.352.159.051.068.076.146.076.236 0 .213-.165.319-.496.319-.229 0-.464-.021-.706-.062-.242-.041-.48-.062-.716-.062-.191 0-.437.017-.739.052-.302.035-.526.052-.673.052-.325 0-.487-.119-.487-.357 0-.103.029-.186.086-.251.057-.064.181-.103.371-.116.216-.013.349-.044.4-.095.146-.152.238-.285.276-.399s.057-.348.057-.703v-3.106zm5.834 3.657c0 .273.046.452.138.538.092.086.257.155.495.209.238.054.357.155.357.304 0 .201-.118.3-.353.3l-.573-.033c-.337-.022-.62-.033-.849-.033-.381 0-.703.024-.963.071s-.43.071-.506.071c-.115 0-.221-.039-.32-.116-.099-.077-.148-.17-.148-.279 0-.083.041-.162.124-.236.082-.074.178-.111.286-.111.203 0 .384-.058.542-.176.159-.117.238-.293.238-.527 0-1.526.01-2.471.029-2.835l.029-.613c0-.494-.227-.741-.68-.741-.195 0-.474.149-.836.447-.362.298-.619.447-.77.447-.05 0-.107-.032-.17-.096-.063-.064-.095-.132-.095-.203 0-.226.291-.567.873-1.023.582-.457 1.152-.685 1.709-.685.329 0 .614.084.854.252.241.168.401.379.48.633.079.254.119.612.119 1.075l-.01.609v2.751zM635.517 462.976c.146 0 .244-.025.295-.076s.076-.141.076-.274c0-.484-.189-.938-.566-1.359s-.947-.633-1.708-.633c-.527 0-1.071.25-1.632.751-.562.501-.842 1.21-.842 2.128 0 .672.296 1.275.888 1.81.592.535 1.256.803 1.991.803.557 0 1.159-.174 1.805-.523.247-.133.408-.2.484-.2.114 0 .204.032.271.096.067.064.1.145.1.241 0 .232-.351.512-1.052.842-.701.33-1.423.495-2.165.495-1.098 0-2.021-.374-2.77-1.123-.749-.749-1.123-1.64-1.123-2.674 0-.945.411-1.754 1.232-2.427s1.743-1.009 2.765-1.009c1.326 0 2.319.339 2.979 1.018s.99 1.491.99 2.436c0 .203-.051.328-.152.376-.101.048-.288.071-.56.071h-4.361c-.355 0-.532-.132-.532-.395 0-.251.184-.376.552-.376h3.035zM640.999 464.594c0 .533.025.874.075 1.023.05.149.141.224.273.224.207 0 .461-.114.762-.343.301-.228.503-.343.607-.343.084 0 .159.039.223.116.065.077.097.171.097.28 0 .18-.249.473-.747.879s-.937.609-1.318.609c-1.003 0-1.504-.735-1.504-2.204v-3.658c0-.12-.016-.185-.048-.195-.032-.01-.209-.014-.533-.014-.254 0-.425-.037-.514-.111s-.133-.181-.133-.323c0-.122.033-.209.1-.26.067-.051.197-.104.39-.158.194-.054.343-.117.447-.19s.251-.225.438-.457.32-.557.4-.975c.079-.419.119-1.022.119-1.808 0-.374.102-.561.308-.561.231 0 .376.052.433.157.058.105.087.281.087.528v3.179c0 .127.082.19.247.19h1.351c.273 0 .409.119.409.357 0 .276-.197.414-.59.414h-1.19c-.089 0-.143.014-.162.043l-.029.214v3.387zM646.862 465.212c0 .311.057.514.171.609.114.095.266.157.457.186.19.029.325.069.404.12.079.051.119.158.119.318 0 .213-.185.319-.553.319-.159 0-.398-.019-.716-.057-.318-.038-.554-.057-.706-.057-.153 0-.376.025-.668.076-.292.051-.512.076-.658.076s-.272-.042-.377-.125-.157-.193-.157-.328c0-.083.029-.156.086-.217.057-.061.203-.111.438-.149.235-.038.398-.114.49-.228.092-.114.138-.39.138-.826v-3.211c0-.272-.057-.453-.171-.541-.114-.089-.282-.155-.504-.2-.222-.044-.36-.102-.414-.173-.054-.071-.081-.157-.081-.26 0-.115.046-.21.138-.284.093-.074.202-.111.33-.111.108 0 .263.024.463.071s.349.071.444.071c.108 0 .274-.017.497-.052.223-.035.388-.052.497-.052.236 0 .353.197.353.59l-.01.252-.01.214v3.969zm-.776-8.261c.291 0 .542.106.753.317.212.212.318.463.318.753 0 .259-.104.478-.313.658-.208.18-.455.27-.739.27s-.529-.099-.734-.298c-.205-.199-.308-.437-.308-.715 0-.265.102-.496.308-.691.205-.196.443-.294.715-.294zM652.486 466.097c.26 0 .39-.117.39-.352v-.257c0-.349.122-.523.366-.523.16 0 .281.074.361.22.08.147.12.453.12.918 0 .293-.021.48-.062.56-.041.08-.144.129-.309.148-.165.019-.504.029-1.018.029h-2.846c-.362 0-.542-.111-.542-.333 0-.159.089-.403.266-.733l2.162-3.997c.101-.209.152-.371.152-.485 0-.135-.036-.216-.108-.244s-.221-.042-.447-.042h-.565c-.339 0-.542.022-.607.067-.066.044-.136.2-.21.466-.074.266-.21.4-.409.4-.218 0-.327-.156-.327-.469l-.019-.68c0-.21.029-.352.086-.426.057-.073.149-.11.276-.11h4.121c.076 0 .143.03.2.09.057.06.086.128.086.205 0 .133-.083.355-.248.666l-2.292 4.15c-.083.146-.124.279-.124.4 0 .222.127.333.381.333h1.166zM660.462 462.976c.146 0 .244-.025.295-.076.051-.05.076-.141.076-.274 0-.484-.189-.938-.566-1.359-.378-.422-.947-.633-1.708-.633-.527 0-1.071.25-1.632.751-.562.501-.842 1.21-.842 2.128 0 .672.296 1.275.888 1.81.592.535 1.256.803 1.991.803.557 0 1.159-.174 1.805-.523.247-.133.408-.2.484-.2.114 0 .204.032.271.096.067.064.1.145.1.241 0 .232-.351.512-1.052.842-.701.33-1.423.495-2.165.495-1.098 0-2.021-.374-2.769-1.123-.749-.749-1.123-1.64-1.123-2.674 0-.945.411-1.754 1.232-2.427s1.743-1.009 2.765-1.009c1.326 0 2.319.339 2.979 1.018.66.679.99 1.491.99 2.436 0 .203-.051.328-.152.376-.101.048-.288.071-.56.071h-4.361c-.355 0-.532-.132-.532-.395 0-.251.184-.376.552-.376h3.034zM670.835 460.568c-.419.152-.757.397-1.014.733-.257.336-.385.736-.385 1.199v2.57c0 .673-.056 1.204-.167 1.594-.111.39-.28.746-.507 1.066-.226.32-.507.617-.841.89-.335.273-.649.49-.944.652-.295.162-.487.243-.576.243s-.133-.124-.133-.371c0-.032.048-.092.143-.181.431-.431.726-.958.885-1.58.159-.622.238-1.294.238-2.018v-2.922c0-.495.164-.931.493-1.309.328-.378.758-.665 1.287-.861-.536-.19-.966-.468-1.292-.833-.326-.365-.488-.782-.488-1.252v-2.922c0-.73-.079-1.404-.238-2.022-.159-.619-.454-1.143-.885-1.575l-.143-.181c0-.247.044-.371.133-.371.108 0 .366.119.776.357.41.238.826.576 1.251 1.014.424.438.725 1.006.904 1.704.07.273.105.73.105 1.37v2.57c0 .438.128.818.385 1.142.257.324.595.562 1.014.714v.58z"/></g></g></svg>