<svg xmlns="http://www.w3.org/2000/svg" width="200" height="71.544" viewBox="470.835 397.97 200 71.544" enable-background="new 470.835 397.97 200 71.544"><path d="M494.152 438.58c0 1.522 1.015 2.578 3.045 3.168.508.15.883.32 1.126.514.243.193.365.557.365 1.092 0 .28-.164.52-.492.723-.328.203-.682.305-1.063.305-.402 0-.947-.095-1.634-.286-.69-.19-1.25-.286-1.67-.286-.49 0-1.1.095-1.84.286-.74.19-1.24.286-1.49.286-.3 0-.59-.106-.875-.317-.287-.21-.43-.423-.43-.634 0-.332-.105-.502-.316-.502-.148 0-.34.074-.57.222-2.39 1.48-4.97 2.22-7.74 2.22-1.314 0-2.778-.34-4.396-1.015s-2.915-1.717-3.887-3.124c-.973-1.405-1.46-3.145-1.46-5.22 0-2.2 1.05-4.143 3.152-5.835 2.1-1.692 4.807-2.538 8.12-2.538 1.12 0 2.35.312 3.69.936 1.34.626 2.01 1.266 2.01 1.92 0 .318-.137.57-.41.76-.276.19-.615.287-1.016.287-.275 0-.814-.19-1.618-.57-.805-.383-1.63-.573-2.475-.573-1.733 0-3.17.512-4.313 1.536-1.14 1.023-1.712 2.388-1.712 4.097 0 1.983.655 3.507 1.967 4.572 1.31 1.064 2.823 1.597 4.537 1.597 1.543 0 2.965-.51 4.266-1.525 1.3-1.015 1.95-2.368 1.95-4.06v-8.598c0-1.29-.426-2.337-1.28-3.14-.856-.805-2-1.207-3.435-1.207-1.835 0-3.62.58-5.347 1.745-.592.402-.993.603-1.204.603-.508 0-.94-.132-1.3-.397-.36-.264-.537-.61-.537-1.03 0-1.04.946-1.915 2.84-2.634 1.89-.72 3.96-1.08 6.2-1.08 2.77 0 5.002.698 6.695 2.092 1.69 1.394 2.536 3.052 2.536 4.973v10.643zm11.262 10.35c.127-1.202.19-4.536.19-10.003 0-2.638-.063-6.49-.19-11.554-.043-.527-.26-.986-.65-1.376-.39-.39-1.21-.692-2.46-.903-.95-.15-1.57-.332-1.855-.546s-.43-.482-.43-.803c0-.835.653-1.253 1.97-1.253.254 0 .88.1 1.88.3.995.202 1.62.302 1.875.302.274 0 .848-.122 1.718-.365.87-.25 1.41-.37 1.623-.37.57 0 .932.126 1.08.38.15.253.223.643.223 1.17v11.18c0 2.283.72 4.093 2.157 5.434 1.44 1.34 3.12 2.01 5.045 2.01.93 0 2.12-.405 3.57-1.217 1.448-.81 2.58-1.987 3.393-3.525.813-1.54 1.22-3.278 1.22-5.217 0-2.298-.703-4.34-2.11-6.134-1.407-1.79-3.04-2.687-4.9-2.687-1.122 0-2.153.205-3.094.62-.94.41-1.56.617-1.855.617-.296 0-.56-.094-.793-.285-.233-.19-.35-.423-.35-.698 0-.62.777-1.257 2.33-1.91 1.55-.65 2.886-.98 4.005-.98 3.42 0 6.286 1.09 8.598 3.27 2.312 2.178 3.468 5.14 3.468 8.883 0 2.898-1.193 5.562-3.58 7.994-2.385 2.433-5.257 3.65-8.615 3.65-1.288 0-2.507-.17-3.658-.51-1.15-.34-2.656-1.12-4.514-2.347-.17 0-.254.54-.254 1.618 0 2.688-.18 4.734-.54 6.14-.362 1.407-.977 2.63-1.848 3.665-.87 1.036-1.726 1.77-2.565 2.205-.838.432-1.65.65-2.435.65-1.166 0-1.75-.28-1.75-.84 0-.24.264-.498.793-.78 1.27-.695 2.136-1.6 2.6-2.705.47-1.107.7-2.135.7-3.085zm32.232 0c.127-1.202.19-4.536.19-10.003 0-2.638-.063-6.49-.19-11.554-.043-.527-.26-.986-.65-1.376-.39-.39-1.21-.692-2.46-.903-.95-.15-1.57-.332-1.855-.546s-.422-.482-.422-.803c0-.835.657-1.253 1.973-1.253.255 0 .88.1 1.878.3.997.202 1.622.302 1.877.302.276 0 .85-.122 1.72-.365.87-.25 1.41-.37 1.623-.37.572 0 .933.126 1.08.38.15.253.224.643.224 1.17v11.18c0 2.283.72 4.093 2.158 5.434 1.438 1.34 3.12 2.01 5.044 2.01.93 0 2.12-.405 3.57-1.217 1.448-.81 2.58-1.987 3.394-3.525.815-1.54 1.222-3.278 1.222-5.217 0-2.298-.703-4.34-2.11-6.134-1.407-1.79-3.04-2.687-4.9-2.687-1.122 0-2.153.205-3.094.62-.94.41-1.56.617-1.854.617-.296 0-.56-.094-.793-.285-.235-.19-.35-.423-.35-.698 0-.62.775-1.257 2.327-1.91 1.55-.65 2.888-.98 4.007-.98 3.42 0 6.286 1.09 8.598 3.27 2.312 2.178 3.468 5.14 3.468 8.883 0 2.898-1.193 5.562-3.58 7.994-2.385 2.433-5.257 3.65-8.615 3.65-1.287 0-2.507-.17-3.657-.51-1.15-.34-2.657-1.12-4.515-2.347-.17 0-.252.54-.252 1.618 0 2.688-.18 4.734-.54 6.14-.36 1.407-.976 2.63-1.847 3.665-.87 1.036-1.724 1.77-2.563 2.205-.84.432-1.65.65-2.434.65-1.167 0-1.75-.28-1.75-.84 0-.24.263-.498.792-.78 1.27-.695 2.136-1.6 2.6-2.705.467-1.107.7-2.135.7-3.085z" enable-background="new" fill="#EB3C00"/><path d="M588.244 439.75c.593 0 .89.494.89 1.482 0 .63-1.068 1.446-3.204 2.444s-4.378 1.498-6.725 1.498c-3.85 0-7.15-1.17-9.898-3.505-2.75-2.34-4.124-5.288-4.124-8.84 0-3.15 1.3-5.92 3.902-8.31 2.6-2.39 5.71-3.587 9.327-3.587 1.946 0 4.156.4 6.63 1.202 2.474.8 3.712 1.527 3.712 2.18 0 1.18.063 2.14.19 2.876s.19 1.16.19 1.265c0 .95-.44 1.423-1.318 1.423-.665 0-1.183-.633-1.553-1.9-.37-1.27-1.147-2.28-2.332-3.03-1.18-.75-2.64-1.128-4.372-1.128-2.178 0-4.203.806-6.075 2.42-1.872 1.612-2.81 3.893-2.81 6.843 0 2.716 1.05 4.94 3.148 6.67 2.098 1.73 4.28 2.593 6.547 2.593.826 0 1.684-.108 2.574-.32.89-.21 1.88-.643 2.97-1.3 1.094-.653 1.87-.98 2.34-.98zm12.913-.158c0 .57.148 1.058.444 1.46.3.4.958.686 1.97.856 1.018.17 1.637.383 1.86.64.22.257.332.58.332.964 0 .686-.52 1.03-1.56 1.03-.635 0-1.58-.08-2.83-.24-1.25-.158-2.193-.237-2.83-.237-.592 0-1.46.08-2.605.238-1.145.16-2.014.238-2.607.238-.848 0-1.394-.09-1.638-.283-.246-.194-.367-.46-.367-.804s.1-.633.3-.87c.202-.234.836-.43 1.904-.59 1.067-.16 1.765-.506 2.093-1.046.33-.54.496-1.167.496-1.886v-34.203c0-.74-.17-1.39-.51-1.95-.34-.56-1.035-.966-2.093-1.22-1.057-.253-1.686-.508-1.887-.765-.2-.257-.3-.547-.3-.87 0-.32.174-.577.524-.77.35-.194.717-.29 1.1-.29.34 0 .842.063 1.51.19.67.127 1.162.19 1.48.19.36 0 .902-.063 1.623-.19s1.26-.19 1.623-.19c.68 0 1.178.18 1.496.54.32.36.478 1.004.478 1.934v38.132zm17.163-.984c0 1.036.394 1.893 1.18 2.57.788.677 1.728 1.015 2.82 1.015.673 0 1.466-.27 2.38-.81s1.58-.808 2-.808c.42 0 .63.26.63.776 0 .61-.786 1.36-2.358 2.27s-3.35 1.37-5.333 1.37c-1.547 0-2.89-.476-4.04-1.426s-1.817-2.006-1.996-3.17c-.18-1.16-.27-5.51-.27-13.047 0-1.013-1.036-1.752-3.11-2.217-.91-.194-1.363-.548-1.363-1.064 0-.343.144-.61.43-.805.287-.19.643-.29 1.067-.29.127 0 .747.087 1.862.256 1.113.17 2.052.256 2.817.256.277 0 .686-.08 1.227-.237.54-.16.876-.238 1.003-.238.7 0 1.05 1.438 1.05 4.313v11.295zm10.437-10.822c0-1.52-.825-2.396-2.474-2.63-.994-.15-1.618-.336-1.872-.56-.25-.225-.38-.51-.38-.852 0-.792.61-1.188 1.82-1.188.317 0 .96.11 1.924.333.965.22 2 .33 3.103.33.297 0 .668-.04 1.114-.13.446-.084.72-.127.828-.127.573 0 .86.644.86 1.932 0 9.733.083 14.91.253 15.534.17.623 1.027 1.125 2.57 1.504.805.214 1.3.406 1.49.578s.288.375.288.61c0 .28-.175.537-.525.773-.35.236-.803.354-1.355.354-.234 0-.806-.074-1.72-.22-.91-.15-1.56-.224-1.94-.224-.405 0-.892.075-1.465.223-.572.147-.954.22-1.145.22-.467 0-.785-.126-.955-.38-.17-.252-.28-.875-.334-1.87-.054-.99-.08-2.9-.08-5.73v-8.488zm21.572 15.137c-.13.127-.26.344-.387.65-.127.306-.28.534-.46.682-.18.148-.503.222-.968.222-.36 0-.926-.09-1.698-.27-.773-.18-1.38-.27-1.825-.27s-1.064.09-1.857.27c-.793.18-1.39.27-1.79.27-.488 0-.91-.123-1.27-.37-.36-.246-.54-.584-.54-1.013 0-.28.106-.514.316-.707.21-.193.94-.416 2.194-.67 1.25-.252 2.103-.738 2.555-1.456.45-.712.68-1.57.68-2.56V405.14c0-1.753-.413-2.978-1.23-3.674-.465-.4-1.206-.676-2.226-.823-1.02-.15-1.633-.345-1.843-.59-.21-.247-.314-.542-.314-.885 0-.34.206-.625.62-.85.41-.225.81-.34 1.19-.34.422 0 1.046.09 1.87.27.826.18 1.44.27 1.84.27.38 0 .92-.066 1.62-.204.697-.136 1.215-.205 1.554-.205.635 0 1.1.174 1.397.523.297.35.445 1 .445 1.952v37.11c0 1.314.807 2.48 2.422 3.508 1.614 1.025 3.14 1.54 4.575 1.54 1.644 0 3.385-.7 5.222-2.096 1.834-1.396 2.752-3.712 2.752-6.948 0-2.517-.728-4.668-2.184-6.456-1.456-1.787-3.345-2.68-5.665-2.68-.885 0-1.798.242-2.737.73-.94.486-1.555.73-1.85.73-.253 0-.512-.112-.775-.334-.264-.222-.396-.44-.396-.65 0-.952.812-1.787 2.44-2.506 1.624-.72 3.06-1.08 4.305-1.08 3.464 0 6.35 1.244 8.663 3.73 2.312 2.484 3.468 5.514 3.468 9.088 0 3.278-1.21 5.98-3.625 8.105-2.42 2.126-5.337 3.19-8.76 3.19-1.73 0-3.925-.697-6.586-2.088l-1.144-.547z"/><path d="M546.77 460.273c.536.197.966.484 1.292.86.325.38.488.815.488 1.31v2.922c0 .723.08 1.396.243 2.018.162.622.458 1.148.89 1.58.09.09.133.15.133.18 0 .248-.044.372-.133.372-.108 0-.367-.12-.776-.362-.41-.24-.826-.58-1.25-1.014-.425-.44-.723-1.007-.895-1.7-.07-.278-.105-.73-.105-1.37v-2.57c0-.468-.13-.868-.39-1.2-.26-.34-.6-.58-1.018-.737v-.58c.413-.153.752-.39 1.012-.715.26-.324.39-.704.39-1.14v-2.57c0-.838.063-1.394.19-1.666.153-.533.43-1.007.828-1.423.4-.415.806-.746 1.22-.99.413-.244.677-.366.79-.366.09 0 .134.124.134.37l-.133.182c-.43.43-.726.954-.89 1.573-.16.62-.24 1.294-.24 2.023v2.922c0 .47-.165.887-.49 1.252-.327.364-.758.64-1.293.832zm9.774 6.11l-.114.195c-.038.092-.084.16-.138.205-.054.044-.15.067-.29.067-.108 0-.278-.027-.51-.08-.23-.055-.413-.082-.546-.082s-.32.027-.557.08c-.24.055-.42.082-.54.082-.15 0-.277-.037-.38-.11-.11-.075-.167-.176-.167-.305 0-.084.032-.154.095-.212.063-.058.283-.125.66-.2.374-.077.63-.222.766-.438.136-.215.204-.472.204-.77v-9.77c0-.525-.12-.892-.37-1.1-.136-.122-.36-.204-.664-.248-.306-.044-.49-.103-.554-.177-.062-.074-.094-.162-.094-.265 0-.103.062-.188.186-.256s.243-.107.357-.107c.127 0 .314.027.56.08.25.055.43.082.554.082.114 0 .276-.02.485-.063.205-.04.36-.062.462-.062.19 0 .33.054.42.158.088.104.132.3.132.585v11.133c0 .394.242.744.726 1.052.486.308.944.462 1.374.462.494 0 1.016-.21 1.567-.628.55-.42.828-1.115.828-2.085 0-.755-.218-1.4-.655-1.937-.435-.536-1-.804-1.7-.804-.263 0-.54.073-.82.22-.28.145-.465.22-.554.22-.077 0-.154-.035-.233-.1-.08-.07-.12-.134-.12-.197 0-.288.245-.538.733-.754.487-.215.917-.323 1.29-.323 1.04 0 1.904.374 2.6 1.12.69.745 1.04 1.653 1.04 2.726 0 .982-.365 1.793-1.09 2.43-.725.64-1.6.957-2.627.957-.52 0-1.177-.21-1.976-.625l-.343-.165zm9.393-1.294c0 .31.118.562.354.77.24.2.52.3.85.3.2 0 .44-.08.715-.243.275-.16.475-.243.6-.243s.19.077.19.232c0 .18-.236.407-.707.68s-1.005.41-1.6.41c-.462 0-.866-.144-1.21-.43-.346-.284-.545-.6-.6-.95s-.08-1.652-.08-3.914c0-.305-.31-.527-.933-.666-.274-.056-.41-.162-.41-.32 0-.1.043-.18.13-.24.085-.056.192-.085.32-.085l.558.077c.335.05.617.078.846.078.082 0 .204-.025.367-.072l.303-.07c.21 0 .314.43.314 1.293v3.39zm3.13-3.25c0-.46-.246-.72-.74-.79-.3-.047-.486-.1-.563-.17-.076-.068-.114-.15-.114-.256 0-.24.18-.358.544-.358.095 0 .288.032.578.1s.6.1.93.1l.335-.04.248-.037c.172 0 .258.193.258.58 0 2.92.025 4.474.076 4.66.05.187.302.34.77.45.24.065.39.123.442.175.057.05.086.112.086.183 0 .083-.053.16-.158.23s-.24.107-.406.107c-.07 0-.243-.02-.517-.067-.274-.043-.468-.066-.58-.066-.12 0-.268.022-.44.067l-.344.07c-.14 0-.236-.04-.286-.115-.05-.076-.08-.263-.1-.56-.013-.3-.02-.872-.02-1.72v-2.546zm6.51 3.37c0 .31.058.51.172.61.11.09.26.153.45.182.19.03.326.07.405.12.08.05.12.158.12.318 0 .214-.187.32-.555.32-.16 0-.397-.02-.715-.057-.32-.038-.555-.057-.707-.057-.154 0-.377.024-.67.075-.29.05-.51.078-.657.078s-.27-.04-.375-.125-.156-.193-.156-.328c0-.084.03-.157.086-.218.057-.06.203-.11.438-.15.235-.038.398-.114.49-.228.092-.116.138-.39.138-.828v-3.21c0-.27-.056-.453-.17-.54-.114-.09-.282-.156-.504-.2-.22-.045-.36-.103-.412-.174-.054-.07-.08-.156-.08-.26 0-.114.045-.21.137-.283.094-.074.203-.11.33-.11.11 0 .264.023.464.07.2.048.35.07.444.07.11 0 .276-.016.5-.05.222-.036.387-.053.495-.053.236 0 .353.198.353.59l-.01.253-.01.213v3.97zm-.775-8.26c.29 0 .542.102.753.313.212.212.318.463.318.753 0 .26-.104.48-.313.66-.208.18-.455.27-.74.27s-.528-.1-.733-.3c-.205-.2-.308-.437-.308-.715 0-.264.1-.495.302-.69.205-.196.444-.294.715-.294zm5.687 8.43c0 .17.04.316.13.44s.283.204.59.255c.302.05.49.114.554.19.066.078.1.175.1.29 0 .206-.157.31-.468.31-.19 0-.475-.025-.85-.072-.375-.048-.658-.07-.85-.07-.177 0-.44.023-.78.07-.344.048-.605.07-.783.07-.254 0-.418-.028-.49-.086-.074-.06-.11-.14-.11-.24 0-.105.03-.19.09-.26.06-.073.25-.13.57-.18.32-.048.53-.15.63-.314.097-.163.147-.35.147-.567v-10.26c0-.224-.05-.42-.15-.587-.103-.17-.31-.29-.63-.367s-.505-.152-.565-.23c-.06-.076-.09-.163-.09-.26 0-.096.052-.174.157-.23.105-.06.215-.088.33-.088.102 0 .253.02.453.056.202.038.35.057.445.057.11 0 .27-.02.488-.057.216-.04.38-.057.487-.057.202 0 .35.054.447.162.095.107.143.3.143.58v11.44zm10.082-.77c0 .31.063.593.19.85s.355.442.685.556c.33.114.52.197.57.25.052.05.077.11.077.173 0 .277-.148.415-.44.415-.095 0-.23-.027-.4-.078-.173-.05-.396-.076-.67-.076-.184 0-.386.026-.605.077-.22.05-.36.076-.416.076-.12 0-.223-.045-.306-.134-.083-.09-.13-.18-.14-.277-.01-.095-.03-.143-.06-.143l-.153.07c-.964.545-1.775.817-2.434.817-.936 0-1.78-.358-2.532-1.075-.75-.716-1.125-1.54-1.125-2.464 0-1.06.38-1.932 1.14-2.617s1.643-1.026 2.65-1.026c.424 0 .862.106 1.31.317.45.21.676.446.676.704 0 .082-.03.152-.09.208-.06.06-.127.087-.203.087-.096 0-.316-.08-.66-.234-.346-.155-.664-.233-.955-.233-.64 0-1.18.27-1.624.8-.443.537-.665 1.17-.665 1.91 0 .63.2 1.25.602 1.87.4.615.95.924 1.647.924.374 0 .803-.103 1.287-.31s.793-.484.926-.836.2-.884.2-1.6v-8.18c0-.525-.09-.89-.266-1.093-.177-.203-.434-.355-.77-.457-.336-.104-.542-.18-.62-.23-.075-.053-.113-.137-.113-.253 0-.084.048-.156.143-.217.095-.06.23-.09.4-.09l.45.047c.23.032.413.048.554.048.293 0 .546-.01.76-.036l.385-.04c.23 0 .38.064.455.194.076.13.115.31.115.537 0 .42.004.757.01 1.01l.01.675v9.09zm2.984.2c.297 0 .562.14.796.42.234.283.35.656.35 1.12 0 .393-.212.996-.637 1.81s-.74 1.22-.95 1.22c-.116 0-.174-.06-.174-.18 0-.036.12-.3.365-.79.245-.5.366-.886.366-1.165 0-.216-.137-.392-.41-.528s-.458-.28-.55-.43-.136-.31-.136-.48c0-.31.092-.556.275-.734.18-.177.417-.265.71-.265zm6.295-3.087c0-.228-.067-.405-.204-.532s-.266-.19-.393-.19c-.38 0-.57-.12-.57-.356 0-.277.136-.415.41-.415.076 0 .224.022.444.067.22.043.39.066.5.066.155 0 .313-.02.475-.058l.33-.058c.17 0 .285.043.343.13.056.085.1.432.123 1.04.026.61.04 1.318.04 2.123l-.02 1.658c0 .292.017.474.052.547s.11.145.228.215.256.113.415.132c.16.02.274.05.347.09.074.043.11.13.11.267 0 .222-.162.335-.487.335-.235 0-.474-.023-.716-.07-.24-.05-.48-.07-.716-.07-.19 0-.424.024-.7.07-.277.05-.485.07-.625.07-.358 0-.536-.1-.536-.307 0-.155.032-.256.1-.305.066-.05.19-.085.365-.108.18-.022.324-.073.435-.152.112-.08.182-.18.21-.31.03-.125.043-.384.043-.777v-3.107zm4.33-.02c0-.138-.06-.257-.183-.355-.123-.098-.258-.147-.403-.147-.318 0-.69.18-1.12.537-.254.22-.438.33-.55.33-.165 0-.247-.073-.247-.22 0-.323.298-.7.89-1.127.594-.428 1.13-.642 1.605-.642.406 0 .76.145 1.066.434.306.29.46.63.46 1.023l-.02 3.844c0 .197.067.36.2.49s.292.195.476.195c.324 0 .485.127.485.385 0 .226-.17.34-.505.34l-.568-.063c-.34-.04-.628-.06-.857-.06-.38 0-.7.023-.962.07-.26.048-.428.07-.505.07-.115 0-.215-.036-.3-.11-.086-.074-.13-.17-.13-.285 0-.18.112-.27.334-.27.2 0 .39-.065.57-.195.176-.13.264-.325.264-.584v-3.657zm4.35 0c0-.138-.06-.257-.184-.355-.12-.098-.256-.147-.4-.147-.254 0-.565.145-.935.434-.37.288-.614.432-.734.432-.077 0-.145-.026-.205-.07-.06-.05-.09-.106-.09-.17 0-.286.28-.646.838-1.08.557-.435 1.125-.65 1.703-.65.674 0 1.134.28 1.38.845.09.17.134 1.11.134 2.817l-.02 1.62c0 .202.052.354.16.456.11.103.273.175.495.22.222.044.357.097.404.158.05.06.07.135.07.218 0 .24-.155.358-.467.358l-.573-.063c-.336-.04-.622-.062-.86-.062-.233 0-.49.025-.766.07s-.507.073-.69.073c-.117 0-.217-.037-.3-.11-.088-.075-.13-.17-.13-.286 0-.2.15-.313.442-.34s.49-.108.585-.235c.096-.128.144-.286.144-.476v-3.654zm7.415-1.882c1.052 0 1.97.363 2.754 1.086s1.175 1.56 1.175 2.503c0 1.06-.375 1.922-1.124 2.59-.75.665-1.75 1-3.006 1-.99 0-1.88-.34-2.67-1.02s-1.186-1.522-1.186-2.53c0-.964.345-1.81 1.04-2.536.695-.727 1.7-1.09 3.013-1.09zm.01 6.34c.73 0 1.31-.263 1.744-.79.435-.527.652-1.193.652-2 0-.79-.233-1.44-.7-1.95-.466-.508-1.058-.76-1.775-.76-.735 0-1.306.25-1.712.746-.408.497-.61 1.14-.61 1.926 0 .87.224 1.558.675 2.065.45.51 1.027.762 1.725.762zm5.9-4.437c0-.234-.047-.41-.14-.527-.09-.118-.283-.2-.575-.253-.29-.05-.437-.182-.437-.395 0-.09.05-.18.153-.267.104-.086.238-.13.403-.13.07 0 .19.023.366.068.177.045.32.068.437.068.07 0 .23-.02.483-.057l.472-.056c.13 0 .217.052.267.157.05.107.08.318.086.635.014.527.02 1.088.02 1.685l-.057 2.713c0 .197.016.317.048.362.033.044.107.102.225.17s.268.125.452.163c.183.037.3.09.35.16.05.066.077.144.077.234 0 .214-.165.32-.496.32-.23 0-.463-.02-.705-.062-.242-.04-.48-.06-.716-.06-.19 0-.438.015-.74.05-.3.035-.526.052-.673.052-.325 0-.487-.12-.487-.357 0-.103.03-.186.088-.25.057-.065.18-.104.37-.117.217-.014.35-.045.4-.096.147-.152.24-.285.277-.4s.057-.347.057-.702v-3.106zm5.833 3.657c0 .275.045.454.137.54.093.087.258.156.496.21.24.054.358.155.358.304 0 .2-.117.3-.352.3l-.57-.033c-.338-.02-.62-.03-.85-.03-.38 0-.703.024-.963.07s-.43.07-.506.07c-.115 0-.22-.04-.32-.114-.1-.077-.148-.17-.148-.28 0-.082.04-.16.123-.235.082-.075.178-.11.286-.11.202 0 .383-.06.54-.18.16-.114.24-.29.24-.524 0-1.526.01-2.47.03-2.835l.027-.61c0-.495-.225-.74-.68-.74-.193 0-.472.147-.834.445-.362.298-.62.447-.77.447-.05 0-.107-.03-.17-.092-.063-.064-.095-.132-.095-.203 0-.226.29-.567.874-1.023.582-.46 1.152-.686 1.71-.686.328 0 .613.084.853.252.24.168.4.38.48.633.08.253.12.61.12 1.074l-.01.61v2.75zm7.822-2.406c.146 0 .244-.025.295-.076s.077-.14.077-.275c0-.484-.19-.938-.566-1.36s-.947-.632-1.708-.632c-.527 0-1.07.25-1.632.75-.56.505-.84 1.21-.84 2.13 0 .67.295 1.277.887 1.81.592.537 1.256.805 1.99.805.558 0 1.16-.174 1.806-.523.247-.132.41-.2.484-.2.114 0 .204.033.27.097.068.062.1.143.1.24 0 .23-.35.51-1.05.84-.702.33-1.424.495-2.166.495-1.097 0-2.02-.374-2.77-1.123-.75-.75-1.12-1.64-1.12-2.673 0-.946.41-1.755 1.23-2.428s1.74-1.01 2.763-1.01c1.327 0 2.32.34 2.98 1.02s.99 1.49.99 2.434c0 .203-.05.328-.152.376-.1.05-.287.07-.56.07h-4.36c-.355 0-.532-.13-.532-.393 0-.25.183-.377.55-.377h3.036zm5.482 1.618c0 .534.023.875.073 1.024.05.15.14.224.274.224.207 0 .46-.114.762-.343.3-.228.502-.343.606-.343.083 0 .16.04.222.116.064.08.096.173.096.28 0 .18-.25.475-.747.88s-.938.61-1.32.61c-1 0-1.503-.735-1.503-2.204v-3.658c0-.12-.015-.185-.047-.195-.032-.01-.21-.013-.533-.013-.255 0-.426-.04-.515-.11s-.133-.184-.133-.326c0-.12.03-.21.1-.26.064-.05.194-.103.39-.157.19-.054.34-.117.444-.19s.25-.225.437-.457.32-.56.4-.977c.08-.42.12-1.023.12-1.81 0-.373.1-.56.308-.56.23 0 .376.05.433.157.058.106.087.28.087.53v3.18c0 .125.082.19.247.19h1.35c.274 0 .41.117.41.355 0 .276-.197.414-.59.414h-1.19c-.09 0-.143.01-.162.04l-.03.214v3.387zm5.86.62c0 .31.058.514.17.61.116.094.268.156.46.185.19.03.324.07.403.12.08.05.12.158.12.318 0 .213-.185.32-.553.32-.16 0-.4-.02-.717-.058-.318-.038-.554-.057-.706-.057-.153 0-.376.023-.668.074-.293.05-.513.076-.66.076s-.27-.04-.376-.124-.157-.193-.157-.328c0-.084.03-.157.086-.218.056-.06.202-.11.437-.15.236-.037.4-.113.49-.227.093-.113.14-.39.14-.825v-3.212c0-.272-.058-.453-.17-.54-.116-.09-.284-.156-.506-.2-.22-.045-.36-.103-.413-.174-.053-.07-.08-.156-.08-.26 0-.114.046-.21.138-.283.093-.076.202-.11.33-.11.108 0 .263.02.463.07s.35.07.446.07c.11 0 .275-.018.498-.05.222-.038.39-.055.496-.055.235 0 .352.197.352.59l-.01.252-.01.213v3.97zm-.775-8.26c.29 0 .54.105.752.316.21.212.316.463.316.753 0 .26-.105.48-.314.66-.208.18-.455.27-.74.27s-.528-.1-.733-.3c-.206-.2-.31-.435-.31-.713 0-.265.1-.496.308-.69.206-.197.444-.295.716-.295zm6.4 9.145c.26 0 .39-.117.39-.352v-.257c0-.35.12-.523.365-.523.16 0 .28.074.36.22.08.147.12.453.12.918 0 .294-.02.48-.06.56-.04.08-.145.13-.31.15-.165.02-.504.03-1.018.03h-2.846c-.36 0-.54-.11-.54-.334 0-.16.09-.405.265-.735l2.163-3.997c.1-.21.15-.37.15-.486 0-.134-.035-.215-.107-.243s-.22-.04-.447-.04h-.564c-.34 0-.543.02-.608.065-.07.044-.14.2-.21.466-.077.264-.21.4-.41.4-.22 0-.33-.16-.33-.47l-.02-.68c0-.21.03-.353.088-.427.057-.073.15-.11.276-.11h4.12c.077 0 .144.03.2.09.058.06.087.128.087.205 0 .13-.083.353-.248.664l-2.292 4.15c-.083.146-.124.28-.124.4 0 .222.125.333.38.333h1.165zm7.975-3.12c.146 0 .244-.026.295-.077.05-.05.077-.14.077-.276 0-.484-.19-.938-.565-1.36-.38-.42-.948-.632-1.71-.632-.527 0-1.07.25-1.632.75-.56.502-.84 1.21-.84 2.13 0 .67.296 1.274.888 1.81.593.534 1.257.802 1.99.802.56 0 1.16-.174 1.807-.523.246-.13.407-.2.483-.2.114 0 .204.034.27.098.068.063.1.144.1.24 0 .232-.35.512-1.05.842-.702.33-1.424.493-2.166.493-1.097 0-2.02-.374-2.77-1.123-.747-.75-1.12-1.64-1.12-2.674 0-.945.41-1.754 1.23-2.427s1.744-1.01 2.766-1.01c1.324 0 2.32.34 2.98 1.02.66.68.99 1.49.99 2.433 0 .203-.054.328-.155.376-.1.05-.29.07-.56.07h-4.36c-.355 0-.532-.13-.532-.394 0-.25.185-.376.553-.376h3.035zm10.373-2.41c-.42.153-.758.398-1.015.734-.257.338-.385.738-.385 1.2v2.57c0 .674-.056 1.205-.167 1.595-.112.39-.28.746-.51 1.066-.224.32-.505.617-.84.89-.334.273-.65.49-.943.65-.296.164-.488.245-.577.245s-.132-.124-.132-.37c0-.033.05-.093.144-.182.432-.43.727-.958.886-1.58.16-.622.238-1.294.238-2.018v-2.922c0-.495.164-.93.493-1.31.33-.377.76-.664 1.287-.86-.536-.19-.966-.468-1.292-.833-.326-.367-.488-.784-.488-1.254v-2.922c0-.73-.08-1.404-.238-2.022-.16-.62-.455-1.143-.886-1.575l-.14-.184c0-.247.043-.37.132-.37.11 0 .367.118.777.356.41.236.824.574 1.25 1.012.423.438.724 1.006.903 1.704.07.274.105.73.105 1.37v2.57c0 .44.127.82.384 1.143.257.324.595.562 1.014.714v.58z" enable-background="new"/></svg>