<svg xmlns="http://www.w3.org/2000/svg" width="438.79" height="80" viewBox="0 0 438.79 80"><path d="M49.106 60.828c-2.399 0-5.284-1.954-6.175-4.181l-8.603-21.508c-.794-1.985.175-4.245 2.159-5.039l21.508-8.603c.411-.164.797-.248 1.147-.248 1.439 0 1.594 1.471 1.594 2.103v33.599c0 2.138-1.739 3.877-3.877 3.877h-7.753zm-45.229 0c-2.138 0-3.877-1.739-3.877-3.877v-7.753c0-2.399 1.954-5.284 4.181-6.175l21.508-8.603c.457-.183.936-.275 1.424-.275 1.58 0 3.032.979 3.615 2.435l8.603 21.508c.328.821.332 1.533.012 2.007-.321.474-.984.735-1.868.735h-33.598zm-2.283-21.157c-1.439-.001-1.594-1.471-1.594-2.104v-33.599c0-2.138 1.739-3.877 3.877-3.877h7.753c2.399 0 5.284 1.954 6.175 4.181l8.603 21.508c.794 1.985-.175 4.245-2.159 5.039l-21.508 8.604c-.411.164-.797.248-1.147.248zm32.029-12.896c-1.58 0-3.033-.979-3.615-2.435l-8.603-21.508c-.328-.821-.332-1.533-.012-2.007.321-.474.984-.735 1.868-.735h33.599c2.138 0 3.877 1.739 3.877 3.877v7.754c0 2.399-1.954 5.284-4.181 6.175l-21.509 8.604c-.456.183-.935.275-1.424.275zm72.785-9.509c5.625 0 9.993 1.921 13.106 5.762 3.111 3.842 4.668 9.277 4.668 16.309 0 7.031-1.569 12.494-4.707 16.387-3.138 3.893-7.494 5.839-13.066 5.839-2.787 0-5.332-.515-7.637-1.543-2.305-1.029-4.238-2.611-5.801-4.746h-.469l-1.367 5.508h-4.648v-60.782h6.484v14.766c0 3.308-.104 6.276-.313 8.906h.313c3.02-4.271 7.5-6.406 13.437-6.406zm-.937 5.429c-4.428 0-7.617 1.269-9.57 3.809-1.953 2.539-2.93 6.816-2.93 12.832 0 6.015 1.002 10.319 3.008 12.91 2.005 2.591 5.221 3.886 9.649 3.886 3.984 0 6.953-1.451 8.906-4.356 1.953-2.903 2.93-7.076 2.93-12.519 0-5.572-.976-9.726-2.93-12.461-1.954-2.733-4.975-4.101-9.063-4.101zm48.125 38.867c-6.328 0-11.322-1.927-14.98-5.781-3.659-3.854-5.488-9.205-5.488-16.055 0-6.9 1.699-12.383 5.098-16.445 3.398-4.062 7.962-6.094 13.692-6.094 5.364 0 9.609 1.765 12.734 5.293 3.125 3.529 4.687 8.184 4.687 13.965v4.101h-29.492c.13 5.026 1.399 8.842 3.809 11.445 2.408 2.604 5.801 3.906 10.176 3.906 4.609 0 9.166-.963 13.672-2.89v5.781c-2.292.99-4.46 1.699-6.504 2.129-2.047.431-4.514.645-7.404.645zm-1.758-38.944c-3.438 0-6.179 1.12-8.223 3.359-2.045 2.24-3.249 5.339-3.613 9.297h22.383c0-4.088-.912-7.22-2.734-9.394-1.824-2.175-4.428-3.262-7.813-3.262zm42.383 33.593c1.146 0 2.252-.085 3.32-.254 1.067-.169 1.914-.345 2.539-.527v4.961c-.703.339-1.739.619-3.106.84-1.367.221-2.597.332-3.691.332-8.282 0-12.422-4.361-12.422-13.086v-25.469h-6.133v-3.125l6.133-2.695 2.734-9.14h3.75v9.922h12.422v5.039h-12.422v25.195c0 2.578.612 4.557 1.836 5.937 1.224 1.38 2.904 2.07 5.04 2.07zm40.741 4.57l-1.289-6.094h-.312c-2.136 2.683-4.264 4.499-6.386 5.449-2.123.95-4.772 1.426-7.949 1.426-4.245 0-7.572-1.093-9.981-3.281s-3.613-5.299-3.613-9.336c0-8.645 6.914-13.177 20.742-13.593l7.266-.235v-2.656c0-3.36-.723-5.84-2.168-7.441-1.446-1.601-3.757-2.402-6.934-2.402-3.568 0-7.604 1.094-12.109 3.281l-1.992-4.961c2.109-1.146 4.42-2.044 6.933-2.695 2.513-.651 5.033-.976 7.558-.976 5.104 0 8.887 1.133 11.348 3.398 2.461 2.266 3.691 5.899 3.691 10.898v29.219h-4.805zm-14.648-4.57c4.036 0 7.207-1.107 9.511-3.32 2.305-2.213 3.458-5.313 3.458-9.297v-3.867l-6.484.273c-5.156.182-8.874.983-11.153 2.402s-3.418 3.627-3.418 6.621c0 2.344.709 4.128 2.129 5.352 1.419 1.224 3.404 1.836 5.957 1.836zm52.734 5.351c-2.787 0-5.332-.515-7.637-1.543-2.305-1.029-4.238-2.611-5.801-4.746h-.469c.312 2.5.469 4.87.469 7.109v17.618h-6.485v-62.031h5.274l.898 5.859h.312c1.666-2.344 3.607-4.036 5.82-5.078 2.213-1.041 4.752-1.563 7.617-1.563 5.677 0 10.058 1.941 13.145 5.82 3.086 3.881 4.629 9.323 4.629 16.328 0 7.031-1.57 12.494-4.707 16.387-3.137 3.894-7.492 5.84-13.065 5.84zm-.937-38.867c-4.375 0-7.539 1.211-9.492 3.633-1.953 2.422-2.956 6.276-3.008 11.562v1.446c0 6.015 1.002 10.319 3.008 12.91 2.005 2.591 5.221 3.886 9.649 3.886 3.698 0 6.595-1.497 8.691-4.492 2.096-2.994 3.145-7.122 3.145-12.383 0-5.338-1.048-9.434-3.145-12.285-2.097-2.851-5.046-4.277-8.848-4.277zm36.523 38.086h-6.484v-60.781h6.484v60.781zm40.078 0l-1.289-6.094h-.312c-2.136 2.683-4.264 4.499-6.386 5.449-2.123.95-4.772 1.426-7.949 1.426-4.245 0-7.572-1.093-9.981-3.281s-3.613-5.299-3.613-9.336c0-8.645 6.914-13.177 20.742-13.593l7.266-.235v-2.656c0-3.36-.723-5.84-2.168-7.441-1.446-1.601-3.757-2.402-6.934-2.402-3.568 0-7.604 1.094-12.109 3.281l-1.992-4.961c2.109-1.146 4.42-2.044 6.934-2.695 2.513-.651 5.033-.976 7.558-.976 5.104 0 8.887 1.133 11.348 3.398 2.461 2.266 3.691 5.899 3.691 10.898v29.219h-4.806zm-14.648-4.57c4.037 0 7.207-1.107 9.511-3.32 2.305-2.213 3.458-5.313 3.458-9.297v-3.867l-6.484.273c-5.156.182-8.874.983-11.153 2.402s-3.418 3.627-3.418 6.621c0 2.344.709 4.128 2.129 5.352 1.419 1.224 3.404 1.836 5.957 1.836zm49.922 5.351c-6.198 0-10.996-1.907-14.395-5.722-3.398-3.815-5.098-9.212-5.098-16.191 0-7.161 1.724-12.696 5.176-16.602 3.45-3.906 8.365-5.86 14.746-5.86 2.057 0 4.114.222 6.171.664 2.057.444 3.672.964 4.844 1.563l-1.992 5.508c-1.432-.573-2.995-1.048-4.688-1.426-1.693-.377-3.19-.566-4.492-.566-8.698 0-13.047 5.547-13.047 16.64 0 5.261 1.061 9.297 3.184 12.109 2.122 2.812 5.267 4.218 9.434 4.218 3.568 0 7.226-.768 10.977-2.305v5.743c-2.865 1.485-6.471 2.227-10.82 2.227zm39.062 0c-6.328 0-11.322-1.927-14.98-5.781-3.659-3.854-5.488-9.205-5.488-16.055 0-6.9 1.699-12.383 5.098-16.445 3.399-4.062 7.962-6.094 13.691-6.094 5.365 0 9.609 1.765 12.734 5.293 3.126 3.529 4.688 8.184 4.688 13.965v4.101h-29.492c.131 5.026 1.4 8.842 3.809 11.445 2.409 2.604 5.801 3.906 10.176 3.906 4.609 0 9.166-.963 13.672-2.89v5.781c-2.292.99-4.46 1.699-6.503 2.129-2.047.431-4.514.645-7.405.645zm-1.758-38.944c-3.437 0-6.179 1.12-8.222 3.359-2.045 2.24-3.249 5.339-3.614 9.297h22.383c0-4.088-.912-7.22-2.734-9.394-1.823-2.175-4.428-3.262-7.813-3.262z"/></svg>