<svg xmlns="http://www.w3.org/2000/svg" width="200" height="50.098" viewBox="0 0 200 50.098"><g fill-rule="evenodd" clip-rule="evenodd"><path fill="#fff" stroke="#000" stroke-width=".216" stroke-miterlimit="2.613" d="M113.722.414h85.29v26.133h-85.29V.414z"/><path fill="#034EA2" d="M8.547 7.83v10.757h4.25c2.215 0 3.804-.423 4.76-1.262C18.52 16.485 19 15.11 19 13.2c0-1.898-.485-3.267-1.457-4.107-.967-.84-2.55-1.262-4.744-1.262H8.54zM0 2.357h14.137c4.576 0 8.058.942 10.456 2.825 2.398 1.883 3.594 4.632 3.594 8.242 0 3.6-1.19 6.338-3.58 8.21-2.386 1.874-5.873 2.81-10.47 2.81H0V2.358zM41.386 16.84h5.472l-2.652-7.758-2.82 7.758zm-11.963 7.605l9.56-22.058h10.843l8.92 22.058h-9.26l-.734-2.164H39.37l-.79 2.17h-9.157zm36.723 0V7.982H58.17V2.388H82.7v5.594h-8.006v16.463h-8.548zm27.36-7.605h5.473l-2.66-7.758-2.82 7.758zm-11.962 7.605l9.56-22.058h10.843l8.92 22.058h-9.26l-.734-2.164H91.49l-.788 2.17h-9.158zM113.076 0H200v27.183h-86.924V0z"/><path fill="#fff" d="M127.173 16.84h5.472l-2.652-7.758-2.82 7.758zm-11.963 7.605l9.56-22.058h10.843l8.92 22.058h-9.26l-.734-2.164h-9.39l-.79 2.17h-9.156zm47.377-22.057c1.92 0 3.457.092 4.612.275 1.15.183 2.05.468 2.69.86.826.484 1.457 1.14 1.89 1.96.433.82.646 1.766.646 2.84 0 1.304-.32 2.45-.967 3.437-.647.993-1.537 1.705-2.673 2.143.974.407 1.66.91 2.054 1.512.393.6.62 1.664.693 3.187l.03.697c.138 2.88.525 4.48 1.167 4.8v.34h-9.5c-.29-.468-.445-1.37-.476-2.71-.02-.786-.056-1.39-.107-1.82-.092-.81-.362-1.373-.815-1.7-.447-.33-1.205-.493-2.27-.493h-5.1v6.725h-8.664V2.385h16.79zm-8.125 9.53h4.98c1.302 0 2.224-.154 2.753-.464.534-.305.8-.825.8-1.548 0-.718-.25-1.217-.754-1.502-.5-.28-1.5-.423-3-.423h-4.77v3.94zm26.933 12.527V7.982h-7.977V2.388h24.532v5.594h-8.007v16.463h-8.548z"/><path fill="#034EA2" d="M94.378 45.048l.232-.47c.216-.073.422-.16.62-.256l.606-.324.21-.357.2-.38.2-.35.177-.358 4.252-8.58c.325-.655.453-1.065.386-1.23-.06-.163-.47-.26-1.212-.29l.4-.803c.4 0 .805.003 1.21.01.407.007.818.01 1.235.01.417 0 .83.004 1.235.01.406.008.81.01 1.212.01.4 0 .813-.003 1.233-.01.42-.01.84-.01 1.257-.01.402 0 .814-.005 1.235-.01.42-.01.835-.013 1.237-.013l.112.268-.256.448-.255.45-.5.894-.5.894h-.715c.126-.252.234-.51.326-.77s.177-.525.25-.793c-.224-.09-.492-.157-.805-.202-.315-.044-.64-.073-.974-.09h-2.59l-.14.26-.16.256-.137.258-.128.235-.29.514-.265.513-1.383 2.792h.58l.337.022h.79c.306-.015.6-.037.88-.067.285-.03.52-.065.705-.11.26-.074.468-.2.624-.38.155-.18.29-.365.4-.56l.077-.132.078-.133.033-.067.02-.045.05-.1.05-.1h.737c-.155.284-.305.57-.45.86-.143.29-.292.578-.448.86l-.643 1.297-.653 1.317h-.69l.017-.035.017-.034.106-.234.106-.235c.08-.222.13-.427.15-.613.016-.185-.054-.316-.21-.39-.134-.06-.345-.1-.63-.123-.29-.023-.59-.042-.91-.057h-1.59l-2.656 5.362h.784l.403.022h1.22c.44-.015.866-.04 1.28-.078.412-.04.756-.096 1.032-.17.14-.045.3-.168.472-.37.176-.2.34-.41.496-.636.15-.21.28-.4.39-.58l.22-.38h.76c-.26.46-.512.91-.763 1.34-.25.433-.487.858-.71 1.275l-.17.323-.17.323-.41.01-.42.035-.407.01-.407.013-.84.033-.81.01-.978-.01-.978-.01-.977-.012-.976-.01h-1.23c-.4 0-.802.013-1.204.043zm11.462 0l.376-.76h.112c.52-.03.888-.1 1.1-.212.21-.112.465-.465.76-1.06l2.18-4.403.023-.045.03-.045.016-.033.007-.01.016-.08.027-.055c.22-.447.29-.726.204-.838-.085-.112-.33-.167-.732-.167h-.29l.365-.737c.32-.045.642-.097.97-.156.326-.06.665-.127 1.015-.2.336-.075.674-.157 1.017-.247l1.026-.268.124.156-.75 1.52 2.57-1.455c.18-.06.37-.104.58-.134.207-.03.41-.05.602-.05l.308.01.296.033c.21.03.4.073.58.133.18.06.32.134.426.224.278.254.378.6.3 1.04-.074.44-.212.89-.41 1.35l-.087.18-.09.18-.084.167-.07.147-.127.257-.116.237-.217.39-.182.37-1.218 2.456c-.31.626-.436.998-.376 1.117s.373.193.94.222h.066l-.377.76-.314-.022h-.324c-.215-.014-.43-.02-.647-.02h-1.587c-.32 0-.65.014-.99.044.08-.165.17-.325.26-.48l.26-.48.06-.08.04-.077.305-.546.293-.57 1.526-3.08c.28-.564.45-1.08.508-1.54.06-.46-.26-.7-.95-.714H115c-.343 0-.71.1-1.1.302-.39.2-.75.466-1.074.793l-2.28 4.604-.023.022-.033.045-.034.048-.022.022c-.23.46-.265.734-.108.824.157.09.43.134.816.134l.145.02h.18l-.377.76-.698-.036-.71-.01h-2.636l-.598.01-.608.03zm8.937 5.005l.132-.626c1.08-.045 1.9-.372 2.47-.983s1.073-1.356 1.51-2.234l3.72-7.507c.31-.626.446-1.013.41-1.162-.04-.142-.346-.24-.92-.29l-.127-.01-.13-.01.343-.69c.685-.06 1.375-.16 2.07-.3.697-.14 1.4-.31 2.105-.504l.17.157-.288.56-.277.535-.145.27-.142.267-.133.27-.134.267-2.59 5.228c-.154.314-.324.64-.51.984-.183.343-.37.678-.563 1.006-.503.834-1.11 1.642-1.827 2.424-.715.78-1.567 1.403-2.556 1.865-.248.107-.5.2-.754.28-.255.076-.5.132-.74.162l-.32.037-.285.01h-.494v.002zm10.65-17.25c.228-.46.54-.807.94-1.038.396-.23.763-.354 1.098-.37h.134c.32.016.56.14.73.37.17.23.14.577-.09 1.04-.23.46-.547.807-.94 1.038-.4.23-.767.354-1.1.37h-.07c-.358 0-.62-.12-.795-.36-.17-.237-.144-.587.085-1.05zm.446 7.71c.812-1.64 1.83-2.846 3.056-3.62 1.22-.776 2.55-1.163 3.98-1.163l.37.01.41.035.19.022.19.022c1.176.112 1.8.6 1.866 1.46.067.853-.187 1.863-.763 3.024-.805 1.623-1.82 2.852-3.045 3.686-1.226.835-2.673 1.25-4.34 1.25-1.49 0-2.386-.393-2.687-1.182-.3-.79-.104-1.884.59-3.285l.04-.057.05-.08.005-.01.016-.034.045-.045.024-.043zm6.104.85l.122-.247.16-.29.126-.257.127-.26.038-.08.04-.08.21-.447.188-.448c.25-.597.396-1.148.44-1.654.04-.506-.16-.804-.608-.894l-.106-.01-.13-.01h-.335c-.61 0-1.166.24-1.667.724-.5.484-.93 1.017-1.295 1.597-.105.15-.2.303-.284.46l-.238.457-.1.18-.11.2-.113.2-.122.224-.264.56c-.088.194-.166.387-.232.58-.227.58-.35 1.12-.36 1.61-.01.49.22.78.697.87l.118.01.095.013.082.035.094.012c.58 0 1.12-.23 1.616-.695.497-.462.927-.97 1.29-1.52.095-.133.188-.275.276-.424l.234-.423zm1.38 6.41h.246c.053.195.17.35.348.47.18.12.4.18.65.18h.2l.12-.023h.1c.483-.074.942-.287 1.376-.637.435-.35.84-.726 1.22-1.128l.36-.39.35-.37.072-.078.073-.078.68-7.738.034-.246.02-.224c.02-.253-.014-.436-.11-.547-.093-.11-.325-.18-.7-.21l.367-.74.35.01.35.013.35.01.356.01.888-.01.9-.034.9-.01.877-.01-.377.76c-.374 0-.68.038-.917.11-.238.077-.41.22-.512.427l-.06.19-.026.213-.022.11-.02.11-.54 4.74 3.97-4.448.467-.56c.132-.163.22-.29.265-.38.103-.208.078-.345-.074-.412-.153-.066-.446-.1-.88-.1l.38-.76.306.01.303.01.576.036.585.01.452-.01.473-.01.15-.01.153-.01.32-.014L149 36l-.378.76c-.506.12-.93.314-1.27.58-.342.27-.676.583-1.002.94l-.306.346-.328.346-6.282 6.77c-.148.15-.298.31-.45.48-.152.172-.313.34-.484.504-.808.85-1.67 1.624-2.582 2.324-.913.7-1.787 1.05-2.62 1.05-.24 0-.474-.037-.705-.112-.23-.075-.46-.186-.683-.335.156-.163.295-.323.417-.48l.36-.457.35-.48.33-.48-.01.02zm20.588-2.725l.41-.827c.79-.03 1.295-.11 1.518-.24.223-.133.47-.476.744-1.03l4.563-9.204c.28-.565.383-.93.308-1.094-.075-.165-.5-.247-1.275-.247l.377-.76.464.034.475.01.69.033.688.01.922-.01.955-.03.944-.035.91-.01-.377.76c-.775 0-1.29.093-1.546.28-.257.185-.56.628-.906 1.328l-.043.09-.02.09-.043.09-.044.087-3.93 7.93-.044.09-.046.086-.033.066-.02.046-.09.133-.056.112c-.3.61-.405.994-.312 1.15.096.157.523.236 1.28.236l-.41.83-.73-.033-.766-.01h-3c-.498 0-1.015.012-1.55.042zm10.658 0l.41-.827c.84-.04 1.368-.13 1.58-.272.21-.14.48-.54.805-1.195l.11-.224.112-.224 4.186-8.445.127-.256.105-.256.105-.234.094-.26h-1.128c-.178 0-.35.007-.54.02-.33 0-.657.02-.98.058-.324.037-.58.086-.776.145-.127.046-.263.16-.407.347-.145.184-.28.39-.405.612l-.223.38-.178.336-.033.065-.034.067h-.805l.42-.85.284-.59.292-.615.083-.19.092-.213.187-.402.177-.38c.58 0 1.157.006 1.727.013.57.007 1.14.02 1.715.034.57.014 1.147.025 1.724.032.578.005 1.157.01 1.738.01l1.032-.01 1.033-.013.28-.02h.267c.44-.015.873-.026 1.3-.034.43-.007.852-.01 1.27-.01l-.478.803-.456.8-.44.816-.413.815h-.805l.03-.055.04-.078h-.024l.04-.08.028-.055.124-.246.1-.2.1-.203c.095-.222.165-.424.21-.602.043-.176.01-.29-.103-.332-.134-.06-.35-.1-.643-.124-.295-.02-.603-.04-.923-.055h-1.64l-.14.256-.126.236-.138.255-.138.258-4.186 8.447-.04.09-.042.09-.033.066-.02.045-.09.133-.055.113c-.32.64-.42 1.023-.303 1.15.115.126.553.205 1.313.235l-.41.83-.742-.035-.753-.01h-3.04c-.512 0-1.025.014-1.547.044z"/></g></svg>