<svg xmlns="http://www.w3.org/2000/svg" width="200" height="50.098" viewBox="0 0 200 50.098"><g fill-rule="evenodd" clip-rule="evenodd"><path fill="#fff" stroke="#000" stroke-width=".216" stroke-miterlimit="2.613" d="M113.722.414h85.29v26.133h-85.29V.414z"/><path fill="#034EA2" d="M8.547 7.83v10.757h4.25c2.215 0 3.804-.423 4.76-1.262C18.52 16.485 19 15.11 19 13.2c0-1.898-.485-3.267-1.457-4.107-.967-.84-2.55-1.262-4.744-1.262H8.544zM0 2.357h14.137c4.576 0 8.058.942 10.456 2.825 2.398 1.883 3.594 4.632 3.594 8.242 0 3.6-1.19 6.338-3.58 8.21-2.386 1.874-5.873 2.81-10.47 2.81H0V2.358zM41.386 16.84h5.472l-2.652-7.758-2.82 7.758zm-11.963 7.605l9.56-22.058h10.843l8.92 22.058h-9.26l-.734-2.164H39.37l-.79 2.167h-9.157zm36.723 0V7.982H58.17V2.388H82.7v5.594h-8.006v16.463h-8.548zm27.36-7.605h5.473l-2.655-7.758-2.82 7.758zm-11.962 7.605l9.56-22.058h10.843l8.92 22.058h-9.26l-.734-2.164H91.49l-.788 2.167h-9.158zM113.076 0H200v27.183h-86.924V0z"/><path fill="#fff" d="M127.173 16.84h5.472l-2.652-7.758-2.82 7.758zm-11.963 7.605l9.56-22.058h10.843l8.92 22.058h-9.26l-.734-2.164h-9.385l-.79 2.167h-9.157zm47.377-22.057c1.92 0 3.457.092 4.612.275 1.15.183 2.05.468 2.695.86.825.484 1.456 1.14 1.89 1.96.432.82.645 1.766.645 2.84 0 1.304-.32 2.45-.966 3.437-.647.993-1.537 1.705-2.673 2.143.974.407 1.66.91 2.054 1.512.392.6.62 1.664.692 3.187l.03.697c.138 2.883.525 4.482 1.167 4.803v.34h-9.5c-.29-.467-.447-1.368-.478-2.712-.02-.783-.056-1.39-.107-1.816-.092-.81-.362-1.374-.815-1.7-.448-.33-1.206-.494-2.27-.494h-5.1v6.726h-8.665V2.386h16.79zm-8.125 9.53h4.98c1.302 0 2.224-.154 2.753-.464.534-.305.8-.825.8-1.548 0-.718-.25-1.217-.754-1.502-.5-.28-1.504-.423-3.005-.423h-4.77v3.94zm26.933 12.527V7.982h-7.977V2.388h24.532v5.594h-8.007v16.463h-8.548z"/><path fill="#034EA2" d="M94.378 45.048l.232-.47c.216-.073.422-.16.62-.256l.606-.324.21-.357.2-.38.2-.355.177-.357 4.252-8.58c.325-.655.453-1.065.386-1.23-.065-.163-.47-.26-1.216-.29l.4-.803c.4 0 .805.004 1.21.01.407.008.818.012 1.235.012.416 0 .83.004 1.234.01.406.008.81.012 1.212.012.402 0 .814-.005 1.234-.01.42-.01.84-.013 1.256-.013.402 0 .814-.004 1.235-.01.42-.008.834-.012 1.236-.012l.113.268-.256.448-.255.448-.5.894-.5.894h-.715c.126-.253.234-.51.326-.77s.176-.526.25-.794c-.225-.09-.493-.157-.806-.202-.313-.045-.637-.074-.972-.09h-2.59l-.14.258-.16.257-.137.257-.127.235-.288.514-.266.513-1.383 2.793h.58l.336.022h.792c.305-.015.6-.037.882-.067.282-.03.516-.065.702-.11.26-.074.468-.2.624-.38.156-.18.29-.365.4-.56l.078-.132.078-.134.033-.067.022-.045.05-.1.05-.1h.737c-.155.284-.305.57-.45.86-.143.29-.292.578-.448.86l-.642 1.297-.653 1.317h-.692l.017-.034.017-.032.106-.234.105-.235c.08-.222.13-.427.15-.613.017-.186-.053-.317-.21-.39-.133-.06-.344-.1-.63-.124-.288-.023-.59-.042-.91-.057h-1.588l-2.657 5.362h.783l.403.022h1.218c.44-.015.867-.04 1.28-.078.413-.04.757-.095 1.033-.17.14-.044.3-.167.473-.37.175-.2.34-.41.495-.635.15-.21.28-.402.39-.58l.22-.38h.76c-.26.46-.513.908-.764 1.34-.25.432-.488.857-.71 1.274l-.172.324-.17.324-.41.01-.42.035-.406.01-.407.012-.842.033-.81.01-.978-.01-.978-.01-.977-.012-.977-.01H95.58c-.4-.002-.802.012-1.204.042zm11.462 0l.376-.76h.112c.52-.03.888-.1 1.1-.212.21-.112.465-.465.76-1.06l2.18-4.403.023-.045.025-.045.017-.033.007-.01.015-.08.028-.055c.22-.447.29-.726.204-.838-.086-.112-.33-.167-.733-.167h-.29l.365-.737c.32-.045.643-.097.97-.156.327-.06.666-.127 1.016-.2.336-.075.674-.157 1.017-.247l1.026-.268.123.156-.753 1.52 2.57-1.455c.18-.06.372-.104.58-.134.208-.03.41-.047.603-.047l.307.01.296.034c.21.03.402.073.582.133.18.06.32.135.425.225.277.253.377.6.3 1.04-.075.438-.213.89-.412 1.35l-.086.18-.09.18-.082.166-.07.147-.128.257-.115.235-.217.39-.183.37-1.218 2.457c-.31.626-.436.998-.376 1.117s.373.194.94.223h.066l-.377.76-.313-.022h-.324c-.216-.015-.432-.022-.648-.022h-1.587c-.32 0-.65.015-.992.045.08-.165.17-.325.26-.48l.26-.48.063-.08.038-.077.306-.546.293-.57 1.527-3.083c.28-.565.45-1.08.507-1.54.06-.46-.26-.7-.95-.715H115c-.343 0-.71.1-1.1.302-.39.2-.75.466-1.074.793l-2.28 4.603-.023.022-.033.045-.034.046-.022.022c-.23.462-.265.737-.108.827.157.09.43.134.816.134l.145.02h.18l-.377.76-.698-.035-.71-.01h-2.636l-.598.01-.608.03zm8.937 5.005l.132-.626c1.08-.045 1.902-.372 2.473-.983s1.074-1.356 1.51-2.234l3.72-7.507c.31-.626.447-1.013.41-1.162-.04-.146-.345-.243-.918-.29l-.128-.01-.13-.01.343-.693c.686-.06 1.376-.16 2.07-.302.698-.14 1.4-.31 2.106-.503l.168.157-.288.56-.277.534-.145.27-.144.267-.132.268-.134.268-2.59 5.228c-.156.314-.326.64-.51.984-.185.343-.373.678-.565 1.006-.503.834-1.11 1.642-1.827 2.424-.715.782-1.567 1.404-2.556 1.866-.248.108-.5.2-.754.28-.255.077-.502.133-.74.163l-.32.037-.285.01h-.494v.003zm10.65-17.25c.228-.46.54-.807.94-1.038.396-.23.763-.354 1.098-.37h.134c.32.016.562.14.73.37.17.23.14.577-.09 1.04-.23.46-.543.807-.94 1.038-.397.23-.763.354-1.1.37h-.066c-.358 0-.622-.12-.795-.36-.17-.237-.144-.587.085-1.05zm.446 7.71c.812-1.64 1.83-2.846 3.056-3.62 1.223-.776 2.55-1.163 3.98-1.163l.374.01.408.035.19.022.19.022c1.177.116 1.8.604 1.867 1.46.067.857-.187 1.867-.763 3.028-.805 1.623-1.82 2.852-3.045 3.686-1.225.834-2.672 1.25-4.34 1.25-1.49 0-2.385-.394-2.686-1.183-.302-.79-.105-1.883.59-3.284l.038-.057.05-.078.005-.01.016-.035.044-.045.024-.043zm6.104.85l.122-.247.163-.29.127-.257.128-.26.038-.078.04-.078.21-.447.187-.448c.25-.597.397-1.148.44-1.654.042-.507-.16-.805-.607-.895l-.106-.01-.13-.01h-.334c-.61 0-1.166.24-1.667.725-.5.483-.93 1.016-1.295 1.596-.104.15-.198.303-.283.46l-.238.457-.1.18-.11.2-.112.2-.122.224-.265.56c-.088.194-.166.387-.232.58-.228.58-.35 1.118-.362 1.61-.01.49.22.78.698.87l.117.01.095.013.083.033.095.012c.58 0 1.12-.23 1.616-.694.497-.463.927-.97 1.29-1.52.095-.134.188-.276.276-.425l.235-.423zm1.38 6.41h.246c.053.195.17.35.348.47.18.12.398.18.65.18h.2l.115-.023h.1c.484-.074.943-.287 1.377-.637.435-.35.84-.726 1.22-1.128l.36-.39.35-.37.072-.078.073-.078.68-7.734.034-.246.02-.223c.02-.253-.014-.436-.11-.547-.093-.11-.325-.18-.7-.21l.367-.738.352.01.35.012.35.01.354.012.888-.01.9-.035.9-.01.877-.01-.378.76c-.374 0-.68.038-.917.11-.238.077-.41.22-.512.427l-.06.19-.026.212-.022.11-.02.11-.54 4.74 3.97-4.447.467-.56c.132-.163.22-.29.265-.38.103-.208.078-.345-.074-.412-.153-.066-.446-.1-.88-.1l.38-.76.306.01.306.01.576.036.586.01.452-.01.475-.01.15-.012.152-.01.32-.012L149 36l-.378.76c-.506.12-.93.314-1.27.58-.342.27-.676.583-1.002.94l-.306.346-.328.346-6.282 6.77c-.148.15-.298.31-.45.48-.152.172-.313.34-.484.504-.808.85-1.67 1.624-2.582 2.324-.913.7-1.787 1.05-2.62 1.05-.24 0-.474-.037-.705-.112-.23-.075-.46-.186-.683-.335.156-.163.295-.323.417-.48l.36-.457.35-.48.33-.48-.01.02zm20.588-2.725l.41-.827c.79-.03 1.295-.11 1.518-.243.223-.134.47-.477.744-1.028l4.563-9.207c.28-.565.383-.93.308-1.094-.075-.165-.5-.247-1.275-.247l.377-.76.464.034.475.01.695.034.687.01.922-.01.955-.032.944-.034.91-.01-.377.76c-.775 0-1.29.093-1.546.28-.255.185-.557.628-.904 1.328l-.044.09-.022.09-.042.09-.044.087-3.93 7.93-.045.09-.046.088-.033.067-.02.046-.09.135-.054.112c-.303.61-.407.994-.314 1.15.095.157.522.236 1.28.236l-.41.83-.732-.034-.765-.01H155.5c-.498 0-1.015.013-1.55.043zm10.658 0l.41-.827c.84-.042 1.368-.135 1.58-.276.21-.14.48-.54.805-1.195l.11-.225.112-.223 4.186-8.445.127-.257.105-.257.105-.234.094-.258h-1.128c-.174 0-.35.006-.54.02-.327 0-.653.02-.976.057-.324.036-.582.085-.776.144-.127.046-.263.16-.407.347-.144.186-.28.39-.404.614l-.223.38-.177.336-.033.066-.033.067h-.804l.42-.85.283-.59.293-.615.083-.19.093-.212.187-.402.178-.38c.58 0 1.156.005 1.726.012.57.007 1.14.02 1.716.034.572.015 1.148.026 1.725.033.578.006 1.157.01 1.738.01l1.032-.01 1.033-.012.28-.02h.267c.44-.015.873-.026 1.3-.034.43-.007.852-.01 1.27-.01l-.478.803-.455.803-.44.815-.414.815h-.805l.03-.056.04-.078h-.024l.04-.08.027-.055.123-.246.1-.2.1-.203c.095-.223.165-.425.21-.603.043-.178.01-.29-.103-.334-.134-.06-.35-.1-.643-.124-.295-.022-.603-.04-.923-.056H175.1l-.14.257-.127.235-.138.256-.138.257-4.186 8.446-.04.09-.045.09-.033.066-.02.045-.09.134-.055.112c-.318.64-.418 1.024-.302 1.15.116.127.554.206 1.314.236l-.41.83-.744-.035-.754-.01h-3.04c-.512 0-1.025.014-1.547.044z"/></g></svg>