<svg xmlns="http://www.w3.org/2000/svg" width="200" height="50.098" viewBox="0 0 200 50.098"><g fill-rule="evenodd" clip-rule="evenodd"><path fill="#fff" stroke="#000" stroke-width=".216" stroke-miterlimit="2.613" d="M113.722.414h85.29v26.133h-85.29V.414z"/><path fill="#034EA2" d="M8.547 7.83v10.757h4.25c2.215 0 3.804-.423 4.76-1.262C18.52 16.485 19 15.11 19 13.2c0-1.898-.485-3.267-1.457-4.107-.967-.84-2.55-1.262-4.744-1.262H8.54zM0 2.357h14.137c4.576 0 8.058.942 10.456 2.825 2.398 1.883 3.594 4.632 3.594 8.242 0 3.6-1.19 6.338-3.58 8.21-2.386 1.874-5.873 2.81-10.47 2.81H0V2.358zM41.386 16.84h5.472l-2.652-7.758-2.82 7.758zm-11.963 7.605l9.56-22.058h10.843l8.92 22.058h-9.26l-.734-2.164H39.37l-.79 2.17h-9.157zm36.723 0V7.982H58.17V2.388H82.7v5.594h-8.006v16.463h-8.548zm27.36-7.605h5.473l-2.66-7.758-2.82 7.758zm-11.962 7.605l9.56-22.058h10.843l8.92 22.058h-9.26l-.734-2.164H91.49l-.788 2.17h-9.158zM113.076 0H200v27.183h-86.924V0z"/><path fill="#fff" d="M127.173 16.84h5.472l-2.652-7.758-2.82 7.758zm-11.963 7.605l9.56-22.058h10.843l8.92 22.058h-9.26l-.734-2.164h-9.39l-.79 2.17H115.2zm47.377-22.057c1.92 0 3.457.092 4.612.275 1.15.183 2.05.468 2.69.86.824.484 1.455 1.14 1.89 1.96.43.82.644 1.766.644 2.84 0 1.304-.32 2.45-.967 3.437-.647.993-1.537 1.705-2.673 2.143.974.407 1.66.91 2.054 1.512.392.6.62 1.664.692 3.187l.03.697c.138 2.88.525 4.48 1.167 4.8v.34h-9.5c-.29-.47-.446-1.37-.477-2.71-.02-.788-.056-1.39-.107-1.82-.092-.81-.362-1.375-.815-1.7-.446-.33-1.204-.495-2.27-.495h-5.1v6.725h-8.663V2.386h16.79zm-8.125 9.53h4.98c1.302 0 2.224-.154 2.753-.464.534-.305.8-.825.8-1.548 0-.718-.25-1.217-.754-1.502-.5-.28-1.5-.423-3-.423h-4.77v3.94zm26.933 12.527V7.982h-7.977V2.388h24.532v5.594h-8.007v16.463h-8.548z"/><path fill="#034EA2" d="M94.378 45.048l.232-.47c.216-.073.422-.16.62-.256l.606-.324.21-.357.2-.38.2-.35.177-.356 4.252-8.58c.325-.655.453-1.065.386-1.23-.06-.163-.47-.26-1.21-.29l.4-.803c.4 0 .805.004 1.21.01.407.008.818.01 1.235.01.417 0 .83.005 1.235.01.405.01.81.01 1.21.01.4 0 .814-.002 1.234-.01.42-.01.84-.01 1.257-.01.404 0 .816-.004 1.237-.01.42-.01.835-.012 1.237-.012l.112.268-.256.448-.256.45-.5.894-.5.894h-.715c.124-.25.232-.51.324-.77s.177-.524.25-.792c-.224-.09-.492-.157-.805-.202-.316-.044-.64-.073-.975-.09h-2.59l-.14.26-.16.256-.137.258-.13.235-.29.514-.264.513-1.383 2.792h.58l.338.022h.79c.306-.015.6-.037.88-.067.285-.03.52-.066.705-.11.26-.075.468-.2.624-.38.154-.18.29-.366.4-.56l.076-.133.078-.133.034-.067.02-.045.05-.1.05-.1h.737c-.154.284-.304.57-.45.86-.142.29-.29.578-.447.86l-.643 1.297-.653 1.315h-.69l.017-.035.017-.033.107-.234.106-.235c.08-.222.13-.427.15-.613.016-.185-.054-.316-.21-.39-.134-.06-.345-.1-.63-.123-.29-.023-.59-.042-.91-.057h-1.59l-2.656 5.362h.784l.404.022h1.22c.44-.017.866-.04 1.28-.08.412-.04.756-.096 1.032-.17.14-.045.3-.168.47-.37.177-.2.34-.41.497-.636.15-.21.28-.4.39-.58l.22-.38h.76c-.26.46-.512.91-.763 1.34-.25.433-.487.858-.71 1.275l-.17.322-.17.323-.41.01-.42.035-.407.01-.407.014-.84.033-.81.01-.978-.01-.978-.01-.977-.012-.976-.01h-1.23c-.4 0-.8.013-1.203.043zm11.462 0l.376-.76h.112c.52-.03.888-.1 1.1-.212.21-.112.465-.465.76-1.06l2.18-4.403.023-.045.03-.045.018-.033.007-.01.016-.08.028-.055c.22-.447.29-.726.204-.838-.084-.112-.33-.167-.73-.167h-.29l.364-.737c.32-.045.642-.097.97-.156.326-.06.665-.127 1.015-.2.336-.075.674-.157 1.017-.247l1.026-.268.124.156-.75 1.52 2.57-1.455c.18-.06.37-.104.58-.134.207-.03.41-.05.602-.05l.307.01.296.03c.21.03.4.074.58.134.18.06.32.134.426.224.277.253.377.6.3 1.04-.075.44-.213.89-.41 1.35l-.088.18-.09.18-.083.166-.07.147-.128.258-.116.237-.217.39-.183.37-1.218 2.456c-.31.627-.437 1-.377 1.118s.374.193.94.222h.067l-.377.76-.314-.022h-.325c-.215-.014-.43-.02-.647-.02h-1.587c-.32 0-.65.014-.99.044.08-.165.17-.325.26-.48l.26-.48.06-.08.04-.077.306-.546.293-.57 1.525-3.08c.28-.564.45-1.08.508-1.54.06-.46-.26-.7-.95-.714H115c-.343 0-.71.1-1.1.302-.39.2-.75.465-1.074.792l-2.28 4.604-.023.022-.033.045-.034.05-.022.022c-.23.46-.265.734-.108.824.157.09.43.134.816.134l.145.02h.18l-.377.76-.698-.035-.71-.01h-2.636l-.598.01-.608.03zm8.937 5.005l.132-.626c1.08-.045 1.9-.372 2.47-.983s1.07-1.356 1.51-2.234l3.72-7.507c.31-.626.444-1.013.41-1.162-.04-.14-.348-.24-.92-.29l-.13-.01-.13-.01.344-.69c.685-.06 1.375-.16 2.07-.3.697-.14 1.4-.31 2.105-.502l.17.157-.29.56-.276.535-.145.27-.143.266-.133.27-.134.267-2.59 5.228c-.153.316-.323.64-.51.986-.182.343-.37.678-.562 1.006-.503.835-1.11 1.643-1.827 2.425-.713.78-1.565 1.403-2.554 1.865-.248.107-.5.2-.754.28-.254.076-.5.132-.74.162l-.32.037-.284.01h-.494zm10.65-17.25c.228-.46.54-.807.94-1.038.396-.23.763-.354 1.098-.37h.134c.32.016.56.14.73.37.17.23.14.577-.09 1.04-.23.46-.55.807-.94 1.038-.4.23-.77.354-1.1.37h-.07c-.36 0-.62-.12-.797-.36-.17-.237-.144-.587.085-1.05zm.446 7.71c.812-1.64 1.83-2.846 3.056-3.62 1.22-.776 2.55-1.163 3.98-1.163l.37.01.41.035.19.022.19.022c1.174.11 1.8.6 1.864 1.46.067.85-.187 1.86-.763 3.022-.804 1.623-1.82 2.852-3.044 3.686-1.226.834-2.673 1.25-4.34 1.25-1.49 0-2.386-.394-2.687-1.183-.3-.79-.105-1.884.59-3.285l.04-.057.05-.08.004-.01.016-.034.046-.045.024-.043zm6.104.85l.122-.247.16-.29.124-.257.127-.26.04-.08.04-.08.21-.45.187-.447c.25-.597.396-1.148.44-1.654.04-.507-.16-.805-.608-.895l-.107-.01-.13-.01h-.335c-.61 0-1.167.24-1.668.724-.5.483-.93 1.016-1.295 1.596-.105.15-.2.303-.284.46l-.237.457-.1.18-.11.2-.113.2-.122.224-.264.56c-.088.194-.166.387-.232.58-.227.58-.35 1.12-.36 1.61-.01.49.22.78.697.87l.12.01.093.013.082.036.094.012c.58 0 1.12-.23 1.615-.695.497-.462.927-.97 1.29-1.52.095-.133.188-.275.276-.424l.235-.425zm1.38 6.41h.246c.053.195.17.35.348.47.18.12.4.18.65.18h.2l.12-.023h.1c.485-.074.944-.287 1.378-.637.435-.35.84-.726 1.22-1.128l.36-.39.35-.37.072-.078.072-.078.68-7.74.034-.246.02-.224c.02-.252-.014-.435-.11-.546-.093-.11-.325-.18-.7-.21l.367-.74.35.01.35.013.35.01.356.01.886-.01.9-.034.9-.01.877-.01-.377.76c-.374 0-.68.038-.917.11-.24.077-.41.22-.513.427l-.06.19-.026.213-.02.11-.02.11-.54 4.74 3.97-4.448.466-.56c.132-.163.22-.29.265-.38.104-.208.08-.345-.073-.412-.153-.066-.446-.1-.88-.1l.38-.76.306.01.303.01.576.036.585.01.452-.01.472-.01.15-.01.153-.01.32-.016L149 36l-.378.76c-.506.12-.93.314-1.27.58-.342.27-.676.583-1.002.94l-.306.346-.328.346-6.282 6.77c-.148.15-.298.31-.45.48-.152.172-.313.34-.484.504-.808.85-1.67 1.624-2.582 2.324-.913.7-1.787 1.05-2.62 1.05-.24 0-.474-.037-.705-.112-.23-.075-.46-.186-.683-.335.156-.163.295-.323.417-.48l.36-.457.35-.48.33-.48-.01.02zm20.588-2.725l.41-.827c.79-.03 1.295-.11 1.518-.24.223-.13.47-.474.744-1.03l4.563-9.202c.28-.565.383-.93.308-1.094-.075-.165-.5-.247-1.275-.247l.377-.76.464.034.475.01.69.034.686.01.922-.01.954-.03.944-.035.91-.01-.377.76c-.775 0-1.29.092-1.546.28-.257.184-.56.627-.906 1.327l-.044.09-.02.09-.043.09-.043.087-3.93 7.93-.045.09-.046.086-.034.065-.02.046-.09.135-.056.112c-.3.61-.405.994-.312 1.15.096.157.523.236 1.28.236l-.41.83-.73-.033-.766-.01h-3c-.498 0-1.015.01-1.55.04zm10.658 0l.41-.827c.84-.04 1.368-.13 1.58-.27.21-.14.48-.54.805-1.195l.11-.224.112-.223 4.186-8.445.127-.255.105-.256.105-.234.094-.26h-1.128c-.18 0-.35.007-.54.02-.33 0-.66.02-.98.058-.326.037-.58.086-.778.145-.127.045-.263.16-.407.346-.145.184-.28.39-.405.612l-.222.38-.178.336-.033.065-.034.066h-.805l.42-.85.284-.59.292-.615.083-.19.092-.212.185-.402.177-.38c.58 0 1.157.006 1.727.013.57.006 1.14.02 1.714.033.57.014 1.147.025 1.724.032.577.005 1.156.01 1.737.01l1.032-.01 1.032-.013.28-.02h.266c.44-.014.872-.025 1.3-.033.43-.008.85-.01 1.27-.01l-.48.802-.455.8-.44.816-.412.815h-.805l.03-.054.04-.08h-.024l.04-.08.027-.054.125-.246.1-.2.1-.203c.095-.222.165-.424.21-.602.043-.176.01-.29-.103-.332-.135-.06-.35-.1-.644-.124-.296-.02-.604-.04-.924-.056h-1.64l-.14.257-.126.237-.138.255-.138.258-4.186 8.447-.04.09-.042.09-.033.066-.02.044-.09.133-.056.113c-.32.64-.42 1.023-.303 1.15.116.126.554.205 1.314.235l-.41.83-.742-.035-.753-.01h-3.04c-.513 0-1.026.014-1.548.044z"/></g></svg>