<svg xmlns="http://www.w3.org/2000/svg" width="200" height="50.098" viewBox="0 0 200 50.098"><g fill-rule="evenodd" clip-rule="evenodd"><path fill="#fff" stroke="#000" stroke-width=".216" stroke-miterlimit="2.613" d="M113.722.414h85.289v26.133h-85.289v-26.133z"/><path fill="#034EA2" d="M8.547 7.83v10.757h4.251c2.214 0 3.803-.423 4.76-1.262.962-.84 1.441-2.215 1.441-4.124 0-1.899-.484-3.268-1.456-4.108-.967-.84-2.55-1.262-4.744-1.262h-4.252v-.001zm-8.547-5.473h14.137c4.576 0 8.058.942 10.456 2.825 2.398 1.883 3.594 4.632 3.594 8.242 0 3.599-1.191 6.338-3.579 8.211-2.387 1.873-5.874 2.81-10.471 2.81h-14.137v-22.088zm41.386 14.483h5.472l-2.652-7.758-2.82 7.758zm-11.963 7.605l9.56-22.058h10.843l8.919 22.058h-9.26l-.733-2.164h-9.382l-.789 2.164h-9.158zm36.723 0v-16.463h-7.977v-5.594h24.532v5.594h-8.007v16.463h-8.548zm27.361-7.605h5.472l-2.652-7.758-2.82 7.758zm-11.963 7.605l9.56-22.058h10.843l8.919 22.058h-9.26l-.733-2.164h-9.382l-.789 2.164h-9.158zm31.532-24.445h86.924v27.183h-86.924v-27.183z"/><path fill="#fff" d="M127.173 16.84h5.472l-2.652-7.758-2.82 7.758zm-11.963 7.605l9.56-22.058h10.843l8.919 22.058h-9.26l-.733-2.164h-9.382l-.789 2.164h-9.158zm47.377-22.057c1.919 0 3.457.092 4.612.275 1.15.183 2.052.468 2.698.86.825.484 1.456 1.14 1.889 1.96.433.819.646 1.766.646 2.841 0 1.303-.32 2.448-.967 3.436-.647.993-1.537 1.705-2.673 2.143.972.407 1.659.911 2.052 1.512.392.601.621 1.664.692 3.187l.031.697c.137 2.886.524 4.485 1.166 4.806v.341h-9.499c-.29-.468-.448-1.369-.479-2.713-.02-.784-.056-1.39-.107-1.817-.092-.81-.362-1.374-.815-1.7-.448-.331-1.206-.494-2.27-.494h-5.101v6.725h-8.664v-22.059h16.789zm-8.125 9.529h4.979c1.303 0 2.225-.153 2.754-.463.534-.305.799-.825.799-1.548 0-.718-.249-1.217-.753-1.502-.504-.28-1.507-.423-3.008-.423h-4.77v3.936h-.001zm26.933 12.528v-16.463h-7.977v-5.594h24.532v5.594h-8.007v16.463h-8.548z"/><path fill="#034EA2" d="M94.378 45.048l.232-.469c.216-.074.422-.16.619-.257l.607-.324.211-.357.199-.38.2-.358.177-.357 4.252-8.58c.325-.655.453-1.065.386-1.229-.068-.164-.474-.261-1.219-.29l.399-.804c.402 0 .806.004 1.212.011.406.007.817.011 1.234.011.417 0 .829.004 1.235.011.406.007.81.011 1.212.011.402 0 .814-.004 1.234-.011.421-.008.84-.011 1.257-.011.402 0 .814-.004 1.235-.011.421-.007.832-.011 1.234-.011l.113.268-.255.447-.255.447-.499.894-.499.894h-.715c.126-.253.234-.51.326-.771s.175-.525.248-.793c-.224-.089-.492-.156-.805-.201-.313-.045-.637-.074-.972-.089h-2.592l-.138.257-.161.257-.138.257-.127.235-.288.514-.266.514-1.384 2.793h.581l.335.022h.792c.305-.015.599-.037.882-.067.283-.03.517-.067.703-.112.26-.074.468-.201.624-.38.156-.179.289-.365.4-.558l.078-.134.078-.134.033-.067.022-.045.05-.1.05-.101h.737c-.155.283-.305.57-.449.86-.144.291-.293.577-.449.86l-.642 1.296-.653 1.318h-.693l.017-.034.017-.033.105-.235.105-.235c.081-.223.13-.428.148-.614.018-.186-.052-.317-.208-.391-.134-.06-.345-.1-.632-.123-.287-.022-.59-.041-.911-.056h-1.586l-2.658 5.362h.783l.402.022h1.218c.439-.015.866-.041 1.279-.078.413-.037.757-.093 1.033-.167.141-.045.299-.168.473-.369.174-.201.339-.413.494-.637.148-.209.278-.402.388-.581l.222-.38h.76c-.259.462-.514.909-.765 1.341-.251.432-.488.857-.71 1.274l-.172.324-.172.324-.408.011-.419.034-.408.011-.408.011-.843.033-.81.011-.978-.011-.978-.011-.977-.011-.978-.011h-1.207c-.4-.001-.802.013-1.204.043zm11.462 0l.376-.76h.112c.521-.03.888-.1 1.1-.212.211-.112.465-.465.76-1.061l2.181-4.402.022-.045.022-.045.017-.033.006-.011.016-.078.028-.056c.221-.447.289-.726.203-.838-.086-.112-.33-.167-.733-.167h-.291l.365-.737c.32-.045.644-.097.971-.156.327-.06.666-.127 1.016-.201.335-.074.673-.156 1.016-.246l1.027-.268.124.156-.753 1.519 2.575-1.453c.179-.06.372-.104.58-.134.208-.03.409-.045.603-.045l.307.011.296.033c.209.03.402.074.582.134.179.06.321.134.425.224.277.253.377.599.301 1.039-.076.439-.214.89-.413 1.352l-.089.179-.089.179-.083.167-.072.145-.127.257-.116.235-.216.391-.183.369-1.218 2.458c-.31.626-.435.998-.375 1.117s.373.194.939.223h.067l-.376.76-.313-.022h-.324c-.216-.015-.432-.022-.648-.022h-1.587c-.32 0-.651.015-.994.045.081-.164.168-.324.261-.48l.26-.48.061-.078.039-.078.305-.547.293-.57 1.528-3.083c.281-.566.45-1.08.507-1.542.058-.462-.26-.7-.953-.715h-.179c-.343 0-.709.1-1.099.302-.39.201-.749.466-1.075.793l-2.281 4.603-.022.022-.033.045-.033.045-.022.022c-.229.462-.265.737-.108.827.157.089.429.134.816.134l.145.022h.179l-.376.76-.698-.034-.71-.011h-2.636l-.598.011-.608.031zm8.937 5.005l.132-.626c1.08-.045 1.905-.372 2.476-.983s1.074-1.356 1.51-2.234l3.721-7.507c.31-.626.446-1.013.408-1.162-.038-.149-.344-.246-.917-.291l-.128-.011-.129-.011.343-.693c.685-.06 1.375-.16 2.071-.302.696-.141 1.397-.309 2.104-.503l.168.156-.288.559-.277.536-.144.268-.144.268-.133.268-.133.268-2.591 5.228c-.155.313-.325.64-.509.983-.185.343-.373.678-.565 1.006-.503.834-1.112 1.642-1.827 2.424-.715.782-1.567 1.404-2.556 1.866-.247.108-.498.201-.753.279-.255.078-.502.134-.74.164l-.32.037-.285.011h-.494v.002zm10.649-17.249c.229-.462.542-.808.94-1.039.397-.231.764-.354 1.099-.369h.134c.32.015.565.138.733.369.169.231.138.577-.091 1.039-.229.462-.542.808-.939 1.039-.397.231-.763.354-1.099.369h-.067c-.358 0-.622-.119-.795-.358-.172-.238-.144-.588.085-1.05zm.447 7.708c.812-1.638 1.831-2.845 3.056-3.62 1.226-.775 2.553-1.162 3.983-1.162l.374.011.408.034.19.022.19.022c1.177.119 1.799.607 1.867 1.464.067.856-.187 1.866-.763 3.027-.805 1.624-1.82 2.853-3.045 3.687-1.225.834-2.672 1.251-4.34 1.251-1.489 0-2.385-.395-2.686-1.184-.302-.789-.105-1.884.589-3.285l.039-.056.05-.078.005-.011.017-.034.044-.045.022-.043zm6.104.85l.122-.246.166-.29.127-.257.127-.257.039-.078.039-.078.21-.447.188-.447c.25-.596.397-1.147.44-1.653.042-.506-.16-.804-.607-.894l-.106-.011-.129-.011h-.335c-.611 0-1.166.242-1.667.726-.501.484-.932 1.017-1.294 1.597-.104.149-.198.302-.283.458l-.238.458-.1.179-.111.201-.111.201-.122.223-.266.559c-.088.194-.166.387-.232.581-.228.581-.349 1.117-.362 1.609-.013.492.22.782.696.871l.117.011.095.011.084.033.095.011c.581 0 1.12-.231 1.617-.693.497-.462.927-.968 1.289-1.519.096-.134.189-.276.277-.425l.235-.423zm1.38 6.412h.246c.053.194.169.35.348.469.179.119.395.179.649.179h.201l.112-.022h.1c.484-.074.943-.287 1.377-.637.434-.35.84-.726 1.218-1.128l.361-.391.35-.369.072-.078.072-.078.681-7.731.033-.246.021-.224c.021-.253-.015-.436-.109-.547-.094-.112-.326-.182-.699-.212l.365-.737.352.011.352.011.352.011.352.011.888-.011.899-.034.899-.011.877-.011-.377.76c-.373 0-.678.037-.916.112-.238.074-.409.216-.512.424l-.061.19-.027.212-.022.112-.022.112-.538 4.737 3.969-4.446.467-.559c.133-.164.222-.291.266-.38.103-.209.078-.346-.074-.413-.153-.067-.446-.101-.878-.101l.377-.76.307.011.307.011.576.034.587.011.452-.011.475-.011.151-.011.151-.011.319-.011.296-.011-.377.76c-.506.119-.93.313-1.271.581-.341.268-.675.581-1.001.938l-.306.346-.328.346-6.282 6.77c-.148.149-.298.309-.45.48-.152.171-.313.339-.484.503-.808.849-1.669 1.624-2.582 2.324-.913.7-1.787 1.05-2.621 1.05-.238 0-.473-.037-.704-.112-.231-.075-.459-.186-.683-.335.156-.164.295-.324.417-.48l.361-.458.35-.48.328-.48-.009.021zm20.588-2.726l.41-.827c.789-.03 1.295-.112 1.518-.246.223-.134.471-.477.744-1.028l4.563-9.206c.28-.566.383-.931.308-1.095-.075-.164-.5-.246-1.275-.246l.377-.76.464.034.475.011.698.033.687.011.922-.011.955-.033.944-.034.91-.011-.377.76c-.775 0-1.29.093-1.546.279-.256.186-.558.629-.905 1.329l-.044.089-.022.089-.044.089-.044.089-3.931 7.932-.044.089-.044.089-.033.067-.022.045-.089.134-.055.112c-.303.611-.407.994-.314 1.151.094.156.521.235 1.28.235l-.411.83-.732-.034-.766-.011h-3.006c-.497.001-1.014.015-1.551.045zm10.658 0l.41-.827c.841-.045 1.368-.138 1.58-.279.211-.141.48-.54.805-1.195l.111-.224.111-.223 4.186-8.446.127-.257.105-.257.105-.235.094-.257h-1.128c-.171 0-.35.007-.536.022-.328 0-.654.019-.977.056-.324.037-.582.086-.776.145-.126.045-.262.16-.406.346-.145.186-.279.391-.405.614l-.222.38-.177.335-.033.067-.033.067h-.804l.421-.849.282-.592.293-.614.083-.19.094-.212.188-.402.177-.38c.581 0 1.156.004 1.726.011.57.007 1.141.019 1.715.034.573.015 1.149.026 1.726.033.577.007 1.156.011 1.737.011l1.033-.011 1.033-.011.279-.022h.268c.439-.015.873-.026 1.301-.034.428-.007.851-.011 1.268-.011l-.477.804-.455.804-.438.816-.415.815h-.804l.028-.056.039-.078h-.022l.039-.078.028-.056.122-.246.1-.201.1-.201c.096-.223.166-.425.21-.603.044-.179.01-.291-.102-.335-.134-.06-.349-.101-.643-.123-.294-.022-.602-.041-.922-.056h-1.653l-.139.257-.127.235-.138.257-.138.257-4.186 8.446-.044.089-.044.089-.033.067-.022.045-.089.134-.055.112c-.318.641-.418 1.024-.302 1.151.116.126.554.205 1.314.235l-.41.827-.743-.034-.754-.011h-3.039c-.512.001-1.025.015-1.547.045z"/></g></svg>