<svg xmlns="http://www.w3.org/2000/svg" width="200" height="53.852" viewBox="0 0 200 53.852"><path d="M14.527 3.455h6.74v31.19c-3.458.657-5.996.92-8.752.92C4.288 35.565 0 31.845 0 24.713c0-6.87 4.55-11.333 11.596-11.333 1.094 0 1.925.088 2.932.35V3.455zm0 15.7c-.788-.262-1.444-.35-2.275-.35-3.413 0-5.382 2.1-5.382 5.776 0 3.59 1.882 5.56 5.34 5.56.743 0 1.355-.042 2.318-.172v-10.81zm17.46-5.294v15.626c0 5.382-.395 7.963-1.576 10.195-1.09 2.144-2.534 3.5-5.51 4.988l-6.26-2.977c2.977-1.4 4.42-2.623 5.34-4.506.962-1.925 1.27-4.157 1.27-10.02V13.86h6.737zm-6.74-10.37h6.738v6.918h-6.738V3.49zm10.81 11.906c2.975-1.4 5.82-2.013 8.926-2.013 3.457 0 5.732.92 6.74 2.714.568 1.006.743 2.32.743 5.12V34.91c-3.02.437-6.826.743-9.626.743-5.645 0-8.183-1.97-8.183-6.345 0-4.727 3.37-6.914 11.64-7.615v-1.488c0-1.225-.613-1.662-2.32-1.662-2.493 0-5.294.7-7.92 2.056v-5.21zM46.6 26.116c-4.463.435-5.907 1.135-5.907 2.885 0 1.317.832 1.93 2.67 1.93 1.006 0 1.924-.09 3.237-.307v-4.506zm9.145-11.2c3.982-1.055 7.263-1.536 10.59-1.536 3.456 0 5.95.787 7.438 2.32 1.4 1.442 1.837 3.017 1.837 6.388v13.215h-6.738V22.35c0-2.58-.875-3.545-3.282-3.545-.92 0-1.75.088-3.107.482v16.015h-6.738v-20.39zm22.485 24.06c2.363 1.225 4.726 1.794 7.22 1.794 4.42 0 6.3-1.793 6.3-6.08v-.133c-1.312.657-2.625.92-4.374.92-5.907 0-9.67-3.896-9.67-10.065 0-7.658 5.557-11.99 15.402-11.99 2.888 0 5.558.307 8.796.963l-2.307 4.86c-1.795-.35-.145-.046-1.5-.177v.7l.087 2.842.043 3.676.088 2.755v1.84c0 5.777-.48 8.49-1.925 10.72-2.1 3.283-5.732 4.9-10.896 4.9-2.626 0-4.9-.392-7.264-1.31v-6.21zm13.39-20.13h-.7c-1.312-.043-2.844.307-3.894.963-1.62.92-2.45 2.583-2.45 4.946 0 3.37 1.662 5.295 4.637 5.295.92 0 1.663-.173 2.538-.436v-2.32c0-.787-.04-1.662-.04-2.58l-.043-3.108-.044-2.23v-.526zm20.744-5.555c6.738 0 10.852 4.246 10.852 11.115 0 7.045-4.288 11.464-11.114 11.464-6.74 0-10.896-4.243-10.896-11.07 0-7.09 4.288-11.507 11.158-11.507zm-.132 17.153c2.582 0 4.114-2.144 4.114-5.864 0-3.674-1.488-5.86-4.07-5.86-2.67 0-4.2 2.143-4.2 5.86 0 3.72 1.53 5.866 4.156 5.866zm26.31 23.37c-.733.082-1.464.028-2.196-.162-.732-.19-1.382-.466-1.95-.832-.57-.367-1.017-.814-1.342-1.34s-.434-1.093-.325-1.69c.54 0 1.02.11 1.44.326.42.217.84.46 1.26.732.42.27.86.513 1.32.73.46.217 1.018.325 1.668.325 1.57 0 2.892-.34 3.963-1.015 1.07-.68 1.93-1.573 2.58-2.684.65-1.11 1.12-2.363 1.404-3.76.285-1.395.427-2.824.427-4.287 0-.38-.02-.977-.06-1.79l-.142-2.743c-.053-1.016-.113-2.086-.18-3.21-.07-1.125-.137-2.196-.204-3.212-.068-1.016-.136-1.93-.203-2.744-.067-.813-.13-1.41-.182-1.788-.218.543-.49 1.206-.814 1.992-.325.786-.698 1.612-1.118 2.48-.42.866-.894 1.726-1.423 2.58-.528.854-1.118 1.62-1.768 2.297-.65.68-1.362 1.227-2.134 1.647-.77.42-1.59.63-2.46.63-.46 0-.82-.23-1.075-.69-.258-.46-.454-.99-.59-1.586-.135-.595-.223-1.184-.263-1.767-.04-.58-.06-.996-.06-1.24-.137-1.734-.137-3.448 0-5.14.134-1.694.412-3.28.832-4.757.42-1.477.976-2.798 1.666-3.963s1.538-2.08 2.54-2.743c1.002-.665 2.147-1.044 3.435-1.14 1.287-.094 2.73.198 4.33.875.432-.054.724.19.873.732.15.543.217 1.206.203 1.992-.013.785-.06 1.61-.14 2.478-.08.868-.134 1.6-.16 2.195 0 1.41.053 2.82.162 4.225.11 1.41.238 2.812.387 4.207.15 1.396.276 2.79.384 4.187.108 1.395.163 2.8.163 4.207 0 1.627-.163 3.34-.488 5.143-.326 1.804-.89 3.47-1.688 5-.8 1.53-1.855 2.8-3.17 3.8-1.314 1-2.946 1.505-4.897 1.505zm-2.48-23.777c0 .27.006.603.02.996.013.393.067.772.163 1.138.095.367.244.68.447.936.203.258.494.386.874.386.758 0 1.463-.345 2.114-1.036.65-.69 1.253-1.57 1.81-2.642.554-1.07 1.056-2.256 1.503-3.557s.826-2.574 1.138-3.82c.31-1.247.55-2.38.71-3.395.167-1.016.248-1.768.248-2.256-1.653-.596-3.062-.582-4.227.04-1.164.625-2.106 1.607-2.824 2.948s-1.24 2.927-1.565 4.756-.46 3.666-.405 5.51zM152.24 9.47c-.19 0-.405-.066-.65-.202-.243-.135-.453-.305-.63-.508s-.297-.42-.365-.65c-.067-.23-.02-.427.142-.59.108-.324.325-.622.65-.893.325-.27.664-.453 1.016-.55.352-.094.657-.08.915.042.257.12.386.423.386.91 0 .245-.02.51-.06.794-.042.285-.123.55-.245.793s-.28.446-.47.61c-.19.16-.42.24-.69.24zm1.708 26.177c-.136 0-.312-.027-.528-.08-.217-.056-.434-.137-.65-.245-.217-.108-.4-.237-.55-.386-.148-.15-.223-.318-.223-.508l-.04-19.55c0-.19.073-.36.223-.51.15-.147.332-.277.55-.385.216-.108.432-.19.65-.244.216-.058.392-.085.527-.085l.04 21.99zm2.886-16.665c-.08-.352-.19-.8-.325-1.34-.14-.543-.26-1.098-.37-1.667-.11-.57-.163-1.11-.163-1.626 0-.518.08-.93.243-1.24.164-.315.448-.49.855-.53.406-.04.976.14 1.707.55.054.27.128.722.224 1.36l.304 2.03c.108.72.203 1.397.285 2.033.08.637.12 1.09.12 1.362.49-1.083 1.112-2.114 1.87-3.09.76-.975 1.64-1.828 2.643-2.56 1.002-.732 2.1-1.314 3.292-1.748 1.192-.434 2.466-.65 3.82-.65l-.405 2.316c-1.734.3-3.353 1.03-4.857 2.195-1.504 1.165-2.757 2.67-3.76 4.512-1.003 1.843-1.673 3.997-2.012 6.463-.338 2.466-.21 5.15.387 8.048l-2.56.53c-.028-.027-.07-.36-.123-.996-.055-.636-.122-1.456-.203-2.46-.08-1-.163-2.126-.244-3.373l-.244-3.74c-.08-1.244-.17-2.43-.266-3.555-.098-1.125-.172-2.067-.226-2.826zM173.174.325L175.45 0c.108 1.437.21 3.13.305 5.08.095 1.952.176 4.012.244 6.18.063 2.167.124 4.368.18 6.604.053 2.236.1 4.356.14 6.36.04 2.007.09 3.815.143 5.427.054 1.616.122 2.88.203 3.8 0 .38-.07.74-.204 1.08-.136.34-.298.584-.488.73-.19.15-.406.17-.65.06-.244-.104-.46-.402-.65-.89l-1.5-34.104zm5.405 27.355c.213-.46.47-.752.77-.874.3-.122.69-.156 1.18-.102.973.894 1.97 1.734 2.985 2.52 1.016.786 2.08 1.463 3.19 2.032 1.112.57 2.277 1.023 3.497 1.362 1.22.34 2.52.508 3.902.508h.935c.352 0 .67-.047.955-.142.285-.095.528-.25.732-.467.202-.217.304-.528.304-.935-.11-.813-.534-1.524-1.28-2.134-.744-.61-1.645-1.192-2.702-1.748-1.058-.555-2.18-1.124-3.375-1.707-1.193-.582-2.276-1.246-3.252-1.992-.975-.74-1.76-1.595-2.356-2.56-.596-.96-.827-2.12-.69-3.472 0-.758.243-1.436.73-2.032.49-.596 1.085-1.104 1.79-1.524.703-.42 1.442-.745 2.214-.976.773-.23 1.457-.345 2.054-.345 1.165 0 2.35.17 3.557.508 1.207.34 2.284.833 3.23 1.484l-1.095 1.546c-.488-.406-1.09-.71-1.81-.915-.717-.202-1.456-.31-2.214-.324-.76-.014-1.502.047-2.234.182s-1.376.344-1.93.63c-.557.284-.977.623-1.26 1.015-.286.393-.36.82-.225 1.28 0 1.274.34 2.31 1.018 3.11.676.8 1.53 1.49 2.56 2.072 1.03.582 2.14 1.103 3.333 1.564 1.195.463 2.306.984 3.336 1.567 1.03.583 1.883 1.274 2.56 2.073.678.8 1.017 1.822 1.017 3.068 0 .787-.128 1.41-.385 1.87-.258.46-.596.814-1.016 1.058-.42.244-.92.406-1.504.488-.583.08-1.2.122-1.85.122-1.462 0-2.98-.19-4.55-.57-1.573-.378-3.104-.907-4.594-1.584-1.49-.675-2.885-1.495-4.186-2.457-1.302-.963-2.414-2.027-3.335-3.192z" fill="#4D9FD7"/></svg>