<svg xmlns="http://www.w3.org/2000/svg" width="200" height="53.852" viewBox="0 0 200 53.852"><g fill="#4D9FD7"><path d="M14.527 3.455h6.739v31.191c-3.457.656-5.995.919-8.751.919-8.227 0-12.515-3.719-12.515-10.852 0-6.87 4.551-11.333 11.596-11.333 1.094 0 1.925.088 2.932.35l-.001-10.275zm0 15.7c-.788-.262-1.444-.35-2.275-.35-3.413 0-5.382 2.1-5.382 5.776 0 3.589 1.882 5.558 5.339 5.558.744 0 1.356-.044 2.319-.174l-.001-10.81zM31.986 13.861v15.622c0 5.382-.394 7.963-1.575 10.195-1.094 2.144-2.538 3.5-5.514 4.988l-6.257-2.976c2.976-1.4 4.419-2.624 5.338-4.507.963-1.925 1.269-4.157 1.269-10.021v-13.301h6.739zm-6.739-10.37h6.738v6.914h-6.738v-6.914zM36.056 15.393c2.976-1.4 5.82-2.013 8.927-2.013 3.457 0 5.732.919 6.739 2.713.569 1.006.744 2.319.744 5.12v13.696c-3.02.438-6.826.744-9.626.744-5.645 0-8.183-1.969-8.183-6.345 0-4.727 3.369-6.914 11.64-7.615v-1.488c0-1.225-.613-1.662-2.319-1.662-2.494 0-5.295.7-7.92 2.056l-.002-5.206zm10.546 10.72c-4.463.438-5.907 1.138-5.907 2.888 0 1.313.832 1.925 2.669 1.925 1.007 0 1.925-.088 3.238-.306v-4.507zM55.747 14.912c3.982-1.051 7.263-1.532 10.589-1.532 3.457 0 5.951.787 7.439 2.319 1.4 1.443 1.837 3.018 1.837 6.389v13.215h-6.738v-12.953c0-2.581-.875-3.545-3.282-3.545-.919 0-1.75.088-3.107.482v16.015h-6.738v-20.39zM78.232 38.978c2.363 1.225 4.726 1.794 7.22 1.794 4.419 0 6.301-1.794 6.301-6.082v-.132c-1.313.657-2.626.919-4.375.919-5.907 0-9.671-3.895-9.671-10.064 0-7.658 5.558-11.989 15.403-11.989 2.888 0 5.558.306 8.796.962l-2.307 4.861c-1.794-.35-.144-.047-1.499-.178v.7l.087 2.844.043 3.676.088 2.756v1.838c0 5.776-.481 8.489-1.925 10.72-2.1 3.282-5.732 4.901-10.896 4.901-2.626 0-4.9-.394-7.264-1.313l-.001-6.213zm13.39-20.129h-.7c-1.312-.044-2.844.306-3.894.962-1.619.919-2.451 2.582-2.451 4.945 0 3.37 1.663 5.295 4.638 5.295.919 0 1.663-.175 2.538-.438v-2.319c0-.788-.043-1.663-.043-2.582l-.043-3.107-.044-2.231-.001-.525zM112.366 13.293c6.738 0 10.852 4.245 10.852 11.114 0 7.045-4.288 11.464-11.114 11.464-6.739 0-10.896-4.244-10.896-11.07 0-7.09 4.288-11.508 11.158-11.508zm-.132 17.152c2.582 0 4.114-2.144 4.114-5.864 0-3.675-1.488-5.863-4.069-5.863-2.67 0-4.202 2.145-4.202 5.863.001 3.72 1.532 5.864 4.157 5.864z"/></g><g fill="#4D9FD7"><path d="M138.543 53.816c-.732.081-1.463.027-2.195-.163-.732-.19-1.382-.467-1.951-.833-.569-.366-1.016-.813-1.341-1.341s-.434-1.091-.325-1.687c.542 0 1.023.108 1.443.325.42.217.84.46 1.26.732.42.271.86.515 1.321.732.46.217 1.016.325 1.666.325 1.571 0 2.892-.339 3.963-1.016 1.07-.678 1.931-1.572 2.581-2.683.65-1.111 1.118-2.364 1.402-3.76.285-1.396.427-2.825.427-4.288 0-.38-.02-.976-.061-1.788l-.142-2.744c-.055-1.016-.115-2.086-.183-3.211-.068-1.124-.136-2.195-.203-3.211-.068-1.016-.136-1.931-.203-2.744-.068-.813-.129-1.409-.183-1.788-.217.543-.488 1.206-.813 1.992-.325.786-.698 1.612-1.118 2.479-.42.867-.894 1.727-1.423 2.581-.528.854-1.118 1.619-1.768 2.297-.65.678-1.362 1.226-2.134 1.646-.772.42-1.592.63-2.459.63-.461 0-.82-.23-1.077-.691-.258-.46-.454-.989-.589-1.585-.136-.596-.224-1.185-.264-1.768-.041-.582-.061-.996-.061-1.24-.136-1.734-.136-3.448 0-5.142.135-1.693.413-3.278.833-4.756.42-1.477.976-2.798 1.666-3.963.691-1.165 1.538-2.079 2.54-2.744 1.002-.664 2.147-1.043 3.435-1.138 1.287-.095 2.73.197 4.329.874.433-.054.725.19.874.732.149.543.217 1.206.203 1.992-.014.786-.061 1.612-.142 2.479-.081.868-.136 1.599-.163 2.195 0 1.409.054 2.819.163 4.227.108 1.409.237 2.812.386 4.207.149 1.396.278 2.791.386 4.187.108 1.395.163 2.798.163 4.207 0 1.626-.163 3.339-.488 5.142-.325 1.802-.888 3.468-1.687 4.999-.8 1.531-1.856 2.798-3.17 3.8-1.315 1.002-2.947 1.504-4.898 1.504zm-2.479-23.778c0 .271.006.603.02.996.013.393.067.772.163 1.138.095.366.244.678.447.935.203.258.494.386.874.386.758 0 1.463-.345 2.114-1.036.65-.691 1.253-1.571 1.809-2.642.555-1.07 1.057-2.256 1.504-3.557s.826-2.574 1.138-3.821c.311-1.246.549-2.378.711-3.394.163-1.016.244-1.768.244-2.256-1.653-.596-3.062-.582-4.227.041-1.165.624-2.107 1.606-2.825 2.947s-1.24 2.927-1.565 4.756-.462 3.664-.407 5.507zM152.241 9.471c-.19 0-.406-.067-.65-.203-.244-.135-.454-.305-.63-.508s-.298-.42-.366-.65c-.067-.23-.02-.427.142-.589.108-.325.325-.623.65-.894.325-.27.664-.453 1.016-.549.352-.095.657-.081.915.041.257.122.386.427.386.915 0 .244-.02.508-.061.793-.041.285-.122.549-.244.793s-.278.447-.467.61c-.19.159-.421.241-.691.241zm1.707 26.176c-.136 0-.312-.027-.528-.081-.217-.055-.434-.136-.65-.244-.217-.108-.4-.237-.549-.386-.149-.149-.224-.318-.224-.508l-.041-19.551c0-.189.074-.359.224-.508.149-.148.332-.278.549-.386.217-.108.433-.189.65-.244.217-.054.393-.081.528-.081l.041 21.989zM156.834 18.982c-.081-.352-.19-.799-.325-1.341-.136-.542-.258-1.097-.366-1.666-.109-.569-.163-1.111-.163-1.626 0-.514.081-.928.244-1.24.163-.311.447-.488.854-.528.406-.041.976.142 1.707.549.054.271.128.725.224 1.362l.305 2.032c.108.718.203 1.396.285 2.032.081.637.122 1.091.122 1.362.488-1.083 1.111-2.114 1.87-3.089.758-.976 1.639-1.829 2.642-2.561 1.002-.732 2.1-1.314 3.292-1.748 1.192-.433 2.466-.65 3.821-.65l-.406 2.317c-1.734.299-3.353 1.03-4.857 2.195-1.504 1.165-2.757 2.669-3.76 4.512-1.003 1.843-1.673 3.997-2.012 6.463-.339 2.466-.21 5.149.386 8.048l-2.561.528c-.027-.027-.068-.359-.122-.996-.055-.636-.122-1.456-.203-2.459-.081-1.002-.163-2.127-.244-3.374l-.244-3.739c-.081-1.246-.17-2.432-.264-3.557-.097-1.125-.171-2.067-.225-2.826zM173.174.325l2.276-.325c.108 1.437.21 3.13.305 5.081.095 1.951.176 4.011.244 6.178.067 2.168.128 4.369.183 6.605.054 2.236.102 4.356.142 6.361.041 2.006.088 3.814.142 5.426.054 1.612.122 2.879.203 3.8 0 .38-.068.739-.203 1.077-.136.339-.298.583-.488.732-.19.149-.406.169-.65.061-.244-.108-.461-.406-.65-.894l-1.504-34.102zM178.579 27.68c.217-.46.474-.752.772-.874.298-.122.691-.156 1.179-.102.976.894 1.971 1.734 2.988 2.52 1.016.786 2.079 1.463 3.191 2.032 1.111.569 2.276 1.023 3.496 1.362 1.219.339 2.52.508 3.902.508h.935c.352 0 .671-.047.955-.142.285-.095.528-.25.732-.467.203-.217.305-.528.305-.935-.109-.813-.535-1.524-1.28-2.134-.745-.61-1.646-1.192-2.703-1.748-1.057-.555-2.182-1.124-3.374-1.707-1.193-.582-2.276-1.246-3.252-1.992-.976-.745-1.762-1.599-2.357-2.561-.596-.961-.827-2.12-.691-3.475 0-.758.244-1.436.732-2.032.488-.596 1.084-1.104 1.788-1.524.704-.42 1.443-.745 2.215-.976.772-.23 1.456-.345 2.053-.345 1.165 0 2.351.17 3.557.508 1.206.339 2.283.833 3.231 1.484l-1.097 1.545c-.488-.406-1.091-.711-1.809-.915-.718-.203-1.457-.311-2.215-.325-.759-.013-1.504.048-2.236.183-.732.136-1.376.345-1.931.63-.556.285-.976.624-1.26 1.016-.285.393-.359.82-.224 1.28 0 1.274.339 2.311 1.016 3.109.677.8 1.531 1.491 2.561 2.073 1.03.583 2.14 1.104 3.333 1.565 1.192.461 2.303.982 3.333 1.565 1.03.583 1.883 1.274 2.561 2.073.677.8 1.016 1.823 1.016 3.069 0 .786-.129 1.409-.386 1.87-.258.461-.596.813-1.016 1.057-.42.244-.921.406-1.504.488-.583.081-1.199.122-1.849.122-1.463 0-2.981-.189-4.552-.569-1.572-.379-3.103-.908-4.593-1.585-1.491-.677-2.886-1.497-4.187-2.459-1.302-.963-2.414-2.027-3.335-3.192z"/></g></svg>