<svg xmlns="http://www.w3.org/2000/svg" width="200" height="53.852" viewBox="0 0 200 53.852"><path d="M14.527 3.455h6.74v31.19c-3.458.657-5.996.92-8.752.92C4.288 35.565 0 31.845 0 24.713c0-6.87 4.55-11.333 11.596-11.333 1.094 0 1.925.088 2.932.35V3.455zm0 15.7c-.788-.262-1.444-.35-2.275-.35-3.413 0-5.382 2.1-5.382 5.776 0 3.59 1.882 5.56 5.34 5.56.743 0 1.355-.04 2.318-.17V19.16zm17.46-5.294v15.63c0 5.383-.395 7.964-1.576 10.196-1.09 2.144-2.53 3.5-5.51 4.988l-6.26-2.976c2.98-1.4 4.42-2.623 5.34-4.506.966-1.924 1.27-4.156 1.27-10.02V13.86h6.74zm-6.74-10.37h6.738v6.92h-6.738V3.49zm10.81 11.91c2.975-1.4 5.82-2.012 8.926-2.012 3.457 0 5.732.92 6.74 2.714.568 1.006.743 2.32.743 5.12v13.69c-3.02.438-6.826.744-9.626.744-5.645 0-8.183-1.97-8.183-6.345 0-4.727 3.37-6.914 11.64-7.615v-1.488c0-1.225-.613-1.662-2.32-1.662-2.493 0-5.294.7-7.92 2.056v-5.21zM46.6 26.12c-4.463.433-5.907 1.133-5.907 2.883 0 1.32.832 1.93 2.67 1.93 1.006 0 1.924-.09 3.237-.303V26.12zm9.145-11.2c3.982-1.057 7.263-1.538 10.59-1.538 3.456 0 5.95.787 7.438 2.32 1.4 1.442 1.837 3.017 1.837 6.388v13.215h-6.738V22.35c0-2.58-.875-3.545-3.282-3.545-.92 0-1.75.088-3.107.482v16.015h-6.738v-20.39zm22.485 24.06c2.363 1.223 4.726 1.792 7.22 1.792 4.42 0 6.3-1.793 6.3-6.08v-.133c-1.312.657-2.625.92-4.374.92-5.907 0-9.67-3.896-9.67-10.065 0-7.658 5.557-11.99 15.402-11.99 2.888 0 5.558.307 8.796.963l-2.307 4.86c-1.795-.35-.145-.046-1.5-.177v.7l.087 2.842.043 3.676.088 2.755v1.84c0 5.78-.48 8.49-1.925 10.72-2.1 3.287-5.732 4.9-10.896 4.9-2.626 0-4.9-.39-7.264-1.31v-6.21zm13.39-20.13h-.7c-1.312-.045-2.844.305-3.894.96-1.62.92-2.45 2.583-2.45 4.946 0 3.37 1.662 5.295 4.637 5.295.92 0 1.663-.176 2.538-.44v-2.32c0-.786-.04-1.66-.04-2.58l-.04-3.107-.043-2.23v-.526zm20.744-5.557c6.738 0 10.852 4.25 10.852 11.12 0 7.044-4.288 11.463-11.114 11.463-6.74 0-10.896-4.242-10.896-11.07 0-7.09 4.288-11.506 11.158-11.506zm-.132 17.157c2.582 0 4.114-2.144 4.114-5.864 0-3.673-1.488-5.86-4.07-5.86-2.67 0-4.2 2.144-4.2 5.86 0 3.72 1.53 5.867 4.156 5.867zm26.31 23.37c-.733.082-1.464.028-2.196-.162-.732-.19-1.382-.466-1.95-.832-.57-.366-1.017-.813-1.342-1.34s-.434-1.092-.325-1.69c.54 0 1.02.11 1.44.327.42.216.84.46 1.26.73.42.27.86.513 1.32.73.46.217 1.014.325 1.664.325 1.57 0 2.892-.34 3.963-1.015 1.07-.68 1.93-1.574 2.58-2.685.65-1.11 1.12-2.363 1.403-3.76.286-1.395.428-2.824.428-4.287 0-.38-.02-.977-.06-1.79l-.14-2.743c-.054-1.016-.114-2.086-.18-3.21-.07-1.125-.138-2.196-.205-3.212-.068-1.016-.136-1.93-.203-2.744-.067-.816-.13-1.41-.182-1.79-.218.542-.49 1.205-.814 1.99-.325.787-.698 1.613-1.118 2.48-.42.867-.894 1.727-1.423 2.58-.528.855-1.118 1.62-1.768 2.298-.65.68-1.362 1.225-2.134 1.645-.77.42-1.59.63-2.46.63-.46 0-.82-.23-1.073-.69-.258-.46-.454-.99-.59-1.586-.135-.596-.223-1.185-.263-1.768-.04-.58-.06-.997-.06-1.24-.137-1.735-.137-3.45 0-5.14.134-1.695.412-3.28.832-4.758.42-1.477.976-2.798 1.666-3.963s1.54-2.08 2.54-2.744c1.003-.666 2.148-1.045 3.436-1.14 1.287-.095 2.73.197 4.33.874.432-.054.724.19.873.732.15.543.22 1.206.205 1.992-.013.783-.06 1.61-.14 2.476-.08.868-.134 1.6-.16 2.195 0 1.41.053 2.82.162 4.225.11 1.41.238 2.812.387 4.207.15 1.396.276 2.79.384 4.187.108 1.395.163 2.8.163 4.207 0 1.628-.16 3.34-.486 5.144-.326 1.806-.89 3.47-1.688 5-.8 1.53-1.855 2.8-3.17 3.8-1.314 1-2.946 1.507-4.897 1.507zm-2.48-23.777c0 .27.006.602.02.995.013.393.067.772.163 1.138.095.368.244.68.447.937s.494.385.874.385c.758 0 1.463-.345 2.114-1.036.65-.69 1.253-1.57 1.81-2.645.554-1.07 1.056-2.256 1.503-3.557s.826-2.575 1.138-3.82c.31-1.248.55-2.38.71-3.396.17-1.016.25-1.768.25-2.256-1.65-.597-3.06-.583-4.225.04-1.164.624-2.106 1.606-2.824 2.947s-1.24 2.927-1.565 4.756-.46 3.667-.405 5.51zM152.24 9.47c-.19 0-.405-.066-.65-.202-.243-.135-.453-.305-.63-.508s-.297-.42-.365-.65c-.067-.23-.02-.427.142-.59.108-.324.325-.622.65-.893.325-.27.664-.453 1.016-.55.352-.094.657-.08.915.042.257.12.386.42.386.91 0 .24-.02.51-.06.79-.042.285-.123.55-.245.793s-.28.446-.47.61c-.19.16-.42.24-.69.24zm1.708 26.177c-.136 0-.312-.027-.528-.08-.217-.056-.434-.137-.65-.245-.217-.108-.4-.237-.55-.386-.148-.15-.223-.318-.223-.508l-.04-19.55c0-.19.073-.36.223-.51.15-.147.332-.277.55-.385.216-.108.432-.19.65-.244.216-.06.392-.09.527-.09l.04 21.99zm2.886-16.665c-.08-.352-.19-.8-.325-1.34-.14-.543-.26-1.098-.37-1.667-.11-.57-.167-1.11-.167-1.626 0-.52.08-.93.243-1.24.163-.32.447-.49.854-.53.407-.04.977.14 1.708.55.054.27.13.72.224 1.36l.304 2.03c.107.72.202 1.393.284 2.03.08.636.12 1.09.12 1.36.49-1.082 1.112-2.113 1.87-3.09.76-.974 1.64-1.827 2.643-2.56 1.002-.73 2.1-1.313 3.292-1.747 1.19-.434 2.465-.65 3.82-.65l-.406 2.316c-1.735.3-3.354 1.03-4.858 2.195-1.504 1.165-2.757 2.67-3.76 4.512-1.003 1.842-1.673 3.996-2.012 6.462-.337 2.465-.21 5.15.388 8.047l-2.56.53c-.03-.027-.07-.36-.124-.996-.056-.635-.123-1.455-.204-2.46-.08-1-.163-2.125-.244-3.372l-.244-3.74c-.08-1.245-.17-2.43-.266-3.556-.098-1.125-.172-2.067-.226-2.826zM173.174.325L175.45 0c.108 1.437.21 3.13.305 5.08.095 1.952.176 4.012.244 6.18l.18 6.604c.05 2.236.1 4.356.14 6.36.04 2.007.09 3.815.14 5.427.053 1.62.12 2.88.202 3.8 0 .38-.07.74-.204 1.08-.136.34-.298.588-.488.73-.19.15-.406.17-.65.06-.244-.1-.46-.4-.65-.89l-1.5-34.1zm5.405 27.355c.21-.46.47-.752.77-.874.3-.122.69-.156 1.18-.102.97.894 1.97 1.734 2.98 2.52 1.017.786 2.08 1.463 3.19 2.032 1.113.57 2.278 1.023 3.498 1.362 1.22.34 2.52.508 3.902.508h.935c.352 0 .67-.047.955-.142.285-.095.528-.25.732-.467.202-.217.304-.528.304-.935-.11-.813-.536-1.524-1.28-2.134-.746-.61-1.647-1.192-2.704-1.748-1.058-.555-2.18-1.124-3.375-1.707-1.193-.582-2.276-1.246-3.25-1.992-.977-.74-1.76-1.59-2.358-2.56-.597-.96-.828-2.12-.69-3.47 0-.76.242-1.434.73-2.03.49-.596 1.084-1.104 1.79-1.524.702-.42 1.44-.745 2.213-.976.773-.23 1.457-.346 2.054-.346 1.166 0 2.35.17 3.558.508 1.206.34 2.283.834 3.23 1.485l-1.096 1.546c-.49-.405-1.09-.71-1.81-.914-.718-.204-1.457-.31-2.215-.326-.76-.013-1.502.048-2.234.183s-1.375.344-1.93.63c-.556.284-.976.623-1.26 1.015-.285.393-.36.82-.224 1.28 0 1.274.34 2.31 1.02 3.11.673.8 1.53 1.49 2.56 2.072 1.03.582 2.14 1.103 3.33 1.564 1.195.462 2.306.983 3.336 1.566 1.03.584 1.883 1.275 2.56 2.074.678.8 1.017 1.822 1.017 3.068 0 .787-.13 1.41-.386 1.87-.26.46-.597.814-1.017 1.058-.42.244-.92.406-1.503.488-.584.08-1.2.123-1.85.123-1.463 0-2.98-.19-4.55-.57-1.574-.378-3.105-.907-4.595-1.584-1.49-.675-2.886-1.495-4.187-2.457-1.303-.964-2.415-2.028-3.336-3.193z" fill="#4D9FD7"/></svg>