<svg xmlns="http://www.w3.org/2000/svg" width="217.521" height="60" viewBox="0 0 217.521 60"><path fill="#10559D" d="M41.188 45.275v1.595c0 11.194-8.475 13.13-20.764 13.13C5.17 60 0 54.277 0 37.277c0-16.83 5.424-22.81 20.51-22.81 15.258 0 20.678 6.397 20.678 21.716v2.948h-30.34c0 10.856 2.12 13.21 9.663 13.21 6.865 0 10.09-1.09 10.09-6.14v-.923h10.59zM20.594 22.127c-7.372 0-9.747 2.61-9.747 10.438h19.75c0-7.828-2.542-10.438-10.003-10.438zm39.404 37.735H49.403V.02h10.595v59.842zm49.628-14.587v1.595c0 11.194-8.476 13.13-20.764 13.13-15.26 0-20.43-5.723-20.43-22.723 0-16.83 5.428-22.81 20.516-22.81 15.254 0 20.677 6.397 20.677 21.716v2.948h-30.34c0 10.856 2.12 13.21 9.664 13.21 6.862 0 10.08-1.09 10.08-6.14v-.923h10.594zM89.03 22.127c-7.373 0-9.745 2.61-9.745 10.438H99.03c0-7.828-2.54-10.438-10-10.438zm38.898 8.852h3.036l12.885-16.517h12.12l-16.47 21.92 18.904 23.48h-12.8l-13.557-18.576h-4.12v18.575h-10.292V.024h10.293V30.98zm61.332-3.636c0-4.124-1.782-5.554-9.325-5.554-7.628 0-8.643 1.26-8.643 5.89 0 3.62 1.27 4.463 11.95 5.22 9.914.672 17.797 3.196 17.797 12.54 0 12.54-8.31 14.56-19.75 14.56-9.237 0-20.854-.17-20.854-12.204V45.44h10.854c0 5.806 2.03 7.238 7.628 7.238h3.216c6.105 0 8.56-1.77 8.56-6.144 0-3.872-2.455-5.22-11.525-5.723-12.034-.756-18.735-3.194-18.735-13.294 0-11.11 7.63-13.048 19.41-13.048 8.052 0 19.75.338 19.75 10.943 0 .42-.084 1.346-.17 1.936H189.26zM203.18 7.17c0-3.973 3.2-7.17 7.174-7.17 3.95 0 7.168 3.197 7.168 7.17 0 3.97-3.218 7.17-7.168 7.17-3.975 0-7.173-3.2-7.173-7.17zm12.72.018c0-3.066-2.52-5.55-5.547-5.55-3.087 0-5.556 2.445-5.556 5.512 0 3.07 2.47 5.554 5.556 5.554 3.027 0 5.548-2.447 5.548-5.516zm-8.633-3.837h3.872c1.79 0 3.01.32 3.01 2.37 0 1.43-.736 2.016-2.106 2.11l1.88 3.274h-1.843l-1.727-3.18h-1.473v3.18h-1.613v-7.75zm1.614 3.33h2.3c.885 0 1.356-.19 1.356-1.166 0-.77-.713-.92-1.695-.92h-1.96V6.68z"/></svg>