<svg xmlns="http://www.w3.org/2000/svg" width="217.521" height="60" viewBox="0 0 217.521 60"><path fill="#10559D" d="M41.188 45.275v1.595c0 11.194-8.475 13.13-20.764 13.13-15.253 0-20.424-5.723-20.424-22.723 0-16.831 5.424-22.81 20.511-22.81 15.257 0 20.677 6.397 20.677 21.716v2.948h-30.341c0 10.853 2.121 13.21 9.664 13.21 6.862 0 10.086-1.094 10.086-6.144v-.922h10.591zm-20.594-23.148c-7.372 0-9.747 2.61-9.747 10.438h19.75c0-7.828-2.542-10.438-10.003-10.438zm39.404 37.735h-10.595v-59.842h10.595v59.842zm49.628-14.587v1.595c0 11.194-8.476 13.13-20.764 13.13-15.26 0-20.429-5.723-20.429-22.723 0-16.831 5.427-22.81 20.515-22.81 15.254 0 20.677 6.397 20.677 21.716v2.948h-30.34c0 10.853 2.121 13.21 9.664 13.21 6.865 0 10.082-1.094 10.082-6.144v-.922h10.595zm-20.597-23.148c-7.372 0-9.744 2.61-9.744 10.438h19.746c0-7.828-2.541-10.438-10.002-10.438zm38.899 8.852h3.036l12.885-16.514h12.122l-16.47 21.917 18.903 23.48h-12.799l-13.558-18.575h-4.119v18.575h-10.293v-59.838h10.293v30.955zm61.332-3.633c0-4.124-1.782-5.554-9.325-5.554-7.628 0-8.643 1.261-8.643 5.889 0 3.621 1.27 4.463 11.951 5.219 9.913.673 17.796 3.197 17.796 12.54 0 12.541-8.307 14.559-19.748 14.559-9.236 0-20.853-.169-20.853-12.202v-2.357h10.854c0 5.806 2.031 7.238 7.627 7.238h3.217c6.105 0 8.561-1.77 8.561-6.144 0-3.872-2.456-5.22-11.526-5.723-12.033-.759-18.734-3.197-18.734-13.297 0-11.111 7.63-13.048 19.409-13.048 8.053 0 19.75.338 19.75 10.943 0 .421-.083 1.346-.169 1.936h-10.167zm13.921-20.176c0-3.973 3.198-7.17 7.173-7.17 3.95 0 7.168 3.197 7.168 7.17 0 3.971-3.218 7.171-7.168 7.171-3.975 0-7.173-3.201-7.173-7.171zm12.72.018c0-3.066-2.522-5.551-5.548-5.551-3.087 0-5.556 2.446-5.556 5.513 0 3.069 2.469 5.554 5.556 5.554 3.027-.001 5.548-2.447 5.548-5.516zm-8.634-3.837h3.872c1.792 0 3.012.317 3.012 2.369 0 1.429-.735 2.014-2.105 2.108l1.881 3.274h-1.844l-1.728-3.179h-1.473v3.179h-1.614v-7.751zm1.614 3.329h2.297c.885 0 1.356-.189 1.356-1.168 0-.77-.713-.921-1.695-.921h-1.958v2.089z"/></svg>