<svg xmlns="http://www.w3.org/2000/svg" width="200" height="54.087" viewBox="0 0 200 54.087"><path fill="#100E0F" d="M38.52 23.15H21.715c-.434 0-.785.352-.785.786v8.217c0 .434.35.787.784.787h6.556v10.21s-1.472.5-5.542.5c-4.802 0-11.51-1.753-11.51-16.504 0-14.753 6.986-16.694 13.543-16.694 5.68 0 8.126 1 9.68 1.48.49.15.94-.336.94-.77l1.878-7.94c0-.202-.07-.447-.3-.612C36.323 2.157 32.468 0 22.73 0 11.51 0 0 4.773 0 27.72s13.177 26.367 24.28 26.367c9.194 0 14.77-3.93 14.77-3.93.23-.126.256-.447.256-.594V23.935c0-.433-.352-.785-.785-.785zm86.614-20.4c0-.438-.346-.79-.78-.79h-9.463c-.43 0-.78.352-.78.79v18.287H99.36V2.75c0-.438-.35-.79-.782-.79h-9.463c-.43 0-.782.352-.782.79v49.517c0 .437.35.792.782.792h9.463c.433 0 .78-.36.78-.796v-21.18h14.75l-.025 21.18c0 .438.35.793.784.793h9.485c.434 0 .78-.356.78-.793V2.747zM56.378 9.246c0-3.407-2.732-6.16-6.102-6.16-3.367 0-6.1 2.753-6.1 6.16 0 3.404 2.733 6.165 6.1 6.165 3.37 0 6.102-2.76 6.102-6.162zM55.7 41.822V18.964c0-.434-.35-.79-.782-.79h-9.433c-.433 0-.82.447-.82.88v32.75c0 .96.6 1.248 1.376 1.248h8.5c.936 0 1.16-.458 1.16-1.264v-9.966zM161.1 18.25h-9.39c-.432 0-.782.355-.782.792v24.28s-2.386 1.746-5.772 1.746-4.285-1.537-4.285-4.852V19.042c0-.437-.35-.792-.78-.792h-9.53c-.43 0-.78.355-.78.792V41.82c0 9.847 5.487 12.256 13.04 12.256 6.192 0 11.186-3.422 11.186-3.422s.238 1.803.345 2.017c.108.217.388.43.69.43l6.064-.024c.43 0 .782-.355.782-.79l-.003-33.24c.002-.438-.35-.793-.782-.793zm25.666-1.113c-5.333 0-8.96 2.38-8.96 2.38V2.75c0-.438-.35-.79-.782-.79h-9.49c-.432 0-.782.352-.782.79v49.517c0 .437.35.792.783.792h6.584c.293 0 .52-.157.684-.425.164-.266.4-2.283.4-2.283s3.88 3.677 11.226 3.677c8.625 0 13.57-4.374 13.57-19.638 0-15.262-7.9-17.257-13.235-17.257zm-3.704 27.9c-3.257-.1-5.466-1.577-5.466-1.577V27.78s2.18-1.337 4.853-1.576c3.38-.303 6.64.72 6.64 8.785 0 8.503-1.47 10.182-6.03 10.044zM82.898 18.17H75.8l-.01-9.377c0-.355-.184-.532-.594-.532h-9.673c-.376 0-.578.17-.578.53v9.69s-4.848 1.17-5.176 1.267c-.33.095-.57.396-.57.755v6.09c0 .438.35.79.78.79h4.96v14.65c0 10.883 7.634 11.95 12.784 11.95 2.354 0 5.17-.755 5.634-.926.28-.103.444-.394.444-.71l.008-6.7c0-.436-.37-.79-.785-.79-.414 0-1.472.168-2.56.168-3.488 0-4.67-1.62-4.67-3.72V27.38h7.1c.433 0 .783-.354.783-.792V18.96c.003-.437-.35-.79-.78-.79z"/></svg>