<svg xmlns="http://www.w3.org/2000/svg" width="200" height="54.087" viewBox="0 0 200 54.087"><path fill="#100E0F" d="M38.521 23.15h-16.807c-.434 0-.785.352-.785.786v8.217c0 .434.352.787.785.787h6.556v10.209s-1.472.502-5.542.502c-4.802 0-11.509-1.754-11.509-16.505 0-14.753 6.985-16.694 13.542-16.694 5.676 0 8.122.999 9.678 1.481.489.15.941-.337.941-.771l1.875-7.939c0-.203-.069-.448-.3-.613-.632-.453-4.487-2.61-14.226-2.61-11.22 0-22.729 4.773-22.729 27.72s13.177 26.367 24.28 26.367c9.194 0 14.771-3.929 14.771-3.929.23-.127.255-.448.255-.595v-25.628c0-.433-.352-.785-.785-.785zM125.134 2.749c0-.437-.346-.79-.78-.79h-9.463c-.432 0-.784.353-.784.79l.002 18.288h-14.75v-18.288c0-.437-.348-.79-.781-.79h-9.463c-.431 0-.782.353-.782.79v49.518c0 .437.351.792.782.792h9.463c.433 0 .781-.355.781-.792v-21.18h14.75l-.026 21.181c0 .437.351.792.784.792h9.485c.434 0 .78-.355.781-.792v-49.519z"/><g fill="#100E0F"><path d="M56.378 9.247c0-3.407-2.732-6.161-6.102-6.161-3.367 0-6.101 2.754-6.101 6.161 0 3.404 2.734 6.165 6.101 6.165 3.37 0 6.102-2.761 6.102-6.165zM55.701 41.822v-22.858c0-.434-.35-.789-.783-.789h-9.433c-.433 0-.82.446-.82.88v32.748c0 .962.6 1.249 1.376 1.249h8.499c.933 0 1.161-.458 1.161-1.264v-9.966z"/></g><path fill="#100E0F" d="M161.098 18.25h-9.391c-.431 0-.781.355-.781.792v24.28s-2.386 1.746-5.772 1.746-4.285-1.537-4.285-4.852v-21.174c0-.437-.35-.792-.781-.792h-9.53c-.43 0-.782.355-.782.792v22.777c0 9.848 5.488 12.257 13.039 12.257 6.194 0 11.188-3.422 11.188-3.422s.238 1.803.345 2.017c.108.213.388.429.691.429l6.063-.027c.43 0 .782-.355.782-.791l-.003-33.24c.001-.437-.35-.792-.783-.792zM186.764 17.137c-5.333 0-8.961 2.38-8.961 2.38v-16.768c0-.437-.349-.79-.781-.79h-9.49c-.432 0-.782.353-.782.79v49.518c0 .437.351.792.783.792h6.584c.296 0 .521-.153.687-.421.164-.266.4-2.283.4-2.283s3.88 3.677 11.226 3.677c8.624 0 13.57-4.374 13.57-19.638 0-15.262-7.899-17.257-13.236-17.257zm-3.704 27.9c-3.257-.099-5.466-1.577-5.466-1.577v-15.681s2.179-1.336 4.853-1.575c3.382-.303 6.64.719 6.64 8.785 0 8.507-1.47 10.186-6.027 10.048zM82.898 18.171h-7.098l-.011-9.378c0-.355-.183-.532-.593-.532h-9.673c-.376 0-.578.166-.578.527v9.691s-4.848 1.17-5.176 1.265c-.326.095-.567.396-.567.755v6.09c0 .438.35.791.782.791h4.96v14.65c0 10.882 7.633 11.95 12.783 11.95 2.354 0 5.169-.756 5.634-.927.281-.103.444-.394.444-.71l.008-6.699c0-.437-.369-.791-.785-.791-.414 0-1.472.168-2.561.168-3.487 0-4.668-1.621-4.668-3.72v-13.922h7.099c.433 0 .783-.353.783-.791v-7.628c.001-.437-.35-.789-.783-.789z"/></svg>