<svg xmlns="http://www.w3.org/2000/svg" width="177.795" height="60" viewBox="0 0 177.795 60"><g fill-rule="evenodd" clip-rule="evenodd"><path fill="#6D6E71" d="M173.028 14.072h1.106l.018.04c.18.395.36.787.526 1.183.18.444.34.896.536 1.335l.018.04.508-1.167.4-.905.063-.18c0-.102-.104-.102-.195-.102l-.406.018.406-.264h1.483l-.104.102c-.108.097-.163.166-.163.356l.016.198.07.873c.035.382.07.765.14 1.143.06.31.126.42.347.587-.245.047-.41.07-.658.07-.1 0-.276 0-.437-.12-.19-.148-.217-.384-.25-.804l-.08-.86-.053-.817-.007-.057-.028.06-.466 1.062c-.367.84-.393.896-.466 1.122l.05.138c-.134.033-.662.207-.855.282-.15-.412-.67-1.75-1.085-2.664l-.116 1.163c-.013.13-.09.993-.09 1.072 0 .1.023.127.204.146l.405.06-.236.143h-.86l.12-.144.06-.1c.03-.075.043-.205.06-.39l.105-.84.127-1.233.01-.143c0-.12-.046-.18-.185-.18l-.428.008.383-.236zm-.203 0l-.2.47-.208.094.05-.235c0-.104-.124-.11-.253-.11l-.644.006c-.056 1.8-.056 1.957-.056 2.202l.01.393c.014.2.078.24.29.255l.394.042-.3.148h-1.54l.105-.148c.102-.152.116-.175.116-.278v-.684l.002-.586c.014-.398.038-.796.038-1.188l-.005-.156h-.562c-.283.01-.287.017-.44.25l-.245.092.245-.564h3.202v-.002z"/><path fill="#EF3E35" d="M166.847 40.433c-.65.355-1.3.768-1.95 1.064-1.952.887-3.96 1.123-5.734 1.123-1.89 0-4.847-.12-7.862-2.305-4.195-2.956-6.026-8.04-6.026-12.473 0-9.162 7.447-13.655 13.537-13.655 2.127 0 4.315.532 6.09 1.655 2.952 1.95 3.722 4.492 4.134 5.852l-13.89 5.615-4.552.354c1.48 7.507 6.56 11.88 12.177 11.88 3.014 0 5.202-1.063 7.213-2.07l-3.133 2.958zM161.29 22.82c1.122-.416 1.714-.77 1.714-1.598 0-2.364-2.658-5.084-5.853-5.084-2.36 0-6.794 1.833-6.794 8.218 0 1.005.116 2.07.175 3.133l10.76-4.67z"/><path fill="#2FB457" d="M143.85 41.734h-10.46c1.358-1.773 1.595-1.95 1.595-3.133v-9.633c0-4.61.06-11.172.235-17.32.06-3.015.297-6.798.355-9.518h-4.61L135.4 0h8.45c-1.83 1.065-2.422 1.42-2.657 3.49-.472 4.55-.532 11.76-.532 20.155V37.3c0 2.306.415 2.66 2.368 2.838l3.013.295-2.19 1.3z"/><path fill="#0075BF" d="M124.463 17.084c1.36 1.123 4.197 3.487 4.197 7.98 0 4.374-2.483 6.443-4.964 8.394-.77.768-1.656 1.597-1.656 2.897 0 1.3.887 2.01 1.537 2.54l2.128 1.657c2.603 2.186 4.964 4.197 4.964 8.276 0 5.556-5.38 11.172-15.548 11.172-8.57 0-12.708-4.08-12.708-8.454 0-2.128 1.064-5.144 4.554-7.212 3.662-2.246 8.628-2.54 11.286-2.718-.827-1.064-1.772-2.187-1.772-4.02 0-1.005.295-1.596.592-2.306-.652.06-1.3.12-1.893.12-6.264 0-9.812-4.67-9.812-9.282 0-2.72 1.242-5.734 3.784-7.92 3.37-2.78 7.388-3.252 10.58-3.252h12.176l-3.782 2.128h-3.665zm-4.197 26.246c-.472-.06-.77-.06-1.36-.06-.53 0-3.724.12-6.207.947-1.3.473-5.086 1.89-5.086 6.09 0 4.195 4.08 7.21 10.405 7.21 5.675 0 8.69-2.72 8.69-6.383 0-3.016-1.95-4.612-6.445-7.804zm1.716-11.23c1.357-1.36 1.477-3.253 1.477-4.317 0-4.256-2.543-10.877-7.45-10.877-1.538 0-3.19.77-4.138 1.95-1.004 1.242-1.3 2.838-1.3 4.375 0 3.96 2.305 10.524 7.388 10.524 1.477 0 3.075-.71 4.022-1.654z"/><path fill="#FFDF1C" d="M87.813 42.502c-9.4 0-14.423-7.33-14.423-13.95 0-7.743 6.325-14.364 15.31-14.364 8.69 0 14.13 6.798 14.13 13.95-.002 6.975-5.382 14.364-15.017 14.364zm7.39-4.787c1.418-1.892 1.773-4.257 1.773-6.562 0-5.202-2.483-15.133-9.813-15.133-1.95 0-3.9.77-5.32 2.01-2.304 2.07-2.72 4.67-2.72 7.212 0 5.852 2.898 15.487 10.05 15.487 2.304 0 4.67-1.125 6.03-3.016z"/><path fill="#EF3E35" d="M56.365 42.502c-9.4 0-14.424-7.33-14.424-13.95 0-7.743 6.327-14.364 15.31-14.364 8.69 0 14.13 6.798 14.13 13.95 0 6.975-5.378 14.364-15.014 14.364zm7.388-4.787c1.42-1.892 1.774-4.257 1.774-6.562 0-5.202-2.482-15.133-9.812-15.133-1.95 0-3.902.77-5.32 2.01-2.306 2.07-2.72 4.67-2.72 7.212 0 5.852 2.897 15.487 10.05 15.487 2.305 0 4.67-1.125 6.028-3.016z"/><path fill="#0075BF" d="M38.183 40.44l-7.925 1.827c-3.214.5-6.097.943-9.144.943C5.818 43.21 0 31.96 0 23.148 0 12.398 8.258 2.422 22.39 2.422c2.992 0 5.874.444 8.478 1.164 4.156 1.164 6.097 2.605 7.315 3.437l-4.6 4.377-1.938.443 1.385-2.217C31.146 7.8 27.71 4.418 21.17 4.418c-8.757 0-15.35 6.65-15.35 16.35 0 10.417 7.537 20.226 19.617 20.226 3.548 0 5.376-.72 7.038-1.385v-8.925l-8.368.444 4.434-2.384h11.75l-1.44 1.385c-.39.333-.443.444-.554.888-.055.498-.11 2.105-.11 2.66v6.76h-.002z"/></g></svg>