<svg xmlns="http://www.w3.org/2000/svg" viewBox="0 0 200 163.999" enable-background="new 0 0 200 163.999"><path fill="#E74923" d="M0 0h94.993v94.993H0z"/><path fill="#FEFEFE" d="M36.092 12.643h22.81v69.702h-22.81z"/><path fill="#E74923" d="M105.007 0H200v94.993h-94.993z"/><path fill="#FEFEFE" d="M141.313 82.344V31.006H121.25V12.643h62.51v18.363h-20.065v51.338zM177.22 109.833h15.896v23.024H177.22z"/><path fill="#E74923" d="M188.405 114.05c-.616-.24-1.638-.357-3.062-.357-1.41 0-2.425.118-3.04.357-.614.24-.923.628-.923 1.17 0 .54.295.926.88 1.16.59.235 1.56.353 2.918.353h.166c1.435 0 2.46-.117 3.072-.353.61-.234.915-.62.915-1.16 0-.542-.307-.93-.925-1.17m8.294-2.657c-2.202-2.402-5.365-3.604-9.49-3.604h-11.902v27.87h10.974c4.593 0 8.027-1.156 10.304-3.462 2.277-2.31 3.415-5.79 3.415-10.445 0-4.504-1.1-7.957-3.3-10.36zm-5.483 21.185c-.947-.06-1.776-.282-2.49-.67-.71-.383-1.39-.982-2.038-1.798-.2-.255-.475-.64-.82-1.16-.35-.515-.62-.892-.808-1.124-.33-.394-.66-.685-.994-.88-.335-.194-.68-.29-1.034-.29-.514 0-.912.126-1.197.382-.283.253-.423.615-.423 1.078 0 .52.184.914.552 1.18.37.267.918.4 1.65.4l-.008 2.758c-1.364-.01-2.448-.412-3.258-1.202-.807-.788-1.213-1.84-1.213-3.15 0-1.308.35-2.368 1.05-3.175.702-.81 1.617-1.213 2.748-1.213.63 0 1.205.125 1.723.378.516.252 1.06.678 1.622 1.283.296.31.704.843 1.23 1.602.53.76.974 1.296 1.338 1.613v-4.778h2.37v8.766zm0-10.078h-1.606v-1.688h1.607v1.688zm-1.22-3.87c-1.03.758-2.582 1.136-4.654 1.136-2.065 0-3.613-.378-4.643-1.136-1.03-.752-1.547-1.892-1.547-3.41 0-1.522.516-2.663 1.547-3.42 1.03-.76 2.577-1.14 4.643-1.14 2.072 0 3.623.38 4.653 1.14 1.03.757 1.546 1.898 1.546 3.42 0 1.518-.516 2.658-1.546 3.41z"/><path fill="#2B2A29" d="M7.625 135.574L0 107.7h7.17l3.9 19.775 3.727-19.774h7.607l3.67 19.775L29.99 107.7h7.173l-7.682 27.874h-6.963l-3.955-20.037-3.955 20.037zM39.717 135.574V107.7H60.89v5.716H46.85v4.92h12.83v5.58H46.85v5.962H61.34v5.696zM65.6 135.574V107.7h21.175v5.716h-14.04v4.92h12.827v5.58H72.736v5.962h14.492v5.696zM91.486 135.574V107.7h7.02v10.637l9.914-10.636h8.573l-11.278 11.715 11.542 16.16h-8.516l-7.832-11.164-2.403 2.402v8.762zM119.775 135.574V107.7h21.17v5.716h-14.038v4.92h12.83v5.58h-12.83v5.962H141.4v5.696zM145.62 135.574v-27.872h7.72l5.26 9.16c.857 1.486 1.672 2.964 2.44 4.427.77 1.462 1.496 2.905 2.178 4.33-.1-2.105-.18-4.08-.228-5.92-.05-1.842-.076-3.465-.076-4.863v-7.135h6.888v27.872h-7.7l-5.47-9.423c-.643-1.107-1.344-2.354-2.1-3.737-.756-1.38-1.558-2.872-2.404-4.474.14 1.816.24 3.505.304 5.07.062 1.565.092 2.95.092 4.162v8.402h-6.905zM107.685 156.604c0 4.8-2.36 7.396-7.186 7.396-4.906 0-7.37-2.57-7.37-7.45v-11.616h1.782v11.173c0 3.985 1.128 6.398 5.612 6.398 4.433 0 5.377-2.57 5.377-6.426v-11.146h1.784v11.67zM117.844 152.566l8.838 11.04h-2.28l-7.816-9.834-3.567 3.25v6.584h-1.758v-18.673h1.757v10.044l10.882-10.044h2.362zM136.74 144.933c3.303 0 5.82 1.47 5.82 5.036 0 2.438-1.365 4.062-3.645 4.613 2.36.42 3.12 1.732 3.278 4.224.053.81.053 3.96.893 4.8h-2.02c-.525-.657-.472-3.174-.55-4.144-.236-3.515-1.55-4.196-4.957-4.196h-5.483v8.34h-1.783v-18.674h8.445zm-6.664 8.916h5.272c2.648 0 5.455-.445 5.455-3.776 0-2.86-2.23-3.62-4.643-3.62h-6.084v7.395zM160.64 163.606h-1.967l-2.255-5.875h-8.55l-2.28 5.876h-1.917l7.554-18.726h1.967l7.45 18.726zm-8.444-17.048l-3.778 9.73h7.45l-3.672-9.73zM162.46 144.934h1.782v18.673h-1.783zM182.84 163.606h-1.967l-8.68-12.536c-.893-1.286-1.786-2.596-2.467-3.987.105 1.495.132 2.964.132 4.46v12.062h-1.732v-18.673h1.967l8.735 12.668c.864 1.258 1.703 2.57 2.44 3.908-.055-1.653-.133-3.28-.133-4.93V144.93h1.706v18.674zM199.583 146.454H188.41v6.74h10.466v1.494H188.41v7.398h11.278v1.52h-13.062v-18.673h12.957z"/></svg>