<svg xmlns="http://www.w3.org/2000/svg" width="200" height="71.069" viewBox="0 0 200 71.069"><path fill="#3469B3" d="M59.7 17.898v36.202h-17.892v-36.211h-19.177v-17.889h56.251v17.898h-19.182zm76.941 18.317v17.885h-44.04c-9.046 0-8.977-7.799-8.977-7.799v-46.296h53.014l.002 17.887-35.132-.003v3.67h21.554v10.983h-21.551v3.673h35.13zm45.261 17.886v-15.716l-11.3 15.828-11.33-15.828v15.715h-17.887v-54.095h17.833l11.385 16.975 11.353-16.975h18.044v54.096h-18.098zm-181.902-.004v-54.092h8.943s8.941-.055 8.941 8.989v45.103h-17.884zm197.819 9.491c-.309-.075-.616-.116-.919-.116-.359 0-.63.085-.821.251-.193.166-.287.383-.287.652 0 .166.038.314.114.436.077.125.199.244.368.361.169.116.571.326 1.201.624.834.401 1.406.799 1.715 1.201.31.401.464.894.464 1.474 0 .803-.29 1.439-.87 1.903-.58.464-1.387.696-2.421.696-.952 0-1.792-.179-2.525-.536v-1.759c.602.27 1.11.458 1.53.571.415.107.796.163 1.143.163.415 0 .732-.082.955-.238.223-.16.332-.395.332-.709 0-.176-.05-.329-.147-.467-.099-.135-.241-.266-.43-.392-.188-.126-.574-.329-1.157-.605-.544-.257-.955-.502-1.226-.737-.273-.238-.489-.511-.654-.825-.161-.314-.243-.68-.243-1.1 0-.787.266-1.408.801-1.859.536-.452 1.278-.677 2.221-.677.462 0 .905.053 1.326.166.422.107.861.263 1.32.461l-.61 1.474c-.476-.196-.866-.338-1.18-.413zm-11.079 7.481c-1.345 0-2.373-.395-3.082-1.188-.712-.79-1.064-1.925-1.064-3.408 0-1.436.412-2.562 1.235-3.367.821-.803 1.963-1.207 3.425-1.207.916 0 1.8.182 2.648.549l-.627 1.514c-.652-.326-1.329-.489-2.032-.489-.82 0-1.474.276-1.964.821-.495.552-.74 1.289-.74 2.217 0 .969.198 1.709.596 2.22.395.511.97.765 1.728.765.395 0 .796-.041 1.202-.122v-1.862h-1.69v-1.574h3.538v4.625c-.571.188-1.113.32-1.618.395-.507.074-1.025.111-1.555.111zm-14.632-6.872h-.053c.075 1.195.114 2.044.114 2.552v4.198h-1.692v-8.92h2.389l3.874 6.682h.042c-.063-1.16-.092-1.978-.092-2.458v-4.223h1.704v8.92h-2.403l-3.883-6.751zm-8.115-2.17h1.891v8.92h-1.891v-8.92zm-6.145 8.92h-1.892v-7.346h-2.424v-1.574h6.736v1.574h-2.42v7.346zm-12.793-8.92h5.141v1.549h-3.247v1.96h3.019v1.549h-3.019v2.301h3.247v1.561h-5.141v-8.92zm-9.349 0h5.138v1.549h-3.245v1.96h3.019v1.549h-3.019v2.301h3.245v1.561h-5.138v-8.92zm-6.356 4.697l.008-.69c.005-.26.034-.95.083-2.072h-.055l-2.301 6.986h-1.732l-2.149-6.998h-.055c.078 1.423.116 2.373.116 2.85v4.148h-1.69v-8.92h2.576l2.109 6.823h.039l2.24-6.823h2.573v8.92h-1.762v-4.224zm-24.252-2.527h-.052c.075 1.195.114 2.044.114 2.552v4.198h-1.69v-8.92h2.387l3.875 6.682h.042c-.061-1.16-.092-1.978-.092-2.458v-4.223h1.704v8.92h-2.406l-3.882-6.751zm-10.073 6.872c-1.368 0-2.417-.395-3.15-1.191-.733-.793-1.097-1.931-1.097-3.414 0-1.486.367-2.621 1.1-3.405.735-.781 1.787-1.173 3.159-1.173 1.371 0 2.42.395 3.145 1.185.727.787 1.09 1.922 1.09 3.402 0 1.477-.366 2.612-1.099 3.405-.733.796-1.782 1.191-3.148 1.191zm.011-7.609c-.752 0-1.322.251-1.702.759-.383.505-.575 1.257-.575 2.254 0 .997.189 1.75.566 2.254.38.502.944.756 1.699.756 1.507 0 2.263-1.003 2.263-3.01 0-2.01-.75-3.013-2.251-3.013zm-10.351-1.433h1.894v8.92h-1.894v-8.92zm-6.142 8.92h-1.893v-7.346h-2.424v-1.574h6.737v1.574h-2.421v7.346h.001zm-9.699-.273c-.558.263-1.216.395-1.976.395-1.147 0-2.038-.295-2.673-.881-.636-.589-.952-1.395-.952-2.414v-5.747h1.884v5.459c0 .69.139 1.195.416 1.518.278.32.733.48 1.372.48.619 0 1.068-.16 1.346-.486.281-.323.419-.831.419-1.521v-5.449h1.884v5.772c0 .659-.147 1.235-.441 1.734-.294.494-.721.877-1.279 1.14zm-14.95-8.647h1.893v7.359h3.617v1.561h-5.51v-8.92zm-8.444 9.042c-1.369 0-2.417-.395-3.15-1.191-.733-.793-1.1-1.931-1.1-3.414 0-1.486.367-2.621 1.102-3.405.733-.781 1.788-1.173 3.159-1.173 1.371 0 2.421.395 3.145 1.185.728.787 1.088 1.922 1.088 3.402 0 1.477-.364 2.612-1.096 3.405-.733.796-1.783 1.191-3.148 1.191zm.011-7.609c-.753 0-1.322.251-1.702.759-.383.505-.575 1.257-.575 2.254 0 .997.189 1.75.567 2.254.38.502.944.756 1.699.756 1.507 0 2.262-1.003 2.262-3.01 0-2.01-.749-3.013-2.251-3.013zm-12.43 7.487l-3.029-8.92h1.91l1.679 5.308c.092.314.189.681.288 1.094.1.417.161.709.187.868.044-.373.197-1.025.458-1.963l1.69-5.308h1.91l-3.031 8.92h-2.062v.001zm-11.253-8.92h5.137v1.549h-3.247v1.96h3.02v1.549h-3.02v2.301h3.247v1.561h-5.137v-8.92zm-11.741 8.92h-1.894v-7.346h-2.42v-1.574h6.736v1.574h-2.423v7.346h.001zm-9.929-8.92h1.89v8.92h-1.89v-8.92z"/></svg>