<svg xmlns="http://www.w3.org/2000/svg" width="200" height="200.057" viewBox="0 0 200 200.057"><path fill="#FFA200" d="M95.374 178.856c-5.62-.263-11.143-1.157-16.542-2.728-22.563-6.565-39.126-20.41-49.758-41.314-4.037-7.937-6.406-16.415-7.487-25.27-4.772-39.088 19.97-75.638 58.124-85.89 7.925-2.128 16.015-2.97 24.206-2.54 36.383 1.9 65.932 27.833 73.274 62.143 8.933 41.748-16.087 81.287-55.32 92.704-5.55 1.616-11.22 2.6-17 2.89-.68-1.087.066-1.696.82-2.2 1.103-.74 2.186-1.483 3.11-2.447 1.94-2.02 2.26-4.887.763-7.267-.77-1.225-1.816-2.196-2.958-3.07-.545-.417-1.125-.796-1.584-1.316-.412-.47-.572-1.015-.4-1.62.194-.692.785-.807 1.38-.846 1.16-.077 2.324-.043 3.47-.307 1.975-.454 2.543-1.055 2.938-3.025.453-2.258.25-4.536.275-6.806.035-3.168.06-3.23 3.156-3.24 1.01-.002 2-.165 3-.25 1.045-.09 1.505-.542 1.48-1.606-.057-2.327.27-4.657.25-6.965-.06-7.3.563-14.587.383-21.887-.024-.953.03-1.9.21-2.843.195-1.037.66-1.79 1.77-1.958.923-.14 1.24-.698 1.178-1.557-.107-1.475-.34-2.94-.354-4.425-.007-.703-.456-1.09-1.12-1.08-1.8.02-2.563-1.164-3.258-2.563-4.094-8.246-8.26-16.457-12.31-24.724-.804-1.638-1.808-2.265-3.652-2.37-4.323-.246-8.642-.64-12.954-1.065-1.014-.1-1.86.06-2.658.702-2.265 1.827-4.51 3.678-6.763 5.518-.874.714-1.084 1.542-.982 2.654.623 6.79 1.196 13.583 1.795 20.374.163 1.844.25 3.694.482 5.53.2 1.587.208 3.13-.444 4.67-.64 1.52.4 4.92 1.677 5.87.45.338.725.76.903 1.268.173.5.242 1.04.456 1.52 2.214 4.96 2.507 10.184 2.34 15.525-.157 4.97-.035 9.946-.034 14.92 0 .582-.014 1.165.035 1.745.293 3.507 1.907 5.273 5.35 5.86 3.19.544 3.19.544 3.19 3.838 0 4.445.01 8.89-.006 13.334 0 .724.135 1.495-.425 2.116z"/><path d="M95.374 178.856l-.016-16.672c0-.37-.018-.742.002-1.11.032-.59-.195-.876-.82-.866-.846.014-1.682-.095-2.518-.266-3.27-.666-5.114-2.855-5.162-6.23-.03-2.118-.022-4.235-.02-6.352.002-5.663 0-11.327.026-16.99.005-1.02-.122-1.99-.45-2.956-.847-2.504-1.658-5.02-2.476-7.534-.182-.558-.263-1.21-1.133-.798-.337.16-.477-.09-.543-.366-.408-1.696-.812-3.392-1.21-5.09-.094-.393.022-.748.312-1.013.754-.69.762-1.547.68-2.476-.382-4.268-.725-8.54-1.095-12.807-.373-4.32-.763-8.64-1.15-12.96-.09-1-.174-2.003-.284-3-.075-.676.074-1.18.657-1.643 2.608-2.076 5.187-4.19 7.744-6.33.538-.45 1.075-.588 1.74-.53 5.166.443 10.33.9 15.5 1.283.99.073 1.33.643 1.697 1.382 4.383 8.805 8.808 17.59 13.147 26.417.6 1.216 1.284 1.736 2.646 1.665 1.464-.077 1.47.028 1.57 1.463.123 1.793.223 3.59.38 5.382.064.748-.215 1.005-.945 1.113-2.014.298-2.05.332-2.102 2.39-.184 7.195-.334 14.39-.505 21.587-.08 3.386-.174 6.772-.27 10.158-.032 1.106-.043 1.12-1.127 1.186-1.743.106-3.487.195-5.23.283-1.336.066-1.344.06-1.358 1.454-.023 2.224-.018 4.447-.053 6.67-.06 3.813-1.224 4.99-5.053 5.13-.633.022-1.27-.023-1.904.014-.38.022-.958-.244-1.066.345-.108.59-.253 1.252.446 1.705 1.246.806 2.42 1.71 3.455 2.782 1.43 1.48 2.162 3.225 2.116 5.3-.034 1.504-.54 2.776-1.625 3.833-1.03 1.005-2.17 1.874-3.42 2.563-.794.438-1.208.97-1.08 1.877-3.166.26-6.332.27-9.498.003zm6.48-114.707c.157.024.357.09.558.087 1.52-.008 1.682.235 1.947-1.49.527-3.447 1.2-6.872 1.8-10.31.293-1.687.362-1.763 1.984-1.783 3.028-.037 2.577.02 2.156 2.426-.772 4.428-1.538 8.855-2.32 13.28-.26 1.464-.387 1.58-1.845 1.584-4.87.012-9.74.014-14.608 0-1.364-.005-1.485-.13-1.253-1.487.837-4.898 1.717-9.79 2.566-14.685.13-.742.497-1.132 1.27-1.117.69.014 1.378-.026 2.065.01.945.047 1.1.237.944 1.175-.306 1.825-.637 3.646-.96 5.467-.353 1.978-.724 3.952-1.06 5.933-.156.926-.09.973.858 1.006 1.378.048 1.397.03 1.63-1.297l1.896-10.78c.24-1.37.365-1.48 1.725-1.516 2.815-.075 2.832-.072 2.357 2.67-.567 3.282-1.167 6.558-1.75 9.837-.054.305-.164.614.037.988zm31.876-4.14c-.58.933-1.168 1.865-1.74 2.805-.293.478-.64.784-1.26.8-1.073.028-1.27-.068-1.577-1.104-.12-.404-.18-.83-.317-1.226-.135-.392-.055-.854-.38-1.194-.53.01-.322.46-.366.694-.36 1.92-.674 3.85-1.024 5.774-.212 1.165-.408 1.323-1.54 1.39-3 .177-3.017.174-2.504-2.813.734-4.27 1.493-8.536 2.245-12.803.276-1.563.39-1.678 1.922-1.673 2.853.01 2.356-.306 3.29 2.323l1.05 2.99c.03.087.13.15.253.288.74-.543 1.105-1.384 1.635-2.084.573-.758 1.142-1.528 1.634-2.34.558-.92 1.303-1.23 2.374-1.205 2.465.055 2.484.008 2.074 2.39-.752 4.374-1.52 8.746-2.293 13.116-.31 1.755-.378 1.797-2.135 1.812-2.497.02-2.485.022-2.038-2.426.33-1.816.627-3.64.94-5.46l-.247-.055zm-61.34 7.94c-2.05-.005-2.097-.055-1.748-2.04.247-1.407.513-2.808.758-4.213.21-1.205.2-1.21-1.085-1.23-.212-.003-.424.016-.634-.002-.65-.056-.94.238-1.04.886-.275 1.72-.603 3.435-.915 5.15-.23 1.266-.377 1.4-1.636 1.44-.58.02-1.167.034-1.746-.005-.96-.064-1.113-.246-.95-1.19.533-3.07 1.087-6.137 1.635-9.205.333-1.87.65-3.747 1.014-5.613.22-1.13.36-1.265 1.433-1.263 3.113.006 3.17-.413 2.536 2.797-.133.676-.254 1.353-.344 2.033-.136 1.02-.11 1.036.977 1.074 1.61.056 1.614.057 1.913-1.537.204-1.09.41-2.182.585-3.277.12-.75.512-1.12 1.28-1.1.688.015 1.378-.028 2.063.008.944.05 1.09.234.926 1.187-.62 3.592-1.257 7.18-1.89 10.77-.22 1.25-.43 2.5-.674 3.744-.3 1.523-.35 1.554-1.827 1.586l-.633.004zm76.9 6.092c1.377 0 2.753-.023 4.128.008.99.023 1.127.18.96 1.143-.83 4.79-1.677 9.58-2.535 14.366-.2 1.107-.392 1.23-1.62 1.274-2.777.1-2.762.103-2.258-2.645.563-3.068 1.112-6.138 1.618-9.215.076-.464.55-1.203-.437-1.372-1.14-.196-1.517.028-1.712 1.008-.424 2.125-.812 4.258-1.268 6.375-.245 1.137-.634 2.238-1.202 3.264-1.097 1.98-2.84 2.73-5.03 2.646-.75-.03-1.067-.334-.852-1.11.112-.405.126-.836.208-1.25.126-.635.258-1.182 1.132-1.25.9-.07 1.067-.93 1.268-1.638.72-2.548 1.172-5.153 1.635-7.755.166-.936.35-1.87.514-2.807.13-.754.564-1.066 1.324-1.052 1.374.024 2.75.006 4.126.007zm-34.45-5.956c-.175-.012-.657-.005-1.122-.087-2.056-.363-3.26-1.708-3.392-3.8-.047-.738.01-1.47.157-2.206.395-1.968.665-3.96 1.088-5.922.843-3.897 3.33-5.757 7.28-5.538 2.636.146 4.03 1.593 4.09 4.27.032 1.492-.365 2.93-.6 4.39-.2 1.25-.395 2.508-.7 3.737-.825 3.34-3.14 5.148-6.8 5.156zm-25.83-2.16c.014.263.012.53.045.79.1.8-.247 1.206-1.047 1.222l-1.43.01c-1.325.042-1.825-.13-1.873-1.66-.036-1.153-.154-1.15-1.345-1.174-.212-.004-.428.027-.634-.006-1.32-.208-2.253.135-2.546 1.6-.185.927-.87 1.233-1.77 1.24-3.596.034-2.91-.03-1.85-2.514 1.868-4.378 3.802-8.727 5.627-13.122.493-1.187 1.107-1.73 2.46-1.692 3.02.083 3.05.01 3.317 2.97.37 4.108.692 8.222 1.035 12.334h.01zm57.2-8.042c.796-1.976 1.54-3.835 2.293-5.69.61-1.508.64-1.53 2.18-1.538 3.383-.015 3.028-.155 1.72 2.605-1.495 3.154-3.028 6.29-4.54 9.435-.48 1.003-1.015 1.97-1.672 2.874-1.58 2.172-3.795 2.717-6.313 2.49-.617-.056-.997-.34-.81-1.048.053-.204.074-.416.105-.626.302-2.072.302-2.072 2.34-2.003 1.02.035 1.353-.256 1.22-1.336-.2-1.625-.503-3.238-.785-4.852-.346-1.978-.725-3.95-1.075-5.93-.246-1.39-.09-1.577 1.315-1.61.635-.014 1.27-.018 1.905.003 1.116.035 1.272.155 1.372 1.274.155 1.738.26 3.48.39 5.222.015.192-.037.41.36.73zm-93.688-.12c.754-1.88 1.495-3.742 2.247-5.6.587-1.455.655-1.504 2.2-1.51 3.243-.008 3.04-.21 1.67 2.64-1.51 3.143-3.025 6.285-4.53 9.43-.505 1.053-1.07 2.065-1.778 2.996-1.588 2.086-3.78 2.56-6.226 2.335-.628-.058-.975-.375-.79-1.067.056-.203.09-.413.12-.622.31-2.035.31-2.035 2.36-1.98 1.007.028 1.338-.267 1.2-1.357-.206-1.625-.523-3.235-.807-4.848-.35-1.977-.724-3.95-1.06-5.93-.236-1.388-.076-1.564 1.334-1.596.582-.013 1.164-.012 1.746 0 1.3.028 1.4.1 1.524 1.453.156 1.683.26 3.373.392 5.06.02.224-.053.523.396.594zm80.703 29.432c1.48 0 2.79-.015 4.1.004 1.31.02 1.368.102 1.208 1.367-.027.21-.064.418-.105.625-.317 1.586-.357 1.63-1.942 1.64-2.22.01-4.44.018-6.66-.005-1.268-.013-1.377-.134-1.163-1.373.808-4.68 1.63-9.36 2.472-14.036.244-1.352.285-1.364 1.63-1.373 2.22-.015 4.44-.018 6.66 0 1.29.012 1.3.05 1.096 1.394l-.065.47c-.28 1.65-.3 1.67-2.037 1.68-.95.003-1.904-.025-2.853.02-.578.026-1.313 1.872-.942 2.314.183.218.473.2.738.202.95.002 1.905-.024 2.855.013.864.033 1.046.225.868 1.074-.53 2.52.057 2.45-2.814 2.436-2.494-.01-2.494 0-2.86 2.47l-.184 1.077zM99.363 27.644c1.64 0 3.278.018 4.917-.007.777-.01 1.063.323.918 1.068l-.02.157c-.517 2.87-.312 2.635-2.864 2.626-1.358-.005-1.375.015-1.612 1.35-.628 3.535-1.24 7.073-1.86 10.61l-.264 1.402c-.057.337-.205.652-.523.736-1.14.303-2.313.262-3.446.044-.607-.116-.414-.723-.33-1.203.534-3.016 1.05-6.036 1.567-9.054.17-.99.32-1.982.496-2.97.127-.706-.172-.956-.857-.924-.633.027-1.27.01-1.902-.018-.517-.023-.774-.332-.704-.84.102-.732.22-1.463.377-2.184.156-.726.726-.805 1.35-.8 1.583.01 3.17.003 4.756.004zm24.4 63.342c-.582-.033-1.17-.02-1.742-.106-2.507-.383-3.707-1.954-3.347-4.468.277-1.936.65-3.858.988-5.784.157-.885.278-1.782.52-2.644.52-1.865 1.713-3.13 3.575-3.72 1.538-.487 3.12-.577 4.71-.362 1.216.165 1.337.363 1.2 1.543-.03.262-.077.524-.13.782-.317 1.533-.352 1.553-1.86 1.32-.418-.066-.84-.147-1.258-.134-1.308.043-2.004.5-2.285 1.78-.452 2.063-.83 4.148-1.106 6.24-.19 1.44.337 1.88 1.79 1.957.71.037 1.34-.303 2.03-.32.793-.02.93.123.84.91-.287 2.58-.673 2.93-3.287 2.978h-.636v.028z"/><path fill="#010000" d="M90.006 27.642c2.736-.063 2.2.25 1.87 2.115-.85 4.843-1.682 9.69-2.532 14.532-.236 1.34-.362 1.43-1.77 1.46-.423.007-.847.005-1.27 0-1.497-.03-1.61-.165-1.344-1.697.824-4.74 1.663-9.477 2.475-14.22.374-2.188.35-2.192 2.57-2.192zm65.58 63.193c-2.005-.003-2.062-.047-1.735-1.91.79-4.477 1.588-8.953 2.404-13.425.263-1.44.295-1.458 1.723-1.453 2.846.01 2.76-.354 2.212 2.63-.746 4.054-1.44 8.12-2.166 12.18-.355 1.983-.367 1.98-2.437 1.978z"/><path fill="#FEFEFE" d="M119.62 112.57c-.08 4.79-.15 9.44-.243 14.088-.112 5.604-.24 11.207-.37 16.81-.032 1.387.126 1.4-1.38 1.425-3.648.063-7.295.146-10.943.218-1.16.025-1.204.026-1.318-1.172-.28-2.946-.517-5.897-.766-8.846-.606-7.16-1.206-14.324-1.815-21.485-.102-1.193-.118-1.236.797-1.227 5.28.052 10.562.124 16.04.192z"/><path fill="#FEFFFF" d="M118.202 102.817c-.462.22-.935.11-1.39.103-4.92-.076-9.84-.183-14.76-.23-.842-.008-1.3-.19-1.637-1.052-3.373-8.664-6.8-17.306-10.21-25.955-.097-.242-.26-.468-.137-.846 1.214.09 2.465.17 3.713.28 3.426.303 6.848.646 10.274.917 1.04.082 1.665.425 2.152 1.45 3.782 7.973 7.646 15.905 11.476 23.854.223.46.604.876.522 1.48z"/><path fill="#fff" d="M93.75 157.144c-1.308.243-2.365.028-3.31-.66-.952-.694-1.424-1.508-1.39-2.796.343-12.375.617-24.75.89-37.127.02-.837.008-1.55 1.1-1.7.52-.074.912-.508 1.277-.9 1.6-1.71 1.816-6.687-1.02-7.79-.14-.054-.266-.15-.443-.253 1.49-.81 2.978.087 3.197 1.767.043.312.01.634 0 .95-.368 9.78-.743 19.56-1.1 29.34-.2 5.445-.38 10.89-.558 16.337-.035 1.13-.043 2.27 1.36 2.835z"/><path fill="#FEFEFE" d="M100.87 105.17c.428-.027.685-.06.94-.056 6.237.11 12.474.224 18.71.344 1.146.022 1.15.038 1.257 1.217.097 1.052.18 2.106.283 3.157.054.552-.184.782-.726.724l-.16-.002c-6.235-.115-12.472-.24-18.708-.333-.71-.01-1.04-.197-1.098-.964-.098-1.314-.313-2.618-.5-4.086z"/><path fill="#FEA100" d="M106.11 151.287c0 .792-.01 1.584.004 2.376.01.514-.19.774-.73.802-1.265.067-2.53.153-3.79.26-.652.053-.982-.26-1.13-.845-.516-2.02.086-3.74 1.416-5.266.39-.447.913-.455 1.45-.484 2.857-.155 2.857-.16 2.82 2.682v.475h-.04z"/><path fill="#FDFDFD" d="M97.852 177.665c0-4.782.012-9.413-.012-14.045-.004-.702.263-.955.924-.895.304.028.62-.103.938.082.26.48.122 1.015.124 1.527.014 3.53.008 7.06.007 10.59 0 1.767 0 1.767-1.98 2.74z"/><path fill="#FBA000" d="M105.11 164.845c1.733 1.166 3.05 2.503 3.53 4.5.222.918-.063 1.778-.598 2.544-.74 1.054-1.728 1.8-2.88 2.406-.323-1.254-.363-7.426-.052-9.452z"/><path fill="#FAFAFA" d="M90.955 110.39c.03.732-.107 1.505-.582 2.173-.578.814-1.345.84-1.96.095-.89-1.08-.898-3.518-.015-4.616.622-.775 1.34-.764 1.952.03.393.51.602 1.286.605 2.317z"/><path fill="#FA9F00" d="M96.79 154.672c-1.387.19-1.402.19-1.43-.864-.03-1.258-.04-2.517-.047-3.775-.006-1.432 0-1.432 1.812-1.265-.897 1.934-.968 3.914-.336 5.904z"/><path fill="#FDA100" d="M118.68 55.79c-.444 2.384-.885 4.768-1.337 7.15-.04.204-.12.408-.222.59-.374.668-1.045.96-1.73.775-.75-.2-.8-.81-.72-1.39.23-1.725.52-3.442.79-5.16.075-.47.15-.94.26-1.4.097-.41.196-.83.37-1.208.36-.775 1.13-1.156 1.793-.937.798.263.743.924.798 1.58z"/><path fill="#E49200" d="M82.342 61.267c.498-1.51 1.07-3.002 1.903-4.448.287 1.372.243 2.755.228 4.133-.004.398-.315.508-.654.5-.467-.007-.947.104-1.48-.187z"/><path fill="#2E2929" d="M115.637 115.113c-.473-.035-.595-.37-.624-.75-.037-.476-.036-1.045.552-1.11.525-.06.627.488.65.892.025.41-.063.836-.578.968z"/><path fill="#171313" d="M110.508 114.098c-.12.416-.1.907-.55.91-.606.002-.68-.514-.676-.994.003-.362.034-.806.49-.83.666-.034.556.6.736.914z"/><path fill="#3C3939" d="M106.805 123.448c-.028.38-.123.793-.57.77-.492-.028-.647-.48-.666-.907-.018-.38.13-.782.575-.763.51.02.625.462.66.902z"/><path fill="#2B2727" d="M105.693 116.356c.58.166.714.62.715 1.084 0 .35-.13.8-.577.763-.577-.05-.665-.55-.66-1.038.004-.38.12-.698.524-.81z"/><path fill="#141313" d="M107.05 115.005c-.478-.098-.626-.462-.64-.894-.01-.395-.09-.905.482-.96.56-.052.638.46.678.85.04.4.005.836-.52 1.006z"/><path fill="#272222" d="M112.785 113.185c.502.193.636.637.587 1.116-.035.345-.13.814-.608.757-.613-.073-.624-.61-.603-1.083.02-.374.125-.723.626-.788z"/><path fill="#332D2D" d="M107.986 120.49c-.092.38-.17.814-.66.734-.516-.084-.582-.543-.57-.98.01-.397.125-.787.614-.714.523.078.53.572.616.96z"/><path fill="#252323" d="M118.37 121.367c-.597-.194-.663-.61-.62-1.02.037-.35.16-.803.615-.733.49.076.536.544.52.97-.014.402-.25.628-.514.783z"/><path fill="#353434" d="M112.836 119.53c.455.07.608.395.642.78.038.438-.022.917-.547.976-.45.05-.61-.39-.653-.758-.05-.43.055-.842.56-.997z"/><path fill="#1C1717" d="M119.018 114.14c-.078.42-.01.927-.59.966-.502.033-.558-.386-.57-.753-.016-.467-.024-1.022.624-1.02.464-.002.447.487.536.807z"/><path fill="#3A3333" d="M110.94 126.47c-.01.38-.072.776-.554.786-.48.01-.594-.406-.61-.776-.018-.376.1-.81.56-.8.416.004.578.38.603.79z"/><path fill="#232121" d="M116.2 120.477c-.083.367-.123.813-.577.807-.534-.007-.6-.47-.592-.894.01-.374.118-.792.54-.8.546-.006.55.506.63.887z"/><path fill="#2B2525" d="M105.19 120.452c-.023.432-.17.8-.62.733-.487-.074-.62-.515-.61-.958.01-.39.153-.778.62-.707.504.074.572.534.61.932z"/><path fill="#222020" d="M108.654 118.26c-.605-.2-.654-.653-.63-1.14.016-.335.158-.7.49-.688.615.02.69.574.696 1.033.004.348-.135.718-.556.795z"/><path fill="#221F1F" d="M116.924 116.55c.505.075.663.38.666.773.004.42-.012.9-.558.956-.477.046-.577-.388-.624-.746-.06-.448.13-.797.516-.985z"/><path fill="#464343" d="M114.982 134.378c-.095.3-.175.666-.565.646-.454-.024-.598-.402-.572-.792.022-.32.188-.662.554-.652.457.013.542.41.58.798z"/><path fill="#3F3A3A" d="M108.324 126.476c-.033.374-.125.757-.57.773-.434.014-.588-.34-.636-.72-.05-.4.09-.82.458-.87.493-.07.65.392.748.815z"/><path fill="#343434" d="M112.192 123.407c-.02.43-.14.836-.58.815-.52-.025-.612-.51-.618-.934-.005-.327.16-.668.508-.69.552-.035.653.404.69.81z"/><path fill="#101111" d="M114.19 118.273c-.573-.217-.526-.695-.48-1.16.033-.333.228-.663.563-.58.582.14.543.673.496 1.143-.036.337-.203.573-.58.597z"/><path fill="#363535" d="M116.966 122.603c.446.094.587.425.587.805 0 .374-.123.802-.54.832-.543.04-.657-.437-.654-.864.002-.38.162-.707.605-.773z"/><path fill="#101212" d="M111.977 117.398c-.032.358-.025.814-.5.83-.558.018-.6-.47-.618-.894-.02-.387.07-.834.495-.846.52-.015.58.48.62.91z"/><path fill="#141616" d="M104.67 114.047c-.024.354.003.842-.46.87-.64.04-.688-.54-.72-1.004-.027-.37.032-.828.523-.81.53.018.614.49.656.944z"/><path fill="#453E3E" d="M118.803 126.424c-.03.375-.116.77-.557.817-.46.05-.616-.31-.635-.71-.017-.397.138-.78.543-.837.46-.063.567.356.65.732z"/><path fill="#130D0D" d="M110.16 119.55c.538.23.54.7.47 1.176-.047.335-.244.613-.616.48-.486-.176-.47-.64-.43-1.056.03-.326.154-.61.577-.6z"/><path fill="#2B2424" d="M116.168 126.485c-.064.396-.132.74-.537.74-.475-.003-.59-.362-.58-.762.01-.392.13-.78.594-.75.485.03.45.493.525.772z"/><path fill="#3E3939" d="M113.69 131.784c-.095.362-.138.79-.63.74-.35-.033-.493-.352-.522-.674-.035-.395.115-.778.525-.81.455-.037.523.41.626.744z"/><path fill="#3E3737" d="M108.6 131.844c-.03.317-.11.657-.47.704-.46.06-.628-.3-.677-.682-.05-.394.09-.778.52-.797.448-.02.537.41.627.773z"/><path fill="#3E3838" d="M111.14 131.787c-.055.347-.114.7-.478.75-.463.06-.624-.3-.67-.68-.045-.394.1-.777.523-.804.463-.03.512.425.624.734z"/><path fill="#1F1D1D" d="M108.963 124.226c-.45-.09-.597-.404-.62-.8-.024-.393.038-.818.5-.845.456-.025.576.39.6.776.022.383-.036.74-.48.87z"/><path fill="#454242" d="M112.498 134.182c-.027.484-.12.86-.59.865-.395.005-.51-.365-.53-.67-.03-.38.093-.783.567-.775.367.006.44.384.553.58z"/><path fill="#231F1F" d="M114.907 129.21c-.096.334-.1.802-.595.742-.42-.05-.527-.44-.504-.824.02-.324.145-.645.5-.67.498-.034.498.417.6.75zm-8.288.794c-.437-.1-.56-.436-.56-.814.003-.3.03-.695.426-.708.55-.018.627.43.644.86.016.356-.153.586-.51.662z"/><path fill="#181818" d="M114.29 122.605c.456.085.54.435.537.81-.004.37-.077.812-.53.802-.42-.008-.537-.416-.55-.804-.015-.398.106-.71.544-.808z"/><path fill="#2C2424" d="M105.393 131.085c.432.054.59.385.618.77.024.323-.073.673-.464.693-.47.023-.603-.354-.638-.74-.032-.342.115-.607.486-.723z"/><path fill="#252121" d="M116.935 129.962c-.368-.037-.545-.28-.57-.605-.032-.423.017-.872.568-.9.4-.02.47.37.49.662.027.36-.054.72-.488.84z"/><path fill="#221A1A" d="M105.12 127.244c-.448-.052-.595-.36-.61-.763-.015-.393.08-.827.534-.792.39.03.554.433.545.846-.01.334-.053.638-.47.71z"/><path fill="#131212" d="M112.946 125.7c.344.027.518.25.553.583.036.356.09.756-.35.907-.38.13-.586-.136-.647-.454-.078-.413-.072-.833.442-1.036z"/><path fill="#1E1919" d="M109.13 129.976c-.457-.18-.53-.574-.458-1 .053-.31.23-.625.61-.477.466.18.47.622.39 1.04-.05.263-.21.457-.54.435z"/><path fill="#201B1B" d="M111.74 128.444c.468.09.543.452.536.835-.006.323-.096.7-.49.68-.448-.027-.57-.41-.562-.815.007-.347.147-.61.517-.702z"/><path fill="#2A2626" d="M116.14 131.774c-.07.292-.06.678-.457.71-.47.037-.61-.333-.607-.714.003-.378.14-.755.61-.713.39.033.388.42.454.717zm2.007-.762c.44.13.493.478.458.855-.03.328-.18.657-.54.608-.43-.058-.526-.437-.478-.832.04-.33.2-.57.56-.63z"/><path fill="#202222" d="M106.886 133.675c.35.054.53.27.563.62.037.404-.048.783-.524.77-.348-.01-.493-.342-.506-.683-.012-.337.076-.62.466-.707z"/><path fill="#352F2F" d="M105.983 137.713c-.56-.12-.665-.464-.635-.837.02-.246.145-.544.462-.52.533.04.633.447.594.884-.026.293-.276.39-.42.473z"/><path fill="#433C3C" d="M112.7 143.67c-.062.313-.12.64-.543.62-.323-.015-.43-.29-.457-.54-.033-.32.065-.653.447-.697.423-.048.475.31.552.618z"/><path fill="#312A2A" d="M109.467 133.642c.417.146.552.47.498.87-.046.34-.235.627-.62.515-.443-.128-.455-.53-.4-.91.042-.28.212-.465.522-.475z"/><path fill="#312E2E" d="M117.365 134.103c-.01.482-.085.886-.553.87-.343-.014-.5-.352-.493-.696.004-.34.154-.654.5-.7.41-.055.457.326.544.526z"/><path fill="#262929" d="M117.954 136.23c.304-.01.496.153.555.424.084.39-.008.747-.43.876-.318.097-.483-.16-.53-.417-.07-.367-.047-.736.403-.883z"/><path fill="#292626" d="M111.27 137.046c-.047.334-.168.64-.57.57-.364-.065-.464-.382-.444-.72.02-.345.176-.628.564-.565.368.06.463.373.45.717z"/><path fill="#342D2D" d="M116.833 139.87c-.368-.05-.515-.287-.524-.63-.01-.342.14-.634.485-.66.37-.026.5.277.514.612.012.344-.13.586-.478.677z"/><path fill="#3A2F2F" d="M110.213 139.33c-.02.373-.178.638-.55.614-.378-.024-.502-.334-.483-.666.018-.32.125-.658.528-.61.35.042.457.365.505.662z"/><path fill="#3E3434" d="M111.478 141.408c-.044.4-.117.707-.528.722-.332.012-.465-.247-.496-.506-.038-.32.04-.675.413-.74.41-.073.46.328.61.524z"/><path fill="#312C2C" d="M113.8 141.5c-.033.347-.16.628-.56.58-.295-.036-.418-.283-.432-.563-.018-.35.13-.67.484-.674.347-.003.507.305.507.656zm-4.963-4.4c-.064.273-.134.556-.465.54-.47-.022-.602-.374-.586-.768.01-.277.185-.517.482-.527.525-.016.51.413.57.756z"/><path fill="#262424" d="M113.242 137.607c-.41-.023-.486-.326-.51-.64-.026-.33.066-.653.458-.658.358-.006.53.27.544.612.013.346-.15.584-.492.684z"/><path fill="#272828" d="M115.638 136.267c.39.063.483.34.456.674-.026.316-.107.668-.504.63-.34-.034-.497-.33-.495-.675.004-.356.19-.567.543-.627z"/><path fill="#3B3A3A" d="M107.17 138.677c.392.044.576.266.62.613.042.352-.067.677-.437.724-.365.046-.54-.244-.594-.586-.06-.365.107-.602.41-.75z"/><path fill="#2D2525" d="M112.108 139.912c-.384-.034-.553-.262-.55-.628.005-.352.156-.648.528-.644.285.004.433.27.46.557.034.343-.042.63-.438.715z"/><path fill="#312A2A" d="M114.427 138.606c.39.042.54.313.543.647 0 .34-.16.622-.55.613-.326-.007-.43-.28-.437-.55-.01-.316.036-.636.444-.71z"/><path fill="#3B3232" d="M108.058 143.6c.045.53-.132.77-.495.76-.27-.01-.447-.22-.478-.51-.037-.345.09-.655.44-.685.346-.03.496.272.533.434z"/><path fill="#392F2F" d="M108.516 140.93c.362.022.523.25.554.594.024.27-.016.54-.324.615-.375.09-.593-.13-.657-.47-.066-.34.06-.61.425-.74z"/><path fill="#2A2222" d="M115.556 140.833c.364-.026.485.202.512.46.03.3.035.648-.347.734-.387.088-.55-.216-.592-.52-.048-.33.124-.58.43-.674z"/><path fill="#3B3838" d="M118.063 140.805c.29.1.44.367.36.697-.072.294-.232.628-.632.492-.347-.12-.38-.456-.31-.77.056-.26.19-.482.584-.42z"/><path fill="#252222" d="M106.728 141.47c.02.498-.166.724-.44.734-.38.014-.52-.287-.526-.64-.005-.288.084-.55.416-.545.38.004.508.3.55.45z"/><path fill="#3A3232" d="M109.994 144.313c-.388.024-.57-.215-.613-.54-.044-.34.137-.624.477-.666.282-.035.45.213.49.482.05.31.022.61-.352.722z"/><path fill="#2E2B2B" d="M114.4 143.045c.37-.03.533.195.588.448.073.337-.074.637-.426.724-.328.082-.473-.182-.51-.447-.047-.317-.01-.633.348-.725z"/><path fill="#393737" d="M117.265 143.377c.033.498-.154.79-.49.823-.25.024-.464-.226-.482-.532-.022-.36.114-.663.49-.68.27-.01.49.19.482.39z"/><path fill="#2D2B2B" d="M106.345 98.108c.446 0 1.014.596 1 1.05-.01.266-.214.368-.418.38-.446.025-1.03-.59-1.002-1.035.014-.25.217-.33.42-.395z"/><path fill="#272727" d="M103.923 101.5c-.04.287-.18.53-.49.47-.508-.094-.818-.444-.92-.95-.06-.304.1-.518.398-.55.428-.044.995.554 1.014 1.03z"/><path fill="#312828" d="M106.006 100.54c.525.167.902.5.913 1.094.003.292-.23.502-.527.396-.516-.184-.897-.526-.843-1.14.022-.232.21-.338.456-.35z"/><path fill="#332626" d="M115.387 102.267c-.532-.136-.894-.477-.957-1.06-.023-.21.13-.436.376-.395.573.097.93.457.972 1.045.013.178-.07.424-.39.41z"/><path fill="#1F1717" d="M100.89 99.358c-.46-.022-1.01-.65-.943-1.087.036-.232.21-.357.438-.35.465.01 1 .627.938 1.066-.035.25-.245.305-.432.373z"/><path fill="#191717" d="M109.005 100.688c.456.045.98.655.914 1.08-.04.247-.237.327-.445.316-.473-.023-.968-.62-.91-1.072.035-.254.23-.303.44-.324z"/><path fill="#251C1C" d="M111.85 100.765c.444-.06.98.43 1.015.95.014.21-.048.398-.305.432-.438.057-.987-.444-1.02-.948-.015-.217.062-.396.31-.436z"/><path fill="#322D2D" d="M112.852 93.754c.495.054.805.385.926.884.052.215-.06.43-.326.423-.56-.014-.847-.375-.968-.872-.05-.212.045-.41.368-.433z"/><path fill="#292525" d="M107.37 97.18c-.475-.01-.998-.605-.932-1.074.034-.24.205-.4.43-.334.488.142.838.465.88.994.017.197-.113.404-.38.414z"/><path fill="#302626" d="M112.42 96.034c.55-.044 1.086.495 1.077.978-.005.265-.18.363-.4.337-.523-.066-.813-.41-.907-.903-.04-.21.076-.39.23-.414z"/><path fill="#282323" d="M99.382 94.026c-.008.296-.207.425-.406.423-.56-.008-.842-.403-.955-.883-.07-.304.18-.49.476-.457.55.06.773.46.887.916z"/><path fill="#272323" d="M113.182 99.25c-.04.23-.078.484-.328.462-.575-.052-.93-.4-1.015-.97-.03-.192.062-.453.31-.433.58.045.89.426 1.03.94z"/><path fill="#322A2A" d="M104.742 90.924c.468.156.824.426.83.984.003.272-.215.362-.423.323-.52-.093-.83-.425-.856-.956-.015-.26.22-.312.447-.35z"/><path fill="#373131" d="M95.68 84.79c-.035.26-.156.43-.39.41-.522-.046-.84-.35-.894-.872-.023-.227.136-.392.375-.377.536.038.807.37.91.84z"/><path fill="#2B2525" d="M103.334 97.99c.44-.028 1.016.55.99 1.035-.012.192-.084.418-.36.433-.44.024-1.027-.558-1.002-1.034.01-.203.112-.407.372-.435z"/><path fill="#363030" d="M111.245 92.186c-.065.307-.273.392-.47.332-.48-.146-.837-.443-.815-.997.01-.254.247-.34.45-.28.485.144.808.454.835.947z"/><path fill="#2F2424" d="M98.898 90.63c.5.03.803.363.92.866.05.215-.063.423-.325.436-.58.028-.872-.325-.977-.835-.04-.196.064-.412.382-.466z"/><path fill="#302727" d="M107.18 93.48c.5.044.798.354.93.834.057.21-.004.408-.24.477-.41.123-1.034-.393-1.056-.877-.01-.218.1-.382.365-.432z"/><path fill="#151515" d="M100.886 95.557c.522.083.863.373.94.9.042.298-.12.54-.44.48-.51-.094-.81-.457-.885-.96-.034-.234.18-.347.387-.42z"/><path fill="#342828" d="M97.975 87.12c-.04.3-.243.382-.443.34-.498-.105-.82-.42-.818-.95 0-.238.252-.36.444-.317.49.112.813.415.817.927z"/><path fill="#353434" d="M107.566 91.07c.475.13.843.405.87.95.01.186-.104.44-.384.385-.515-.1-.852-.424-.92-.943-.028-.216.178-.36.434-.393z"/><path fill="#373B3B" d="M103.19 89.525c-.08.27-.234.45-.454.4-.496-.116-.844-.413-.85-.97 0-.274.23-.348.433-.325.543.064.77.45.87.895z"/><path fill="#312E2E" d="M110.97 94.5c.002.218-.062.413-.294.464-.39.085-1.043-.52-1.023-.96.01-.215.153-.385.392-.39.387-.01.87.465.926.886z"/><path fill="#2D2020" d="M100.325 89.425c-.093.24-.275.337-.486.29-.51-.108-.828-.414-.783-.964.018-.22.202-.375.44-.303.486.147.783.47.827.98z"/><path fill="#232626" d="M97.42 89.18c-.047.23-.168.45-.388.423-.514-.063-.835-.386-.92-.906-.044-.278.208-.39.385-.385.543.017.822.368.923.868z"/><path fill="#211515" d="M101.475 93.207c.44.164.803.45.833.964.017.29-.24.468-.522.378-.47-.15-.808-.45-.754-1.006.023-.23.183-.345.443-.333z"/><path fill="#373030" d="M102.774 86.524c.45.133.814.376.862.91.023.258-.158.376-.38.354-.516-.05-.834-.352-.882-.873-.022-.227.15-.358.4-.39z"/><path fill="#262929" d="M99.97 86.403c.488.08.826.342.822.905-.002.242-.182.396-.412.338-.432-.11-.742-.39-.822-.845-.043-.254.156-.35.41-.396z"/><path fill="#1A1616" d="M110.643 96.844c-.026.26-.122.456-.38.414-.52-.086-.83-.42-.906-.94-.04-.267.168-.39.385-.37.54.055.816.405.9.896z"/><path fill="#191212" d="M103.867 95.69c.558.062.83.423.95.887.083.324-.203.478-.458.44-.51-.076-.808-.412-.84-.937-.014-.233.135-.36.346-.39z"/><path fill="#1D2020" d="M101.828 90.823c.478.037.803.323.87.845.022.18-.04.45-.313.437-.532-.026-.838-.362-.95-.854-.053-.22.1-.376.393-.426z"/><path fill="#433C3C" d="M96.796 79.175c-.39-.164-.774-.355-.777-.864-.004-.254.23-.404.425-.347.41.12.787.343.793.856.003.272-.22.32-.444.356z"/><path fill="#342727" d="M105.09 88.75c.485.08.798.376.905.872.052.243-.107.395-.33.403-.564.02-.816-.375-.94-.834-.044-.165.095-.39.364-.44z"/><path fill="#352F2F" d="M105.967 84.67c.423.185.85.39.812.958-.02.26-.27.298-.463.25-.424-.11-.735-.365-.76-.834-.013-.24.18-.34.41-.375z"/><path fill="#2F2626" d="M100.396 84.312c.49.063.803.37.898.874.05.266-.186.36-.39.352-.48-.016-.752-.32-.838-.763-.036-.184.028-.41.33-.463z"/><path fill="#282929" d="M108.765 89.747c-.083.42-.247.524-.48.442-.418-.15-.724-.42-.778-.888-.034-.296.234-.36.413-.337.535.068.783.428.845.78z"/><path fill="#333" d="M98.625 83.197c-.522-.072-.817-.35-.918-.8-.056-.25.13-.39.363-.392.5-.004.78.3.85.758.03.186-.064.42-.295.434z"/><path fill="#332C2C" d="M96.163 82.61c-.037.3-.237.404-.435.374-.444-.068-.74-.35-.784-.804-.017-.18.065-.437.34-.41.523.055.807.37.88.84z"/><path fill="#171111" d="M110.267 99.172c0 .235-.106.405-.348.403-.547-.005-.83-.352-.95-.836-.05-.2.01-.417.247-.488.392-.117 1.008.43 1.05.92z"/><path fill="#423434" d="M109.156 87.67c.04.284-.09.435-.326.444-.497.02-.745-.31-.893-.725-.078-.22.023-.474.238-.487.54-.033.84.303.98.765z"/><path fill="#1D1919" d="M105.227 94.266c-.052.212-.073.458-.357.433-.538-.05-.842-.386-.932-.897-.04-.225.09-.414.35-.405.557.02.82.373.94.866z"/><path fill="#383737" d="M106.453 87.572c-.034.29-.21.47-.416.413-.474-.128-.875-.385-.844-.97.01-.167.14-.272.318-.266.56.02.84.345.944.82z"/><path fill="#1B1818" d="M116.008 99.484c-.035.247-.205.375-.42.31-.47-.14-.805-.442-.86-.96-.025-.235.103-.383.354-.378.49.01.975.552.926 1.028z"/><path fill="#2D2525" d="M110.586 89.076c.492.062.81.374.93.87.06.25-.127.386-.362.375-.48-.022-.76-.327-.875-.76-.053-.19.004-.412.305-.483z"/><path fill="#362E2E" d="M95.853 79.825c.44.038.735.322.815.776.03.177-.053.447-.348.425-.486-.037-.768-.356-.883-.785-.057-.21.116-.39.416-.415z"/><path fill="#222626" d="M103.21 84.526c.466.057.75.346.84.79.04.202-.122.457-.35.42-.437-.067-.765-.324-.846-.8-.047-.265.132-.355.356-.41z"/><path fill="#343232" d="M91.85 76.836c-.406-.153-.776-.353-.69-.89.025-.156.146-.276.335-.253.476.057.776.318.797.802.01.235-.19.35-.442.34z"/><path fill="#434141" d="M104.868 81.248c-.147.336-.317.464-.543.37-.4-.17-.782-.396-.714-.918.036-.258.273-.3.49-.235.44.133.674.446.77.783z"/><path fill="#372F2F" d="M101.32 83.352c-.473-.03-.77-.308-.86-.757-.044-.207.11-.434.36-.414.466.04.77.326.87.774.05.233-.102.386-.37.4z"/><path fill="#393737" d="M103.985 83.585c-.4-.16-.75-.372-.76-.88-.003-.276.2-.384.415-.334.436.104.757.38.788.85.017.244-.204.34-.443.366z"/><path fill="#211919" d="M97.665 84.166c.466.12.793.352.81.845.01.27-.26.396-.427.35-.414-.11-.775-.34-.786-.85-.006-.295.227-.296.403-.343z"/><path fill="#3A3B3B" d="M109.478 85.713c-.046.275-.212.436-.434.374-.428-.12-.756-.383-.774-.88-.01-.294.226-.364.423-.322.447.094.727.385.785.828z"/><path fill="#494040" d="M107.137 81.797c-.523-.046-.794-.32-.902-.755-.072-.288.178-.363.365-.36.464.012.745.284.84.736.06.286-.17.313-.303.38z"/><path fill="#2C2727" d="M101.814 78.45c.448.09.77.333.788.805.01.24-.248.308-.455.268-.385-.075-.646-.315-.715-.71-.05-.283.184-.314.382-.364z"/><path fill="#4A4040" d="M105.236 79.415c-.017.295-.194.424-.41.372-.424-.103-.748-.37-.793-.83-.023-.24.23-.404.417-.35.402.12.762.34.786.808z"/><path fill="#2A2323" d="M107.036 83.155c.1.385-.034.502-.177.526-.505.086-.788-.222-.95-.64-.087-.226.046-.41.298-.427.513-.034.713.33.826.543z"/><path fill="#3A2E2E" d="M102.19 76.62c.436.042.73.28.79.74.034.262-.173.34-.387.318-.396-.038-.642-.284-.747-.652-.07-.25.104-.354.343-.406z"/><path fill="#464848" d="M100.43 77.105c-.05.215-.116.44-.375.42-.462-.036-.766-.32-.863-.758-.043-.194.088-.425.352-.41.472.03.72.35.886.748z"/><path fill="#2E2020" d="M93.88 80.37c.003.225-.068.4-.326.407-.49.014-.753-.284-.843-.716-.036-.18.06-.427.327-.417.46.02.748.27.844.728z"/><path fill="#2E2424" d="M95.026 76.68c-.034.302-.235.36-.44.337-.396-.045-.65-.294-.74-.676-.065-.27.154-.37.358-.37.476.006.738.287.822.71z"/><path fill="#2C2121" d="M99.393 80.745c.05.284-.103.37-.245.4-.514.1-.78-.22-.922-.643-.07-.213.03-.418.307-.418.494 0 .75.298.86.66z"/><path fill="#332727" d="M101.343 80.253c.412.12.755.33.77.84.007.292-.23.36-.426.302-.42-.122-.775-.355-.698-.88.02-.153.146-.27.352-.262z"/><path fill="#2D2F2F" d="M99.138 78.207c.432.15.792.338.725.857-.032.243-.22.324-.45.25-.365-.12-.64-.333-.65-.76-.008-.264.173-.327.375-.347z"/><path fill="#1B1212" d="M93.7 77.827c.412.045.684.25.753.665.043.26-.114.39-.352.383-.42-.013-.657-.27-.75-.665-.067-.288.15-.333.35-.383z"/><path fill="#1B1919" d="M96.903 76.195c.435.072.75.284.76.79.002.19-.144.283-.294.267-.457-.047-.767-.274-.77-.773-.004-.17.11-.27.302-.286z"/><path fill="#131010" d="M104.813 76.897c.423.078.69.288.718.702.02.273-.205.337-.41.28-.37-.11-.633-.356-.612-.77.006-.128.144-.267.306-.214z"/></svg>