<?xml version="1.0" encoding="utf-8"?>
<!-- Generator: Adobe Illustrator 17.0.1, SVG Export Plug-In . SVG Version: 6.00 Build 0)  -->
<!DOCTYPE svg PUBLIC "-//W3C//DTD SVG 1.1//EN" "http://www.w3.org/Graphics/SVG/1.1/DTD/svg11.dtd">
<svg version="1.1" id="Layer_1" xmlns="http://www.w3.org/2000/svg" xmlns:xlink="http://www.w3.org/1999/xlink" x="0px" y="0px"
	 width="200px" height="200.057px" viewBox="0 0 200 200.057" enable-background="new 0 0 200 200.057" xml:space="preserve">
<g>
	<path fill="#FFA200" d="M95.374,178.856c-5.621-0.263-11.143-1.157-16.542-2.728c-22.563-6.565-39.126-20.411-49.758-41.314
		c-4.037-7.937-6.406-16.415-7.487-25.271c-4.772-39.087,19.969-75.637,58.124-85.888c7.923-2.129,16.013-2.97,24.204-2.542
		c36.383,1.9,65.932,27.834,73.274,62.144c8.934,41.748-16.086,81.287-55.32,92.704c-5.548,1.614-11.218,2.6-16.999,2.887
		c-0.679-1.086,0.066-1.695,0.821-2.201c1.102-0.738,2.185-1.481,3.11-2.445c1.939-2.019,2.26-4.887,0.762-7.267
		c-0.771-1.225-1.816-2.196-2.958-3.07c-0.545-0.417-1.125-0.796-1.584-1.316c-0.414-0.469-0.574-1.014-0.403-1.62
		c0.195-0.691,0.786-0.806,1.38-0.845c1.16-0.077,2.325-0.043,3.472-0.307c1.974-0.454,2.542-1.055,2.937-3.025
		c0.453-2.258,0.25-4.536,0.275-6.806c0.035-3.168,0.061-3.23,3.156-3.239c1.01-0.003,2.001-0.166,3.001-0.251
		c1.045-0.089,1.505-0.542,1.479-1.606c-0.056-2.327,0.271-4.657,0.252-6.965c-0.062-7.301,0.562-14.587,0.382-21.887
		c-0.024-0.953,0.031-1.899,0.209-2.843c0.196-1.037,0.662-1.791,1.77-1.958c0.924-0.14,1.242-0.698,1.179-1.557
		c-0.108-1.475-0.341-2.94-0.355-4.425c-0.007-0.703-0.456-1.089-1.121-1.081c-1.798,0.022-2.562-1.163-3.257-2.562
		c-4.094-8.246-8.26-16.457-12.311-24.724c-0.803-1.638-1.807-2.265-3.651-2.37c-4.323-0.246-8.642-0.641-12.954-1.065
		c-1.015-0.1-1.861,0.059-2.659,0.702c-2.265,1.827-4.51,3.678-6.763,5.518c-0.874,0.714-1.084,1.542-0.982,2.654
		c0.623,6.789,1.196,13.583,1.795,20.374c0.163,1.842,0.249,3.692,0.482,5.528c0.201,1.587,0.208,3.131-0.444,4.672
		c-0.642,1.518,0.401,4.917,1.676,5.87c0.45,0.336,0.725,0.757,0.903,1.266c0.174,0.5,0.243,1.039,0.457,1.519
		c2.214,4.962,2.507,10.185,2.339,15.526c-0.156,4.969-0.034,9.946-0.033,14.92c0,0.582-0.014,1.165,0.035,1.745
		c0.293,3.507,1.907,5.273,5.349,5.86c3.191,0.544,3.192,0.544,3.192,3.838c0,4.445,0.008,8.889-0.007,13.334
		C95.799,177.464,95.934,178.235,95.374,178.856z"/>
	<path d="M95.374,178.856c-0.005-5.557-0.01-11.115-0.016-16.672c0-0.371-0.018-0.742,0.002-1.111
		c0.032-0.59-0.195-0.875-0.819-0.865c-0.847,0.014-1.683-0.095-2.519-0.266c-3.269-0.666-5.114-2.855-5.162-6.231
		c-0.03-2.117-0.022-4.234-0.021-6.351c0.003-5.663,0-11.327,0.027-16.99c0.005-1.019-0.122-1.989-0.45-2.956
		c-0.847-2.504-1.658-5.02-2.476-7.534c-0.182-0.558-0.263-1.21-1.133-0.798c-0.337,0.159-0.477-0.091-0.543-0.366
		c-0.408-1.696-0.812-3.392-1.211-5.09c-0.093-0.393,0.023-0.748,0.313-1.013c0.754-0.689,0.762-1.547,0.679-2.476
		c-0.381-4.268-0.724-8.539-1.094-12.807c-0.375-4.321-0.765-8.64-1.151-12.96c-0.089-1.001-0.175-2.003-0.285-3.001
		c-0.075-0.675,0.074-1.178,0.657-1.642c2.608-2.076,5.187-4.191,7.744-6.33c0.538-0.45,1.075-0.588,1.741-0.531
		c5.165,0.444,10.329,0.9,15.499,1.284c0.99,0.073,1.329,0.643,1.697,1.382c4.383,8.805,8.808,17.59,13.147,26.417
		c0.599,1.218,1.283,1.738,2.645,1.667c1.464-0.077,1.47,0.028,1.569,1.463c0.124,1.794,0.224,3.591,0.38,5.383
		c0.065,0.748-0.214,1.005-0.944,1.113c-2.015,0.298-2.051,0.332-2.103,2.389c-0.184,7.196-0.334,14.392-0.505,21.588
		c-0.08,3.386-0.174,6.772-0.27,10.158c-0.032,1.106-0.043,1.12-1.127,1.186c-1.743,0.106-3.487,0.195-5.231,0.283
		c-1.335,0.067-1.343,0.06-1.357,1.455c-0.023,2.223-0.018,4.446-0.053,6.669c-0.06,3.813-1.224,4.989-5.053,5.129
		c-0.634,0.023-1.272-0.022-1.905,0.015c-0.379,0.022-0.958-0.244-1.066,0.345c-0.108,0.591-0.253,1.253,0.446,1.706
		c1.246,0.806,2.42,1.709,3.455,2.782c1.428,1.48,2.161,3.225,2.115,5.3c-0.033,1.504-0.54,2.776-1.624,3.833
		c-1.031,1.005-2.169,1.874-3.42,2.563c-0.794,0.438-1.208,0.969-1.08,1.877C101.706,179.112,98.54,179.122,95.374,178.856z"/>
	<path d="M101.855,64.149c0.156,0.026,0.356,0.09,0.557,0.089c1.521-0.008,1.682,0.235,1.947-1.489
		c0.529-3.448,1.202-6.873,1.801-10.31c0.294-1.688,0.363-1.764,1.985-1.784c3.028-0.037,2.577,0.02,2.156,2.426
		c-0.773,4.427-1.539,8.854-2.321,13.279c-0.259,1.464-0.387,1.58-1.845,1.584c-4.869,0.012-9.739,0.014-14.608-0.001
		c-1.364-0.004-1.485-0.128-1.253-1.486c0.837-4.898,1.717-9.789,2.566-14.685c0.129-0.742,0.497-1.132,1.271-1.117
		c0.688,0.014,1.377-0.026,2.064,0.009c0.945,0.048,1.101,0.238,0.944,1.176c-0.304,1.825-0.635,3.646-0.959,5.467
		c-0.352,1.978-0.723,3.952-1.058,5.933c-0.157,0.926-0.091,0.973,0.857,1.006c1.379,0.048,1.398,0.031,1.632-1.297
		c0.631-3.593,1.264-7.185,1.895-10.777c0.241-1.371,0.365-1.481,1.725-1.517c2.815-0.075,2.832-0.072,2.357,2.67
		c-0.567,3.282-1.167,6.558-1.75,9.837C101.764,63.466,101.654,63.775,101.855,64.149z"/>
	<path d="M133.73,60.009c-0.581,0.935-1.168,1.867-1.741,2.807c-0.292,0.478-0.639,0.784-1.258,0.8
		c-1.074,0.028-1.272-0.068-1.578-1.104c-0.119-0.405-0.179-0.829-0.317-1.227c-0.135-0.392-0.055-0.854-0.38-1.194
		c-0.531,0.01-0.322,0.458-0.366,0.693c-0.361,1.921-0.674,3.851-1.024,5.774c-0.212,1.165-0.408,1.323-1.541,1.39
		c-3,0.177-3.016,0.174-2.503-2.813c0.734-4.27,1.493-8.536,2.245-12.803c0.276-1.563,0.389-1.678,1.922-1.673
		c2.855,0.01,2.358-0.304,3.292,2.325c0.354,0.995,0.693,1.995,1.048,2.99c0.031,0.087,0.13,0.15,0.255,0.288
		c0.739-0.544,1.105-1.385,1.635-2.085c0.574-0.758,1.143-1.528,1.635-2.34c0.558-0.921,1.303-1.229,2.374-1.205
		c2.465,0.054,2.484,0.007,2.074,2.389c-0.752,4.374-1.52,8.746-2.293,13.116c-0.31,1.755-0.377,1.797-2.134,1.812
		c-2.497,0.021-2.485,0.023-2.038-2.425c0.331-1.816,0.627-3.639,0.939-5.459C133.893,60.046,133.812,60.028,133.73,60.009z"/>
	<path d="M72.39,67.949c-2.05-0.003-2.097-0.053-1.748-2.04c0.247-1.405,0.513-2.806,0.758-4.211c0.21-1.205,0.199-1.211-1.085-1.23
		c-0.212-0.003-0.424,0.016-0.634-0.002c-0.652-0.056-0.94,0.238-1.043,0.886c-0.274,1.721-0.602,3.434-0.914,5.149
		c-0.23,1.266-0.377,1.399-1.636,1.442c-0.581,0.02-1.166,0.032-1.745-0.007c-0.96-0.064-1.113-0.246-0.95-1.189
		c0.533-3.071,1.087-6.138,1.635-9.206c0.334-1.872,0.649-3.748,1.015-5.614c0.221-1.13,0.36-1.265,1.433-1.263
		c3.113,0.006,3.17-0.413,2.536,2.797c-0.133,0.674-0.254,1.351-0.344,2.031c-0.135,1.02-0.108,1.036,0.978,1.074
		c1.61,0.056,1.614,0.057,1.913-1.537c0.205-1.09,0.412-2.181,0.586-3.276c0.12-0.751,0.512-1.119,1.281-1.101
		c0.687,0.016,1.377-0.027,2.062,0.009c0.944,0.049,1.091,0.232,0.926,1.185c-0.62,3.592-1.257,7.181-1.89,10.771
		c-0.22,1.248-0.43,2.499-0.674,3.743c-0.299,1.522-0.351,1.553-1.827,1.585C72.813,67.952,72.602,67.948,72.39,67.949z"/>
	<path d="M149.291,74.043c1.376,0,2.752-0.023,4.127,0.008c0.99,0.022,1.127,0.178,0.96,1.142
		c-0.831,4.791-1.677,9.579-2.535,14.366c-0.199,1.109-0.392,1.231-1.619,1.276c-2.778,0.101-2.763,0.103-2.259-2.645
		c0.563-3.067,1.112-6.137,1.618-9.214c0.076-0.464,0.549-1.203-0.437-1.372c-1.141-0.196-1.517,0.028-1.712,1.008
		c-0.424,2.124-0.812,4.257-1.268,6.374c-0.245,1.137-0.634,2.238-1.202,3.264c-1.097,1.982-2.84,2.732-5.03,2.647
		c-0.751-0.029-1.067-0.334-0.852-1.11c0.112-0.405,0.126-0.836,0.208-1.251c0.126-0.634,0.258-1.181,1.132-1.25
		c0.899-0.07,1.067-0.928,1.268-1.637c0.721-2.547,1.172-5.152,1.635-7.754c0.166-0.936,0.351-1.87,0.514-2.807
		c0.131-0.754,0.566-1.066,1.326-1.052C146.539,74.06,147.915,74.042,149.291,74.043z"/>
	<path d="M114.841,68.087c-0.176-0.012-0.658-0.005-1.123-0.087c-2.056-0.362-3.26-1.707-3.392-3.8
		c-0.047-0.737,0.009-1.468,0.157-2.205c0.395-1.968,0.665-3.961,1.088-5.922c0.841-3.897,3.327-5.757,7.279-5.538
		c2.635,0.146,4.029,1.593,4.088,4.269c0.033,1.493-0.364,2.932-0.599,4.39c-0.202,1.251-0.395,2.509-0.699,3.738
		C120.814,66.272,118.501,68.079,114.841,68.087z"/>
	<path d="M89.01,65.926c0.014,0.264,0.012,0.531,0.045,0.792c0.101,0.799-0.247,1.205-1.047,1.221
		c-0.476,0.01-0.953-0.004-1.429,0.011c-1.326,0.042-1.826-0.131-1.874-1.66c-0.036-1.153-0.154-1.15-1.345-1.174
		c-0.212-0.004-0.428,0.027-0.634-0.006c-1.319-0.208-2.253,0.135-2.546,1.601c-0.185,0.926-0.869,1.232-1.771,1.24
		c-3.595,0.033-2.908-0.03-1.848-2.515c1.867-4.378,3.801-8.727,5.626-13.122c0.493-1.187,1.107-1.729,2.459-1.692
		c3.021,0.083,3.052,0.011,3.318,2.969c0.37,4.109,0.692,8.223,1.035,12.335C89.002,65.927,89.006,65.927,89.01,65.926z"/>
	<path d="M146.211,57.885c0.795-1.976,1.539-3.835,2.292-5.691c0.611-1.507,0.639-1.53,2.181-1.537
		c3.382-0.015,3.027-0.155,1.719,2.605c-1.495,3.153-3.028,6.289-4.539,9.434c-0.482,1.003-1.016,1.971-1.673,2.874
		c-1.581,2.173-3.797,2.718-6.315,2.491c-0.617-0.056-0.997-0.34-0.811-1.048c0.054-0.204,0.075-0.416,0.106-0.626
		c0.301-2.072,0.301-2.072,2.34-2.003c1.018,0.035,1.352-0.256,1.219-1.336c-0.2-1.625-0.503-3.238-0.785-4.852
		c-0.346-1.978-0.725-3.951-1.075-5.929c-0.246-1.392-0.09-1.578,1.315-1.61c0.635-0.015,1.271-0.019,1.905,0.002
		c1.116,0.036,1.272,0.156,1.372,1.275c0.155,1.738,0.259,3.481,0.39,5.222C145.867,57.348,145.815,57.566,146.211,57.885z"/>
	<path d="M52.522,57.765c0.754-1.88,1.495-3.742,2.247-5.599c0.589-1.456,0.657-1.505,2.203-1.51
		c3.242-0.009,3.041-0.212,1.67,2.638c-1.512,3.144-3.026,6.286-4.532,9.432c-0.504,1.052-1.068,2.064-1.777,2.995
		c-1.588,2.085-3.779,2.559-6.226,2.334c-0.628-0.058-0.975-0.375-0.789-1.067c0.055-0.203,0.088-0.413,0.12-0.622
		c0.31-2.035,0.31-2.035,2.36-1.979c1.006,0.027,1.337-0.268,1.199-1.358c-0.206-1.623-0.523-3.233-0.807-4.846
		c-0.348-1.977-0.723-3.95-1.059-5.929c-0.236-1.389-0.076-1.565,1.334-1.597c0.582-0.013,1.164-0.012,1.746,0
		c1.299,0.028,1.398,0.1,1.523,1.453c0.156,1.684,0.259,3.374,0.392,5.06C52.145,57.395,52.073,57.694,52.522,57.765z"/>
	<path d="M133.225,87.197c1.479,0,2.789-0.015,4.099,0.004c1.31,0.02,1.369,0.101,1.209,1.366c-0.027,0.209-0.064,0.418-0.105,0.625
		c-0.317,1.586-0.357,1.631-1.942,1.639c-2.22,0.011-4.44,0.019-6.659-0.004c-1.269-0.013-1.378-0.134-1.164-1.373
		c0.808-4.681,1.629-9.361,2.472-14.036c0.244-1.352,0.285-1.364,1.631-1.373c2.22-0.015,4.44-0.018,6.659,0.001
		c1.29,0.011,1.301,0.049,1.096,1.393c-0.024,0.157-0.04,0.315-0.067,0.471c-0.279,1.652-0.3,1.67-2.037,1.679
		c-0.951,0.005-1.904-0.023-2.853,0.021c-0.578,0.027-1.313,1.873-0.942,2.315c0.183,0.218,0.473,0.201,0.738,0.202
		c0.951,0.002,1.904-0.024,2.854,0.013c0.864,0.034,1.046,0.226,0.868,1.075c-0.529,2.519,0.057,2.449-2.814,2.436
		c-2.493-0.012-2.493-0.002-2.858,2.47C133.372,86.381,133.322,86.638,133.225,87.197z"/>
	<path d="M99.363,27.644c1.639,0.001,3.278,0.018,4.917-0.007c0.777-0.011,1.063,0.323,0.918,1.068
		c-0.01,0.052-0.01,0.105-0.019,0.157c-0.518,2.87-0.313,2.635-2.865,2.626c-1.358-0.005-1.375,0.015-1.612,1.349
		c-0.628,3.536-1.239,7.074-1.859,10.612c-0.082,0.468-0.186,0.932-0.265,1.401c-0.057,0.337-0.205,0.652-0.523,0.736
		c-1.139,0.303-2.313,0.262-3.446,0.044c-0.605-0.116-0.412-0.723-0.327-1.203c0.533-3.016,1.048-6.036,1.566-9.054
		c0.17-0.989,0.319-1.982,0.496-2.969c0.127-0.707-0.172-0.957-0.857-0.925c-0.633,0.029-1.269,0.011-1.902-0.016
		c-0.517-0.023-0.774-0.332-0.704-0.84c0.101-0.732,0.22-1.463,0.376-2.184c0.156-0.725,0.726-0.804,1.35-0.799
		C96.19,27.651,97.777,27.643,99.363,27.644z"/>
	<path d="M123.762,90.986c-0.581-0.033-1.169-0.019-1.741-0.106c-2.509-0.383-3.709-1.954-3.349-4.468
		c0.277-1.936,0.649-3.858,0.988-5.784c0.156-0.885,0.277-1.782,0.518-2.644c0.519-1.865,1.714-3.131,3.576-3.72
		c1.538-0.487,3.12-0.577,4.709-0.362c1.217,0.165,1.338,0.363,1.201,1.543c-0.03,0.262-0.077,0.524-0.13,0.782
		c-0.317,1.533-0.352,1.553-1.861,1.319c-0.417-0.065-0.84-0.146-1.257-0.133c-1.308,0.043-2.004,0.5-2.285,1.78
		c-0.453,2.063-0.832,4.148-1.107,6.241c-0.189,1.439,0.337,1.879,1.791,1.956c0.71,0.037,1.339-0.303,2.028-0.32
		c0.794-0.02,0.93,0.123,0.842,0.91c-0.288,2.581-0.674,2.931-3.288,2.978c-0.212,0.004-0.423,0.001-0.635,0.001
		C123.763,90.967,123.763,90.976,123.762,90.986z"/>
	<path fill="#010000" d="M90.006,27.642c2.736-0.063,2.199,0.249,1.871,2.115c-0.851,4.843-1.683,9.689-2.533,14.532
		c-0.236,1.342-0.362,1.432-1.77,1.46c-0.423,0.009-0.847,0.007-1.27,0c-1.497-0.027-1.61-0.163-1.344-1.695
		c0.824-4.74,1.663-9.477,2.475-14.22C87.809,27.646,87.786,27.642,90.006,27.642z"/>
	<path fill="#010000" d="M155.586,90.835c-2.005-0.003-2.062-0.047-1.735-1.909c0.787-4.478,1.586-8.954,2.402-13.426
		c0.263-1.44,0.295-1.458,1.723-1.453c2.846,0.009,2.761-0.354,2.212,2.629c-0.745,4.055-1.438,8.121-2.165,12.18
		C157.668,90.84,157.656,90.838,155.586,90.835z"/>
	<path fill="#FEFEFE" d="M119.621,112.57c-0.082,4.79-0.151,9.439-0.244,14.088c-0.112,5.604-0.24,11.207-0.37,16.81
		c-0.032,1.387,0.126,1.399-1.38,1.425c-3.648,0.063-7.295,0.146-10.943,0.218c-1.161,0.023-1.204,0.024-1.318-1.174
		c-0.279-2.946-0.517-5.897-0.766-8.846c-0.606-7.162-1.206-14.325-1.815-21.486c-0.102-1.193-0.118-1.236,0.797-1.227
		C108.863,112.43,114.144,112.502,119.621,112.57z"/>
	<path fill="#FEFFFF" d="M118.202,102.817c-0.462,0.221-0.935,0.11-1.389,0.103c-4.921-0.076-9.841-0.183-14.762-0.23
		c-0.841-0.008-1.3-0.189-1.636-1.052c-3.373-8.664-6.799-17.306-10.211-25.955c-0.096-0.242-0.26-0.468-0.136-0.846
		c1.214,0.091,2.465,0.169,3.713,0.28c3.424,0.303,6.846,0.646,10.272,0.917c1.041,0.082,1.665,0.425,2.152,1.451
		c3.782,7.972,7.646,15.904,11.476,23.853C117.903,101.798,118.284,102.214,118.202,102.817z"/>
	<path fill="#FFFFFF" d="M93.75,157.144c-1.308,0.243-2.365,0.028-3.311-0.661c-0.951-0.693-1.423-1.507-1.388-2.795
		c0.342-12.375,0.616-24.751,0.889-37.127c0.019-0.839,0.008-1.55,1.099-1.703c0.521-0.073,0.913-0.507,1.278-0.898
		c1.599-1.712,1.816-6.688-1.02-7.79c-0.141-0.055-0.266-0.151-0.443-0.254c1.491-0.81,2.978,0.087,3.197,1.767
		c0.041,0.312,0.009,0.634-0.003,0.951c-0.367,9.78-0.742,19.559-1.101,29.339c-0.2,5.445-0.379,10.891-0.556,16.337
		C92.355,155.44,92.347,156.58,93.75,157.144z"/>
	<path fill="#FEFEFE" d="M100.869,105.169c0.429-0.026,0.686-0.06,0.942-0.055c6.236,0.111,12.473,0.224,18.709,0.344
		c1.146,0.022,1.149,0.038,1.257,1.217c0.097,1.052,0.181,2.106,0.283,3.157c0.054,0.552-0.184,0.782-0.726,0.724
		c-0.052-0.006-0.106-0.001-0.159-0.002c-6.236-0.115-12.473-0.239-18.709-0.333c-0.709-0.011-1.04-0.199-1.098-0.966
		C101.27,107.941,101.055,106.637,100.869,105.169z"/>
	<path fill="#FEA100" d="M106.11,151.287c0,0.792-0.011,1.584,0.004,2.376c0.009,0.514-0.191,0.774-0.73,0.802
		c-1.265,0.067-2.529,0.153-3.791,0.259c-0.651,0.054-0.981-0.258-1.13-0.844c-0.515-2.021,0.087-3.741,1.417-5.266
		c0.389-0.447,0.913-0.455,1.449-0.484c2.858-0.155,2.858-0.161,2.821,2.682c-0.002,0.158,0,0.317,0,0.475
		C106.135,151.287,106.122,151.287,106.11,151.287z"/>
	<path fill="#FDFDFD" d="M97.852,177.665c0-4.782,0.012-9.413-0.012-14.045c-0.004-0.702,0.263-0.955,0.924-0.895
		c0.304,0.028,0.621-0.103,0.938,0.082c0.26,0.48,0.122,1.015,0.124,1.527c0.014,3.53,0.008,7.06,0.007,10.59
		C99.833,176.691,99.832,176.691,97.852,177.665z"/>
	<path fill="#FBA000" d="M105.11,164.845c1.733,1.166,3.05,2.503,3.531,4.501c0.221,0.917-0.064,1.777-0.599,2.543
		c-0.739,1.056-1.728,1.802-2.881,2.408C104.839,173.043,104.799,166.871,105.11,164.845z"/>
	<path fill="#FAFAFA" d="M90.955,110.389c0.031,0.733-0.107,1.506-0.582,2.174c-0.578,0.814-1.345,0.839-1.959,0.095
		c-0.89-1.079-0.899-3.518-0.016-4.616c0.622-0.775,1.34-0.764,1.952,0.029C90.743,108.581,90.952,109.358,90.955,110.389z"/>
	<path fill="#FA9F00" d="M96.789,154.672c-1.386,0.19-1.401,0.19-1.428-0.864c-0.032-1.258-0.042-2.517-0.048-3.775
		c-0.006-1.432,0.001-1.432,1.812-1.265C96.228,150.702,96.157,152.682,96.789,154.672z"/>
	<path fill="#FDA100" d="M118.68,55.79c-0.444,2.384-0.885,4.768-1.337,7.15c-0.039,0.204-0.12,0.408-0.222,0.589
		c-0.376,0.669-1.047,0.96-1.733,0.776c-0.748-0.201-0.798-0.811-0.72-1.391c0.232-1.724,0.52-3.441,0.792-5.16
		c0.074-0.469,0.15-0.939,0.259-1.4c0.097-0.409,0.196-0.828,0.372-1.207c0.359-0.775,1.127-1.156,1.791-0.937
		C118.68,54.473,118.625,55.134,118.68,55.79z"/>
	<path fill="#E49200" d="M82.342,61.267c0.498-1.511,1.071-3.002,1.903-4.448c0.287,1.374,0.243,2.757,0.228,4.135
		c-0.004,0.398-0.315,0.508-0.654,0.501C83.354,61.447,82.874,61.558,82.342,61.267z"/>
	<path fill="#2E2929" d="M115.637,115.113c-0.473-0.035-0.595-0.371-0.624-0.751c-0.037-0.475-0.036-1.044,0.552-1.11
		c0.525-0.059,0.627,0.489,0.651,0.893C116.24,114.555,116.152,114.981,115.637,115.113z"/>
	<path fill="#171313" d="M110.508,114.098c-0.12,0.416-0.099,0.907-0.551,0.909c-0.605,0.003-0.68-0.513-0.675-0.993
		c0.003-0.362,0.034-0.806,0.489-0.829C110.438,113.15,110.328,113.783,110.508,114.098z"/>
	<path fill="#3C3939" d="M106.805,123.448c-0.028,0.381-0.123,0.793-0.57,0.769c-0.492-0.027-0.647-0.478-0.666-0.906
		c-0.016-0.381,0.131-0.784,0.577-0.765C106.656,122.566,106.771,123.008,106.805,123.448z"/>
	<path fill="#2B2727" d="M105.693,116.356c0.579,0.166,0.714,0.619,0.715,1.084c0.001,0.349-0.129,0.801-0.577,0.763
		c-0.579-0.049-0.667-0.551-0.662-1.038C105.173,116.785,105.291,116.467,105.693,116.356z"/>
	<path fill="#141313" d="M107.051,115.005c-0.479-0.098-0.627-0.462-0.64-0.894c-0.011-0.397-0.091-0.907,0.481-0.961
		c0.559-0.053,0.638,0.458,0.678,0.85C107.611,114.398,107.575,114.835,107.051,115.005z"/>
	<path fill="#272222" d="M112.785,113.185c0.502,0.193,0.636,0.637,0.587,1.116c-0.035,0.343-0.13,0.812-0.608,0.755
		c-0.613-0.073-0.624-0.609-0.603-1.083C112.178,113.599,112.284,113.25,112.785,113.185z"/>
	<path fill="#332D2D" d="M107.986,120.489c-0.092,0.382-0.17,0.815-0.66,0.735c-0.516-0.084-0.582-0.543-0.571-0.981
		c0.01-0.396,0.126-0.786,0.615-0.713C107.893,119.608,107.9,120.102,107.986,120.489z"/>
	<path fill="#252323" d="M118.371,121.367c-0.598-0.194-0.664-0.611-0.621-1.021c0.037-0.349,0.161-0.802,0.615-0.732
		c0.489,0.076,0.536,0.544,0.521,0.971C118.871,120.986,118.635,121.212,118.371,121.367z"/>
	<path fill="#353434" d="M112.836,119.531c0.455,0.068,0.608,0.394,0.642,0.779c0.038,0.438-0.022,0.917-0.547,0.976
		c-0.452,0.051-0.613-0.39-0.655-0.758C112.227,120.098,112.331,119.686,112.836,119.531z"/>
	<path fill="#1C1717" d="M119.018,114.14c-0.078,0.42-0.011,0.927-0.59,0.966c-0.502,0.033-0.558-0.386-0.57-0.753
		c-0.016-0.467-0.024-1.022,0.624-1.021C118.946,113.331,118.929,113.82,119.018,114.14z"/>
	<path fill="#3A3333" d="M110.939,126.471c-0.009,0.379-0.071,0.775-0.553,0.785c-0.479,0.01-0.594-0.406-0.611-0.776
		c-0.017-0.376,0.1-0.809,0.561-0.801C110.752,125.684,110.914,126.06,110.939,126.471z"/>
	<path fill="#232121" d="M116.199,120.477c-0.082,0.367-0.122,0.813-0.576,0.807c-0.534-0.007-0.599-0.47-0.592-0.894
		c0.007-0.374,0.116-0.792,0.54-0.799C116.115,119.584,116.119,120.096,116.199,120.477z"/>
	<path fill="#2B2525" d="M105.189,120.452c-0.022,0.432-0.168,0.801-0.619,0.733c-0.487-0.074-0.619-0.515-0.609-0.958
		c0.009-0.391,0.152-0.778,0.62-0.707C105.084,119.594,105.152,120.054,105.189,120.452z"/>
	<path fill="#222020" d="M108.654,118.26c-0.605-0.201-0.654-0.653-0.63-1.14c0.016-0.335,0.158-0.699,0.49-0.688
		c0.615,0.019,0.691,0.574,0.696,1.033C109.214,117.813,109.075,118.183,108.654,118.26z"/>
	<path fill="#221F1F" d="M116.924,116.55c0.505,0.075,0.663,0.38,0.666,0.773c0.004,0.42-0.012,0.901-0.558,0.956
		c-0.477,0.048-0.577-0.386-0.624-0.744C116.349,117.087,116.537,116.738,116.924,116.55z"/>
	<path fill="#464343" d="M114.982,134.378c-0.095,0.299-0.175,0.666-0.565,0.646c-0.454-0.024-0.598-0.402-0.572-0.792
		c0.022-0.32,0.188-0.662,0.554-0.652C114.858,133.593,114.943,133.99,114.982,134.378z"/>
	<path fill="#3F3A3A" d="M108.324,126.476c-0.033,0.374-0.125,0.757-0.571,0.773c-0.433,0.016-0.587-0.337-0.635-0.72
		c-0.051-0.399,0.091-0.818,0.458-0.869C108.069,125.59,108.226,126.053,108.324,126.476z"/>
	<path fill="#343434" d="M112.192,123.407c-0.021,0.43-0.14,0.836-0.579,0.815c-0.521-0.025-0.613-0.509-0.619-0.934
		c-0.005-0.327,0.159-0.668,0.508-0.69C112.054,122.563,112.155,123.002,112.192,123.407z"/>
	<path fill="#101111" d="M114.19,118.273c-0.573-0.217-0.526-0.695-0.48-1.159c0.033-0.334,0.228-0.664,0.563-0.582
		c0.582,0.142,0.543,0.674,0.496,1.144C114.735,118.013,114.568,118.249,114.19,118.273z"/>
	<path fill="#363535" d="M116.966,122.603c0.446,0.094,0.587,0.425,0.587,0.805c0,0.374-0.123,0.802-0.541,0.832
		c-0.542,0.039-0.656-0.437-0.653-0.864C116.363,122.997,116.523,122.669,116.966,122.603z"/>
	<path fill="#101212" d="M111.977,117.398c-0.032,0.358-0.025,0.814-0.499,0.83c-0.559,0.018-0.601-0.469-0.619-0.894
		c-0.017-0.387,0.073-0.834,0.497-0.846C111.877,116.473,111.937,116.969,111.977,117.398z"/>
	<path fill="#141616" d="M104.669,114.047c-0.023,0.354,0.004,0.842-0.459,0.871c-0.64,0.039-0.688-0.541-0.721-1.005
		c-0.026-0.37,0.033-0.828,0.524-0.811C104.544,113.121,104.627,113.593,104.669,114.047z"/>
	<path fill="#453E3E" d="M118.803,126.424c-0.031,0.375-0.116,0.77-0.557,0.817c-0.461,0.05-0.616-0.313-0.635-0.71
		c-0.019-0.399,0.136-0.783,0.541-0.839C118.611,125.629,118.719,126.048,118.803,126.424z"/>
	<path fill="#130D0D" d="M110.161,119.55c0.537,0.231,0.538,0.7,0.47,1.176c-0.048,0.335-0.245,0.613-0.617,0.479
		c-0.486-0.175-0.47-0.638-0.431-1.055C109.613,119.824,109.738,119.541,110.161,119.55z"/>
	<path fill="#2B2424" d="M116.168,126.485c-0.064,0.396-0.132,0.74-0.537,0.739c-0.477-0.002-0.592-0.361-0.583-0.761
		c0.009-0.392,0.129-0.781,0.595-0.75C116.128,125.744,116.093,126.206,116.168,126.485z"/>
	<path fill="#3E3939" d="M113.689,131.784c-0.094,0.362-0.137,0.789-0.63,0.741c-0.349-0.034-0.492-0.353-0.521-0.675
		c-0.035-0.395,0.115-0.778,0.525-0.811C113.518,131.003,113.586,131.449,113.689,131.784z"/>
	<path fill="#3E3737" d="M108.6,131.844c-0.031,0.317-0.109,0.657-0.471,0.704c-0.459,0.059-0.627-0.301-0.676-0.682
		c-0.051-0.394,0.09-0.778,0.52-0.797C108.421,131.049,108.51,131.479,108.6,131.844z"/>
	<path fill="#3E3838" d="M111.139,131.787c-0.054,0.347-0.113,0.699-0.477,0.749c-0.463,0.062-0.624-0.3-0.669-0.68
		c-0.046-0.393,0.1-0.776,0.522-0.803C110.978,131.023,111.027,131.478,111.139,131.787z"/>
	<path fill="#1F1D1D" d="M108.963,124.226c-0.449-0.089-0.597-0.404-0.621-0.801c-0.023-0.392,0.039-0.817,0.501-0.844
		c0.456-0.027,0.576,0.387,0.599,0.774C109.465,123.738,109.407,124.096,108.963,124.226z"/>
	<path fill="#454242" d="M112.498,134.182c-0.027,0.484-0.121,0.86-0.59,0.865c-0.395,0.005-0.509-0.365-0.531-0.67
		c-0.028-0.38,0.094-0.783,0.568-0.775C112.312,133.608,112.384,133.986,112.498,134.182z"/>
	<path fill="#231F1F" d="M114.907,129.209c-0.096,0.335-0.101,0.803-0.595,0.743c-0.42-0.051-0.527-0.439-0.504-0.824
		c0.019-0.324,0.145-0.645,0.5-0.67C114.806,128.424,114.806,128.875,114.907,129.209z"/>
	<path fill="#231F1F" d="M106.619,130.004c-0.435-0.1-0.56-0.436-0.557-0.814c0.002-0.299,0.031-0.695,0.425-0.708
		c0.551-0.018,0.627,0.43,0.644,0.861C107.146,129.698,106.977,129.928,106.619,130.004z"/>
	<path fill="#181818" d="M114.291,122.605c0.455,0.085,0.54,0.435,0.536,0.811c-0.004,0.37-0.077,0.811-0.529,0.801
		c-0.42-0.008-0.538-0.416-0.551-0.804C113.732,123.015,113.853,122.703,114.291,122.605z"/>
	<path fill="#2C2424" d="M105.393,131.085c0.432,0.054,0.591,0.385,0.618,0.771c0.022,0.322-0.075,0.672-0.466,0.692
		c-0.47,0.023-0.603-0.354-0.638-0.739C104.875,131.466,105.022,131.201,105.393,131.085z"/>
	<path fill="#252121" d="M116.935,129.962c-0.368-0.037-0.545-0.28-0.57-0.605c-0.032-0.423,0.017-0.872,0.568-0.899
		c0.401-0.02,0.47,0.368,0.491,0.661C117.45,129.48,117.369,129.839,116.935,129.962z"/>
	<path fill="#221A1A" d="M105.12,127.244c-0.448-0.052-0.595-0.36-0.61-0.763c-0.015-0.395,0.08-0.829,0.534-0.794
		c0.39,0.03,0.554,0.433,0.545,0.846C105.582,126.867,105.538,127.171,105.12,127.244z"/>
	<path fill="#131212" d="M112.946,125.7c0.344,0.027,0.518,0.249,0.553,0.583c0.038,0.356,0.092,0.756-0.35,0.907
		c-0.378,0.13-0.584-0.136-0.645-0.454C112.426,126.323,112.432,125.903,112.946,125.7z"/>
	<path fill="#1E1919" d="M109.131,129.976c-0.458-0.18-0.531-0.574-0.459-0.999c0.053-0.312,0.23-0.626,0.609-0.478
		c0.467,0.182,0.471,0.624,0.391,1.041C109.621,129.804,109.461,129.998,109.131,129.976z"/>
	<path fill="#201B1B" d="M111.741,128.444c0.467,0.091,0.542,0.452,0.535,0.835c-0.006,0.325-0.096,0.702-0.491,0.68
		c-0.447-0.025-0.569-0.41-0.561-0.813C111.231,128.799,111.371,128.535,111.741,128.444z"/>
	<path fill="#2A2626" d="M116.14,131.774c-0.071,0.292-0.06,0.678-0.457,0.71c-0.471,0.037-0.61-0.333-0.607-0.714
		c0.003-0.378,0.141-0.755,0.61-0.713C116.076,131.09,116.074,131.476,116.14,131.774z"/>
	<path fill="#2A2626" d="M118.147,131.012c0.439,0.131,0.493,0.478,0.458,0.855c-0.03,0.328-0.18,0.657-0.54,0.608
		c-0.429-0.058-0.526-0.437-0.478-0.832C117.628,131.312,117.787,131.072,118.147,131.012z"/>
	<path fill="#202222" d="M106.886,133.675c0.35,0.054,0.53,0.27,0.563,0.62c0.039,0.404-0.046,0.783-0.522,0.769
		c-0.348-0.01-0.493-0.341-0.506-0.682C106.408,134.045,106.496,133.762,106.886,133.675z"/>
	<path fill="#352F2F" d="M105.983,137.713c-0.559-0.119-0.665-0.464-0.635-0.837c0.02-0.246,0.145-0.544,0.462-0.52
		c0.533,0.041,0.633,0.447,0.594,0.884C106.378,137.533,106.128,137.629,105.983,137.713z"/>
	<path fill="#433C3C" d="M112.699,143.671c-0.061,0.312-0.119,0.639-0.542,0.619c-0.323-0.015-0.431-0.29-0.457-0.54
		c-0.033-0.321,0.065-0.653,0.447-0.697C112.57,143.005,112.622,143.363,112.699,143.671z"/>
	<path fill="#312A2A" d="M109.467,133.642c0.417,0.146,0.552,0.47,0.498,0.871c-0.046,0.34-0.235,0.626-0.62,0.514
		c-0.443-0.128-0.455-0.531-0.399-0.91C108.987,133.836,109.157,133.652,109.467,133.642z"/>
	<path fill="#312E2E" d="M117.365,134.103c-0.011,0.482-0.085,0.886-0.553,0.869c-0.343-0.013-0.5-0.351-0.493-0.695
		c0.006-0.339,0.156-0.654,0.503-0.7C117.232,133.522,117.278,133.903,117.365,134.103z"/>
	<path fill="#262929" d="M117.954,136.23c0.304-0.011,0.496,0.153,0.555,0.424c0.086,0.39-0.006,0.747-0.428,0.876
		c-0.318,0.097-0.483-0.161-0.531-0.417C117.482,136.746,117.504,136.377,117.954,136.23z"/>
	<path fill="#292626" d="M111.27,137.046c-0.047,0.334-0.168,0.639-0.569,0.569c-0.365-0.064-0.465-0.381-0.445-0.718
		c0.02-0.346,0.176-0.629,0.564-0.566C111.188,136.389,111.283,136.702,111.27,137.046z"/>
	<path fill="#342D2D" d="M116.833,139.869c-0.368-0.049-0.515-0.286-0.524-0.628c-0.009-0.343,0.142-0.635,0.487-0.66
		c0.371-0.027,0.501,0.276,0.514,0.611C117.323,139.536,117.182,139.778,116.833,139.869z"/>
	<path fill="#3A2F2F" d="M110.213,139.33c-0.021,0.373-0.178,0.638-0.55,0.614c-0.378-0.024-0.502-0.334-0.483-0.666
		c0.018-0.319,0.125-0.658,0.528-0.61C110.058,138.71,110.165,139.033,110.213,139.33z"/>
	<path fill="#3E3434" d="M111.478,141.408c-0.044,0.401-0.117,0.707-0.528,0.722c-0.332,0.012-0.465-0.247-0.496-0.506
		c-0.038-0.32,0.039-0.675,0.413-0.74C111.277,140.811,111.327,141.212,111.478,141.408z"/>
	<path fill="#312C2C" d="M113.799,141.499c-0.032,0.348-0.159,0.629-0.559,0.58c-0.295-0.035-0.418-0.282-0.432-0.562
		c-0.018-0.349,0.13-0.67,0.484-0.674C113.639,140.84,113.799,141.148,113.799,141.499z"/>
	<path fill="#312C2C" d="M108.837,137.101c-0.064,0.272-0.134,0.555-0.465,0.539c-0.469-0.022-0.602-0.374-0.586-0.768
		c0.011-0.277,0.185-0.517,0.482-0.527C108.793,136.329,108.779,136.758,108.837,137.101z"/>
	<path fill="#262424" d="M113.242,137.607c-0.41-0.023-0.486-0.326-0.51-0.641c-0.026-0.33,0.066-0.652,0.458-0.657
		c0.358-0.004,0.53,0.271,0.544,0.614C113.747,137.269,113.583,137.507,113.242,137.607z"/>
	<path fill="#272828" d="M115.638,136.267c0.39,0.063,0.483,0.34,0.456,0.674c-0.026,0.314-0.107,0.666-0.504,0.627
		c-0.339-0.033-0.497-0.331-0.495-0.674C115.099,136.538,115.285,136.327,115.638,136.267z"/>
	<path fill="#3B3A3A" d="M107.171,138.677c0.391,0.044,0.575,0.266,0.618,0.613c0.043,0.352-0.066,0.677-0.436,0.724
		c-0.365,0.046-0.54-0.244-0.594-0.586C106.701,139.063,106.868,138.826,107.171,138.677z"/>
	<path fill="#2D2525" d="M112.108,139.912c-0.384-0.034-0.553-0.262-0.549-0.628c0.004-0.352,0.155-0.648,0.527-0.644
		c0.285,0.004,0.433,0.271,0.461,0.557C112.58,139.54,112.504,139.827,112.108,139.912z"/>
	<path fill="#312A2A" d="M114.427,138.606c0.391,0.042,0.541,0.313,0.543,0.647c0.001,0.339-0.161,0.622-0.551,0.613
		c-0.325-0.007-0.428-0.28-0.436-0.549C113.972,139,114.019,138.68,114.427,138.606z"/>
	<path fill="#3B3232" d="M108.058,143.599c0.045,0.531-0.132,0.771-0.495,0.76c-0.269-0.008-0.447-0.22-0.478-0.508
		c-0.037-0.346,0.091-0.656,0.44-0.686C107.871,143.134,108.021,143.437,108.058,143.599z"/>
	<path fill="#392F2F" d="M108.516,140.93c0.362,0.022,0.523,0.25,0.554,0.594c0.024,0.271-0.016,0.539-0.324,0.615
		c-0.375,0.093-0.593-0.127-0.657-0.469C108.025,141.331,108.152,141.059,108.516,140.93z"/>
	<path fill="#2A2222" d="M115.556,140.833c0.364-0.026,0.485,0.202,0.512,0.461c0.031,0.298,0.035,0.647-0.347,0.733
		c-0.389,0.088-0.55-0.216-0.594-0.52C115.079,141.178,115.251,140.928,115.556,140.833z"/>
	<path fill="#3B3838" d="M118.063,140.805c0.291,0.1,0.441,0.367,0.36,0.697c-0.072,0.294-0.232,0.628-0.632,0.492
		c-0.349-0.119-0.381-0.456-0.313-0.769C117.535,140.965,117.67,140.742,118.063,140.805z"/>
	<path fill="#252222" d="M106.728,141.469c0.02,0.499-0.166,0.725-0.439,0.735c-0.382,0.014-0.521-0.287-0.527-0.639
		c-0.005-0.289,0.084-0.551,0.416-0.546C106.559,141.025,106.686,141.321,106.728,141.469z"/>
	<path fill="#3A3232" d="M109.994,144.313c-0.388,0.024-0.569-0.215-0.613-0.539c-0.046-0.342,0.135-0.625,0.475-0.667
		c0.282-0.035,0.449,0.213,0.49,0.482C110.395,143.901,110.368,144.2,109.994,144.313z"/>
	<path fill="#2E2B2B" d="M114.4,143.045c0.37-0.029,0.533,0.195,0.588,0.448c0.073,0.337-0.074,0.637-0.426,0.724
		c-0.328,0.082-0.473-0.182-0.511-0.447C114.005,143.453,114.042,143.137,114.4,143.045z"/>
	<path fill="#393737" d="M117.265,143.377c0.033,0.498-0.154,0.791-0.49,0.823c-0.251,0.024-0.464-0.226-0.482-0.532
		c-0.022-0.36,0.114-0.663,0.491-0.679C117.052,142.978,117.272,143.177,117.265,143.377z"/>
	<path fill="#2D2B2B" d="M106.345,98.108c0.446,0.001,1.014,0.596,0.999,1.051c-0.009,0.265-0.213,0.367-0.417,0.379
		c-0.446,0.025-1.029-0.59-1.002-1.035C105.939,98.254,106.142,98.173,106.345,98.108z"/>
	<path fill="#272727" d="M103.923,101.499c-0.039,0.288-0.179,0.53-0.489,0.472c-0.509-0.095-0.819-0.445-0.92-0.952
		c-0.06-0.303,0.098-0.517,0.397-0.548C103.337,100.426,103.904,101.024,103.923,101.499z"/>
	<path fill="#312828" d="M106.006,100.539c0.525,0.168,0.902,0.501,0.913,1.095c0.005,0.292-0.228,0.502-0.525,0.396
		c-0.516-0.184-0.897-0.526-0.843-1.141C105.572,100.658,105.759,100.552,106.006,100.539z"/>
	<path fill="#332626" d="M115.387,102.267c-0.532-0.136-0.894-0.477-0.957-1.059c-0.023-0.212,0.131-0.437,0.376-0.396
		c0.573,0.097,0.93,0.457,0.972,1.045C115.791,102.035,115.708,102.281,115.387,102.267z"/>
	<path fill="#1F1717" d="M100.891,99.358c-0.46-0.022-1.012-0.65-0.944-1.087c0.036-0.234,0.209-0.359,0.438-0.353
		c0.465,0.011,1.001,0.628,0.938,1.067C101.288,99.234,101.078,99.29,100.891,99.358z"/>
	<path fill="#191717" d="M109.005,100.688c0.456,0.045,0.979,0.655,0.914,1.079c-0.038,0.248-0.235,0.328-0.443,0.317
		c-0.473-0.023-0.968-0.621-0.909-1.072C108.601,100.758,108.795,100.709,109.005,100.688z"/>
	<path fill="#251C1C" d="M111.851,100.765c0.443-0.06,0.979,0.431,1.014,0.949c0.014,0.211-0.048,0.399-0.305,0.433
		c-0.438,0.057-0.987-0.444-1.021-0.948C111.525,100.984,111.602,100.805,111.851,100.765z"/>
	<path fill="#322D2D" d="M112.852,93.754c0.495,0.054,0.805,0.385,0.926,0.884c0.052,0.215-0.059,0.43-0.326,0.423
		c-0.559-0.016-0.847-0.377-0.968-0.874C112.433,93.975,112.529,93.776,112.852,93.754z"/>
	<path fill="#292525" d="M107.369,97.18c-0.474-0.01-0.997-0.605-0.931-1.074c0.034-0.241,0.205-0.4,0.431-0.334
		c0.487,0.142,0.837,0.465,0.88,0.994C107.765,96.963,107.635,97.17,107.369,97.18z"/>
	<path fill="#302626" d="M112.419,96.034c0.551-0.044,1.087,0.495,1.078,0.978c-0.005,0.265-0.181,0.363-0.399,0.337
		c-0.524-0.064-0.814-0.407-0.908-0.901C112.151,96.237,112.266,96.059,112.419,96.034z"/>
	<path fill="#282323" d="M99.382,94.026c-0.008,0.296-0.207,0.425-0.406,0.423c-0.56-0.006-0.842-0.401-0.955-0.881
		c-0.072-0.304,0.177-0.489,0.474-0.457C99.044,93.169,99.268,93.57,99.382,94.026z"/>
	<path fill="#272323" d="M113.182,99.251c-0.041,0.229-0.078,0.483-0.328,0.461c-0.575-0.052-0.931-0.399-1.015-0.97
		c-0.028-0.192,0.064-0.453,0.311-0.433C112.732,98.356,113.041,98.737,113.182,99.251z"/>
	<path fill="#322A2A" d="M104.742,90.924c0.468,0.156,0.824,0.426,0.83,0.984c0.003,0.272-0.215,0.362-0.423,0.323
		c-0.517-0.095-0.827-0.427-0.854-0.958C104.28,91.013,104.514,90.961,104.742,90.924z"/>
	<path fill="#373131" d="M95.679,84.79c-0.034,0.259-0.155,0.431-0.39,0.41c-0.521-0.046-0.839-0.349-0.893-0.872
		c-0.023-0.227,0.136-0.392,0.375-0.377C95.305,83.987,95.576,84.319,95.679,84.79z"/>
	<path fill="#2B2525" d="M103.334,97.989c0.44-0.027,1.016,0.55,0.989,1.036c-0.011,0.192-0.083,0.418-0.36,0.433
		c-0.439,0.024-1.026-0.558-1.001-1.034C102.973,98.221,103.074,98.017,103.334,97.989z"/>
	<path fill="#363030" d="M111.245,92.186c-0.065,0.307-0.273,0.392-0.471,0.332c-0.479-0.146-0.836-0.443-0.814-0.997
		c0.01-0.256,0.247-0.341,0.451-0.281C110.895,91.383,111.218,91.693,111.245,92.186z"/>
	<path fill="#2F2424" d="M98.898,90.631c0.5,0.03,0.803,0.362,0.919,0.865c0.05,0.215-0.062,0.423-0.324,0.436
		c-0.579,0.028-0.872-0.325-0.977-0.835C98.475,90.901,98.58,90.685,98.898,90.631z"/>
	<path fill="#302727" d="M107.179,93.48c0.502,0.044,0.799,0.354,0.931,0.834c0.057,0.209-0.004,0.408-0.24,0.477
		c-0.409,0.121-1.034-0.395-1.056-0.879C106.804,93.694,106.915,93.53,107.179,93.48z"/>
	<path fill="#151515" d="M100.886,95.557c0.522,0.083,0.863,0.373,0.939,0.901c0.043,0.297-0.118,0.54-0.44,0.48
		c-0.51-0.095-0.809-0.458-0.884-0.961C100.465,95.743,100.681,95.63,100.886,95.557z"/>
	<path fill="#342828" d="M97.975,87.12c-0.04,0.3-0.243,0.382-0.443,0.34c-0.498-0.105-0.819-0.419-0.818-0.949
		c0.001-0.239,0.252-0.362,0.444-0.318C97.649,86.305,97.971,86.608,97.975,87.12z"/>
	<path fill="#353434" d="M107.566,91.069c0.475,0.131,0.843,0.406,0.871,0.951c0.01,0.186-0.105,0.439-0.385,0.385
		c-0.515-0.099-0.852-0.424-0.919-0.943C107.104,91.246,107.31,91.101,107.566,91.069z"/>
	<path fill="#373B3B" d="M103.19,89.525c-0.08,0.271-0.234,0.45-0.454,0.399c-0.496-0.115-0.844-0.412-0.849-0.969
		c-0.002-0.274,0.23-0.348,0.432-0.325C102.864,88.694,103.091,89.079,103.19,89.525z"/>
	<path fill="#312E2E" d="M110.971,94.5c0.001,0.218-0.063,0.413-0.295,0.464c-0.389,0.085-1.043-0.521-1.023-0.959
		c0.01-0.216,0.153-0.386,0.392-0.392C110.432,93.605,110.915,94.079,110.971,94.5z"/>
	<path fill="#2D2020" d="M100.325,89.425c-0.093,0.239-0.275,0.337-0.486,0.291c-0.508-0.109-0.826-0.415-0.781-0.965
		c0.018-0.223,0.202-0.377,0.441-0.305C99.984,88.593,100.281,88.917,100.325,89.425z"/>
	<path fill="#232626" d="M97.42,89.18c-0.047,0.229-0.168,0.45-0.388,0.423c-0.514-0.063-0.835-0.386-0.919-0.906
		c-0.045-0.278,0.207-0.39,0.384-0.385C97.04,88.329,97.319,88.68,97.42,89.18z"/>
	<path fill="#211515" d="M101.475,93.207c0.441,0.164,0.803,0.451,0.833,0.964c0.017,0.29-0.24,0.466-0.522,0.376
		c-0.469-0.15-0.808-0.451-0.754-1.006C101.055,93.31,101.215,93.195,101.475,93.207z"/>
	<path fill="#373030" d="M102.774,86.524c0.451,0.133,0.814,0.376,0.862,0.911c0.023,0.257-0.158,0.375-0.379,0.353
		c-0.517-0.051-0.835-0.352-0.883-0.873C102.352,86.688,102.523,86.557,102.774,86.524z"/>
	<path fill="#262929" d="M99.969,86.403c0.489,0.079,0.827,0.342,0.823,0.905c-0.002,0.242-0.182,0.396-0.412,0.338
		c-0.432-0.109-0.742-0.39-0.822-0.845C99.515,86.545,99.714,86.451,99.969,86.403z"/>
	<path fill="#1A1616" d="M110.643,96.844c-0.026,0.261-0.122,0.456-0.379,0.414c-0.521-0.086-0.83-0.42-0.907-0.94
		c-0.039-0.267,0.168-0.391,0.385-0.369C110.283,96.003,110.558,96.353,110.643,96.844z"/>
	<path fill="#191212" d="M103.867,95.689c0.558,0.063,0.831,0.424,0.95,0.888c0.083,0.324-0.203,0.478-0.458,0.44
		c-0.508-0.076-0.806-0.412-0.837-0.937C103.507,95.847,103.656,95.719,103.867,95.689z"/>
	<path fill="#1D2020" d="M101.828,90.823c0.478,0.037,0.803,0.323,0.869,0.845c0.023,0.181-0.039,0.45-0.312,0.437
		c-0.532-0.026-0.838-0.362-0.951-0.854C101.382,91.028,101.534,90.873,101.828,90.823z"/>
	<path fill="#433C3C" d="M96.796,79.175c-0.391-0.164-0.774-0.355-0.777-0.864c-0.002-0.256,0.231-0.406,0.427-0.349
		c0.411,0.12,0.787,0.343,0.793,0.856C97.243,79.091,97.02,79.137,96.796,79.175z"/>
	<path fill="#342727" d="M105.089,88.749c0.486,0.08,0.799,0.377,0.906,0.873c0.052,0.243-0.107,0.395-0.331,0.403
		c-0.563,0.021-0.815-0.375-0.938-0.834C104.681,89.024,104.82,88.799,105.089,88.749z"/>
	<path fill="#352F2F" d="M105.967,84.669c0.423,0.186,0.85,0.392,0.812,0.959c-0.017,0.259-0.267,0.298-0.461,0.249
		c-0.424-0.108-0.735-0.364-0.76-0.833C105.545,84.803,105.737,84.704,105.967,84.669z"/>
	<path fill="#2F2626" d="M100.396,84.312c0.489,0.063,0.803,0.37,0.898,0.874c0.05,0.266-0.186,0.359-0.391,0.352
		c-0.479-0.016-0.751-0.321-0.837-0.763C100.03,84.591,100.094,84.365,100.396,84.312z"/>
	<path fill="#282929" d="M108.765,89.747c-0.083,0.421-0.247,0.524-0.479,0.442c-0.419-0.147-0.725-0.42-0.779-0.886
		c-0.034-0.296,0.234-0.36,0.413-0.337C108.455,89.034,108.703,89.394,108.765,89.747z"/>
	<path fill="#333333" d="M98.625,83.197c-0.522-0.072-0.817-0.349-0.918-0.8c-0.056-0.25,0.129-0.39,0.363-0.392
		c0.501-0.004,0.779,0.3,0.851,0.758C98.95,82.949,98.856,83.182,98.625,83.197z"/>
	<path fill="#332C2C" d="M96.163,82.609c-0.037,0.301-0.237,0.405-0.435,0.375c-0.444-0.068-0.741-0.349-0.784-0.804
		c-0.017-0.18,0.065-0.437,0.341-0.409C95.807,81.825,96.091,82.139,96.163,82.609z"/>
	<path fill="#171111" d="M110.267,99.172c0,0.235-0.106,0.405-0.348,0.403c-0.545-0.005-0.827-0.352-0.949-0.836
		c-0.05-0.2,0.012-0.415,0.248-0.486C109.61,98.136,110.226,98.683,110.267,99.172z"/>
	<path fill="#423434" d="M109.156,87.669c0.039,0.285-0.089,0.436-0.326,0.445c-0.497,0.019-0.745-0.311-0.893-0.725
		c-0.078-0.219,0.023-0.472,0.238-0.485C108.714,86.871,109.016,87.207,109.156,87.669z"/>
	<path fill="#1D1919" d="M105.227,94.266c-0.052,0.212-0.073,0.458-0.357,0.433c-0.538-0.049-0.842-0.384-0.932-0.895
		c-0.04-0.225,0.089-0.414,0.349-0.405C104.845,93.42,105.108,93.773,105.227,94.266z"/>
	<path fill="#383737" d="M106.453,87.572c-0.034,0.289-0.21,0.469-0.416,0.413c-0.474-0.128-0.875-0.385-0.844-0.97
		c0.009-0.167,0.139-0.272,0.318-0.266C106.069,86.769,106.349,87.096,106.453,87.572z"/>
	<path fill="#1B1818" d="M116.008,99.484c-0.035,0.247-0.205,0.375-0.419,0.311c-0.47-0.14-0.806-0.443-0.861-0.961
		c-0.025-0.235,0.103-0.383,0.354-0.378C115.573,98.466,116.057,99.008,116.008,99.484z"/>
	<path fill="#2D2525" d="M110.586,89.076c0.492,0.062,0.811,0.374,0.931,0.871c0.06,0.25-0.128,0.385-0.363,0.374
		c-0.481-0.024-0.759-0.329-0.875-0.761C110.228,89.37,110.285,89.147,110.586,89.076z"/>
	<path fill="#362E2E" d="M95.853,79.825c0.441,0.038,0.735,0.322,0.815,0.776c0.031,0.175-0.053,0.445-0.348,0.423
		c-0.486-0.037-0.768-0.356-0.883-0.785C95.38,80.03,95.553,79.85,95.853,79.825z"/>
	<path fill="#222626" d="M103.21,84.526c0.466,0.057,0.751,0.346,0.839,0.789c0.04,0.203-0.121,0.458-0.348,0.422
		c-0.438-0.068-0.766-0.325-0.847-0.801C102.807,84.671,102.986,84.581,103.21,84.526z"/>
	<path fill="#343232" d="M91.85,76.836c-0.406-0.153-0.776-0.353-0.69-0.89c0.025-0.156,0.146-0.276,0.335-0.253
		c0.476,0.057,0.776,0.318,0.797,0.802C92.302,76.73,92.103,76.845,91.85,76.836z"/>
	<path fill="#434141" d="M104.868,81.248c-0.147,0.336-0.317,0.464-0.543,0.369c-0.4-0.169-0.782-0.395-0.714-0.917
		c0.034-0.258,0.271-0.301,0.488-0.235C104.538,80.598,104.773,80.911,104.868,81.248z"/>
	<path fill="#372F2F" d="M101.321,83.352c-0.474-0.029-0.77-0.308-0.862-0.757c-0.043-0.207,0.112-0.434,0.362-0.414
		c0.465,0.037,0.769,0.324,0.869,0.772C101.741,83.186,101.588,83.339,101.321,83.352z"/>
	<path fill="#393737" d="M103.985,83.585c-0.399-0.159-0.751-0.372-0.759-0.879c-0.004-0.277,0.2-0.385,0.414-0.335
		c0.436,0.102,0.757,0.378,0.788,0.85C104.445,83.463,104.224,83.559,103.985,83.585z"/>
	<path fill="#211919" d="M97.665,84.166c0.466,0.12,0.793,0.352,0.811,0.845c0.01,0.27-0.26,0.394-0.428,0.349
		c-0.414-0.111-0.775-0.34-0.786-0.851C97.256,84.214,97.489,84.213,97.665,84.166z"/>
	<path fill="#3A3B3B" d="M109.478,85.713c-0.046,0.275-0.212,0.436-0.434,0.374c-0.428-0.121-0.756-0.383-0.774-0.881
		c-0.011-0.293,0.226-0.363,0.423-0.321C109.14,84.979,109.42,85.27,109.478,85.713z"/>
	<path fill="#494040" d="M107.137,81.797c-0.523-0.046-0.794-0.321-0.902-0.755c-0.072-0.288,0.178-0.363,0.365-0.359
		c0.464,0.011,0.745,0.283,0.84,0.735C107.5,81.704,107.27,81.731,107.137,81.797z"/>
	<path fill="#2C2727" d="M101.814,78.449c0.448,0.09,0.77,0.334,0.788,0.806c0.009,0.241-0.248,0.308-0.455,0.268
		c-0.385-0.075-0.646-0.315-0.715-0.711C101.383,78.53,101.616,78.499,101.814,78.449z"/>
	<path fill="#4A4040" d="M105.236,79.415c-0.017,0.295-0.194,0.424-0.41,0.372c-0.424-0.103-0.748-0.369-0.793-0.829
		c-0.023-0.24,0.231-0.405,0.417-0.35C104.852,78.726,105.212,78.948,105.236,79.415z"/>
	<path fill="#2A2323" d="M107.036,83.155c0.101,0.385-0.034,0.502-0.177,0.526c-0.503,0.084-0.786-0.224-0.947-0.641
		c-0.088-0.227,0.045-0.411,0.297-0.428C106.723,82.578,106.923,82.943,107.036,83.155z"/>
	<path fill="#3A2E2E" d="M102.189,76.62c0.437,0.042,0.73,0.279,0.79,0.739c0.035,0.263-0.172,0.34-0.386,0.319
		c-0.396-0.038-0.642-0.284-0.747-0.652C101.776,76.776,101.95,76.672,102.189,76.62z"/>
	<path fill="#464848" d="M100.43,77.105c-0.051,0.215-0.116,0.44-0.375,0.42c-0.462-0.036-0.766-0.32-0.863-0.758
		c-0.043-0.194,0.088-0.425,0.352-0.409C100.016,76.387,100.264,76.706,100.43,77.105z"/>
	<path fill="#2E2020" d="M93.88,80.37c0.003,0.225-0.068,0.4-0.326,0.407c-0.491,0.014-0.753-0.284-0.843-0.716
		c-0.038-0.182,0.059-0.429,0.325-0.419C93.496,79.661,93.784,79.913,93.88,80.37z"/>
	<path fill="#2E2424" d="M95.026,76.68c-0.034,0.302-0.235,0.36-0.439,0.337c-0.397-0.045-0.651-0.294-0.741-0.676
		c-0.065-0.273,0.154-0.373,0.358-0.371C94.68,75.975,94.942,76.256,95.026,76.68z"/>
	<path fill="#2C2121" d="M99.393,80.745c0.049,0.284-0.103,0.371-0.245,0.399c-0.514,0.1-0.781-0.219-0.922-0.642
		c-0.071-0.213,0.029-0.418,0.307-0.418C99.027,80.085,99.283,80.382,99.393,80.745z"/>
	<path fill="#332727" d="M101.343,80.253c0.412,0.119,0.755,0.331,0.769,0.839c0.008,0.293-0.23,0.36-0.425,0.303
		c-0.421-0.122-0.775-0.355-0.698-0.88C101.011,80.362,101.137,80.246,101.343,80.253z"/>
	<path fill="#2D2F2F" d="M99.138,78.207c0.432,0.149,0.792,0.338,0.725,0.857c-0.032,0.243-0.221,0.324-0.449,0.249
		c-0.366-0.12-0.642-0.332-0.652-0.758C98.755,78.29,98.936,78.227,99.138,78.207z"/>
	<path fill="#1B1212" d="M93.699,77.827c0.413,0.045,0.685,0.25,0.754,0.665c0.043,0.259-0.114,0.391-0.352,0.383
		c-0.423-0.013-0.659-0.271-0.752-0.665C93.282,77.922,93.5,77.877,93.699,77.827z"/>
	<path fill="#1B1919" d="M96.903,76.195c0.435,0.072,0.75,0.284,0.759,0.791c0.003,0.19-0.143,0.282-0.293,0.266
		c-0.455-0.047-0.765-0.274-0.77-0.773C96.597,76.311,96.709,76.21,96.903,76.195z"/>
	<path fill="#131010" d="M104.813,76.897c0.423,0.078,0.691,0.288,0.718,0.702c0.018,0.275-0.207,0.339-0.41,0.28
		c-0.371-0.108-0.635-0.354-0.614-0.77C104.513,76.983,104.651,76.844,104.813,76.897z"/>
</g>
</svg>
