<svg xmlns="http://www.w3.org/2000/svg" width="200" height="200.057" viewBox="0 0 200 200.057"><path fill="#FFA200" d="M95.374 178.856c-5.621-.263-11.143-1.157-16.542-2.728-22.563-6.565-39.126-20.411-49.758-41.314-4.037-7.937-6.406-16.415-7.487-25.271-4.772-39.087 19.969-75.637 58.124-85.888 7.923-2.129 16.013-2.97 24.204-2.542 36.383 1.9 65.932 27.834 73.274 62.144 8.934 41.748-16.086 81.287-55.32 92.704-5.548 1.614-11.218 2.6-16.999 2.887-.679-1.086.066-1.695.821-2.201 1.102-.738 2.185-1.481 3.11-2.445 1.939-2.019 2.26-4.887.762-7.267-.771-1.225-1.816-2.196-2.958-3.07-.545-.417-1.125-.796-1.584-1.316-.414-.469-.574-1.014-.403-1.62.195-.691.786-.806 1.38-.845 1.16-.077 2.325-.043 3.472-.307 1.974-.454 2.542-1.055 2.937-3.025.453-2.258.25-4.536.275-6.806.035-3.168.061-3.23 3.156-3.239 1.01-.003 2.001-.166 3.001-.251 1.045-.089 1.505-.542 1.479-1.606-.056-2.327.271-4.657.252-6.965-.062-7.301.562-14.587.382-21.887-.024-.953.031-1.899.209-2.843.196-1.037.662-1.791 1.77-1.958.924-.14 1.242-.698 1.179-1.557-.108-1.475-.341-2.94-.355-4.425-.007-.703-.456-1.089-1.121-1.081-1.798.022-2.562-1.163-3.257-2.562-4.094-8.246-8.26-16.457-12.311-24.724-.803-1.638-1.807-2.265-3.651-2.37-4.323-.246-8.642-.641-12.954-1.065-1.015-.1-1.861.059-2.659.702-2.265 1.827-4.51 3.678-6.763 5.518-.874.714-1.084 1.542-.982 2.654.623 6.789 1.196 13.583 1.795 20.374.163 1.842.249 3.692.482 5.528.201 1.587.208 3.131-.444 4.672-.642 1.518.401 4.917 1.676 5.87.45.336.725.757.903 1.266.174.5.243 1.039.457 1.519 2.214 4.962 2.507 10.185 2.339 15.526-.156 4.969-.034 9.946-.033 14.92 0 .582-.014 1.165.035 1.745.293 3.507 1.907 5.273 5.349 5.86 3.191.544 3.192.544 3.192 3.838 0 4.445.008 8.889-.007 13.334-.002.725.133 1.496-.427 2.117z"/><path d="M95.374 178.856c-.005-5.557-.01-11.115-.016-16.672 0-.371-.018-.742.002-1.111.032-.59-.195-.875-.819-.865-.847.014-1.683-.095-2.519-.266-3.269-.666-5.114-2.855-5.162-6.231-.03-2.117-.022-4.234-.021-6.351.003-5.663 0-11.327.027-16.99.005-1.019-.122-1.989-.45-2.956-.847-2.504-1.658-5.02-2.476-7.534-.182-.558-.263-1.21-1.133-.798-.337.159-.477-.091-.543-.366-.408-1.696-.812-3.392-1.211-5.09-.093-.393.023-.748.313-1.013.754-.689.762-1.547.679-2.476-.381-4.268-.724-8.539-1.094-12.807-.375-4.321-.765-8.64-1.151-12.96-.089-1.001-.175-2.003-.285-3.001-.075-.675.074-1.178.657-1.642 2.608-2.076 5.187-4.191 7.744-6.33.538-.45 1.075-.588 1.741-.531 5.165.444 10.329.9 15.499 1.284.99.073 1.329.643 1.697 1.382 4.383 8.805 8.808 17.59 13.147 26.417.599 1.218 1.283 1.738 2.645 1.667 1.464-.077 1.47.028 1.569 1.463.124 1.794.224 3.591.38 5.383.065.748-.214 1.005-.944 1.113-2.015.298-2.051.332-2.103 2.389-.184 7.196-.334 14.392-.505 21.588-.08 3.386-.174 6.772-.27 10.158-.032 1.106-.043 1.12-1.127 1.186-1.743.106-3.487.195-5.231.283-1.335.067-1.343.06-1.357 1.455-.023 2.223-.018 4.446-.053 6.669-.06 3.813-1.224 4.989-5.053 5.129-.634.023-1.272-.022-1.905.015-.379.022-.958-.244-1.066.345-.108.591-.253 1.253.446 1.706 1.246.806 2.42 1.709 3.455 2.782 1.428 1.48 2.161 3.225 2.115 5.3-.033 1.504-.54 2.776-1.624 3.833-1.031 1.005-2.169 1.874-3.42 2.563-.794.438-1.208.969-1.08 1.877-3.166.259-6.332.269-9.498.003zM101.855 64.149c.156.026.356.09.557.089 1.521-.008 1.682.235 1.947-1.489.529-3.448 1.202-6.873 1.801-10.31.294-1.688.363-1.764 1.985-1.784 3.028-.037 2.577.02 2.156 2.426-.773 4.427-1.539 8.854-2.321 13.279-.259 1.464-.387 1.58-1.845 1.584-4.869.012-9.739.014-14.608-.001-1.364-.004-1.485-.128-1.253-1.486.837-4.898 1.717-9.789 2.566-14.685.129-.742.497-1.132 1.271-1.117.688.014 1.377-.026 2.064.009.945.048 1.101.238.944 1.176-.304 1.825-.635 3.646-.959 5.467-.352 1.978-.723 3.952-1.058 5.933-.157.926-.091.973.857 1.006 1.379.048 1.398.031 1.632-1.297l1.895-10.777c.241-1.371.365-1.481 1.725-1.517 2.815-.075 2.832-.072 2.357 2.67-.567 3.282-1.167 6.558-1.75 9.837-.054.304-.164.613.037.987zM133.73 60.009c-.581.935-1.168 1.867-1.741 2.807-.292.478-.639.784-1.258.8-1.074.028-1.272-.068-1.578-1.104-.119-.405-.179-.829-.317-1.227-.135-.392-.055-.854-.38-1.194-.531.01-.322.458-.366.693-.361 1.921-.674 3.851-1.024 5.774-.212 1.165-.408 1.323-1.541 1.39-3 .177-3.016.174-2.503-2.813.734-4.27 1.493-8.536 2.245-12.803.276-1.563.389-1.678 1.922-1.673 2.855.01 2.358-.304 3.292 2.325l1.048 2.99c.031.087.13.15.255.288.739-.544 1.105-1.385 1.635-2.085.574-.758 1.143-1.528 1.635-2.34.558-.921 1.303-1.229 2.374-1.205 2.465.054 2.484.007 2.074 2.389-.752 4.374-1.52 8.746-2.293 13.116-.31 1.755-.377 1.797-2.134 1.812-2.497.021-2.485.023-2.038-2.425.331-1.816.627-3.639.939-5.459l-.246-.056zM72.39 67.949c-2.05-.003-2.097-.053-1.748-2.04.247-1.405.513-2.806.758-4.211.21-1.205.199-1.211-1.085-1.23-.212-.003-.424.016-.634-.002-.652-.056-.94.238-1.043.886-.274 1.721-.602 3.434-.914 5.149-.23 1.266-.377 1.399-1.636 1.442-.581.02-1.166.032-1.745-.007-.96-.064-1.113-.246-.95-1.189.533-3.071 1.087-6.138 1.635-9.206.334-1.872.649-3.748 1.015-5.614.221-1.13.36-1.265 1.433-1.263 3.113.006 3.17-.413 2.536 2.797-.133.674-.254 1.351-.344 2.031-.135 1.02-.108 1.036.978 1.074 1.61.056 1.614.057 1.913-1.537.205-1.09.412-2.181.586-3.276.12-.751.512-1.119 1.281-1.101.687.016 1.377-.027 2.062.009.944.049 1.091.232.926 1.185-.62 3.592-1.257 7.181-1.89 10.771-.22 1.248-.43 2.499-.674 3.743-.299 1.522-.351 1.553-1.827 1.585l-.633.004zM149.291 74.043c1.376 0 2.752-.023 4.127.008.99.022 1.127.178.96 1.142-.831 4.791-1.677 9.579-2.535 14.366-.199 1.109-.392 1.231-1.619 1.276-2.778.101-2.763.103-2.259-2.645.563-3.067 1.112-6.137 1.618-9.214.076-.464.549-1.203-.437-1.372-1.141-.196-1.517.028-1.712 1.008-.424 2.124-.812 4.257-1.268 6.374-.245 1.137-.634 2.238-1.202 3.264-1.097 1.982-2.84 2.732-5.03 2.647-.751-.029-1.067-.334-.852-1.11.112-.405.126-.836.208-1.251.126-.634.258-1.181 1.132-1.25.899-.07 1.067-.928 1.268-1.637.721-2.547 1.172-5.152 1.635-7.754.166-.936.351-1.87.514-2.807.131-.754.566-1.066 1.326-1.052 1.374.024 2.75.006 4.126.007zM114.841 68.087c-.176-.012-.658-.005-1.123-.087-2.056-.362-3.26-1.707-3.392-3.8-.047-.737.009-1.468.157-2.205.395-1.968.665-3.961 1.088-5.922.841-3.897 3.327-5.757 7.279-5.538 2.635.146 4.029 1.593 4.088 4.269.033 1.493-.364 2.932-.599 4.39-.202 1.251-.395 2.509-.699 3.738-.826 3.34-3.139 5.147-6.799 5.155zM89.01 65.926c.014.264.012.531.045.792.101.799-.247 1.205-1.047 1.221l-1.429.011c-1.326.042-1.826-.131-1.874-1.66-.036-1.153-.154-1.15-1.345-1.174-.212-.004-.428.027-.634-.006-1.319-.208-2.253.135-2.546 1.601-.185.926-.869 1.232-1.771 1.24-3.595.033-2.908-.03-1.848-2.515 1.867-4.378 3.801-8.727 5.626-13.122.493-1.187 1.107-1.729 2.459-1.692 3.021.083 3.052.011 3.318 2.969.37 4.109.692 8.223 1.035 12.335h.011zM146.211 57.885c.795-1.976 1.539-3.835 2.292-5.691.611-1.507.639-1.53 2.181-1.537 3.382-.015 3.027-.155 1.719 2.605-1.495 3.153-3.028 6.289-4.539 9.434-.482 1.003-1.016 1.971-1.673 2.874-1.581 2.173-3.797 2.718-6.315 2.491-.617-.056-.997-.34-.811-1.048.054-.204.075-.416.106-.626.301-2.072.301-2.072 2.34-2.003 1.018.035 1.352-.256 1.219-1.336-.2-1.625-.503-3.238-.785-4.852-.346-1.978-.725-3.951-1.075-5.929-.246-1.392-.09-1.578 1.315-1.61.635-.015 1.271-.019 1.905.002 1.116.036 1.272.156 1.372 1.275.155 1.738.259 3.481.39 5.222.015.192-.037.41.359.729zM52.522 57.765c.754-1.88 1.495-3.742 2.247-5.599.589-1.456.657-1.505 2.203-1.51 3.242-.009 3.041-.212 1.67 2.638-1.512 3.144-3.026 6.286-4.532 9.432-.504 1.052-1.068 2.064-1.777 2.995-1.588 2.085-3.779 2.559-6.226 2.334-.628-.058-.975-.375-.789-1.067.055-.203.088-.413.12-.622.31-2.035.31-2.035 2.36-1.979 1.006.027 1.337-.268 1.199-1.358-.206-1.623-.523-3.233-.807-4.846-.348-1.977-.723-3.95-1.059-5.929-.236-1.389-.076-1.565 1.334-1.597.582-.013 1.164-.012 1.746 0 1.299.028 1.398.1 1.523 1.453.156 1.684.259 3.374.392 5.06.019.225-.053.524.396.595zM133.225 87.197c1.479 0 2.789-.015 4.099.004 1.31.02 1.369.101 1.209 1.366-.027.209-.064.418-.105.625-.317 1.586-.357 1.631-1.942 1.639-2.22.011-4.44.019-6.659-.004-1.269-.013-1.378-.134-1.164-1.373.808-4.681 1.629-9.361 2.472-14.036.244-1.352.285-1.364 1.631-1.373 2.22-.015 4.44-.018 6.659.001 1.29.011 1.301.049 1.096 1.393l-.067.471c-.279 1.652-.3 1.67-2.037 1.679-.951.005-1.904-.023-2.853.021-.578.027-1.313 1.873-.942 2.315.183.218.473.201.738.202.951.002 1.904-.024 2.854.013.864.034 1.046.226.868 1.075-.529 2.519.057 2.449-2.814 2.436-2.493-.012-2.493-.002-2.858 2.47l-.185 1.076zM99.363 27.644c1.639.001 3.278.018 4.917-.007.777-.011 1.063.323.918 1.068l-.019.157c-.518 2.87-.313 2.635-2.865 2.626-1.358-.005-1.375.015-1.612 1.349-.628 3.536-1.239 7.074-1.859 10.612l-.265 1.401c-.057.337-.205.652-.523.736-1.139.303-2.313.262-3.446.044-.605-.116-.412-.723-.327-1.203.533-3.016 1.048-6.036 1.566-9.054.17-.989.319-1.982.496-2.969.127-.707-.172-.957-.857-.925-.633.029-1.269.011-1.902-.016-.517-.023-.774-.332-.704-.84.101-.732.22-1.463.376-2.184.156-.725.726-.804 1.35-.799 1.583.011 3.17.003 4.756.004zM123.762 90.986c-.581-.033-1.169-.019-1.741-.106-2.509-.383-3.709-1.954-3.349-4.468.277-1.936.649-3.858.988-5.784.156-.885.277-1.782.518-2.644.519-1.865 1.714-3.131 3.576-3.72 1.538-.487 3.12-.577 4.709-.362 1.217.165 1.338.363 1.201 1.543-.03.262-.077.524-.13.782-.317 1.533-.352 1.553-1.861 1.319-.417-.065-.84-.146-1.257-.133-1.308.043-2.004.5-2.285 1.78-.453 2.063-.832 4.148-1.107 6.241-.189 1.439.337 1.879 1.791 1.956.71.037 1.339-.303 2.028-.32.794-.02.93.123.842.91-.288 2.581-.674 2.931-3.288 2.978l-.635.001v.027z"/><path fill="#010000" d="M90.006 27.642c2.736-.063 2.199.249 1.871 2.115-.851 4.843-1.683 9.689-2.533 14.532-.236 1.342-.362 1.432-1.77 1.46-.423.009-.847.007-1.27 0-1.497-.027-1.61-.163-1.344-1.695.824-4.74 1.663-9.477 2.475-14.22.374-2.188.351-2.192 2.571-2.192zM155.586 90.835c-2.005-.003-2.062-.047-1.735-1.909.787-4.478 1.586-8.954 2.402-13.426.263-1.44.295-1.458 1.723-1.453 2.846.009 2.761-.354 2.212 2.629-.745 4.055-1.438 8.121-2.165 12.18-.355 1.984-.367 1.982-2.437 1.979z"/><path fill="#FEFEFE" d="M119.621 112.57c-.082 4.79-.151 9.439-.244 14.088-.112 5.604-.24 11.207-.37 16.81-.032 1.387.126 1.399-1.38 1.425-3.648.063-7.295.146-10.943.218-1.161.023-1.204.024-1.318-1.174-.279-2.946-.517-5.897-.766-8.846-.606-7.162-1.206-14.325-1.815-21.486-.102-1.193-.118-1.236.797-1.227 5.281.052 10.562.124 16.039.192z"/><path fill="#FEFFFF" d="M118.202 102.817c-.462.221-.935.11-1.389.103-4.921-.076-9.841-.183-14.762-.23-.841-.008-1.3-.189-1.636-1.052-3.373-8.664-6.799-17.306-10.211-25.955-.096-.242-.26-.468-.136-.846 1.214.091 2.465.169 3.713.28 3.424.303 6.846.646 10.272.917 1.041.082 1.665.425 2.152 1.451 3.782 7.972 7.646 15.904 11.476 23.853.222.46.603.876.521 1.479z"/><path fill="#fff" d="M93.75 157.144c-1.308.243-2.365.028-3.311-.661-.951-.693-1.423-1.507-1.388-2.795.342-12.375.616-24.751.889-37.127.019-.839.008-1.55 1.099-1.703.521-.073.913-.507 1.278-.898 1.599-1.712 1.816-6.688-1.02-7.79-.141-.055-.266-.151-.443-.254 1.491-.81 2.978.087 3.197 1.767.041.312.009.634-.003.951-.367 9.78-.742 19.559-1.101 29.339-.2 5.445-.379 10.891-.556 16.337-.036 1.13-.044 2.27 1.359 2.834z"/><path fill="#FEFEFE" d="M100.869 105.169c.429-.026.686-.06.942-.055 6.236.111 12.473.224 18.709.344 1.146.022 1.149.038 1.257 1.217.097 1.052.181 2.106.283 3.157.054.552-.184.782-.726.724l-.159-.002c-6.236-.115-12.473-.239-18.709-.333-.709-.011-1.04-.199-1.098-.966-.098-1.314-.313-2.618-.499-4.086z"/><path fill="#FEA100" d="M106.11 151.287c0 .792-.011 1.584.004 2.376.009.514-.191.774-.73.802-1.265.067-2.529.153-3.791.259-.651.054-.981-.258-1.13-.844-.515-2.021.087-3.741 1.417-5.266.389-.447.913-.455 1.449-.484 2.858-.155 2.858-.161 2.821 2.682v.475h-.04z"/><path fill="#FDFDFD" d="M97.852 177.665c0-4.782.012-9.413-.012-14.045-.004-.702.263-.955.924-.895.304.028.621-.103.938.082.26.48.122 1.015.124 1.527.014 3.53.008 7.06.007 10.59 0 1.767-.001 1.767-1.981 2.741z"/><path fill="#FBA000" d="M105.11 164.845c1.733 1.166 3.05 2.503 3.531 4.501.221.917-.064 1.777-.599 2.543-.739 1.056-1.728 1.802-2.881 2.408-.322-1.254-.362-7.426-.051-9.452z"/><path fill="#FAFAFA" d="M90.955 110.389c.031.733-.107 1.506-.582 2.174-.578.814-1.345.839-1.959.095-.89-1.079-.899-3.518-.016-4.616.622-.775 1.34-.764 1.952.029.393.51.602 1.287.605 2.318z"/><path fill="#FA9F00" d="M96.789 154.672c-1.386.19-1.401.19-1.428-.864-.032-1.258-.042-2.517-.048-3.775-.006-1.432.001-1.432 1.812-1.265-.897 1.934-.968 3.914-.336 5.904z"/><path fill="#FDA100" d="M118.68 55.79c-.444 2.384-.885 4.768-1.337 7.15-.039.204-.12.408-.222.589-.376.669-1.047.96-1.733.776-.748-.201-.798-.811-.72-1.391.232-1.724.52-3.441.792-5.16.074-.469.15-.939.259-1.4.097-.409.196-.828.372-1.207.359-.775 1.127-1.156 1.791-.937.798.263.743.924.798 1.58z"/><path fill="#E49200" d="M82.342 61.267c.498-1.511 1.071-3.002 1.903-4.448.287 1.374.243 2.757.228 4.135-.004.398-.315.508-.654.501-.465-.008-.945.103-1.477-.188z"/><path fill="#2E2929" d="M115.637 115.113c-.473-.035-.595-.371-.624-.751-.037-.475-.036-1.044.552-1.11.525-.059.627.489.651.893.024.41-.064.836-.579.968z"/><path fill="#171313" d="M110.508 114.098c-.12.416-.099.907-.551.909-.605.003-.68-.513-.675-.993.003-.362.034-.806.489-.829.667-.035.557.598.737.913z"/><path fill="#3C3939" d="M106.805 123.448c-.028.381-.123.793-.57.769-.492-.027-.647-.478-.666-.906-.016-.381.131-.784.577-.765.51.02.625.462.659.902z"/><path fill="#2B2727" d="M105.693 116.356c.579.166.714.619.715 1.084.001.349-.129.801-.577.763-.579-.049-.667-.551-.662-1.038.004-.38.122-.698.524-.809z"/><path fill="#141313" d="M107.051 115.005c-.479-.098-.627-.462-.64-.894-.011-.397-.091-.907.481-.961.559-.053.638.458.678.85.041.398.005.835-.519 1.005z"/><path fill="#272222" d="M112.785 113.185c.502.193.636.637.587 1.116-.035.343-.13.812-.608.755-.613-.073-.624-.609-.603-1.083.017-.374.123-.723.624-.788z"/><path fill="#332D2D" d="M107.986 120.489c-.092.382-.17.815-.66.735-.516-.084-.582-.543-.571-.981.01-.396.126-.786.615-.713.523.078.53.572.616.959z"/><path fill="#252323" d="M118.371 121.367c-.598-.194-.664-.611-.621-1.021.037-.349.161-.802.615-.732.489.076.536.544.521.971-.015.401-.251.627-.515.782z"/><path fill="#353434" d="M112.836 119.531c.455.068.608.394.642.779.038.438-.022.917-.547.976-.452.051-.613-.39-.655-.758-.049-.43.055-.842.56-.997z"/><path fill="#1C1717" d="M119.018 114.14c-.078.42-.011.927-.59.966-.502.033-.558-.386-.57-.753-.016-.467-.024-1.022.624-1.021.464-.001.447.488.536.808z"/><path fill="#3A3333" d="M110.939 126.471c-.009.379-.071.775-.553.785-.479.01-.594-.406-.611-.776-.017-.376.1-.809.561-.801.416.005.578.381.603.792z"/><path fill="#232121" d="M116.199 120.477c-.082.367-.122.813-.576.807-.534-.007-.599-.47-.592-.894.007-.374.116-.792.54-.799.544-.007.548.505.628.886z"/><path fill="#2B2525" d="M105.189 120.452c-.022.432-.168.801-.619.733-.487-.074-.619-.515-.609-.958.009-.391.152-.778.62-.707.503.074.571.534.608.932z"/><path fill="#222020" d="M108.654 118.26c-.605-.201-.654-.653-.63-1.14.016-.335.158-.699.49-.688.615.019.691.574.696 1.033.004.348-.135.718-.556.795z"/><path fill="#221F1F" d="M116.924 116.55c.505.075.663.38.666.773.004.42-.012.901-.558.956-.477.048-.577-.386-.624-.744-.059-.448.129-.797.516-.985z"/><path fill="#464343" d="M114.982 134.378c-.095.299-.175.666-.565.646-.454-.024-.598-.402-.572-.792.022-.32.188-.662.554-.652.459.013.544.41.583.798z"/><path fill="#3F3A3A" d="M108.324 126.476c-.033.374-.125.757-.571.773-.433.016-.587-.337-.635-.72-.051-.399.091-.818.458-.869.493-.07.65.393.748.816z"/><path fill="#343434" d="M112.192 123.407c-.021.43-.14.836-.579.815-.521-.025-.613-.509-.619-.934-.005-.327.159-.668.508-.69.552-.035.653.404.69.809z"/><path fill="#101111" d="M114.19 118.273c-.573-.217-.526-.695-.48-1.159.033-.334.228-.664.563-.582.582.142.543.674.496 1.144-.034.337-.201.573-.579.597z"/><path fill="#363535" d="M116.966 122.603c.446.094.587.425.587.805 0 .374-.123.802-.541.832-.542.039-.656-.437-.653-.864.004-.379.164-.707.607-.773z"/><path fill="#101212" d="M111.977 117.398c-.032.358-.025.814-.499.83-.559.018-.601-.469-.619-.894-.017-.387.073-.834.497-.846.521-.015.581.481.621.91z"/><path fill="#141616" d="M104.669 114.047c-.023.354.004.842-.459.871-.64.039-.688-.541-.721-1.005-.026-.37.033-.828.524-.811.531.019.614.491.656.945z"/><path fill="#453E3E" d="M118.803 126.424c-.031.375-.116.77-.557.817-.461.05-.616-.313-.635-.71-.019-.399.136-.783.541-.839.459-.063.567.356.651.732z"/><path fill="#130D0D" d="M110.161 119.55c.537.231.538.7.47 1.176-.048.335-.245.613-.617.479-.486-.175-.47-.638-.431-1.055.03-.326.155-.609.578-.6z"/><path fill="#2B2424" d="M116.168 126.485c-.064.396-.132.74-.537.739-.477-.002-.592-.361-.583-.761.009-.392.129-.781.595-.75.485.031.45.493.525.772z"/><path fill="#3E3939" d="M113.689 131.784c-.094.362-.137.789-.63.741-.349-.034-.492-.353-.521-.675-.035-.395.115-.778.525-.811.455-.036.523.41.626.745z"/><path fill="#3E3737" d="M108.6 131.844c-.031.317-.109.657-.471.704-.459.059-.627-.301-.676-.682-.051-.394.09-.778.52-.797.448-.02.537.41.627.775z"/><path fill="#3E3838" d="M111.139 131.787c-.054.347-.113.699-.477.749-.463.062-.624-.3-.669-.68-.046-.393.1-.776.522-.803.463-.03.512.425.624.734z"/><path fill="#1F1D1D" d="M108.963 124.226c-.449-.089-.597-.404-.621-.801-.023-.392.039-.817.501-.844.456-.027.576.387.599.774.023.383-.035.741-.479.871z"/><path fill="#454242" d="M112.498 134.182c-.027.484-.121.86-.59.865-.395.005-.509-.365-.531-.67-.028-.38.094-.783.568-.775.367.006.439.384.553.58z"/><path fill="#231F1F" d="M114.907 129.209c-.096.335-.101.803-.595.743-.42-.051-.527-.439-.504-.824.019-.324.145-.645.5-.67.498-.034.498.417.599.751zM106.619 130.004c-.435-.1-.56-.436-.557-.814.002-.299.031-.695.425-.708.551-.018.627.43.644.861.015.355-.154.585-.512.661z"/><path fill="#181818" d="M114.291 122.605c.455.085.54.435.536.811-.004.37-.077.811-.529.801-.42-.008-.538-.416-.551-.804-.015-.398.106-.71.544-.808z"/><path fill="#2C2424" d="M105.393 131.085c.432.054.591.385.618.771.022.322-.075.672-.466.692-.47.023-.603-.354-.638-.739-.032-.343.115-.608.486-.724z"/><path fill="#252121" d="M116.935 129.962c-.368-.037-.545-.28-.57-.605-.032-.423.017-.872.568-.899.401-.02.47.368.491.661.026.361-.055.72-.489.843z"/><path fill="#221A1A" d="M105.12 127.244c-.448-.052-.595-.36-.61-.763-.015-.395.08-.829.534-.794.39.03.554.433.545.846-.007.334-.051.638-.469.711z"/><path fill="#131212" d="M112.946 125.7c.344.027.518.249.553.583.038.356.092.756-.35.907-.378.13-.584-.136-.645-.454-.078-.413-.072-.833.442-1.036z"/><path fill="#1E1919" d="M109.131 129.976c-.458-.18-.531-.574-.459-.999.053-.312.23-.626.609-.478.467.182.471.624.391 1.041-.051.264-.211.458-.541.436z"/><path fill="#201B1B" d="M111.741 128.444c.467.091.542.452.535.835-.006.325-.096.702-.491.68-.447-.025-.569-.41-.561-.813.007-.347.147-.611.517-.702z"/><path fill="#2A2626" d="M116.14 131.774c-.071.292-.06.678-.457.71-.471.037-.61-.333-.607-.714.003-.378.141-.755.61-.713.39.033.388.419.454.717zM118.147 131.012c.439.131.493.478.458.855-.03.328-.18.657-.54.608-.429-.058-.526-.437-.478-.832.041-.331.2-.571.56-.631z"/><path fill="#202222" d="M106.886 133.675c.35.054.53.27.563.62.039.404-.046.783-.522.769-.348-.01-.493-.341-.506-.682-.013-.337.075-.62.465-.707z"/><path fill="#352F2F" d="M105.983 137.713c-.559-.119-.665-.464-.635-.837.02-.246.145-.544.462-.52.533.041.633.447.594.884-.026.293-.276.389-.421.473z"/><path fill="#433C3C" d="M112.699 143.671c-.061.312-.119.639-.542.619-.323-.015-.431-.29-.457-.54-.033-.321.065-.653.447-.697.423-.048.475.31.552.618z"/><path fill="#312A2A" d="M109.467 133.642c.417.146.552.47.498.871-.046.34-.235.626-.62.514-.443-.128-.455-.531-.399-.91.041-.281.211-.465.521-.475z"/><path fill="#312E2E" d="M117.365 134.103c-.011.482-.085.886-.553.869-.343-.013-.5-.351-.493-.695.006-.339.156-.654.503-.7.41-.055.456.326.543.526z"/><path fill="#262929" d="M117.954 136.23c.304-.011.496.153.555.424.086.39-.006.747-.428.876-.318.097-.483-.161-.531-.417-.068-.367-.046-.736.404-.883z"/><path fill="#292626" d="M111.27 137.046c-.047.334-.168.639-.569.569-.365-.064-.465-.381-.445-.718.02-.346.176-.629.564-.566.368.058.463.371.45.715z"/><path fill="#342D2D" d="M116.833 139.869c-.368-.049-.515-.286-.524-.628-.009-.343.142-.635.487-.66.371-.027.501.276.514.611.013.344-.128.586-.477.677z"/><path fill="#3A2F2F" d="M110.213 139.33c-.021.373-.178.638-.55.614-.378-.024-.502-.334-.483-.666.018-.319.125-.658.528-.61.35.042.457.365.505.662z"/><path fill="#3E3434" d="M111.478 141.408c-.044.401-.117.707-.528.722-.332.012-.465-.247-.496-.506-.038-.32.039-.675.413-.74.41-.073.46.328.611.524z"/><path fill="#312C2C" d="M113.799 141.499c-.032.348-.159.629-.559.58-.295-.035-.418-.282-.432-.562-.018-.349.13-.67.484-.674.347-.003.507.305.507.656zM108.837 137.101c-.064.272-.134.555-.465.539-.469-.022-.602-.374-.586-.768.011-.277.185-.517.482-.527.525-.016.511.413.569.756z"/><path fill="#262424" d="M113.242 137.607c-.41-.023-.486-.326-.51-.641-.026-.33.066-.652.458-.657.358-.004.53.271.544.614.013.346-.151.584-.492.684z"/><path fill="#272828" d="M115.638 136.267c.39.063.483.34.456.674-.026.314-.107.666-.504.627-.339-.033-.497-.331-.495-.674.004-.356.19-.567.543-.627z"/><path fill="#3B3A3A" d="M107.171 138.677c.391.044.575.266.618.613.043.352-.066.677-.436.724-.365.046-.54-.244-.594-.586-.058-.365.109-.602.412-.751z"/><path fill="#2D2525" d="M112.108 139.912c-.384-.034-.553-.262-.549-.628.004-.352.155-.648.527-.644.285.004.433.271.461.557.033.343-.043.63-.439.715z"/><path fill="#312A2A" d="M114.427 138.606c.391.042.541.313.543.647.001.339-.161.622-.551.613-.325-.007-.428-.28-.436-.549-.011-.317.036-.637.444-.711z"/><path fill="#3B3232" d="M108.058 143.599c.045.531-.132.771-.495.76-.269-.008-.447-.22-.478-.508-.037-.346.091-.656.44-.686.346-.031.496.272.533.434z"/><path fill="#392F2F" d="M108.516 140.93c.362.022.523.25.554.594.024.271-.016.539-.324.615-.375.093-.593-.127-.657-.469-.064-.339.063-.611.427-.74z"/><path fill="#2A2222" d="M115.556 140.833c.364-.026.485.202.512.461.031.298.035.647-.347.733-.389.088-.55-.216-.594-.52-.048-.329.124-.579.429-.674z"/><path fill="#3B3838" d="M118.063 140.805c.291.1.441.367.36.697-.072.294-.232.628-.632.492-.349-.119-.381-.456-.313-.769.057-.26.192-.483.585-.42z"/><path fill="#252222" d="M106.728 141.469c.02.499-.166.725-.439.735-.382.014-.521-.287-.527-.639-.005-.289.084-.551.416-.546.381.006.508.302.55.45z"/><path fill="#3A3232" d="M109.994 144.313c-.388.024-.569-.215-.613-.539-.046-.342.135-.625.475-.667.282-.035.449.213.49.482.049.312.022.611-.352.724z"/><path fill="#2E2B2B" d="M114.4 143.045c.37-.029.533.195.588.448.073.337-.074.637-.426.724-.328.082-.473-.182-.511-.447-.046-.317-.009-.633.349-.725z"/><path fill="#393737" d="M117.265 143.377c.033.498-.154.791-.49.823-.251.024-.464-.226-.482-.532-.022-.36.114-.663.491-.679.268-.011.488.188.481.388z"/><path fill="#2D2B2B" d="M106.345 98.108c.446.001 1.014.596.999 1.051-.009.265-.213.367-.417.379-.446.025-1.029-.59-1.002-1.035.014-.249.217-.33.42-.395z"/><path fill="#272727" d="M103.923 101.499c-.039.288-.179.53-.489.472-.509-.095-.819-.445-.92-.952-.06-.303.098-.517.397-.548.426-.045.993.553 1.012 1.028z"/><path fill="#312828" d="M106.006 100.539c.525.168.902.501.913 1.095.005.292-.228.502-.525.396-.516-.184-.897-.526-.843-1.141.021-.231.208-.337.455-.35z"/><path fill="#332626" d="M115.387 102.267c-.532-.136-.894-.477-.957-1.059-.023-.212.131-.437.376-.396.573.097.93.457.972 1.045.013.178-.07.424-.391.41z"/><path fill="#1F1717" d="M100.891 99.358c-.46-.022-1.012-.65-.944-1.087.036-.234.209-.359.438-.353.465.011 1.001.628.938 1.067-.035.249-.245.305-.432.373z"/><path fill="#191717" d="M109.005 100.688c.456.045.979.655.914 1.079-.038.248-.235.328-.443.317-.473-.023-.968-.621-.909-1.072.034-.254.228-.303.438-.324z"/><path fill="#251C1C" d="M111.851 100.765c.443-.06.979.431 1.014.949.014.211-.048.399-.305.433-.438.057-.987-.444-1.021-.948-.014-.215.063-.394.312-.434z"/><path fill="#322D2D" d="M112.852 93.754c.495.054.805.385.926.884.052.215-.059.43-.326.423-.559-.016-.847-.377-.968-.874-.051-.212.045-.411.368-.433z"/><path fill="#292525" d="M107.369 97.18c-.474-.01-.997-.605-.931-1.074.034-.241.205-.4.431-.334.487.142.837.465.88.994.016.197-.114.404-.38.414z"/><path fill="#302626" d="M112.419 96.034c.551-.044 1.087.495 1.078.978-.005.265-.181.363-.399.337-.524-.064-.814-.407-.908-.901-.039-.211.076-.389.229-.414z"/><path fill="#282323" d="M99.382 94.026c-.008.296-.207.425-.406.423-.56-.006-.842-.401-.955-.881-.072-.304.177-.489.474-.457.549.058.773.459.887.915z"/><path fill="#272323" d="M113.182 99.251c-.041.229-.078.483-.328.461-.575-.052-.931-.399-1.015-.97-.028-.192.064-.453.311-.433.582.047.891.428 1.032.942z"/><path fill="#322A2A" d="M104.742 90.924c.468.156.824.426.83.984.003.272-.215.362-.423.323-.517-.095-.827-.427-.854-.958-.015-.26.219-.312.447-.349z"/><path fill="#373131" d="M95.679 84.79c-.034.259-.155.431-.39.41-.521-.046-.839-.349-.893-.872-.023-.227.136-.392.375-.377.534.036.805.368.908.839z"/><path fill="#2B2525" d="M103.334 97.989c.44-.027 1.016.55.989 1.036-.011.192-.083.418-.36.433-.439.024-1.026-.558-1.001-1.034.011-.203.112-.407.372-.435z"/><path fill="#363030" d="M111.245 92.186c-.065.307-.273.392-.471.332-.479-.146-.836-.443-.814-.997.01-.256.247-.341.451-.281.484.143.807.453.834.946z"/><path fill="#2F2424" d="M98.898 90.631c.5.03.803.362.919.865.05.215-.062.423-.324.436-.579.028-.872-.325-.977-.835-.041-.196.064-.412.382-.466z"/><path fill="#302727" d="M107.179 93.48c.502.044.799.354.931.834.057.209-.004.408-.24.477-.409.121-1.034-.395-1.056-.879-.01-.218.101-.382.365-.432z"/><path fill="#151515" d="M100.886 95.557c.522.083.863.373.939.901.043.297-.118.54-.44.48-.51-.095-.809-.458-.884-.961-.036-.234.18-.347.385-.42z"/><path fill="#342828" d="M97.975 87.12c-.04.3-.243.382-.443.34-.498-.105-.819-.419-.818-.949.001-.239.252-.362.444-.318.491.112.813.415.817.927z"/><path fill="#353434" d="M107.566 91.069c.475.131.843.406.871.951.01.186-.105.439-.385.385-.515-.099-.852-.424-.919-.943-.029-.216.177-.361.433-.393z"/><path fill="#373B3B" d="M103.19 89.525c-.08.271-.234.45-.454.399-.496-.115-.844-.412-.849-.969-.002-.274.23-.348.432-.325.545.064.772.449.871.895z"/><path fill="#312E2E" d="M110.971 94.5c.001.218-.063.413-.295.464-.389.085-1.043-.521-1.023-.959.01-.216.153-.386.392-.392.387-.008.87.466.926.887z"/><path fill="#2D2020" d="M100.325 89.425c-.093.239-.275.337-.486.291-.508-.109-.826-.415-.781-.965.018-.223.202-.377.441-.305.485.147.782.471.826.979z"/><path fill="#232626" d="M97.42 89.18c-.047.229-.168.45-.388.423-.514-.063-.835-.386-.919-.906-.045-.278.207-.39.384-.385.543.017.822.368.923.868z"/><path fill="#211515" d="M101.475 93.207c.441.164.803.451.833.964.017.29-.24.466-.522.376-.469-.15-.808-.451-.754-1.006.023-.231.183-.346.443-.334z"/><path fill="#373030" d="M102.774 86.524c.451.133.814.376.862.911.023.257-.158.375-.379.353-.517-.051-.835-.352-.883-.873-.022-.227.149-.358.4-.391z"/><path fill="#262929" d="M99.969 86.403c.489.079.827.342.823.905-.002.242-.182.396-.412.338-.432-.109-.742-.39-.822-.845-.043-.256.156-.35.411-.398z"/><path fill="#1A1616" d="M110.643 96.844c-.026.261-.122.456-.379.414-.521-.086-.83-.42-.907-.94-.039-.267.168-.391.385-.369.541.054.816.404.901.895z"/><path fill="#191212" d="M103.867 95.689c.558.063.831.424.95.888.083.324-.203.478-.458.44-.508-.076-.806-.412-.837-.937-.015-.233.134-.361.345-.391z"/><path fill="#1D2020" d="M101.828 90.823c.478.037.803.323.869.845.023.181-.039.45-.312.437-.532-.026-.838-.362-.951-.854-.052-.223.1-.378.394-.428z"/><path fill="#433C3C" d="M96.796 79.175c-.391-.164-.774-.355-.777-.864-.002-.256.231-.406.427-.349.411.12.787.343.793.856.004.273-.219.319-.443.357z"/><path fill="#342727" d="M105.089 88.749c.486.08.799.377.906.873.052.243-.107.395-.331.403-.563.021-.815-.375-.938-.834-.045-.167.094-.392.363-.442z"/><path fill="#352F2F" d="M105.967 84.669c.423.186.85.392.812.959-.017.259-.267.298-.461.249-.424-.108-.735-.364-.76-.833-.013-.241.179-.34.409-.375z"/><path fill="#2F2626" d="M100.396 84.312c.489.063.803.37.898.874.05.266-.186.359-.391.352-.479-.016-.751-.321-.837-.763-.036-.184.028-.41.33-.463z"/><path fill="#282929" d="M108.765 89.747c-.083.421-.247.524-.479.442-.419-.147-.725-.42-.779-.886-.034-.296.234-.36.413-.337.535.068.783.428.845.781z"/><path fill="#333" d="M98.625 83.197c-.522-.072-.817-.349-.918-.8-.056-.25.129-.39.363-.392.501-.004.779.3.851.758.029.186-.065.419-.296.434z"/><path fill="#332C2C" d="M96.163 82.609c-.037.301-.237.405-.435.375-.444-.068-.741-.349-.784-.804-.017-.18.065-.437.341-.409.522.054.806.368.878.838z"/><path fill="#171111" d="M110.267 99.172c0 .235-.106.405-.348.403-.545-.005-.827-.352-.949-.836-.05-.2.012-.415.248-.486.392-.117 1.008.43 1.049.919z"/><path fill="#423434" d="M109.156 87.669c.039.285-.089.436-.326.445-.497.019-.745-.311-.893-.725-.078-.219.023-.472.238-.485.539-.033.841.303.981.765z"/><path fill="#1D1919" d="M105.227 94.266c-.052.212-.073.458-.357.433-.538-.049-.842-.384-.932-.895-.04-.225.089-.414.349-.405.558.021.821.374.94.867z"/><path fill="#383737" d="M106.453 87.572c-.034.289-.21.469-.416.413-.474-.128-.875-.385-.844-.97.009-.167.139-.272.318-.266.558.02.838.347.942.823z"/><path fill="#1B1818" d="M116.008 99.484c-.035.247-.205.375-.419.311-.47-.14-.806-.443-.861-.961-.025-.235.103-.383.354-.378.491.01.975.552.926 1.028z"/><path fill="#2D2525" d="M110.586 89.076c.492.062.811.374.931.871.06.25-.128.385-.363.374-.481-.024-.759-.329-.875-.761-.051-.19.006-.413.307-.484z"/><path fill="#362E2E" d="M95.853 79.825c.441.038.735.322.815.776.031.175-.053.445-.348.423-.486-.037-.768-.356-.883-.785-.057-.209.116-.389.416-.414z"/><path fill="#222626" d="M103.21 84.526c.466.057.751.346.839.789.04.203-.121.458-.348.422-.438-.068-.766-.325-.847-.801-.047-.265.132-.355.356-.41z"/><path fill="#343232" d="M91.85 76.836c-.406-.153-.776-.353-.69-.89.025-.156.146-.276.335-.253.476.057.776.318.797.802.01.235-.189.35-.442.341z"/><path fill="#434141" d="M104.868 81.248c-.147.336-.317.464-.543.369-.4-.169-.782-.395-.714-.917.034-.258.271-.301.488-.235.439.133.674.446.769.783z"/><path fill="#372F2F" d="M101.321 83.352c-.474-.029-.77-.308-.862-.757-.043-.207.112-.434.362-.414.465.037.769.324.869.772.051.233-.102.386-.369.399z"/><path fill="#393737" d="M103.985 83.585c-.399-.159-.751-.372-.759-.879-.004-.277.2-.385.414-.335.436.102.757.378.788.85.017.242-.204.338-.443.364z"/><path fill="#211919" d="M97.665 84.166c.466.12.793.352.811.845.01.27-.26.394-.428.349-.414-.111-.775-.34-.786-.851-.006-.295.227-.296.403-.343z"/><path fill="#3A3B3B" d="M109.478 85.713c-.046.275-.212.436-.434.374-.428-.121-.756-.383-.774-.881-.011-.293.226-.363.423-.321.447.094.727.385.785.828z"/><path fill="#494040" d="M107.137 81.797c-.523-.046-.794-.321-.902-.755-.072-.288.178-.363.365-.359.464.011.745.283.84.735.06.286-.17.313-.303.379z"/><path fill="#2C2727" d="M101.814 78.449c.448.09.77.334.788.806.009.241-.248.308-.455.268-.385-.075-.646-.315-.715-.711-.049-.282.184-.313.382-.363z"/><path fill="#4A4040" d="M105.236 79.415c-.017.295-.194.424-.41.372-.424-.103-.748-.369-.793-.829-.023-.24.231-.405.417-.35.402.118.762.34.786.807z"/><path fill="#2A2323" d="M107.036 83.155c.101.385-.034.502-.177.526-.503.084-.786-.224-.947-.641-.088-.227.045-.411.297-.428.514-.034.714.331.827.543z"/><path fill="#3A2E2E" d="M102.189 76.62c.437.042.73.279.79.739.035.263-.172.34-.386.319-.396-.038-.642-.284-.747-.652-.07-.25.104-.354.343-.406z"/><path fill="#464848" d="M100.43 77.105c-.051.215-.116.44-.375.42-.462-.036-.766-.32-.863-.758-.043-.194.088-.425.352-.409.472.029.72.348.886.747z"/><path fill="#2E2020" d="M93.88 80.37c.003.225-.068.4-.326.407-.491.014-.753-.284-.843-.716-.038-.182.059-.429.325-.419.46.019.748.271.844.728z"/><path fill="#2E2424" d="M95.026 76.68c-.034.302-.235.36-.439.337-.397-.045-.651-.294-.741-.676-.065-.273.154-.373.358-.371.476.005.738.286.822.71z"/><path fill="#2C2121" d="M99.393 80.745c.049.284-.103.371-.245.399-.514.1-.781-.219-.922-.642-.071-.213.029-.418.307-.418.494.001.75.298.86.661z"/><path fill="#332727" d="M101.343 80.253c.412.119.755.331.769.839.008.293-.23.36-.425.303-.421-.122-.775-.355-.698-.88.022-.153.148-.269.354-.262z"/><path fill="#2D2F2F" d="M99.138 78.207c.432.149.792.338.725.857-.032.243-.221.324-.449.249-.366-.12-.642-.332-.652-.758-.007-.265.174-.328.376-.348z"/><path fill="#1B1212" d="M93.699 77.827c.413.045.685.25.754.665.043.259-.114.391-.352.383-.423-.013-.659-.271-.752-.665-.067-.288.151-.333.35-.383z"/><path fill="#1B1919" d="M96.903 76.195c.435.072.75.284.759.791.003.19-.143.282-.293.266-.455-.047-.765-.274-.77-.773-.002-.168.11-.269.304-.284z"/><path fill="#131010" d="M104.813 76.897c.423.078.691.288.718.702.018.275-.207.339-.41.28-.371-.108-.635-.354-.614-.77.006-.126.144-.265.306-.212z"/></svg>