<svg xmlns="http://www.w3.org/2000/svg" width="111.297" height="80" viewBox="0 0 111.297 80"><linearGradient id="a" gradientUnits="userSpaceOnUse" x1="4.432" y1="101.402" x2="4.432" y2="60.662"><stop offset="0" stop-color="#4D4D4D"/><stop offset=".418" stop-color="#434342"/><stop offset="1" stop-color="#3A3938"/></linearGradient><path fill="url(#a)" d="M0 63.841h3.309v13.116h5.555v2.801h-8.864v-15.917z"/><linearGradient id="b" gradientUnits="userSpaceOnUse" x1="17.83" y1="101.402" x2="17.83" y2="60.662"><stop offset="0" stop-color="#4D4D4D"/><stop offset=".418" stop-color="#434342"/><stop offset="1" stop-color="#3A3938"/></linearGradient><path fill="url(#b)" d="M13.229 63.841h9.203l-.87 2.801h-5.024v3.671h5.048v2.779h-5.048v3.865h5.869v2.801h-9.179v-15.917z"/><linearGradient id="c" gradientUnits="userSpaceOnUse" x1="36.097" y1="101.402" x2="36.097" y2="60.662"><stop offset="0" stop-color="#4D4D4D"/><stop offset=".418" stop-color="#434342"/><stop offset="1" stop-color="#3A3938"/></linearGradient><path fill="url(#c)" d="M27.921 63.841h2.995l4.082 5.772c.531.749.918 1.353 1.281 1.982h.048c.314-.605.725-1.282 1.232-2.078l3.695-5.676h3.019v15.917h-3.309v-8.551c0-.627 0-1.353.025-1.908h-.025c-.193.411-.821 1.329-1.087 1.739l-2.85 4.396h-1.497l-3.212-4.542c-.338-.459-.725-.966-1.063-1.571h-.049c.024.556.024 1.28.024 1.788v8.647h-3.309v-15.915z"/><linearGradient id="d" gradientUnits="userSpaceOnUse" x1="55.902" y1="101.402" x2="55.902" y2="60.662"><stop offset="0" stop-color="#4D4D4D"/><stop offset=".418" stop-color="#434342"/><stop offset="1" stop-color="#3A3938"/></linearGradient><path fill="url(#d)" d="M50.358 63.841h5c3.453 0 4.999 2.004 4.999 4.034 0 1.304-.652 2.583-1.883 3.212v.048c1.908.507 2.971 2.053 2.971 3.84 0 2.416-1.885 4.783-5.652 4.783h-5.435v-15.917zm4.565 6.496c1.449 0 2.198-.821 2.198-1.86 0-1.086-.725-1.931-2.271-1.931h-1.183v3.791h1.256zm.435 6.716c1.835 0 2.753-.629 2.753-2.078 0-1.231-.918-1.932-2.439-1.932h-2.005v4.01h1.691z"/><linearGradient id="e" gradientUnits="userSpaceOnUse" x1="71.191" y1="101.402" x2="71.191" y2="60.662"><stop offset="0" stop-color="#4D4D4D"/><stop offset=".418" stop-color="#434342"/><stop offset="1" stop-color="#3A3938"/></linearGradient><path fill="url(#e)" d="M66.59 63.841h9.203l-.87 2.801h-5.024v3.671h5.048v2.779h-5.048v3.865h5.869v2.801h-9.178v-15.917z"/><linearGradient id="f" gradientUnits="userSpaceOnUse" x1="87.357" y1="101.402" x2="87.357" y2="60.662"><stop offset="0" stop-color="#4D4D4D"/><stop offset=".418" stop-color="#434342"/><stop offset="1" stop-color="#3A3938"/></linearGradient><path fill="url(#f)" d="M81.282 63.841h4.758c1.425 0 2.487.217 3.334.603 1.835.797 2.535 2.319 2.535 4.01 0 2.077-1.304 3.526-3.091 4.082v.049c.483.265 1.183 1.134 2.029 2.608l2.584 4.565h-3.792l-2.102-3.816c-.797-1.497-1.352-2.102-1.739-2.198h-1.207v6.014h-3.309v-15.917zm4.541 7.222c.725 0 1.183-.122 1.594-.338.628-.387 1.063-1.039 1.063-1.934 0-.845-.386-1.57-1.087-1.931-.362-.218-.821-.338-1.546-.338h-1.256v4.542h1.232z"/><linearGradient id="g" gradientUnits="userSpaceOnUse" x1="104.075" y1="101.404" x2="104.075" y2="60.661"><stop offset="0" stop-color="#4D4D4D"/><stop offset=".418" stop-color="#434342"/><stop offset="1" stop-color="#3A3938"/></linearGradient><path fill="url(#g)" d="M111.297 78.695c-1.57.797-3.743 1.305-5.966 1.305-5.386 0-8.478-3.358-8.478-7.899 0-4.807 3.502-8.43 8.913-8.43 1.884 0 3.406.338 4.734.773v3.068c-1.304-.627-2.729-1.063-4.468-1.063-3.72 0-5.652 2.246-5.652 5.459 0 3.188 1.86 5.338 5.145 5.338.99 0 1.884-.17 2.463-.411v-4.879h3.309v6.739z"/><linearGradient id="h" gradientUnits="userSpaceOnUse" x1="65.635" y1="-5.081" x2="65.635" y2="49.376" gradientTransform="matrix(1 0 .052 1 -11.158 0)"><stop offset="0" stop-color="#4D4D4D"/><stop offset=".418" stop-color="#434342"/><stop offset="1" stop-color="#3A3938"/></linearGradient><path fill="url(#h)" d="M80.043 15.302c-1.377-1.695-3.63-3.857-6.155-5.531-2.929-1.943-4.07-2.59-5.506-4.382-2.71-3.381-11.097-6.269-17.613-5.14-14.398 2.492-21.932 15.868-20.479 28.917 1.496 13.444 11.367 18.997 28.226 18.997 3.544 0 3.385-4.546.396-5.016-8.842-1.392-16.648-8.158-18.442-17.569-2.047-10.743 4.19-19.817 13.425-21.493 5.027-.913 9.379.588 12.475 3.044 2.76 2.189 3.776 2.299 6.128 4.025 1.447 1.063 3.028 2.172 5.374 4.52 2.042 2.046-.636 2.34-3.536 2.348-1.049.002-.928 1.074-.01 1.434 2.075.651 3.64.941 3.076 2.618-.17.506-.458 1.008-1.15 1.263-.83.306-5.313.62-5.872.833-.81.308-.468 1.285.398 1.337.509.03 1.124-.302 1.793-.448 1.888-.413 4.032-.081 3.965.256-.557 3.056-4.663 3.41-5.461 2.158-.576-.904-1.871-1.439-3.129-1.439-.721 0-1.251.181-1.761.719-.851.898.452 1.795 1.133 1.078.171-.18.532-.18.712-.18.537 0 .987.255 1.286.54.299.284.575.718.784 1.258 1.228 2.876 6.16.899 7.146-.9 1.644-2.876 2.376-6.112 3.662-8.989.627-1.796.121-3.043-.865-4.258z"/><linearGradient id="i" gradientUnits="userSpaceOnUse" x1="77.428" y1="-4.101" x2="77.428" y2="57.406" gradientTransform="matrix(1 0 .052 1 -11.158 0)"><stop offset="0" stop-color="#4D4D4D"/><stop offset=".418" stop-color="#434342"/><stop offset="1" stop-color="#3A3938"/></linearGradient><path fill="url(#i)" d="M67.214 14.049c1.203.402 1.532-.464 1.988-1.32.185-.347-.218-.72-.399-.72h-3.594c-.54 0-.876 1.018-.267 1.273 1.025.428 1.571.532 2.272.767z"/><linearGradient id="j" gradientUnits="userSpaceOnUse" x1="69.939" y1="46.758" x2="69.939" y2="9.044" gradientTransform="matrix(1 0 .052 1 -11.158 0)"><stop offset="0" stop-color="#005CA9"/><stop offset="1" stop-color="#0080C9"/></linearGradient><path fill-rule="evenodd" clip-rule="evenodd" fill="url(#j)" d="M70.236 45.194c2.568-2.444 3.207-6.327 1.935-10.973-1.418-3.056 2.536-3.6 3.318-.652 1.8 6.796-1.731 12.143-4.738 13.598-2.736 1.325-6.093 1.393-6.981-1.351-.76-2.348-1.141-3.131-5.433-4.778-6.919-2.654-12.373-8.348-13.452-16.345-1.178-8.73 3.235-15.872 9.005-15.872 3.949 0 6.852 3.551 5.23 8.9-1.494 4.928-.545 8.005 5.168 13.434 3.721 3.535 6.921 8.283 4.981 13.86-.492.898.428.691.967.179zm-12.476-30.774c0-2.215-1.795-4.011-4.011-4.011-2.215 0-4.011 1.796-4.011 4.011s1.795 4.011 4.011 4.011 4.011-1.796 4.011-4.011zm-.954 0c0-1.688-1.369-3.056-3.057-3.056s-3.057 1.368-3.057 3.056 1.369 3.056 3.057 3.056c1.688.001 3.057-1.368 3.057-3.056z"/></svg>