<svg xmlns="http://www.w3.org/2000/svg" width="200" height="140.666" viewBox="0 0 200 140.666"><path d="M.578 30.996c.65 0 1.664-.326 2.89-.326 3.106 0 2.964 3.544 2.964 13.094v32.778c0 5.847-.144 11.282-.507 16.226-3.757.822-5.637 1.478-5.637 2.294 0 .582.362.744 1.157.744.58 0 3.466-.495 8.603-.495 5.13 0 8.018.5 8.6.5.793 0 1.154-.16 1.154-.742 0-.816-1.88-1.473-5.566-2.294-.358-4.866-.504-10.297-.504-16.226v-49.57c0-1.405-.073-1.905-.582-1.905-1.157 0-4.046 1.653-9.178 3.3C1.52 29.198 0 29.27 0 30.268c0 .494.288.73.578.73zM47.188 53.9c2.176-1.304 3.326-2.287 3.326-4.34 0-2.126-1.304-3.6-3.18-3.6-1.513 0-2.954 1.062-4.765 3.194L32.96 60.45h3.18l11.047-6.55zm-7.15 11.577c-10.546 0-16.836 6.255-16.836 15.643 0 8.997 6.213 14.687 16.403 14.687 10.483 0 16.842-6.413 16.842-15.165 0-9.544-6.067-15.165-16.408-15.165zm-.5 28.488c-5.068 0-8.162-4.657-8.162-13.08 0-8.585 3.605-13.485 8.74-13.485 4.838 0 8.167 4.815 8.167 12.85 0 8.503-3.622 13.715-8.744 13.715zm159.63-5.422c-.86 0-2.454 2.507-4.838 2.507-1.23 0-1.374-.896-1.23-3.798l.588-9.954c.055-1.685.055-2.748.055-3.23 0-5.98-2.81-8.808-8.808-8.808-8.17 0-14.017 4.123-14.017 5.98 0 .563.217.897.726.897 1.158 0 4.334-2.828 9.61-2.828 4.263 0 5.197 2.18 5.197 7.51v3.23c-3.1-1.296-5.85-2.025-8.452-2.025-5.56 0-9.316 3.792-9.316 9.222 0 5.324 3.04 8.554 7.59 8.554 3.03 0 6.214-1.86 10.185-5.335-.143 3.64.585 5.336 2.533 5.336 1.874 0 4.624-1.043 7.878-3.31 2.095-1.446 3.112-2.584 3.112-3.23 0-.322-.37-.724-.803-.724zm-12.717.072c-2.67 1.856-4.62 3.073-6.35 3.073-2.39 0-3.905-2.018-3.905-5.42 0-3.95 1.74-5.978 4.984-5.978 1.235 0 2.97.49 5.28 1.532v6.793zM94.39 92.93c-.5-3.047-.426-6.01-.426-9.057v-7.9c0-.62-.016-1.193-.03-1.752-.022-.74-.063-1.44-.13-2.082-.468-4.516-2.08-6.788-6.746-6.788-2.637 0-7.264 1.557-13.68 5.014V26.97c0-1.405-.07-1.905-.57-1.905-1.136 0-3.99 1.653-9.05 3.302-2.415.816-3.91.9-3.91 1.897 0 .495.28.73.565.73.642 0 1.637-.326 2.856-.326 3.06 0 2.91 3.545 2.91 13.095V76.54c0 5.847-.15 11.282-.5 16.226-3.637 1.066-5.557 1.312-5.557 2.294 0 .582.353.744 1.138.744.783 0 3.49-.495 7.98-.495 4.557 0 7.19.49 7.973.49.792 0 1.146-.16 1.146-.744 0-.816-1.495-1.39-4.56-2.13-.496-3.05-.428-6.01-.428-9.06V72.75c3.06-2.143 5.768-3.292 8.832-3.292 3.75 0 4.394 2.64 4.474 7.576.02.35.02.7.02 1.075v7.57c.003 2.425-.038 4.806-.43 7.245-3.058.742-4.56 1.316-4.56 2.132 0 .58.35.743 1.142.743.78 0 3.414-.494 7.977-.494 4.49 0 7.2.495 7.98.495.78 0 1.14-.16 1.14-.742 0-.893-1.854-1.39-5.563-2.13zm48.193-26.137c0 .37.222.648.44.648 1.442 0 4.403-3.16 8.306-3.16 2.89 0 4.77 2.33 4.77 5.68 0 3.25-1.746 5.77-5.28 8.46l-1.805-2.88c-3.4 1.488-6.066 2.6-8.024 3.43l6.65 8.02c4.836 5.755 8.46 8.823 11.635 8.823 3.39 0 5.992-3.626 5.992-5.58 0-.46-.214-.556-.58-.556-.787 0-1.66 2.05-3.326 2.05-2.164 0-4.91-4.276-9.753-11.907 7.876-3.717 11.783-7.54 11.783-11.99 0-4.38-2.603-7.173-7.29-7.173-7.66 0-13.52 5.208-13.52 6.14zm-2.098 25.976c-.35-4.87-.504-10.3-.504-16.23V26.97c0-1.405-.06-1.905-.57-1.905-1.155 0-4.043 1.653-9.173 3.302-2.46.816-3.982.9-3.982 1.897 0 .495.3.73.593.73.64 0 1.653-.326 2.886-.326 3.104 0 2.953 3.544 2.953 13.094v32.78c0 5.846-.14 11.28-.494 16.225-3.692.904-5.636 1.4-5.636 2.293 0 .582.36.744 1.156.744.787 0 3.532-.495 8.09-.495 4.62 0 7.3.49 8.09.49s1.15-.16 1.15-.744c0-.818-1.576-1.146-4.55-2.296zM3.348 107.04l-1.163 3.173H.735l3.916-10.51h1.7l4.118 10.51h-1.43l-1.22-3.172h-4.47zm.395-1.122H7.37l-1.434-3.696-.424-1.537-.41 1.537-1.36 3.696zm9.648.503c.07.5.22.96.45 1.36.22.42.55.75.993 1 .435.254 1.036.383 1.79.383.456 0 .89-.083 1.313-.25.415-.17.784-.423 1.11-.77l.956.894c-.447.472-.96.824-1.55 1.04-.58.21-1.193.327-1.827.327-.894 0-1.65-.144-2.252-.42-.602-.28-1.092-.66-1.46-1.142-.37-.486-.63-1.06-.794-1.722-.16-.666-.24-1.39-.24-2.166v-.557c0-.768.095-1.45.294-2.053.198-.598.495-1.11.886-1.53.394-.42.885-.74 1.483-.96.592-.226 1.29-.33 2.085-.33.61 0 1.217.096 1.81.306.585.204 1.1.523 1.535.965l-.927.92c-.314-.325-.68-.556-1.11-.72-.43-.156-.87-.233-1.31-.233-.665 0-1.21.11-1.643.32-.427.22-.772.503-1.02.854-.25.35-.425.745-.523 1.18-.093.43-.142.86-.142 1.3v.5c0 .504.034 1.007.1 1.51zm9.87 0c.07.5.21.96.438 1.36.227.42.56.75.998 1 .443.254 1.038.383 1.793.383.46 0 .892-.083 1.31-.25.417-.17.79-.423 1.11-.77l.954.894c-.44.472-.954.824-1.54 1.04-.59.21-1.2.327-1.834.327-.9 0-1.645-.144-2.25-.42-.61-.28-1.094-.66-1.46-1.142-.368-.486-.635-1.06-.798-1.722-.16-.666-.237-1.39-.237-2.166v-.557c0-.768.096-1.45.294-2.053.2-.598.49-1.11.876-1.53.398-.42.894-.74 1.49-.96.592-.226 1.287-.33 2.083-.33.616 0 1.22.096 1.81.306.59.204 1.1.523 1.534.965l-.924.92c-.31-.325-.684-.556-1.11-.72-.432-.156-.862-.233-1.31-.233-.662 0-1.21.11-1.64.32-.422.22-.77.503-1.02.854-.252.35-.427.745-.522 1.18-.092.43-.143.86-.143 1.3v.5c0 .504.035 1.007.1 1.51zm16.18 3.8h-7.52V99.71h7.564l-.392 1.24h-5.81v3.083h5.208v1.237h-5.21v3.71h6.154v1.235zm3.228-10.51v9.273h5.19l-.38 1.236H41.3V99.71h1.363zm14.19 10.51H49.34V99.71h7.56l-.396 1.24h-5.81v3.083H55.9v1.237h-5.204v3.71h6.157v1.235zm5.375-4.085c-.11-.14-.256-.242-.423-.3-.176-.06-.346-.092-.52-.092h-1.21v4.477h-1.36V99.71h4.777c.44 0 .85.062 1.224.2.38.14.7.335.96.59.27.258.48.564.63.933.158.357.23.77.23 1.226 0 .896-.26 1.613-.76 2.17-.51.545-1.226.84-2.14.895l2.434 3.054c.18.232.338.38.485.423.14.04.315.064.527.064v.95c-.11.06-.242.108-.383.142-.15.026-.277.045-.378.045-.292 0-.557-.1-.786-.305-.24-.202-.46-.41-.65-.644l-2.663-3.32zm-2.15-1.617h3.177c.65 0 1.136-.148 1.45-.452.312-.304.47-.77.47-1.404 0-.592-.15-1.02-.45-1.295-.296-.28-.73-.413-1.294-.413H60.08v3.568zm11.06 2.53l-1.164 3.17h-1.45l3.914-10.51h1.694l4.113 10.51h-1.42l-1.226-3.17H71.14zm.396-1.124h3.63l-1.438-3.696-.42-1.537-.414 1.537-1.36 3.696zm12.54-4.973v9.268h-1.36v-9.268h-3.512v-1.245h8.363l-.39 1.243H84.08zm12.62 9.268h-7.52v-10.51h7.563l-.398 1.242H90.54v3.08h5.197v1.237H90.54v3.712h6.152v1.234zm13.134-10.51v10.51h-1.36v-10.51h1.36zm2.497 10.51v-10.51h1.74l5.25 8.435v-8.437h1.364v10.51h-1.666l-5.327-8.607v8.607h-1.363zm10.763 0v-10.51h1.734l5.25 8.435v-8.437h1.36v10.51h-1.666l-5.32-8.607v8.607h-1.36zm15.38.186c-.875 0-1.63-.146-2.25-.423-.625-.283-1.135-.674-1.53-1.166-.39-.49-.68-1.06-.867-1.73-.187-.668-.282-1.377-.282-2.134v-.408c0-.716.115-1.38.346-2 .22-.61.547-1.143.97-1.59.42-.453.94-.81 1.55-1.053.613-.257 1.3-.38 2.064-.38.77 0 1.457.124 2.065.38.61.245 1.126.6 1.553 1.054.42.446.742.978.97 1.59.23.62.344 1.283.344 2v.406c0 .76-.096 1.468-.283 2.13-.18.674-.475 1.245-.87 1.734-.39.492-.902.882-1.53 1.167-.62.28-1.37.424-2.25.424zm0-9.64c-.564 0-1.06.1-1.494.3-.44.207-.804.474-1.097.824-.3.342-.528.747-.687 1.21-.153.464-.23.958-.23 1.472v.343c0 .577.07 1.12.203 1.635.132.51.343.96.625 1.342.28.39.64.698 1.083.923.438.238.96.346 1.562.346.62 0 1.162-.11 1.615-.327.447-.22.81-.52 1.1-.898.283-.38.495-.823.625-1.34.13-.51.2-1.078.2-1.684v-.345c0-.514-.083-1.01-.236-1.472-.16-.464-.386-.868-.686-1.21-.293-.35-.663-.617-1.1-.822-.44-.2-.936-.3-1.493-.3zm7.707-1.24l2.86 7.46.557 1.74.56-1.74 2.902-7.46 1.314.36-3.98 10.33h-1.572l-3.976-10.33 1.333-.36zm11.92 7.52l-1.168 3.17h-1.45l3.92-10.51h1.693l4.112 10.51h-1.422l-1.225-3.17h-4.46zm.392-1.122h3.633l-1.44-3.694-.423-1.535-.412 1.538-1.36 3.698zm12.542-4.97v9.267h-1.36v-9.27h-3.508V99.7h8.36l-.387 1.244h-3.108zm6.46-1.244v10.51h-1.36V99.7h1.36zm7.13 10.7c-.877 0-1.63-.147-2.25-.424-.627-.283-1.137-.674-1.528-1.166-.397-.49-.685-1.06-.87-1.73-.188-.666-.283-1.375-.283-2.132v-.406c0-.716.115-1.38.34-2 .228-.61.555-1.143.98-1.59.424-.453.94-.81 1.548-1.053.614-.256 1.3-.378 2.067-.378.766 0 1.452.12 2.064.376.607.244 1.13.6 1.55 1.053.425.447.75.98.978 1.59.222.62.336 1.284.336 2v.407c0 .758-.09 1.467-.28 2.13-.19.673-.474 1.244-.867 1.733-.394.49-.905.88-1.53 1.166-.623.276-1.376.42-2.252.42zm0-9.64c-.563 0-1.062.1-1.5.3-.43.206-.795.473-1.094.823-.3.34-.527.747-.68 1.21-.155.464-.236.958-.236 1.47v.347c0 .575.072 1.12.207 1.633.136.51.345.96.625 1.342.284.39.644.7 1.08.924.443.236.962.344 1.568.344.624 0 1.166-.11 1.61-.326.452-.22.82-.517 1.112-.896.28-.38.493-.822.626-1.34.127-.51.194-1.077.194-1.683v-.346c0-.516-.08-1.01-.233-1.474-.153-.463-.38-.867-.677-1.21-.3-.35-.666-.616-1.104-.82-.447-.2-.94-.3-1.496-.3zm7.024 9.452V99.7h1.74l5.245 8.436V99.7H200v10.51h-1.667l-5.322-8.607v8.608h-1.36z"/><path d="M118.297 92.94c-.502-2.998-.434-5.905-.434-8.908V66.528c0-.972-.068-1.136-.946-1.136-.87 0-4.075 1.87-10.34 2.924-.457.066-.757.08-1.018.092-.85.138-.13 1.526.25 1.932.02.02 1.024.083 1.347.083h2.832c.37 2.188.444 4.374.444 6.564v7.046c0 3.003.065 5.91-.446 8.907-3.78.73-5.593 1.222-5.593 2.11 0 .568.29.73 1.09.73.58 0 3.49-.492 8.66-.492 5.16 0 8.083.493 8.662.493.79 0 1.092-.16 1.092-.73 0-.89-1.828-1.38-5.61-2.11zm-5.286-45.557c3.15 0 5.81 2.707 5.81 5.808 0 3.28-2.572 5.9-5.81 5.9-3.24 0-5.9-2.62-5.9-5.9 0-3.1 2.77-5.8 5.9-5.8zM75.15 33.095v3.076c7.95 12.09 18.184 26.25 29.455 40.94.204.007.83.06.972.078C93.405 61 82.56 45.428 75.145 33.098zM59.5.502c-2.907 2.222.76 11.345 8.562 24.42.62-.352 1.227-.727 1.84-1.086-4.416-8.483-6.144-14.29-3.972-15.92 4.822-3.638 24.278 14.268 46.17 41.17l.045-.164.003-.017C86.926 17.785 64.84-3.595 59.5.502zm98.207 112.845h-1.95c5.146 10.294 7.054 17.393 4.567 19.26-3.413 2.57-12.664-5.12-26.053-19.26h-1.05c16.947 18.745 28.68 29.873 32.674 26.816 3.084-2.363-.106-12.496-8.18-26.816zM126.63 32.77c-3.163 3.597-6.42 7.39-9.777 11.386l-.003.265c3.53-4.15 6.956-8.06 10.23-11.68l-.45.03zm31.927-24.807c3.977 3.013-3.046 20.278-16.825 42.27v2.306c18.133-26.9 27.946-48.37 23.306-51.96-3.816-2.945-15.964 7.443-31.92 24.92.318-.107.642-.198.97-.284 12.157-12.608 21.324-19.65 24.47-17.26zm-27.51 58.275c-2.972 4.218-6.1 8.498-9.418 12.82-2.8 3.643-5.59 7.15-8.35 10.525l.683.004c2.908-3.544 5.844-7.206 8.79-10.974 2.877-3.686 5.635-7.336 8.288-10.948v-1.427zm-38.914 47.11c-13.88 14.085-24.73 21.745-28.138 19.156-2.473-1.886-.534-8.938 4.66-19.157h-1.968c-8.18 14.237-11.613 24.398-8.542 26.766 3.987 3.077 17.628-8.086 35.076-26.766h-1.08z" fill="#68AD45"/></svg>