<svg xmlns="http://www.w3.org/2000/svg" width="200" height="140.666" viewBox="0 0 200 140.666"><path d="M.578 30.996c.65 0 1.664-.326 2.89-.326 3.106 0 2.964 3.544 2.964 13.094v32.778c0 5.847-.144 11.282-.507 16.226-3.757.822-5.637 1.478-5.637 2.294 0 .582.362.744 1.157.744.58 0 3.466-.495 8.603-.495 5.13 0 8.018.497 8.6.497.793 0 1.154-.162 1.154-.744 0-.816-1.88-1.473-5.566-2.294-.358-4.867-.504-10.298-.504-16.227v-49.57c0-1.405-.073-1.905-.582-1.905-1.157 0-4.046 1.653-9.178 3.302C1.52 29.196 0 29.27 0 30.266c0 .494.288.73.578.73zM47.188 53.9c2.176-1.304 3.326-2.287 3.326-4.34 0-2.126-1.304-3.6-3.18-3.6-1.513 0-2.954 1.062-4.765 3.194L32.96 60.45h3.18l11.047-6.55zm-7.15 11.577c-10.546 0-16.836 6.255-16.836 15.643 0 8.997 6.213 14.687 16.403 14.687 10.483 0 16.842-6.413 16.842-15.165 0-9.544-6.067-15.165-16.408-15.165zm-.5 28.488c-5.068 0-8.162-4.657-8.162-13.08 0-8.585 3.605-13.485 8.74-13.485 4.838 0 8.167 4.815 8.167 12.85 0 8.503-3.622 13.715-8.744 13.715zm159.63-5.422c-.86 0-2.454 2.507-4.838 2.507-1.23 0-1.374-.896-1.23-3.798l.588-9.954c.055-1.685.055-2.748.055-3.23 0-5.98-2.81-8.808-8.808-8.808-8.17 0-14.017 4.123-14.017 5.98 0 .563.217.897.726.897 1.158 0 4.334-2.828 9.61-2.828 4.263 0 5.197 2.18 5.197 7.51v3.234c-3.1-1.295-5.85-2.024-8.457-2.024-5.56 0-9.316 3.793-9.316 9.223 0 5.325 3.042 8.555 7.59 8.555 3.03 0 6.214-1.86 10.185-5.336-.143 3.64.585 5.336 2.533 5.336 1.874 0 4.624-1.044 7.878-3.31 2.095-1.447 3.112-2.585 3.112-3.23 0-.323-.37-.725-.803-.725zm-12.717.072c-2.67 1.856-4.62 3.073-6.353 3.073-2.388 0-3.907-2.018-3.907-5.42 0-3.95 1.738-5.978 4.983-5.978 1.236 0 2.97.49 5.28 1.532v6.793zM94.39 92.93c-.5-3.047-.426-6.01-.426-9.057v-7.9c0-.62-.016-1.193-.03-1.752-.022-.74-.063-1.44-.13-2.087-.468-4.516-2.08-6.788-6.746-6.788-2.637 0-7.264 1.558-13.68 5.015V26.97c0-1.405-.07-1.905-.57-1.905-1.136 0-3.99 1.653-9.05 3.302-2.415.816-3.91.9-3.91 1.897 0 .495.28.73.565.73.642 0 1.637-.326 2.856-.326 3.06 0 2.916 3.545 2.916 13.095V76.54c0 5.847-.15 11.282-.5 16.226-3.638 1.066-5.558 1.312-5.558 2.294 0 .582.353.744 1.138.744.782 0 3.49-.495 7.98-.495 4.556 0 7.188.495 7.972.495.792 0 1.146-.162 1.146-.744 0-.815-1.495-1.39-4.56-2.13-.496-3.05-.428-6.01-.428-9.06V72.75c3.06-2.143 5.768-3.292 8.832-3.292 3.75 0 4.394 2.64 4.474 7.576.018.35.018.7.018 1.075v7.576c.006 2.424-.035 4.805-.43 7.244-3.055.743-4.56 1.317-4.56 2.133 0 .582.354.744 1.145.744.78 0 3.414-.495 7.977-.495 4.49 0 7.2.495 7.978.495.782 0 1.14-.162 1.14-.744 0-.893-1.853-1.39-5.562-2.132zm48.193-26.137c0 .37.222.648.44.648 1.442 0 4.403-3.16 8.306-3.16 2.894 0 4.775 2.328 4.775 5.677 0 3.247-1.746 5.767-5.28 8.458l-1.805-2.88c-3.4 1.488-6.065 2.6-8.023 3.43l6.648 8.02c4.836 5.755 8.46 8.823 11.635 8.823 3.392 0 5.993-3.626 5.993-5.58 0-.46-.213-.556-.578-.556-.788 0-1.66 2.05-3.327 2.05-2.165 0-4.91-4.276-9.754-11.907 7.876-3.716 11.783-7.538 11.783-11.988 0-4.38-2.605-7.173-7.292-7.173-7.662 0-13.522 5.208-13.522 6.14zm-2.098 25.976c-.35-4.868-.504-10.3-.504-16.228v-49.57c0-1.406-.064-1.906-.573-1.906-1.157 0-4.045 1.653-9.175 3.302-2.46.816-3.982.9-3.982 1.897 0 .495.3.73.592.73.64 0 1.653-.326 2.886-.326 3.104 0 2.953 3.544 2.953 13.094v32.78c0 5.846-.14 11.28-.494 16.225-3.692.904-5.636 1.4-5.636 2.293 0 .582.36.744 1.156.744.788 0 3.533-.495 8.092-.495 4.618 0 7.298.495 8.09.495.79 0 1.148-.162 1.148-.744 0-.817-1.575-1.145-4.55-2.295zM3.348 107.04l-1.163 3.173H.735l3.916-10.51h1.7l4.113 10.51H9.036l-1.222-3.172H3.348zm.395-1.122H7.37l-1.434-3.696-.424-1.537-.41 1.537-1.36 3.696zm9.648.503c.065.5.218.958.444 1.36.22.415.552.746.994.994.435.255 1.036.384 1.79.384.456 0 .89-.083 1.313-.25.415-.168.784-.423 1.11-.768l.956.892c-.447.472-.96.824-1.55 1.04-.58.21-1.193.327-1.827.327-.896 0-1.65-.145-2.254-.42-.603-.28-1.093-.66-1.46-1.143-.37-.487-.63-1.062-.795-1.723-.16-.666-.24-1.39-.24-2.166v-.556c0-.768.096-1.45.295-2.053.197-.596.494-1.108.885-1.53.394-.417.885-.74 1.483-.96.593-.224 1.292-.33 2.086-.33.61 0 1.216.098 1.81.308.584.204 1.1.523 1.534.965l-.926.92c-.314-.327-.68-.558-1.11-.722-.43-.156-.87-.233-1.31-.233-.665 0-1.21.11-1.643.32-.427.22-.772.503-1.02.854-.25.35-.425.743-.523 1.18-.093.43-.142.86-.142 1.3v.5c0 .502.033 1.005.1 1.51zm9.87 0c.064.5.21.958.433 1.36.227.415.56.746.998.994.443.255 1.038.384 1.793.384.46 0 .893-.083 1.31-.25.418-.168.79-.423 1.11-.768l.955.892c-.44.472-.955.824-1.542 1.04-.588.21-1.198.327-1.833.327-.898 0-1.644-.145-2.25-.42-.61-.28-1.093-.66-1.46-1.143-.367-.487-.634-1.062-.797-1.723-.16-.666-.237-1.39-.237-2.166v-.556c0-.768.095-1.45.293-2.053.2-.596.49-1.108.878-1.53.398-.417.894-.74 1.49-.96.592-.224 1.287-.33 2.083-.33.617 0 1.22.098 1.81.308.592.204 1.1.523 1.535.965l-.924.92c-.31-.327-.684-.558-1.11-.722-.432-.156-.862-.233-1.31-.233-.662 0-1.21.11-1.64.32-.422.22-.768.503-1.02.854-.252.35-.427.743-.522 1.18-.092.43-.143.86-.143 1.3v.5c0 .502.034 1.005.1 1.51zm16.175 3.794H31.92v-10.51h7.563l-.392 1.242h-5.81v3.083h5.204v1.236H33.28v3.712h6.154v1.236zm3.228-10.51v9.274h5.19l-.38 1.236H41.3v-10.51h1.363zm14.19 10.51h-7.518v-10.51H56.9l-.396 1.242h-5.81v3.083H55.9v1.236h-5.204v3.712h6.157v1.236zm5.375-4.084c-.11-.142-.256-.243-.423-.3-.175-.06-.345-.093-.52-.093H60.08v4.476h-1.36v-10.51h4.777c.44 0 .85.063 1.224.202.376.14.697.335.96.59.267.258.48.564.63.933.153.357.23.772.23 1.226 0 .898-.26 1.615-.766 2.172-.51.545-1.225.84-2.138.895l2.434 3.054c.18.234.337.38.484.425.14.04.316.063.528.063v.95c-.11.06-.242.108-.383.142-.15.027-.277.046-.378.046-.292 0-.557-.1-.786-.305-.24-.203-.458-.41-.647-.645l-2.664-3.32zm-2.148-1.618h3.175c.65 0 1.137-.148 1.45-.452.313-.305.47-.77.47-1.405 0-.592-.15-1.02-.448-1.295-.296-.28-.73-.414-1.294-.414h-3.355v3.566zm11.06 2.53l-1.166 3.17h-1.45l3.915-10.51h1.693l4.113 10.51H76.83l-1.227-3.17H71.14zm.394-1.124h3.63l-1.437-3.696-.42-1.537-.414 1.537-1.36 3.696zm12.54-4.973v9.268h-1.358v-9.268h-3.512v-1.243h8.363l-.39 1.243h-3.103zm12.62 9.268h-7.52v-10.51h7.564l-.396 1.242H90.54v3.083h5.197v1.237H90.54v3.712h6.152v1.236zm13.135-10.51v10.51h-1.36v-10.51h1.358zm2.496 10.51v-10.51h1.74l5.25 8.435v-8.436h1.363v10.51h-1.664l-5.327-8.607v8.608h-1.364zm10.762 0v-10.51h1.735l5.25 8.435v-8.436h1.36v10.51h-1.666l-5.322-8.607v8.608h-1.36zm15.382.186c-.876 0-1.63-.147-2.25-.424-.626-.284-1.136-.675-1.532-1.167-.39-.49-.68-1.06-.866-1.73-.187-.667-.282-1.376-.282-2.133v-.406c0-.716.114-1.38.345-2 .22-.61.548-1.143.97-1.59.422-.453.94-.81 1.55-1.053.614-.255 1.302-.377 2.065-.377.768 0 1.456.123 2.064.378.612.245 1.128.6 1.555 1.054.42.446.744.978.97 1.59.23.62.346 1.283.346 2v.406c0 .757-.096 1.466-.283 2.13-.183.672-.477 1.243-.87 1.732-.392.492-.904.882-1.53 1.167-.623.277-1.373.422-2.252.422zm0-9.64c-.565 0-1.06.1-1.495.3-.438.206-.803.473-1.096.823-.3.342-.526.747-.685 1.21-.153.464-.23.958-.23 1.472v.345c0 .576.07 1.12.203 1.634.133.51.344.96.626 1.343.28.39.64.698 1.083.923.438.237.96.345 1.562.345.622 0 1.163-.11 1.616-.326.447-.22.81-.518 1.1-.897.283-.38.495-.823.625-1.34.13-.51.2-1.078.2-1.684v-.346c0-.514-.082-1.01-.235-1.472-.16-.464-.386-.868-.686-1.21-.293-.35-.663-.617-1.1-.822-.44-.2-.936-.3-1.493-.3zm7.706-1.24l2.86 7.458.558 1.74.56-1.74 2.902-7.458 1.316.36-3.98 10.33h-1.572l-3.977-10.33 1.333-.36zm11.92 7.52l-1.167 3.17h-1.45l3.92-10.51h1.695l4.112 10.51h-1.422l-1.225-3.17h-4.46zm.393-1.123h3.635l-1.44-3.696-.423-1.536-.413 1.537-1.36 3.697zm12.544-4.973v9.268h-1.36v-9.268h-3.508V99.7h8.36l-.387 1.244h-3.106zm6.46-1.243v10.51h-1.36V99.7h1.36zm7.13 10.698c-.877 0-1.63-.146-2.25-.423-.627-.284-1.137-.675-1.528-1.167-.397-.49-.685-1.06-.87-1.73-.188-.666-.283-1.375-.283-2.132v-.406c0-.717.113-1.38.34-2 .226-.612.553-1.144.98-1.59.422-.454.937-.81 1.546-1.054.612-.255 1.3-.377 2.065-.377.766 0 1.452.122 2.064.377.606.245 1.13.6 1.55 1.054.424.447.75.98.977 1.59.222.62.336 1.284.336 2v.407c0 .757-.09 1.466-.278 2.13-.19.672-.475 1.243-.868 1.732-.394.49-.905.88-1.53 1.166-.623.277-1.376.422-2.252.422zm0-9.64c-.563 0-1.062.1-1.5.302-.43.205-.795.472-1.094.822-.298.342-.526.747-.68 1.21-.154.464-.235.958-.235 1.472v.345c0 .575.072 1.12.207 1.633.135.51.344.96.624 1.343.284.39.644.698 1.08.923.443.236.962.344 1.568.344.623 0 1.165-.11 1.608-.326.452-.22.818-.517 1.112-.896.28-.38.493-.823.626-1.34.128-.51.195-1.078.195-1.684v-.345c0-.514-.08-1.01-.234-1.472-.153-.463-.38-.867-.677-1.21-.3-.35-.665-.616-1.103-.82-.445-.2-.94-.3-1.494-.3zm7.024 9.453V99.7h1.74l5.245 8.436V99.7H200v10.51h-1.667l-5.322-8.607v8.608h-1.36z"/><path d="M118.297 92.94c-.502-2.998-.434-5.905-.434-8.908V66.528c0-.972-.068-1.136-.946-1.136-.87 0-4.075 1.87-10.34 2.924-.457.066-.757.08-1.018.092-.85.138-.13 1.526.255 1.932.02.02 1.024.083 1.347.083h2.832c.372 2.188.445 4.374.445 6.564v7.046c0 3.003.065 5.91-.446 8.907-3.782.73-5.593 1.222-5.593 2.11 0 .568.293.73 1.09.73.58 0 3.493-.492 8.66-.492 5.163 0 8.085.493 8.664.493.79 0 1.093-.16 1.093-.73 0-.89-1.827-1.38-5.61-2.11zm-5.286-45.557c3.147 0 5.81 2.707 5.81 5.808 0 3.277-2.577 5.9-5.81 5.9-3.24 0-5.9-2.623-5.9-5.9 0-3.1 2.764-5.806 5.9-5.806zM75.148 33.095v3.076c7.95 12.09 18.184 26.246 29.455 40.938.204.004.83.058.972.075C93.404 61 82.56 45.423 75.146 33.095zM59.5.502c-2.907 2.222.76 11.345 8.562 24.42.62-.352 1.227-.727 1.84-1.086-4.416-8.483-6.144-14.29-3.972-15.92 4.822-3.638 24.278 14.268 46.17 41.17l.045-.164.003-.017C86.926 17.785 64.84-3.595 59.5.502zm98.207 112.845h-1.95c5.146 10.294 7.054 17.393 4.567 19.26-3.413 2.57-12.664-5.12-26.053-19.26h-1.056c16.948 18.745 28.68 29.873 32.675 26.816 3.083-2.363-.107-12.496-8.18-26.816zM126.63 32.77c-3.163 3.597-6.42 7.39-9.777 11.386l-.003.265c3.53-4.156 6.956-8.064 10.23-11.68l-.45.03zm31.927-24.807c3.977 3.013-3.046 20.278-16.825 42.27v2.306C159.865 25.645 169.678 4.17 165.038.585c-3.816-2.945-15.964 7.443-31.92 24.92.318-.107.642-.198.97-.284 12.157-12.608 21.324-19.65 24.47-17.26zm-27.51 58.275c-2.972 4.218-6.1 8.498-9.418 12.82-2.8 3.643-5.585 7.15-8.348 10.525l.686.004c2.908-3.544 5.844-7.206 8.79-10.974 2.877-3.686 5.635-7.336 8.288-10.948v-1.427zm-38.914 47.11c-13.88 14.085-24.73 21.745-28.138 19.156-2.473-1.886-.534-8.938 4.66-19.157h-1.968c-8.18 14.237-11.613 24.398-8.542 26.766 3.987 3.077 17.628-8.086 35.076-26.766h-1.086z" fill="#68AD45"/></svg>