<svg xmlns="http://www.w3.org/2000/svg" width="200" height="140.666" viewBox="0 0 200 140.666"><path d="M.578 30.996c.651 0 1.664-.326 2.889-.326 3.107 0 2.965 3.544 2.965 13.094v32.778c0 5.847-.144 11.282-.507 16.226-3.757.822-5.637 1.478-5.637 2.294 0 .582.362.744 1.157.744.581 0 3.466-.495 8.603-.495 5.129 0 8.018.495 8.6.495.793 0 1.154-.162 1.154-.744 0-.816-1.88-1.473-5.566-2.294-.358-4.866-.504-10.297-.504-16.226v-49.57c0-1.405-.073-1.905-.582-1.905-1.157 0-4.046 1.653-9.178 3.302-2.452.828-3.972.901-3.972 1.898 0 .494.288.729.578.729zM47.187 53.901c2.177-1.305 3.327-2.288 3.327-4.34 0-2.127-1.304-3.602-3.181-3.602-1.512 0-2.953 1.063-4.764 3.195l-9.608 11.296h3.178l11.048-6.549zM40.039 65.477c-10.547 0-16.837 6.255-16.837 15.643 0 8.997 6.213 14.687 16.403 14.687 10.483 0 16.842-6.413 16.842-15.165.001-9.544-6.067-15.165-16.408-15.165zm-.5 28.488c-5.069 0-8.163-4.657-8.163-13.081 0-8.584 3.605-13.484 8.74-13.484 4.838 0 8.167 4.815 8.167 12.85 0 8.503-3.622 13.715-8.744 13.715zM199.169 88.543c-.862 0-2.455 2.507-4.839 2.507-1.229 0-1.374-.896-1.229-3.798l.587-9.954c.055-1.685.055-2.748.055-3.231 0-5.979-2.809-8.807-8.808-8.807-8.17 0-14.017 4.123-14.017 5.979 0 .564.217.898.726.898 1.158 0 4.334-2.828 9.609-2.828 4.264 0 5.198 2.181 5.198 7.51v3.236c-3.103-1.295-5.851-2.024-8.459-2.024-5.559 0-9.316 3.792-9.316 9.222 0 5.325 3.042 8.555 7.591 8.555 3.028 0 6.213-1.859 10.184-5.336-.144 3.641.584 5.336 2.532 5.336 1.874 0 4.624-1.044 7.878-3.31 2.094-1.447 3.111-2.585 3.111-3.231 0-.322-.371-.724-.803-.724zm-12.718.072c-2.673 1.856-4.621 3.073-6.355 3.073-2.388 0-3.907-2.018-3.907-5.42 0-3.951 1.739-5.978 4.984-5.978 1.236 0 2.969.489 5.279 1.532v6.793zM94.39 92.931c-.499-3.048-.426-6.01-.426-9.058v-7.900999999999998c0-.62-.016-1.192-.031-1.751-.021-.741-.062-1.442-.128-2.089-.469-4.516-2.081-6.788-6.747-6.788-2.637 0-7.264 1.558-13.681 5.015v-43.387c0-1.405-.068-1.905-.569-1.905-1.136 0-3.989 1.653-9.05 3.302-2.415.817-3.909.902-3.909 1.898 0 .495.28.73.564.73.642 0 1.637-.326 2.856-.326 3.062 0 2.918 3.544 2.918 13.094v32.776999999999994c0 5.847-.149 11.282-.499 16.226-3.639 1.066-5.559 1.312-5.559 2.294 0 .582.354.744 1.139.744.782 0 3.49-.495 7.98-.495 4.556 0 7.188.495 7.972.495.792 0 1.146-.162 1.146-.744 0-.816-1.495-1.39-4.561-2.132-.495-3.048-.427-6.01-.427-9.058v-11.12c3.059-2.144 5.768-3.293 8.832-3.293 3.751 0 4.394 2.642 4.474 7.577h.001c.017.349.017.7.017 1.075v7.5760000000000005c.006 2.424-.035 4.805-.431 7.244-3.054.742-4.56 1.316-4.56 2.132 0 .582.355.744 1.146.744.779 0 3.414-.495 7.977-.495 4.491 0 7.199.495 7.978.495.782 0 1.14-.162 1.14-.744 0-.893-1.853-1.389-5.562-2.132zM142.583 66.793c0 .369.222.648.439.648 1.443 0 4.404-3.161 8.307-3.161 2.896 0 4.777 2.327 4.777 5.676 0 3.247-1.746 5.767-5.28 8.458l-1.805-2.88c-3.402 1.488-6.066 2.6-8.024 3.431l6.648 8.019c4.836 5.755 8.461 8.823 11.635 8.823 3.392 0 5.993-3.626 5.993-5.581 0-.458-.213-.555-.578-.555-.788 0-1.659 2.049-3.327 2.049-2.165 0-4.91-4.276-9.754-11.907 7.876-3.716 11.783-7.538 11.783-11.988 0-4.38-2.605-7.173-7.292-7.173-7.662 0-13.522 5.208-13.522 6.141zM140.485 92.769c-.351-4.866-.504-10.297-.504-16.226v-49.571c0-1.405-.066-1.905-.575-1.905-1.157 0-4.045 1.653-9.175 3.302-2.46.817-3.983.902-3.983 1.898 0 .495.3.73.592.73.641 0 1.653-.326 2.886-.326 3.104 0 2.953 3.544 2.953 13.094v32.778999999999996c0 5.847-.138 11.282-.494 16.226-3.692.905-5.636 1.401-5.636 2.294 0 .582.362.744 1.157.744.788 0 3.533-.495 8.092-.495 4.618 0 7.298.495 8.09.495.791 0 1.148-.162 1.148-.744-.001-.817-1.575-1.145-4.551-2.295zM3.348 107.041l-1.163 3.172h-1.45l3.916-10.511h1.697l4.113 10.511h-1.426l-1.222-3.172h-4.465zm.395-1.123h3.628l-1.435-3.696-.424-1.537-.409 1.537-1.36 3.696zM13.391 106.421c.063.497.216.956.442 1.36.221.413.552.744.994.992.435.255 1.036.384 1.791.384.455 0 .889-.083 1.312-.251.414-.167.783-.422 1.108-.767l.957.893c-.447.472-.96.824-1.549 1.041-.582.209-1.194.326-1.828.326-.895 0-1.649-.143-2.253-.419-.603-.278-1.093-.661-1.46-1.142-.369-.487-.631-1.062-.795-1.723-.162-.666-.239-1.391-.239-2.166v-.555c0-.768.094-1.451.293-2.053.197-.596.494-1.108.885-1.53.395-.417.886-.741 1.484-.96.593-.224 1.292-.329 2.086-.329.612 0 1.218.097 1.811.307.585.205 1.099.524 1.535.966l-.926.921c-.313-.328-.679-.559-1.108-.723-.431-.157-.87-.234-1.312-.234-.664 0-1.21.111-1.642.321-.427.22-.772.503-1.019.854-.252.349-.426.742-.524 1.178-.093.431-.142.862-.142 1.299v.5c-.001.504.033 1.007.099 1.51zM23.258 106.421c.065.497.21.956.434 1.36.227.413.559.744.998.992.442.255 1.037.384 1.792.384.459 0 .893-.083 1.31-.251.418-.167.791-.422 1.111-.767l.954.893c-.441.472-.955.824-1.542 1.041-.588.209-1.198.326-1.833.326-.898 0-1.644-.143-2.25-.419-.609-.278-1.093-.661-1.461-1.142-.366-.487-.633-1.062-.796-1.723-.161-.666-.237-1.391-.237-2.166v-.555c0-.768.096-1.451.294-2.053.199-.596.49-1.108.878-1.53.397-.417.893-.741 1.488-.96.593-.224 1.288-.329 2.084-.329.617 0 1.219.097 1.809.307.593.205 1.1.524 1.536.966l-.924.921c-.309-.328-.684-.559-1.111-.723-.431-.157-.861-.234-1.31-.234-.661 0-1.209.111-1.64.321-.421.22-.767.503-1.02.854-.251.349-.426.742-.521 1.178-.093.431-.144.862-.144 1.299v.5c0 .504.035 1.007.101 1.51zM39.434 110.213h-7.516v-10.511h7.564l-.392 1.243h-5.81v3.083h5.203v1.237h-5.203v3.712h6.154v1.236zM42.662 99.702v9.275h5.19l-.381 1.236h-6.173v-10.511h1.364zM56.852 110.213h-7.518v-10.511h7.564l-.395 1.243h-5.809v3.083h5.204v1.237h-5.204v3.712h6.157v1.236zM62.227 106.129c-.111-.141-.256-.242-.423-.3-.175-.059-.345-.092-.519-.092h-1.206v4.476h-1.359v-10.511h4.777c.441 0 .851.064 1.224.203.374.14.695.335.957.589.268.259.479.565.63.934.154.357.23.772.23 1.226 0 .898-.259 1.615-.765 2.172-.51.545-1.225.84-2.138.895l2.434 3.052c.18.234.338.38.485.425.141.04.316.064.528.064v.951c-.111.06-.242.107-.383.141-.149.027-.275.046-.376.046-.292 0-.557-.102-.786-.306-.241-.203-.458-.411-.647-.645l-2.663-3.32zm-2.148-1.617h3.176c.651 0 1.137-.148 1.45-.452.313-.305.469-.771.469-1.405 0-.592-.148-1.02-.447-1.295-.296-.279-.731-.414-1.294-.414h-3.355v3.566zM71.139 107.041l-1.165 3.172h-1.45l3.915-10.511h1.695l4.113 10.511h-1.417l-1.227-3.172h-4.464zm.395-1.123h3.629l-1.436-3.696-.42-1.537-.414 1.537-1.359 3.696zM84.074 100.945v9.268h-1.358v-9.268h-3.512v-1.243h8.363l-.389 1.243h-3.104zM96.693 110.213h-7.519v-10.511h7.564l-.396 1.243h-5.802v3.083h5.197v1.237h-5.197v3.712h6.152v1.236zM109.829 99.702v10.511h-1.357v-10.511h1.357zM112.327 110.213v-10.511h1.74l5.25 8.436v-8.436h1.363v10.511h-1.663l-5.327-8.608v8.608h-1.363zM123.089 110.213v-10.511h1.736l5.251 8.436v-8.436h1.359v10.511h-1.666l-5.321-8.608v8.608h-1.359zM138.472 110.399c-.876 0-1.63-.145-2.25-.422-.626-.284-1.136-.675-1.532-1.167-.39-.489-.681-1.06-.866-1.731-.187-.665-.282-1.374-.282-2.131v-.406c0-.717.114-1.381.345-2.001.221-.611.548-1.143.969-1.589.423-.454.94-.809 1.552-1.054.613-.255 1.301-.377 2.064-.377.768 0 1.456.122 2.064.377.612.245 1.128.6 1.555 1.054.419.446.744.978.971 1.589.229.62.345 1.284.345 2.001v.406c0 .757-.096 1.466-.283 2.131-.183.671-.477 1.242-.871 1.731-.391.492-.903.882-1.529 1.167-.623.277-1.373.422-2.252.422zm0-9.64c-.565 0-1.061.102-1.495.303-.438.205-.803.472-1.096.822-.3.342-.526.747-.685 1.21-.153.464-.231.958-.231 1.472v.345c0 .575.07 1.12.204 1.633.134.51.345.96.627 1.343.279.391.641.698 1.083.923.439.237.96.345 1.563.345.623 0 1.164-.109 1.617-.326.448-.22.81-.516 1.1-.895.284-.38.496-.823.626-1.34.131-.509.199-1.078.199-1.684v-.345c0-.514-.082-1.009-.235-1.472-.158-.464-.385-.868-.685-1.21-.292-.349-.662-.617-1.098-.822-.442-.2-.937-.302-1.494-.302zM146.178 99.522l2.859 7.457.559 1.74.559-1.74 2.903-7.457 1.316.361-3.98 10.33h-1.572l-3.977-10.33 1.333-.361zM158.099 107.041l-1.168 3.172h-1.45l3.92-10.511h1.695l4.112 10.511h-1.422l-1.225-3.172h-4.462zm.392-1.123h3.635l-1.44-3.696-.423-1.537-.413 1.537-1.359 3.696zM171.035 100.945v9.268h-1.359v-9.268h-3.509v-1.243h8.36l-.387 1.243h-3.105zM177.496 99.702v10.511h-1.36v-10.511h1.36zM184.626 110.399c-.878 0-1.632-.145-2.252-.422-.626-.284-1.136-.675-1.527-1.167-.397-.489-.685-1.06-.871-1.731-.187-.665-.282-1.374-.282-2.131v-.406c0-.717.113-1.381.341-2.001.225-.611.552-1.143.979-1.589.422-.454.937-.809 1.546-1.054.613-.255 1.3-.377 2.066-.377.766 0 1.452.122 2.064.377.607.245 1.129.6 1.549 1.054.426.446.75.978.979 1.589.222.62.336 1.284.336 2.001v.406c0 .757-.089 1.466-.278 2.131-.189.671-.475 1.242-.868 1.731-.394.492-.905.882-1.53 1.167-.623.277-1.376.422-2.252.422zm0-9.64c-.564 0-1.063.102-1.5.303-.431.205-.796.472-1.095.822-.299.342-.527.747-.682 1.21-.153.464-.234.958-.234 1.472v.345c0 .575.072 1.12.207 1.633.135.51.344.96.624 1.343.284.391.644.698 1.081.923.442.237.961.345 1.567.345.623 0 1.165-.109 1.608-.326.452-.22.818-.516 1.112-.895.281-.38.493-.823.626-1.34.128-.509.195-1.078.195-1.684v-.345c0-.514-.079-1.009-.234-1.472-.155-.464-.382-.868-.679-1.21-.299-.349-.665-.617-1.103-.822-.444-.2-.94-.302-1.493-.302zM191.649 110.213v-10.511h1.74l5.246 8.436v-8.436h1.365v10.511h-1.667l-5.322-8.608v8.608h-1.362z"/><g fill="#68AD45"><path d="M118.297 92.939c-.502-2.997-.434-5.904-.434-8.907v-17.504c0-.972-.068-1.136-.946-1.136-.87 0-4.075 1.869-10.339 2.924-.458.066-.758.08-1.019.092-.849.138-.13 1.526.257 1.932.021.02 1.024.083 1.347.083h2.832c.372 2.188.445 4.374.445 6.564v7.046c0 3.003.066 5.91-.445 8.907-3.782.731-5.593 1.222-5.593 2.11 0 .568.292.731 1.088.731.582 0 3.494-.493 8.662-.493 5.162 0 8.084.493 8.663.493.791 0 1.093-.163 1.093-.731.001-.889-1.827-1.379-5.611-2.111zM113.011 47.383c3.145 0 5.809 2.707 5.809 5.808 0 3.275-2.578 5.9-5.809 5.9-3.24 0-5.902-2.625-5.902-5.9 0-3.101 2.764-5.808 5.902-5.808zM75.146 33.095v3.076c7.949 12.089 18.184 26.244 29.455 40.936.203.004.829.058.971.075-12.168-16.182-23.013-31.76-30.426-44.087zM59.501.502c-2.908 2.222.758 11.345 8.561 24.42.619-.352 1.227-.727 1.839-1.086-4.415-8.483-6.143-14.29-3.971-15.921 4.822-3.637 24.278 14.269 46.169 41.17l.046-.163.003-.017c-25.222-31.119-47.308-52.499-52.647-48.403zM157.707 113.347h-1.949c5.145 10.294 7.053 17.393 4.566 19.259-3.413 2.57-12.664-5.118-26.053-19.259h-1.058c16.948 18.745 28.68 29.873 32.675 26.816 3.084-2.363-.106-12.496-8.181-26.816zM126.629 32.769c-3.162 3.598-6.418 7.391-9.776 11.387l-.003.265c3.53-4.158 6.956-8.066 10.229-11.683l-.45.031zM158.557 7.963c3.977 3.013-3.046 20.278-16.825 42.269v2.307c18.133-26.892 27.946-48.366 23.306-51.952-3.816-2.945-15.964 7.443-31.92 24.919.318-.106.642-.197.971-.283 12.156-12.608 21.323-19.65 24.468-17.26zM131.048 66.238c-2.973 4.218-6.102 8.498-9.419 12.819-2.798 3.644-5.583 7.151-8.346 10.526l.686.004c2.909-3.544 5.845-7.206 8.791-10.974 2.877-3.686 5.635-7.336 8.288-10.948v-1.427zM92.133 113.347c-13.879 14.086-24.73 21.746-28.138 19.157-2.473-1.886-.534-8.938 4.659-19.157h-1.967c-8.181 14.237-11.613 24.398-8.542 26.766 3.987 3.077 17.628-8.086 35.076-26.766h-1.088z"/></g></svg>