<svg xmlns="http://www.w3.org/2000/svg" width="200" height="140.666" viewBox="0 0 200 140.666"><path d="M.578 30.996c.65 0 1.664-.326 2.89-.326 3.106 0 2.964 3.544 2.964 13.094v32.778c0 5.847-.144 11.282-.507 16.226-3.757.822-5.637 1.478-5.637 2.294 0 .582.362.744 1.157.744.58 0 3.466-.495 8.603-.495 5.13 0 8.018.498 8.6.498.793 0 1.154-.162 1.154-.744 0-.816-1.88-1.473-5.566-2.294-.358-4.867-.504-10.298-.504-16.227v-49.57c0-1.405-.073-1.905-.582-1.905-1.157 0-4.046 1.653-9.178 3.302C1.52 29.196 0 29.27 0 30.266c0 .494.288.73.578.73zM47.188 53.9c2.176-1.304 3.326-2.287 3.326-4.34 0-2.126-1.304-3.6-3.18-3.6-1.513 0-2.954 1.062-4.765 3.194L32.96 60.45h3.18l11.047-6.55zm-7.15 11.577c-10.546 0-16.836 6.255-16.836 15.643 0 8.997 6.213 14.687 16.403 14.687 10.483 0 16.842-6.413 16.842-15.165 0-9.544-6.067-15.165-16.408-15.165zm-.5 28.488c-5.068 0-8.162-4.657-8.162-13.08 0-8.585 3.605-13.485 8.74-13.485 4.838 0 8.167 4.815 8.167 12.85 0 8.503-3.622 13.715-8.744 13.715zm159.63-5.422c-.86 0-2.454 2.507-4.838 2.507-1.23 0-1.374-.896-1.23-3.798l.588-9.954c.055-1.685.055-2.748.055-3.23 0-5.98-2.81-8.808-8.808-8.808-8.17 0-14.017 4.123-14.017 5.98 0 .563.217.897.726.897 1.158 0 4.334-2.828 9.61-2.828 4.263 0 5.197 2.18 5.197 7.51v3.233c-3.1-1.295-5.85-2.024-8.456-2.024-5.56 0-9.316 3.792-9.316 9.222 0 5.325 3.042 8.555 7.59 8.555 3.03 0 6.214-1.86 10.185-5.336-.143 3.64.585 5.337 2.533 5.337 1.874 0 4.624-1.044 7.878-3.31 2.095-1.447 3.112-2.585 3.112-3.23 0-.323-.37-.725-.803-.725zm-12.717.072c-2.67 1.856-4.62 3.073-6.352 3.073-2.388 0-3.907-2.018-3.907-5.42 0-3.95 1.74-5.978 4.984-5.978 1.236 0 2.97.49 5.28 1.532v6.793zM94.39 92.93c-.5-3.047-.426-6.01-.426-9.057v-7.9c0-.62-.016-1.193-.03-1.752-.022-.74-.063-1.44-.13-2.086-.468-4.516-2.08-6.788-6.746-6.788-2.637 0-7.264 1.558-13.68 5.015V26.97c0-1.405-.07-1.905-.57-1.905-1.136 0-3.99 1.653-9.05 3.302-2.415.816-3.91.9-3.91 1.897 0 .495.28.73.565.73.642 0 1.637-.326 2.856-.326 3.06 0 2.915 3.545 2.915 13.095V76.54c0 5.847-.15 11.282-.5 16.226-3.638 1.066-5.558 1.312-5.558 2.294 0 .582.353.744 1.138.744.782 0 3.49-.495 7.98-.495 4.556 0 7.188.494 7.972.494.792 0 1.146-.162 1.146-.744 0-.815-1.495-1.39-4.56-2.13-.496-3.05-.428-6.01-.428-9.06V72.75c3.06-2.143 5.768-3.292 8.832-3.292 3.75 0 4.394 2.64 4.474 7.576.02.35.02.7.02 1.075v7.575c.005 2.424-.036 4.805-.43 7.244-3.056.742-4.56 1.316-4.56 2.132 0 .582.353.744 1.144.744.78 0 3.414-.495 7.977-.495 4.49 0 7.2.496 7.98.496.78 0 1.14-.162 1.14-.744 0-.893-1.854-1.39-5.563-2.132zm48.193-26.137c0 .37.222.648.44.648 1.442 0 4.403-3.16 8.306-3.16 2.893 0 4.774 2.33 4.774 5.678 0 3.247-1.746 5.767-5.28 8.458l-1.805-2.88c-3.4 1.488-6.066 2.6-8.024 3.43l6.648 8.02c4.836 5.755 8.46 8.823 11.635 8.823 3.39 0 5.992-3.627 5.992-5.58 0-.46-.213-.557-.578-.557-.788 0-1.66 2.05-3.327 2.05-2.165 0-4.91-4.276-9.754-11.907 7.876-3.716 11.783-7.538 11.783-11.988 0-4.38-2.605-7.173-7.292-7.173-7.662 0-13.522 5.208-13.522 6.14zm-2.098 25.976c-.35-4.87-.504-10.3-.504-16.23V26.97c0-1.405-.063-1.905-.572-1.905-1.157 0-4.045 1.653-9.175 3.302-2.46.816-3.982.9-3.982 1.897 0 .495.3.73.593.73.64 0 1.653-.326 2.886-.326 3.103 0 2.952 3.544 2.952 13.094v32.78c0 5.846-.14 11.28-.494 16.225-3.692.904-5.636 1.4-5.636 2.293 0 .582.36.744 1.156.744.788 0 3.533-.495 8.092-.495 4.618 0 7.298.494 8.09.494.79 0 1.148-.162 1.148-.744 0-.817-1.575-1.145-4.55-2.295zM3.348 107.04l-1.163 3.173H.735l3.916-10.51h1.7l4.114 10.51H9.036l-1.222-3.172H3.348zm.395-1.122H7.37l-1.434-3.696-.424-1.537-.41 1.537-1.36 3.696zm9.648.503c.066.5.22.96.445 1.36.22.416.552.747.994.995.434.255 1.035.384 1.79.384.455 0 .89-.084 1.312-.25.415-.17.784-.424 1.11-.77l.956.893c-.447.472-.96.824-1.55 1.04-.58.21-1.193.327-1.827.327-.895 0-1.65-.145-2.253-.42-.603-.28-1.093-.66-1.46-1.143-.37-.487-.63-1.062-.795-1.723-.16-.666-.24-1.39-.24-2.166v-.556c0-.768.096-1.45.295-2.053.197-.597.494-1.11.885-1.53.394-.418.885-.74 1.483-.96.593-.225 1.292-.33 2.086-.33.61 0 1.217.097 1.81.307.585.204 1.1.523 1.535.965l-.926.92c-.315-.327-.68-.558-1.11-.722-.43-.156-.87-.233-1.31-.233-.666 0-1.21.11-1.644.32-.427.22-.772.503-1.02.854-.25.35-.425.744-.523 1.18-.093.43-.142.86-.142 1.3v.5c0 .503.034 1.006.1 1.51zm9.87 0c.065.5.21.96.434 1.36.227.416.56.747.998.995.443.255 1.038.384 1.793.384.46 0 .893-.084 1.31-.25.418-.17.79-.424 1.11-.77l.955.893c-.44.472-.955.824-1.542 1.04-.588.21-1.198.327-1.833.327-.898 0-1.644-.145-2.25-.42-.61-.28-1.093-.66-1.46-1.143-.367-.487-.634-1.062-.797-1.723-.16-.666-.237-1.39-.237-2.166v-.556c0-.768.096-1.45.294-2.053.2-.597.49-1.11.878-1.53.398-.418.894-.74 1.49-.96.592-.225 1.287-.33 2.083-.33.617 0 1.22.097 1.81.307.592.204 1.1.523 1.535.965l-.924.92c-.31-.327-.684-.558-1.11-.722-.432-.156-.862-.233-1.31-.233-.662 0-1.21.11-1.64.32-.422.22-.768.503-1.02.854-.252.35-.427.744-.522 1.18-.092.43-.143.86-.143 1.3v.5c0 .503.035 1.006.1 1.51zm16.176 3.795H31.92v-10.51h7.563l-.392 1.242h-5.81v3.083h5.205v1.236H33.28v3.712h6.154v1.236zm3.228-10.51v9.274h5.19l-.38 1.235H41.3v-10.51h1.363zm14.19 10.51h-7.518v-10.51H56.9l-.396 1.242h-5.81v3.083H55.9v1.236h-5.204v3.712h6.157v1.236zm5.375-4.084c-.11-.14-.257-.242-.424-.3-.175-.06-.345-.092-.52-.092H60.08v4.476h-1.36v-10.51h4.777c.44 0 .85.063 1.224.202.377.14.698.335.96.59.268.258.48.564.63.933.154.356.23.77.23 1.225 0 .898-.26 1.615-.765 2.172-.51.545-1.225.84-2.138.895l2.434 3.054c.18.234.338.38.485.425.14.04.316.064.528.064v.95c-.11.06-.242.108-.383.142-.15.027-.277.046-.378.046-.292 0-.557-.1-.786-.305-.24-.203-.458-.41-.647-.645l-2.665-3.32zm-2.15-1.617h3.176c.65 0 1.137-.148 1.45-.452.313-.304.47-.77.47-1.404 0-.592-.15-1.02-.448-1.295-.296-.28-.73-.413-1.294-.413H60.08v3.566zm11.06 2.53l-1.165 3.17h-1.45l3.915-10.51h1.693l4.113 10.51H76.83l-1.227-3.17H71.14zm.395-1.124h3.63l-1.437-3.697-.42-1.537-.414 1.537-1.36 3.696zm12.54-4.974v9.268h-1.358v-9.268h-3.512v-1.243h8.363l-.39 1.243h-3.103zm12.62 9.268h-7.52v-10.51h7.564l-.397 1.242H90.54v3.083h5.197v1.236H90.54v3.712h6.152v1.236zm13.135-10.51v10.51h-1.36v-10.51h1.358zm2.496 10.51v-10.51h1.74l5.25 8.435v-8.437h1.363v10.51h-1.665l-5.327-8.607v8.608h-1.364zm10.762 0v-10.51h1.735l5.25 8.435v-8.437h1.36v10.51h-1.666l-5.322-8.607v8.608h-1.36zm15.382.186c-.876 0-1.63-.147-2.25-.424-.626-.284-1.136-.675-1.532-1.167-.39-.49-.68-1.06-.866-1.73-.187-.668-.282-1.377-.282-2.134v-.406c0-.716.114-1.38.345-2 .22-.61.548-1.143.97-1.59.422-.453.94-.81 1.55-1.053.614-.255 1.302-.377 2.065-.377.768 0 1.456.123 2.064.378.612.245 1.128.6 1.555 1.054.42.446.743.978.97 1.59.23.62.345 1.283.345 2v.406c0 .757-.096 1.466-.283 2.13-.183.672-.477 1.243-.87 1.732-.392.492-.904.882-1.53 1.167-.623.277-1.373.422-2.252.422zm0-9.64c-.565 0-1.06.1-1.495.3-.438.206-.803.473-1.096.823-.3.342-.527.747-.686 1.21-.153.464-.23.958-.23 1.472v.345c0 .576.07 1.12.203 1.634.133.51.344.96.626 1.343.28.39.64.698 1.083.923.438.237.96.345 1.562.345.622 0 1.163-.11 1.616-.326.447-.22.81-.52 1.1-.898.283-.38.495-.823.625-1.34.13-.51.2-1.078.2-1.684v-.346c0-.514-.083-1.01-.236-1.472-.16-.464-.386-.868-.686-1.21-.293-.35-.663-.617-1.1-.822-.44-.2-.936-.3-1.493-.3zm7.706-1.24l2.86 7.458.558 1.74.56-1.74 2.902-7.458 1.316.36-3.98 10.33h-1.572l-3.977-10.33 1.333-.36zm11.92 7.52l-1.167 3.17h-1.45l3.92-10.51h1.694l4.112 10.51h-1.422l-1.225-3.17h-4.46zm.393-1.123h3.634l-1.44-3.696-.423-1.535-.412 1.537-1.36 3.697zm12.543-4.973v9.268h-1.36v-9.268h-3.508V99.7h8.36l-.387 1.244h-3.106zm6.46-1.243v10.51h-1.36V99.7h1.36zm7.13 10.7c-.877 0-1.63-.147-2.25-.424-.627-.284-1.137-.675-1.528-1.167-.397-.49-.685-1.06-.87-1.73-.188-.667-.283-1.376-.283-2.133v-.406c0-.716.113-1.38.34-2 .226-.61.553-1.143.98-1.59.422-.453.937-.81 1.546-1.053.612-.255 1.3-.377 2.065-.377.766 0 1.452.122 2.064.377.606.245 1.13.6 1.55 1.054.424.448.75.98.977 1.59.222.62.336 1.285.336 2v.408c0 .757-.09 1.466-.278 2.13-.19.672-.475 1.243-.868 1.732-.394.49-.905.88-1.53 1.166-.623.277-1.376.422-2.252.422zm0-9.64c-.563 0-1.062.1-1.5.3-.43.206-.795.473-1.094.823-.3.342-.527.747-.68 1.21-.155.464-.236.958-.236 1.472v.345c0 .575.072 1.12.207 1.633.136.51.345.96.625 1.343.284.39.644.698 1.08.923.443.235.962.343 1.568.343.623 0 1.165-.11 1.608-.326.453-.22.82-.517 1.113-.896.28-.38.493-.822.626-1.34.127-.51.194-1.077.194-1.683v-.345c0-.514-.08-1.01-.234-1.472-.153-.463-.38-.867-.677-1.21-.3-.35-.665-.616-1.103-.82-.445-.2-.94-.3-1.494-.3zm7.024 9.452V99.7h1.74l5.245 8.436V99.7H200v10.51h-1.667l-5.322-8.607v8.608h-1.36z"/><path d="M118.297 92.94c-.502-2.998-.434-5.905-.434-8.908V66.528c0-.972-.068-1.136-.946-1.136-.87 0-4.075 1.87-10.34 2.924-.457.066-.757.08-1.018.092-.85.138-.13 1.526.254 1.932.02.02 1.024.083 1.347.083h2.833c.372 2.188.445 4.374.445 6.564v7.046c0 3.003.065 5.91-.446 8.907-3.782.73-5.593 1.222-5.593 2.11 0 .568.292.73 1.09.73.58 0 3.492-.492 8.66-.492 5.162 0 8.084.493 8.663.493.79 0 1.093-.16 1.093-.73 0-.89-1.827-1.38-5.61-2.11zm-5.286-45.557c3.148 0 5.81 2.707 5.81 5.808 0 3.278-2.576 5.9-5.81 5.9-3.24 0-5.9-2.622-5.9-5.9 0-3.1 2.765-5.805 5.9-5.805zM75.15 33.095v3.076c7.95 12.09 18.184 26.247 29.455 40.94.204.003.83.057.972.074C93.405 61 82.56 45.424 75.145 33.094zM59.5.502c-2.907 2.222.76 11.345 8.562 24.42.62-.352 1.227-.727 1.84-1.086-4.416-8.483-6.144-14.29-3.972-15.92 4.822-3.638 24.278 14.268 46.17 41.17l.045-.164.003-.017C86.926 17.785 64.84-3.595 59.5.502zm98.207 112.845h-1.95c5.146 10.294 7.054 17.393 4.567 19.26-3.413 2.57-12.664-5.12-26.053-19.26h-1.055c16.948 18.745 28.68 29.873 32.675 26.816 3.083-2.363-.107-12.496-8.18-26.816zM126.63 32.77c-3.163 3.597-6.42 7.39-9.777 11.386l-.003.265c3.53-4.155 6.956-8.063 10.23-11.68l-.45.03zm31.927-24.807c3.977 3.013-3.046 20.278-16.825 42.27v2.306C159.865 25.644 169.678 4.17 165.038.584c-3.816-2.945-15.964 7.443-31.92 24.92.318-.107.642-.198.97-.284 12.157-12.607 21.324-19.65 24.47-17.26zm-27.51 58.275c-2.972 4.218-6.1 8.498-9.418 12.82-2.8 3.643-5.586 7.15-8.35 10.525l.687.004c2.908-3.544 5.844-7.206 8.79-10.974 2.877-3.686 5.635-7.336 8.288-10.948v-1.427zm-38.914 47.11c-13.88 14.085-24.73 21.745-28.138 19.156-2.473-1.886-.534-8.938 4.66-19.157h-1.968c-8.18 14.237-11.613 24.398-8.542 26.766 3.987 3.077 17.628-8.086 35.076-26.766h-1.085z" fill="#68AD45"/></svg>