<svg xmlns="http://www.w3.org/2000/svg" width="344.348" height="60" viewBox="-194.348 10 344.348 60" enable-background="new -194.348 10 344.348 60"><g fill="#231F20"><path d="M-194.348 24.053l32.314 32.314 32.315-32.314v-14.053l-32.315 32.314-32.314-32.314v7.069zM-187.784 50.056l-6.564 7.237v12.707l19.944-19.944-19.944-20.028v12.791zM-136.367 50.056l6.648-7.237v-12.791l-20.029 20.028 20.029 19.944v-12.791zM-79.144 61.669v-25.666l-14.306 13.464-14.306-13.464v25.666h-9.004v-46.031l23.226 21.374 23.31-21.374v46.115h-8.92v-.084zM-43.801 16.9c7.994 0 14.222 4.039 16.999 9.846l-6.732 4.628c-2.104-5.133-6.648-6.732-10.519-6.732-8.331 0-12.539 7.826-12.539 15.063 0 7.994 5.217 15.316 12.707 15.316 3.871 0 8.499-1.935 10.603-6.9l7.237 4.123c-2.777 6.732-10.94 10.519-18.008 10.519-12.539 0-21.374-11.865-21.374-23.31-.001-11.024 7.909-22.553 21.626-22.553zM9.551 54.264v7.489h-30.463v-43.843h30.463v7.49h-21.879v10.519h18.429v6.9h-18.429v11.445h21.879zM19.229 61.669v-.842c0-10.856 4.46-15.736 11.95-19.271 5.722-2.693 12.959-4.376 12.959-11.697 0-4.628-3.029-8.752-9.509-8.752-6.311 0-10.351 3.871-12.202 6.311l-2.777-2.693c.926-1.178 6.143-7.574 15.484-7.574 9.088 0 13.633 5.891 13.633 12.623 0 8.752-8.331 12.034-13.212 14.053-9.004 3.787-11.276 7.91-11.276 13.969h24.571v3.871h-29.621zM55.498 40.042c0-10.603 6.9-22.3 18.093-22.3 12.034 0 18.093 12.707 18.093 22.3 0 10.687-6.9 22.132-18.093 22.3-11.95-.336-18.093-12.37-18.093-22.3zm18.092 18.345c9.341 0 13.801-10.603 13.801-18.345 0-8.583-5.049-18.345-13.801-18.345-9.341 0-13.801 10.603-13.801 18.345.253 8.584 4.797 18.345 13.801 18.345zM110.617 61.669h-4.292v-39.13c-1.346 1.935-6.396 5.302-9.762 5.302v-3.955c4.292 0 9.677-5.806 9.762-6.059h4.292v43.842zM150 47.784c0 8.668-6.816 14.558-15.231 14.558-6.227 0-11.529-3.366-14.053-8.499l2.777-2.104c2.272 4.039 6.564 6.732 11.276 6.732 6.143 0 10.856-4.292 10.856-10.603 0-6.059-4.628-10.351-10.519-10.351-3.787 0-7.489 1.767-9.677 4.965h-3.871c.421-2.104 4.881-24.656 4.881-24.656h21.206v3.871h-18.093l-3.029 15.736c2.104-2.356 5.386-3.619 9.004-3.619 8.246.001 14.473 5.723 14.473 13.97z"/></g></svg>