<svg xmlns="http://www.w3.org/2000/svg" width="117.39" height="60" viewBox="0 0 117.39 60"><path fill="#FFA800" d="M51.41 26.16L38.42 3.705c-1.363-2.36-3.83-3.68-6.373-3.697l-.16-.003-.162.003c-2.543.018-5.01 1.337-6.375 3.697L12.363 26.16c-2.05 3.546-.84 8.084 2.707 10.135l.285.165c3.546 2.05 8.084.84 10.135-2.708l6.396-11.06 6.396 11.06c2.05 3.546 6.588 4.758 10.135 2.708l.285-.165c3.546-2.05 4.758-6.588 2.707-10.135z"/><path fill="#E60000" d="M102.29 1.17l-.285-.166C98.46-1.046 93.92.164 91.87 3.712L85.474 14.77 79.08 3.712C77.027.166 72.49-1.046 68.943 1.004l-.285.165c-3.548 2.05-4.76 6.586-2.71 10.132L78.94 33.76c1.365 2.36 3.832 3.678 6.375 3.696l.16.003.162-.006c2.543-.018 5.01-1.337 6.375-3.697L105 11.302c2.05-3.546.84-8.084-2.708-10.135z"/><path fill="#F35700" d="M58.61 33.752c2.05 3.546 6.59 4.758 10.135 2.708l.285-.165c3.546-2.05 4.758-6.588 2.707-10.135L58.75 3.705C56.7.16 52.16-1.055 48.615.997l-.285.166c-3.546 2.05-4.758 6.588-2.707 10.135L58.61 33.752z"/><path d="M0 48.17c0-.366.314-.558 1.047-.558h.925c.506 0 .907.122 1.1.47l3.07 5.462 3.106-5.46c.192-.35.593-.472 1.1-.472h.906c.733 0 1.047.192 1.047.558v11.167c0 .366-.31.558-1.044.558h-.506c-.734 0-1.048-.192-1.048-.558v-7.224l-.07-.017-2.53 4.52c-.156.208-.365.33-.697.33H5.9c-.333 0-.54-.12-.7-.33l-2.53-4.52-.07.017v7.224c0 .366-.313.558-1.046.558h-.506c-.733 0-1.047-.192-1.047-.558V48.17zm18.477 2.425c2.774 0 4.222 1.658 4.222 4.694S21.25 60 18.474 60s-4.24-1.675-4.24-4.71c0-3.037 1.466-4.695 4.24-4.695zm1.606 4.694c0-1.748-.49-2.655-1.605-2.655-1.117 0-1.623.907-1.623 2.652s.506 2.668 1.623 2.668c1.116 0 1.605-.924 1.605-2.67zm4.5-8.03c0-.365.315-.557 1.048-.557h.49c.735 0 1.05.192 1.05.558v3.874c.365-.262.96-.54 1.78-.54 2.354 0 3.68 1.848 3.68 4.693 0 3.035-1.38 4.71-3.263 4.71-1.082 0-1.937-.558-2.338-1.31l-.175.75c-.087.385-.454.455-1.012.455h-.21c-.732 0-1.046-.192-1.046-.558v-12.07zm4.014 10.627c.96 0 1.413-.908 1.413-2.6 0-1.746-.523-2.653-1.623-2.653-.54 0-.942.174-1.22.33v3.892c.314.54.767 1.03 1.43 1.03zm5.793-9.214V47.26c0-.365.314-.557 1.047-.557h.49c.732 0 1.046.192 1.046.558v1.415c0 .366-.314.558-1.047.558h-.49c-.732 0-1.046-.19-1.046-.558zm0 2.582c0-.366.314-.558 1.047-.558h.49c.732 0 1.046.192 1.046.558v8.08c0 .365-.314.557-1.047.557h-.49c-.732 0-1.046-.192-1.046-.558v-8.08zm4.693-3.995c0-.365.314-.557 1.047-.557h.49c.732 0 1.046.192 1.046.558v9.947c0 .523.175.75.628.75l.47-.07c.35 0 .542 1.117.542 1.256 0 .803-1.134.855-1.675.855-1.64 0-2.544-.89-2.544-2.828v-9.91zm9.056 3.333c2.736 0 3.766 2.076 3.766 4.502 0 .297-.663 1.03-.89 1.03h-4.45c.123 1.395.873 1.83 2.008 1.83 1.1 0 1.867-.54 2.11-.54.385 0 .908.977.908 1.326 0 .874-2.164 1.258-3.14 1.258-3.16 0-4.555-1.833-4.555-4.642 0-3.437 1.744-4.763 4.24-4.763zm1.253 3.804c0-1.013-.384-1.763-1.256-1.763-.734 0-1.362.42-1.57 1.762h2.825zm7.328-6.073c-.034-.105-.034-.192-.034-.262 0-.28.33-.454 1.082-.454h.453c.68 0 1.083.176 1.17.542l1.308 5.62c.14.593.33 1.535.54 2.513.158-.977.437-1.92.594-2.513l1.43-5.793c.07-.28.402-.366.96-.366h.664c.558 0 .89.09.96.37l1.378 5.792c.157.664.384 1.66.593 2.636.227-.96.436-1.972.593-2.635l1.36-5.617c.088-.366.49-.54 1.17-.54h.192c.75 0 1.082.174 1.082.453l-.035.26-2.84 11.2c-.07.243-.472.365-.96.365h-1.275c-.49 0-.907-.122-.96-.366l-1.71-7.227-1.78 7.224c-.07.243-.47.365-.96.365H60.44c-.558 0-.907-.122-.96-.366l-2.757-11.203zm21.166 5.88v-.576c0-.662-.4-.993-1.36-.993-1.275 0-2.025.558-2.234.558-.366 0-.907-1.03-.907-1.396 0-.594 1.396-1.205 3.332-1.205 2.756 0 3.75 1.22 3.75 2.914v3.28c0 1.796.21 2.163.21 2.53 0 .418-1.52.557-1.955.557-.558 0-.593-.733-.698-1.204-.122.226-.96 1.325-2.564 1.325-1.883 0-2.58-1.117-2.58-2.547 0-1.43.575-3.247 5.007-3.247zm-1.57 3.75c.663 0 1.29-.47 1.57-1.098v-.96c-1.658 0-2.443.454-2.443 1.29 0 .437.297.768.873.768zm6.42-4.15c0-1.746-.21-2.112-.21-2.46 0-.42 1.52-.56 1.955-.56.56 0 .594.7.7 1.135.366-.665.89-1.328 1.902-1.328.855 0 .995.593.995.942 0 .33-.192 1.466-.54 1.466-.245 0-.472-.14-.82-.14-.716 0-1.188.524-1.397.873v5.6c0 .367-.312.56-1.045.56h-.49c-.732 0-1.046-.193-1.046-.56v-5.53zm6.77 3.663c.227 0 .89.49 1.71.49.733 0 1.064-.263 1.064-.786 0-1.533-3.49-.626-3.49-3.75 0-1.744 1.24-2.826 3.21-2.826.578 0 2.584.122 2.584 1.1 0 .226-.4 1.29-.75 1.29-.175 0-.698-.366-1.483-.366-.59 0-.94.192-.94.628 0 1.274 3.49.61 3.49 3.716 0 1.833-1.31 3.037-3.263 3.037-1.518 0-3.053-.4-3.053-1.24 0-.35.558-1.29.924-1.29zm11.48-3.263v-.576c0-.662-.4-.993-1.36-.993-1.274 0-2.024.558-2.233.558-.366 0-.907-1.03-.907-1.396 0-.594 1.396-1.205 3.332-1.205 2.756 0 3.75 1.22 3.75 2.914v3.28c0 1.796.21 2.163.21 2.53 0 .418-1.52.557-1.955.557-.558 0-.593-.733-.698-1.204-.122.225-.96 1.324-2.565 1.324-1.884 0-2.582-1.118-2.582-2.548.002-1.43.577-3.245 5.01-3.245zm-1.57 3.75c.664 0 1.292-.47 1.57-1.098v-.96c-1.657 0-2.442.454-2.442 1.29 0 .437.297.768.873.768zm5.69-6.542c-.036-.105-.036-.192-.036-.262 0-.28.333-.454 1.083-.454h.42c.488 0 .89.12.96.365l1.377 5.376 1.327-5.375c.052-.243.4-.365.96-.365h.42c.488 0 .906.12.96.365l1.29 5.373 1.413-5.375c.07-.244.4-.366.96-.366h.07c.75 0 1.082.174 1.082.453l-.035.262-2.06 8.113c-.07.244-.47.366-.96.366h-.854c-.558 0-.89-.122-.96-.366l-1.256-4.903-1.186 4.903c-.05.244-.47.366-.96.366h-.852c-.576 0-.89-.122-.96-.366l-2.2-8.113z"/></svg>