<svg xmlns="http://www.w3.org/2000/svg" width="117.39" height="60" viewBox="0 0 117.39 60"><path fill="#FFA800" d="M51.409 26.16l-12.987-22.455c-1.365-2.36-3.832-3.679-6.375-3.697l-.161-.003-.161.003c-2.543.018-5.01 1.337-6.375 3.697l-12.987 22.455c-2.051 3.546-.839 8.084 2.707 10.135l.285.165c3.546 2.051 8.084.839 10.135-2.708l6.396-11.059 6.396 11.059c2.051 3.546 6.588 4.758 10.135 2.708l.285-.165c3.546-2.051 4.758-6.588 2.707-10.135z"/><path fill="#E60000" d="M102.29 1.169l-.285-.165c-3.546-2.051-8.084-.839-10.135 2.708l-6.396 11.058-6.395-11.058c-2.051-3.546-6.589-4.758-10.135-2.708l-.285.165c-3.547 2.051-4.759 6.589-2.708 10.135l12.987 22.455c1.365 2.36 3.832 3.679 6.375 3.697l.161.003.161-.003c2.543-.018 5.01-1.337 6.375-3.697l12.987-22.455c2.051-3.546.839-8.084-2.707-10.135z"/><path fill="#F35700" d="M58.61 33.752c2.051 3.546 6.589 4.758 10.135 2.708l.285-.165c3.546-2.051 4.758-6.588 2.707-10.135l-12.987-22.455c-2.051-3.546-6.589-4.759-10.135-2.708l-.285.166c-3.546 2.051-4.758 6.588-2.707 10.135l12.987 22.454z"/><path d="M0 48.17c0-.366.314-.558 1.047-.558h.925c.506 0 .907.122 1.099.471l3.071 5.461 3.106-5.461c.192-.349.593-.471 1.099-.471h.907c.733 0 1.047.192 1.047.558v11.167c0 .366-.314.558-1.047.558h-.506c-.733 0-1.047-.192-1.047-.558v-7.224l-.07-.017-2.53 4.519c-.157.209-.366.332-.698.332h-.506c-.332 0-.541-.122-.698-.332l-2.53-4.519-.069.017v7.224c0 .366-.314.558-1.047.558h-.506c-.733 0-1.047-.192-1.047-.558v-11.167zM18.477 50.595c2.774 0 4.222 1.658 4.222 4.694s-1.448 4.711-4.222 4.711c-2.774 0-4.24-1.675-4.24-4.711.001-3.036 1.466-4.694 4.24-4.694zm1.606 4.694c0-1.745-.489-2.652-1.605-2.652-1.117 0-1.623.907-1.623 2.652s.506 2.669 1.623 2.669c1.116 0 1.605-.924 1.605-2.669zM24.584 47.263c0-.366.314-.558 1.047-.558h.489c.733 0 1.047.192 1.047.558v3.873c.366-.262.96-.541 1.78-.541 2.355 0 3.682 1.849 3.682 4.694 0 3.036-1.378 4.711-3.263 4.711-1.082 0-1.937-.558-2.338-1.309l-.174.75c-.087.384-.454.454-1.012.454h-.209c-.733 0-1.047-.192-1.047-.558v-12.074zm4.013 10.626c.96 0 1.413-.907 1.413-2.6 0-1.745-.523-2.652-1.623-2.652-.541 0-.942.174-1.221.331v3.891c.315.541.768 1.03 1.431 1.03zM34.39 48.676v-1.413c0-.366.314-.558 1.047-.558h.489c.733 0 1.047.192 1.047.558v1.413c0 .366-.314.558-1.047.558h-.489c-.733 0-1.047-.191-1.047-.558zm0 2.582c0-.366.314-.558 1.047-.558h.489c.733 0 1.047.192 1.047.558v8.079c0 .366-.314.558-1.047.558h-.489c-.733 0-1.047-.192-1.047-.558v-8.079zM39.083 47.263c0-.366.314-.558 1.047-.558h.489c.733 0 1.047.192 1.047.558v9.945c0 .523.175.75.628.75l.471-.07c.349 0 .541 1.117.541 1.256 0 .803-1.134.855-1.675.855-1.64 0-2.547-.89-2.547-2.827v-9.909zM48.139 50.595c2.739 0 3.769 2.076 3.769 4.502 0 .297-.663 1.029-.89 1.029h-4.449c.122 1.396.872 1.832 2.007 1.832 1.099 0 1.867-.541 2.111-.541.384 0 .907.977.907 1.326 0 .872-2.164 1.256-3.141 1.256-3.158 0-4.554-1.832-4.554-4.641 0-3.437 1.745-4.763 4.24-4.763zm1.256 3.804c0-1.012-.384-1.762-1.256-1.762-.733 0-1.361.419-1.57 1.762h2.826zM56.723 48.327c-.035-.105-.035-.192-.035-.262 0-.279.331-.454 1.082-.454h.454c.68 0 1.082.175 1.169.541l1.309 5.618c.14.593.331 1.535.541 2.513.157-.977.436-1.919.593-2.513l1.431-5.793c.07-.279.401-.366.96-.366h.663c.558 0 .89.087.96.366l1.378 5.793c.157.663.384 1.658.593 2.635.227-.96.436-1.972.593-2.635l1.361-5.618c.087-.366.489-.541 1.169-.541h.192c.75 0 1.082.175 1.082.454l-.035.262-2.844 11.202c-.07.244-.471.366-.96.366h-1.274c-.489 0-.907-.122-.96-.366l-1.71-7.224-1.78 7.224c-.07.244-.471.366-.96.366h-1.255c-.558 0-.907-.122-.96-.366l-2.757-11.202zM77.888 54.207v-.576c0-.663-.401-.994-1.361-.994-1.274 0-2.024.558-2.233.558-.366 0-.907-1.029-.907-1.396 0-.593 1.396-1.204 3.332-1.204 2.757 0 3.751 1.221 3.751 2.914v3.28c0 1.797.209 2.164.209 2.53 0 .419-1.518.558-1.954.558-.558 0-.593-.733-.698-1.204-.122.228-.959 1.327-2.564 1.327-1.884 0-2.582-1.117-2.582-2.547-.001-1.431.575-3.246 5.007-3.246zm-1.57 3.751c.663 0 1.291-.471 1.57-1.099v-.959c-1.658 0-2.443.454-2.443 1.291 0 .436.297.767.873.767zM82.738 53.806c0-1.745-.209-2.111-.209-2.46 0-.419 1.518-.558 1.954-.558.558 0 .593.698.698 1.134.366-.663.89-1.326 1.902-1.326.855 0 .995.593.995.942 0 .331-.192 1.466-.541 1.466-.244 0-.471-.14-.82-.14-.715 0-1.187.523-1.396.872v5.601c0 .366-.314.558-1.047.558h-.489c-.733 0-1.047-.192-1.047-.558v-5.531zM89.508 57.47c.227 0 .89.489 1.71.489.733 0 1.064-.262 1.064-.785 0-1.535-3.49-.628-3.49-3.751 0-1.745 1.239-2.827 3.211-2.827.576 0 2.582.122 2.582 1.099 0 .227-.401 1.291-.75 1.291-.175 0-.698-.366-1.483-.366-.593 0-.942.192-.942.628 0 1.274 3.49.611 3.49 3.716 0 1.832-1.309 3.036-3.263 3.036-1.518 0-3.053-.401-3.053-1.239 0-.349.558-1.291.924-1.291zM100.989 54.207v-.576c0-.663-.401-.994-1.361-.994-1.274 0-2.024.558-2.233.558-.366 0-.907-1.029-.907-1.396 0-.593 1.396-1.204 3.332-1.204 2.757 0 3.751 1.221 3.751 2.914v3.28c0 1.797.209 2.164.209 2.53 0 .419-1.518.558-1.954.558-.558 0-.593-.733-.698-1.204-.122.227-.96 1.326-2.565 1.326-1.884 0-2.582-1.117-2.582-2.547.001-1.43.576-3.245 5.008-3.245zm-1.57 3.751c.663 0 1.291-.471 1.57-1.099v-.959c-1.658 0-2.443.454-2.443 1.291 0 .436.297.767.873.767zM105.107 51.415c-.035-.105-.035-.192-.035-.262 0-.279.332-.454 1.082-.454h.419c.489 0 .89.122.96.366l1.378 5.374 1.326-5.374c.052-.244.401-.366.96-.366h.419c.489 0 .907.122.96.366l1.291 5.374 1.413-5.374c.07-.244.401-.366.96-.366h.07c.75 0 1.082.175 1.082.454l-.035.262-2.059 8.113c-.07.244-.471.366-.96.366h-.855c-.558 0-.89-.122-.96-.366l-1.256-4.903-1.186 4.903c-.052.244-.471.366-.96.366h-.855c-.576 0-.89-.122-.96-.366l-2.199-8.113z"/></svg>