<svg xmlns="http://www.w3.org/2000/svg" width="200" height="92.454" viewBox="0 0 200 92.454"><path fill="#231F20" d="M200 74.186c-1.177.019-2.357.096-3.53.035-.808-.042-.954.244-.948.991.035 4.562-.028 9.124.05 13.685.019 1.122-.595.877-1.207.908-.661.033-1.115.064-1.1-.919.068-4.561.012-9.123.048-13.685.006-.756-.158-1.105-.953-.963-.15.027-.31.004-.465.004-1.313 0-1.544-.316-1.295-1.632.079-.417.336-.36.607-.381.672-.051 1.565.291 1.956-.145.373-.417.229-1.29.331-1.959.362-2.36 1.959-3.908 4.471-4.308.672-.107 1.356-.138 2.035-.204v2.05c-.392.361-.901.371-1.384.46-1.704.312-2.546 1.197-2.76 2.896-.102.81.047 1.004.866 1.038.741.03 1.484.001 2.225.011.369.005.749-.026 1.053.255v1.863zM61.949 73.289c1.693-1.889 3.805-2.208 6.119-1.714 1.26.269 2.308.941 3.062 1.975.415.569.595.426.986-.01 1.959-2.189 4.495-2.545 7.165-1.926 2.411.559 4.146 2.04 4.865 4.514.227.78.304 1.582.304 2.392.002 3.51-.011 7.02.024 10.529.006.631-.191.797-.788.765-.867-.046-1.742-.057-2.607.002-.691.048-.901-.155-.891-.869.042-2.857.023-5.715.014-8.572-.003-.867.012-1.736-.215-2.59-.425-1.601-1.487-2.486-3.037-2.492-1.572-.006-2.937.985-3.336 2.46-.295 1.089-.292 2.214-.299 3.33-.016 2.609-.037 5.219.014 7.827.015.766-.234.955-.944.905-.835-.058-1.678-.049-2.514-.002-.606.035-.796-.148-.788-.774.034-2.888.016-5.777.014-8.666-.001-.902-.042-1.802-.32-2.669-.507-1.582-1.73-2.456-3.347-2.406-1.559.048-2.551.904-2.983 2.567-.253.973-.255 1.968-.259 2.961-.01 2.733-.018 5.467.008 8.2.006.596-.141.829-.777.791-.929-.055-1.864-.04-2.794-.004-.512.02-.7-.116-.698-.665.019-5.529.018-11.057.001-16.586-.002-.499.15-.647.633-.615.588.039 1.18.009 1.77.009 1.406-.002 1.406-.002 1.618 1.333zM175.655 74.43c3.109-3.867 8.694-3.08 11.111-.352 1.437 1.622 1.936 3.597 1.99 5.67.08 3.133.014 6.27.043 9.406.005.565-.218.654-.712.659-1.549.016-1.526.035-1.553-1.483-.057-3.226.224-6.463-.143-9.676-.464-4.062-4.593-6.094-8.127-4.065-1.625.933-2.352 2.442-2.492 4.226-.264 3.346-.121 6.703-.082 10.053.013 1.085-.541.913-1.198.947-.725.037-1.089-.039-1.08-.962.054-5.246.05-10.493.003-15.739-.008-.892.377-.944 1.047-.894.615.046 1.389-.196 1.203.914-.06.353-.01.724-.01 1.296zM151.328 84.611c-2.241 4.543-6.516 6.497-11.222 5.238-4.117-1.101-7.035-5.084-6.765-9.233.306-4.691 3.608-8.173 8.345-8.8 4.058-.538 8.374 2.008 9.598 5.72-.662 0-1.304-.024-1.943.009-.383.02-.537-.199-.72-.465-2.305-3.356-6.16-4.245-9.616-2.229-3.222 1.88-4.369 5.977-2.637 9.42 1.676 3.332 5.709 4.803 9.215 3.365 1.12-.459 2.106-1.135 2.725-2.162.437-.725.946-.963 1.729-.871.396.046.799.008 1.291.008z"/><path fill="#242021" d="M126.891 80.793c0-2.698.02-5.396-.015-8.093-.008-.62.176-.79.776-.759.959.049 1.923.035 2.883.003.449-.015.582.125.581.575-.013 5.55-.013 11.101 0 16.651.001.478-.141.658-.635.641-.96-.032-1.924-.045-2.883.004-.596.031-.723-.19-.718-.743.024-2.76.011-5.52.011-8.279z"/><path fill="#231F20" d="M128.96 69.93c-2.069 0-2.069 0-2.069-2.039 0-1.885 0-1.885 2.047-1.885 2.168 0 2.168 0 2.168 2.144 0 1.78 0 1.78-1.775 1.78h-.371z"/><path fill="#0F4DA1" d="M31.498 40.453c-.039-3.763-3.05-6.84-6.805-6.875-5.963-.055-11.927-.034-17.89-.002-1.808.01-3.364.73-4.683 1.985-1.148 1.091-1.71 2.478-2.12 3.956v13.42c.061.173.138.342.181.52.773 3.201 3.498 5.417 6.806 5.432 5.87.027 11.741.036 17.611-.005 3.815-.026 6.86-3.076 6.901-6.878.039-3.851.039-7.702-.001-11.553zm-2.477 10.991c-.008 3.043-1.83 4.884-4.854 4.898-2.795.013-5.59.003-8.385.003-2.826 0-5.652.012-8.478-.003-2.927-.016-4.782-1.836-4.805-4.755-.027-3.571-.027-7.143 0-10.714.022-2.917 1.88-4.752 4.802-4.759 5.621-.014 11.242-.013 16.863-.001 3.024.007 4.848 1.855 4.856 4.896.01 3.478.01 6.956.001 10.435z"/><path fill="#F17321" d="M94.662 33.558c-5.649-.014-11.298-.015-16.947 0-4.268.011-7.249 2.992-7.273 7.27-.02 3.569-.017 7.139-.001 10.709.02 4.397 2.984 7.351 7.37 7.361 3.414.008 6.829.016 10.243-.012.632-.005 1.112.166 1.59.575 1.05.897 2.148 1.738 3.379 2.725v-1.646c0-1.63 0-1.63 1.656-1.641 4.249-.027 7.273-3.049 7.277-7.279.004-3.57.003-7.139 0-10.709-.002-4.307-2.999-7.342-7.294-7.353zm4.759 18.01c-.013 2.95-1.817 4.743-4.762 4.773l-.186.001h-8.291c-2.826 0-5.651.013-8.477-.004-2.901-.017-4.769-1.883-4.782-4.784-.016-3.54-.014-7.08-.001-10.619.011-2.951 1.876-4.811 4.844-4.817 5.62-.013 11.24-.013 16.86 0 2.995.007 4.785 1.817 4.795 4.832.013 3.538.015 7.078 0 10.618z"/><path fill="#88288E" d="M46.384 6.855c-.05-3.836-3.179-6.852-7.015-6.853-5.837-.003-11.674-.002-17.51 0-3.855.002-6.938 3.019-6.968 6.873-.03 3.85-.027 7.7 0 11.549.022 3.059 2.047 5.685 4.984 6.572 1.057.32 2.141.349 3.227.307.517-.02.726.139.701.681-.038.798-.01 1.599-.01 2.617 1.259-1.013 2.339-1.842 3.37-2.729.481-.414.972-.575 1.6-.571 3.508.022 7.017.034 10.525.003 3.939-.035 7.044-3.033 7.096-6.899.052-3.85.05-7.701 0-11.55zm-2.535 11.17c-.01 2.874-1.849 4.713-4.715 4.725-2.857.013-5.714.003-8.571.002-2.857 0-5.714.013-8.571-.004-2.702-.017-4.615-1.933-4.63-4.652-.02-3.633-.021-7.267 0-10.9.015-2.725 1.891-4.675 4.606-4.693 5.745-.039 11.49-.038 17.234-.002 2.817.018 4.636 1.906 4.647 4.717.013 3.602.013 7.204 0 10.807z"/><path fill="#231F20" d="M121.233 72.987c-2.6-1.862-6.819-2.602-10.536.488 0-2.341-.017-4.54.012-6.738.007-.55-.11-.782-.713-.744-.835.053-1.68.067-2.512-.002-.817-.067-1.081.149-1.076 1.033.042 6.859.023 13.719.023 20.578 0 2.2 0 2.2 2.204 2.2 1.654 0 1.655 0 1.707-1.675.004-.12-.009-.247.172-.268.956.981 2.015 1.809 3.378 2.197 4.744 1.348 9.164-1.221 10.718-6.248 1.244-4.029-.16-8.517-3.377-10.821zm-3.955 13.218c-2.058.658-4.482-.15-5.786-1.929-1.39-1.896-1.411-4.866-.047-6.815 1.265-1.808 3.616-2.607 5.76-1.958 2.21.669 3.611 2.755 3.609 5.374-.001 2.6-1.347 4.628-3.536 5.328z"/><path fill="#E12027" d="M86.824 6.667c-.086-3.746-3.233-6.664-6.996-6.666-2.918-.001-5.836 0-8.755 0-2.887 0-5.774-.001-8.661 0-3.986.001-7.03 2.963-7.072 6.957-.04 3.787-.037 7.575 0 11.362.038 3.881 3.01 6.929 6.899 6.97 5.898.062 11.797.061 17.695-.001 3.757-.04 6.813-3.013 6.891-6.702.085-3.972.091-7.949-.001-11.92zm-2.518 11.558c-.025 2.641-1.914 4.503-4.543 4.523-2.919.022-5.839.005-8.758.005-2.826 0-5.653.011-8.479-.003-2.776-.013-4.691-1.903-4.707-4.67-.021-3.634-.021-7.268 0-10.901.015-2.677 1.848-4.647 4.525-4.675 5.838-.061 11.678-.062 17.516.002 2.604.028 4.418 1.941 4.445 4.539.039 3.726.036 7.453.001 11.18z"/><path fill="#00A3DC" d="M46.393 74.271c-.026-3.974-3.012-7.069-6.977-7.109-5.866-.059-11.734-.059-17.601.001-3.82.039-6.875 3.053-6.92 6.757-.048 3.942-.048 7.885.001 11.827.046 3.688 3.161 6.699 6.844 6.706 2.949.005 5.898.001 8.847.001 2.887 0 5.774.001 8.661 0 4.065-.002 7.12-3.02 7.145-7.1.023-3.695.024-7.389 0-11.083zm-2.545 11.003c-.013 2.786-1.875 4.679-4.679 4.693-5.683.028-11.367.029-17.05.001-2.878-.014-4.75-1.947-4.76-4.835-.012-3.54-.011-7.081 0-10.621.009-2.903 1.88-4.784 4.76-4.811h8.571c2.826 0 5.652-.011 8.479.004 2.809.014 4.666 1.862 4.679 4.669.017 3.633.016 7.267 0 10.9z"/><path fill="#231F20" d="M95.658 71.38c-5.249-.029-9.488 4.162-9.525 9.418-.037 5.2 4.252 9.567 9.402 9.573 5.24.005 9.366-4.069 9.405-9.288.04-5.467-3.984-9.674-9.282-9.703zm-.093 15.062c-2.912-.011-5.175-2.449-5.17-5.569.005-3.094 2.308-5.575 5.18-5.58 2.823-.005 5.112 2.529 5.101 5.645-.012 3.095-2.259 5.515-5.111 5.504zM161.777 71.769c-4.991-.016-9.108 4.142-9.128 9.22-.02 5.017 4.067 9.196 9.017 9.219 5.013.023 9.168-4.111 9.208-9.16.039-5.015-4.125-9.263-9.097-9.279zm-.044 16.396c-3.812-.012-6.846-3.167-6.844-7.118.002-4.017 3.046-7.233 6.846-7.234 3.793-.001 6.88 3.169 6.902 7.085.023 4.047-3.047 7.279-6.904 7.267z"/></svg>