<svg xmlns="http://www.w3.org/2000/svg" width="200" height="92.454" viewBox="0 0 200 92.454"><path fill="#231F20" d="M200 74.186c-1.177.02-2.357.096-3.53.035-.808-.04-.954.247-.948.994.035 4.562-.028 9.124.05 13.685.02 1.12-.595.876-1.207.907-.66.033-1.115.064-1.1-.92.068-4.56.012-9.122.048-13.684.006-.755-.158-1.104-.953-.962-.15.028-.31.005-.465.005-1.313 0-1.544-.316-1.295-1.632.08-.417.336-.36.607-.38.672-.052 1.565.29 1.956-.146.373-.417.23-1.29.33-1.96.363-2.36 1.96-3.907 4.472-4.307.672-.108 1.356-.14 2.035-.205v2.05c-.392.36-.9.37-1.384.46-1.704.312-2.546 1.197-2.76 2.896-.102.81.047 1.005.866 1.04.74.03 1.484 0 2.225.01.37.005.75-.026 1.053.255v1.863zM61.95 73.29c1.692-1.89 3.804-2.21 6.118-1.715 1.26.27 2.308.94 3.062 1.975.415.57.595.426.986-.01 1.96-2.19 4.495-2.545 7.165-1.926 2.414.56 4.15 2.04 4.868 4.514.227.78.304 1.582.304 2.392.003 3.51-.01 7.02.025 10.53.006.63-.19.796-.788.764-.868-.046-1.743-.057-2.608.002-.692.048-.902-.155-.892-.87.042-2.856.023-5.714.014-8.57-.003-.868.012-1.737-.215-2.59-.426-1.602-1.488-2.487-3.038-2.493-1.572-.006-2.937.985-3.336 2.46-.295 1.09-.292 2.214-.3 3.33-.015 2.61-.036 5.22.015 7.827.014.766-.235.955-.945.905-.835-.058-1.678-.05-2.514-.002-.604.035-.794-.148-.786-.774.034-2.89.016-5.78.014-8.67 0-.9-.042-1.8-.32-2.67-.507-1.58-1.73-2.454-3.347-2.404-1.56.048-2.55.904-2.982 2.567-.253.973-.255 1.968-.26 2.96-.01 2.734-.017 5.468.01 8.2.005.597-.142.83-.778.792-.93-.055-1.866-.04-2.796-.004-.512.02-.7-.115-.698-.664.02-5.53.018-11.057 0-16.586 0-.5.15-.646.634-.614.59.04 1.18.01 1.77.01 1.407-.003 1.407-.003 1.62 1.332zm113.705 1.14c3.11-3.867 8.694-3.08 11.11-.352 1.438 1.622 1.937 3.597 1.99 5.67.08 3.133.015 6.27.044 9.406.002.565-.22.654-.715.66-1.55.015-1.526.034-1.553-1.484-.057-3.226.224-6.463-.143-9.676-.464-4.062-4.593-6.094-8.127-4.065-1.625.93-2.352 2.44-2.492 4.223-.263 3.346-.12 6.703-.08 10.053.012 1.085-.54.913-1.2.947-.724.037-1.09-.04-1.08-.962.055-5.245.05-10.492.004-15.74-.008-.89.377-.942 1.047-.892.616.045 1.39-.197 1.204.913-.06.354-.01.725-.01 1.297zm-24.327 10.18c-2.24 4.544-6.516 6.498-11.222 5.24-4.117-1.102-7.035-5.085-6.765-9.234.31-4.69 3.61-8.173 8.348-8.8 4.058-.538 8.374 2.008 9.598 5.72-.662 0-1.304-.024-1.943.01-.382.02-.536-.2-.72-.466-2.304-3.356-6.16-4.245-9.615-2.23-3.222 1.88-4.37 5.978-2.637 9.42 1.677 3.333 5.71 4.804 9.216 3.366 1.12-.46 2.106-1.135 2.725-2.162.438-.725.947-.963 1.73-.87.396.045.8.007 1.29.007z"/><path fill="#242021" d="M126.89 80.793c0-2.698.02-5.396-.014-8.093-.008-.62.176-.79.776-.76.96.05 1.923.036 2.883.004.45-.015.582.125.58.575-.012 5.55-.012 11.1 0 16.65.002.476-.14.656-.634.64-.96-.03-1.92-.046-2.88.003-.596.03-.723-.19-.72-.743.026-2.76.01-5.52.01-8.28z"/><path fill="#231F20" d="M128.96 69.93c-2.07 0-2.07 0-2.07-2.04 0-1.884 0-1.884 2.048-1.884 2.168 0 2.168 0 2.168 2.144 0 1.78 0 1.78-1.775 1.78h-.37z"/><path fill="#0F4DA1" d="M31.498 40.453c-.04-3.763-3.05-6.84-6.805-6.875-5.963-.055-11.927-.034-17.89-.002-1.808.01-3.364.73-4.683 1.985C.972 36.655.41 38.04 0 39.52v13.42c.06.173.138.342.18.52.774 3.2 3.5 5.417 6.807 5.432 5.87.026 11.74.035 17.61-.006 3.816-.026 6.86-3.076 6.902-6.878.036-3.85.036-7.702-.004-11.553zm-2.477 10.99c-.005 3.044-1.83 4.885-4.85 4.9-2.796.012-5.59.002-8.386.002-2.826 0-5.652.012-8.478-.003-2.927-.016-4.782-1.836-4.805-4.755-.027-3.57-.027-7.143 0-10.714.02-2.917 1.88-4.752 4.8-4.76 5.623-.013 11.244-.012 16.865 0 3.024.007 4.848 1.855 4.856 4.896.01 3.475.01 6.953 0 10.432z"/><path fill="#F17321" d="M94.662 33.558c-5.65-.014-11.298-.015-16.947 0-4.268.01-7.25 2.992-7.273 7.27-.02 3.57-.017 7.14 0 10.71.02 4.396 2.983 7.35 7.37 7.36 3.413.008 6.828.016 10.242-.012.632-.005 1.112.166 1.59.575 1.05.9 2.148 1.74 3.38 2.728V60.54c0-1.63 0-1.63 1.655-1.64 4.246-.028 7.27-3.05 7.274-7.28.004-3.57.003-7.14 0-10.71-.002-4.306-3-7.34-7.294-7.352zm4.76 18.01c-.014 2.95-1.818 4.743-4.763 4.773l-.19.004h-8.29c-2.826 0-5.65.013-8.477-.004-2.9-.018-4.77-1.884-4.782-4.785-.015-3.54-.013-7.08 0-10.62.01-2.95 1.876-4.81 4.844-4.816 5.62-.015 11.24-.015 16.86 0 2.995.005 4.785 1.815 4.795 4.83.013 3.54.015 7.08 0 10.62z"/><path fill="#88288E" d="M46.384 6.855C46.334 3.02 43.204.003 39.37.002 33.53 0 27.694 0 21.86.002c-3.856.002-6.94 3.02-6.97 6.873-.03 3.85-.026 7.7 0 11.55.023 3.058 2.048 5.684 4.985 6.57 1.057.32 2.14.35 3.227.308.517-.02.726.14.7.68-.037.8-.01 1.6-.01 2.618 1.26-1.01 2.34-1.84 3.37-2.726.482-.414.973-.575 1.6-.57 3.51.02 7.018.033 10.526.002 3.94-.035 7.044-3.033 7.096-6.9.052-3.85.05-7.7 0-11.55zm-2.535 11.17C43.84 20.9 42 22.738 39.13 22.75c-2.857.013-5.714.003-8.57.002-2.858 0-5.715.013-8.572-.004-2.7-.017-4.614-1.933-4.63-4.652-.02-3.633-.02-7.267 0-10.9.016-2.725 1.89-4.675 4.607-4.693 5.745-.04 11.49-.038 17.234-.002 2.82.02 4.638 1.91 4.65 4.72.01 3.6.01 7.204 0 10.807z"/><path fill="#231F20" d="M121.233 72.987c-2.6-1.862-6.82-2.602-10.536.488 0-2.34-.017-4.54.012-6.738.004-.55-.11-.782-.716-.744-.835.053-1.68.067-2.512-.002-.817-.064-1.08.15-1.076 1.036.042 6.86.023 13.72.023 20.578 0 2.2 0 2.2 2.204 2.2 1.654 0 1.655 0 1.707-1.675.005-.12-.01-.248.173-.27.956.98 2.015 1.81 3.378 2.197 4.745 1.348 9.165-1.22 10.72-6.248 1.243-4.03-.16-8.518-3.378-10.82zm-3.955 13.218c-2.058.658-4.482-.15-5.786-1.93-1.39-1.895-1.41-4.865-.047-6.814 1.265-1.805 3.616-2.604 5.76-1.955 2.21.67 3.61 2.755 3.61 5.374-.002 2.6-1.348 4.627-3.537 5.327z"/><path fill="#E12027" d="M86.824 6.667C86.738 2.92 83.59.003 79.828 0H62.413c-3.987.002-7.03 2.964-7.073 6.958-.04 3.787-.037 7.575 0 11.362.038 3.88 3.01 6.93 6.9 6.97 5.897.062 11.796.06 17.694 0 3.757-.04 6.813-3.014 6.89-6.703.086-3.972.092-7.95 0-11.92zm-2.518 11.558c-.025 2.64-1.914 4.503-4.543 4.523-2.92.022-5.84.005-8.758.005-2.826 0-5.653.01-8.48-.003-2.775-.013-4.69-1.903-4.706-4.67-.024-3.634-.024-7.268 0-10.9.012-2.678 1.845-4.648 4.522-4.676 5.838-.06 11.678-.062 17.516.002 2.603.028 4.417 1.94 4.444 4.54.04 3.725.036 7.452 0 11.18z"/><path fill="#00A3DC" d="M46.393 74.27c-.026-3.973-3.012-7.068-6.977-7.108-5.866-.06-11.734-.06-17.6 0-3.82.04-6.876 3.054-6.92 6.758-.05 3.942-.05 7.885 0 11.827.046 3.688 3.16 6.7 6.844 6.706 2.95.005 5.898 0 8.847 0 2.887 0 5.774.002 8.66 0 4.066 0 7.12-3.02 7.146-7.1.023-3.694.024-7.388 0-11.082zm-2.545 11.004c-.013 2.786-1.875 4.68-4.68 4.693-5.682.028-11.366.03-17.05 0-2.877-.013-4.75-1.946-4.76-4.834-.01-3.54-.01-7.08 0-10.62.01-2.904 1.88-4.785 4.76-4.812h8.572c2.826 0 5.652-.01 8.48.007 2.808.014 4.665 1.862 4.678 4.67.017 3.632.016 7.266 0 10.9z"/><path fill="#231F20" d="M95.658 71.38c-5.25-.03-9.488 4.162-9.525 9.418-.037 5.2 4.252 9.567 9.402 9.573 5.24.008 9.366-4.066 9.405-9.285.04-5.467-3.984-9.674-9.282-9.703zm-.093 15.062c-2.912-.01-5.175-2.45-5.17-5.57.005-3.093 2.308-5.574 5.18-5.58 2.823-.004 5.112 2.53 5.1 5.646-.01 3.095-2.258 5.515-5.11 5.504zm66.212-14.673c-4.99-.02-9.108 4.14-9.128 9.22-.02 5.014 4.064 9.193 9.014 9.216 5.013.023 9.168-4.11 9.208-9.16.04-5.015-4.125-9.263-9.097-9.28zm-.044 16.393c-3.812-.012-6.846-3.167-6.844-7.118 0-4.017 3.043-7.233 6.843-7.234 3.793 0 6.88 3.17 6.902 7.086.023 4.047-3.047 7.28-6.904 7.267z"/></svg>