<svg xmlns="http://www.w3.org/2000/svg" width="80" height="80" viewBox="0 0 80 80"><path fill="#3F4345" d="M.007 47.28c0-15.621.002-31.242-.007-46.862 0-.319.042-.418.4-.418 26.403.011 52.807.011 79.21.002.325 0 .388.065.388.389-.009 26.403-.009 52.806.002 79.209 0 .36-.101.4-.418.4-16.874-.008-33.747-.007-50.621-.007-.019-.129-.12-.204-.198-.292-3.357-3.791-6.716-7.581-10.075-11.371-4.932-5.566-9.864-11.132-14.798-16.696-1.29-1.455-2.588-2.903-3.883-4.354zm26.023-4.419h.51c1.853 0 3.706-.025 5.558.007 2.042.035 3.774-.669 5.247-2.056 1.739-1.638 2.758-3.578 2.664-6.042-.061-1.611-.009-3.225-.013-4.838-.001-.441.036-.878.088-1.315.139-1.173.762-1.923 1.92-2.221.585-.15 1.177-.223 1.778-.223 2.892-.001 5.785.002 8.677-.003.401-.001.799.028 1.195.082 1.4.189 2.323.949 2.624 2.164.093.377.114.762.114 1.15-.003 9.757 0 19.514-.009 29.271 0 .331.049.452.423.446 1.626-.025 3.252-.017 4.878-.004.279.002.365-.074.358-.355-.019-.693-.006-1.386-.006-2.079.002-8.238.009-16.475.004-24.713-.001-1.611.095-3.228-.133-4.832-.348-2.456-1.427-4.443-3.706-5.633-1.347-.703-2.802-1.042-4.301-1.086-3.797-.113-7.597-.117-11.394 0-1.692.052-3.334.433-4.782 1.364-.434.279-.691.318-1.139-.015-1.47-1.091-3.19-1.408-4.984-1.408-4.425-.001-8.851.003-13.276-.007-.306-.001-.377.091-.375.385.014 1.613.017 3.226-.001 4.838-.004.341.067.445.432.444 4.159-.015 8.318-.003 12.476-.016.645-.002 1.24.147 1.811.411.816.378 1.378.987 1.6 1.877.026.103.055.209.053.313-.023 1.945.096 3.891-.004 5.835-.073 1.42-.912 2.311-2.307 2.542-.358.059-.716.061-1.076.061-4.172.001-8.344.007-12.516-.01-.4-.002-.479.114-.471.487.025 1.146.056 2.295-.008 3.438-.041.73.216 1.252.676 1.783 4.642 5.358 9.267 10.732 13.892 16.105.16.186.316.273.572.271 2.213-.012 4.425-.006 6.638-.01.108 0 .235.056.349-.069-4.659-5.425-9.317-10.847-14.036-16.339z"/><path fill="#d00" d="M.007 47.28c1.294 1.451 2.593 2.9 3.883 4.355 4.934 5.564 9.865 11.13 14.798 16.695 3.359 3.79 6.717 7.58 10.075 11.371.078.088.179.163.198.292-9.538 0-19.077-.002-28.615.008-.292 0-.346-.065-.346-.35.009-10.79.007-21.581.007-32.371z"/><path fill="#FDFDFD" d="M26.03 42.861l14.038 16.338c-.114.124-.24.069-.349.069-2.213.004-4.425-.002-6.638.01-.256.001-.412-.085-.572-.271-4.625-5.373-9.25-10.746-13.892-16.105-.46-.531-.717-1.053-.676-1.783.064-1.143.033-2.292.008-3.438-.008-.373.071-.488.471-.487 4.172.017 8.344.011 12.516.01.359 0 .718-.001 1.076-.061 1.395-.232 2.233-1.122 2.307-2.542.1-1.944-.019-3.89.004-5.835.001-.104-.028-.211-.053-.313-.222-.89-.783-1.499-1.6-1.877-.571-.264-1.167-.413-1.811-.411-4.159.013-8.318.001-12.476.016-.365.001-.436-.103-.432-.444.018-1.613.015-3.226.001-4.838-.002-.293.069-.385.375-.385 4.425.01 8.851.006 13.276.007 1.794 0 3.514.317 4.984 1.408.448.332.705.294 1.139.015 1.449-.931 3.091-1.312 4.782-1.364 3.797-.117 7.597-.113 11.394 0 1.499.045 2.954.383 4.301 1.086 2.279 1.19 3.358 3.177 3.706 5.633.227 1.604.132 3.22.133 4.832.005 8.238-.001 16.475-.004 24.713 0 .693-.013 1.387.006 2.079.008.281-.079.357-.358.355-1.626-.013-3.253-.021-4.878.004-.374.006-.424-.116-.423-.446.009-9.757.006-19.514.009-29.271 0-.389-.02-.774-.114-1.15-.301-1.215-1.225-1.975-2.624-2.164-.396-.053-.794-.082-1.195-.082-2.892.005-5.785.002-8.677.003-.602 0-1.194.073-1.778.223-1.158.298-1.781 1.048-1.92 2.221-.052.437-.089.874-.088 1.315.005 1.613-.048 3.228.013 4.838.094 2.464-.926 4.404-2.664 6.042-1.473 1.388-3.206 2.091-5.247 2.056-1.852-.032-3.705-.007-5.558-.007l-.512.001z"/></svg>