<svg xmlns="http://www.w3.org/2000/svg" width="80" height="80" viewBox="0 0 80 80"><path fill="#3F4345" d="M.007 47.28C.007 31.66.01 16.038 0 .418 0 .098.042 0 .4 0c26.403.01 52.807.01 79.21.002.325 0 .388.065.388.39-.01 26.402-.01 52.805.002 79.208 0 .36-.1.4-.418.4-16.874-.008-33.747-.007-50.62-.007-.02-.13-.12-.204-.2-.292-3.356-3.79-6.715-7.58-10.074-11.37L3.89 51.638C2.6 50.18 1.302 48.73.007 47.28zm26.023-4.42h.51c1.853 0 3.706-.024 5.558.008 2.042.035 3.774-.67 5.247-2.056 1.74-1.638 2.758-3.578 2.664-6.042-.065-1.61-.01-3.225-.017-4.838 0-.44.036-.878.088-1.315.14-1.173.763-1.923 1.92-2.22.586-.15 1.178-.224 1.78-.224 2.892 0 5.785.002 8.677-.003.4 0 .798.028 1.194.082 1.4.19 2.324.95 2.625 2.164.093.377.114.762.114 1.15-.004 9.757 0 19.514-.01 29.27 0 .332.05.453.423.447 1.626-.025 3.252-.017 4.878-.004.28 0 .366-.078.36-.36-.02-.692-.007-1.385-.007-2.08.002-8.236.01-16.473.004-24.71 0-1.61.095-3.228-.133-4.83-.348-2.458-1.427-4.445-3.706-5.635-1.348-.703-2.8-1.042-4.3-1.086-3.8-.113-7.6-.117-11.396 0-1.692.052-3.334.433-4.782 1.364-.434.28-.69.318-1.14-.015-1.47-1.09-3.19-1.41-4.983-1.41-4.425 0-8.85.004-13.276-.006-.305 0-.376.09-.374.385.013 1.612.016 3.225 0 4.837-.006.34.065.445.43.444 4.16-.014 8.32-.002 12.476-.015.645-.002 1.24.147 1.81.41.817.38 1.38.988 1.6 1.878.027.103.056.21.054.313-.02 1.945.098 3.89-.002 5.835-.073 1.42-.912 2.31-2.307 2.543-.356.06-.714.06-1.074.06-4.172.002-8.344.008-12.516-.01-.4 0-.48.115-.47.488.023 1.147.054 2.296-.01 3.44-.04.73.216 1.25.676 1.782 4.642 5.358 9.267 10.732 13.892 16.105.16.186.316.273.572.27 2.212-.01 4.424-.005 6.637-.01.108 0 .235.057.35-.068L26.03 42.86z"/><path fill="#d00" d="M.007 47.28C1.3 48.73 2.6 50.18 3.89 51.635c4.934 5.564 9.865 11.13 14.798 16.695 3.36 3.79 6.717 7.58 10.075 11.37.078.09.18.164.198.293-9.534 0-19.073-.002-28.61.008-.296 0-.35-.06-.35-.35.01-10.79.007-21.58.007-32.37z"/><path fill="#FDFDFD" d="M26.03 42.86L40.068 59.2c-.114.123-.24.068-.35.068-2.212.004-4.424-.002-6.637.01-.252 0-.41-.085-.57-.27-4.623-5.374-9.25-10.747-13.89-16.106-.46-.53-.717-1.053-.676-1.783.065-1.147.034-2.296.01-3.44-.01-.375.07-.49.47-.49 4.172.018 8.344.01 12.516.01.36 0 .717 0 1.075-.06 1.395-.232 2.233-1.122 2.307-2.542.1-1.944-.02-3.89.004-5.835 0-.104-.028-.21-.053-.313-.22-.89-.782-1.5-1.6-1.877-.57-.264-1.166-.413-1.81-.41-4.16.012-8.32 0-12.476.015-.365.003-.436-.1-.432-.442.02-1.613.016-3.226.002-4.838-.002-.294.07-.386.375-.386 4.424.01 8.85.006 13.275.007 1.794 0 3.514.32 4.984 1.41.45.33.706.294 1.14.015 1.45-.93 3.09-1.312 4.78-1.364 3.8-.115 7.6-.11 11.396 0 1.5.047 2.954.385 4.3 1.088 2.28 1.19 3.36 3.176 3.707 5.632.227 1.603.13 3.22.133 4.83.005 8.24 0 16.476-.004 24.714 0 .693-.013 1.387.006 2.08.008.28-.08.356-.358.354-1.626-.013-3.253-.02-4.878.004-.375.006-.425-.116-.424-.446.01-9.757.006-19.514.01-29.27 0-.39-.02-.775-.115-1.15-.3-1.216-1.223-1.976-2.622-2.165-.395-.05-.793-.08-1.194-.08-2.89.006-5.784 0-8.676.004-.602 0-1.194.073-1.778.223-1.16.297-1.78 1.047-1.92 2.22-.053.437-.09.874-.09 1.315.006 1.614-.047 3.23.014 4.84.095 2.463-.925 4.403-2.663 6.04-1.472 1.39-3.205 2.092-5.246 2.057-1.852-.034-3.705-.01-5.558-.01h-.513z"/></svg>