<svg xmlns="http://www.w3.org/2000/svg" width="80" height="80" viewBox="0 0 80 80"><path fill="#3F4345" d="M.007 47.28C.007 31.66.01 16.038 0 .418 0 .098.042 0 .4 0c26.403.01 52.807.01 79.21.002.325 0 .388.065.388.39-.01 26.402-.01 52.805.002 79.208 0 .36-.1.4-.418.4-16.874-.008-33.747-.007-50.62-.007-.02-.13-.12-.204-.2-.292-3.356-3.79-6.715-7.58-10.074-11.37L3.89 51.636C2.6 50.18 1.302 48.73.007 47.28zm26.023-4.42h.51c1.853 0 3.706-.024 5.558.008 2.042.035 3.774-.67 5.247-2.056 1.74-1.638 2.758-3.578 2.664-6.042-.063-1.61-.01-3.225-.015-4.838 0-.44.036-.878.088-1.315.14-1.173.762-1.923 1.92-2.22.585-.15 1.177-.224 1.778-.224 2.893 0 5.786.002 8.678-.003.4 0 .798.028 1.194.082 1.4.19 2.323.95 2.624 2.164.093.377.114.762.114 1.15-.003 9.757 0 19.514-.01 29.27 0 .332.05.453.424.447 1.626-.025 3.252-.017 4.878-.004.28 0 .365-.076.358-.357-.02-.693-.006-1.386-.006-2.08.002-8.237.01-16.474.004-24.712 0-1.61.095-3.227-.133-4.83-.348-2.457-1.427-4.444-3.706-5.634-1.347-.703-2.8-1.042-4.3-1.086-3.798-.112-7.598-.116-11.395 0-1.692.053-3.334.434-4.782 1.365-.434.28-.69.318-1.14-.015-1.47-1.09-3.19-1.408-4.983-1.408-4.424 0-8.85.003-13.275-.007-.306 0-.377.09-.375.385.014 1.613.017 3.226 0 4.838-.005.34.066.445.43.444 4.16-.015 8.32-.003 12.477-.016.645-.002 1.24.147 1.81.41.817.38 1.38.988 1.6 1.878.027.103.056.21.054.313-.02 1.945.098 3.89-.002 5.835-.073 1.42-.912 2.31-2.307 2.542-.357.06-.715.06-1.075.06-4.172.002-8.344.008-12.516-.01-.4 0-.48.115-.47.488.023 1.146.054 2.295-.01 3.438-.04.73.216 1.252.676 1.783 4.642 5.358 9.267 10.732 13.892 16.105.16.186.316.273.572.27 2.212-.01 4.424-.005 6.637-.01.108 0 .235.057.35-.068L26.03 42.86z"/><path fill="#d00" d="M.007 47.28C1.3 48.73 2.6 50.18 3.89 51.635c4.934 5.564 9.865 11.13 14.798 16.695 3.36 3.79 6.717 7.58 10.075 11.37.078.09.18.164.198.293-9.536 0-19.075-.002-28.613.008C.054 80 0 79.938 0 79.65c.01-10.79.007-21.58.007-32.37z"/><path fill="#FDFDFD" d="M26.03 42.86L40.068 59.2c-.114.123-.24.068-.35.068-2.212.004-4.424-.002-6.637.01-.254 0-.41-.085-.57-.27-4.625-5.374-9.25-10.747-13.892-16.106-.46-.53-.717-1.053-.676-1.783.065-1.145.034-2.294.01-3.44-.01-.373.07-.488.47-.487 4.172.017 8.344.01 12.516.01.36 0 .718 0 1.076-.06 1.395-.233 2.233-1.123 2.307-2.543.1-1.943-.02-3.89.004-5.834 0-.104-.028-.21-.053-.313-.22-.89-.782-1.5-1.6-1.877-.57-.264-1.166-.413-1.81-.41-4.16.012-8.32 0-12.476.015-.365.003-.436-.1-.432-.442.02-1.613.016-3.226.002-4.838-.002-.294.07-.386.375-.386 4.424.01 8.85.006 13.275.007 1.794 0 3.514.32 4.984 1.41.447.33.704.294 1.14.015 1.447-.93 3.09-1.312 4.78-1.364 3.797-.116 7.597-.112 11.394 0 1.5.046 2.954.384 4.3 1.087 2.28 1.19 3.36 3.177 3.707 5.633.227 1.603.13 3.22.133 4.83.005 8.24 0 16.476-.004 24.714 0 .693-.014 1.387.005 2.08.008.28-.08.356-.358.354-1.626-.013-3.253-.02-4.878.004-.375.006-.425-.116-.424-.446.01-9.757.006-19.514.01-29.27 0-.39-.02-.775-.115-1.15-.3-1.216-1.224-1.976-2.623-2.165-.396-.05-.794-.08-1.195-.08-2.89.005-5.784 0-8.676.003-.602 0-1.194.073-1.778.223-1.158.298-1.78 1.048-1.92 2.22-.052.438-.09.875-.088 1.316.005 1.614-.048 3.23.013 4.84.095 2.463-.925 4.403-2.663 6.04-1.473 1.39-3.206 2.092-5.247 2.057-1.852-.033-3.705-.008-5.558-.008h-.512z"/></svg>