<svg xmlns="http://www.w3.org/2000/svg" viewBox="0 0 200 45.821" enable-background="new 0 0 200 45.821"><path fill-rule="evenodd" clip-rule="evenodd" fill="#0094D9" d="M5.766 45.793c-1.536-.073-3.165-.207-4.08-.73C.01 44.1-.42 40.18.412 38.297c.556-1.307 2.28-.3 4.387.173 11.68 2.607 28.836.634 34.68-9.676 2.63-4.65-1.344-7.605-6.443-7.998-9.51-.728-24.378 4.51-24.97-3.467-.3-4.065 6.09-7.318 9.92-8.29 3.456-.877 9.156-1.966 16.76-.188.936.147 1.376 1.156 1.36 2.02-.136 7.773-.978 1.518-12.677.538-7.354-.61-12.827 3.094-10.3 6.958 3.166 4.825 19.347-1.15 27.026.362 7.586 1.494 7.033 10.275-.287 16.245-7.184 5.853-17.477 8.952-26.52 10.26-3.12.452-5.627.665-7.586.556m6.766-10.33c-1.197-.115-4.78-.463-5.647-2.185-.38-.888-.728-4.185.09-4.944.1.006.303-.085.5-.084.836.04 7.61 4.26 16 3.506 11.915-1.075 13.065-8.137 5.238-8.554C21.7 22.824 1.13 29.028.565 18.72-.22 4.49 27.75-1.615 38.594.363c1.294.25 1.963.056 2.263 1.564.155.782.226 4.925-.88 4.542-4.63-1.6-8.34-2.27-13.33-2.035-6.67.322-18.675 3.15-20.54 11.337-.66 2.865 2.04 5.75 5.465 6.463 8.338 1.733 28.046-4.725 26.356 4.252-1.257 6.746-18.295 10.227-25.396 8.973z"/><path fill-rule="evenodd" clip-rule="evenodd" d="M195.386 22.805c-.02-.966-.268-1.695-.722-2.178-.453-.493-1.16-.73-2.123-.73-.89 0-1.63.228-2.204.69-.574.46-.898 1.197-.96 2.218h6.012zm4.614 2.7h-10.62c.07 1.127.5 1.99 1.297 2.59.796.597 1.96.9 3.513.9.98 0 1.928-.176 2.845-.53.92-.35 1.648-.722 2.185-1.124h.513v3.704c-1.05.417-2.038.72-2.97.91-.928.186-1.954.283-3.074.283-2.91 0-5.135-.654-6.687-1.95-1.542-1.297-2.313-3.15-2.313-5.543 0-2.38.728-4.257 2.193-5.65 1.466-1.388 3.477-2.08 6.035-2.08 2.348 0 4.114.592 5.303 1.772 1.19 1.19 1.777 2.89 1.777 5.11v1.612zm-16.828-8.042l-5.585 14.384h-5.258l-5.545-14.384h4.91l3.355 9.89 3.313-9.89h4.808zm-17.21 4.396h-.41c-.197-.078-.516-.13-.955-.16-.43-.035-.8-.05-1.096-.05-.654 0-1.24.044-1.75.12-.506.09-1.054.237-1.634.442v9.632h-4.644v-14.38h4.645v2.107c1.022-.865 1.913-1.443 2.667-1.732.758-.286 1.454-.427 2.09-.427.16 0 .35.006.556.013.205.01.386.018.534.04v4.397zm-18.378.943c-.022-.966-.265-1.695-.72-2.178-.458-.493-1.164-.73-2.127-.73-.89 0-1.628.228-2.21.69-.573.46-.896 1.197-.96 2.218h6.017zm4.612 2.7h-10.618c.07 1.127.503 1.99 1.3 2.59.792.597 1.958.9 3.508.9.982 0 1.927-.176 2.846-.53.925-.35 1.648-.722 2.187-1.124h.505v3.7c-1.047.418-2.034.72-2.963.91-.923.187-1.952.284-3.08.284-2.905 0-5.132-.654-6.678-1.95-1.546-1.297-2.316-3.15-2.316-5.543 0-2.38.73-4.256 2.192-5.65 1.47-1.387 3.474-2.08 6.028-2.08 2.358 0 4.123.593 5.31 1.773 1.19 1.19 1.778 2.89 1.778 5.11v1.612zm-17.5-.378c0 2.108-.895 3.818-2.696 5.13-1.798 1.32-4.234 1.983-7.312 1.983-1.79 0-3.34-.16-4.66-.47-1.33-.315-2.566-.71-3.728-1.19v-5.124h.607c1.15.91 2.43 1.604 3.85 2.095 1.42.49 2.79.732 4.1.732.335 0 .78-.026 1.332-.08.55-.06.99-.153 1.34-.293.424-.17.772-.387 1.045-.643.277-.257.414-.64.414-1.15 0-.467-.204-.873-.6-1.215-.4-.337-.986-.602-1.76-.783-.807-.19-1.66-.37-2.564-.536-.9-.17-1.747-.386-2.533-.64-1.808-.586-3.112-1.376-3.91-2.38-.797-.995-1.19-2.24-1.19-3.728 0-1.99.9-3.614 2.692-4.872 1.797-1.26 4.108-1.888 6.927-1.888 1.42 0 2.822.132 4.202.407 1.376.273 2.58.62 3.588 1.03v4.922h-.59c-.865-.69-1.932-1.263-3.188-1.732-1.258-.46-2.542-.697-3.855-.697-.46 0-.92.036-1.38.097-.45.058-.895.178-1.317.352-.38.137-.7.36-.97.652-.273.292-.404.628-.404.998 0 .564.214 1 .65 1.3.433.303 1.25.577 2.455.826.79.166 1.55.32 2.273.474.73.158 1.51.37 2.347.632 1.652.54 2.868 1.268 3.652 2.194.784.924 1.174 2.12 1.174 3.598zm-20.547 6.59c-.506.13-1.03.234-1.59.308-.56.068-1.24.104-2.05.104-1.808 0-3.147-.365-4.027-1.088-.877-.728-1.32-1.97-1.32-3.73v-6.72h-1.91v-3.126h1.91V13.35h4.638v4.115h4.348v3.125H109.8v5.095c0 .5.006.95.015 1.324.007.373.08.71.206 1.01.12.294.336.534.638.71.307.175.752.265 1.332.265.248 0 .562-.052.953-.156.394-.105.665-.196.818-.286h.388v3.164zm-11.025-16.42h-.345c-.206-.062-.476-.126-.802-.206-.336-.08-.69-.116-1.073-.116-.91 0-1.523.167-1.843.49-.324.318-.488.95-.488 1.884v.112h3.583v3.125h-3.43v11.26H94.09v-11.26h-1.985V17.46h1.984v-.4c0-1.76.47-3.082 1.41-3.96.94-.876 2.365-1.317 4.27-1.317.688 0 1.314.018 1.873.066.56.05 1.048.112 1.48.19v3.254zm-18.42 12.862c.302-.37.527-.808.68-1.33.147-.515.225-1.23.225-2.144 0-.845-.077-1.552-.23-2.125-.15-.57-.372-1.028-.65-1.376-.27-.35-.6-.593-.986-.737-.388-.15-.808-.223-1.25-.223-.448 0-.847.06-1.192.182-.354.12-.68.36-.997.72-.285.33-.514.79-.678 1.368-.168.58-.248 1.315-.248 2.19 0 .786.062 1.468.21 2.05.144.572.356 1.032.644 1.38.27.338.602.58.988.73.38.16.817.234 1.3.234.426 0 .827-.065 1.21-.21.386-.14.707-.38.974-.71zm5.708-3.502c0 2.37-.69 4.235-2.08 5.594-1.387 1.363-3.335 2.045-5.84 2.045-2.516 0-4.462-.682-5.844-2.046-1.39-1.36-2.085-3.226-2.085-5.595 0-2.378.7-4.25 2.095-5.61C78.056 17.69 80 17.01 82.5 17.01c2.525 0 4.476.686 5.853 2.05 1.38 1.37 2.066 3.227 2.066 5.596zm-18.042.47c0 2.107-.894 3.817-2.694 5.13-1.796 1.32-4.233 1.982-7.317 1.982-1.78 0-3.337-.158-4.66-.47-1.325-.314-2.56-.71-3.725-1.188v-5.126h.61c1.15.91 2.427 1.604 3.85 2.095 1.42.49 2.79.73 4.098.73.34 0 .78-.025 1.328-.08.554-.06.998-.152 1.348-.292.422-.17.772-.387 1.044-.643.276-.257.416-.64.416-1.15 0-.467-.203-.873-.602-1.215-.4-.337-.986-.602-1.756-.783-.81-.19-1.664-.37-2.567-.536-.902-.17-1.743-.385-2.534-.64-1.807-.585-3.108-1.375-3.908-2.38-.797-.994-1.19-2.24-1.19-3.727 0-1.99.9-3.614 2.696-4.872 1.79-1.26 4.102-1.887 6.93-1.887 1.41 0 2.812.132 4.193.407 1.384.273 2.58.62 3.595 1.03v4.922h-.593c-.872-.69-1.93-1.263-3.19-1.732-1.26-.46-2.54-.697-3.852-.697-.46 0-.92.036-1.38.097-.453.058-.896.178-1.32.352-.376.137-.696.36-.97.652-.268.292-.4.628-.4.998 0 .564.216 1 .65 1.3.432.303 1.25.577 2.457.826.79.166 1.545.32 2.272.474.727.158 1.507.37 2.346.632 1.645.54 2.87 1.268 3.65 2.194.787.923 1.175 2.12 1.175 3.597z"/></svg>