<svg xmlns="http://www.w3.org/2000/svg" xmlns:xlink="http://www.w3.org/1999/xlink" width="340.22" height="80" viewBox="0 0 340.22 80"><defs><path id="a" d="M0 0h340.22v80h-340.22z"/></defs><clipPath id="b"><use xlink:href="#a" overflow="visible"/></clipPath><path clip-path="url(#b)" fill-rule="evenodd" clip-rule="evenodd" fill="#0095DA" d="M21.292 61.233c-2.033-.195-8.115-.786-9.591-3.712-.646-1.508-1.237-7.109.154-8.397.172.007.515-.148.848-.144 1.418.069 12.926 7.235 27.17 5.951 20.234-1.827 22.188-13.818 8.895-14.529-11.913-.636-46.838 9.904-47.799-7.6-1.329-24.162 46.163-34.533 64.58-31.171 2.198.426 3.335.093 3.844 2.655.264 1.329.384 8.362-1.494 7.713-7.86-2.713-14.162-3.852-22.637-3.451-11.325.546-31.71 5.347-34.879 19.251-1.116 4.866 3.461 9.763 9.282 10.975 14.159 2.943 47.627-8.022 44.756 7.222-2.137 11.455-31.069 17.366-43.129 15.237zm-11.488 17.544c-2.609-.123-5.374-.353-6.929-1.24-2.847-1.638-3.579-8.296-2.164-11.49.944-2.222 3.873-.512 7.448.292 19.843 4.43 48.973 1.078 58.901-16.429 4.468-7.898-2.283-12.915-10.941-13.582-16.15-1.236-41.398 7.658-42.404-5.886-.505-6.899 10.339-12.425 16.844-14.08 5.872-1.483 15.553-3.335 28.465-.312 1.586.247 2.335 1.96 2.308 3.427-.23 13.201-1.659 2.579-21.529.913-12.49-1.037-21.782 5.254-17.489 11.817 5.374 8.193 32.85-1.954 45.893.615 12.881 2.538 11.944 17.448-.488 27.586-12.198 9.941-29.677 15.203-45.03 17.428-5.299.763-9.56 1.127-12.885.941z"/><path fill-rule="evenodd" clip-rule="evenodd" d="M122.912 43.684c0 3.579-1.521 6.484-4.578 8.709-3.049 2.242-7.187 3.369-12.424 3.369-3.026 0-5.67-.268-7.912-.797-2.253-.535-4.348-1.205-6.326-2.019v-8.702h1.037c1.951 1.546 4.118 2.724 6.535 3.558 2.411.831 4.738 1.243 6.961 1.243.573 0 1.321-.045 2.252-.137.941-.1 1.693-.261 2.287-.498.721-.292 1.315-.659 1.775-1.092.47-.436.708-1.085.708-1.954 0-.793-.347-1.483-1.023-2.063-.68-.574-1.676-1.02-2.981-1.329-1.377-.319-2.826-.625-4.361-.91-1.531-.285-2.96-.652-4.302-1.085-3.07-.996-5.282-2.339-6.638-4.039-1.353-1.693-2.019-3.808-2.019-6.336 0-3.379 1.528-6.137 4.578-8.273 3.043-2.14 6.968-3.208 11.769-3.208 2.396 0 4.776.227 7.122.69 2.349.464 4.382 1.051 6.103 1.752v8.358h-1.007c-1.483-1.175-3.279-2.146-5.415-2.942-2.142-.78-4.316-1.182-6.545-1.182-.783 0-1.563.062-2.342.164-.769.1-1.522.302-2.243.598-.639.234-1.182.611-1.645 1.106-.457.498-.684 1.068-.684 1.697 0 .957.367 1.699 1.106 2.208.731.512 2.122.979 4.172 1.401 1.343.281 2.628.539 3.86.804 1.236.268 2.562.629 3.983 1.075 2.796.917 4.873 2.153 6.202 3.726 1.335 1.565 1.995 3.599 1.995 6.108zm30.639-.796c0 4.021-1.171 7.191-3.531 9.499-2.355 2.317-5.662 3.475-9.917 3.475-4.275 0-7.579-1.158-9.928-3.475-2.359-2.308-3.54-5.478-3.54-9.499 0-4.042 1.191-7.222 3.558-9.53 2.366-2.304 5.666-3.454 9.91-3.454 4.289 0 7.6 1.164 9.939 3.481 2.345 2.326 3.509 5.478 3.509 9.503zm-9.691 5.945c.512-.625.892-1.371 1.15-2.257.254-.876.385-2.088.385-3.643 0-1.436-.131-2.634-.389-3.606-.261-.971-.635-1.748-1.109-2.338-.457-.591-1.021-1.006-1.676-1.25-.659-.254-1.37-.381-2.119-.381-.762 0-1.442.106-2.026.309-.6.203-1.157.615-1.692 1.223-.484.563-.872 1.342-1.154 2.324-.281.985-.418 2.232-.418 3.72 0 1.335.11 2.493.36 3.479.243.975.604 1.755 1.092 2.345.46.577 1.023.985 1.679 1.243.649.265 1.387.395 2.208.395.721 0 1.405-.11 2.057-.357.653-.239 1.199-.644 1.652-1.206zm31.278-21.845h-.584c-.354-.103-.811-.213-1.367-.35-.567-.134-1.171-.196-1.82-.196-1.542 0-2.586.285-3.129.831-.549.543-.827 1.614-.827 3.201v.196h6.085v5.306h-5.824v19.121h-7.878v-19.122h-3.369v-5.305h3.369v-.68c0-2.987.8-5.237 2.4-6.724 1.597-1.491 4.014-2.239 7.253-2.239 1.164 0 2.229.034 3.18.113.951.083 1.779.189 2.511.319v5.529zm18.719 27.885c-.855.223-1.749.398-2.696.526-.955.113-2.108.175-3.486.175-3.066 0-5.343-.618-6.837-1.844-1.487-1.236-2.243-3.349-2.243-6.332v-11.423h-3.241v-5.305h3.241v-6.989h7.878v6.989h7.384v5.306h-7.384v8.654c0 .848.011 1.611.025 2.245.013.639.134 1.212.35 1.717.203.502.571.91 1.082 1.209.518.295 1.277.45 2.259.45.422 0 .955-.09 1.621-.265.669-.178 1.126-.333 1.387-.484h.659v5.371zm34.889-11.189c0 3.579-1.521 6.484-4.578 8.709-3.056 2.242-7.191 3.369-12.418 3.369-3.039 0-5.673-.268-7.916-.797-2.256-.535-4.358-1.205-6.329-2.019v-8.702h1.03c1.954 1.546 4.124 2.724 6.538 3.558 2.415.831 4.739 1.243 6.961 1.243.571 0 1.326-.045 2.264-.137.934-.1 1.683-.261 2.28-.498.722-.292 1.313-.659 1.776-1.092.47-.436.701-1.085.701-1.954 0-.793-.344-1.483-1.016-2.063-.68-.574-1.677-1.02-2.988-1.329-1.373-.319-2.816-.625-4.358-.91-1.528-.285-2.967-.652-4.3-1.085-3.07-.996-5.284-2.339-6.637-4.039-1.357-1.693-2.023-3.808-2.023-6.336 0-3.379 1.528-6.137 4.571-8.273 3.053-2.14 6.979-3.208 11.765-3.208 2.407 0 4.79.227 7.136.69 2.335.464 4.379 1.051 6.092 1.752v8.358h-1.003c-1.466-1.175-3.279-2.146-5.412-2.942-2.136-.78-4.317-1.182-6.545-1.182-.783 0-1.563.062-2.342.164-.767.1-1.522.302-2.239.598-.646.234-1.185.611-1.648 1.106-.461.498-.684 1.068-.684 1.697 0 .957.364 1.699 1.102 2.208.742.512 2.129.979 4.172 1.401 1.343.281 2.631.539 3.86.804 1.247.268 2.565.629 3.99 1.075 2.805.917 4.873 2.153 6.202 3.726 1.33 1.565 1.996 3.599 1.996 6.108zm29.719.643h-18.033c.124 1.913.855 3.376 2.208 4.396 1.346 1.013 3.324 1.528 5.958 1.528 1.666 0 3.273-.299 4.832-.896 1.569-.598 2.799-1.23 3.713-1.913h.865v6.288c-1.779.708-3.454 1.223-5.034 1.542-1.566.316-3.314.484-5.23.484-4.932 0-8.713-1.113-11.34-3.314-2.623-2.201-3.935-5.347-3.935-9.413 0-4.041 1.24-7.228 3.726-9.595 2.497-2.356 5.9-3.53 10.233-3.53 4.004 0 7.002 1.002 9.018 3.008 2.019 2.019 3.019 4.905 3.019 8.675v2.74zm-7.833-4.588c-.038-1.638-.45-2.877-1.223-3.698-.776-.834-1.975-1.24-3.612-1.24-1.511 0-2.765.388-3.75 1.174-.975.779-1.521 2.033-1.631 3.764h10.216zm31.209-1.604h-.694c-.337-.127-.879-.216-1.625-.268-.728-.058-1.356-.086-1.861-.086-1.113 0-2.109.076-2.978.21-.855.151-1.789.398-2.775.748v16.357h-7.885v-24.426h7.885v3.578c1.737-1.473 3.248-2.455 4.529-2.947 1.288-.487 2.469-.724 3.547-.724.275 0 .598.011.948.021.347.017.653.031.907.072v7.465zm29.227-7.465l-9.485 24.426h-8.928l-9.413-24.426h8.341l5.693 16.792 5.626-16.792h8.166zm28.575 13.657h-18.033c.12 1.913.845 3.376 2.201 4.396 1.353 1.013 3.331 1.528 5.965 1.528 1.666 0 3.277-.299 4.832-.896 1.563-.598 2.799-1.23 3.713-1.913h.872v6.288c-1.785.708-3.465 1.223-5.048 1.542-1.573.316-3.314.484-5.217.484-4.938 0-8.716-1.113-11.349-3.314-2.62-2.201-3.929-5.347-3.929-9.413 0-4.041 1.237-7.228 3.723-9.595 2.49-2.356 5.903-3.53 10.247-3.53 3.99 0 6.988 1.002 9.007 3.008 2.016 2.019 3.015 4.905 3.015 8.675v2.74zm-7.836-4.588c-.034-1.638-.454-2.877-1.226-3.698-.766-.834-1.967-1.24-3.605-1.24-1.515 0-2.768.388-3.747 1.174-.976.779-1.524 2.033-1.632 3.764h10.21z"/></svg>