<svg xmlns="http://www.w3.org/2000/svg" xmlns:xlink="http://www.w3.org/1999/xlink" width="340.22" height="80" viewBox="0 0 340.22 80"><defs><path id="a" d="M0 0h340.22v80H0z"/></defs><clipPath id="b"><use xlink:href="#a" overflow="visible"/></clipPath><path clip-path="url(#b)" fill-rule="evenodd" clip-rule="evenodd" fill="#0095DA" d="M21.292 61.233c-2.033-.195-8.115-.786-9.59-3.712-.647-1.506-1.238-7.107.153-8.395.172.007.515-.148.848-.144 1.418.07 12.926 7.236 27.17 5.95 20.234-1.825 22.188-13.816 8.895-14.527-11.913-.636-46.838 9.904-47.8-7.6C-.36 8.64 47.133-1.73 65.55 1.633c2.2.424 3.336.09 3.845 2.653.264 1.33.384 8.362-1.494 7.713-7.86-2.715-14.162-3.854-22.637-3.453-11.325.546-31.71 5.347-34.88 19.25-1.115 4.867 3.462 9.764 9.283 10.976 14.16 2.943 47.627-8.022 44.756 7.222C62.286 57.45 33.354 63.36 21.294 61.232zM9.804 78.777c-2.61-.123-5.374-.353-6.93-1.24C.03 75.9-.703 69.24.712 66.047c.945-2.222 3.874-.512 7.45.292C28 70.77 57.13 67.415 67.06 49.91c4.468-7.898-2.283-12.915-10.94-13.582-16.15-1.236-41.4 7.658-42.405-5.886-.505-6.9 10.34-12.425 16.844-14.08 5.87-1.483 15.55-3.335 28.463-.312 1.586.247 2.335 1.96 2.308 3.427-.23 13.2-1.66 2.58-21.53.913-12.49-1.037-21.78 5.254-17.487 11.817 5.374 8.193 32.85-1.954 45.893.615 12.88 2.538 11.944 17.448-.488 27.586-12.2 9.94-29.678 15.203-45.03 17.428-5.3.763-9.56 1.127-12.886.94z"/><path fill-rule="evenodd" clip-rule="evenodd" d="M122.912 43.684c0 3.58-1.52 6.484-4.578 8.71-3.05 2.24-7.187 3.368-12.424 3.368-3.026 0-5.67-.268-7.912-.797-2.253-.535-4.348-1.205-6.326-2.02v-8.7h1.037c1.95 1.545 4.116 2.723 6.533 3.557 2.41.83 4.738 1.243 6.96 1.243.574 0 1.322-.045 2.253-.137.94-.1 1.693-.26 2.287-.498.72-.292 1.315-.66 1.775-1.092.47-.436.707-1.085.707-1.954 0-.793-.347-1.483-1.023-2.063-.68-.572-1.676-1.02-2.98-1.327-1.378-.32-2.827-.625-4.362-.91-1.53-.285-2.96-.652-4.302-1.085-3.07-.996-5.282-2.34-6.638-4.04-1.353-1.692-2.02-3.807-2.02-6.335 0-3.38 1.53-6.137 4.58-8.273 3.042-2.14 6.967-3.21 11.768-3.21 2.396 0 4.776.228 7.122.69 2.35.465 4.382 1.052 6.103 1.753v8.358h-1.007c-1.483-1.173-3.28-2.144-5.415-2.94-2.14-.78-4.315-1.182-6.544-1.182-.783 0-1.563.062-2.342.164-.77.1-1.522.303-2.243.6-.64.233-1.18.61-1.644 1.105-.457.498-.684 1.068-.684 1.697 0 .957.367 1.7 1.106 2.208.73.512 2.122.98 4.172 1.4 1.343.282 2.628.54 3.86.805 1.236.268 2.562.63 3.983 1.075 2.796.917 4.873 2.153 6.202 3.726 1.335 1.565 1.995 3.6 1.995 6.108zm30.64-.796c0 4.02-1.172 7.19-3.532 9.5-2.355 2.316-5.662 3.474-9.917 3.474-4.275 0-7.58-1.158-9.928-3.475-2.36-2.308-3.54-5.478-3.54-9.5 0-4.04 1.19-7.22 3.558-9.53 2.366-2.303 5.666-3.453 9.91-3.453 4.29 0 7.6 1.164 9.94 3.48 2.344 2.327 3.508 5.48 3.508 9.504zm-9.692 5.945c.512-.625.892-1.37 1.15-2.257.254-.876.385-2.088.385-3.643 0-1.436-.13-2.634-.39-3.606-.26-.97-.634-1.748-1.108-2.338-.457-.593-1.02-1.008-1.676-1.25-.657-.256-1.37-.383-2.117-.383-.762 0-1.442.106-2.026.31-.6.202-1.157.614-1.692 1.222-.484.562-.872 1.34-1.154 2.323-.28.985-.417 2.232-.417 3.72 0 1.335.11 2.493.36 3.48.243.974.604 1.754 1.092 2.344.46.577 1.023.985 1.68 1.243.648.266 1.386.396 2.207.396.722 0 1.406-.11 2.058-.357.653-.24 1.2-.646 1.652-1.208zm31.278-21.845h-.584c-.354-.103-.81-.213-1.367-.35-.567-.134-1.17-.196-1.82-.196-1.542 0-2.586.285-3.13.83-.548.544-.826 1.615-.826 3.202v.196h6.087v5.306h-5.824v19.12h-7.878v-19.12h-3.37V30.67h3.37v-.68c0-2.987.8-5.237 2.4-6.724 1.597-1.49 4.014-2.24 7.253-2.24 1.164 0 2.23.035 3.18.114.95.083 1.78.19 2.51.32v5.528zm18.72 27.885c-.856.223-1.75.398-2.697.526-.953.11-2.106.173-3.484.173-3.066 0-5.343-.618-6.837-1.844-1.488-1.237-2.244-3.35-2.244-6.333V35.975h-3.24V30.67h3.24v-6.99h7.878v6.99h7.384v5.306h-7.384v8.654c0 .848.01 1.61.025 2.245.012.64.133 1.212.35 1.717.202.502.57.91 1.08 1.21.52.294 1.278.45 2.26.45.42 0 .955-.09 1.62-.266.67-.178 1.127-.333 1.388-.484h.66v5.37zm34.888-11.19c0 3.58-1.52 6.485-4.578 8.71-3.056 2.242-7.19 3.37-12.418 3.37-3.04 0-5.673-.27-7.916-.798-2.256-.535-4.358-1.205-6.33-2.02v-8.7h1.03c1.955 1.545 4.125 2.723 6.54 3.557 2.414.83 4.738 1.243 6.96 1.243.57 0 1.326-.045 2.264-.137.934-.1 1.683-.26 2.28-.498.722-.292 1.313-.66 1.776-1.092.47-.436.7-1.085.7-1.954 0-.793-.343-1.483-1.015-2.063-.68-.572-1.68-1.02-2.99-1.327-1.373-.32-2.816-.625-4.358-.91-1.528-.285-2.967-.652-4.3-1.085-3.07-.996-5.284-2.34-6.637-4.04-1.357-1.692-2.023-3.807-2.023-6.335 0-3.38 1.528-6.137 4.57-8.273 3.054-2.14 6.98-3.21 11.766-3.21 2.406 0 4.79.228 7.135.69 2.335.465 4.38 1.052 6.092 1.753v8.358h-1.003c-1.466-1.173-3.28-2.144-5.412-2.94-2.136-.78-4.317-1.182-6.545-1.182-.783 0-1.563.062-2.342.164-.767.1-1.522.303-2.24.6-.645.233-1.184.61-1.647 1.105-.46.498-.684 1.068-.684 1.697 0 .957.364 1.7 1.102 2.208.742.512 2.13.98 4.172 1.4 1.343.282 2.63.54 3.86.805 1.247.268 2.565.63 3.99 1.075 2.805.917 4.873 2.153 6.202 3.726 1.33 1.565 1.996 3.6 1.996 6.108zm29.72.644H240.43c.124 1.913.855 3.376 2.208 4.396 1.346 1.013 3.324 1.528 5.958 1.528 1.666 0 3.273-.297 4.832-.894 1.57-.598 2.8-1.23 3.713-1.913h.866v6.288c-1.78.71-3.454 1.224-5.034 1.543-1.566.316-3.314.484-5.23.484-4.932 0-8.713-1.113-11.34-3.314-2.623-2.2-3.935-5.347-3.935-9.413 0-4.042 1.24-7.23 3.725-9.596 2.497-2.356 5.9-3.53 10.233-3.53 4.004 0 7.002 1.002 9.018 3.008 2.02 2.02 3.02 4.905 3.02 8.675v2.74zm-7.834-4.588c-.038-1.64-.45-2.88-1.223-3.7-.778-.834-1.977-1.24-3.614-1.24-1.51 0-2.765.39-3.75 1.174-.975.78-1.52 2.033-1.63 3.764h10.215zm31.21-1.606h-.695c-.337-.127-.88-.216-1.625-.268-.728-.058-1.356-.086-1.86-.086-1.114 0-2.11.077-2.98.21-.854.152-1.788.4-2.774.75v16.356h-7.885V30.67h7.885v3.578c1.737-1.473 3.248-2.455 4.53-2.947 1.287-.485 2.468-.722 3.546-.722.275 0 .598.01.948.02.347.018.653.032.907.073v7.466zm29.226-7.465l-9.485 24.425h-8.928l-9.413-24.426h8.34l5.694 16.79 5.626-16.79h8.166zm28.575 13.656H321.61c.12 1.913.845 3.376 2.2 4.396 1.354 1.013 3.332 1.528 5.966 1.528 1.666 0 3.277-.298 4.832-.895 1.563-.598 2.8-1.23 3.713-1.913h.874v6.288c-1.785.708-3.465 1.223-5.048 1.542-1.573.316-3.314.484-5.217.484-4.94 0-8.717-1.113-11.35-3.314-2.62-2.2-3.93-5.347-3.93-9.413 0-4.043 1.238-7.23 3.724-9.597 2.49-2.356 5.903-3.53 10.247-3.53 3.99 0 6.99 1.002 9.008 3.008 2.016 2.02 3.015 4.906 3.015 8.676v2.74zm-7.836-4.588c-.034-1.64-.454-2.878-1.226-3.7-.764-.833-1.965-1.24-3.603-1.24-1.515 0-2.768.39-3.747 1.175-.977.78-1.525 2.033-1.633 3.764h10.21z"/></svg>