<svg xmlns="http://www.w3.org/2000/svg" width="110" height="80" viewBox="0 0 110 80"><path fill="#45A6D8" d="M37.463 33.58s-16.85-8.81-17.593-9.162c-.742-.352-1.225-.267-1.535 0l-3.75 3.22 2.668 12.887s.928 5.026 1.33 5.816c.38.755 1.086 2.088 3.15.477 1.692-1.32 15.73-13.237 15.73-13.237zM26.188 44.55l12.156-10.168s1.082-.705.856.805c-.227 1.51-6.896 34.887-6.972 35.183-.038.202-.198.183-.252 0l-5.788-25.82zm-8.884 1.863L.29 37.505s-.393-.06-.252-.755C.203 35.94 7.362.156 7.362.156s.113-.352.252 0c.017.045 9.69 46.26 9.69 46.26z"/><path d="M47.86 46.156c-.682-.262-1.236-.622-1.66-1.08-.427-.458-.64-1.047-.64-1.767 0-.46.092-.87.274-1.237.183-.365.428-.673.736-.926.31-.252.668-.446 1.08-.582.41-.135.85-.203 1.318-.203.31 0 .62.026.933.077.315.05.605.114.87.19.268.073.5.15.695.222.196.075.327.14.393.196l.077.125c.005.047-.017.126-.063.238l-.223.59c-.02.056-.067.08-.14.07l-.226-.042-.392-.098-.562-.105-.645-.09c-.225-.03-.435-.043-.63-.043-.376 0-.684.047-.927.14-.243.094-.435.213-.575.357-.14.145-.235.302-.287.47-.052.17-.077.327-.077.477 0 .252.08.488.245.708.163.22.484.424.96.61l1.348.505c.402.15.755.335 1.06.555.303.22.555.463.756.73.2.266.35.55.45.848.096.3.145.603.145.912 0 .43-.09.816-.267 1.157-.178.342-.426.634-.743.877-.32.242-.7.43-1.15.56-.45.13-.94.195-1.473.195-.3 0-.604-.023-.913-.07-.31-.047-.6-.105-.878-.175-.276-.07-.517-.143-.722-.223-.206-.08-.35-.152-.435-.218l-.077-.14c-.005-.05.016-.123.063-.226l.224-.59c.02-.055.065-.078.14-.07l.224.043.407.098c.178.038.38.073.603.106l.688.09c.234.03.453.044.66.044.617 0 1.107-.12 1.472-.357s.547-.554.547-.947c0-.336-.13-.63-.386-.883-.258-.252-.564-.45-.92-.59l-1.36-.53zm7.715 4.474c-.187 0-.28-.093-.28-.28v-8.557h-2.062c-.187 0-.28-.093-.28-.28v-.7c0-.188.093-.282.28-.282h5.89c.188 0 .282.096.282.283v.7c0 .188-.094.28-.28.28H57.06v8.557c0 .187-.094.28-.28.28h-1.207zm10.926 0c-.185 0-.31-.088-.377-.267l-.87-2.216H61.27l-.87 2.216c-.065.178-.192.267-.38.267h-.91c-.085 0-.146-.02-.183-.063-.037-.042-.032-.105.014-.19l3.83-9.593c.066-.168.197-.252.394-.252h.617c.188 0 .32.084.394.252l3.83 9.594c.083.168.027.252-.17.252H66.5zm-2.96-7.293l-.28-1.053-.265 1.053-1.262 3.632h3.057l-1.25-3.634zm10.41 7.293c-.19 0-.327-.08-.42-.238l-1.78-2.833h-1.096v2.79c0 .187-.094.28-.28.28h-1.207c-.187 0-.28-.093-.28-.28v-9.54c0-.186.093-.28.28-.28h2.665c.534 0 1.02.09 1.46.273.44.183.818.433 1.136.75.318.32.566.693.743 1.123.178.43.267.888.267 1.374 0 .694-.178 1.32-.533 1.88-.356.562-.842.987-1.46 1.276l2.16 3.198c.058.075.08.13.07.168-.008.037-.07.056-.18.056H73.95zm-2.4-4.334c.694 0 1.22-.186 1.58-.557.36-.374.54-.936.54-1.69s-.18-1.314-.54-1.686c-.36-.372-.886-.562-1.58-.572h-.896v4.503h.898zm7.098 4.334c-.187 0-.28-.093-.28-.28v-8.557h-2.062c-.187 0-.28-.093-.28-.28v-.7c0-.188.093-.282.28-.282h5.89c.188 0 .282.096.282.283v.7c0 .188-.094.28-.28.28h-2.063v8.557c0 .187-.094.28-.28.28h-1.207zm10.842-9.82c0-.186.092-.28.28-.28h.785c.187 0 .28.094.28.28v6.23c0 .54-.093 1.042-.28 1.5-.187.458-.45.856-.785 1.192-.337.337-.737.6-1.2.786-.462.187-.97.28-1.52.28-.534 0-1.03-.096-1.488-.287-.458-.19-.853-.454-1.185-.79-.332-.337-.592-.735-.78-1.193-.186-.458-.28-.954-.28-1.486v-6.227c0-.187.094-.28.28-.28h1.207c.187 0 .28.093.28.28v5.835c0 .393.043.764.127 1.115.086.35.213.657.38.92s.377.47.625.623c.248.155.535.23.862.23.393 0 .738-.073 1.038-.223.3-.15.55-.355.75-.617s.355-.568.463-.92c.107-.35.16-.726.16-1.128V40.81zm3.028 9.82c-.187 0-.28-.093-.28-.28v-9.54c0-.186.093-.28.28-.28h2.665c.533 0 1.02.09 1.46.273.438.183.817.433 1.135.75.318.32.566.693.743 1.123.18.43.27.888.27 1.374 0 .477-.09.928-.268 1.354-.177.425-.424.797-.742 1.115-.318.316-.7.57-1.143.755-.444.187-.928.28-1.452.28h-1.178v2.792c0 .188-.094.28-.28.28H92.52zm2.385-4.334c.692 0 1.217-.186 1.578-.557.36-.374.54-.936.54-1.69s-.18-1.314-.54-1.686c-.36-.372-.884-.562-1.576-.572h-.898v4.503h.898zM45.913 67.46c-.188 0-.28-.092-.28-.28v-9.537c0-.187.092-.28.28-.28h3.225c.57 0 1.115.123 1.634.37.52.25.975.595 1.368 1.04.393.443.703.972.933 1.584.23.612.344 1.283.344 2.013s-.122 1.402-.365 2.02c-.243.617-.573 1.153-.99 1.606-.415.454-.904.81-1.465 1.066-.56.258-1.16.39-1.795.4h-2.89zm2.874-1.262c.402 0 .773-.098 1.115-.294.342-.196.636-.47.884-.82s.44-.763.575-1.236c.138-.472.205-.99.205-1.55 0-.542-.077-1.04-.23-1.494-.156-.453-.364-.84-.626-1.164-.263-.323-.57-.573-.92-.75s-.722-.267-1.114-.267H47.4v7.574h1.39zm6.17 1.263c-.186 0-.28-.09-.28-.28v-9.536c0-.187.094-.28.28-.28h4.952c.185 0 .28.093.28.28v.7c0 .19-.095.282-.28.282h-3.466v3.1h2.763c.187 0 .28.094.28.28v.7c0 .19-.093.282-.28.282h-2.763V66.2h3.464c.186 0 .28.093.28.28v.7c0 .19-.094.282-.28.282h-4.952zm6.775 0c-.187 0-.28-.09-.28-.28v-9.536c0-.187.093-.28.28-.28h2.665c.533 0 1.02.09 1.46.273.438.182.817.432 1.135.75.318.318.566.692.743 1.122.178.43.267.887.267 1.373 0 .477-.09.928-.267 1.354-.178.425-.425.797-.743 1.115-.318.32-.7.57-1.143.758-.446.187-.93.28-1.454.28H63.22v2.792c0 .188-.095.28-.282.28h-1.206zm2.385-4.332c.692 0 1.218-.186 1.578-.557.36-.37.54-.933.54-1.686s-.18-1.315-.54-1.686c-.36-.372-.886-.562-1.578-.572h-.898v4.502h.896zm9.958 4.502c-.7 0-1.354-.108-1.957-.324-.603-.215-1.127-.54-1.57-.974-.446-.435-.794-.977-1.046-1.627s-.38-1.415-.38-2.293c0-.88.127-1.643.38-2.293.252-.65.6-1.194 1.045-1.63.444-.434.967-.76 1.57-.973.604-.215 1.256-.323 1.958-.323.7 0 1.353.107 1.957.323.603.215 1.127.54 1.57.974.445.436.793.978 1.046 1.628.252.65.38 1.414.38 2.292 0 .88-.127 1.643-.38 2.293-.252.65-.6 1.192-1.045 1.627-.444.435-.968.76-1.57.974-.605.215-1.256.323-1.958.323zm0-1.334c.42 0 .818-.067 1.192-.203s.703-.358.99-.667c.284-.308.51-.71.672-1.206.162-.495.244-1.098.244-1.81 0-.71-.082-1.313-.246-1.808-.164-.495-.386-.898-.667-1.206-.28-.308-.61-.53-.99-.667-.377-.137-.777-.205-1.197-.205-.42 0-.82.068-1.2.203-.378.135-.707.357-.988.666-.28.31-.503.71-.666 1.206-.164.495-.245 1.1-.245 1.81s.08 1.313.245 1.808c.164.496.39.898.674 1.206.286.31.615.53.99.667s.77.204 1.19.204zm7.77 1.165c-.187 0-.28-.09-.28-.28v-8.554h-2.062c-.187 0-.28-.093-.28-.28v-.702c0-.187.093-.28.28-.28h5.89c.188 0 .282.093.282.28v.7c0 .19-.094.282-.28.282H83.33v8.555c0 .19-.094.28-.28.28h-1.207zM49.578 78.088l.03.133-.037.072-.194.103-.316.106-.39.085c-.14.022-.282.033-.428.033-.332 0-.64-.05-.927-.153-.286-.102-.534-.256-.744-.462-.21-.206-.373-.462-.493-.77s-.18-.67-.18-1.087c0-.416.06-.78.18-1.087.12-.31.285-.566.495-.77.21-.207.46-.36.745-.463.286-.102.595-.153.927-.153.146 0 .29.01.43.033l.387.083.316.105.196.103.038.066-.03.107-.106.28-.073.03-.1-.016-.44-.1c-.19-.04-.395-.06-.616-.06-.2 0-.39.032-.568.096-.18.063-.335.168-.468.315-.133.146-.238.337-.316.572-.077.235-.115.52-.115.857s.04.622.116.857c.08.237.185.427.32.574.135.146.29.25.47.316.176.063.364.095.564.095.22 0 .427-.02.618-.06l.438-.1.096-.017.075.03.106.248zm.764.452c-.09 0-.133-.045-.133-.134v-3.19c0-.087.042-.132.13-.132h.333l.086.033.046.1.066.252h.013c.07-.11.145-.196.223-.253l.228-.126.23-.05.222-.01.096.014.023.087v.5l-.024.09-.063.026-.09-.007-.096-.01c-.42 0-.63.214-.63.644v2.033c0 .088-.046.133-.134.133h-.53zm4.618-.42c.04.063.038.12-.006.173l-.156.113-.266.106-.35.077c-.127.02-.262.03-.404.03-.306 0-.56-.05-.76-.147-.203-.096-.363-.227-.483-.39-.12-.165-.203-.353-.25-.566-.046-.212-.07-.436-.07-.67 0-.258.028-.498.08-.722.054-.224.14-.42.257-.585.117-.166.27-.298.455-.395.186-.097.414-.146.684-.146.2 0 .388.03.564.086.175.057.326.146.452.265.126.12.226.27.3.45.072.18.108.39.108.628 0 .13-.012.235-.037.32-.024.083-.064.15-.12.2-.054.052-.128.09-.222.11-.093.023-.208.034-.345.034h-1.363c.013.14.036.27.07.388.033.117.083.22.15.306.065.086.15.154.248.202.1.05.222.073.37.073.127 0 .256-.016.384-.05l.396-.117.13-.02.043.033.14.214zm-.905-1.587c.102 0 .17-.012.207-.037.035-.024.053-.087.053-.19 0-.096-.014-.19-.043-.28-.03-.092-.07-.172-.12-.24-.05-.068-.112-.124-.184-.166-.07-.043-.15-.064-.24-.064-.12 0-.223.027-.307.08-.083.053-.153.124-.21.212-.053.088-.096.192-.125.31-.03.116-.048.24-.057.374h1.028zm4.007 2.006l-.096-.03-.037-.104-.07-.273h-.01c-.09.16-.215.28-.376.362-.162.082-.356.123-.582.123-.168 0-.328-.024-.478-.073-.15-.048-.283-.123-.398-.222-.115-.1-.206-.225-.272-.375-.066-.15-.1-.328-.1-.532 0-.212.037-.39.11-.528.073-.14.173-.25.3-.332.125-.082.272-.14.44-.173.17-.033.35-.05.54-.05h.684l-.05-.24c-.025-.087-.064-.172-.117-.25-.052-.08-.124-.148-.215-.204-.09-.056-.205-.084-.342-.084-.106 0-.22.016-.342.047l-.407.12-.126.02-.048-.033-.14-.214c-.04-.062-.038-.12.006-.173l.16-.113.265-.106.34-.077c.124-.02.25-.03.385-.03.287 0 .524.048.71.143.186.096.333.225.442.39.11.163.184.35.226.564.042.212.063.438.063.678v1.634c0 .088-.043.133-.132.133h-.336zm-.332-1.648h-.7c-.18 0-.322.045-.428.134-.107.088-.16.212-.16.372l.033.216.107.216c.05.066.114.122.194.166.08.045.18.067.3.067.206 0 .366-.076.482-.23.116-.156.174-.404.174-.745v-.194zm2.525 1.648c-.3 0-.53-.085-.684-.256-.153-.17-.23-.43-.23-.78V75.61h-.346c-.09 0-.133-.045-.133-.134v-.26c0-.087.045-.132.134-.132h.345v-.512l.032-.09.1-.043.532-.2.1.015.033.116v.71h.418c.09 0 .133.046.133.135v.26c0 .088-.044.132-.133.132h-.418v1.913c0 .165.034.282.103.353.07.07.14.106.216.106h.047c.09 0 .134.042.134.13v.294c0 .088-.044.133-.133.133h-.245zm3.54-.42c.04.064.04.12-.005.174l-.156.113-.266.106-.35.077c-.127.02-.262.03-.404.03-.306 0-.56-.05-.76-.146-.203-.096-.363-.227-.483-.39-.117-.165-.2-.353-.247-.566-.047-.212-.07-.436-.07-.67 0-.258.027-.498.08-.722.053-.224.14-.42.256-.585.116-.165.27-.297.454-.394.186-.097.414-.146.684-.146.2 0 .386.03.562.087.174.057.325.146.45.265.127.12.227.27.3.45.073.178.11.388.11.627 0 .13-.013.234-.038.32-.024.082-.064.15-.12.2-.054.05-.128.09-.222.11-.093.022-.208.033-.345.033h-1.362c.013.14.036.27.07.388.033.118.083.22.15.307.065.086.15.154.248.202.1.05.224.072.37.072.13 0 .258-.017.386-.05l.398-.118.13-.02.043.033.14.214zm-.904-1.586c.104 0 .173-.012.21-.037.034-.024.052-.087.052-.19 0-.096-.013-.19-.042-.28-.03-.092-.07-.172-.12-.24-.05-.068-.112-.124-.184-.166-.07-.042-.15-.063-.24-.063-.12 0-.223.027-.307.08-.086.053-.156.124-.21.212-.056.087-.1.19-.128.31-.03.115-.048.24-.057.373h1.028zm2.456 1.076c.088 0 .133.044.133.133v.666c0 .087-.045.132-.134.132h-.665c-.09 0-.132-.045-.132-.134v-.665c0-.087.044-.132.133-.132h.666zm2.923.93c-.09 0-.134-.044-.134-.133V73.89c0-.09.044-.134.133-.134h1.527c.27 0 .528.06.774.176.247.117.463.28.65.492.185.21.332.46.44.75.11.29.163.61.163.954 0 .346-.058.665-.173.957-.116.293-.272.546-.47.76-.197.216-.43.384-.694.506-.266.12-.55.185-.85.19h-1.368zm1.36-.598c.19 0 .368-.047.53-.14.16-.092.3-.222.42-.388.115-.166.206-.36.27-.585.065-.225.097-.47.097-.735 0-.257-.037-.493-.11-.708-.073-.215-.172-.4-.296-.552-.123-.153-.27-.27-.434-.355-.166-.084-.342-.126-.528-.126h-.605v3.588h.658zm5.47.18c.04.062.037.12-.007.172l-.156.113-.266.106-.35.077c-.126.02-.26.03-.403.03-.306 0-.56-.05-.76-.146-.203-.096-.363-.227-.483-.39-.12-.165-.203-.353-.25-.566-.046-.212-.07-.436-.07-.67 0-.258.028-.498.08-.722.054-.224.14-.42.257-.585.118-.165.27-.297.456-.394.186-.097.414-.146.684-.146.198 0 .385.03.56.087.176.057.327.146.453.265.126.12.226.27.3.45.072.178.108.388.108.627 0 .13-.01.234-.035.32-.024.082-.064.15-.12.2-.054.05-.13.09-.222.11-.093.022-.208.033-.345.033h-1.362c.013.14.036.27.07.388.033.118.083.22.15.307.065.086.15.154.248.202.1.05.222.072.37.072.127 0 .256-.017.384-.05l.398-.118.13-.02.043.033.14.214zm-.906-1.588c.102 0 .17-.012.207-.037.036-.024.054-.087.054-.19 0-.096-.014-.19-.043-.28-.03-.092-.07-.172-.12-.24-.05-.068-.11-.124-.183-.166-.07-.042-.15-.063-.24-.063-.12 0-.223.027-.307.08s-.156.124-.21.212c-.056.087-.1.19-.128.31-.03.115-.048.24-.057.373h1.028zm2.72 2.006c-.085 0-.147-.04-.187-.12l-1.19-3.216c-.04-.08-.012-.12.08-.12h.612c.087 0 .145.043.172.127l.725 2.53.724-2.53c.017-.084.075-.126.173-.126h.61l.087.03-.008.09-1.19 3.215c-.04.08-.1.12-.185.12h-.425zm4.77-.42c.04.064.038.12-.006.174l-.156.113-.265.106-.35.077c-.127.02-.262.03-.404.03-.305 0-.558-.05-.76-.146-.202-.096-.362-.227-.482-.39-.12-.165-.202-.353-.25-.566-.045-.212-.07-.436-.07-.67 0-.258.03-.498.08-.722.055-.224.14-.42.258-.585.117-.165.27-.297.455-.394.186-.097.414-.146.684-.146.2 0 .386.03.562.087.174.057.325.146.45.265.127.12.227.27.3.45.073.178.11.388.11.627 0 .13-.013.234-.038.32-.025.082-.065.15-.12.2-.055.05-.13.09-.223.11-.094.022-.21.033-.346.033H79.75c.013.14.036.27.07.388.033.118.083.22.15.307.065.086.15.154.248.202.1.05.222.072.37.072.127 0 .256-.017.384-.05l.398-.118.13-.02.043.033.14.214zm-.905-1.586c.1 0 .17-.012.206-.037.035-.024.053-.087.053-.19 0-.096-.015-.19-.044-.28-.03-.092-.07-.172-.12-.24-.05-.068-.112-.124-.184-.166-.07-.042-.15-.063-.24-.063-.12 0-.222.027-.306.08-.085.053-.155.124-.21.212-.055.087-.098.19-.127.31-.03.115-.05.24-.058.373h1.028zm2.57 2.006c-.3 0-.53-.085-.683-.256-.155-.17-.233-.43-.233-.78v-3.747c0-.088.044-.133.133-.133h.53c.09 0 .134.044.134.133v3.7c0 .187.02.32.06.403.04.082.083.123.127.123h.046c.088 0 .133.045.133.134v.293c0 .088-.045.133-.133.133h-.112zm2.127.08c-.32 0-.583-.048-.79-.143-.21-.095-.373-.224-.493-.385-.12-.162-.204-.352-.252-.572-.048-.22-.072-.453-.072-.7 0-.25.024-.483.073-.702.05-.22.134-.412.253-.578.12-.166.283-.298.492-.395.208-.097.472-.146.79-.146.32 0 .583.05.792.145.208.097.372.228.492.392.118.164.202.356.25.578.05.22.074.454.074.697 0 .248-.024.482-.073.7-.048.22-.132.412-.25.576-.12.164-.285.294-.493.39-.208.094-.472.142-.79.142zm0-.598c.164 0 .3-.032.405-.096.107-.064.19-.15.25-.26.06-.108.1-.235.123-.38.022-.147.033-.304.033-.473 0-.162-.01-.32-.033-.467-.022-.148-.063-.278-.123-.39-.06-.11-.143-.197-.25-.26-.105-.065-.24-.097-.404-.097-.168 0-.305.03-.41.095-.103.064-.185.152-.245.262-.06.11-.1.24-.122.39-.02.148-.032.304-.032.467 0 .17.01.327.033.473.023.146.064.274.124.382.06.107.143.194.247.26.106.062.24.094.41.094zm2.34 1.98c-.09 0-.134-.044-.134-.133v-4.65c0-.09.044-.135.133-.135h.332l.096.03.037.102.067.28h.013c.136-.174.304-.3.5-.38.198-.08.423-.12.676-.12.19 0 .37.03.54.09.17.06.32.16.45.3.128.14.23.323.305.554.077.23.115.516.115.857 0 .346-.04.635-.117.867-.078.232-.18.42-.31.562-.128.142-.28.242-.454.302s-.358.09-.548.09c-.283 0-.504-.05-.66-.146-.158-.096-.28-.21-.363-.338h-.012v1.734c0 .088-.044.133-.132.133h-.532zm1.587-1.94c.115 0 .218-.016.31-.05s.167-.097.23-.19.115-.22.15-.385c.036-.164.054-.376.054-.638 0-.253-.017-.46-.05-.62-.033-.16-.08-.286-.143-.38-.062-.092-.14-.156-.236-.19s-.204-.055-.323-.055c-.297 0-.524.097-.68.29-.16.192-.237.51-.237.953 0 .452.08.775.24.97.164.196.39.293.683.293zm2.937-.452c.09 0 .134.044.134.133v.666c0 .087-.044.132-.133.132h-.663c-.09 0-.133-.045-.133-.134v-.665c0-.087.044-.132.133-.132h.664zm5.595-1.19h-.585c-.09 0-.134-.043-.134-.132v-.333c0-.088.044-.133.133-.133h1.287c.088 0 .133.044.133.133V78.2l-.032.093-.196.103-.316.106-.388.083c-.14.022-.283.033-.43.033-.33 0-.64-.05-.926-.153-.286-.102-.534-.256-.744-.462-.21-.206-.375-.462-.495-.77s-.18-.67-.18-1.087c0-.416.06-.78.18-1.087.12-.31.285-.567.495-.77.21-.208.458-.36.744-.464.286-.102.595-.153.927-.153.144 0 .287.01.427.033l.388.083.316.105.197.103.037.065-.03.107-.106.245-.074.03-.1-.016-.438-.1c-.19-.04-.397-.06-.618-.06-.2 0-.39.033-.568.1-.18.066-.335.173-.468.322-.133.148-.238.34-.316.578-.078.238-.116.53-.116.875s.04.637.116.874c.078.235.184.43.32.576.134.15.29.256.468.322.177.066.365.1.565.1.18 0 .356-.014.525-.04v-1.56zm1.64 2.12c-.088 0-.132-.044-.132-.133v-3.19c0-.087.044-.132.133-.132h.332l.086.033.047.1.067.252h.013c.07-.11.144-.195.222-.252l.23-.126.228-.05.223-.01.096.013.02.087v.498l-.022.09-.064.027-.09-.007-.096-.01c-.42 0-.63.215-.63.645v2.033c0 .088-.046.133-.134.133h-.53zm3.49.08c-.32 0-.583-.048-.79-.143-.21-.095-.373-.224-.493-.385-.12-.162-.203-.352-.25-.572-.05-.22-.074-.453-.074-.7 0-.25.024-.483.073-.702.05-.22.133-.412.25-.578.12-.166.285-.298.494-.395.208-.097.472-.146.79-.146.32 0 .583.05.792.145.208.097.372.228.492.392s.203.356.252.578c.048.22.072.454.072.697 0 .248-.024.482-.073.7-.05.22-.135.412-.254.576-.12.164-.284.294-.492.39-.21.094-.473.142-.79.142zm0-.598c.164 0 .3-.032.405-.096.105-.064.188-.15.248-.26.06-.108.1-.235.123-.38.024-.147.035-.304.035-.473 0-.162-.01-.32-.033-.467-.02-.148-.062-.278-.122-.39-.06-.11-.143-.197-.25-.26-.105-.065-.24-.097-.404-.097-.168 0-.305.03-.41.095-.103.064-.185.152-.245.262-.06.11-.1.24-.123.39-.022.148-.033.304-.033.467 0 .17.01.327.033.473.022.146.063.274.123.382.06.107.14.194.245.26.104.062.24.094.41.094zm5.242.518c-.084 0-.146-.04-.186-.12l-.663-2.152-.664 2.152c-.04.08-.102.12-.186.12h-.425c-.083 0-.145-.04-.185-.12l-1.057-3.216c-.04-.08-.013-.12.08-.12h.61c.09 0 .147.043.174.127l.59 2.53.66-2.53c.017-.084.072-.126.165-.126h.477c.093 0 .148.042.166.126l.66 2.53.59-2.53c.018-.085.076-.127.173-.127h.61l.087.03-.007.09-1.056 3.215c-.04.08-.102.12-.186.12h-.424z" fill="#222"/></svg>