<svg xmlns="http://www.w3.org/2000/svg" width="110" height="80" viewBox="0 0 110 80"><path fill="#45A6D8" d="M37.463 33.58s-16.85-8.81-17.593-9.162c-.742-.352-1.225-.267-1.535 0l-3.75 3.22 2.668 12.887s.928 5.026 1.33 5.816c.38.76 1.086 2.09 3.15.48 1.692-1.32 15.73-13.234 15.73-13.234zM26.188 44.55l12.156-10.168s1.082-.705.856.805c-.227 1.51-6.896 34.887-6.972 35.183-.038.202-.198.183-.252 0l-5.788-25.82zm-8.884 1.863L.29 37.505s-.393-.06-.252-.755C.203 35.94 7.362.156 7.362.156s.113-.352.252 0c.017.045 9.69 46.26 9.69 46.26z"/><path d="M47.86 46.156c-.682-.262-1.236-.622-1.66-1.08-.427-.458-.64-1.047-.64-1.767 0-.46.092-.87.274-1.24.183-.368.428-.676.736-.93.31-.25.668-.445 1.08-.58.41-.135.85-.203 1.318-.203.31 0 .62.026.933.077.32.05.61.114.87.19.27.073.5.15.7.222.197.074.328.14.394.195l.077.126c.005.05-.017.128-.063.24l-.223.59c-.02.056-.066.08-.14.07l-.225-.042-.393-.098-.562-.106-.644-.09c-.224-.03-.434-.04-.63-.04-.375 0-.683.05-.926.14-.244.096-.436.215-.576.36-.14.144-.235.3-.287.47-.05.17-.076.326-.076.476 0 .252.08.488.243.708.163.22.484.424.96.61l1.348.505c.404.15.757.332 1.06.552.305.22.557.463.758.73.2.266.35.55.45.848.096.3.145.605.145.914 0 .43-.09.816-.267 1.157-.177.344-.425.636-.742.88-.32.24-.7.43-1.15.56-.45.13-.94.192-1.473.192-.3 0-.605-.022-.914-.07-.31-.046-.6-.104-.877-.174-.277-.07-.518-.144-.723-.224-.208-.08-.35-.15-.437-.217l-.077-.14c-.005-.05.016-.123.063-.226l.222-.59c.02-.055.065-.08.14-.07l.224.043.407.098c.18.04.38.076.605.11l.687.09c.234.03.453.043.66.043.617 0 1.107-.12 1.472-.356s.546-.554.546-.947c0-.337-.13-.63-.385-.884-.257-.252-.563-.45-.92-.59l-1.36-.53zm7.715 4.474c-.187 0-.28-.093-.28-.28v-8.557h-2.062c-.187 0-.28-.093-.28-.28v-.7c0-.188.093-.282.28-.282h5.89c.188 0 .282.1.282.29v.7c0 .187-.094.28-.28.28H57.06v8.556c0 .188-.094.28-.28.28h-1.207zm10.926 0c-.18 0-.31-.088-.37-.267l-.87-2.216h-3.99l-.87 2.216c-.065.178-.192.267-.38.267h-.91c-.085 0-.146-.02-.183-.063-.037-.042-.032-.105.014-.19l3.83-9.593c.07-.168.2-.252.4-.252h.617c.188 0 .32.084.394.252l3.83 9.594c.083.168.027.252-.17.252H66.5zm-2.96-7.293l-.28-1.053-.26 1.053-1.26 3.632h3.057l-1.25-3.64zm10.41 7.293c-.19 0-.32-.08-.42-.238l-1.78-2.833h-1.09v2.79c0 .18-.093.28-.28.28h-1.21c-.187 0-.28-.1-.28-.28v-9.54c0-.19.093-.28.28-.28h2.665c.534 0 1.02.09 1.46.27.44.18.818.43 1.136.75.318.32.566.69.743 1.12.178.43.267.89.267 1.374 0 .693-.18 1.32-.538 1.88-.356.56-.842.986-1.46 1.275l2.16 3.2c.058.074.08.13.07.17-.008.035-.07.054-.18.054H73.95zm-2.4-4.334c.7 0 1.22-.186 1.58-.557.36-.38.54-.94.54-1.69s-.18-1.32-.54-1.69c-.36-.37-.88-.56-1.58-.57h-.89v4.5h.898zm7.1 4.334c-.183 0-.28-.093-.28-.28v-8.557h-2.06c-.184 0-.28-.093-.28-.28v-.7c0-.188.096-.282.28-.282h5.89c.19 0 .285.1.285.29v.7c0 .187-.095.28-.28.28H80.14v8.556c0 .188-.095.28-.28.28h-1.21zm10.84-9.82c0-.186.098-.28.28-.28h.79c.188 0 .28.094.28.28v6.23c0 .54-.092 1.042-.28 1.5-.186.458-.45.856-.784 1.192-.336.337-.736.6-1.2.786-.46.187-.97.28-1.52.28-.533 0-1.03-.096-1.487-.287-.46-.19-.854-.45-1.186-.79-.33-.33-.59-.73-.78-1.19-.185-.46-.28-.95-.28-1.483V40.82c0-.188.095-.28.28-.28h1.208c.188 0 .28.092.28.28v5.834c0 .394.044.765.128 1.116.086.35.213.656.38.92s.377.47.625.622c.247.155.534.23.86.23.393 0 .738-.073 1.038-.223.3-.15.55-.358.75-.62s.356-.57.464-.92c.11-.35.16-.727.16-1.13v-5.84zm3.03 9.82c-.183 0-.28-.093-.28-.28v-9.54c0-.186.097-.28.28-.28h2.67c.532 0 1.02.09 1.46.273.437.183.816.433 1.134.75.318.32.566.693.743 1.123.18.43.27.888.27 1.374 0 .477-.09.928-.268 1.354-.178.425-.425.797-.743 1.115-.318.31-.7.57-1.143.75-.446.186-.93.28-1.454.28h-1.18v2.79c0 .19-.095.28-.28.28h-1.21zm2.39-4.334c.69 0 1.216-.186 1.577-.557.36-.38.54-.94.54-1.69s-.18-1.32-.54-1.69c-.36-.37-.884-.56-1.576-.57h-.9v4.5h.9zM45.917 67.46c-.19 0-.28-.092-.28-.28v-9.537c0-.187.09-.28.28-.28h3.22c.57 0 1.115.123 1.634.37.52.25.975.595 1.368 1.04.393.443.703.972.933 1.584.23.612.344 1.283.344 2.013s-.122 1.402-.365 2.02c-.243.617-.573 1.153-.99 1.606-.415.454-.904.81-1.465 1.066-.56.258-1.16.39-1.795.4h-2.89zm2.87-1.262c.4 0 .772-.098 1.114-.294.342-.196.636-.47.884-.82s.44-.763.575-1.236c.14-.472.21-.99.21-1.55 0-.542-.076-1.04-.23-1.494-.155-.453-.363-.84-.625-1.164-.262-.323-.57-.573-.92-.75s-.72-.267-1.113-.267H47.4v7.574h1.39zm6.17 1.263c-.187 0-.28-.09-.28-.28v-9.53c0-.186.093-.28.28-.28h4.95c.18 0 .28.094.28.28v.7c0 .19-.1.283-.28.283h-3.47v3.1H59.2c.187 0 .28.093.28.28v.7c0 .19-.093.28-.28.28h-2.76v3.21h3.464c.186 0 .28.094.28.28v.7c0 .19-.094.283-.28.283h-4.952zm6.774 0c-.187 0-.28-.09-.28-.28v-9.53c0-.186.093-.28.28-.28h2.665c.533 0 1.02.09 1.46.274.438.18.817.43 1.135.75.318.318.566.69.743 1.12.178.43.267.89.267 1.375 0 .476-.09.927-.267 1.353-.178.424-.425.796-.743 1.114-.318.32-.7.57-1.143.758-.45.19-.93.28-1.46.28h-1.17v2.794c0 .187-.096.28-.283.28H61.73zm2.385-4.33c.692 0 1.218-.182 1.578-.553.36-.37.54-.933.54-1.686s-.18-1.315-.54-1.686c-.36-.37-.886-.56-1.578-.57h-.898v4.5h.89zm9.958 4.5c-.7 0-1.354-.102-1.957-.32-.603-.213-1.127-.54-1.57-.972-.446-.435-.794-.977-1.046-1.627s-.38-1.415-.38-2.293c0-.88.127-1.643.38-2.293.252-.65.6-1.193 1.045-1.63.444-.433.967-.76 1.57-.972.604-.213 1.256-.32 1.958-.32.7 0 1.353.106 1.957.322.603.216 1.127.54 1.57.975.445.436.793.98 1.046 1.63.252.65.38 1.412.38 2.29 0 .88-.127 1.643-.38 2.293-.252.65-.6 1.19-1.045 1.627-.444.436-.968.76-1.57.975-.605.216-1.256.324-1.958.324zm0-1.33c.42 0 .818-.065 1.192-.2s.703-.36.99-.668c.284-.31.51-.71.672-1.206.16-.494.24-1.097.24-1.81 0-.71-.08-1.312-.248-1.807-.164-.496-.386-.9-.667-1.207-.28-.31-.61-.53-.99-.667-.378-.137-.778-.205-1.198-.205-.42 0-.82.07-1.2.204s-.708.358-.99.667c-.28.31-.502.71-.665 1.207-.165.495-.246 1.1-.246 1.81s.08 1.313.244 1.808c.164.497.39.9.674 1.207.286.31.615.53.99.667s.77.204 1.19.204zm7.77 1.167c-.187 0-.28-.09-.28-.28V58.63h-2.062c-.187 0-.28-.094-.28-.28v-.703c0-.187.093-.28.28-.28h5.89c.188 0 .282.093.282.28v.7c0 .19-.094.282-.28.282H83.33v8.55c0 .19-.094.28-.28.28h-1.207zm-32.267 10.62l.03.134-.037.078-.19.103-.314.106-.39.085c-.14.02-.28.033-.427.033-.333 0-.64-.05-.928-.152-.286-.1-.534-.255-.744-.46-.21-.207-.373-.463-.493-.77s-.18-.67-.18-1.088c0-.414.06-.78.18-1.085.12-.31.285-.565.495-.77.21-.206.46-.36.745-.462.285-.1.594-.152.926-.152.146 0 .29.01.43.034l.387.084.316.107.196.102.037.064-.03.108-.106.28-.072.03-.1-.016-.44-.1c-.19-.04-.395-.06-.616-.06-.2 0-.39.033-.57.097-.18.062-.334.167-.47.314-.13.144-.235.335-.313.57-.078.234-.116.52-.116.856s.04.622.118.857c.08.237.185.427.32.574.135.146.29.25.47.316.176.063.364.095.564.095.22 0 .43-.02.62-.06l.44-.1.095-.017.075.03.105.25zm.764.453c-.09 0-.133-.045-.133-.134v-3.19c0-.087.04-.132.13-.132h.33l.083.033.046.1.066.252h.012c.07-.11.143-.2.22-.26l.23-.125.23-.05.222-.01.096.013.022.087v.5l-.024.09-.063.027-.09-.007-.095-.01c-.42 0-.63.214-.63.644v2.033c0 .088-.046.133-.134.133h-.53zm4.618-.42c.04.063.038.12-.006.173l-.156.113-.266.106-.35.077c-.127.02-.262.03-.404.03-.306 0-.56-.05-.76-.15-.203-.1-.363-.23-.483-.39s-.203-.356-.25-.57c-.046-.21-.07-.435-.07-.67 0-.257.028-.497.08-.72.054-.224.14-.42.257-.585.117-.167.27-.3.455-.396.186-.097.414-.146.684-.146.2 0 .39.03.57.086.175.06.326.15.45.268.127.12.227.27.3.45.07.18.11.39.11.627 0 .13-.013.235-.038.32-.024.083-.064.15-.12.2-.054.052-.13.09-.222.11-.093.023-.208.034-.345.034H53.03c.013.14.036.27.07.39.033.114.083.22.15.303.065.086.15.154.248.202.1.05.222.073.37.073.127 0 .256-.017.384-.05l.396-.118.13-.02.043.035.14.214zm-.905-1.587c.102 0 .17-.012.207-.037.035-.024.053-.087.053-.19 0-.096-.014-.19-.043-.28-.03-.092-.07-.172-.12-.24-.05-.068-.112-.124-.184-.166-.07-.043-.15-.064-.24-.064-.12 0-.223.027-.307.08-.08.053-.15.124-.21.212-.05.088-.09.192-.12.31-.03.116-.05.24-.056.374h1.028zm4.007 2.006l-.096-.03-.037-.11-.07-.273h-.01c-.09.16-.22.28-.38.362-.16.08-.358.122-.58.122-.17 0-.33-.024-.48-.073-.15-.05-.284-.124-.4-.223-.114-.1-.205-.223-.27-.373-.066-.15-.1-.328-.1-.532 0-.212.037-.39.11-.528.073-.14.173-.25.3-.332.125-.082.272-.14.44-.173.17-.033.35-.05.54-.05h.684l-.05-.24c-.025-.087-.064-.17-.117-.25-.053-.08-.125-.148-.216-.204-.09-.058-.204-.086-.34-.086-.107 0-.22.017-.343.048l-.405.12-.126.02-.05-.03-.14-.215c-.04-.062-.038-.12.006-.173l.16-.11.265-.107.34-.077c.126-.02.25-.03.387-.03.287 0 .524.047.71.142.186.095.333.224.442.39.11.162.183.35.225.563.043.214.064.44.064.68v1.636c0 .088-.044.133-.133.133h-.335zm-.332-1.65h-.7c-.18 0-.322.04-.428.13-.107.09-.16.212-.16.372l.033.216.107.216c.05.065.114.12.194.165.08.045.18.067.3.067.206 0 .366-.078.482-.23.116-.158.174-.406.174-.747v-.193zm2.525 1.65c-.3 0-.53-.09-.684-.26-.15-.17-.23-.43-.23-.78v-1.89H59c-.09 0-.133-.048-.133-.137v-.26c0-.087.045-.132.134-.132h.346v-.51l.033-.09.1-.043.53-.2.1.012.033.115v.71h.42c.09 0 .132.045.132.134v.26c0 .087-.044.13-.133.13h-.42v1.914c0 .164.036.28.105.352.07.07.14.105.217.105h.047c.09 0 .134.04.134.13v.294c0 .09-.043.134-.132.134h-.244zm3.54-.42c.04.06.04.12-.005.17l-.156.11-.266.107-.35.077c-.127.02-.262.03-.404.03-.306 0-.56-.05-.76-.147-.203-.094-.363-.225-.483-.39-.11-.163-.2-.35-.24-.564-.048-.212-.07-.436-.07-.67 0-.258.026-.498.08-.722.052-.223.14-.42.255-.584.117-.167.27-.3.455-.396.185-.096.413-.145.683-.145.2 0 .386.03.56.086.176.06.327.148.45.267.13.12.23.27.3.45.075.18.11.39.11.627 0 .13-.01.233-.036.32-.024.08-.064.15-.12.2-.054.05-.128.09-.222.11-.092.02-.207.032-.344.032h-1.36c.013.14.036.27.07.386.033.12.083.22.15.308.065.086.15.154.248.202.1.05.225.07.37.07.13 0 .26-.016.387-.05l.398-.117.13-.02.044.03.14.215zm-.904-1.59c.11 0 .18-.01.21-.04.04-.023.058-.086.058-.19 0-.095-.013-.19-.042-.28-.03-.09-.07-.17-.12-.24-.05-.067-.11-.123-.183-.165-.07-.043-.15-.064-.24-.064-.12 0-.223.028-.307.08-.086.054-.156.125-.21.213-.056.086-.1.19-.128.31-.03.114-.048.24-.057.372h1.03zm2.46 1.074c.09 0 .135.043.135.132v.665c0 .088-.044.133-.133.133h-.665c-.09 0-.13-.045-.13-.134v-.665c0-.087.043-.13.132-.13h.665zm2.925.93c-.09 0-.133-.045-.133-.134v-4.51c0-.09.044-.134.133-.134H69.8c.27 0 .527.06.773.176.247.117.463.28.65.492.185.21.332.46.44.75.11.29.163.61.163.954 0 .346-.058.665-.173.957-.116.293-.272.546-.47.76-.197.216-.43.384-.694.506-.268.12-.55.19-.85.19h-1.37zm1.36-.6c.19 0 .37-.046.53-.14.16-.09.3-.22.42-.387.116-.166.207-.36.27-.585.066-.225.098-.47.098-.735 0-.255-.036-.49-.11-.706-.072-.214-.17-.4-.295-.55-.122-.153-.27-.27-.433-.355-.166-.084-.342-.126-.53-.126h-.604v3.587h.66zm5.47.18c.04.063.038.12-.006.173l-.157.113-.265.107-.35.076c-.125.02-.26.03-.402.03-.306 0-.56-.05-.76-.147-.203-.097-.363-.228-.483-.39-.12-.166-.204-.354-.25-.567-.047-.214-.07-.438-.07-.67 0-.26.027-.5.08-.724.053-.223.14-.42.256-.584.117-.165.27-.297.455-.394.186-.098.414-.147.684-.147.197 0 .384.03.56.088.175.057.326.146.452.265.125.12.225.27.3.45.07.176.107.386.107.625 0 .13-.01.233-.036.32-.023.08-.063.15-.12.2-.053.05-.13.09-.22.11-.094.02-.21.032-.346.032h-1.36c.012.14.035.27.07.388.032.118.082.22.15.307.064.086.15.154.247.202.1.05.223.07.37.07.128 0 .257-.017.385-.05l.4-.118.13-.02.042.032.14.215zm-.905-1.587c.1 0 .17-.01.206-.037.037-.023.055-.086.055-.19 0-.095-.013-.19-.042-.28-.03-.09-.07-.17-.12-.24-.05-.067-.11-.123-.183-.165-.07-.042-.15-.063-.24-.063-.12 0-.223.027-.307.08s-.156.124-.21.212c-.056.086-.1.19-.128.31-.03.114-.05.24-.058.372h1.03zm2.72 2.006c-.086 0-.148-.04-.188-.12L75.54 75.2c-.04-.08-.012-.12.08-.12h.612c.086 0 .144.043.17.127l.726 2.53.724-2.53c.017-.084.075-.126.173-.126h.61l.087.03-.008.09-1.19 3.22c-.04.08-.1.12-.185.12h-.43zm4.77-.42c.04.063.037.12-.007.173l-.156.112-.265.105-.35.075c-.127.02-.262.03-.404.03-.305 0-.558-.05-.76-.147-.202-.096-.362-.227-.482-.39-.12-.165-.2-.353-.25-.566-.044-.21-.07-.436-.07-.67 0-.258.03-.498.08-.72.056-.225.14-.42.26-.586.116-.165.27-.297.454-.394.186-.096.414-.145.684-.145.2 0 .387.03.563.087.174.057.325.146.45.265.127.12.227.27.3.45.073.178.11.388.11.627 0 .13-.013.232-.038.32-.027.08-.067.15-.12.2-.057.05-.13.09-.225.11-.094.02-.21.03-.346.03h-1.37c.012.14.035.27.07.39.032.117.082.22.15.306.064.088.15.156.247.204.1.05.222.07.37.07.127 0 .256-.015.384-.05l.4-.116.13-.02.042.033.14.213zm-.906-1.587c.1 0 .17-.013.205-.038.033-.025.05-.088.05-.19 0-.097-.013-.19-.042-.28-.03-.093-.07-.173-.12-.24-.05-.07-.113-.125-.185-.167-.07-.04-.15-.062-.24-.062-.12 0-.222.027-.306.08-.086.053-.156.124-.21.212-.056.086-.1.19-.128.31-.03.114-.05.24-.06.372h1.026zm2.57 2.005c-.3 0-.53-.085-.684-.256-.156-.17-.234-.43-.234-.78v-3.75c0-.088.044-.133.133-.133h.53c.09 0 .13.044.13.133v3.7c0 .186.02.32.06.402.04.08.084.12.128.12h.044c.088 0 .133.046.133.135v.295c0 .086-.045.13-.133.13h-.112zm2.126.08c-.32 0-.584-.05-.79-.143-.21-.094-.374-.223-.494-.384-.12-.16-.204-.35-.252-.57-.046-.22-.07-.454-.07-.7 0-.25.024-.484.073-.703.05-.22.134-.41.253-.577.12-.167.282-.3.49-.396.21-.098.473-.147.79-.147.32 0 .584.05.793.145.207.095.37.226.49.39s.203.356.25.58c.05.22.075.452.075.695 0 .248-.024.482-.073.7-.048.22-.132.412-.25.576-.12.164-.285.294-.493.39-.21.094-.474.142-.79.142zm0-.6c.163 0 .3-.03.404-.094.11-.062.19-.15.25-.26.06-.106.1-.233.125-.38.02-.145.03-.302.03-.47 0-.163-.01-.32-.03-.468-.024-.148-.065-.278-.125-.39-.06-.11-.142-.197-.25-.26-.104-.065-.24-.097-.403-.097-.17 0-.306.03-.41.096-.104.065-.186.15-.246.26-.06.11-.1.24-.122.39-.02.15-.032.307-.032.47 0 .17.01.327.033.473.024.147.065.275.125.383.06.107.144.194.248.26.105.062.24.094.41.094zm2.34 1.98c-.09 0-.135-.042-.135-.13v-4.65c0-.09.044-.136.133-.136h.332l.095.03.037.1.067.28h.01c.135-.174.303-.3.5-.38.2-.08.422-.12.675-.12.19 0 .37.03.54.09.17.06.32.16.45.3.128.14.23.323.305.554.08.23.118.514.118.855 0 .347-.04.636-.118.868-.08.233-.18.42-.31.563-.13.142-.28.242-.455.302s-.358.09-.548.09c-.284 0-.505-.05-.66-.146-.16-.095-.28-.21-.364-.337h-.012v1.732c0 .087-.042.132-.13.132h-.532zm1.586-1.94c.115 0 .218-.014.31-.05s.167-.095.23-.19.115-.22.15-.383c.036-.163.054-.375.054-.637 0-.252-.018-.46-.05-.62-.034-.16-.08-.285-.144-.38-.062-.09-.14-.155-.236-.19s-.204-.054-.323-.054c-.297 0-.524.095-.68.29-.16.19-.237.51-.237.95 0 .453.08.776.24.97.164.197.39.294.683.294zm2.937-.45c.09 0 .134.044.134.133v.666c0 .086-.044.13-.133.13h-.66c-.09 0-.134-.044-.134-.133v-.664c0-.086.043-.13.132-.13h.663zm5.595-1.19h-.585c-.09 0-.134-.043-.134-.132v-.334c0-.09.04-.134.13-.134h1.286c.088 0 .133.045.133.134v2.25l-.034.094-.196.103-.314.107-.388.082c-.14.02-.283.032-.43.032-.33 0-.64-.05-.926-.155-.284-.102-.532-.256-.742-.462-.21-.206-.375-.462-.495-.77s-.18-.67-.18-1.087c0-.415.06-.78.18-1.086.12-.31.285-.57.495-.77.21-.21.458-.36.744-.467.29-.102.598-.153.93-.153.144 0 .287.01.427.035l.39.082.315.104.197.103.038.065-.03.11-.106.245-.073.03-.1-.016-.44-.1c-.19-.04-.396-.06-.62-.06-.2 0-.39.033-.565.1-.18.066-.337.173-.47.32-.133.148-.238.34-.316.578-.08.24-.117.53-.117.876s.04.64.116.876c.077.235.183.43.32.576.133.15.29.257.467.323.18.066.367.1.567.1.18 0 .357-.014.526-.04v-1.56zm1.64 2.12c-.088 0-.132-.044-.132-.133v-3.19c0-.086.044-.13.133-.13h.33l.085.032.047.1.07.25h.012c.07-.11.145-.195.223-.252l.23-.126.227-.05.224-.01.096.014.02.086v.5l-.022.09-.063.026-.09-.007-.095-.01c-.42 0-.63.215-.63.645V78.4c0 .088-.045.133-.133.133h-.53zm3.49.08c-.32 0-.583-.05-.79-.143-.21-.094-.373-.223-.493-.384-.12-.16-.203-.35-.25-.57-.05-.22-.074-.454-.074-.7 0-.25.027-.484.076-.703.05-.22.135-.41.25-.577.12-.167.287-.3.496-.396.208-.098.47-.147.79-.147.32 0 .583.05.79.145.21.095.374.226.494.39s.202.356.25.58c.05.22.073.452.073.695 0 .248-.025.482-.074.7-.05.22-.135.412-.254.576-.12.164-.286.294-.494.39-.21.094-.473.142-.79.142zm0-.6c.164 0 .3-.03.405-.094.105-.062.188-.15.248-.26.06-.106.1-.233.126-.38.026-.145.037-.302.037-.47 0-.163-.01-.32-.032-.468-.02-.148-.06-.278-.12-.39-.06-.11-.143-.197-.25-.26-.105-.065-.24-.097-.404-.097-.17 0-.306.03-.41.096-.104.065-.186.15-.246.26-.06.11-.1.24-.124.39-.022.15-.033.307-.033.47 0 .17.01.327.034.473.02.147.062.275.122.383.06.107.14.194.243.26.105.062.24.094.41.094zm5.242.52c-.085 0-.147-.04-.187-.12l-.66-2.152-.665 2.15c-.04.08-.102.12-.186.12h-.426c-.083 0-.145-.04-.185-.12l-1.054-3.216c-.04-.08-.012-.12.08-.12h.61c.09 0 .148.043.175.127l.59 2.53.66-2.53c.017-.084.07-.126.165-.126h.477c.094 0 .15.04.167.124l.66 2.53.59-2.53c.017-.086.075-.128.172-.128h.61l.086.03-.007.09-1.057 3.215c-.04.08-.102.12-.186.12h-.424z" fill="#222"/></svg>