<svg xmlns="http://www.w3.org/2000/svg" width="163.657" height="96.005" viewBox="0 0 163.657 96.005"><path d="M48.849 95.666c-.329.164-.987.329-1.829.329-1.953 0-3.422-1.233-3.422-3.504 0-2.168 1.469-3.638 3.617-3.638.863 0 1.408.185 1.644.308l-.216.73c-.339-.164-.822-.288-1.398-.288-1.624 0-2.703 1.038-2.703 2.857 0 1.696.976 2.785 2.662 2.785.545 0 1.1-.113 1.459-.288l.186.709zm8.879-3.309c0 2.384-1.449 3.648-3.217 3.648-1.829 0-3.114-1.418-3.114-3.515 0-2.199 1.367-3.638 3.217-3.638 1.891.001 3.114 1.45 3.114 3.505zm-5.375.113c0 1.48.802 2.805 2.209 2.805 1.418 0 2.22-1.305 2.22-2.877 0-1.377-.719-2.816-2.209-2.816-1.48.001-2.22 1.367-2.22 2.888zm14.428.381c-.051-.966-.113-2.127-.103-2.991h-.031c-.236.812-.524 1.675-.874 2.631l-1.223 3.36h-.678l-1.12-3.299c-.329-.976-.606-1.87-.802-2.692h-.02c-.021.863-.072 2.024-.134 3.062l-.185 2.97h-.853l.483-6.926h1.141l1.182 3.35c.288.853.524 1.613.699 2.333h.031c.175-.699.421-1.459.73-2.333l1.233-3.35h1.141l.432 6.926h-.874l-.175-3.041zm10.317 0c-.051-.966-.113-2.127-.103-2.991h-.031c-.236.812-.524 1.675-.874 2.631l-1.223 3.36h-.677l-1.12-3.299c-.329-.976-.606-1.87-.802-2.692h-.021c-.021.863-.072 2.024-.134 3.062l-.185 2.97h-.853l.483-6.926h1.142l1.182 3.35c.288.853.524 1.613.699 2.333h.031c.175-.699.421-1.459.73-2.333l1.233-3.35h1.141l.432 6.926h-.874l-.176-3.041zm5.374-3.885v4.1c0 1.552.689 2.209 1.613 2.209 1.028 0 1.685-.678 1.685-2.209v-4.1h.904v4.039c0 2.127-1.12 3.001-2.621 3.001-1.418 0-2.487-.812-2.487-2.96v-4.08h.906zm7.81 6.926v-6.926h.976l2.22 3.504c.514.812.915 1.541 1.244 2.25l.021-.01c-.082-.925-.103-1.767-.103-2.847v-2.898h.843v6.926h-.904l-2.199-3.514c-.483-.771-.945-1.562-1.295-2.312l-.031.01c.051.873.072 1.706.072 2.857v2.96h-.844zm9.711-6.926v6.926h-.894v-6.926h.894zm4.932.76h-2.107v-.76h5.128v.76h-2.117v6.166h-.904v-6.166zm7.677 6.166v-2.939l-2.189-3.987h1.017l.976 1.911c.267.524.473.945.689 1.428h.021c.195-.452.432-.904.699-1.428l.997-1.911h1.017l-2.322 3.977v2.949h-.905z" fill="#0894D8"/><path d="M1.809 68.691v8.201c0 3.103 1.377 4.419 3.227 4.419 2.055 0 3.371-1.356 3.371-4.419v-8.201h1.809v8.077c0 4.254-2.24 6.001-5.241 6.001-2.838 0-4.975-1.623-4.975-5.919v-8.159h1.809zm14.674 12.804l7.687-11.242v-.062h-7.03v-1.5h9.351v1.089l-7.646 11.201v.062h7.748v1.5h-10.11v-1.048zm18.209-12.804v5.796h6.7v-5.796h1.809v13.853h-1.809v-6.495h-6.7v6.495h-1.788v-13.853h1.788zm17.51 0v5.796h6.7v-5.796h1.809v13.853h-1.809v-6.495h-6.7v6.495h-1.788v-13.853h1.788zm27.561 6.782c0 4.768-2.898 7.296-6.433 7.296-3.658 0-6.227-2.836-6.227-7.029 0-4.398 2.733-7.276 6.433-7.276 3.781.001 6.227 2.898 6.227 7.009zm-10.749.226c0 2.96 1.603 5.611 4.419 5.611 2.836 0 4.439-2.61 4.439-5.755 0-2.754-1.439-5.631-4.419-5.631-2.959 0-4.439 2.733-4.439 5.775zm17.182-6.823c.904-.185 2.199-.288 3.432-.288 1.911 0 3.145.349 4.008 1.13.699.617 1.089 1.562 1.089 2.631 0 1.829-1.151 3.042-2.61 3.535v.062c1.069.37 1.706 1.357 2.035 2.795.452 1.932.781 3.268 1.069 3.802h-1.85c-.226-.391-.534-1.583-.925-3.309-.411-1.911-1.151-2.631-2.775-2.692h-1.685v6.001h-1.788v-13.667zm1.788 6.309h1.829c1.911 0 3.124-1.048 3.124-2.631 0-1.788-1.295-2.569-3.186-2.59-.863 0-1.48.082-1.767.164v5.057zm25.279.288c0 4.768-2.898 7.296-6.433 7.296-3.658 0-6.228-2.836-6.228-7.029 0-4.398 2.734-7.276 6.433-7.276 3.782.001 6.228 2.898 6.228 7.009zm-10.749.226c0 2.96 1.603 5.611 4.419 5.611 2.836 0 4.439-2.61 4.439-5.755 0-2.754-1.439-5.631-4.419-5.631-2.959 0-4.439 2.733-4.439 5.775zm17.182-6.823c1.089-.164 2.384-.288 3.802-.288 2.569 0 4.398.596 5.611 1.726 1.233 1.13 1.952 2.733 1.952 4.974 0 2.261-.699 4.111-1.994 5.385-1.295 1.295-3.432 1.994-6.125 1.994-1.274 0-2.343-.062-3.247-.164v-13.627zm1.788 12.249c.452.082 1.11.103 1.809.103 3.823 0 5.899-2.138 5.899-5.878.021-3.268-1.829-5.344-5.611-5.344-.925 0-1.624.082-2.096.185v10.934zm26.265-12.434v13.853h-1.788v-13.853h1.788zm9.865 1.521h-4.213v-1.521h10.256v1.521h-4.234v12.332h-1.809v-12.332z" fill="#00386D"/><g fill="#0894D8"><path d="M127.189 33.814v-.031h-.029l-6.65-7.193-.086.257-.171-.257-.354.39-.031-.004.004.034-3.231 3.554-3.527-3.327.01-.116-.146-.013-.024-.022-.022-.11-.088.006-9.675-9.127-.055.092-.073-.092-.383.386-.002-.001v.003l-3.761 3.793-.077-.006-.007.092-.234.237-.031-.008.003.035-4.932 4.974-.081.001-.016.097-3.604 3.635-8.196-9.791.014-.17-.168-.014-4.343-5.189-.183.301-.13.112-.202-.029.01.194-2.284 1.961-7.875-10.247-.064.576-.064-.062-23.143 28.111-4.346-4.09-.16.281-.225-.281-.314.385h-.071l.007.079-4.777 5.864-2.824 3.177.137.122-.12.147-.092-.04-.139.324-10.433 12.806.128.128 9.587-11.271-1.757 4.081.354.152 2.253-5.232.757-.89 3.057.122.015-.385-2.755-.11 6.703-7.881.283 3.302h.257l.32-3.731 3.904 3.333-.001.009-.172-.038-.968 3.382.573.17.76-3.421 6.582.849-.004.019-5.055 2.987.196.332 4.747-2.805-1.388 6.36-3.457-1.152-.128.257 3.468 1.298v2.684l.128-.128.315-2.39.007.003.013-.092 3.696.924-2.273 4.029.068.038-.028.056 3.85 2.333-2.694 3.062.011.118-.011.011.012.007.501 5.516h.257l-.237-5.209 1.65.97.257-.128-1.925-1.246-.002-.039h-.058l-.028-.018 2.678-2.824.201-.15-3.931-2.725 2.016-3.573 3.585.618.065-.38-3.45-.595.373-.662-.336-.189-.107.189-1.389-6.777 4.233 4.884.257-.257-4.119-5.138h.142l6.418 2.954v-.257l-4.986-2.698h4.729v-.256l-6.013-.437-.728-.394 4.607-7.152 2.262 5.543.257-.128-2.229-5.865.095-.147 3.804.746.128-.257-3.717-.824.181-.282 5.462-.95-.128-.257-4.974.649 2.599-4.035.32.047.257-.385h3.211v-.257l-3.172-.319 2.295-2.639-.088-.076.694-2.579.79 2.4h.257l-.771-2.826-.079.081-.019-.211 2.411-1.54-.128-.128-2.328 1.164-.27-2.967.25-.295 2.795-.248-.447 2.346h.257l.574-2.066 3.917 4.73.012.354 3.473-.116-1.424 2.492.128.128 1.64-2.077.801 5.032.128-.128-.511-4.888 2.296 1.682.013.251.133-.066-.004.195 3.886.054-.762 3.482-.021-.002-.021.192-.021.192 4.524.489-.907 3.173.044.088-.044.04.08.032.048.097.029-.066 5.535 2.191-.94 3.527.311-.068 1.05-3.151.082.039.078.091.04-.033 3.716 1.797-.14.168.356.214-.87 6.337.313-.074 1.389-5.165 2.653 5.881h-.116v.099l-3.82-.674-.067.38 3.887.686v4.648l.193-.064-.193.193 4.128 2.342 2.77 4.818.168-.095-2.569-5.138-.257.257.097-.167-3.941-2.397.376-4.887h-.227l-2.095-5.695 3.478 2.74.128-.257-3.982-3.597-.023.03-.019-.051 4.923-1.007-.128-.257-5.284.705-.124-.057 4.248-5.4 1.674 2.826.161-.234-1.483-3.04 3.771-4.795 5.513 5.001.192-.211 3.81-.054-.339 3.96.384.033.323-3.773 3.257 2.962-.047.024 1.636 4.658-.095.095 5.066 5.082-.057.057 2.441 4.239.128-.257-2.184-4.367-.053.053-4.828-5.32-.092.092-1.296-4.103.103-.116-.111-.105 3.058-2.772.393 3.534.257-.128.106-3.599 5.681 5.912h-3.089v.257l3.691.369 12.237 12.733.128-.128-12.201-13.202zm-72.474-9.844l.659 4.672-5.019.471 4.36-5.143zm-11.028 13.006l6-7.076.955 7.041-.139-.075-.197.591-.139-.01-.178-.067-.012.053-6.29-.457zm8.802 9.147l-3.788-.947 1.885-6.034 1.903 6.981zm4.006-17.651l-.34.044.083.332-.188.275-.118-.026-.026.141-.266.177.079.193-4.719 6.921-.826-6.893 5.255-.601.023.16.378-.074-.018-.13.243-.028-.057-.381-.241.023-.697-4.924 4.274.625-2.839 4.166zm3.128-4.588l-.03.043-4.33-.604 3.325-3.921 1.034 4.338v.144zm2.511-3.253l.083.022-2.29 2.634-1.014-4.182-.086.016.098-.116 3.956-1.145-.747 2.771zm-2.758-2.158l3.337-3.936.263 2.893-3.6 1.043zm6.803-5.265l-2.51.202 2.596-3.062-.086 2.86zm.509-3.359l.068-.08 3.47 4.198-3.538-.59v-3.528zm3.725 8.326l-3.479-4.365 3.479.58v3.785zm.229.379l.028-.057h.128v-3.837l3.128 3.784-3.284.11zm4.073.203l2.04-1.508.17 3.306-2.21-1.798zm2.541 2.001l.274-3.384 3.174 3.671-3.448-.287zm3.3 4.266l.98-3.017 2.978 3.445-3.958-.428zm3.472 3.976l1.206-2.715 3.947 4.565-5.153-1.85zm10.099 4.223l-3.92-1.781-.042-.051 3.296-3.174.779 4.87-.113.136zm.392-.472l-.519-4.665 4.684-.356-4.165 5.021zm-.159-5.4l4.273-4.115.406 4.063-4.679.052zm4.936-.358l-.164-4.237.3-.289 3.39.275-3.526 4.251zm.506-4.883l2.913-2.806.175 3.056-3.088-.25zm3.495-3.146l4.387 3.99-4.387-.711v-3.279zm.388 3.864l4.274.509.416 3.745-4.69-4.254zm5.068 4.454l-.05-3.402 3.465 3.151-3.415.251zm-52.221 2.655l3.861 3.717.128-.128-3.717-3.861-.272.272zm-2.869 20.23l.359-.14-1.156-2.954-.359.14 1.156 2.954zM30.721 41.233c-.78 0-1.413.633-1.413 1.413s.633 1.413 1.413 1.413 1.413-.633 1.413-1.413-.632-1.413-1.413-1.413zm-10.661 13.745c-.355 0-.642.288-.642.642 0 .355.288.642.642.642.355 0 .642-.288.642-.642 0-.355-.287-.642-.642-.642zm98.137-21.452c-1.064 0-1.927.863-1.927 1.927s.863 1.927 1.927 1.927 1.927-.863 1.927-1.927-.863-1.927-1.927-1.927zm15.286 6.423c-.568 0-1.028.46-1.028 1.028 0 .568.46 1.028 1.028 1.028.568 0 1.028-.46 1.028-1.028 0-.568-.46-1.028-1.028-1.028zm5.78 6.422c-.355 0-.642.288-.642.642 0 .355.288.642.642.642.355 0 .642-.288.642-.642.001-.354-.287-.642-.642-.642zm-34.939 6.294c-.355 0-.642.288-.642.642 0 .355.288.642.642.642.355 0 .642-.288.642-.642.001-.354-.287-.642-.642-.642zm20.938-8.477c-.355 0-.642.288-.642.642 0 .355.288.642.642.642s.642-.288.642-.642c0-.355-.287-.642-.642-.642zm-31.984-4.753c-.568 0-1.028.46-1.028 1.028 0 .568.46 1.028 1.028 1.028.568 0 1.028-.46 1.028-1.028-.001-.568-.461-1.028-1.028-1.028zm29.8.128c-.568 0-1.028.46-1.028 1.028 0 .568.46 1.028 1.028 1.028.568 0 1.028-.46 1.028-1.028 0-.568-.46-1.028-1.028-1.028zm-47.784-20.809c0-.568-.46-1.028-1.028-1.028-.568 0-1.028.46-1.028 1.028 0 .568.46 1.028 1.028 1.028.568 0 1.028-.46 1.028-1.028zm-11.817 4.496c-.355 0-.642.288-.642.642s.288.642.642.642c.355 0 .642-.288.642-.642s-.288-.642-.642-.642zm-1.413 3.982c-.355 0-.642.288-.642.642 0 .355.288.642.642.642.355 0 .642-.288.642-.642 0-.355-.288-.642-.642-.642zm-1.67 5.652c-.355 0-.642.288-.642.642s.288.642.642.642c.355 0 .642-.288.642-.642s-.288-.642-.642-.642zm-2.055 7.835c-.355 0-.642.288-.642.642 0 .355.288.642.642.642.355 0 .642-.288.642-.642 0-.354-.288-.642-.642-.642zm-2.056 5.781c-.355 0-.642.288-.642.642 0 .355.288.642.642.642.355 0 .642-.288.642-.642.001-.355-.287-.642-.642-.642zm20.81-26.847c-.78 0-1.413.633-1.413 1.413s.633 1.413 1.413 1.413 1.413-.633 1.413-1.413-.633-1.413-1.413-1.413zm-38.408 16.827c-.568 0-1.028.46-1.028 1.028 0 .568.46 1.028 1.028 1.028.568 0 1.028-.46 1.028-1.028 0-.567-.46-1.028-1.028-1.028zm-4.56 5.01c-.461 0-.835.374-.835.835s.374.835.835.835c.461 0 .835-.374.835-.835s-.374-.835-.835-.835zm-5.844 6.294c-.355 0-.642.288-.642.642s.288.642.642.642c.355 0 .642-.288.642-.642s-.288-.642-.642-.642zm23.635 13.102c-.355 0-.642.288-.642.642s.288.642.642.642c.355 0 .642-.288.642-.642s-.287-.642-.642-.642zm-7.001-17.855c-.603 0-1.092.489-1.092 1.092s.489 1.092 1.092 1.092c.603 0 1.092-.489 1.092-1.092s-.489-1.092-1.092-1.092zm4.946-12.202c.78 0 1.413-.633 1.413-1.413s-.633-1.413-1.413-1.413-1.413.633-1.413 1.413.632 1.413 1.413 1.413zm20.937-17.855c-.78 0-1.413.633-1.413 1.413s.633 1.413 1.413 1.413 1.413-.633 1.413-1.413c0-.781-.632-1.413-1.413-1.413zm10.662 6.936c-.851 0-1.541.69-1.541 1.541s.69 1.541 1.541 1.541 1.541-.69 1.541-1.541-.69-1.541-1.541-1.541zm8.349 10.405c-.568 0-1.028.46-1.028 1.028 0 .568.46 1.028 1.028 1.028.568 0 1.028-.46 1.028-1.028 0-.568-.46-1.028-1.028-1.028zm3.918-1.285c.745 0 1.349-.604 1.349-1.349s-.604-1.349-1.349-1.349-1.349.604-1.349 1.349.604 1.349 1.349 1.349zm23.828 1.799c0-.568-.46-1.028-1.028-1.028-.568 0-1.028.46-1.028 1.028 0 .568.46 1.028 1.028 1.028.568-.001 1.028-.461 1.028-1.028zm-9.249-8.992c-.851 0-1.541.69-1.541 1.541s.69 1.541 1.541 1.541 1.541-.69 1.541-1.541-.689-1.541-1.541-1.541zm18.754 11.047c-.78 0-1.413.633-1.413 1.413s.633 1.413 1.413 1.413 1.413-.633 1.413-1.413c0-.781-.632-1.413-1.413-1.413zm-84.007 5.266c.568 0 1.028-.46 1.028-1.028 0-.568-.46-1.028-1.028-1.028-.568 0-1.028.46-1.028 1.028 0 .568.46 1.028 1.028 1.028zm20.359-21.965c-.958 0-1.734.776-1.734 1.734s.776 1.734 1.734 1.734 1.734-.776 1.734-1.734-.776-1.734-1.734-1.734zm34.233 28.773c-.568 0-1.028.46-1.028 1.028 0 .568.46 1.028 1.028 1.028.568 0 1.028-.46 1.028-1.028 0-.568-.461-1.028-1.028-1.028zm3.982 2.569c-.568 0-1.028.46-1.028 1.028 0 .568.46 1.028 1.028 1.028.568 0 1.028-.46 1.028-1.028 0-.568-.461-1.028-1.028-1.028zm-46.885-3.853c0 .568.46 1.028 1.028 1.028s1.028-.46 1.028-1.028c0-.568-.46-1.028-1.028-1.028s-1.028.46-1.028 1.028zm3.468-9.763c-.78 0-1.413.633-1.413 1.413s.633 1.413 1.413 1.413 1.413-.633 1.413-1.413-.633-1.413-1.413-1.413zm-3.982 18.112c-.568 0-1.028.46-1.028 1.028 0 .568.46 1.028 1.028 1.028.568 0 1.028-.46 1.028-1.028 0-.568-.46-1.028-1.028-1.028zm16.313-34.425c-.568 0-1.028.46-1.028 1.028 0 .568.46 1.028 1.028 1.028.568 0 1.028-.46 1.028-1.028 0-.568-.46-1.028-1.028-1.028zm13.295 10.405c-.603 0-1.092.489-1.092 1.092 0 .603.489 1.092 1.092 1.092.603 0 1.092-.489 1.092-1.092 0-.604-.489-1.092-1.092-1.092zm4.881 5.78c-.603 0-1.092.489-1.092 1.092s.489 1.092 1.092 1.092c.603 0 1.092-.489 1.092-1.092s-.489-1.092-1.092-1.092zm-33.847-8.735c.922 0 1.67-.748 1.67-1.67s-.748-1.67-1.67-1.67-1.67.748-1.67 1.67.748 1.67 1.67 1.67zm5.267 4.239c-.497 0-.899.403-.899.899 0 .497.403.899.899.899s.899-.403.899-.899-.403-.899-.899-.899zm-1.285 8.992c0-.497-.403-.899-.899-.899-.497 0-.899.403-.899.899s.403.899.899.899c.497 0 .899-.403.899-.899zm-8.606 7.129c0-.887-.748-1.606-1.67-1.606-.922 0-1.67.719-1.67 1.606s.748 1.606 1.67 1.606c.922 0 1.67-.719 1.67-1.606zm-1.927 1.991c-.355 0-.642.288-.642.642 0 .355.288.642.642.642.355 0 .642-.288.642-.642.001-.355-.287-.642-.642-.642zm-3.596-5.395c.355 0 .642-.288.642-.642 0-.355-.288-.642-.642-.642-.355 0-.642.288-.642.642-.001.354.287.642.642.642zm27.874-21.452c-.426 0-.771.345-.771.771s.345.771.771.771.771-.345.771-.771-.346-.771-.771-.771zm-21.066 34.554c-.568 0-1.028.46-1.028 1.028 0 .568.46 1.028 1.028 1.028.568 0 1.028-.46 1.028-1.028-.001-.568-.461-1.028-1.028-1.028zm1.926 1.541c-.355 0-.642.288-.642.642 0 .355.288.642.642.642.355 0 .642-.288.642-.642.001-.354-.287-.642-.642-.642zm-.257-6.551c0 .355.288.642.642.642.355 0 .642-.288.642-.642 0-.355-.288-.642-.642-.642-.354 0-.642.288-.642.642zm10.919-30.186c-.355 0-.642.288-.642.642 0 .355.288.642.642.642.355 0 .642-.288.642-.642 0-.354-.287-.642-.642-.642zm1.541-4.496c-.355 0-.642.288-.642.642 0 .355.288.642.642.642.355 0 .642-.288.642-.642.001-.354-.287-.642-.642-.642zm-3.532 4.753c-.532 0-.963.431-.963.963s.431.963.963.963.963-.431.963-.963-.431-.963-.963-.963zm12.909 3.468c-.355 0-.642.288-.642.642 0 .355.288.642.642.642s.642-.288.642-.642c.001-.354-.287-.642-.642-.642zm-8.606-11.56c-.78 0-1.413.633-1.413 1.413s.633 1.413 1.413 1.413 1.413-.633 1.413-1.413c0-.781-.633-1.413-1.413-1.413zm14.001 11.946c-.568 0-1.028.46-1.028 1.028 0 .568.46 1.028 1.028 1.028.568 0 1.028-.46 1.028-1.028 0-.568-.46-1.028-1.028-1.028zm4.817.642c-.674 0-1.22.546-1.22 1.22s.546 1.22 1.22 1.22c.674 0 1.22-.546 1.22-1.22s-.546-1.22-1.22-1.22zm14.836 6.166c0 .355.288.642.642.642.355 0 .642-.288.642-.642 0-.355-.288-.642-.642-.642-.354-.001-.642.287-.642.642zm.771 2.183c0-.355-.288-.642-.642-.642-.355 0-.642.288-.642.642 0 .355.288.642.642.642.355 0 .642-.287.642-.642zm-1.541 4.239c-.355 0-.642.288-.642.642s.288.642.642.642c.355 0 .642-.288.642-.642s-.288-.642-.642-.642zm-.321-13.359c.816 0 1.477-.661 1.477-1.477 0-.816-.661-1.477-1.477-1.477-.816 0-1.477.661-1.477 1.477-.001.816.661 1.477 1.477 1.477zm5.587-1.156c0-.78-.633-1.413-1.413-1.413s-1.413.633-1.413 1.413.633 1.413 1.413 1.413c.781 0 1.413-.633 1.413-1.413zm8.285 3.468c-.674 0-1.22.546-1.22 1.22s.546 1.22 1.22 1.22 1.22-.546 1.22-1.22-.546-1.22-1.22-1.22zm-4.238.129c-.674 0-1.22.546-1.22 1.22s.546 1.22 1.22 1.22 1.22-.546 1.22-1.22-.547-1.22-1.22-1.22zm3.853 3.982c-.674 0-1.22.546-1.22 1.22 0 .674.546 1.22 1.22 1.22s1.22-.546 1.22-1.22c0-.674-.546-1.22-1.22-1.22zm8.028.128c-.568 0-1.028.46-1.028 1.028 0 .568.46 1.028 1.028 1.028.568 0 1.028-.46 1.028-1.028 0-.568-.46-1.028-1.028-1.028zm2.891 2.698c-.461 0-.835.374-.835.835s.374.835.835.835.835-.374.835-.835-.374-.835-.835-.835zm-67.117 4.624c0-3.051-2.473-5.523-5.523-5.523s-5.523 2.473-5.523 5.523 2.473 5.523 5.523 5.523 5.523-2.473 5.523-5.523zm42.004-3.982c0-2.057-1.668-3.725-3.725-3.725s-3.725 1.668-3.725 3.725 1.668 3.725 3.725 3.725 3.725-1.668 3.725-3.725zm.835-3.597c1.383 0 2.505-1.121 2.505-2.505 0-1.383-1.121-2.505-2.505-2.505s-2.505 1.121-2.505 2.505 1.122 2.505 2.505 2.505zm-21.965-15.414c-1.029 0-1.863.834-1.863 1.863s.834 1.863 1.863 1.863 1.863-.834 1.863-1.863c-.001-1.029-.835-1.863-1.863-1.863zm-17.47 6.808c-1.241 0-2.248 1.006-2.248 2.248 0 1.241 1.006 2.248 2.248 2.248 1.242 0 2.248-1.006 2.248-2.248 0-1.242-1.006-2.248-2.248-2.248zm-3.853 11.175c1.809 0 3.276-1.467 3.276-3.276s-1.466-3.276-3.276-3.276-3.276 1.466-3.276 3.276 1.467 3.276 3.276 3.276zm-3.661 17.727c0-.851-.69-1.541-1.541-1.541s-1.541.69-1.541 1.541.69 1.541 1.541 1.541 1.541-.69 1.541-1.541zm45.6-11.047c-.993 0-1.798.805-1.798 1.798s.805 1.798 1.798 1.798 1.798-.805 1.798-1.798c.001-.993-.804-1.798-1.798-1.798zm-58.959-7.964c-.993 0-1.798.805-1.798 1.798s.805 1.798 1.798 1.798 1.798-.805 1.798-1.798-.805-1.798-1.798-1.798zm-3.854 4.753c-.993 0-1.798.805-1.798 1.798s.805 1.798 1.798 1.798 1.798-.805 1.798-1.798c.001-.993-.805-1.798-1.798-1.798zm31.599-29.288c-1.206 0-2.184.978-2.184 2.184 0 1.206.978 2.184 2.184 2.184s2.184-.978 2.184-2.184c0-1.206-.978-2.184-2.184-2.184zm-7.771 13.616c1.029 0 1.863-.834 1.863-1.863s-.834-1.863-1.863-1.863-1.863.834-1.863 1.863c.001 1.029.834 1.863 1.863 1.863zm44.316-3.982c-1.029 0-1.863.834-1.863 1.863s.834 1.863 1.863 1.863 1.863-.834 1.863-1.863-.834-1.863-1.863-1.863zm17.341 8.992c-.958 0-1.734.776-1.734 1.734s.776 1.734 1.734 1.734 1.734-.776 1.734-1.734-.776-1.734-1.734-1.734zm-78.227 13.487c-.887 0-1.606.719-1.606 1.606s.719 1.606 1.606 1.606 1.606-.719 1.606-1.606-.719-1.606-1.606-1.606zm12.267 7.322c0-.993-.805-1.798-1.798-1.798s-1.798.805-1.798 1.798.805 1.798 1.798 1.798c.993.001 1.798-.805 1.798-1.798zm8.285-30.7c1.029 0 1.863-.834 1.863-1.863s-.834-1.863-1.863-1.863-1.863.834-1.863 1.863.834 1.863 1.863 1.863z"/></g><path fill-rule="evenodd" clip-rule="evenodd" fill="#0894D8" d="M120.381 21.451l-3.211 3.469-14.002-13.616-12.203 14.258-12.845-16.185-2.312 2.826-9.12-12.203-22.608 31.471-5.395-5.395-14.386 18.882 14.386-15.928 4.753 4.881 23.25-30.057 8.092 11.046 2.313-2.697 12.973 15.8 13.102-13.488 13.488 12.845 3.725-3.982 17.341 17.855z"/></svg>