<?xml version="1.0" encoding="utf-8"?>
<!-- Generated by IcoMoon.io -->
<!DOCTYPE svg PUBLIC "-//W3C//DTD SVG 1.1//EN" "http://www.w3.org/Graphics/SVG/1.1/DTD/svg11.dtd">
<svg version="1.1" xmlns="http://www.w3.org/2000/svg" xmlns:xlink="http://www.w3.org/1999/xlink" width="30" height="32" viewBox="0 0 30 32">
<g>
</g>
	<path d="M15.643 26.161q0-0.375-0.080-0.723t-0.17-0.643-0.313-0.616-0.375-0.545-0.473-0.527-0.491-0.455-0.571-0.455-0.554-0.411-0.589-0.411-0.545-0.375q-0.304-0.036-0.893-0.036-0.964 0-1.893 0.125t-1.929 0.446-1.75 0.821-1.232 1.339-0.482 1.911q0 1.214 0.634 2.17t1.661 1.5 2.152 0.813 2.268 0.268q1.054 0 2.009-0.223t1.795-0.696 1.33-1.313 0.491-1.964zM13.5 10.768q0-1.071-0.295-2.277t-0.839-2.33-1.5-1.857-2.134-0.732q-1.661 0-2.571 1.232t-0.911 2.946q0 0.839 0.205 1.768t0.634 1.857 1 1.67 1.393 1.205 1.732 0.464q1.732 0 2.509-1.080t0.777-2.866zM11.161 2.286h7.804l-2.411 1.411h-2.411q1.268 0.804 1.964 2.25t0.696 3.018q0 1.321-0.411 2.348t-1 1.652-1.179 1.152-1 1.089-0.411 1.205q0 0.464 0.295 0.911t0.768 0.857 1.045 0.857 1.143 0.991 1.045 1.179 0.768 1.518 0.295 1.902q0 2.857-2.5 5.036-2.714 2.339-7.5 2.339-1.054 0-2.134-0.179t-2.179-0.598-1.938-1.036-1.375-1.589-0.536-2.17q0-1.089 0.661-2.411 0.571-1.143 1.714-1.973t2.589-1.268 2.768-0.643 2.679-0.241q-1.143-1.482-1.143-2.661 0-0.214 0.036-0.42t0.089-0.348 0.143-0.384 0.125-0.384q-0.714 0.089-1.25 0.089-2.661 0-4.563-1.75t-1.902-4.393q0-2.5 1.696-4.473t4.179-2.527q1.679-0.357 3.339-0.357zM29.714 6.857v2.286h-4.571v4.571h-2.286v-4.571h-4.571v-2.286h4.571v-4.571h2.286v4.571h4.571z" fill="#464646"></path>
</svg>
