<?xml version="1.0" encoding="utf-8"?>
<!-- Generator: Adobe Illustrator 17.0.1, SVG Export Plug-In . SVG Version: 6.00 Build 0)  -->
<!DOCTYPE svg PUBLIC "-//W3C//DTD SVG 1.1//EN" "http://www.w3.org/Graphics/SVG/1.1/DTD/svg11.dtd">
<svg version="1.1" id="Layer_1_2_" xmlns="http://www.w3.org/2000/svg" xmlns:xlink="http://www.w3.org/1999/xlink" x="0px" y="0px"
	 width="184.524px" height="60px" viewBox="0 0 184.524 60" enable-background="new 0 0 184.524 60" xml:space="preserve">
<defs>
	<filter id="Adobe_OpacityMaskFilter" filterUnits="userSpaceOnUse" x="-213.258" y="-30" width="611.04" height="120">
		<feColorMatrix  type="matrix" values="1 0 0 0 0  0 1 0 0 0  0 0 1 0 0  0 0 0 1 0"/>
	</filter>
</defs>
<mask maskUnits="userSpaceOnUse" x="-213.258" y="-30" width="611.04" height="120" id="Color_Fill_1_xA0_Image_2_">
	<g id="Color_Fill_1Opacity_Mask_3_" filter="url(#Adobe_OpacityMaskFilter)">
		
			<image overflow="visible" width="2546" height="500" id="Color_Fill_1Opacity_Mask_2_" xlink:href="AEEC6AAB.jpg"  transform="matrix(0.24 0 0 0.24 -213.2578 -30)">
		</image>
	</g>
</mask>
<g id="Color_Fill_1_xA0_Image_1_" mask="url(#Color_Fill_1_xA0_Image_2_)">
	<g display="none">
		
			<image display="inline" overflow="visible" width="2546" height="500" id="Color_Fill_1_xA0_Image" xlink:href="AEEC6AA9.png"  transform="matrix(0.24 0 0 0.24 -213.2578 -30)">
		</image>
	</g>
</g>
<g id="_x3C_Group_x3E__2_" display="none">
	<g id="_x3C_Group_x3E__3_" display="inline">
		<g id="_x3C_Path_x3E__xA0__x2B__xA0__x3C_Path_x3E__xA0__x2B__xA0__x3C_Path_x3E__xA0__x2B__xA0__x3C_Path_x3E__xA0_Image_1_">
			<g>
				<g>
					<path fill="#FDFEFE" d="M-82.218,66.24c0-21.44,0-42.88,0-64.32c0.035,0.018,0.087,0.026,0.104,0.056
						c6.022,10.14,12.301,20.128,18.126,30.386c0.242,2.055-0.251,3.865-1.347,5.671C-71.018,47.401-76.6,56.831-82.218,66.24z"/>
					<path fill-rule="evenodd" clip-rule="evenodd" fill="#4485F4" d="M-63.987,32.361c-5.826-10.258-12.104-20.246-18.126-30.386
						c-0.017-0.029-0.069-0.038-0.104-0.056c0-0.8,0-1.6,0-2.4c3.12,0,6.24,0,9.36,0c0.019,0.116,0.005,0.251,0.061,0.345
						c4.565,7.759,9.405,15.354,13.823,23.202c1.636,2.906,3.521,5.671,5.265,8.518c2.352,3.84,4.678,7.696,7.015,11.546
						c-0.537,0.933-1.046,1.883-1.616,2.795c-1.626,2.602-3.029,5.342-4.833,7.834c0.177-1.422,0.366-2.884-0.359-4.186
						c-1.271-2.283-2.587-4.544-4.075-6.697c-1.308-2.22-2.568-4.47-3.94-6.648C-62.331,34.935-62.951,33.513-63.987,32.361z"/>
					<path fill-rule="evenodd" clip-rule="evenodd" fill="#D74339" d="M-46.694,43.13c-2.337-3.85-4.663-7.706-7.015-11.546
						c-1.744-2.846-3.628-5.612-5.265-8.518c-4.419-7.848-9.258-15.442-13.823-23.202c-0.055-0.094-0.042-0.229-0.061-0.345
						c2.96,0,5.92,0,8.88,0c2.125,0.797,3.625,2.219,4.781,4.204c3.412,5.861,6.988,11.625,10.432,17.469
						c2.238,3.798,4.767,7.43,6.628,11.447c0,0.96,0,1.92,0,2.88C-43.584,38.1-45.066,40.658-46.694,43.13z"/>
					<path fill-rule="evenodd" clip-rule="evenodd" fill="#FDFEFE" d="M-46.694,43.13c1.628-2.472,3.11-5.03,4.557-7.61
						c0,11.022,0,22.045,0,33.094c-13.36,0-26.72,0-40.08,0c0-0.375,0-0.774,0-1.174c0.604,0.614,1.301,0.981,2.2,0.969
						c2.383-0.033,4.766-0.031,7.148-0.044c2.556,0.011,5.114,0.09,7.667,0.012c2.162-0.067,3.988-1.03,5.114-2.882
						c2.362-3.884,4.817-7.713,6.945-11.735c1.804-2.492,3.206-5.232,4.833-7.834C-47.74,45.013-47.231,44.063-46.694,43.13z"/>
					<path fill-rule="evenodd" clip-rule="evenodd" fill="#FDFEFE" d="M-42.138,32.64c-1.861-4.017-4.39-7.649-6.628-11.447
						c-3.443-5.843-7.02-11.608-10.432-17.469c-1.156-1.985-2.655-3.407-4.781-4.204c7.28,0,14.56,0,21.84,0
						C-42.138,10.56-42.138,21.6-42.138,32.64z"/>
					<path fill-rule="evenodd" clip-rule="evenodd" fill="#079852" d="M-72.87,68.364c-2.383,0.013-4.766,0.011-7.148,0.044
						c-0.898,0.013-1.595-0.354-2.2-0.969c0-0.4,0-0.8,0-1.199c5.618-9.409,11.2-18.839,16.884-28.208
						c1.096-1.806,1.589-3.616,1.347-5.671c1.036,1.151,1.656,2.573,2.47,3.866c1.373,2.179,2.633,4.429,3.939,6.647
						c-0.763,1.26-1.529,2.517-2.285,3.779C-64.2,53.891-68.535,61.128-72.87,68.364z"/>
					<path fill-rule="evenodd" clip-rule="evenodd" fill="#F6C43D" d="M-72.87,68.364c4.335-7.236,8.669-14.474,13.006-21.71
						c0.756-1.263,1.522-2.519,2.285-3.779c1.489,2.154,2.806,4.415,4.076,6.698c0.725,1.302,0.536,2.764,0.359,4.186
						c-2.128,4.022-4.583,7.852-6.945,11.735c-1.126,1.852-2.952,2.814-5.114,2.882C-67.755,68.454-70.313,68.375-72.87,68.364z"/>
				</g>
			</g>
		</g>
		<g id="_x3C_Path_x3E__xA0_Image_3_">
			
				<image overflow="visible" width="65" height="98" id="_x3C_Path_x3E__xA0_Image_2_" xlink:href="AEEC6AAF.png"  transform="matrix(0.24 0 0 0.24 -68.7777 30.7197)">
			</image>
		</g>
	</g>
	<g id="_x3C_Path_x3E__xA0_Image_1_" display="inline">
		
			<image overflow="visible" width="133" height="189" id="_x3C_Path_x3E__xA0_Image" xlink:href="AEEC6AA8.png"  transform="matrix(0.24 0 0 0.24 -74.2978 11.04)">
		</image>
	</g>
</g>
<g id="DevFest">
</g>
<g id="Silicon_Valley">
</g>
<g id="GDG">
	<g>
		<g>
			<g>
				<path display="none" fill="#F0F0F0" d="M164.994,27.493L149.996,2.511C149.167,1.133,147.17,0,145.557,0h-0.05L1.782,0.003
					c-1.498,0-2.099,0.989-1.515,2.236l5.697,9.486c0.05,0.095,0.075,0.216,0.126,0.318l9.278,15.442c0.83,1.386,0.83,3.645,0,5.023
					l-5.479,9.216c-0.052,0.075-0.132,0.143-0.187,0.223L0.364,57.489C-0.467,58.867,0.175,60,1.782,60l143.725-0.003h0.05
					c1.612,0,3.609-1.126,4.438-2.51l5.72-9.518l9.278-15.454C165.824,31.13,165.824,28.872,164.994,27.493z"/>
				<g display="none">
					<defs>
						<path id="SVGID_1_" d="M164.994,27.493L149.996,2.511C149.167,1.133,147.17,0,145.557,0h-0.05L1.782,0.003
							c-1.498,0-2.099,0.989-1.515,2.236l5.697,9.486c0.05,0.095,0.075,0.216,0.126,0.318l9.278,15.442
							c0.83,1.386,0.83,3.645,0,5.023l-5.479,9.216c-0.052,0.075-0.132,0.143-0.187,0.223L0.364,57.489
							C-0.467,58.867,0.175,60,1.782,60l143.725-0.003h0.05c1.612,0,3.609-1.126,4.438-2.51l5.72-9.518l9.278-15.454
							C165.824,31.13,165.824,28.872,164.994,27.493z"/>
					</defs>
					<clipPath id="SVGID_2_" display="inline">
						<use xlink:href="#SVGID_1_"  overflow="visible"/>
					</clipPath>
					<g display="inline" clip-path="url(#SVGID_2_)">
						<path fill="#E0E0E0" d="M71.291,8.502c0.057-0.024,0.201,0.036,0.241,0c0.129-0.116,0.216-0.497,0.365-0.726
							c0.203-0.311,0.42-0.323,0.48-0.604c0.055-0.228-0.216-0.845-0.114-1.328c0.033-0.192,0.236-0.28,0.358-0.48
							c0.226-0.383,0.38-0.663,0.603-1.086c0.239-0.448,0.298-1.124,0.121-1.936c0.179-0.143,0.34-0.301,0.486-0.482
							c-0.253-1.046-0.005-2.06,0.482-2.9c0.107-0.188,0.172-0.393,0.241-0.482c0.398-0.558,1.368-0.835,1.331-1.693
							c-0.358-0.614-1.282-0.504-1.937-0.236c-0.107-0.217-0.29-0.358-0.362-0.61c0.095-0.349,0.573-0.31,0.48-0.843
							c-0.172-0.346-0.547-0.453-0.842-0.723c-0.497-0.463-0.686-0.877-1.45-1.086c-0.226-0.064-0.66-0.136-0.842-0.121
							c-0.244,0.012-0.633,0.395-1.09,0.481c-0.328,0.062-0.686-0.069-0.845,0c-0.479,0.212-0.705,0.869-1.207,1.083
							c-0.408,0.181-0.653-0.175-0.968,0.247c-0.305-0.501-1.06-0.55-1.934-0.487c-0.059-1.587-1.435-1.864-2.535-2.416h-1.929
							c-0.603,0.65-1.91,0.589-2.903,0.85c-0.35,0.209-0.303,0.819-0.604,1.086c-0.241-0.125-0.188-0.536-0.599-0.487
							c-1.261,0.558-1.679,1.949-1.818,3.625c0.111,0.497,0.897,0.318,0.971,0.846c-0.199,0.647-0.877,0.815-1.574,0.965
							c-0.603-0.041-0.435-0.856-1.205-0.726c-0.792,0.634,0.927,1.501-0.126,2.052c-0.583-0.288-0.876-0.84-0.598-1.686
							c-0.422-0.532-0.976-0.196-1.815-0.247c-0.363,0.696,0.273,1.093,0.362,1.693c0.576,0.073,1.066,0.223,1.209,0.723
							c0.378,0.062,0.427-0.216,0.842-0.114c0.47,0.968,2.446,1.477,3.626,0.96c0.149-0.341,0.149-0.748,0-1.082
							c-0.708-0.528-1.981,0.247-2.17-0.727c0.676-0.397,1.008,0.48,1.929,0.24c0.291,0.349,0.698,0.398,1.209,0.24
							c0.353-0.501,0.474-1.045,0.964-1.446c0.154-0.125,0.496-0.107,0.725-0.24c0.199-0.116,0.249-0.37,0.485-0.367
							c0.179-0.343,0.219-0.825,0.479-1.086c0.953-0.099,1.353-0.741,2.178-0.964c0.134,0.347,0.216,0.747,0.239,1.208
							c-0.591,0.572-1.892,0.437-2.657,0.842c0.308,1.002-0.318,2.231,0.365,2.899c0.998,0.229,1.704,0.01,2.173,0.727
							C62.364,2.242,62.52,3.4,62.48,4.277c-0.022,0.346-0.236,0.71-0.248,1.086c-0.01,0.349,0.156,0.744,0.122,0.964
							c-0.057,0.361-0.47,0.637-0.362,0.966c-0.049,0.494,0.514,0.372,0.604,0.725c-0.331,0.463-0.882,0.96-0.968,1.814
							c-0.064,0.644,0.268,2.075,0.484,2.775c0.176,0.593,0.224,0.956,0.604,1.21c0.121,0.076,0.333,0.023,0.482,0.121
							c0.315,0.201,0.46,0.652,0.847,0.486c0.578-0.375,0.696-1.083,1.086-1.693c0.054-0.089,0.049-0.268,0.122-0.359
							c0.033-0.054,0.213-0.079,0.236-0.126c0.191-0.344,0.116-0.783,0.486-1.083c0.321-0.264,1.207-0.223,1.813-0.609
							c0.467-0.293,0.715-0.94,1.328-1.204c0.45-0.198,1.192-0.128,1.693-0.362c0.054-0.031,0.079-0.223,0.122-0.24
							c0.062-0.028,0.182,0.038,0.239,0C71.217,8.711,71.254,8.522,71.291,8.502z"/>
						<path fill="#E0E0E0" d="M102.451-4.061c0.074,0.044,0.159,0.204,0.244,0.245c0.727,0.322,1.231,0.019,1.81-0.122
							c0.224,0.305,0.224,0.825,0.725,0.846c0.41-0.153,0.695-0.438,0.847-0.846c-0.241-0.271-0.465-0.695-0.969-0.726
							c-0.368-0.023-0.48,0.123-0.842,0.242c-0.393-0.532-0.84-1.013-1.693-1.088c-0.224-0.456-0.474-0.889-1.205-0.843
							c-0.457,0.596-0.261,1.33,0.119,1.809C101.574-4.436,102.302-4.155,102.451-4.061z"/>
						<path fill="#E0E0E0" d="M52.087-2.972c0.281,0,0.566,0,0.847,0c0.064,0.377,0.214,0.675,0.362,0.966
							c0.335,0.088,0.368-0.275,0.484-0.487c0.496-0.911-0.136-1.192-0.727-1.569c0.034-0.507-0.35-0.613-0.485-0.962
							C51.322-5.139,51.519-3.407,52.087-2.972z"/>
						<path fill="#E0E0E0" d="M119.241-4.422c-0.333-0.809-2.068-0.466-2.653-0.122C116.41-2.493,119.107-2.987,119.241-4.422z"/>
						<path fill="#E0E0E0" d="M120.93-4.664c-0.04-0.244-0.437-0.29-0.842-0.121C120.064-3.969,120.995-4.315,120.93-4.664z"/>
						<path fill="#E0E0E0" d="M49.067-3.337c0.318-0.125,0.542-0.344,0.603-0.724c0.29-0.114,0.596-0.213,0.486-0.723
							c-0.201,0-0.4,0-0.603,0c0.017,0.623-0.795,0.417-1.086,0.723C48.441-3.593,48.659-3.367,49.067-3.337z"/>
						<path fill="#E0E0E0" d="M92.672-2.73c0.29,0.033,0.226-0.068,0.482-0.242c0.437-0.303,0.417-0.318,0.603-0.726
							c0.102-0.214,0.33-0.288,0.241-0.481c-0.35-0.301-0.603,0.521-1.086,0.481c-0.248-0.155-0.216-0.584-0.725-0.481
							C91.666-3.465,92.138-2.797,92.672-2.73z"/>
						<path fill="#E0E0E0" d="M45.812-2.006c-0.092,0.894,0.375,1.232,0.72,1.689c1.113-0.275,2.663,0.264,2.901-0.724
							c0.09-0.41-0.182-0.291-0.367-0.606c-0.121-0.203,0.032-0.62-0.358-0.599c-0.504-0.097-0.229,0.578-0.728,0.48
							c-0.362-0.28-0.511-0.774-0.725-1.205c0.102-0.341,0.393-0.497,0.363-0.967c-0.517-0.367-0.891-0.223-1.328,0
							c-0.477,0.244-1.334,0.514-1.334,0.967C45.138-2.54,45.67-2.466,45.812-2.006z"/>
						<path fill="#E0E0E0" d="M91.102-2.371c0-0.238,0-0.481,0-0.722c-0.347-0.281-0.912-0.019-1.21,0.12
							C90.001-2.447,90.521-2.068,91.102-2.371z"/>
						<path fill="#E0E0E0" d="M138.809-1.885c-0.628-0.361-1.157,0.107-1.574,0.119c-0.368,0.011-0.795-0.178-1.204-0.239
							c-0.278-0.041-0.542,0.03-0.847,0c-0.608-0.069-1.232-0.305-1.811-0.365c-0.949-0.088-1.363,0.311-2.051,0.365
							c-0.146,0.18-0.156,0.496-0.367,0.606c-0.47-0.092-0.747,0.339-1.085,0.481c-0.244,0.105-0.556,0.139-0.844,0.244
							c-0.271,0.089-0.485,0.331-0.85,0.235c-0.504-0.247-0.807-0.902-1.446-0.96c-0.604-0.054-1.12,0.579-1.691,0.603
							c-0.196,0.007-0.308-0.068-0.487-0.122c-0.166-0.055-0.494-0.07-0.599-0.121c-0.365-0.16-0.46-0.538-0.968-0.606
							c-0.367-0.041-0.698,0.192-1.087,0.247c-0.566,0.074-1.058-0.151-1.569,0.117c-0.311,0.373,0.034,0.862,0,1.328
							c-0.44,0.206-0.904,0.39-1.451,0.487c-0.377,0.14-0.342,0.7-0.844,0.72c-0.988-0.659-1.068-2.231-3.144-1.806
							c-0.221,0.339-0.221,0.899-0.722,0.962c-0.544,0.029-0.775-0.336-1.333-0.362c-0.645-0.031-1.446,0.623-2.052,0
							c0.162-1.846-1.17-3.084-2.776-2.417c-0.591-0.173-0.867-0.66-1.57-0.722c-0.013,0.188-0.308,0.094-0.241,0.362
							c-0.429,0.395,0.11,0.988,0,1.33c-0.183,0.547-0.64,0.609-1.326,0.725c-0.591,0.954-2.081,1.323-1.574,3.016
							c-0.244,0.235-0.797,0.172-0.847,0.604c-0.278,0.126-0.246,0.557-0.236,0.963c-0.546,0.228-0.834,0.708-1.453,0.85
							c-0.47-0.332-0.653-0.956-1.446-0.968c-0.114,0.494-0.395,1.696-0.365,2.173c0.032,0.497,0.584,0.932,0.243,1.33
							c-0.737-0.141-1.148-0.265-1.93-0.121c-0.072,0.213,0.144,0.708-0.122,0.727c-0.559,0.48-1.326,0.167-1.93,0.366
							c-0.049,0.008-0.186,0.206-0.248,0.237c-0.156,0.082-0.345,0.02-0.477,0.121c-0.382,0.281-0.434,0.904-0.971,0.966
							C93.28,9.3,93.355,8.701,92.79,8.746c-0.496,0.237,0.321,1.354-0.481,1.446c-0.526-0.038-0.457-0.665-0.725-0.969
							c-0.941-0.501-1.902-0.994-3.141-1.204c-0.335-0.379-0.583-0.749-0.964-0.846c-1.133-0.28-1.97,0.47-2.417,0.727
							c-0.343,0.194-0.524,0.214-0.725,0.366c-0.248,0.179-0.454,0.337-0.606,0.481c-0.41,0.379-0.311,0.843-0.48,1.324
							c-0.07,0.203-0.362,0.433-0.484,0.724c-0.137,0.332-0.102,0.716-0.241,0.968c-0.024,0.039-0.206,0.08-0.244,0.12
							c-0.084,0.097-0.035,0.262-0.117,0.363c-0.623,0.777-1.319,0.887-1.811,1.572c0.038,0.967,0.102,1.908,0.599,2.416
							c0.782,0.178,0.819-0.395,1.45-0.361c0.169,0.234,0.117,0.688,0.246,0.964c-0.179-0.175-0.792-0.175-0.973,0
							c-0.273,0.513,0.072,0.925,0,1.572c-0.303,0.216-0.668,0.377-1.083,0.481c-0.32,0.325-0.484,0.809-0.968,0.965
							c-0.05-0.599-1.137-1.74-1.57-2.654c-0.122-0.268,0.022-0.617-0.119-0.845c-0.234-0.39-0.792-0.419-1.09-0.245
							c-0.338,0.229-0.223,0.901-0.239,1.452c-0.83,0.254-1.567,1.11-1.21,2.17c0.701,0.142,0.882-0.244,1.333-0.36
							c0.172-0.388,0.05-1.072,0.601-1.086c0.234,0.499-0.424,1.459,0,2.174c0.407,0.077,1.125-0.153,1.331,0.121
							c-0.231,0.413-0.814,0.481-1.209,0.725c0.023,0.8,1.169,0.991,0.966,1.814c-0.276,1.151-1.703,0.185-2.655,0.722
							c-0.301,0.244-0.067,0.678-0.122,1.088c-0.087,0.66-0.395,1.21-0.122,1.688c0.413,0.466,1.004,0.257,1.088,0.846
							c0.095,0.649-0.658,0.802-1.21,1.452c-0.253,0.301-0.283,1.215-0.357,1.327c-0.244,0.364-0.857,0.545-1.209,0.846
							c-0.417,0.352-0.688,0.835-0.964,1.332c-0.184,0.318-0.445,0.761-0.489,1.082c-0.067,0.511,0.172,1.317,0.122,1.934
							c-0.02,0.215-0.213,0.424-0.236,0.603c-0.221,1.305,0.552,1.524,1.081,2.178c0.198,0.244,0.221,0.382,0.363,0.601
							c0.281,0.428,0.469,0.574,0.845,0.845c0.36,0.257,0.506,0.419,0.842,0.609c0.82,0.443,0.983,0.003,1.934,0
							c0.338-0.005,0.701,0.156,0.969,0.115c0.261-0.034,0.539-0.265,0.845-0.363c1.202-0.388,1.41-0.165,2.175,0.607
							c0.544-0.021,1.076-0.028,1.207,0.362c0.305,0.579-0.276,1.215-0.124,1.933c0.134,0.603,0.802,0.928,1.09,1.449
							c0.154,0.281,0.387,0.778,0.487,1.205c0.074,0.361,0.179,1.083,0.115,1.451c-0.045,0.28-0.38,0.403-0.482,0.601
							c-0.067,0.133-0.094,0.398-0.121,0.487c-0.308,0.994,0.037,1.691,0.362,2.417c0.156,0.352,0.395,0.705,0.484,1.086
							c0.11,0.488,0.05,0.917,0.119,1.326c0.119,0.675,0.747,1.17,0.968,1.816c0.214,0.624-0.01,1.343,0.606,1.808
							c0.87-0.125,1.831-0.099,2.533-0.24c0.146-0.032,0.829-0.349,0.849-0.364c0.347-0.331,0.665-0.579,1.088-1.086
							c0.554-0.659,1.068-1.279,1.204-2.171c0.435-0.397,0.8-0.327,0.969-0.848c0.151-0.473-0.166-1.135,0-1.569
							c0.283-0.744,1.691-0.984,2.049-1.569c0.355-0.563,0.296-1.975,0.122-2.414c-0.142-0.357-0.325-0.736-0.358-1.091
							c-0.067-0.603,0.126-0.988,0.236-1.209c0.271-0.528,0.337-0.67,0.725-1.083c0.285-0.301,0.623-0.698,0.844-0.846
							c0.7-0.465,1.528-1.179,1.818-1.807c0.017-0.049,0.213-0.074,0.236-0.122c0.377-0.665,0.752-1.49,0.849-2.299
							c-0.747-0.792-2.595,0.829-3.022-0.362c0.218-0.378,0.817-0.406,1.329-0.602c0.544-0.211,1.267-0.481,1.693-0.725
							c0.121-0.072,0.151-0.186,0.238-0.24c0.47-0.296,0.929-0.346,1.331-0.606c0.064-0.041,0.169-0.188,0.241-0.244
							c0.368-0.298,0.581-0.525,0.845-0.965c0.223-0.368,0.414-0.668,0.367-0.966c-0.119-0.739-0.976-0.412-1.092-1.327
							c1.232,0.203,2.161,0.228,3.504,0.12c0.629,0.538,1.309,1.029,1.689,1.811c0.449,0.039,0.83,0.138,1.09,0.362
							c0.045,1.076,0.566,1.815,0.847,2.417c0.077,0.176,0.05,0.303,0.117,0.484c0.062,0.153,0.184,0.237,0.241,0.361
							c0.273,0.562,0.474,1.102,0.847,1.569c0.45,0.088,0.521-0.207,0.968-0.12c-0.013,0.578,0.149,0.979,0.606,1.088
							c0.176-0.112,0.589-0.606,0.236-0.845c0.067-0.55-0.643-0.323-0.603-0.845c-0.121-0.427,0.119-1.202,0.119-1.33
							c0-0.04-0.142-0.265-0.119-0.485c0.055-0.438,1.082-1.323,1.45-1.689c0.877-0.877,1.304-1.473,2.54-1.447
							c0.663,0.659,1.256,1.396,1.567,2.409c0.365,0.172,0.435-0.054,0.968,0c0.395,0.613,0.663,1.345,0.845,2.176
							c0.467-0.051,0.333-0.717,0.964-0.606c1.15,0.4,0.817,1.34,1.816,1.331c0.348-0.005,0.717-0.485,0.842-0.604
							c0.321-0.3,0.562-0.504,0.606-0.85c0.044-0.366-0.276-1.235-0.365-1.323c-0.052-0.055-0.069-0.194-0.122-0.244
							c-0.218-0.214-0.546-0.275-0.722-0.484c-0.623-0.729-0.244-1.693,0.722-1.57c0.353,0.265-0.393,1.095,0.367,1.088
							c0.531-0.032,0.231-0.892,0.479-1.205c0.973-0.415,1.845-0.635,2.417-1.207c0.551-0.555,0.544-0.765,0.845-1.572
							c0.283-0.747,0.407-0.974,0.238-1.691c-0.047-0.219-0.064-0.601-0.119-0.728c-0.102-0.268-0.462-0.525-0.606-0.724
							c-0.11-0.158-0.169-0.38-0.238-0.482c-0.187-0.27-0.233-0.142-0.243-0.48c-0.01-0.486,0.839-0.881,0.48-1.208
							c-0.497-0.349-1.195,0.239-1.445-0.364c0-0.604,0.383-0.825,0.725-1.088c0.388,0.439,0.675,0.511,1.445,0.365
							c0.271,0.575,0.775,0.992,1.093,1.568c0.166,0.31,0.09,0.768,0.484,0.967c0.357-0.044,0.611-0.192,0.84-0.362
							c0.156-1.318-0.748-1.584-1.088-2.416c0.382-0.47,0.41-1.279,0.725-1.812c0.293-0.196,0.78-0.193,1.09-0.364
							c0.333-0.438,0.631-1.117,0.847-1.808c0.186-0.617,0.489-1.649,0.479-2.176c-0.002-0.392-0.452-0.742-0.116-1.088
							c0.142,0.624,0.325,1.207,0.845,1.449c0.924-1.272-0.822-2.186-0.973-3.499c-1.237-0.344-2.754,0.02-3.018-0.969
							c-0.02-0.1,0.192-1.032,0.243-1.209c0.015-0.043,0.228-0.176,0.241-0.24c0.107-0.402,0.057-1.184,0.244-1.451
							c0.362-0.525,0.994-0.402,1.567-0.603c0.437-0.15,0.636-0.515,0.966-0.482c0.527,0.024,0.815,0.424,1.333,0.123
							c0.45-0.508-0.27-2.19,0.606-2.539c0.603-0.121,0.588,0.376,1.083,0.362c0.315-0.058,0.407-0.664,0.725-0.362
							c-0.27,0.758-0.085,1.609-0.241,2.416c-0.07,0.377-0.318,0.722-0.361,1.085c-0.193,1.577,0.45,2.2,0.964,3.023
							c0.365,0.585,0.663,1.337,1.209,1.569c0.603-0.47,0.345-1.594,0.484-2.294c0.037-0.187,0.239-0.308,0.239-0.485
							c0.007-0.183-0.199-0.514-0.239-0.845c-0.047-0.363,0.057-0.794,0-0.968c-0.136-0.39-0.681-0.657-0.847-1.085
							c-0.209-0.533,0.059-0.909-0.239-1.33c0.542-0.507,1.113-0.977,2.056-1.086c0.181-0.782,0.387-1.539,0.72-2.173
							c0.219-0.305,0.822-0.22,0.849-0.729c-0.147-0.912-1.118-1.025-1.329-1.806c-0.04-0.153,0.121-0.511,0.119-0.726
							c0-0.331-0.159-0.466-0.119-0.846c0.415-0.536,1.123-0.063,1.811-0.357c0.288-0.509-0.194-0.712-0.244-1.209
							C139.229-1.184,139.054-1.569,138.809-1.885z M90.255,10.675c0.399,0.126,0.988,0.061,1.329,0.243
							c0.008,0.651-0.758,0.531-1.329,0.603C90.081,11.36,90.081,10.842,90.255,10.675z M90.376,22.508
							c0.619-0.095,0.492,0.559,0.961,0.61c0.557,0.023,0.557-0.497,0.728-0.85c0.122,0,0.244,0,0.367,0
							c-0.069,1.318,1.361,1.137,1.689,2.055c-0.419,1.014-1.331,0.25-2.056,0.121c-0.822-0.148-1.445,0.275-2.412,0.363
							C88.951,24.152,89.6,22.773,90.376,22.508z M84.578,17.075c-0.04-0.812,0.251-1.154,0.484-1.928
							c0.017-0.539-0.492-0.732-0.484-1.21c0.01-0.69,0.563-0.978,1.087-1.33c0.1-0.501,0.09-1.115,0.484-1.329
							c0.198-0.031,0.209,0.115,0.362,0.122c0.136,0.902-0.619,0.909-0.845,1.449c-0.03,1.164,0.276,1.98,1.088,2.299
							c-0.064,1.091-1.045,1.526-0.604,2.776c-0.357,0.259-0.678-0.044-1.086,0c-0.596,0.067-1.229,0.716-1.693,0.121
							C83.508,17.455,84.29,17.513,84.578,17.075z M89.892,29.395c-0.541-0.024-0.961-0.222-1.448-0.359
							c-0.507-0.148-1.115-0.408-1.331-0.365c-0.536,0.104-0.537,0.604-0.964,0.968c-0.464-0.054-0.881-0.174-1.209-0.484
							c-0.385-0.373-1.294-0.388-1.934-0.843c0.072-0.674-0.055-1.154-0.358-1.452c-1.013,0.056-1.811-0.021-2.66,0.121
							c-0.894,0.153-1.741,0.867-2.658,0.482c0.417-0.514,1.041-0.349,1.448-0.846c0.188-0.218,0.111-0.685,0.244-0.962
							c0.164-0.324,0.514-0.467,0.725-0.726c0.258-0.316,0.291-0.672,0.606-0.845c0.454-0.232,1.348-0.02,1.57-0.486
							c0.897,0.472,1.376,1.363,2.414,1.694c0.218,0.224,0.325,0.558,0.603,0.722c1.334-1.071-0.938-1.59-1.209-2.534
							c0.02-0.143,0.221-0.105,0.363-0.126c0.372,0.596,1.215,0.722,1.691,1.21c-0.002,0.284,0.206,0.359,0.119,0.728
							c0.424,0.189,0.708,1.664,1.331,1.688c1.02,0.038,0.477-0.892,0.603-1.573c0.318-0.011,0.424-0.181,0.606,0
							c0.112,0.122,0.043,0.473,0.119,0.608c0.092,0.152,0.151,0.303,0.246,0.486c0.182,0.362,0.338,0.4,0.603,0.723
							c1.246-0.193,1.887,0.414,2.898,0.121c0.204,0.701-0.129,1.436-0.484,1.93C91.11,29.127,90.59,29.433,89.892,29.395z
							 M95.569,36.402c-0.29-0.003-0.507-0.072-0.725-0.24c-0.405-0.315-0.405-0.746-0.723-1.209
							c-0.132-0.186-0.41-0.336-0.48-0.484c-0.126-0.25-0.117-0.671-0.248-0.968c-0.146-0.33-0.424-0.532-0.603-0.845
							c-0.052-0.09,0.047-0.267,0-0.366c-0.082-0.163-0.623-0.494-0.481-1.083c0.122,0,0.236,0,0.363,0
							c0.246,0.288,0.345,0.614,0.601,0.969c0.203,0.28,0.576,0.514,0.725,0.843c0.082,0.183,0.017,0.424,0.122,0.603
							C94.644,34.501,95.786,35.242,95.569,36.402z M96.29,22.757c0.445-0.405,0.74-0.955,1.696-0.851
							c0.333,0.567-0.413,0.588-0.367,1.213c-0.012,0.468,0.519,0.701,0.725,1.086c0.141,0.25,0.141,0.599,0.244,0.842
							c0.219,0.533,0.778,1.02,0.48,1.569c-0.573,0.361-1.222-0.102-1.569-0.359C97.864,24.324,96.436,24.181,96.29,22.757z
							 M99.556,32.291c-0.609-0.002-1.289-1.286-1.693-1.686c-0.139-0.178-0.139-0.306,0-0.484c0.122,0,0.244,0,0.36,0
							c0.405,0.843,1.373,1.122,2.299,1.446C100.198,32.005,99.95,32.299,99.556,32.291z"/>
						<path fill="#E0E0E0" d="M120.21-2.129c0.07-0.432-0.36-0.369-0.725-0.364C119.319-1.948,119.972-1.903,120.21-2.129z"/>
						<path fill="#E0E0E0" d="M83.006,2.222C83.8,2.17,83.46,0.986,84.094,0.769c0.157,0.326,0.26,0.707,0.845,0.607
							c0.454-0.813-0.752-0.912-0.725-1.693c0.656-0.189,1.348-0.339,1.331-1.206c-0.328-0.44-1.155-0.378-1.934-0.363
							c-0.326,0.235-0.551,0.578-0.964,0.726c-0.291,0.158-0.837,0.048-1.09,0.24c-0.39,0.945,0.43,1.527,0.844,2.052
							C82.419,1.686,82.696,1.972,83.006,2.222z"/>
						<path fill="#E0E0E0" d="M64.65,44.129c-0.335-0.247-0.752-0.639-0.966-0.724c-0.547-0.209-1.256-0.07-1.815-0.238
							c-0.25-0.08-0.46-0.37-0.72-0.482c-0.321-0.143-0.629-0.048-0.847-0.122c-0.765-0.273-0.696-0.744-0.966-1.33
							c-0.131-0.281-0.313-0.671-0.485-0.846c-0.044-0.048-0.517-0.385-0.725-0.48c-0.417-0.191-0.706-0.068-1.207-0.122
							c-0.519-0.053-1.108-0.864-1.446-1.087c-0.298-0.198-0.552-0.655-0.723-0.726c-0.588-0.224-1.446,0.082-1.934,0
							c-0.542-0.089-0.715-0.422-1.09-0.483c-0.948-0.159-1.594,0.037-1.934,0.239c-0.345,0.215-0.499,0.652-1.083,0.848
							c-0.203,0.067-0.467-0.076-0.606,0.121l-0.094,0.092c-0.059-0.014-0.119-0.019-0.179-0.003l-0.089-0.089
							c-0.865-0.126-1.304-0.367-1.45-1.087c-0.092-0.461,0.393-0.983,0.122-1.449c-0.246-0.521-1.364-0.172-1.693-0.606
							c-0.286-0.642,0.547-1.116,0.367-2.054c-1.252-0.502-1.252,0.625-1.815,0.968c-1.344,0.819-2.374-0.487-2.175-2.05
							c0.035-0.295,0.424-1.739,0.482-1.814c0.203-0.269,1.251-0.712,1.453-0.727c0.323-0.012,0.703,0.291,1.081,0.243
							c0.323-0.117,0.556-0.419,0.973-0.483c0.65-0.099,1.408,0.219,1.808,0.483c0.131,0.712,0.131,1.562,0.968,1.569
							c0.67-0.797-0.306-1.561,0-2.535c0.064-0.208,0.29-0.321,0.481-0.484c0.398-0.336,0.708-0.57,1.09-0.845
							c0.236-0.172,0.519-0.247,0.599-0.364c0.275-0.383,0.176-0.935,0.365-1.328c0.116-0.24,0.41-0.466,0.603-0.727
							c0.501-0.65,0.728-0.925,1.567-1.083c0.224-0.691,0.532-1.391,1.331-1.449c0.403-0.031,0.609,0.203,1.09,0.244
							c0.552-0.377,1.445-0.409,1.686-1.087c-0.616-0.114-0.899-0.123-1.202-0.606c-0.097-0.153,0.064-0.563,0-0.846
							c-0.084-0.357-0.656-0.388-0.244-0.603c0.618,0.136,0.939,0.264,1.446,0.117c0.424-0.114,1.023-0.46,1.334-0.242
							c-0.092,0.517-0.566,0.649-0.486,1.332c0.566,0.275,1.165,0.526,2.053,0.485c0.41-0.897-0.479-1.313-0.725-1.939
							c0.345-0.768,0.275-1.409,0-1.807c-0.084-0.122-0.172-0.403-0.239-0.486c-0.288-0.328-0.748-0.408-0.964-0.84
							c-0.224-0.449-0.156-0.953-0.244-1.332c-0.089-0.397-0.149-0.741-0.363-1.209c-0.856-0.135-0.636,0.815-1.567,0.606
							c-0.342-0.368-0.179-0.772-0.126-1.33c-0.573-0.749-1.313-1.865-2.653-1.451c-0.328,0.435-0.095,0.94-0.241,1.451
							c-0.107,0.382-0.447,0.669-0.482,1.09c-0.042,0.415,0.253,0.928,0.117,1.327c-0.169,0.514-1.015,0.618-1.328,1.205
							c-0.362,0.68,0.239,1.072-0.484,1.57c-0.666-0.131-0.161-1.446-0.484-1.927c-0.117-0.225-0.398-0.138-0.603-0.244
							c-0.589-0.311-1.068-1.003-1.57-1.332c-0.082-0.054-0.159-0.072-0.241-0.123c-0.47-0.274-0.561-0.463-0.723-0.962
							c-0.422-1.289,0.559-1.885,1.326-2.537c0.599-0.506,1.215-1.098,2.053-1.083c0.325,0.115,0.301,0.584,0.606,0.724
							c0.581-0.177,0.958-0.23,1.448-0.247c0.105-0.784-0.722-1.161-0.481-1.686c0.738-0.356,1.225-0.603,1.446-1.332
							c0.171-0.548,0.405-1.095,0.727-1.449c0.827-0.145,1.043,0.324,1.209,0.845c-0.007,0.521-0.64,0.408-0.487,1.093
							c0.534,0.155,0.874-0.572,1.09,0c-0.082,0.843-0.755,1.097-1.205,1.567c-0.477,0.01-1.063-0.094-0.968,0.485
							c-0.05,0.649,1.013,0.193,1.331,0.477c0.258,0.274,0.28,0.901,0.598,1.21c0.228,0.217,0.827,0.496,1.09,0.481
							c0.224-0.007,0.864-0.385,0.966-0.481c0.544-0.491,0.064-1.245-0.124-1.934c0.455-0.012,0.37,0.522,0.971,0.365
							c0.527-0.329,0.832-0.507,0.845-0.968c0.005-0.311-0.378-0.572-0.604-0.845c-0.276-0.328-0.569-0.536-0.604-0.846
							C57.933,7.3,58.154,7.06,58.126,6.69c-0.064-0.921-1.177-1.39-1.57-2.298c-0.166-0.39-0.259-0.761-0.236-1.323
							c-0.367-0.535-1.172-0.339-1.818-0.484c-0.244-0.058-0.43-0.193-0.603-0.244c-1.51-0.484-2.417,1.214-2.292,2.779
							c0.219,0.351,0.64,0.514,0.601,1.086c-0.022,0.352-0.35,0.87-0.842,0.846c-0.166-0.494-0.748-0.942-0.849-1.567
							c-0.025-0.18,0.109-0.522,0.122-0.728c0.034-0.518-0.079-1.08,0.121-1.57c0.655-0.434,1.929-0.252,1.693-1.572
							c-0.482-0.422-1.177-0.383-1.693,0c-0.556-0.881-1.179-0.445-1.693,0c-0.588,0.516-0.683,0.614-0.479,1.21
							c0.035,0.11,0.035,0.344,0.121,0.485c0.156,0.279,0.576,0.34,0.603,0.723c0.017,0.239-0.072,0.342-0.122,0.484
							c-0.233,0.683-0.571,0.683-1.209,0.968c-0.229,0.416-0.067,0.881-0.603,1.083c-0.589,0.219-1.475-0.177-1.448-0.848
							c0.897,0.018,1.59-0.466,1.689-1.085c0.038-0.221-0.167-0.29-0.241-0.48c-0.226-0.608-0.04-1.44,0.119-1.816
							c0.196-0.443,0.768-0.676,0.725-1.328c-0.762-0.473-1.199,0.545-1.93,0.48c-0.827-0.066-1.1-0.79-1.204-1.933
							c-0.777-0.614-1.625-0.937-2.181-0.357c-0.594,0.619-1.952,1.638-1.445,2.535c0.372,0.359,1.189-0.123,1.445,0.121
							c-0.193,0.459,0.085,0.956,0,1.328c-0.027,0.135-0.288,0.332-0.358,0.484c-0.115,0.237,0.027,0.685-0.365,0.606
							c-0.566-0.038-0.711-0.499-0.966-0.846c-0.845-0.121-1.386-0.545-1.811-1.09c-1.182-0.01-2.227,0.111-3.258,0.244
							c-0.254-0.234-0.46-0.507-0.608-0.846c-0.434-0.044-0.537-0.511-0.845-0.726c-0.248-0.172-0.732-0.254-1.086-0.48
							c-0.05-0.038-0.065-0.199-0.122-0.247c-0.097-0.075-0.268-0.051-0.363-0.12c-0.057-0.037-0.057-0.196-0.117-0.239
							c-0.112-0.084-0.266-0.034-0.362-0.121c-0.248-0.224-0.306-0.537-0.482-0.725c-0.278-0.288-0.44-0.378-0.845-0.481
							c-0.705-0.183-1.297,0.107-1.693,0.24c-0.231,0.078-0.542,0.037-0.725,0.119c-0.464,0.206-0.809,0.654-1.329,0.846
							c-0.424,0.155-0.912-0.085-1.207,0.361c-0.124,0.891,0.373,1.798,0,2.535c-0.398,0.048-0.591-0.47-1.09-0.48
							c-0.104-0.003-0.422,0.165-0.604,0.239c-0.743,0.312-0.701,0.782-0.601,1.572c0.218,0.47,1.219,0.15,1.328,0.724
							c-0.213,0.827-1.147,0.364-1.687,0.606c-0.09,0.038-0.293,0.311-0.486,0.48c-0.216,0.191-0.524,0.353-0.606,0.484
							c-0.209,0.356-0.398,1.151-0.358,1.449c0.067,0.548,0.844,0.691,0.722,1.572c0.308,0.219,0.829,0.219,0.844,0.722
							c-0.38,1.106-1.796,1.184-2.412,2.054c1.341,0.013,1.897-0.754,2.898-1.083c0.482-0.123,0.362,0.356,0.847,0.237
							c0.715-0.37,0.37-1.615,1.083-1.811c0.666,0.513,1.88,0.115,2.416-0.245c0.244,0.153,0.485,0.39,0.849,0.61
							c0.28,0.163,0.722,0.257,0.966,0.485c0.136,0.125,0.38,0.734,0.484,0.845c0.47,0.486,0.323,1.034,0.477,1.809
							c0.035,0.15,0.065,0.27,0.124,0.483c0.054,0.192,0.087,0.508,0.12,0.603c0.131,0.308,0.501,0.552,0.603,0.842
							c0.06,0.174-0.047,0.508,0,0.729c0.045,0.179,0.218,0.395,0.244,0.481c0.213,0.716-0.007,1.113-0.122,1.693
							c0.192,0.521,0.65,0.795,0.723,1.332c0.032,0.192-0.092,0.384-0.117,0.598c-0.082,0.722-0.109,0.799-0.239,1.212
							c-0.208,0.649-0.495,1.08-0.604,1.566c-0.166,0.722-0.154,1.994,0,2.539c0.119,0.444,0.258,1.152,0.36,1.453
							c0.246,0.71,0.822,0.718,1.209,1.326c0.176,0.28,0.171,0.762,0.362,1.21c0.238,0.539,0.825,0.876,0.603,1.691
							c0.534,0.391,0.619,1.23,1.331,1.451c0.114-0.563-0.469-1.056-0.127-1.451c0.454,0.124,0.44,0.604,0.606,0.84
							c0.075,0.105,0.293,0.143,0.367,0.247c0.08,0.106,0.038,0.245,0.119,0.363c0.236,0.339,0.636,0.527,0.725,0.963
							c0.047,0.225-0.122,0.7,0,0.966c0.305,0.674,2.345,1.704,3.141,1.815c0.362,0.048,0.867-0.109,1.205,0
							c0.318,0.095,0.579,0.603,1.093,0.843c0.46,0.221,1.15,0.168,1.445,0.357c0.553,0.367,0.643,1.051,0.969,1.332
							c0.186,0.168,0.47,0.234,0.723,0.364c0.67,0.346,0.989,0.647,1.572,0h0.117c0.261,0.506,0.695,0.877,0.608,1.691
							c-0.052,0.416-0.353,0.611-0.608,0.969c-0.186,0.259-0.598,0.608-0.725,0.963c-0.186,0.535,0.072,0.71,0,1.207
							c-0.05,0.346-0.29,0.603-0.241,0.845c0.065,0.327,0.678,0.872,0.966,1.33c0.327,0.521,0.646,1.228,0.847,1.57
							c0.179,0.311,0.353,0.817,0.484,0.965c0.698,0.799,1.813,0.823,2.173,1.81c0.486,1.338-0.05,3.915,0,5.197
							c0.022,0.446,0.152,0.901,0.122,1.327c-0.045,0.585-0.335,1.11-0.365,1.693c-0.007,0.219,0.095,0.514,0.124,0.846
							c0.032,0.386-0.054,0.84,0,1.205c0.042,0.328,0.218,0.524,0.241,0.85c0.064,1.113-0.218,2.299,0,3.259
							c0.092,0.414,0.422,0.838,0.601,1.209c0.214,0.424,0.382,0.832,0.608,1.205c0.829,0.285,1.672,1.472,2.776,0.723
							c0.094-0.415-0.209-0.647-0.363-0.846c-0.221-0.289-0.442-0.377-0.604-0.723c-0.107-0.227-0.268-0.548-0.238-0.964
							c0.03-0.567,0.643-0.969,0.603-1.572c-0.033-0.456-0.524-0.668-0.487-1.087c0.397-0.613,0.775-1.24,0.727-2.295
							c0.586-0.058,0.506-0.785,0.847-1.086c0.496-0.186,1.107-0.257,1.448-0.603c0.144-0.339,0.137-0.836,0.124-1.332
							c0.286-0.15,0.73-0.155,0.964-0.361c0.444-0.351,0.444-0.901,0.725-1.327c0.147-0.229,0.46-0.393,0.604-0.608
							c0.169-0.245,0.397-0.604,0.486-0.841c0.233-0.657-0.075-0.962,0.236-1.451c0.115-0.182,0.372-0.194,0.487-0.242
							c0.037-0.017,0.074-0.214,0.119-0.244c0.105-0.064,0.275-0.071,0.362-0.119c0.142-0.079,0.221-0.182,0.363-0.244
							c0.216-0.085,0.653-0.01,0.964-0.24c0.646-0.471,0.994-1.815,1.09-2.898c0.02-0.237-0.089-0.703,0-0.971
							c0.074-0.224,0.49-0.657,0.723-0.962c0.295-0.4,0.631-0.613,0.722-1.09C65.686,44.614,65.222,44.56,64.65,44.129z"/>
						<path fill="#E0E0E0" d="M96.052,6.69c-0.139-0.771-0.67-0.96-0.725-1.688c-0.02-0.261,0.167-0.521,0.241-0.845
							c0.082-0.367,0.013-0.712,0.126-0.969c0.033-0.087,0.271-0.224,0.358-0.362c0.119-0.197,0.142-0.474,0.238-0.603
							c0.445-0.576,1.323-0.874,1.329-1.567c-0.1-0.26-0.293-0.43-0.723-0.369c-0.194,0.303-0.36,0.473-0.725,0.727
							c-0.624,0.439-0.917,0.421-1.328,1.086c-0.405,0.657-0.358,1.164-0.484,2.178c-0.077,0.644-0.295,1.381-0.239,1.566
							C94.293,6.423,95.279,6.948,96.052,6.69z"/>
						<path fill="#E0E0E0" d="M74.197,10.918c-0.919-0.226-2.135-0.007-2.906,0c-0.139,0.693,0.052,1.589,0.725,1.812
							C73.119,13.099,74.905,11.941,74.197,10.918z"/>
						<path fill="#E0E0E0" d="M131.438,18.887c-0.017,0.264,0.1,0.383,0.365,0.366C131.823,18.989,131.703,18.866,131.438,18.887z"
							/>
						<path fill="#E0E0E0" d="M131.803,22.269c0.728-0.276,1.544-0.467,1.691-1.327c-0.522-0.24-0.984-0.545-1.691-0.603
							C131.837,21.033,131.272,21.805,131.803,22.269z"/>
						<path fill="#E0E0E0" d="M131.323,25.047c-0.221,0.271-0.355,0.556-0.609,0.726c-0.626,0.26-1.398,0.669-1.569,1.33
							c-0.121,0.476-0.295,1.036,0.482,1.209c0.293-0.232,0.219-0.83,0.606-0.967c0.514-0.116,0.921-0.397,1.329-0.605
							c0.47-0.239,0.907-0.432,1.329-0.725c-0.075-1.376,0.362-3.258-0.966-3.383c-0.172,0.579,0.144,1.182,0,1.693
							C131.833,24.632,131.497,24.828,131.323,25.047z"/>
						<path fill="#E0E0E0" d="M82.04,25.047c-0.181,0.184-0.213,0.828,0.241,0.726C82.469,25.589,82.499,24.943,82.04,25.047z"/>
						<path fill="#E0E0E0" d="M83.979,26.859c0.408,0.053,0.683-0.038,0.599-0.482C84.226,26.389,83.897,26.42,83.979,26.859z"/>
						<path fill="#E0E0E0" d="M126.123,31.69c-0.172,0.175-0.172,0.795,0,0.967c0.516-0.015,0.534-0.593,0.365-0.967
							C126.371,31.69,126.248,31.69,126.123,31.69z"/>
						<path fill="#E0E0E0" d="M49.792,34.107c-0.117-0.647-0.785-0.744-1.448-0.841v0.086c-0.164-0.068-0.321-0.141-0.481-0.192
							V33.02c0.017-0.199-0.745-0.199-0.725,0c0.251,0.068,0.342,0.301,0.725,0.245v-0.1l0.481,0.19v0.147
							C48.578,33.914,49.136,34.515,49.792,34.107z"/>
						<path fill="#E0E0E0" d="M50.517,34.831c0.474,0.346,1.286,0.234,1.57-0.242C51.946,34.004,50.323,33.788,50.517,34.831z"/>
						<path fill="#E0E0E0" d="M126.972,34.59c-1.296-0.043-0.614,1.991-0.241,2.418c0.348,0.01,0.79-0.069,0.969,0.114
							c-0.467,0.413-0.064,1.027,0,1.454c0.047,0.341-0.044,0.652,0,0.724c0.136,0.265,0.773,0.657,0.963,0.606
							c0.738-0.188,0.531-1.416-0.122-1.81c0.02-0.3,0.02-0.588-0.119-0.727c-0.388-0.419-0.984-0.672-1.205-1.33
							C127.057,35.582,127.398,34.996,126.972,34.59z"/>
						<path fill="#E0E0E0" d="M124.072,45.823c0.044-0.509-0.519-0.8-0.844-0.843c-0.342-0.051-0.646,0.182-0.964,0.123
							c-0.172-0.043-0.474-0.191-0.606-0.249c-0.219-0.087-0.547-0.111-0.603-0.362c0.003-0.397,0.204-0.601,0.119-1.088
							c-0.427-0.398-0.656-0.501-0.844-0.963c-0.248-0.599-0.131-1.862-0.362-2.292c-0.209-0.392-0.832-0.535-1.09-0.85
							c-0.136-0.163-0.166-0.487-0.239-0.603c-0.147-0.234-0.224-0.223-0.363-0.48c-0.032-0.099-0.1-0.147-0.241-0.121
							c-0.558,1.179,1.165,1.597,0.604,2.779c-0.626-0.14-0.748-0.787-1.57-0.726c-0.259,0.627,0.519,0.989,0.845,1.446
							c0.037,0.054-0.032,0.182,0,0.24c0.013,0.041,0.209,0.078,0.239,0.117c0.037,0.058-0.027,0.187,0,0.247
							c0.022,0.043,0.214,0.072,0.241,0.123c0.182,0.315,0.342,0.942,0.484,1.082c0.405,0.424,0.934,0.956,1.331,1.209
							c0.154,0.106,0.429,0.119,0.606,0.24c0.321,0.238,0.422,0.606,0.723,0.725c0.136,0.056,0.526-0.061,0.842,0
							c0.223,0.046,0.422,0.223,0.604,0.244C123.377,45.867,123.684,45.788,124.072,45.823z"/>
						<path fill="#E0E0E0" d="M125.04,39.662c-0.827,0.824-1.616,1.689-2.776,2.173c-0.407,1.48,1.232,2.422,2.653,2.057
							c0.261-0.628,0.844-1.329,0.968-1.939c0.062-0.303-0.144-0.614-0.122-0.96c0.025-0.39,0.357-0.565,0.241-0.969
							C125.728,39.861,125.604,39.54,125.04,39.662z"/>
						<path fill="#E0E0E0" d="M126.488,42.563c-0.445,0.338-0.469,1.314-0.117,1.811c0.398,0,0.802,0,1.204,0
							c0.126-0.38-0.075-1.011,0-1.689C127.38,42.479,126.864,42.586,126.488,42.563z"/>
						<path fill="#E0E0E0" d="M135.185,43.405c-0.603-0.211-1.215-0.403-1.691-0.357c-0.316,0.024-0.603,0.298-0.963,0.237
							c-0.236-0.211-0.348-0.543-0.606-0.722c-0.323,0-0.695-0.048-0.845,0.122c0.115,0.511,0.246,0.916,0.603,1.207
							c0.137,0.111,0.419,0.044,0.601,0.116c0.193,0.081,0.328,0.289,0.487,0.366c0.221,0.109,0.424,0.012,0.603,0.119
							c0.393,0.237,0.342,0.753,0.484,1.213c0.589,0.137,0.934,0.55,1.567,0.478c0.44-0.046,0.608-0.538,1.088-0.478
							c0.639,0.204,0.69,0.996,1.696,0.841c0.189-0.589-0.809-0.937-0.728-1.811C136.777,44.219,136.162,43.758,135.185,43.405z"/>
						<path fill="#E0E0E0" d="M137.843,51.86c-0.114-0.201-0.126-0.558-0.241-0.723c-0.264-0.373-0.641-0.532-0.847-0.969
							c-0.372-0.771-0.335-1.645-0.723-2.05c-0.278-0.288-0.266-0.805-0.725-0.846c-0.698,0.392-0.254,1.924-0.968,2.295
							c-0.752-0.136-1.294-0.478-1.569-1.088c0.105-0.295,0.281-0.522,0.238-0.963c-0.688-0.346-1.406-0.599-2.052-0.362
							c-0.63,0.226-0.663,1.093-1.329,1.205c-0.264-0.095-0.467-0.257-0.842-0.24c-0.608,0.402-0.916,1.098-1.692,1.327
							c-0.387,1.866-2.804,0.993-3.623,2.295c-0.298,0.473-0.373,1.357-0.363,1.933c0.017,0.815,0.417,1.631,0.363,2.539
							c-0.027,0.415-0.38,0.825-0.241,1.326c0.172,0.07,0.295,0.187,0.363,0.363c0.611,0.211,1.14-0.373,1.806-0.485
							c0.275-0.043,0.653,0.095,0.973,0c0.362-0.114,0.64-0.475,0.961-0.601c0.301-0.115,0.75-0.183,1.09-0.244
							c1.483-0.267,2.203,0,2.535,1.207c0.546,0.259,0.946,0.569,1.205,1.091c0.203,0.392,0.159,0.785,0.37,1.204
							c0.464,0.538,1.547,0.465,2.292,0.726c0.293-0.346,0.911-0.38,1.329-0.603c0.38-0.377,0.343-0.863,0.603-1.327
							c0.029-0.048,0.204-0.071,0.243-0.122c0.069-0.095,0.065-0.278,0.117-0.362c0.136-0.203,0.249-0.439,0.365-0.607
							c0.27-0.381,0.656-0.604,0.844-0.963c0.067-0.125,0.094-0.398,0.121-0.484c0.161-0.471,0.435-1.083,0.487-1.568
							c0.149-1.374-0.372-1.836-0.849-2.66C138.022,51.994,137.89,51.943,137.843,51.86z"/>
						<path fill="#E0E0E0" d="M98.108,47.393c-0.37,0.26-0.44,0.657-0.845,0.965c-0.214,0.165-0.561,0.121-0.726,0.244
							c-0.578,0.412-0.345,0.904-0.484,1.689c-0.059,0.325-0.326,0.578-0.358,0.963c-0.059,0.578-0.01,0.894,0.358,1.333
							c1.318,0.269,1.616-1.19,1.934-2.053c0.355-0.968,0.969-2.272,0.484-3.142C98.344,47.393,98.224,47.393,98.108,47.393z"/>
						<path fill="#E0E0E0" d="M146.055,60.318h-0.241c0.069,1.19-0.874,1.385-0.606,2.776c-0.362,0-0.72,0-1.085,0
							c-0.353,0.375-0.646,0.85-1.085,1.207c-0.792,0.647-2.277,0.877-1.815,2.296c1.239,0.565,1.612-0.87,2.053-1.327
							c0.059-0.058,0.305-0.082,0.365-0.121c0.197-0.133,0.27-0.29,0.358-0.485c0.017-0.034,0.213-0.084,0.244-0.12
							c0.328-0.395,0.599-0.746,0.845-1.09c0.46-0.049,0.872-0.352,1.086-0.603c0.127-0.142,0.139-0.354,0.241-0.48
							c0.387-0.47,0.623-0.449,0.606-0.85C146.992,60.963,146.333,60.876,146.055,60.318z"/>
						<path fill="#E0E0E0" d="M133.857,61.885c-0.363,0.339-0.521,1.271-0.121,1.693c0.917,0.034,1.245-0.528,1.209-1.447
							C134.599,62.027,134.197,61.984,133.857,61.885z"/>
					</g>
				</g>
				<g>
					<g>
						<radialGradient id="SVGID_3_" cx="-1.3698" cy="-1.232" r="70.0884" gradientUnits="userSpaceOnUse">
							<stop  offset="0" style="stop-color:#FFCD4D"/>
							<stop  offset="1" style="stop-color:#F6C338"/>
						</radialGradient>
						<path fill="url(#SVGID_3_)" d="M21.515,37.665L8.068,60h6.79c1.609,0,3.604-1.127,4.433-2.511l5.72-9.519
							c0.676-1.396,0.653-3.426-0.119-4.714L21.515,37.665z"/>
						<radialGradient id="SVGID_4_" cx="-1.3687" cy="-1.2303" r="70.0861" gradientUnits="userSpaceOnUse">
							<stop  offset="0" style="stop-color:#0DA960"/>
							<stop  offset="1" style="stop-color:#03914B"/>
						</radialGradient>
						<path fill="url(#SVGID_4_)" d="M15.367,27.491c0.83,1.379,0.83,3.639,0,5.023l-15.1,25.248C-0.318,59.011,0.288,60,1.787,60
							h6.281l13.446-22.335L15.367,27.491z"/>
						<radialGradient id="SVGID_5_" cx="-1.3697" cy="-1.2299" r="70.0847" gradientUnits="userSpaceOnUse">
							<stop  offset="0" style="stop-color:#4387FD"/>
							<stop  offset="1" style="stop-color:#4683EA"/>
						</radialGradient>
						<path fill="url(#SVGID_5_)" d="M1.787,0C0.175,0-0.467,1.133,0.364,2.511l24.529,40.745c0.772,1.287,0.795,3.317,0.119,4.714
							l5.963-9.925L8.071,0H1.787z"/>
						<radialGradient id="SVGID_6_" cx="-1.3683" cy="-1.2298" r="70.0831" gradientUnits="userSpaceOnUse">
							<stop  offset="0" style="stop-color:#E04A3F"/>
							<stop  offset="1" style="stop-color:#CD372D"/>
						</radialGradient>
						<path fill="url(#SVGID_6_)" d="M34.296,27.491L19.291,2.511C18.463,1.133,16.467,0,14.858,0H8.071l22.903,38.045l3.321-5.53
							C35.127,31.13,35.127,28.87,34.296,27.491z"/>
						<linearGradient id="SVGID_7_" gradientUnits="userSpaceOnUse" x1="28.5347" y1="37.7307" x2="11.6509" y2="37.7307">
							<stop  offset="0" style="stop-color:#231F20;stop-opacity:0.2"/>
							<stop  offset="1" style="stop-color:#F1F2F2;stop-opacity:0.25"/>
						</linearGradient>
						<path fill="url(#SVGID_7_)" d="M24.893,43.256l-9.526-15.765c0.83,1.379,0.83,3.639,0,5.023l-3.352,5.583l12.996,9.872
							C25.688,46.574,25.665,44.544,24.893,43.256z"/>
					</g>
				</g>
				<g display="none">
					<g display="inline">
						<path fill="#4D4D4D" d="M113.935,40.062"/>
						<path fill="#4D4D4D" d="M62.241,27.564h12.278v15.347c-3.335,1.144-6.996,1.711-10.999,1.711
							c-4.383,0-7.771-1.271-10.168-3.813c-2.397-2.542-3.589-6.176-3.589-10.891c0-4.589,1.307-8.16,3.932-10.718
							c2.622-2.561,6.291-3.823,11.016-3.823c1.793,0,3.479,0.161,5.066,0.504c1.597,0.334,2.985,0.758,4.167,1.272l-2.444,6.031
							c-2.046-1.011-4.299-1.515-6.753-1.515c-2.235,0-3.974,0.738-5.201,2.191c-1.234,1.461-1.838,3.542-1.838,6.257
							c0,2.66,0.549,4.688,1.667,6.085c1.1,1.398,2.695,2.084,4.788,2.084c1.145,0,2.198-0.1,3.154-0.327v-4.453h-5.074V27.564z"/>
						<path fill="#4D4D4D" d="M94.894,29.675c0-2.615-0.514-4.544-1.542-5.806c-1.028-1.253-2.605-1.885-4.706-1.885H86.41v15.941
							h1.714c2.344,0,4.056-0.677,5.138-2.038C94.353,34.544,94.894,32.461,94.894,29.675 M102.871,29.405
							c0,4.742-1.297,8.403-3.921,10.973c-2.605,2.569-6.283,3.85-11.016,3.85H78.73V15.773h9.844c4.562,0,8.088,1.174,10.574,3.508
							C101.637,21.608,102.871,24.988,102.871,29.405"/>
						<path fill="#4D4D4D" d="M117.802,27.564h12.288v15.347c-3.337,1.144-7.004,1.711-10.999,1.711
							c-4.381,0-7.771-1.271-10.17-3.813c-2.389-2.542-3.586-6.176-3.586-10.891c0-4.589,1.306-8.16,3.929-10.718
							c2.615-2.561,6.291-3.823,11.017-3.823c1.785,0,3.48,0.161,5.076,0.504c1.577,0.334,2.966,0.758,4.147,1.272l-2.432,6.031
							c-2.047-1.011-4.303-1.515-6.753-1.515c-2.247,0-3.976,0.738-5.212,2.191c-1.217,1.461-1.831,3.542-1.831,6.257
							c0,2.66,0.551,4.688,1.659,6.085c1.11,1.398,2.705,2.084,4.796,2.084c1.145,0,2.201-0.1,3.157-0.327v-4.453h-5.086V27.564z"/>
					</g>
				</g>
			</g>
		</g>
		<g>
			<path fill="#4D4D4D" d="M115.764,17.672c0,2.715-0.741,4.808-2.226,6.277c-1.483,1.469-3.569,2.204-6.257,2.204h-5.225V9.88
				h5.589c2.592,0,4.593,0.668,6.003,2.003C115.059,13.22,115.764,15.149,115.764,17.672z M111.236,17.828
				c0-1.492-0.293-2.597-0.878-3.317c-0.586-0.72-1.475-1.08-2.668-1.08h-1.27v9.116h0.972c1.325,0,2.298-0.388,2.916-1.163
				S111.236,19.423,111.236,17.828z"/>
			<path fill="#4D4D4D" d="M123.089,26.375c-2.084,0-3.702-0.558-4.854-1.675c-1.152-1.117-1.729-2.706-1.729-4.769
				c0-2.129,0.533-3.764,1.602-4.903c1.067-1.139,2.592-1.708,4.572-1.708c1.885,0,3.342,0.495,4.369,1.486
				c1.026,0.991,1.54,2.417,1.54,4.279v1.937h-7.721c0.029,0.705,0.285,1.257,0.768,1.658s1.14,0.601,1.972,0.601
				c0.759,0,1.456-0.072,2.094-0.217c0.637-0.145,1.327-0.392,2.07-0.74v3.127c-0.677,0.349-1.377,0.59-2.099,0.724
				C124.952,26.309,124.09,26.375,123.089,26.375z M122.836,16.28c-0.509,0-0.934,0.162-1.276,0.484
				c-0.342,0.323-0.543,0.829-0.602,1.519h3.711c-0.015-0.608-0.186-1.094-0.514-1.458C123.828,16.462,123.387,16.28,122.836,16.28z
				"/>
			<path fill="#4D4D4D" d="M132.954,26.153l-4.771-12.61h4.507l2.12,7.457c0.008,0.037,0.022,0.1,0.045,0.189
				c0.021,0.089,0.044,0.195,0.065,0.317c0.022,0.123,0.043,0.252,0.062,0.39c0.018,0.137,0.027,0.266,0.027,0.384h0.077
				c0-0.385,0.066-0.805,0.199-1.257l2.22-7.479H142l-4.771,12.61H132.954z"/>
			<path fill="#4D4D4D" d="M146.684,26.153h-4.297V9.88h9.543v3.528h-5.246v3.105h4.838v3.528h-4.838V26.153z"/>
			<path fill="#4D4D4D" d="M159.012,26.375c-2.084,0-3.702-0.558-4.854-1.675c-1.152-1.117-1.729-2.706-1.729-4.769
				c0-2.129,0.533-3.764,1.602-4.903c1.067-1.139,2.592-1.708,4.572-1.708c1.885,0,3.342,0.495,4.369,1.486
				c1.026,0.991,1.54,2.417,1.54,4.279v1.937h-7.721c0.029,0.705,0.285,1.257,0.768,1.658s1.14,0.601,1.972,0.601
				c0.759,0,1.456-0.072,2.094-0.217c0.637-0.145,1.327-0.392,2.07-0.74v3.127c-0.677,0.349-1.377,0.59-2.099,0.724
				C160.875,26.309,160.013,26.375,159.012,26.375z M158.758,16.28c-0.509,0-0.934,0.162-1.276,0.484
				c-0.342,0.323-0.543,0.829-0.602,1.519h3.711c-0.015-0.608-0.186-1.094-0.514-1.458C159.751,16.462,159.31,16.28,158.758,16.28z"
				/>
			<path fill="#4D4D4D" d="M175.262,22.279c0,1.351-0.457,2.371-1.37,3.061s-2.224,1.035-3.932,1.035
				c-0.929,0-1.734-0.05-2.419-0.15c-0.686-0.1-1.385-0.284-2.099-0.551V22.19c0.67,0.297,1.404,0.542,2.203,0.735
				s1.512,0.289,2.138,0.289c0.935,0,1.402-0.215,1.402-0.646c0-0.223-0.131-0.421-0.393-0.595c-0.261-0.174-1.021-0.514-2.28-1.019
				c-1.148-0.475-1.951-1.015-2.408-1.62c-0.456-0.604-0.685-1.371-0.685-2.298c0-1.172,0.449-2.085,1.348-2.738
				s2.168-0.979,3.811-0.979c0.824,0,1.6,0.091,2.325,0.272c0.725,0.182,1.478,0.447,2.259,0.796l-1.171,2.805
				c-0.574-0.259-1.182-0.48-1.822-0.662c-0.641-0.182-1.164-0.272-1.568-0.272c-0.707,0-1.061,0.174-1.061,0.523
				c0,0.215,0.123,0.399,0.37,0.551c0.246,0.152,0.959,0.462,2.137,0.93c0.876,0.363,1.53,0.72,1.961,1.068s0.747,0.759,0.95,1.23
				C175.161,21.031,175.262,21.604,175.262,22.279z"/>
			<path fill="#4D4D4D" d="M182.431,22.936c0.582,0,1.277-0.145,2.088-0.434v3.172c-0.582,0.252-1.136,0.432-1.662,0.54
				c-0.527,0.107-1.144,0.162-1.851,0.162c-1.45,0-2.496-0.358-3.137-1.074c-0.641-0.716-0.961-1.816-0.961-3.3v-5.198h-1.514v-1.77
				l1.922-1.369l1.116-2.649h2.827v2.527h3.071v3.261h-3.071v4.908C181.26,22.528,181.651,22.936,182.431,22.936z"/>
		</g>
		<g>
			<path fill="#4D4D4D" d="M59.311,46.105H48.908v-1.868l3.958-3.979c1.169-1.196,1.944-2.045,2.325-2.545
				c0.381-0.501,0.66-0.972,0.834-1.412c0.175-0.441,0.263-0.913,0.263-1.417c0-0.693-0.208-1.239-0.625-1.638
				c-0.417-0.399-0.992-0.599-1.727-0.599c-0.588,0-1.157,0.108-1.706,0.325c-0.549,0.218-1.185,0.609-1.905,1.176l-1.333-1.627
				c0.854-0.721,1.683-1.231,2.488-1.532s1.662-0.452,2.572-0.452c1.428,0,2.572,0.373,3.433,1.118s1.291,1.748,1.291,3.008
				c0,0.692-0.125,1.351-0.373,1.974c-0.249,0.623-0.63,1.265-1.145,1.926c-0.514,0.662-1.37,1.556-2.566,2.683l-2.667,2.582v0.105
				h7.286V46.105z"/>
			<path fill="#4D4D4D" d="M70.293,38.432c0,2.666-0.429,4.647-1.286,5.941c-0.857,1.295-2.168,1.942-3.932,1.942
				c-1.708,0-3.002-0.668-3.884-2.005s-1.323-3.297-1.323-5.879c0-2.708,0.429-4.704,1.286-5.989
				c0.857-1.284,2.164-1.926,3.92-1.926c1.715,0,3.013,0.672,3.895,2.016S70.293,35.843,70.293,38.432z M62.367,38.432
				c0,2.093,0.215,3.587,0.646,4.482c0.43,0.896,1.118,1.344,2.063,1.344c0.945,0,1.636-0.455,2.074-1.364
				c0.437-0.91,0.656-2.397,0.656-4.462c0-2.058-0.219-3.546-0.656-4.467c-0.438-0.92-1.129-1.38-2.074-1.38
				c-0.944,0-1.632,0.451-2.063,1.354C62.582,34.842,62.367,36.339,62.367,38.432z"/>
			<path fill="#4D4D4D" d="M78.114,46.105h-2.467v-9.91c0-1.183,0.028-2.12,0.084-2.813c-0.161,0.168-0.359,0.353-0.593,0.556
				s-1.02,0.847-2.356,1.932l-1.239-1.564l4.514-3.548h2.058V46.105z"/>
			<path fill="#4D4D4D" d="M92.802,42.757h-2.068v3.349H88.33v-3.349h-7.013v-1.9l7.013-10.141h2.404v9.994h2.068V42.757z
				 M88.33,40.71v-3.853c0-1.372,0.035-2.495,0.105-3.37h-0.084c-0.196,0.462-0.504,1.021-0.924,1.68l-3.811,5.543H88.33z"/>
			<path fill="#4D4D4D" d="M107.061,41.938c0,1.365-0.494,2.436-1.48,3.213c-0.987,0.776-2.349,1.165-4.084,1.165
				s-3.156-0.27-4.262-0.809v-2.372c0.699,0.329,1.443,0.588,2.23,0.776c0.787,0.189,1.521,0.284,2.199,0.284
				c0.994,0,1.728-0.189,2.199-0.567c0.473-0.378,0.709-0.885,0.709-1.522c0-0.573-0.217-1.06-0.651-1.459
				c-0.434-0.398-1.329-0.871-2.687-1.417c-1.4-0.566-2.387-1.214-2.961-1.942c-0.574-0.728-0.86-1.603-0.86-2.624
				c0-1.28,0.454-2.288,1.364-3.023c0.91-0.734,2.131-1.103,3.664-1.103c1.47,0,2.932,0.322,4.388,0.966l-0.798,2.048
				c-1.364-0.574-2.582-0.861-3.653-0.861c-0.812,0-1.428,0.177-1.848,0.53s-0.63,0.82-0.63,1.401c0,0.398,0.084,0.74,0.252,1.023
				s0.444,0.551,0.83,0.803c0.385,0.252,1.077,0.585,2.078,0.998c1.127,0.469,1.952,0.906,2.478,1.312
				c0.524,0.406,0.909,0.864,1.154,1.375C106.938,40.644,107.061,41.245,107.061,41.938z"/>
			<path fill="#4D4D4D" d="M113.549,46.315c-1.806,0-3.218-0.526-4.235-1.58c-1.019-1.053-1.528-2.504-1.528-4.352
				c0-1.896,0.473-3.387,1.418-4.472c0.944-1.085,2.242-1.627,3.895-1.627c1.532,0,2.743,0.466,3.632,1.396s1.333,2.211,1.333,3.842
				v1.333h-7.736c0.035,1.127,0.339,1.993,0.913,2.599s1.382,0.908,2.425,0.908c0.686,0,1.324-0.065,1.916-0.194
				c0.592-0.13,1.227-0.345,1.905-0.646v2.005c-0.602,0.287-1.211,0.489-1.826,0.608C115.044,46.256,114.34,46.315,113.549,46.315z
				 M113.098,36.153c-0.784,0-1.412,0.249-1.885,0.746s-0.754,1.221-0.845,2.173h5.27c-0.014-0.959-0.245-1.686-0.692-2.179
				C114.498,36.4,113.881,36.153,113.098,36.153z"/>
			<path fill="#4D4D4D" d="M126.84,46.105l-0.494-1.616h-0.084c-0.56,0.706-1.123,1.188-1.689,1.443
				c-0.567,0.255-1.295,0.383-2.184,0.383c-1.141,0-2.031-0.308-2.672-0.924c-0.641-0.615-0.961-1.487-0.961-2.614
				c0-1.196,0.444-2.1,1.334-2.708c0.889-0.608,2.242-0.941,4.063-0.997l2.005-0.063V38.39c0-0.741-0.173-1.296-0.52-1.664
				c-0.347-0.367-0.884-0.551-1.611-0.551c-0.595,0-1.165,0.088-1.711,0.263s-1.071,0.381-1.575,0.619l-0.798-1.764
				c0.63-0.329,1.319-0.579,2.068-0.751c0.749-0.171,1.455-0.257,2.12-0.257c1.477,0,2.592,0.322,3.344,0.966
				c0.752,0.644,1.129,1.655,1.129,3.034v7.82H126.84z M123.166,44.426c0.896,0,1.615-0.25,2.157-0.751
				c0.543-0.5,0.813-1.201,0.813-2.104v-1.008l-1.49,0.063c-1.162,0.042-2.007,0.236-2.535,0.582
				c-0.528,0.347-0.793,0.877-0.793,1.591c0,0.518,0.154,0.918,0.462,1.202C122.088,44.284,122.55,44.426,123.166,44.426z"/>
			<path fill="#4D4D4D" d="M138.557,42.799c0,1.134-0.413,2.003-1.239,2.608c-0.825,0.605-2.008,0.908-3.548,0.908
				c-1.547,0-2.789-0.234-3.727-0.703v-2.131c1.364,0.63,2.635,0.944,3.811,0.944c1.519,0,2.278-0.458,2.278-1.375
				c0-0.294-0.084-0.539-0.252-0.735c-0.168-0.195-0.444-0.398-0.83-0.608c-0.385-0.21-0.92-0.448-1.605-0.714
				c-1.337-0.518-2.241-1.036-2.714-1.554s-0.709-1.189-0.709-2.016c0-0.993,0.401-1.765,1.202-2.314
				c0.802-0.55,1.892-0.824,3.271-0.824c1.364,0,2.655,0.276,3.873,0.829l-0.798,1.858c-1.253-0.518-2.306-0.777-3.159-0.777
				c-1.302,0-1.953,0.371-1.953,1.113c0,0.364,0.17,0.672,0.51,0.924c0.339,0.252,1.079,0.599,2.22,1.039
				c0.959,0.371,1.655,0.71,2.089,1.019c0.435,0.308,0.756,0.663,0.966,1.065S138.557,42.239,138.557,42.799z"/>
			<path fill="#4D4D4D" d="M150.231,40.279c0,1.896-0.486,3.377-1.459,4.44s-2.327,1.596-4.063,1.596
				c-1.085,0-2.044-0.245-2.876-0.734c-0.833-0.49-1.474-1.193-1.922-2.11c-0.447-0.917-0.672-1.98-0.672-3.191
				c0-1.883,0.483-3.353,1.449-4.409s2.327-1.585,4.083-1.585c1.68,0,3.01,0.541,3.989,1.622
				C149.742,36.988,150.231,38.446,150.231,40.279z M141.781,40.279c0,2.681,0.99,4.021,2.971,4.021c1.959,0,2.939-1.34,2.939-4.021
				c0-2.652-0.987-3.979-2.961-3.979c-1.035,0-1.786,0.343-2.251,1.028C142.013,38.016,141.781,38.999,141.781,40.279z"/>
			<path fill="#4D4D4D" d="M161.99,46.105h-2.478v-7.139c0-0.896-0.18-1.563-0.54-2.005c-0.36-0.44-0.933-0.661-1.717-0.661
				c-1.043,0-1.806,0.308-2.288,0.924c-0.483,0.616-0.725,1.648-0.725,3.097v5.784h-2.467v-11.61h1.932l0.347,1.522h0.126
				c0.35-0.553,0.847-0.98,1.49-1.281s1.357-0.451,2.142-0.451c2.785,0,4.178,1.417,4.178,4.252V46.105z"/>
		</g>
		<g>
			<path fill="#4D4D4D" d="M54.53,17.006h7.024v8.772c-1.908,0.653-4.004,0.979-6.29,0.979c-2.508,0-4.447-0.727-5.816-2.182
				s-2.054-3.529-2.054-6.223c0-2.627,0.75-4.671,2.249-6.134c1.499-1.462,3.599-2.193,6.301-2.193c1.024,0,1.99,0.097,2.899,0.29
				s1.701,0.438,2.377,0.734l-1.392,3.451c-1.173-0.579-2.46-0.869-3.863-0.869c-1.284,0-2.276,0.417-2.978,1.252
				s-1.052,2.028-1.052,3.579c0,1.521,0.317,2.681,0.952,3.479c0.634,0.798,1.549,1.197,2.744,1.197
				c0.653,0,1.254-0.063,1.803-0.189v-2.549H54.53V17.006z"/>
			<path fill="#4D4D4D" d="M77.318,18.052c0,2.716-0.748,4.809-2.243,6.278s-3.597,2.204-6.306,2.204h-5.265V10.26h5.633
				c2.612,0,4.629,0.668,6.05,2.003C76.607,13.6,77.318,15.529,77.318,18.052z M72.754,18.208c0-1.492-0.295-2.597-0.885-3.317
				c-0.59-0.72-1.486-1.08-2.688-1.08H67.9v9.117h0.979c1.336,0,2.315-0.388,2.939-1.164C72.442,20.989,72.754,19.804,72.754,18.208
				z"/>
			<path fill="#4D4D4D" d="M85.4,17.006h7.024v8.772c-1.907,0.653-4.003,0.979-6.289,0.979c-2.508,0-4.447-0.727-5.816-2.182
				s-2.054-3.529-2.054-6.223c0-2.627,0.75-4.671,2.249-6.134c1.499-1.462,3.599-2.193,6.301-2.193c1.024,0,1.99,0.097,2.899,0.29
				s1.701,0.438,2.377,0.734l-1.392,3.451c-1.173-0.579-2.46-0.869-3.863-0.869c-1.284,0-2.276,0.417-2.978,1.252
				s-1.052,2.028-1.052,3.579c0,1.521,0.317,2.681,0.952,3.479c0.634,0.798,1.549,1.197,2.744,1.197
				c0.653,0,1.254-0.063,1.803-0.189v-2.549H85.4V17.006z"/>
		</g>
	</g>
</g>
</svg>
