<?xml version="1.0" encoding="utf-8"?>
<!-- Generator: Adobe Illustrator 17.0.1, SVG Export Plug-In . SVG Version: 6.00 Build 0)  -->
<!DOCTYPE svg PUBLIC "-//W3C//DTD SVG 1.1//EN" "http://www.w3.org/Graphics/SVG/1.1/DTD/svg11.dtd">
<svg version="1.1" id="Layer_1" xmlns="http://www.w3.org/2000/svg" xmlns:xlink="http://www.w3.org/1999/xlink" x="0px" y="0px"
	 width="32px" height="50px" viewBox="0 0 32 50" enable-background="new 0 0 32 50" xml:space="preserve">
<g>
	<path fill="#D84335" d="M2,14.571C2.015,4.083,12.436-2.849,21.83,1.6c8.452,4.002,10.508,13.063,5.409,21.557
		c-4.682,7.799-9.337,15.649-9.972,25.073c-0.056,0.828-0.249,1.529-1.248,1.539c-0.992,0.01-1.207-0.664-1.281-1.504
		C13.952,39.33,10.14,31.6,5.188,24.32C3.262,21.488,1.996,17.52,2,14.571z"/>
	<path fill="#D84335" d="M15.826,20.121c3.407,0.07,5.896-2.291,5.945-5.639c0.048-3.273-2.315-5.797-5.512-5.89
		c-3.425-0.1-5.94,2.227-6.018,5.567C10.16,17.63,12.428,20.051,15.826,20.121z"/>
	<path fill="#912D25" d="M15.826,20.121c-3.399-0.07-5.667-2.491-5.585-5.963c0.078-3.34,2.594-5.667,6.018-5.567
		c3.197,0.093,5.559,2.618,5.512,5.89C21.723,17.83,19.234,20.191,15.826,20.121z"/>
</g>
</svg>
