<?xml version="1.0" encoding="utf-8"?>
<!-- Generated by IcoMoon.io -->
<!DOCTYPE svg PUBLIC "-//W3C//DTD SVG 1.1//EN" "http://www.w3.org/Graphics/SVG/1.1/DTD/svg11.dtd">

<svg version="1.1" xmlns="http://www.w3.org/2000/svg" xmlns:xlink="http://www.w3.org/1999/xlink" width="885" height="32" viewBox="0 0 885 32">
<defs>
<g id="icon-cross">
	<path class="path1" d="M25.333 5.333q0.573 0 0.953 0.38t0.38 0.953q0 0.563-0.385 0.948l-8.396 8.385 8.396 8.385q0.385 0.385 0.385 0.948 0 0.573-0.38 0.953t-0.953 0.38q-0.563 0-0.948-0.385l-8.385-8.396-8.385 8.396q-0.385 0.385-0.948 0.385-0.573 0-0.953-0.38t-0.38-0.953q0-0.563 0.385-0.948l8.396-8.385-8.396-8.385q-0.385-0.385-0.385-0.948 0-0.573 0.38-0.953t0.953-0.38q0.563 0 0.948 0.385l8.385 8.396 8.385-8.396q0.385-0.385 0.948-0.385z"></path>
</g>
<g id="icon-menu">
	<path class="path1" d="M4 6.667h24q0.552 0 0.943 0.391t0.391 0.943-0.391 0.943-0.943 0.391h-24q-0.552 0-0.943-0.391t-0.391-0.943 0.391-0.943 0.943-0.391zM4 22.667h24q0.552 0 0.943 0.391t0.391 0.943-0.391 0.943-0.943 0.391h-24q-0.552 0-0.943-0.391t-0.391-0.943 0.391-0.943 0.943-0.391zM4 14.667h24q0.552 0 0.943 0.391t0.391 0.943-0.391 0.943-0.943 0.391h-24q-0.552 0-0.943-0.391t-0.391-0.943 0.391-0.943 0.943-0.391z"></path>
</g>
<g id="icon-twitter">
	<path class="path1" d="M28.929 7.286q-1.196 1.75-2.893 2.982 0.018 0.25 0.018 0.75 0 2.321-0.679 4.634t-2.063 4.437-3.295 3.759-4.607 2.607-5.768 0.973q-4.839 0-8.857-2.589 0.625 0.071 1.393 0.071 4.018 0 7.161-2.464-1.875-0.036-3.357-1.152t-2.036-2.848q0.589 0.089 1.089 0.089 0.768 0 1.518-0.196-2-0.411-3.313-1.991t-1.313-3.67v-0.071q1.214 0.679 2.607 0.732-1.179-0.786-1.875-2.054t-0.696-2.75q0-1.571 0.786-2.911 2.161 2.661 5.259 4.259t6.634 1.777q-0.143-0.679-0.143-1.321 0-2.393 1.688-4.080t4.080-1.688q2.5 0 4.214 1.821 1.946-0.375 3.661-1.393-0.661 2.054-2.536 3.179 1.661-0.179 3.321-0.893z"></path>
</g>
<g id="icon-facebook">
	<path class="path1" d="M9.125 9.929h4.589l-0.536 5.071h-4.054v14.714h-6.089v-14.714h-3.036v-5.071h3.036v-3.054q0-3.25 1.536-4.92t5.054-1.67h4.054v5.071h-2.536q-0.696 0-1.116 0.116t-0.607 0.42-0.241 0.616-0.054 0.884v2.536z"></path>
</g>
<g id="icon-github">
	<path class="path1" d="M27.429 16q0 4.482-2.616 8.063t-6.759 4.955q-0.482 0.089-0.705-0.125t-0.223-0.536v-3.768q0-1.732-0.929-2.536 1.018-0.107 1.83-0.321t1.679-0.696 1.446-1.188 0.946-1.875 0.366-2.688q0-2.161-1.411-3.679 0.661-1.625-0.143-3.643-0.5-0.161-1.446 0.196t-1.643 0.786l-0.679 0.429q-1.661-0.464-3.429-0.464t-3.429 0.464q-0.286-0.196-0.759-0.482t-1.491-0.688-1.536-0.241q-0.786 2.018-0.125 3.643-1.411 1.518-1.411 3.679 0 1.518 0.366 2.679t0.938 1.875 1.438 1.196 1.679 0.696 1.83 0.321q-0.714 0.643-0.875 1.839-0.375 0.179-0.804 0.268t-1.018 0.089-1.17-0.384-0.991-1.116q-0.339-0.571-0.866-0.929t-0.884-0.429l-0.357-0.054q-0.375 0-0.518 0.080t-0.089 0.205 0.161 0.25 0.232 0.214l0.125 0.089q0.393 0.179 0.777 0.679t0.563 0.911l0.179 0.411q0.232 0.679 0.786 1.098t1.196 0.536 1.241 0.125 0.991-0.063l0.411-0.071q0 0.679 0.009 1.589t0.009 0.964q0 0.321-0.232 0.536t-0.714 0.125q-4.143-1.375-6.759-4.955t-2.616-8.063q0-3.732 1.839-6.884t4.991-4.991 6.884-1.839 6.884 1.839 4.991 4.991 1.839 6.884z"></path>
</g>
<g id="icon-site">
	<path class="path1" d="M26 21.714q0-0.714-0.5-1.214l-3.714-3.714q-0.5-0.5-1.214-0.5-0.75 0-1.286 0.571 0.054 0.054 0.339 0.33t0.384 0.384 0.268 0.339 0.232 0.455 0.063 0.491q0 0.714-0.5 1.214t-1.214 0.5q-0.268 0-0.491-0.063t-0.455-0.232-0.339-0.268-0.384-0.384-0.33-0.339q-0.589 0.554-0.589 1.304 0 0.714 0.5 1.214l3.679 3.696q0.482 0.482 1.214 0.482 0.714 0 1.214-0.464l2.625-2.607q0.5-0.5 0.5-1.196zM13.446 9.125q0-0.714-0.5-1.214l-3.679-3.696q-0.5-0.5-1.214-0.5-0.696 0-1.214 0.482l-2.625 2.607q-0.5 0.5-0.5 1.196 0 0.714 0.5 1.214l3.714 3.714q0.482 0.482 1.214 0.482 0.75 0 1.286-0.554-0.054-0.054-0.339-0.33t-0.384-0.384-0.268-0.339-0.232-0.455-0.063-0.491q0-0.714 0.5-1.214t1.214-0.5q0.268 0 0.491 0.063t0.455 0.232 0.339 0.268 0.384 0.384 0.33 0.339q0.589-0.554 0.589-1.304zM29.429 21.714q0 2.143-1.518 3.625l-2.625 2.607q-1.482 1.482-3.625 1.482-2.161 0-3.643-1.518l-3.679-3.696q-1.482-1.482-1.482-3.625 0-2.196 1.571-3.732l-1.571-1.571q-1.536 1.571-3.714 1.571-2.143 0-3.643-1.5l-3.714-3.714q-1.5-1.5-1.5-3.643t1.518-3.625l2.625-2.607q1.482-1.482 3.625-1.482 2.161 0 3.643 1.518l3.679 3.696q1.482 1.482 1.482 3.625 0 2.196-1.571 3.732l1.571 1.571q1.536-1.571 3.714-1.571 2.143 0 3.643 1.5l3.714 3.714q1.5 1.5 1.5 3.643z"></path>
</g>
<g id="icon-google-plus">
	<path class="path1" d="M15.643 26.161q0-0.375-0.080-0.723t-0.17-0.643-0.313-0.616-0.375-0.545-0.473-0.527-0.491-0.455-0.571-0.455-0.554-0.411-0.589-0.411-0.545-0.375q-0.304-0.036-0.893-0.036-0.964 0-1.893 0.125t-1.929 0.446-1.75 0.821-1.232 1.339-0.482 1.911q0 1.214 0.634 2.17t1.661 1.5 2.152 0.813 2.268 0.268q1.054 0 2.009-0.223t1.795-0.696 1.33-1.313 0.491-1.964zM13.5 10.768q0-1.071-0.295-2.277t-0.839-2.33-1.5-1.857-2.134-0.732q-1.661 0-2.571 1.232t-0.911 2.946q0 0.839 0.205 1.768t0.634 1.857 1 1.67 1.393 1.205 1.732 0.464q1.732 0 2.509-1.080t0.777-2.866zM11.161 2.286h7.804l-2.411 1.411h-2.411q1.268 0.804 1.964 2.25t0.696 3.018q0 1.321-0.411 2.348t-1 1.652-1.179 1.152-1 1.089-0.411 1.205q0 0.464 0.295 0.911t0.768 0.857 1.045 0.857 1.143 0.991 1.045 1.179 0.768 1.518 0.295 1.902q0 2.857-2.5 5.036-2.714 2.339-7.5 2.339-1.054 0-2.134-0.179t-2.179-0.598-1.938-1.036-1.375-1.589-0.536-2.17q0-1.089 0.661-2.411 0.571-1.143 1.714-1.973t2.589-1.268 2.768-0.643 2.679-0.241q-1.143-1.482-1.143-2.661 0-0.214 0.036-0.42t0.089-0.348 0.143-0.384 0.125-0.384q-0.714 0.089-1.25 0.089-2.661 0-4.563-1.75t-1.902-4.393q0-2.5 1.696-4.473t4.179-2.527q1.679-0.357 3.339-0.357zM29.714 6.857v2.286h-4.571v4.571h-2.286v-4.571h-4.571v-2.286h4.571v-4.571h2.286v4.571h4.571z"></path>
</g>
<g id="icon-email">
	<path class="path1" d="M32 12.679v14.179q0 1.179-0.839 2.018t-2.018 0.839h-26.286q-1.179 0-2.018-0.839t-0.839-2.018v-14.179q0.786 0.875 1.804 1.554 6.464 4.393 8.875 6.161 1.018 0.75 1.652 1.17t1.688 0.857 1.964 0.438h0.036q0.911 0 1.964-0.438t1.688-0.857 1.652-1.17q3.036-2.196 8.893-6.161 1.018-0.696 1.786-1.554zM32 7.429q0 1.411-0.875 2.696t-2.179 2.196q-6.714 4.661-8.357 5.804-0.179 0.125-0.759 0.545t-0.964 0.679-0.929 0.58-1.027 0.482-0.893 0.161h-0.036q-0.411 0-0.893-0.161t-1.027-0.482-0.929-0.58-0.964-0.679-0.759-0.545q-1.625-1.143-4.679-3.259t-3.661-2.545q-1.107-0.75-2.089-2.063t-0.982-2.438q0-1.393 0.741-2.321t2.116-0.929h26.286q1.161 0 2.009 0.839t0.848 2.018z"></path>
</g>
<g id="icon-linkedin">
	<path class="path1" d="M6.232 11.161v17.696h-5.893v-17.696h5.893zM6.607 5.696q0.018 1.304-0.902 2.179t-2.42 0.875h-0.036q-1.464 0-2.357-0.875t-0.893-2.179q0-1.321 0.92-2.188t2.402-0.866 2.375 0.866 0.911 2.188zM27.429 18.714v10.143h-5.875v-9.464q0-1.875-0.723-2.938t-2.259-1.063q-1.125 0-1.884 0.616t-1.134 1.527q-0.196 0.536-0.196 1.446v9.875h-5.875q0.036-7.125 0.036-11.554t-0.018-5.286l-0.018-0.857h5.875v2.571h-0.036q0.357-0.571 0.732-1t1.009-0.929 1.554-0.777 2.045-0.277q3.054 0 4.911 2.027t1.857 5.938z"></path>
</g>
<g id="icon-location-arrow">
	<path class="path1" d="M25.018 6.232l-11.429 22.857q-0.304 0.625-1.018 0.625-0.089 0-0.268-0.036-0.393-0.089-0.634-0.402t-0.241-0.705v-10.286h-10.286q-0.393 0-0.705-0.241t-0.402-0.634 0.071-0.75 0.518-0.536l22.857-11.429q0.232-0.125 0.518-0.125 0.482 0 0.804 0.339 0.268 0.25 0.33 0.616t-0.116 0.705z"></path>
</g>
<g id="icon-youtube">
	<path class="path1" d="M22.857 16q0-0.661-0.536-0.964l-9.143-5.714q-0.554-0.357-1.161-0.036-0.589 0.321-0.589 1v11.429q0 0.679 0.589 1 0.286 0.143 0.554 0.143 0.357 0 0.607-0.179l9.143-5.714q0.536-0.304 0.536-0.964zM32 16q0 1.714-0.018 2.679t-0.152 2.438-0.402 2.634q-0.286 1.304-1.232 2.196t-2.214 1.036q-3.964 0.446-11.982 0.446t-11.982-0.446q-1.268-0.143-2.223-1.036t-1.241-2.196q-0.25-1.161-0.384-2.634t-0.152-2.438-0.018-2.679 0.018-2.679 0.152-2.438 0.402-2.634q0.286-1.304 1.232-2.196t2.214-1.036q3.964-0.446 11.982-0.446t11.982 0.446q1.268 0.143 2.223 1.036t1.241 2.196q0.25 1.161 0.384 2.634t0.152 2.438 0.018 2.679z"></path>
</g>
<g id="icon-stack-overflow">
	<path class="path1" d="M16.571 25.018v2.696l-12.625 0.018v-2.696zM20.875 18.839v12.518l-0.018 0.625v0.018l-20.857-0.018v-13.143h2.161v11.036h16.571v-11.036h2.143zM4.304 20.411l12.571 1.161-0.232 2.679-12.589-1.161zM5.518 14.768l12.196 3.268-0.696 2.607-12.196-3.268zM8.429 8.536l10.875 6.429-1.375 2.321-10.875-6.429zM14.857 2.625l7.107 10.446-2.214 1.518-7.125-10.429zM22.946 0l2.161 12.446-2.661 0.464-2.161-12.446z"></path>
</g>
<g id="icon-vk">
	<path class="path1" d="M34.232 9.286q0.411 1.143-2.679 5.25-0.429 0.571-1.161 1.518-1.393 1.786-1.607 2.339-0.304 0.732 0.25 1.446 0.304 0.375 1.446 1.464h0.018l0.071 0.071q2.518 2.339 3.411 3.946 0.054 0.089 0.116 0.223t0.125 0.473-0.009 0.607-0.446 0.491-1.054 0.223l-4.571 0.071q-0.429 0.089-1-0.089t-0.929-0.393l-0.357-0.214q-0.536-0.375-1.25-1.143t-1.223-1.384-1.089-1.036-1.009-0.277q-0.054 0.018-0.143 0.063t-0.304 0.259-0.384 0.527-0.304 0.929-0.116 1.384q0 0.268-0.063 0.491t-0.134 0.33l-0.071 0.089q-0.321 0.339-0.946 0.393h-2.054q-1.268 0.071-2.607-0.295t-2.348-0.946-1.839-1.179-1.259-1.027l-0.446-0.429q-0.179-0.179-0.491-0.536t-1.277-1.625-1.893-2.696-2.188-3.768-2.33-4.857q-0.107-0.286-0.107-0.482t0.054-0.286l0.071-0.107q0.268-0.339 1.018-0.339l4.893-0.036q0.214 0.036 0.411 0.116t0.286 0.152l0.089 0.054q0.286 0.196 0.429 0.571 0.357 0.893 0.821 1.848t0.732 1.455l0.286 0.518q0.518 1.071 1 1.857t0.866 1.223 0.741 0.688 0.607 0.25 0.482-0.089q0.036-0.018 0.089-0.089t0.214-0.393 0.241-0.839 0.17-1.446 0-2.232q-0.036-0.714-0.161-1.304t-0.25-0.821l-0.107-0.214q-0.446-0.607-1.518-0.768-0.232-0.036 0.089-0.429 0.304-0.339 0.679-0.536 0.946-0.464 4.268-0.429 1.464 0.018 2.411 0.232 0.357 0.089 0.598 0.241t0.366 0.429 0.188 0.571 0.063 0.813-0.018 0.982-0.045 1.259-0.027 1.473q0 0.196-0.018 0.75t-0.009 0.857 0.063 0.723 0.205 0.696 0.402 0.438q0.143 0.036 0.304 0.071t0.464-0.196 0.679-0.616 0.929-1.196 1.214-1.92q1.071-1.857 1.911-4.018 0.071-0.179 0.179-0.313t0.196-0.188l0.071-0.054 0.089-0.045t0.232-0.054 0.357-0.009l5.143-0.036q0.696-0.089 1.143 0.045t0.554 0.295z"></path>
</g>
<g id="icon-arrow-down">
	<path class="path1" d="M4.131 8.962c-0.434-0.429-1.134-0.429-1.566 0-0.432 0.427-0.432 1.122 0 1.55l12.653 12.528c0.434 0.429 1.133 0.429 1.566 0l12.653-12.528c0.432-0.429 0.434-1.122 0-1.55s-1.136-0.429-1.566-0.002l-11.87 11.426-11.869-11.424z"></path>
</g>
<g id="icon-direction">
	<path class="path1" d="M28,4.33H17.62l3.117,3.117l-7.356,7.356h-0.01V27.67h5.593V17.13l5.728-5.728L28,14.709V4.33z
	 M12.824,17.109L4,8.285L7.955,4.33l7.632,7.632l-2.752,2.752h-0.011V17.109z"></path>
</g>
<g id="icon-driving">
	<path class="path1" d="M3.131,23.145h25.738v4.313h-4.286v-2.876H7.44v2.876h-4.31V23.145z M28.869,14.571v7.347H3.131v-7.347
	L7.82,4.5H24.18L28.869,14.571z M8.877,16.03H6.004v2.873h2.873V16.03z M26.116,16.03h-2.873v2.873h2.873V16.03z M26.616,13.134
	l-3.352-7.198H8.736l-3.352,7.198H26.616z"></path>
</g>
<g id="icon-transit">
	<path class="path1" d="M26,25.488v1.368h-3.953v1.368H9.953v-1.368H6v-1.368H26z M26,4.169v19.958H6V4.169H26z M12.688,6.856h6.667
	V5.523h-6.667V6.856z M11.365,20.179h-1.323v-1.323H8.688v1.323H7.365v1.354h1.323v1.323h1.354v-1.323h1.323V20.179z M15.375,8.183
	H7.347v8.028h8.028V8.183z M24.698,20.179h-1.323v-1.323h-1.354v1.323h-1.323v1.354h1.323v1.323h1.354v-1.323h1.323V20.179z
	 M24.736,8.183h-8.028v8.028h8.028V8.183z"></path>
</g>
<g id="icon-walking">
	<path class="path1" d="M22.703,15.611c-0.39,0.382-1.016,0.375-1.398-0.014l-3.425-3.495l-1.907,5.082l3.497,3.492
	c0.127,0.127,0.203,0.277,0.256,0.434c0.022,0.05,0.082,6.67,0.082,6.67c0,0.526-0.439,0.953-0.98,0.953s-0.98-0.427-0.98-0.953
	v-5.946c0,0-3.308-3.14-3.406-3.16l-3.479,9.269c-0.225,0.6-0.828,0.929-1.346,0.734c-0.518-0.195-0.755-0.839-0.53-1.439
	l6.263-16.685l-2.947,0.644v2.998c0,0.498-0.442,0.901-0.987,0.901c-0.545,0-0.988-0.403-0.988-0.901V10.66
	c-0.004-0.014-0.015-0.024-0.018-0.038c-0.116-0.533,0.302-1.077,0.934-1.215c0,0,4.813-1.044,4.83-1.047l0.129-0.344
	c0.064-0.172,0.328-0.241,0.672-0.226c0.157-0.028,0.786,0.147,0.898,0.189c0.753,0.283,1.271,0.758,1.158,1.061l-0.383,1.02
	l4.072,4.155C23.1,14.604,23.093,15.23,22.703,15.611z M19.415,7.842c1.155,0,2.091-0.936,2.091-2.091S20.57,3.66,19.415,3.66
	c-1.155,0-2.091,0.936-2.091,2.091S18.26,7.842,19.415,7.842z"></path>
</g>
<g id="icon-bicycling">
	<path class="path1" d="M24.491,17.385c-3.043,0-5.509,2.467-5.509,5.509s2.467,5.509,5.509,5.509S30,25.937,30,22.894
	S27.533,17.385,24.491,17.385z M24.491,26.848c-2.18,0-3.954-1.774-3.954-3.954c0-2.18,1.774-3.954,3.954-3.954
	s3.954,1.774,3.954,3.954C28.445,25.074,26.671,26.848,24.491,26.848z M16.595,18.056v6.21c0,0.535-0.493,0.968-1.101,0.968
	c-0.608,0-1.101-0.434-1.101-0.968v-5.413c0,0-4.49-2.997-4.552-3.059c-0.515-0.523-0.514-1.357,0.002-1.864l5.677-5.575
	c0.516-0.507,1.353-0.494,1.868,0.028c0.166,0.168,3.439,4.454,3.439,4.454h3.43c0.608,0,1.101,0.493,1.101,1.101
	c0,0.608-0.493,1.101-1.101,1.101h-3.984c-0.439,0-1.064-0.693-1.096-0.733l-2.618-3.247l-4.004,3.932
	C12.554,14.992,16.595,17.623,16.595,18.056z M7.509,17.166C4.467,17.166,2,19.633,2,22.675s2.467,5.509,5.509,5.509
	s5.509-2.467,5.509-5.509S10.552,17.166,7.509,17.166z M7.509,26.63c-2.18,0-3.954-1.774-3.954-3.954
	c0-2.18,1.774-3.954,3.954-3.954s3.954,1.774,3.954,3.954C11.464,24.856,9.69,26.63,7.509,26.63z M16.577,5.929
	c0-1.288,1.044-2.332,2.332-2.332s2.332,1.044,2.332,2.332s-1.044,2.332-2.332,2.332S16.577,7.217,16.577,5.929z"></path>
</g>
<g id="icon-flight">
	<path class="path1" d="M24.571 2.857q0.786 0.929 0.214 2.643t-1.929 3.071l-2.875 2.875 2.857 12.429q0.089 0.339-0.214 0.589l-2.286 1.714q-0.125 0.107-0.339 0.107-0.071 0-0.125-0.018-0.268-0.054-0.375-0.286l-4.982-9.071-4.625 4.625 0.946 3.464q0.089 0.304-0.143 0.554l-1.714 1.714q-0.161 0.161-0.411 0.161h-0.036q-0.268-0.036-0.429-0.232l-3.375-4.5-4.5-3.375q-0.196-0.125-0.232-0.411-0.018-0.232 0.161-0.446l1.714-1.732q0.161-0.161 0.411-0.161 0.107 0 0.143 0.018l3.464 0.946 4.625-4.625-9.071-4.982q-0.25-0.143-0.304-0.429-0.036-0.286 0.161-0.482l2.286-2.286q0.25-0.232 0.536-0.143l11.875 2.839 2.857-2.857q1.357-1.357 3.071-1.929t2.643 0.214z"></path>
</g>
<g id="icon-flag">
	<path class="path1" d="M5.714 4.571q0 1.286-1.143 1.964v22.607q0 0.232-0.17 0.402t-0.402 0.17h-1.143q-0.232 0-0.402-0.17t-0.17-0.402v-22.607q-1.143-0.679-1.143-1.964 0-0.946 0.67-1.616t1.616-0.67 1.616 0.67 0.67 1.616zM32 5.714v13.625q0 0.446-0.223 0.688t-0.705 0.491q-3.839 2.071-6.589 2.071-1.089 0-2.205-0.393t-1.938-0.857-2.063-0.857-2.545-0.393q-3.429 0-8.286 2.607-0.304 0.161-0.589 0.161-0.464 0-0.804-0.339t-0.339-0.804v-13.25q0-0.571 0.554-0.982 0.375-0.25 1.411-0.768 4.214-2.143 7.518-2.143 1.911 0 3.571 0.518t3.911 1.571q0.679 0.339 1.571 0.339 0.964 0 2.098-0.375t1.964-0.839 1.571-0.839 0.973-0.375q0.464 0 0.804 0.339t0.339 0.804z"></path>
</g>
</defs>

<g fill="#464646">
	<use xlink:href="#icon-cross" transform="translate(0 0)"></use>
	<use xlink:href="#icon-menu" transform="translate(48 0)"></use>
	<use xlink:href="#icon-twitter" transform="translate(96 0)"></use>
	<use xlink:href="#icon-facebook" transform="translate(142 0)"></use>
	<use xlink:href="#icon-github" transform="translate(172 0)"></use>
	<use xlink:href="#icon-site" transform="translate(220 0)"></use>
	<use xlink:href="#icon-google-plus" transform="translate(266 0)"></use>
	<use xlink:href="#icon-email" transform="translate(312 0)"></use>
	<use xlink:href="#icon-linkedin" transform="translate(360 0)"></use>
	<use xlink:href="#icon-location-arrow" transform="translate(408 0)"></use>
	<use xlink:href="#icon-youtube" transform="translate(449 0)"></use>
	<use xlink:href="#icon-stack-overflow" transform="translate(497 0)"></use>
	<use xlink:href="#icon-vk" transform="translate(538 0)"></use>
	<use xlink:href="#icon-arrow-down" transform="translate(588 0)"></use>
	<use xlink:href="#icon-direction" transform="translate(628 0)"></use>
	<use xlink:href="#icon-driving" transform="translate(668 0)"></use>
	<use xlink:href="#icon-transit" transform="translate(708 0)"></use>
	<use xlink:href="#icon-walking" transform="translate(738 0)"></use>
	<use xlink:href="#icon-bicycling" transform="translate(770 0)"></use>
	<use xlink:href="#icon-flight" transform="translate(810 0)"></use>
	<use xlink:href="#icon-flag" transform="translate(845 0)"></use>
</g>

</svg>
