<?xml version="1.0" encoding="utf-8"?>
<!-- Generated by IcoMoon.io -->
<!DOCTYPE svg PUBLIC "-//W3C//DTD SVG 1.1//EN" "http://www.w3.org/Graphics/SVG/1.1/DTD/svg11.dtd">

<svg version="1.1" xmlns="http://www.w3.org/2000/svg" xmlns:xlink="http://www.w3.org/1999/xlink" width="387" height="32" viewBox="0 0 387 32">
<defs>
<g id="icon-menu">
	<path class="path1" d="M4 6.667h24q0.552 0 0.943 0.391t0.391 0.943-0.391 0.943-0.943 0.391h-24q-0.552 0-0.943-0.391t-0.391-0.943 0.391-0.943 0.943-0.391zM4 22.667h24q0.552 0 0.943 0.391t0.391 0.943-0.391 0.943-0.943 0.391h-24q-0.552 0-0.943-0.391t-0.391-0.943 0.391-0.943 0.943-0.391zM4 14.667h24q0.552 0 0.943 0.391t0.391 0.943-0.391 0.943-0.943 0.391h-24q-0.552 0-0.943-0.391t-0.391-0.943 0.391-0.943 0.943-0.391z"></path>
</g>
<g id="icon-twitter">
	<path class="path1" d="M28.929 7.286q-1.196 1.75-2.893 2.982 0.018 0.25 0.018 0.75 0 2.321-0.679 4.634t-2.063 4.437-3.295 3.759-4.607 2.607-5.768 0.973q-4.839 0-8.857-2.589 0.625 0.071 1.393 0.071 4.018 0 7.161-2.464-1.875-0.036-3.357-1.152t-2.036-2.848q0.589 0.089 1.089 0.089 0.768 0 1.518-0.196-2-0.411-3.313-1.991t-1.313-3.67v-0.071q1.214 0.679 2.607 0.732-1.179-0.786-1.875-2.054t-0.696-2.75q0-1.571 0.786-2.911 2.161 2.661 5.259 4.259t6.634 1.777q-0.143-0.679-0.143-1.321 0-2.393 1.688-4.080t4.080-1.688q2.5 0 4.214 1.821 1.946-0.375 3.661-1.393-0.661 2.054-2.536 3.179 1.661-0.179 3.321-0.893z"></path>
</g>
<g id="icon-facebook">
	<path class="path1" d="M9.125 9.929h4.589l-0.536 5.071h-4.054v14.714h-6.089v-14.714h-3.036v-5.071h3.036v-3.054q0-3.25 1.536-4.92t5.054-1.67h4.054v5.071h-2.536q-0.696 0-1.116 0.116t-0.607 0.42-0.241 0.616-0.054 0.884v2.536z"></path>
</g>
<g id="icon-github">
	<path class="path1" d="M27.429 16q0 4.482-2.616 8.063t-6.759 4.955q-0.482 0.089-0.705-0.125t-0.223-0.536v-3.768q0-1.732-0.929-2.536 1.018-0.107 1.83-0.321t1.679-0.696 1.446-1.188 0.946-1.875 0.366-2.688q0-2.161-1.411-3.679 0.661-1.625-0.143-3.643-0.5-0.161-1.446 0.196t-1.643 0.786l-0.679 0.429q-1.661-0.464-3.429-0.464t-3.429 0.464q-0.286-0.196-0.759-0.482t-1.491-0.688-1.536-0.241q-0.786 2.018-0.125 3.643-1.411 1.518-1.411 3.679 0 1.518 0.366 2.679t0.938 1.875 1.438 1.196 1.679 0.696 1.83 0.321q-0.714 0.643-0.875 1.839-0.375 0.179-0.804 0.268t-1.018 0.089-1.17-0.384-0.991-1.116q-0.339-0.571-0.866-0.929t-0.884-0.429l-0.357-0.054q-0.375 0-0.518 0.080t-0.089 0.205 0.161 0.25 0.232 0.214l0.125 0.089q0.393 0.179 0.777 0.679t0.563 0.911l0.179 0.411q0.232 0.679 0.786 1.098t1.196 0.536 1.241 0.125 0.991-0.063l0.411-0.071q0 0.679 0.009 1.589t0.009 0.964q0 0.321-0.232 0.536t-0.714 0.125q-4.143-1.375-6.759-4.955t-2.616-8.063q0-3.732 1.839-6.884t4.991-4.991 6.884-1.839 6.884 1.839 4.991 4.991 1.839 6.884z"></path>
</g>
<g id="icon-google-plus">
	<path class="path1" d="M15.643 26.161q0-0.375-0.080-0.723t-0.17-0.643-0.313-0.616-0.375-0.545-0.473-0.527-0.491-0.455-0.571-0.455-0.554-0.411-0.589-0.411-0.545-0.375q-0.304-0.036-0.893-0.036-0.964 0-1.893 0.125t-1.929 0.446-1.75 0.821-1.232 1.339-0.482 1.911q0 1.214 0.634 2.17t1.661 1.5 2.152 0.813 2.268 0.268q1.054 0 2.009-0.223t1.795-0.696 1.33-1.313 0.491-1.964zM13.5 10.768q0-1.071-0.295-2.277t-0.839-2.33-1.5-1.857-2.134-0.732q-1.661 0-2.571 1.232t-0.911 2.946q0 0.839 0.205 1.768t0.634 1.857 1 1.67 1.393 1.205 1.732 0.464q1.732 0 2.509-1.080t0.777-2.866zM11.161 2.286h7.804l-2.411 1.411h-2.411q1.268 0.804 1.964 2.25t0.696 3.018q0 1.321-0.411 2.348t-1 1.652-1.179 1.152-1 1.089-0.411 1.205q0 0.464 0.295 0.911t0.768 0.857 1.045 0.857 1.143 0.991 1.045 1.179 0.768 1.518 0.295 1.902q0 2.857-2.5 5.036-2.714 2.339-7.5 2.339-1.054 0-2.134-0.179t-2.179-0.598-1.938-1.036-1.375-1.589-0.536-2.17q0-1.089 0.661-2.411 0.571-1.143 1.714-1.973t2.589-1.268 2.768-0.643 2.679-0.241q-1.143-1.482-1.143-2.661 0-0.214 0.036-0.42t0.089-0.348 0.143-0.384 0.125-0.384q-0.714 0.089-1.25 0.089-2.661 0-4.563-1.75t-1.902-4.393q0-2.5 1.696-4.473t4.179-2.527q1.679-0.357 3.339-0.357zM29.714 6.857v2.286h-4.571v4.571h-2.286v-4.571h-4.571v-2.286h4.571v-4.571h2.286v4.571h4.571z"></path>
</g>
<g id="icon-location-arrow">
	<path class="path1" d="M25.018 6.232l-11.429 22.857q-0.304 0.625-1.018 0.625-0.089 0-0.268-0.036-0.393-0.089-0.634-0.402t-0.241-0.705v-10.286h-10.286q-0.393 0-0.705-0.241t-0.402-0.634 0.071-0.75 0.518-0.536l22.857-11.429q0.232-0.125 0.518-0.125 0.482 0 0.804 0.339 0.268 0.25 0.33 0.616t-0.116 0.705z"></path>
</g>
<g id="icon-youtube-play">
	<path class="path1" d="M22.857 16q0-0.661-0.536-0.964l-9.143-5.714q-0.554-0.357-1.161-0.036-0.589 0.321-0.589 1v11.429q0 0.679 0.589 1 0.286 0.143 0.554 0.143 0.357 0 0.607-0.179l9.143-5.714q0.536-0.304 0.536-0.964zM32 16q0 1.714-0.018 2.679t-0.152 2.438-0.402 2.634q-0.286 1.304-1.232 2.196t-2.214 1.036q-3.964 0.446-11.982 0.446t-11.982-0.446q-1.268-0.143-2.223-1.036t-1.241-2.196q-0.25-1.161-0.384-2.634t-0.152-2.438-0.018-2.679 0.018-2.679 0.152-2.438 0.402-2.634q0.286-1.304 1.232-2.196t2.214-1.036q3.964-0.446 11.982-0.446t11.982 0.446q1.268 0.143 2.223 1.036t1.241 2.196q0.25 1.161 0.384 2.634t0.152 2.438 0.018 2.679z"></path>
</g>
<g id="icon-location">
	<path class="path1" d="M16 0c-5.523 0-10 4.477-10 10 0 10 10 22 10 22s10-12 10-22c0-5.523-4.477-10-10-10zM16 16c-3.314 0-6-2.686-6-6s2.686-6 6-6 6 2.686 6 6-2.686 6-6 6z"></path>
</g>
<g id="icon-arrow-down">
	<path class="path1" d="M4.131 8.962c-0.434-0.429-1.134-0.429-1.566 0-0.432 0.427-0.432 1.122 0 1.55l12.653 12.528c0.434 0.429 1.133 0.429 1.566 0l12.653-12.528c0.432-0.429 0.434-1.122 0-1.55s-1.136-0.429-1.566-0.002l-11.87 11.426-11.869-11.424z"></path>
</g>
</defs>

<g fill="#464646">
	<use xlink:href="#icon-menu" transform="translate(0 0)"></use>
	<use xlink:href="#icon-twitter" transform="translate(48 0)"></use>
	<use xlink:href="#icon-facebook" transform="translate(94 0)"></use>
	<use xlink:href="#icon-github" transform="translate(124 0)"></use>
	<use xlink:href="#icon-google-plus" transform="translate(172 0)"></use>
	<use xlink:href="#icon-location-arrow" transform="translate(218 0)"></use>
	<use xlink:href="#icon-youtube-play" transform="translate(259 0)"></use>
	<use xlink:href="#icon-location" transform="translate(307 0)"></use>
	<use xlink:href="#icon-arrow-down" transform="translate(355 0)"></use>
</g>

</svg>
