<svg xmlns="http://www.w3.org/2000/svg" width="153.029" height="60" viewBox="0 0 153.029 60"><path fill="#F16924" d="M136.52 16.069c.444-.736.102-1.341-.76-1.341h-6.978c-.859 0-1.924.605-2.367 1.341l-8.011 13.336c-.443.736-.443 1.943 0 2.682l1.773 2.953 3.184 5.298 3.054 5.082c.442.739 1.508 1.341 2.367 1.341h6.979c.801 0 1.123-.528.812-1.194l-8.062-13.48c-.443-.739-.443-1.946 0-2.682"/><radialGradient id="a" cx="112.587" cy="40.799" r="5.348" gradientUnits="userSpaceOnUse"><stop offset="0" stop-color="#FFCE4E"/><stop offset="1" stop-color="#F5C337"/></radialGradient><path fill="url(#a)" d="M107.935 46.761h3.626c.858 0 1.924-.602 2.366-1.341l3.053-5.082c.361-.745.349-1.829-.063-2.516l-1.804-2.985-7.178 11.924z"/><radialGradient id="b" cx="109.383" cy="38.083" r="7.353" gradientUnits="userSpaceOnUse"><stop offset="0" stop-color="#0DA960"/><stop offset="1" stop-color="#05924B"/></radialGradient><path fill="url(#b)" d="M111.832 32.087l-8.062 13.48c-.312.667.012 1.194.811 1.194h3.354l7.179-11.924-3.282-5.431c.443.735.443 1.942 0 2.681"/><radialGradient id="c" cx="111.896" cy="27.533" r="10.778" gradientUnits="userSpaceOnUse"><stop offset="0" stop-color="#577EC0"/><stop offset="1" stop-color="#557EBF"/></radialGradient><path fill="url(#c)" d="M104.581 14.728c-.862 0-1.203.605-.76 1.34l13.096 21.753c.412.687.425 1.771.063 2.516l3.184-5.299-12.228-20.311h-3.355z"/><radialGradient id="d" cx="115.103" cy="24.884" r="8.789" gradientUnits="userSpaceOnUse"><stop offset="0" stop-color="#E04B3F"/><stop offset="1" stop-color="#CD382D"/></radialGradient><path fill="url(#d)" d="M107.937 14.728l12.228 20.311 1.773-2.953c.442-.739.442-1.946 0-2.682l-8.011-13.337c-.443-.736-1.509-1.34-2.366-1.34h-3.624z"/><g fill="#4D4D4D"><path d="M13.3 28.035h13.085v16.358c-3.553 1.219-7.454 1.822-11.723 1.822-4.67 0-8.281-1.354-10.836-4.062-2.554-2.711-3.826-6.583-3.826-11.607 0-4.892 1.396-8.697 4.191-11.425 2.795-2.728 6.707-4.074 11.74-4.074 1.912 0 3.708.173 5.4.537 1.702.356 3.182.809 4.441 1.357l-2.604 6.427c-2.182-1.079-4.582-1.616-7.197-1.616-2.382 0-4.236.788-5.544 2.337-1.315 1.556-1.96 3.773-1.96 6.668 0 2.836.587 4.996 1.778 6.484 1.172 1.491 2.871 2.222 5.102 2.222 1.221 0 2.344-.108 3.361-.349v-4.746h-5.408v-6.333zm34.8 2.25c0-2.786-.546-4.843-1.642-6.189-1.096-1.334-2.777-2.009-5.014-2.009h-2.384v16.99h1.825c2.495 0 4.321-.721 5.477-2.171 1.164-1.433 1.738-3.651 1.738-6.621m8.503-.287c0 5.052-1.384 8.954-4.179 11.693-2.777 2.739-6.697 4.105-11.74 4.105h-9.809v-30.328h10.489c4.862 0 8.621 1.251 11.271 3.74 2.652 2.479 3.968 6.081 3.968 10.79"/><path d="M72.515 28.035h13.097v16.358c-3.556 1.219-7.465 1.822-11.723 1.822-4.67 0-8.283-1.354-10.84-4.062-2.545-2.71-3.822-6.582-3.822-11.607 0-4.892 1.392-8.697 4.187-11.425 2.788-2.728 6.707-4.074 11.744-4.074 1.903 0 3.708.173 5.41.537 1.681.356 3.162.809 4.416 1.357l-2.591 6.427c-2.182-1.079-4.585-1.616-7.197-1.616-2.393 0-4.237.788-5.555 2.337-1.297 1.556-1.951 3.773-1.951 6.668 0 2.836.587 4.996 1.768 6.484 1.18 1.491 2.883 2.222 5.11 2.222 1.221 0 2.348-.108 3.366-.349v-4.746h-5.42v-6.333z"/></g><text transform="translate(87.186 45.585)" fill="#4D4D4D" font-family="'OpenSans'" font-size="53.195">[</text><text transform="translate(135.522 45.585)" fill="#4D4D4D" font-family="'OpenSans'" font-size="53.195">]</text></svg>