<?xml version="1.0" encoding="utf-8"?>
<!-- Generator: Adobe Illustrator 16.0.2, SVG Export Plug-In . SVG Version: 6.00 Build 0)  -->
<!DOCTYPE svg PUBLIC "-//W3C//DTD SVG 1.1//EN" "http://www.w3.org/Graphics/SVG/1.1/DTD/svg11.dtd">
<svg version="1.1" xmlns="http://www.w3.org/2000/svg" xmlns:xlink="http://www.w3.org/1999/xlink" x="0px" y="0px" width="11000px"
	 height="6000px" viewBox="0 0 11000 6000" enable-background="new 0 0 11000 6000" xml:space="preserve">
<g id="Layer_9">
</g>
<g id="Layer_10">
</g>
<g id="Layer_11">
</g>
<g id="Layer_11_copy">
</g>
<g id="Layer_8_copy">
</g>
<g id="Layer_18">
</g>
<g id="Layer_19">
</g>
<g id="Layer_12">
	<defs>
		
		
			<inkscape:perspective  inkscape:vp_y="0 : 1000 : 0" inkscape:vp_z="744.09448 : 526.18109 : 1" sodipodi:type="inkscape:persp3d" inkscape:vp_x="0 : 526.18109 : 1" id="perspective10" inkscape:persp3d-origin="372.04724 : 350.78739 : 1">
			</inkscape:perspective>
		
			<inkscape:perspective  inkscape:vp_y="0 : 1000 : 0" inkscape:vp_z="760 : 180 : 1" sodipodi:type="inkscape:persp3d" inkscape:vp_x="0 : 180 : 1" id="perspective2458" inkscape:persp3d-origin="380 : 120 : 1">
			</inkscape:perspective>
	</defs>
	
		<sodipodi:namedview  showgrid="false" showguides="true" borderopacity="1.0" pagecolor="#ffffff" inkscape:cx="1267.4286" inkscape:cy="885.96512" inkscape:zoom="0.0875" bordercolor="#666666" id="base" inkscape:guide-bbox="true" inkscape:window-width="1280" inkscape:window-height="712" inkscape:window-x="-4" inkscape:window-y="-4" inkscape:pageopacity="0.0" inkscape:pageshadow="2" inkscape:document-units="px" inkscape:current-layer="layer1">
		<sodipodi:guide  position="-3095.1074,2723.3713" orientation="0,1" id="guide5732"></sodipodi:guide>
	</sodipodi:namedview>
</g>
<g id="Layer_13">
</g>
<g id="Layer_14">
	<defs>
		
		
			<inkscape:perspective  inkscape:vp_y="0 : 1000 : 0" inkscape:vp_z="744.09448 : 526.18109 : 1" sodipodi:type="inkscape:persp3d" inkscape:vp_x="0 : 526.18109 : 1" id="perspective10" inkscape:persp3d-origin="372.04724 : 350.78739 : 1">
			</inkscape:perspective>
		
			<inkscape:perspective  inkscape:vp_y="0 : 1000 : 0" inkscape:vp_z="760 : 180 : 1" sodipodi:type="inkscape:persp3d" inkscape:vp_x="0 : 180 : 1" id="perspective2458" inkscape:persp3d-origin="380 : 120 : 1">
			</inkscape:perspective>
	</defs>
	
		<sodipodi:namedview  showgrid="false" showguides="true" borderopacity="1.0" pagecolor="#ffffff" inkscape:cx="1267.4286" inkscape:cy="885.96512" inkscape:zoom="0.0875" bordercolor="#666666" id="base" inkscape:guide-bbox="true" inkscape:window-width="1280" inkscape:window-height="712" inkscape:window-x="-4" inkscape:window-y="-4" inkscape:pageopacity="0.0" inkscape:pageshadow="2" inkscape:document-units="px" inkscape:current-layer="layer1">
		<sodipodi:guide  position="-3095.1074,2723.3713" orientation="0,1" id="guide5732"></sodipodi:guide>
	</sodipodi:namedview>
	
		<sodipodi:namedview  showgrid="false" showguides="true" borderopacity="1.0" pagecolor="#ffffff" inkscape:cx="1267.4286" inkscape:cy="885.96512" inkscape:zoom="0.0875" bordercolor="#666666" id="base" inkscape:guide-bbox="true" inkscape:window-width="1280" inkscape:window-height="712" inkscape:window-x="-4" inkscape:window-y="-4" inkscape:pageopacity="0.0" inkscape:pageshadow="2" inkscape:document-units="px" inkscape:current-layer="layer1">
		<sodipodi:guide  position="-3095.1074,2723.3713" orientation="0,1" id="guide5732"></sodipodi:guide>
	</sodipodi:namedview>
</g>
<g id="Layer_15">
</g>
<g id="Layer_24">
	
		<sodipodi:namedview  showgrid="false" showguides="true" borderopacity="1.0" pagecolor="#ffffff" inkscape:cx="1267.4286" inkscape:cy="885.96512" inkscape:zoom="0.0875" bordercolor="#666666" id="base" inkscape:guide-bbox="true" inkscape:window-width="1280" inkscape:window-height="712" inkscape:window-x="-4" inkscape:window-y="-4" inkscape:pageopacity="0.0" inkscape:pageshadow="2" inkscape:document-units="px" inkscape:current-layer="layer1">
		<sodipodi:guide  position="-3095.1074,2723.3713" orientation="0,1" id="guide5732"></sodipodi:guide>
	</sodipodi:namedview>
</g>
<g id="Layer_25">
	<linearGradient id="SVGID_1_" gradientUnits="userSpaceOnUse" x1="2361.958" y1="4023.7881" x2="2447.0129" y2="4076.9363">
		<stop  offset="0.54" style="stop-color:#0A985C"/>
		<stop  offset="0.54" style="stop-color:#F6C25B"/>
	</linearGradient>
	<path fill-rule="evenodd" clip-rule="evenodd" fill="url(#SVGID_1_)" d="M2460.299,4024.903
		c-6.469-10.889-22.182-38.859-33.912-59.693l-13.254-23.318c3.059,6.141,2.84,15.258-0.664,20.975l-87.357,142.553
		c-3.736,6.099-0.945,11.09,6.211,11.09h78.021c7.15,0,16.084-4.979,19.852-11.059l35.266-56.979
		C2463.719,4049.487,2468.631,4038.914,2460.299,4024.903z"/>
	<g>
		<path fill="none" d="M2391.646,3996.846l-66.534,108.573c-3.736,6.099-0.945,11.09,6.211,11.09h78.021
			c7.15,0,16.084-4.979,19.852-11.059l35.225-56.914L2391.646,3996.846z"/>
		<path fill="none" d="M2488.352,3893.687l-59.156-95.575c-3.768-6.081-12.699-11.058-19.85-11.058h-78.031
			c-7.148,0-9.939,4.987-6.203,11.088l75.754,123.607l42.582-59.955L2488.352,3893.687z"/>
		<path opacity="0.09" fill="#010101" d="M2517.47,3962.845c3.763-6.086,3.763-16.035,0-22.119l-29.118-47.039l-44.904-31.893
			l-42.582,59.955l11.604,18.938c3.734,6.098,3.734,16.075,0,22.18l-20.823,33.979l72.774,51.69L2517.47,3962.845z"/>
	</g>
	<linearGradient id="SVGID_2_" gradientUnits="userSpaceOnUse" x1="2386.5039" y1="3923.8975" x2="2473.7175" y2="3869.4004">
		<stop  offset="0.57" style="stop-color:#5586C5"/>
		<stop  offset="0.57" style="stop-color:#D9423E"/>
	</linearGradient>
	<path fill="url(#SVGID_2_)" d="M2517.463,3940.749l-88.279-142.617c-3.762-6.08-12.693-11.057-19.846-11.057h-78.025
		c-7.152,0-9.947,4.991-6.212,11.087l87.36,142.546l13.926,24.502c11.73,20.834,27.443,48.805,33.912,59.693
		c9.748,16.393,1.365,28.086,5.127,22.006l52.037-84.043C2521.227,3956.78,2521.227,3946.829,2517.463,3940.749z M2412.564,3940.878
		c0.087,0.145,0.189,0.318,0.307,0.512l0.008,0.012c0.006,0.006,0.013,0.02,0.018,0.025
		C2412.772,3941.22,2412.658,3941.034,2412.564,3940.878z M2418.785,3951.742c0.301,0.527,0.609,1.072,0.926,1.625
		C2419.395,3952.814,2419.089,3952.27,2418.785,3951.742z M2418.709,3951.55c0.479,0.84,0.977,1.716,1.492,2.622
		C2419.686,3953.266,2419.188,3952.39,2418.709,3951.55z"/>
	<text transform="matrix(1 0 0 1 2612.5474 4034.873)"><tspan x="0" y="0" fill="#4E4E4E" font-family="'OpenSans-Extrabold'" font-size="250.6486" letter-spacing="-15">GDG</tspan><tspan x="509.909" y="0" fill="#4E4E4E" font-family="'OpenSans'" font-size="250.6486" letter-spacing="-15">  </tspan><tspan x="610.05" y="0" fill="#4E4E4E" font-family="'OpenSans-Semibold'" font-size="250.6486" letter-spacing="-15">Kyiv</tspan></text>
</g>
<g id="Layer_26">
</g>
<g id="Layer_27">
</g>
<g id="Layer_28">
</g>
<g id="Layer_29">
</g>
<g id="Layer_30">
	
		<sodipodi:namedview  showgrid="false" showguides="true" borderopacity="1.0" pagecolor="#ffffff" inkscape:cx="1267.4286" inkscape:cy="885.96512" inkscape:zoom="0.0875" bordercolor="#666666" id="base" inkscape:guide-bbox="true" inkscape:window-width="1280" inkscape:window-height="712" inkscape:window-x="-4" inkscape:window-y="-4" inkscape:pageopacity="0.0" inkscape:pageshadow="2" inkscape:document-units="px" inkscape:current-layer="layer1">
		<sodipodi:guide  position="-3095.1074,2723.3713" orientation="0,1" id="guide5732"></sodipodi:guide>
	</sodipodi:namedview>
</g>
<g id="Layer_31">
</g>
<g id="Layer_32">
</g>
<g id="Layer_33">
</g>
<g id="Layer_34">
	
		<sodipodi:namedview  showgrid="false" showguides="true" borderopacity="1.0" pagecolor="#ffffff" inkscape:cx="1267.4286" inkscape:cy="885.96512" inkscape:zoom="0.0875" bordercolor="#666666" id="base" inkscape:guide-bbox="true" inkscape:window-width="1280" inkscape:window-height="712" inkscape:window-x="-4" inkscape:window-y="-4" inkscape:pageopacity="0.0" inkscape:pageshadow="2" inkscape:document-units="px" inkscape:current-layer="layer1">
		<sodipodi:guide  position="-3095.1074,2723.3713" orientation="0,1" id="guide5732"></sodipodi:guide>
	</sodipodi:namedview>
</g>
<g id="Layer_36">
</g>
<g id="Layer_35">
</g>
</svg>
