<svg xmlns="http://www.w3.org/2000/svg" width="124.258" height="80" viewBox="115.034 137.163 124.258 80" enable-background="new 115.034 137.163 124.258 80"><path fill="#4D4C4E" d="M128.707 217.162h-13.417v-18.154l13.417 18.154z"/><path fill="#EE3338" d="M134.878 175.51l-17.993-4.881 17.993-4.068v8.949z"/><path fill="#AE3692" d="M115.095 171.926l11.264 3.716-11.264 9.998v-13.714z"/><path fill="#009C54" d="M134.878 163.358l-17.114 5.912 16.822-19.168.292 13.256z"/><path fill="#4D4C4E" d="M115.064 151.222l12.671 2.414-12.701 14.661.03-17.075z"/><path fill="#AE3692" d="M151.651 217.162h-20.622l-6.637-10.124 27.259 10.124z"/><path fill="#4D4C4E" d="M151.887 205.002l1.481 9.319-10.378-2.022 8.897-7.297z"/><path fill="#AE3692" d="M164.814 200.783v16.379h-10.55l10.55-16.379z"/><path fill="#F79234" d="M155.156 210.986l-2.502-11.25h11.033l-8.531 11.25z"/><path fill="#3881C2" d="M115.095 187.242l17.709 11.215-17.435-4.479-.274-6.736z"/><path fill="#4D4C4E" d="M134.902 178.475v19.983l-5.396-22.43 5.396 2.447z"/><path fill="#009C54" d="M122.401 202.864l-6.261-6.325 19.343 4.69-13.082 1.635z"/><path fill="#F79234" d="M142.99 210.032l-19.266-4.882 27.926-4.367-8.66 9.249zm-24.672-24.393l8.79-8.763 4.704 18.301-13.494-9.538z"/><path fill="#373535" d="M145.396 167.832c0 2.708 1.612 4.007 4.074 4.007 1.544 0 2.731-.672 3.515-1.836l1.074.693c-1.007 1.522-2.574 2.418-4.589 2.418-3.201 0-5.306-1.701-5.306-5.283v-5.753c0-3.581 2.104-5.26 5.306-5.26 1.992 0 3.559.873 4.589 2.395l-1.074.716c-.784-1.141-1.97-1.858-3.515-1.858-2.462 0-4.074 1.321-4.074 4.007v5.754zm18.22-1.926c0-2.015-1.075-3.246-3.022-3.246-1.992 0-3.067 1.142-3.067 3.246v2.731c0 1.679.941 3.201 3.067 3.201 2.171 0 3.022-1.522 3.022-3.201v-2.731zm1.253 2.731c0 2.283-1.231 4.455-4.275 4.455-2.977 0-4.298-2.171-4.298-4.455v-2.731c0-2.865 1.544-4.499 4.298-4.499 2.709 0 4.275 1.724 4.275 4.499v2.731zm9.491 4.231v-7.589c0-1.902-1.544-2.574-3.224-2.574-.985 0-1.97.224-2.798.626v9.536h-1.231v-11.215h1.231v.291c.851-.313 1.903-.493 2.798-.493s1.813.179 2.44.493c1.208.56 2.015 1.612 2.015 3.358v7.566l-1.231.001zm6.916 0l-4.208-11.215h1.253l3.313 8.842c1.097-2.933 2.261-5.932 3.336-8.842h1.254l-4.164 11.215h-.784zm13.43-7.521c0-2.06-1.545-2.642-2.865-2.642-1.389 0-2.955.672-2.955 2.686v1.119h5.82v-1.163zm.896 6.536c-1.254.716-2.709 1.231-4.008 1.253h-.201c-2.217 0-3.739-1.097-3.739-3.447v-4.275c0-2.53 1.724-3.962 4.209-3.962 2.596 0 4.074 1.5 4.074 3.918v2.372h-7.051v1.97c0 1.455 1.119 2.216 2.551 2.216.941 0 2.194-.381 3.559-1.142l.606 1.097zm9.825.985v-7.589c0-1.902-1.545-2.574-3.224-2.574-.985 0-1.97.224-2.798.626v9.536h-1.231v-11.215h1.231v.291c.851-.313 1.903-.493 2.798-.493s1.813.179 2.441.493c1.208.56 2.014 1.612 2.014 3.358v7.566l-1.231.001zm8.706.246c-3.156 0-5.238-1.567-5.238-4.768v-11.148h1.232v4.455h3.134v1.253h-3.134v5.44c0 2.35 1.588 3.515 4.006 3.515v1.253zm2.328-11.461h1.231v11.215h-1.231v-11.215zm-.09-3.649c0-.47.224-.672.716-.672.47 0 .672.202.672.672 0 .492-.202.716-.672.716-.492.001-.716-.223-.716-.716"/><path fill="#373535" d="M227.317 165.906c0-2.015-1.075-3.246-3.022-3.246-1.992 0-3.067 1.142-3.067 3.246v2.731c0 1.679.94 3.201 3.067 3.201 2.171 0 3.022-1.522 3.022-3.201v-2.731zm1.253 2.731c0 2.283-1.231 4.455-4.275 4.455-2.977 0-4.298-2.171-4.298-4.455v-2.731c0-2.865 1.544-4.499 4.298-4.499 2.708 0 4.275 1.724 4.275 4.499v2.731zm9.491 4.231v-7.589c0-1.902-1.544-2.574-3.224-2.574-.985 0-1.97.224-2.798.626v9.536h-1.232v-11.215h1.232v.291c.85-.313 1.902-.492 2.798-.492s1.813.179 2.44.492c1.209.56 2.015 1.612 2.015 3.358v7.566l-1.231.001z"/><path fill="#737577" d="M150.109 191.229c1.925 0 2.932-1.075 2.932-3.089 0-1.567-1.007-2.865-2.888-2.865h-4.723v5.954h4.679zm-.38-7.208c1.88 0 2.91-1.097 2.91-3.089 0-1.567-1.007-2.865-2.865-2.865h-4.342v5.954h4.297zm-5.552 8.461v-15.669h5.596c2.642 0 4.119 1.902 4.119 4.119 0 1.724-.492 2.933-1.567 3.627 1.321.693 1.992 2.06 1.992 3.582 0 2.865-1.5 4.342-4.208 4.342h-5.932zm13.609-11.214v7.588c0 1.903 1.544 2.574 3.224 2.574.985 0 1.97-.201 2.798-.604v-9.558h1.231v11.215h-1.231v-.291c-.851.312-1.926.492-2.798.492-.895 0-1.813-.179-2.462-.492-1.186-.56-1.992-1.612-1.992-3.358v-7.566h1.23zm9.491 0h1.231v.85c.739-.671 1.813-1.097 3.067-1.097.514 0 1.097.09 1.813.313l-.246 1.276c-.65-.202-1.209-.336-1.567-.336-1.992 0-3.067 1.142-3.067 3.246v6.962h-1.231v-11.214zm14.325 3.693c0-2.06-1.545-2.642-2.865-2.642-1.388 0-2.955.672-2.955 2.686v1.119h5.82v-1.163zm.896 6.537c-1.254.716-2.709 1.231-4.008 1.253h-.201c-2.217 0-3.738-1.097-3.738-3.447v-4.275c0-2.53 1.724-3.962 4.208-3.962 2.596 0 4.074 1.5 4.074 3.917v2.373h-7.051v1.97c0 1.455 1.119 2.216 2.552 2.216.94 0 2.193-.381 3.558-1.141l.606 1.096zm10.16-5.395c-.828-.09-1.701-.179-2.462-.179-2.127 0-3.873.56-3.873 2.798 0 2.082 1.589 2.776 3.559 2.776.985 0 1.948-.224 2.775-.605v-4.79h.001zm-7.588 2.618c0-3.246 2.372-4.029 5.126-4.029.761 0 1.567.067 2.44.157-.179-1.276-.828-2.507-3.47-2.507-1.186 0-2.06.269-2.775.716l-.784-1.031c.94-.559 2.082-.94 3.559-.94 4.701 0 4.723 2.619 4.723 4.813v6.649h-1.231v-.291c-.85.313-1.902.492-2.775.492-2.686-.067-4.813-1.006-4.813-4.029"/><path fill="#737577" d="M197.359 181.268v7.588c0 1.903 1.544 2.574 3.224 2.574.985 0 1.97-.201 2.798-.604v-9.558h1.232v11.215h-1.232v-.291c-.85.312-1.925.492-2.798.492-.895 0-1.813-.179-2.463-.492-1.186-.56-1.991-1.612-1.991-3.358v-7.566h1.23z"/><path fill="#373535" d="M145.313 137.213v14.416h6.671v1.253h-7.924v-15.669h1.253zm13.117 15.669l-4.208-11.215h1.253l3.313 8.842c1.097-2.933 2.261-5.932 3.336-8.842h1.253l-4.163 11.215h-.784zm7.274-11.215h1.231v11.215h-1.231v-11.215zm-.09-3.649c0-.47.224-.671.716-.671.47 0 .672.201.672.671 0 .493-.202.717-.672.717-.492 0-.716-.224-.716-.717"/><path fill="#373535" d="M173.449 152.882l-4.208-11.215h1.253l3.313 8.842c1.097-2.933 2.261-5.932 3.336-8.842h1.253l-4.163 11.215h-.784z"/><path fill="#EE3338" d="M115.29 137.173l-.019 11.771 12.838 2.692-12.819-14.463z"/><path fill="#AE3692" d="M117.603 137.226l10.61 11.718 5.362-11.782-15.972.064z"/><path fill="#3881C2" d="M129.766 151.792l4.599-4.46.033-10.119-4.632 14.579z"/></svg>