<?xml version="1.0" encoding="UTF-8" standalone="no"?>
<!-- Created with Inkscape (http://www.inkscape.org/) -->

<svg
   xmlns:dc="http://purl.org/dc/elements/1.1/"
   xmlns:cc="http://creativecommons.org/ns#"
   xmlns:rdf="http://www.w3.org/1999/02/22-rdf-syntax-ns#"
   xmlns:svg="http://www.w3.org/2000/svg"
   xmlns="http://www.w3.org/2000/svg"
   xmlns:inkscape="http://www.inkscape.org/namespaces/inkscape"
   version="1.1"
   width="354.32501"
   height="354.32501"
   id="svg2"
   xml:space="preserve"><metadata
     id="metadata8"><rdf:RDF><cc:Work
         rdf:about=""><dc:format>image/svg+xml</dc:format><dc:type
           rdf:resource="http://purl.org/dc/dcmitype/StillImage" /></cc:Work></rdf:RDF></metadata><defs
     id="defs6"><clipPath
       id="clipPath72"><path
         d="m 0,283.46 283.46,0 L 283.46,0 0,0 0,283.46 z"
         inkscape:connector-curvature="0"
         id="path74" /></clipPath></defs><g
     transform="matrix(1.25,0,0,-1.25,0,354.325)"
     id="g10"><g
       transform="translate(59.6681,71.5918)"
       id="g12"><path
         d="m 0,0 -22.536,0 0,30.492 L 0,0 z"
         inkscape:connector-curvature="0"
         id="path14"
         style="fill:#4d4c4e;fill-opacity:1;fill-rule:nonzero;stroke:none" /></g><g
       transform="translate(70.0334,141.5521)"
       id="g16"><path
         d="M 0,0 -30.221,8.198 0,15.031 0,0 z"
         inkscape:connector-curvature="0"
         id="path18"
         style="fill:#ee3338;fill-opacity:1;fill-rule:nonzero;stroke:none" /></g><g
       transform="translate(36.8063,147.5705)"
       id="g20"><path
         d="M 0,0 18.919,-6.241 0,-23.033 0,0 z"
         inkscape:connector-curvature="0"
         id="path22"
         style="fill:#ae3692;fill-opacity:1;fill-rule:nonzero;stroke:none" /></g><g
       transform="translate(70.0334,161.9624)"
       id="g24"><path
         d="M 0,0 -28.744,-9.93 -0.49,22.265 0,0 z"
         inkscape:connector-curvature="0"
         id="path26"
         style="fill:#009c54;fill-opacity:1;fill-rule:nonzero;stroke:none" /></g><g
       transform="translate(36.7535,182.3448)"
       id="g28"><path
         d="M 0,0 21.282,-4.054 -0.051,-28.679 0,0 z"
         inkscape:connector-curvature="0"
         id="path30"
         style="fill:#4d4c4e;fill-opacity:1;fill-rule:nonzero;stroke:none" /></g><g
       transform="translate(98.2044,71.5918)"
       id="g32"><path
         d="M 0,0 -34.638,0 -45.785,17.005 0,0 z"
         inkscape:connector-curvature="0"
         id="path34"
         style="fill:#ae3692;fill-opacity:1;fill-rule:nonzero;stroke:none" /></g><g
       transform="translate(98.6022,92.0159)"
       id="g36"><path
         d="m 0,0 2.487,-15.653 -17.43,3.396 L 0,0 z"
         inkscape:connector-curvature="0"
         id="path38"
         style="fill:#4d4c4e;fill-opacity:1;fill-rule:nonzero;stroke:none" /></g><g
       transform="translate(120.3144,99.1014)"
       id="g40"><path
         d="m 0,0 0,-27.51 -17.719,0 L 0,0 z"
         inkscape:connector-curvature="0"
         id="path42"
         style="fill:#ae3692;fill-opacity:1;fill-rule:nonzero;stroke:none" /></g><g
       transform="translate(104.0921,81.9651)"
       id="g44"><path
         d="m 0,0 -4.202,18.895 18.531,0 L 0,0 z"
         inkscape:connector-curvature="0"
         id="path46"
         style="fill:#f79234;fill-opacity:1;fill-rule:nonzero;stroke:none" /></g><g
       transform="translate(36.8063,121.8452)"
       id="g48"><path
         d="M 0,0 29.744,-18.837 0.459,-11.314 0,0 z"
         inkscape:connector-curvature="0"
         id="path50"
         style="fill:#3881c2;fill-opacity:1;fill-rule:nonzero;stroke:none" /></g><g
       transform="translate(70.0747,136.5713)"
       id="g52"><path
         d="M 0,0 0,-33.563 -9.064,4.111 0,0 z"
         inkscape:connector-curvature="0"
         id="path54"
         style="fill:#4d4c4e;fill-opacity:1;fill-rule:nonzero;stroke:none" /></g><g
       transform="translate(49.0761,95.6074)"
       id="g56"><path
         d="M 0,0 -10.515,10.623 21.974,2.745 0,0 z"
         inkscape:connector-curvature="0"
         id="path58"
         style="fill:#009c54;fill-opacity:1;fill-rule:nonzero;stroke:none" /></g><g
       transform="translate(83.6587,83.5676)"
       id="g60"><path
         d="M 0,0 -32.359,8.199 14.546,15.534 0,0 z"
         inkscape:connector-curvature="0"
         id="path62"
         style="fill:#f79234;fill-opacity:1;fill-rule:nonzero;stroke:none" /></g><g
       transform="translate(42.2187,124.5378)"
       id="g64"><path
         d="M 0,0 14.764,14.719 22.665,-16.02 0,0 z"
         inkscape:connector-curvature="0"
         id="path66"
         style="fill:#f79234;fill-opacity:1;fill-rule:nonzero;stroke:none" /></g><g
       id="g68"><g
         clip-path="url(#clipPath72)"
         id="g70"><g
           transform="translate(87.7002,154.4483)"
           id="g76"><path
             d="m 0,0 c 0,-4.549 2.707,-6.73 6.843,-6.73 2.594,0 4.587,1.128 5.903,3.083 l 1.804,-1.165 c -1.692,-2.557 -4.323,-4.061 -7.707,-4.061 -5.377,0 -8.911,2.857 -8.911,8.873 l 0,9.663 c 0,6.015 3.534,8.835 8.911,8.835 3.346,0 5.978,-1.466 7.707,-4.023 L 12.746,13.272 C 11.43,15.189 9.437,16.393 6.843,16.393 2.707,16.393 0,14.174 0,9.663 L 0,0 z"
             inkscape:connector-curvature="0"
             id="path78"
             style="fill:#373535;fill-opacity:1;fill-rule:nonzero;stroke:none" /></g><g
           transform="translate(118.3027,157.6817)"
           id="g80"><path
             d="m 0,0 c 0,3.384 -1.805,5.452 -5.076,5.452 -3.346,0 -5.151,-1.918 -5.151,-5.452 l 0,-4.587 c 0,-2.82 1.58,-5.376 5.151,-5.376 3.647,0 5.076,2.556 5.076,5.376 L 0,0 z m 2.105,-4.587 c 0,-3.835 -2.067,-7.482 -7.181,-7.482 -5,0 -7.218,3.647 -7.218,7.482 l 0,4.587 c 0,4.812 2.594,7.557 7.218,7.557 4.55,0 7.181,-2.895 7.181,-7.557 l 0,-4.587 z"
             inkscape:connector-curvature="0"
             id="path82"
             style="fill:#373535;fill-opacity:1;fill-rule:nonzero;stroke:none" /></g><g
           transform="translate(136.3481,145.9888)"
           id="g84"><path
             d="m 0,0 0,12.746 c 0,3.195 -2.594,4.323 -5.414,4.323 -1.654,0 -3.309,-0.376 -4.7,-1.052 l 0,-16.017 -2.068,0 0,18.836 2.068,0 0,-0.488 c 1.429,0.526 3.196,0.827 4.7,0.827 1.504,0 3.045,-0.301 4.098,-0.827 2.03,-0.94 3.384,-2.707 3.384,-5.64 L 2.068,0 0,0 z"
             inkscape:connector-curvature="0"
             id="path86"
             style="fill:#373535;fill-opacity:1;fill-rule:nonzero;stroke:none" /></g><g
           transform="translate(147.9629,145.9888)"
           id="g88"><path
             d="m 0,0 -7.067,18.836 2.105,0 5.564,-14.851 c 1.842,4.926 3.797,9.964 5.602,14.851 l 2.106,0 L 1.316,0 0,0 z"
             inkscape:connector-curvature="0"
             id="path90"
             style="fill:#373535;fill-opacity:1;fill-rule:nonzero;stroke:none" /></g><g
           transform="translate(170.5215,158.6216)"
           id="g92"><path
             d="m 0,0 c 0,3.459 -2.595,4.437 -4.812,4.437 -2.333,0 -4.963,-1.128 -4.963,-4.512 l 0,-1.88 9.775,0 L 0,0 z m 1.504,-10.979 c -2.106,-1.203 -4.55,-2.067 -6.731,-2.105 l -0.337,0 c -3.723,0 -6.28,1.842 -6.28,5.79 l 0,7.181 c 0,4.249 2.895,6.655 7.069,6.655 4.361,0 6.842,-2.519 6.842,-6.58 l 0,-3.985 -11.842,0 0,-3.309 c 0,-2.443 1.879,-3.722 4.285,-3.722 1.58,0 3.685,0.639 5.978,1.918 l 1.016,-1.843 z"
             inkscape:connector-curvature="0"
             id="path94"
             style="fill:#373535;fill-opacity:1;fill-rule:nonzero;stroke:none" /></g><g
           transform="translate(188.5283,145.9888)"
           id="g96"><path
             d="m 0,0 0,12.746 c 0,3.195 -2.595,4.323 -5.414,4.323 -1.654,0 -3.309,-0.376 -4.7,-1.052 l 0,-16.017 -2.068,0 0,18.836 2.068,0 0,-0.488 c 1.429,0.526 3.196,0.827 4.7,0.827 1.504,0 3.046,-0.301 4.099,-0.827 2.029,-0.94 3.382,-2.707 3.382,-5.64 L 2.067,0 0,0 z"
             inkscape:connector-curvature="0"
             id="path98"
             style="fill:#373535;fill-opacity:1;fill-rule:nonzero;stroke:none" /></g><g
           transform="translate(203.1514,145.5752)"
           id="g100"><path
             d="m 0,0 c -5.302,0 -8.798,2.632 -8.798,8.008 l 0,18.724 2.069,0 0,-7.482 5.263,0 0,-2.105 -5.263,0 0,-9.137 C -6.729,4.061 -4.061,2.105 0,2.105 L 0,0 z"
             inkscape:connector-curvature="0"
             id="path102"
             style="fill:#373535;fill-opacity:1;fill-rule:nonzero;stroke:none" /></g><path
           d="m 207.061,164.825 2.068,0 0,-18.836 -2.068,0 0,18.836 z m -0.151,6.129 c 0,0.789 0.376,1.128 1.203,1.128 0.789,0 1.128,-0.339 1.128,-1.128 0,-0.827 -0.339,-1.203 -1.128,-1.203 -0.827,0 -1.203,0.376 -1.203,1.203"
           inkscape:connector-curvature="0"
           id="path104"
           style="fill:#373535;fill-opacity:1;fill-rule:nonzero;stroke:none" /><g
           transform="translate(225.2949,157.6817)"
           id="g106"><path
             d="m 0,0 c 0,3.384 -1.805,5.452 -5.076,5.452 -3.346,0 -5.151,-1.918 -5.151,-5.452 l 0,-4.587 c 0,-2.82 1.579,-5.376 5.151,-5.376 3.646,0 5.076,2.556 5.076,5.376 L 0,0 z m 2.105,-4.587 c 0,-3.835 -2.068,-7.482 -7.181,-7.482 -5,0 -7.219,3.647 -7.219,7.482 l 0,4.587 c 0,4.812 2.594,7.557 7.219,7.557 4.549,0 7.181,-2.895 7.181,-7.557 l 0,-4.587 z"
             inkscape:connector-curvature="0"
             id="path108"
             style="fill:#373535;fill-opacity:1;fill-rule:nonzero;stroke:none" /></g><g
           transform="translate(243.3398,145.9888)"
           id="g110"><path
             d="m 0,0 0,12.746 c 0,3.195 -2.594,4.323 -5.414,4.323 -1.654,0 -3.309,-0.376 -4.699,-1.052 l 0,-16.017 -2.069,0 0,18.836 2.069,0 0,-0.488 c 1.427,0.526 3.195,0.827 4.699,0.827 1.504,0 3.045,-0.301 4.098,-0.827 2.031,-0.94 3.384,-2.707 3.384,-5.64 L 2.068,0 0,0 z"
             inkscape:connector-curvature="0"
             id="path112"
             style="fill:#373535;fill-opacity:1;fill-rule:nonzero;stroke:none" /></g><g
           transform="translate(95.6162,115.1495)"
           id="g114"><path
             d="m 0,0 c 3.233,0 4.925,1.805 4.925,5.188 0,2.632 -1.692,4.813 -4.85,4.813 l -7.933,0 L -7.858,0 0,0 z m -0.639,12.106 c 3.158,0 4.888,1.843 4.888,5.189 0,2.632 -1.692,4.812 -4.813,4.812 l -7.294,0 0,-10.001 7.219,0 z m -9.324,-14.211 0,26.318 9.399,0 c 4.437,0 6.918,-3.195 6.918,-6.918 C 6.354,14.4 5.527,12.369 3.722,11.204 5.94,10.039 7.068,7.745 7.068,5.188 7.068,0.376 4.549,-2.105 0,-2.105 l -9.963,0 z"
             inkscape:connector-curvature="0"
             id="path116"
             style="fill:#737577;fill-opacity:1;fill-rule:nonzero;stroke:none" /></g><g
           transform="translate(108.5103,131.8799)"
           id="g118"><path
             d="m 0,0 0,-12.745 c 0,-3.196 2.594,-4.323 5.414,-4.323 1.654,0 3.309,0.338 4.7,1.014 l 0,16.054 2.068,0 0,-18.836 -2.068,0 0,0.488 c -1.429,-0.525 -3.234,-0.826 -4.7,-0.826 -1.504,0 -3.045,0.301 -4.136,0.826 -1.992,0.941 -3.346,2.707 -3.346,5.641 L -2.068,0 0,0 z"
             inkscape:connector-curvature="0"
             id="path120"
             style="fill:#737577;fill-opacity:1;fill-rule:nonzero;stroke:none" /></g><g
           transform="translate(124.4502,131.8799)"
           id="g122"><path
             d="m 0,0 2.068,0 0,-1.428 c 1.241,1.127 3.045,1.842 5.151,1.842 0.864,0 1.842,-0.15 3.045,-0.526 L 9.851,-2.256 c -1.091,0.339 -2.031,0.565 -2.632,0.565 -3.346,0 -5.151,-1.918 -5.151,-5.452 l 0,-11.693 -2.068,0 L 0,0 z"
             inkscape:connector-curvature="0"
             id="path124"
             style="fill:#737577;fill-opacity:1;fill-rule:nonzero;stroke:none" /></g><g
           transform="translate(148.5117,125.6768)"
           id="g126"><path
             d="m 0,0 c 0,3.459 -2.595,4.437 -4.812,4.437 -2.332,0 -4.963,-1.128 -4.963,-4.512 l 0,-1.88 9.775,0 L 0,0 z m 1.504,-10.979 c -2.106,-1.203 -4.55,-2.068 -6.731,-2.105 l -0.337,0 c -3.723,0 -6.279,1.842 -6.279,5.79 l 0,7.181 c 0,4.249 2.895,6.655 7.068,6.655 4.361,0 6.842,-2.519 6.842,-6.579 l 0,-3.986 -11.842,0 0,-3.309 c 0,-2.443 1.879,-3.722 4.286,-3.722 1.579,0 3.684,0.64 5.977,1.917 l 1.016,-1.842 z"
             inkscape:connector-curvature="0"
             id="path128"
             style="fill:#737577;fill-opacity:1;fill-rule:nonzero;stroke:none" /></g><g
           transform="translate(167.082,123.7588)"
           id="g130"><path
             d="m 0,0 c -1.391,0.15 -2.857,0.301 -4.135,0.301 -3.572,0 -6.505,-0.94 -6.505,-4.699 0,-3.497 2.669,-4.663 5.978,-4.663 1.654,0 3.271,0.376 4.662,1.016 L 0,0 z m -12.745,-4.398 c 0,5.451 3.985,6.767 8.61,6.767 1.278,0 2.631,-0.113 4.098,-0.264 -0.301,2.144 -1.391,4.211 -5.828,4.211 -1.992,0 -3.459,-0.451 -4.662,-1.203 l -1.316,1.731 c 1.579,0.939 3.497,1.578 5.978,1.578 7.896,0 7.933,-4.399 7.933,-8.083 l 0,-11.167 -2.068,0 0,0.489 c -1.428,-0.526 -3.195,-0.827 -4.662,-0.827 -4.512,0.113 -8.083,1.691 -8.083,6.768"
             inkscape:connector-curvature="0"
             id="path132"
             style="fill:#737577;fill-opacity:1;fill-rule:nonzero;stroke:none" /></g><g
           transform="translate(174.9766,131.8799)"
           id="g134"><path
             d="m 0,0 0,-12.745 c 0,-3.196 2.594,-4.323 5.414,-4.323 1.654,0 3.309,0.338 4.699,1.014 l 0,16.054 2.069,0 0,-18.836 -2.069,0 0,0.488 c -1.428,-0.525 -3.233,-0.826 -4.699,-0.826 -1.504,0 -3.046,0.301 -4.137,0.826 -1.992,0.941 -3.345,2.707 -3.345,5.641 L -2.068,0 0,0 z"
             inkscape:connector-curvature="0"
             id="path136"
             style="fill:#737577;fill-opacity:1;fill-rule:nonzero;stroke:none" /></g><g
           transform="translate(87.561,205.876)"
           id="g138"><path
             d="m 0,0 0,-24.213 11.204,0 0,-2.105 -13.309,0 L -2.105,0 0,0 z"
             inkscape:connector-curvature="0"
             id="path140"
             style="fill:#373535;fill-opacity:1;fill-rule:nonzero;stroke:none" /></g><g
           transform="translate(109.5918,179.5577)"
           id="g142"><path
             d="m 0,0 -7.068,18.836 2.105,0 5.565,-14.851 c 1.842,4.926 3.797,9.964 5.602,14.851 l 2.105,0 L 1.316,0 0,0 z"
             inkscape:connector-curvature="0"
             id="path144"
             style="fill:#373535;fill-opacity:1;fill-rule:nonzero;stroke:none" /></g><path
           d="m 121.809,198.394 2.068,0 0,-18.836 -2.068,0 0,18.836 z m -0.15,6.129 c 0,0.789 0.376,1.127 1.203,1.127 0.789,0 1.128,-0.338 1.128,-1.127 0,-0.828 -0.339,-1.204 -1.128,-1.204 -0.827,0 -1.203,0.376 -1.203,1.204"
           inkscape:connector-curvature="0"
           id="path146"
           style="fill:#373535;fill-opacity:1;fill-rule:nonzero;stroke:none" /><g
           transform="translate(134.8169,179.5577)"
           id="g148"><path
             d="m 0,0 -7.068,18.836 2.105,0 5.565,-14.851 c 1.842,4.926 3.797,9.964 5.602,14.851 l 2.105,0 L 1.316,0 0,0 z"
             inkscape:connector-curvature="0"
             id="path150"
             style="fill:#373535;fill-opacity:1;fill-rule:nonzero;stroke:none" /></g><g
           transform="translate(37.1326,205.9419)"
           id="g152"><path
             d="M 0,0 -0.031,-19.771 21.532,-24.293 0,0 z"
             inkscape:connector-curvature="0"
             id="path154"
             style="fill:#ee3338;fill-opacity:1;fill-rule:nonzero;stroke:none" /></g><g
           transform="translate(41.018,205.8529)"
           id="g156"><path
             d="M 0,0 17.82,-19.682 26.826,0.107 0,0 z"
             inkscape:connector-curvature="0"
             id="path158"
             style="fill:#ae3692;fill-opacity:1;fill-rule:nonzero;stroke:none" /></g><g
           transform="translate(61.4465,181.3884)"
           id="g160"><path
             d="M 0,0 7.725,7.491 7.781,24.487 0,0 z"
             inkscape:connector-curvature="0"
             id="path162"
             style="fill:#3881c2;fill-opacity:1;fill-rule:nonzero;stroke:none" /></g></g></g></g></svg>