<svg xmlns="http://www.w3.org/2000/svg" width="354.325" height="354.325"><defs><clipPath id="a"><path d="M0 283.46h283.46v-283.46h-283.46v283.46z"/></clipPath></defs><path d="M74.585 264.835h-28.17v-38.115l28.17 38.115z" fill="#4d4c4e"/><path d="M87.542 177.385l-37.776-10.248 37.776-8.541v18.789z" fill="#ee3338"/><path d="M46.008 169.862l23.649 7.801-23.649 20.99v-28.791z" fill="#ae3692"/><path d="M87.542 151.872l-35.93 12.412 35.318-40.244.612 27.831z" fill="#009c54"/><path d="M45.942 126.394l26.602 5.068-26.666 30.781.064-35.849z" fill="#4d4c4e"/><path d="M122.756 264.835h-43.297l-13.934-21.256 57.231 21.256z" fill="#ae3692"/><path d="M123.253 239.305l3.109 19.566-21.788-4.245 18.679-15.321z" fill="#4d4c4e"/><path d="M150.393 230.448v34.388h-22.149l22.149-34.388z" fill="#ae3692"/><path d="M130.115 251.869l-5.252-23.619h23.164l-17.911 23.619z" fill="#f79234"/><path d="M46.008 202.018l37.18 23.546-36.606-9.404-.574-14.143z" fill="#3881c2"/><path d="M87.593 183.611v41.954l-11.33-47.093 11.33 5.139z" fill="#4d4c4e"/><path d="M61.345 234.816l-13.144-13.279 40.611 9.847-27.468 3.431z" fill="#009c54"/><path d="M104.573 249.865l-40.449-10.249 58.631-9.169-18.182 19.418zm-51.8-51.212l18.455-18.399 9.876 38.424-28.331-20.025z" fill="#f79234"/><g clip-path="url(#a)"><path d="M109.625 161.265c0 5.686 3.384 8.413 8.554 8.413 3.242 0 5.734-1.41 7.379-3.854l2.255 1.456c-2.115 3.196-5.404 5.076-9.634 5.076-6.721 0-11.139-3.571-11.139-11.091v-12.079c0-7.519 4.417-11.044 11.139-11.044 4.183 0 7.473 1.833 9.634 5.029l-2.255 1.504c-1.645-2.396-4.136-3.901-7.379-3.901-5.17 0-8.554 2.774-8.554 8.413v12.079zm38.253-4.042c0-4.23-2.256-6.815-6.345-6.815-4.183 0-6.439 2.397-6.439 6.815v5.734c0 3.525 1.975 6.72 6.439 6.72 4.559 0 6.345-3.195 6.345-6.72v-5.734zm2.631 5.734c0 4.794-2.584 9.353-8.976 9.353-6.25 0-9.023-4.559-9.023-9.353v-5.734c0-6.015 3.242-9.446 9.023-9.446 5.688 0 8.976 3.619 8.976 9.446v5.734zm19.926 8.882v-15.933c0-3.994-3.242-5.404-6.768-5.404-2.067 0-4.136.47-5.875 1.315v20.021h-2.585v-23.545h2.585v.61c1.786-.657 3.995-1.034 5.875-1.034s3.806.376 5.122 1.034c2.537 1.175 4.23 3.384 4.23 7.05v15.885h-2.585zm14.519 0l-8.834-23.545h2.631l6.955 18.564c2.303-6.158 4.746-12.455 7.003-18.564h2.632l-8.743 23.545h-1.645zm28.198-15.791c0-4.324-3.244-5.546-6.015-5.546-2.916 0-6.204 1.41-6.204 5.64v2.35h12.219v-2.444zm1.88 13.724c-2.632 1.504-5.688 2.584-8.414 2.631h-.421c-4.654 0-7.85-2.303-7.85-7.237v-8.976c0-5.311 3.619-8.319 8.836-8.319 5.451 0 8.553 3.149 8.553 8.225v4.981h-14.803v4.136c0 3.054 2.349 4.652 5.356 4.652 1.975 0 4.606-.799 7.473-2.397l1.27 2.304zm20.628 2.067v-15.933c0-3.994-3.244-5.404-6.768-5.404-2.067 0-4.136.47-5.875 1.315v20.021h-2.585v-23.545h2.585v.61c1.786-.657 3.995-1.034 5.875-1.034s3.807.376 5.124 1.034c2.536 1.175 4.228 3.384 4.228 7.05v15.885h-2.584zm18.279.517c-6.627 0-10.998-3.29-10.998-10.01v-23.405h2.586v9.353h6.579v2.631h-6.579v11.421c0 4.934 3.335 7.379 8.411 7.379v2.631zm4.887-24.062h2.585v23.545h-2.585v-23.545zm-.189-7.661c0-.986.47-1.41 1.504-1.41.986 0 1.41.424 1.41 1.41 0 1.034-.424 1.504-1.41 1.504-1.034 0-1.504-.47-1.504-1.504" fill="#373535"/><path d="M281.619 157.223c0-4.23-2.256-6.815-6.345-6.815-4.183 0-6.439 2.397-6.439 6.815v5.734c0 3.525 1.974 6.72 6.439 6.72 4.558 0 6.345-3.195 6.345-6.72v-5.734zm2.631 5.734c0 4.794-2.585 9.353-8.976 9.353-6.25 0-9.024-4.559-9.024-9.353v-5.734c0-6.015 3.242-9.446 9.024-9.446 5.686 0 8.976 3.619 8.976 9.446v5.734zm19.925 8.882v-15.933c0-3.994-3.242-5.404-6.768-5.404-2.067 0-4.136.47-5.874 1.315v20.021h-2.586v-23.545h2.586v.61c1.784-.657 3.994-1.034 5.874-1.034 1.88 0 3.806.376 5.122 1.034 2.539 1.175 4.23 3.384 4.23 7.05v15.885h-2.585z" fill="#373535"/><path d="M119.52 210.388c4.041 0 6.156-2.256 6.156-6.485 0-3.29-2.115-6.016-6.063-6.016h-9.916v12.501h9.822zm-.799-15.133c3.947 0 6.11-2.304 6.11-6.486 0-3.29-2.115-6.015-6.016-6.015h-9.117v12.501h9.024zm-11.655 17.764v-32.898h11.749c5.546 0 8.648 3.994 8.648 8.648 0 3.619-1.034 6.158-3.29 7.614 2.773 1.456 4.182 4.324 4.182 7.52 0 6.015-3.149 9.116-8.835 9.116h-12.454zm28.572-23.544v15.931c0 3.995 3.242 5.404 6.768 5.404 2.067 0 4.136-.423 5.875-1.268v-20.067h2.585v23.545h-2.585v-.61c-1.786.656-4.043 1.032-5.875 1.032-1.88 0-3.806-.376-5.17-1.032-2.49-1.176-4.183-3.384-4.183-7.051v-15.884h2.585zm19.925 0h2.585v1.785c1.551-1.409 3.806-2.303 6.439-2.303 1.08 0 2.303.188 3.806.657l-.516 2.68c-1.364-.424-2.539-.706-3.29-.706-4.183 0-6.439 2.397-6.439 6.815v14.616h-2.585v-23.545zm30.077 7.754c0-4.324-3.244-5.546-6.015-5.546-2.915 0-6.204 1.41-6.204 5.64v2.35h12.219v-2.444zm1.88 13.724c-2.632 1.504-5.688 2.585-8.414 2.631h-.421c-4.654 0-7.849-2.303-7.849-7.237v-8.976c0-5.311 3.619-8.319 8.835-8.319 5.451 0 8.553 3.149 8.553 8.224v4.982h-14.803v4.136c0 3.054 2.349 4.652 5.357 4.652 1.974 0 4.605-.8 7.471-2.396l1.27 2.303zm21.332-11.327c-1.739-.188-3.571-.376-5.169-.376-4.465 0-8.131 1.175-8.131 5.874 0 4.371 3.336 5.829 7.473 5.829 2.067 0 4.089-.47 5.827-1.27v-10.056zm-15.931 5.497c0-6.814 4.981-8.459 10.762-8.459 1.598 0 3.289.141 5.122.33-.376-2.68-1.739-5.264-7.285-5.264-2.49 0-4.324.564-5.827 1.504l-1.645-2.164c1.974-1.174 4.371-1.973 7.473-1.973 9.87 0 9.916 5.499 9.916 10.104v13.959h-2.585v-.611c-1.785.657-3.994 1.034-5.827 1.034-5.64-.141-10.104-2.114-10.104-8.46" fill="#737577"/><path d="M218.721 189.475v15.931c0 3.995 3.242 5.404 6.768 5.404 2.067 0 4.136-.423 5.874-1.268v-20.067h2.586v23.545h-2.586v-.61c-1.785.656-4.041 1.032-5.874 1.032-1.88 0-3.807-.376-5.171-1.032-2.49-1.176-4.181-3.384-4.181-7.051v-15.884h2.585z" fill="#737577"/><path d="M109.451 96.98v30.266h14.005v2.631h-16.636v-32.898h2.631zm27.539 32.898l-8.835-23.545h2.631l6.956 18.564c2.303-6.158 4.746-12.455 7.003-18.564h2.631l-8.741 23.545h-1.645zm15.271-23.546h2.585v23.545h-2.585v-23.545zm-.188-7.661c0-.986.47-1.409 1.504-1.409.986 0 1.41.423 1.41 1.409 0 1.035-.424 1.505-1.41 1.505-1.034 0-1.504-.47-1.504-1.505" fill="#373535"/><path d="M168.521 129.878l-8.835-23.545h2.631l6.956 18.564c2.303-6.158 4.746-12.455 7.003-18.564h2.631l-8.741 23.545h-1.645z" fill="#373535"/><path d="M46.416 96.898l-.039 24.714 26.954 5.652-26.915-30.366z" fill="#ee3338"/><path d="M51.273 97.009l22.275 24.602 11.258-24.736-33.532.134z" fill="#ae3692"/><path d="M76.808 127.589l9.656-9.364.07-21.245-9.726 30.609z" fill="#3881c2"/></g></svg>