<svg xmlns="http://www.w3.org/2000/svg" width="110" height="80" viewBox="0 0 110 80"><path fill="#45A6D8" d="M37.463 33.579s-16.85-8.809-17.593-9.161c-.742-.352-1.225-.267-1.535 0l-3.75 3.221 2.668 12.886s.928 5.026 1.329 5.816c.382.753 1.087 2.086 3.15.475 1.693-1.319 15.731-13.237 15.731-13.237zm-11.275 10.973l12.156-10.168s1.082-.705.856.805c-.227 1.51-6.896 34.888-6.972 35.184-.038.202-.198.183-.252 0l-5.788-25.821zm-8.884 1.863l-17.014-8.91s-.393-.06-.252-.755c.165-.81 7.324-36.594 7.324-36.594s.113-.352.252 0c.017.045 9.69 46.259 9.69 46.259z"/><path d="M47.861 46.156c-.683-.262-1.237-.622-1.662-1.08-.426-.458-.638-1.047-.638-1.767 0-.458.091-.87.273-1.235.183-.365.428-.673.736-.926.309-.252.668-.446 1.08-.582.411-.135.851-.203 1.318-.203.309 0 .619.026.933.077.313.052.603.115.869.189.267.075.498.15.694.224.196.075.327.14.393.196l.077.126c.005.047-.017.126-.063.238l-.224.589c-.019.056-.066.08-.14.07l-.225-.042-.392-.098-.562-.105-.645-.091c-.225-.028-.435-.042-.631-.042-.375 0-.683.047-.926.14-.243.094-.435.213-.575.357-.14.145-.236.302-.288.47-.052.169-.077.327-.077.477 0 .252.082.488.246.708.163.22.484.424.961.61l1.347.505c.402.15.755.334 1.059.554.304.22.556.463.757.729.201.267.35.55.449.849.098.3.147.603.147.912 0 .43-.089.816-.267 1.157-.178.342-.426.634-.743.877-.319.244-.701.431-1.15.561-.449.131-.94.196-1.473.196-.299 0-.603-.023-.912-.07-.309-.047-.601-.105-.877-.175-.276-.07-.517-.144-.722-.224-.206-.08-.351-.152-.435-.218l-.077-.14c-.005-.047.016-.121.063-.224l.224-.589c.019-.056.065-.079.14-.07l.224.042.407.098c.178.038.379.073.603.106l.688.091c.234.028.453.042.659.042.618 0 1.108-.119 1.473-.357s.547-.554.547-.947c0-.337-.129-.631-.386-.884-.257-.252-.563-.449-.918-.589l-1.359-.532zm7.714 4.474c-.187 0-.28-.093-.28-.281v-8.556h-2.062c-.187 0-.28-.093-.28-.28v-.701c0-.187.093-.281.28-.281h5.891c.187 0 .281.094.281.281v.701c0 .187-.094.28-.281.28h-2.062v8.556c0 .188-.094.281-.281.281h-1.206zm10.926 0c-.187 0-.313-.088-.379-.267l-.869-2.216h-3.983l-.87 2.216c-.065.178-.192.267-.379.267h-.912c-.084 0-.145-.021-.182-.063-.037-.042-.032-.105.014-.189l3.829-9.594c.065-.168.196-.252.393-.252h.617c.187 0 .318.084.393.252l3.829 9.594c.084.168.028.252-.169.252h-1.332zm-2.96-7.293l-.28-1.053-.267 1.053-1.262 3.632h3.057l-1.248-3.632zm10.408 7.293c-.188 0-.327-.079-.421-.238l-1.781-2.833h-1.094v2.791c0 .188-.094.281-.281.281h-1.206c-.187 0-.28-.093-.28-.281v-9.538c0-.187.093-.281.28-.281h2.665c.533 0 1.019.091 1.459.273.439.183.818.433 1.136.751.318.318.566.692.743 1.122.178.43.267.888.267 1.374 0 .693-.178 1.318-.533 1.879-.356.562-.842.987-1.459 1.276l2.16 3.198c.057.075.08.131.07.168-.009.037-.07.056-.182.056h-1.543zm-2.398-4.334c.692 0 1.217-.186 1.578-.557.36-.372.54-.934.54-1.687s-.18-1.315-.54-1.687c-.36-.372-.886-.562-1.578-.572h-.898v4.503h.898zm7.096 4.334c-.187 0-.28-.093-.28-.281v-8.556h-2.062c-.187 0-.28-.093-.28-.28v-.701c0-.187.093-.281.28-.281h5.891c.187 0 .281.094.281.281v.701c0 .187-.094.28-.281.28h-2.062v8.556c0 .188-.094.281-.281.281h-1.206zm10.842-9.819c0-.187.093-.281.281-.281h.785c.187 0 .281.094.281.281v6.228c0 .542-.094 1.043-.281 1.501-.187.458-.449.856-.785 1.192-.337.337-.737.599-1.199.786-.463.187-.97.28-1.522.28-.533 0-1.029-.096-1.487-.287-.458-.192-.853-.456-1.185-.793-.332-.336-.592-.734-.779-1.192-.187-.458-.28-.954-.28-1.486v-6.228c0-.187.093-.281.28-.281h1.206c.187 0 .281.094.281.281v5.835c0 .393.042.764.126 1.115.084.351.211.657.379.919s.376.47.624.624c.248.155.535.231.862.231.393 0 .738-.074 1.038-.224.299-.149.549-.355.75-.617s.355-.568.463-.919c.107-.35.161-.727.161-1.129v-5.836zm3.029 9.819c-.187 0-.28-.093-.28-.281v-9.538c0-.187.093-.281.28-.281h2.665c.533 0 1.019.091 1.459.273.439.183.818.433 1.136.751.318.318.566.692.743 1.122.178.43.267.888.267 1.374 0 .477-.089.928-.267 1.354-.178.425-.425.797-.743 1.115-.318.318-.699.57-1.143.757-.444.187-.928.281-1.452.281h-1.178v2.791c0 .188-.094.281-.281.281h-1.206zm2.385-4.334c.692 0 1.217-.186 1.578-.557.36-.372.54-.934.54-1.687s-.18-1.315-.54-1.687c-.36-.372-.886-.562-1.578-.572h-.898v4.503h.898zm-48.991 21.165c-.187 0-.28-.093-.28-.281v-9.537c0-.187.093-.281.28-.281h3.226c.57 0 1.115.124 1.634.372.519.248.975.594 1.368 1.038.393.444.703.973.933 1.585.229.612.344 1.283.344 2.013 0 .729-.122 1.402-.365 2.02-.243.617-.573 1.153-.989 1.606-.416.454-.905.809-1.466 1.066-.561.258-1.16.39-1.795.4h-2.89zm2.875-1.263c.402 0 .773-.098 1.115-.294.342-.196.636-.47.884-.821s.439-.762.575-1.235c.136-.472.203-.989.203-1.55 0-.542-.077-1.04-.231-1.494-.155-.453-.363-.841-.625-1.164-.262-.323-.568-.573-.918-.75s-.723-.267-1.115-.267h-1.277v7.574h1.389zm6.171 1.263c-.187 0-.28-.093-.28-.281v-9.537c0-.187.093-.281.28-.281h4.951c.187 0 .281.094.281.281v.701c0 .188-.094.281-.281.281h-3.464v3.1h2.763c.187 0 .281.094.281.28v.701c0 .188-.094.281-.281.281h-2.763v3.212h3.464c.187 0 .281.094.281.281v.701c0 .188-.094.281-.281.281h-4.951zm6.774 0c-.187 0-.28-.093-.28-.281v-9.537c0-.187.093-.281.28-.281h2.665c.533 0 1.019.091 1.459.274.439.182.818.432 1.136.75.318.318.566.692.743 1.122.178.43.267.888.267 1.374 0 .477-.089.928-.267 1.354-.178.425-.425.797-.743 1.115-.318.318-.699.57-1.143.757-.444.187-.928.281-1.452.281h-1.178v2.791c0 .188-.094.281-.281.281h-1.206zm2.385-4.334c.692 0 1.218-.186 1.578-.557.36-.372.54-.934.54-1.687s-.18-1.315-.54-1.686c-.36-.372-.886-.562-1.578-.572h-.898v4.502h.898zm9.958 4.502c-.701 0-1.354-.107-1.957-.323-.603-.215-1.127-.54-1.571-.974-.445-.435-.793-.977-1.045-1.627-.252-.65-.379-1.415-.379-2.293 0-.879.126-1.643.379-2.293.252-.649.6-1.192 1.045-1.627.444-.435.967-.76 1.571-.974.603-.215 1.255-.323 1.957-.323.701 0 1.353.107 1.957.323.603.215 1.127.54 1.571.974.444.435.792.977 1.045 1.627.252.65.379 1.415.379 2.293 0 .879-.126 1.643-.379 2.293-.252.65-.601 1.192-1.045 1.627-.444.435-.968.76-1.571.974-.604.215-1.255.323-1.957.323zm0-1.333c.421 0 .818-.067 1.192-.203s.703-.358.989-.667c.285-.308.51-.71.673-1.206.164-.495.246-1.098.246-1.809 0-.71-.082-1.314-.246-1.809-.163-.495-.385-.898-.666-1.206-.281-.308-.61-.531-.989-.667-.379-.135-.779-.203-1.199-.203-.421 0-.821.068-1.199.203-.379.136-.708.358-.989.667-.28.309-.503.711-.666 1.206-.164.495-.245 1.099-.245 1.809 0 .711.081 1.314.245 1.809.163.496.388.898.673 1.206.286.309.615.531.989.667s.771.203 1.192.203zm7.77 1.165c-.187 0-.28-.093-.28-.281v-8.555h-2.062c-.187 0-.28-.093-.28-.281v-.701c0-.187.093-.281.28-.281h5.891c.187 0 .281.094.281.281v.701c0 .188-.094.281-.281.281h-2.062v8.555c0 .188-.094.281-.281.281h-1.206zm-32.267 10.625l.03.133-.037.073-.196.103-.316.106-.388.083c-.14.022-.283.033-.429.033-.332 0-.641-.051-.927-.153-.286-.102-.534-.256-.744-.462-.211-.206-.375-.462-.495-.77-.119-.308-.179-.67-.179-1.087 0-.416.06-.779.179-1.087.12-.308.285-.565.495-.77.21-.206.458-.36.744-.462.286-.102.595-.153.927-.153.146 0 .289.011.429.033l.388.083.316.106.196.103.037.066-.03.107-.106.279-.073.029-.1-.016-.438-.1c-.191-.04-.397-.06-.618-.06-.199 0-.389.032-.568.096-.179.064-.335.169-.468.316-.133.146-.238.337-.316.572-.078.235-.116.52-.116.857s.039.622.116.857c.078.235.184.425.319.572.135.146.291.251.469.316.177.064.365.096.565.096.221 0 .427-.02.618-.06l.438-.1.096-.017.076.03.106.248zm.764.452c-.089 0-.133-.044-.133-.133v-3.189c0-.088.044-.133.133-.133h.332l.086.033.047.1.066.252h.013c.071-.111.145-.195.223-.252l.229-.126.229-.05.223-.01.096.013.023.087v.498l-.023.09-.063.027-.09-.007-.096-.01c-.421 0-.631.215-.631.645v2.033c0 .088-.045.133-.133.133h-.531zm4.618-.419c.04.063.038.12-.006.173l-.156.113-.266.106-.349.076c-.128.02-.263.03-.405.03-.306 0-.559-.049-.761-.146-.202-.097-.362-.228-.482-.392-.119-.164-.203-.352-.249-.565-.047-.212-.07-.436-.07-.671 0-.257.027-.497.08-.721.053-.224.139-.419.256-.585.117-.166.269-.298.455-.395.186-.097.414-.146.684-.146.199 0 .386.029.562.087.175.057.326.146.452.265.126.12.226.269.299.449.073.179.109.389.109.628 0 .129-.012.235-.037.319-.024.084-.064.152-.119.202-.055.051-.129.088-.223.11-.093.022-.208.033-.345.033h-1.362c.013.142.036.272.07.389.033.117.083.219.149.306.066.086.15.154.249.202.1.049.222.073.369.073.128 0 .257-.016.385-.05l.398-.117.13-.02.043.033.14.214zm-.905-1.587c.102 0 .171-.012.207-.037.035-.024.053-.087.053-.189 0-.097-.014-.191-.043-.282-.029-.091-.069-.171-.12-.239-.051-.068-.112-.124-.184-.166-.071-.042-.151-.063-.24-.063-.12 0-.223.027-.307.08-.085.053-.155.124-.21.212-.055.088-.098.192-.127.309-.029.117-.048.242-.057.375h1.028zm4.007 2.006l-.096-.03-.037-.103-.067-.273h-.012c-.088.159-.214.28-.375.362-.162.082-.356.123-.582.123-.168 0-.328-.024-.478-.073-.15-.048-.283-.123-.398-.222-.115-.1-.206-.225-.272-.375-.066-.151-.1-.328-.1-.532 0-.212.037-.389.11-.528.073-.14.173-.25.299-.332.126-.082.273-.14.442-.173.168-.033.348-.05.538-.05h.685l-.05-.239c-.024-.088-.063-.173-.116-.252-.053-.08-.125-.147-.216-.203-.091-.055-.205-.083-.342-.083-.106 0-.22.016-.342.047l-.408.12-.126.02-.047-.033-.139-.213c-.04-.062-.038-.12.006-.173l.16-.113.266-.106.339-.077c.124-.02.252-.03.385-.03.288 0 .525.048.711.143.186.096.333.225.442.389.109.164.184.352.226.565.042.212.063.438.063.678v1.634c0 .088-.044.133-.133.133h-.336zm-.332-1.647h-.701c-.178 0-.321.044-.427.133-.107.088-.16.212-.16.372l.033.216.107.216c.049.066.114.122.194.166.08.045.18.067.301.067.205 0 .365-.077.481-.232.116-.155.174-.403.174-.744v-.194zm2.525 1.647c-.301 0-.529-.085-.684-.256-.155-.17-.233-.431-.233-.78v-1.893h-.345c-.089 0-.133-.044-.133-.133v-.259c0-.088.044-.133.133-.133h.345v-.512l.033-.09.1-.043.531-.199.1.016.033.116v.711h.418c.089 0 .133.044.133.133v.259c0 .089-.044.133-.133.133h-.418v1.913c0 .164.034.281.103.352.069.071.14.106.216.106h.047c.088 0 .133.044.133.133v.293c0 .088-.044.133-.133.133h-.246zm3.541-.419c.04.063.038.12-.006.173l-.156.113-.266.106-.349.076c-.128.02-.263.03-.405.03-.306 0-.559-.049-.761-.146-.202-.097-.362-.228-.482-.392-.119-.164-.203-.352-.249-.565-.047-.212-.07-.436-.07-.671 0-.257.027-.497.08-.721.053-.224.139-.419.256-.585.117-.166.269-.298.455-.395.186-.097.414-.146.684-.146.199 0 .386.029.562.087.175.057.326.146.452.265.126.12.226.269.299.449.073.179.109.389.109.628 0 .129-.012.235-.037.319-.024.084-.064.152-.119.202-.055.051-.129.088-.223.11-.093.022-.208.033-.345.033h-1.362c.013.142.036.272.07.389.033.117.083.219.149.306.066.086.15.154.249.202.1.049.222.073.369.073.128 0 .257-.016.385-.05l.398-.117.13-.02.043.033.14.214zm-.905-1.587c.102 0 .171-.012.207-.037.035-.024.053-.087.053-.189 0-.097-.014-.191-.043-.282-.029-.091-.069-.171-.12-.239-.051-.068-.112-.124-.184-.166-.071-.042-.151-.063-.24-.063-.12 0-.223.027-.307.08-.085.053-.155.124-.21.212-.055.088-.098.192-.127.309-.029.117-.048.242-.057.375h1.028zm2.454 1.076c.088 0 .133.044.133.133v.665c0 .088-.044.133-.133.133h-.665c-.089 0-.133-.044-.133-.133v-.665c0-.088.044-.133.133-.133h.665zm2.923.93c-.089 0-.133-.044-.133-.133v-4.518c0-.088.044-.133.133-.133h1.528c.27 0 .528.059.774.176.246.117.462.281.648.492.186.211.333.461.442.751.108.29.162.608.162.953 0 .346-.058.665-.173.957-.115.293-.271.546-.469.761-.197.215-.429.383-.694.505-.266.122-.549.185-.85.189h-1.368zm1.362-.598c.191 0 .367-.047.528-.139.162-.093.301-.223.419-.389.117-.166.208-.361.273-.585.064-.224.096-.469.096-.734 0-.257-.037-.493-.11-.708-.073-.215-.172-.399-.296-.552-.124-.153-.269-.271-.435-.355-.166-.084-.342-.126-.528-.126h-.605v3.588h.658zm5.468.179c.04.063.038.12-.006.173l-.156.113-.266.106-.349.076c-.128.02-.263.03-.405.03-.306 0-.559-.049-.761-.146-.202-.097-.362-.228-.482-.392-.119-.164-.203-.352-.249-.565-.047-.212-.07-.436-.07-.671 0-.257.027-.497.08-.721.053-.224.139-.419.256-.585.117-.166.269-.298.455-.395.186-.097.414-.146.684-.146.199 0 .386.029.562.087.175.057.326.146.452.265.126.12.226.269.299.449.073.179.109.389.109.628 0 .129-.012.235-.037.319-.024.084-.064.152-.119.202-.055.051-.13.088-.223.11-.093.022-.208.033-.345.033h-1.362c.013.142.036.272.07.389.033.117.083.219.149.306.066.086.15.154.249.202.1.049.222.073.369.073.128 0 .257-.016.385-.05l.398-.117.13-.02.043.033.14.214zm-.905-1.587c.102 0 .171-.012.207-.037.035-.024.053-.087.053-.189 0-.097-.014-.191-.043-.282-.029-.091-.069-.171-.12-.239-.051-.068-.112-.124-.184-.166-.071-.042-.151-.063-.24-.063-.12 0-.223.027-.307.08s-.155.124-.21.212c-.055.088-.098.192-.127.309-.029.117-.048.242-.057.375h1.028zm2.719 2.006c-.084 0-.146-.04-.186-.12l-1.189-3.216c-.04-.08-.013-.119.08-.119h.611c.088 0 .146.042.173.126l.724 2.531.724-2.531c.017-.084.075-.126.173-.126h.611l.086.029-.007.09-1.189 3.216c-.04.08-.102.12-.186.12h-.425zm4.771-.419c.04.063.038.12-.006.173l-.156.113-.266.106-.349.076c-.128.02-.263.03-.405.03-.306 0-.559-.049-.761-.146-.202-.097-.362-.228-.482-.392-.119-.164-.203-.352-.249-.565-.047-.212-.07-.436-.07-.671 0-.257.027-.497.08-.721.053-.224.139-.419.256-.585.117-.166.269-.298.455-.395.186-.097.414-.146.684-.146.199 0 .386.029.562.087.175.057.326.146.452.265.126.12.226.269.299.449.073.179.109.389.109.628 0 .129-.012.235-.037.319-.024.084-.064.152-.119.202-.055.051-.129.088-.223.11-.093.022-.208.033-.345.033h-1.362c.013.142.036.272.07.389.033.117.083.219.149.306.066.086.15.154.249.202.1.049.222.073.369.073.128 0 .257-.016.385-.05l.398-.117.13-.02.043.033.14.214zm-.905-1.587c.102 0 .171-.012.207-.037.035-.024.053-.087.053-.189 0-.097-.014-.191-.043-.282-.029-.091-.069-.171-.12-.239-.051-.068-.112-.124-.184-.166-.071-.042-.151-.063-.24-.063-.12 0-.223.027-.307.08-.085.053-.155.124-.21.212-.055.088-.098.192-.127.309-.029.117-.048.242-.057.375h1.028zm2.572 2.006c-.301 0-.529-.085-.684-.256-.155-.17-.233-.431-.233-.78v-3.747c0-.088.044-.133.133-.133h.531c.088 0 .133.044.133.133v3.701c0 .186.02.32.06.402.04.082.082.123.126.123h.046c.088 0 .133.044.133.133v.293c0 .088-.045.133-.133.133h-.112zm2.126.08c-.319 0-.583-.048-.791-.143-.208-.095-.372-.224-.492-.385-.12-.162-.204-.352-.252-.572-.049-.219-.073-.453-.073-.701 0-.248.024-.482.073-.701.049-.219.133-.412.252-.578.119-.166.283-.298.492-.395.208-.097.472-.146.791-.146.319 0 .582.049.791.146.208.097.372.228.492.392.119.164.203.356.252.578.049.221.073.454.073.697 0 .248-.024.482-.073.701-.049.219-.133.411-.252.575-.12.164-.284.294-.492.389-.208.095-.472.143-.791.143zm0-.598c.164 0 .299-.032.405-.096.106-.064.189-.15.249-.259.06-.109.101-.236.123-.382.022-.146.033-.303.033-.472 0-.163-.011-.32-.033-.468-.022-.148-.063-.278-.123-.389-.06-.11-.143-.198-.249-.262-.106-.064-.242-.096-.405-.096-.168 0-.305.032-.409.096-.104.064-.186.152-.246.262-.06.111-.101.241-.123.389-.022.149-.033.305-.033.468 0 .169.011.326.033.472.022.146.063.274.123.382.06.108.142.195.246.259.105.064.241.096.409.096zm2.339 1.98c-.089 0-.133-.044-.133-.133v-4.651c0-.088.044-.133.133-.133h.332l.096.029.037.103.066.279h.013c.137-.173.305-.299.502-.379.197-.08.422-.12.675-.12.19 0 .371.03.541.09.17.06.32.16.448.299.129.14.23.324.306.555.075.23.113.516.113.857 0 .346-.039.635-.117.867-.078.232-.18.419-.309.562-.129.142-.28.242-.455.302s-.358.09-.548.09c-.283 0-.504-.049-.661-.146-.157-.097-.278-.21-.362-.339h-.012v1.734c0 .088-.045.133-.133.133h-.532zm1.588-1.94c.115 0 .218-.016.309-.05s.168-.097.232-.19.114-.221.15-.385c.035-.164.053-.376.053-.638 0-.252-.017-.458-.05-.618-.033-.159-.081-.286-.143-.379-.062-.093-.141-.157-.236-.192s-.203-.054-.322-.054c-.297 0-.524.097-.681.289-.158.193-.236.511-.236.954 0 .452.081.775.242.97.163.196.39.293.682.293zm2.937-.452c.088 0 .133.044.133.133v.665c0 .088-.044.133-.133.133h-.664c-.089 0-.133-.044-.133-.133v-.665c0-.088.044-.133.133-.133h.664zm5.594-1.189h-.585c-.089 0-.133-.044-.133-.133v-.333c0-.088.044-.133.133-.133h1.289c.088 0 .133.044.133.133v2.247l-.033.093-.196.103-.316.106-.388.083c-.14.022-.283.033-.429.033-.332 0-.641-.051-.927-.153-.286-.102-.534-.256-.744-.462-.211-.206-.375-.462-.495-.77-.119-.308-.179-.67-.179-1.087 0-.416.06-.779.179-1.087.12-.308.285-.565.495-.77.21-.206.458-.36.744-.462.286-.102.595-.153.927-.153.146 0 .289.011.429.033l.388.083.316.106.196.103.037.066-.03.107-.106.245-.073.03-.1-.016-.438-.1c-.191-.04-.397-.06-.618-.06-.199 0-.389.033-.568.099-.179.067-.335.174-.468.323-.133.148-.238.341-.316.578-.078.237-.116.528-.116.874s.039.637.116.874c.078.237.184.43.319.578.135.149.291.256.469.322.177.067.365.1.565.1.181 0 .356-.013.525-.04v-1.56zm1.641 2.119c-.089 0-.133-.044-.133-.133v-3.189c0-.088.044-.133.133-.133h.332l.086.033.047.1.066.252h.013c.071-.111.145-.195.223-.252l.229-.126.229-.05.223-.01.096.013.023.087v.498l-.023.09-.063.027-.09-.007-.096-.01c-.421 0-.631.215-.631.645v2.033c0 .088-.045.133-.133.133h-.531zm3.489.08c-.319 0-.583-.048-.791-.143-.208-.095-.372-.224-.492-.385-.12-.162-.204-.352-.252-.572-.049-.219-.073-.453-.073-.701 0-.248.024-.482.073-.701.049-.219.133-.412.252-.578.119-.166.283-.298.492-.395.208-.097.472-.146.791-.146.319 0 .582.049.791.146.208.097.372.228.492.392.119.164.203.356.252.578.049.221.073.454.073.697 0 .248-.024.482-.073.701-.049.219-.133.411-.252.575-.12.164-.284.294-.492.389-.209.095-.473.143-.791.143zm0-.598c.164 0 .299-.032.405-.096.106-.064.189-.15.249-.259.06-.109.101-.236.123-.382.022-.146.033-.303.033-.472 0-.163-.011-.32-.033-.468-.022-.148-.063-.278-.123-.389-.06-.11-.143-.198-.249-.262-.106-.064-.242-.096-.405-.096-.168 0-.305.032-.409.096-.104.064-.186.152-.246.262-.06.111-.101.241-.123.389-.022.149-.033.305-.033.468 0 .169.011.326.033.472.022.146.063.274.123.382.06.108.142.195.246.259.104.064.24.096.409.096zm5.242.518c-.084 0-.146-.04-.186-.12l-.664-2.152-.664 2.152c-.04.08-.102.12-.186.12h-.425c-.084 0-.146-.04-.186-.12l-1.057-3.216c-.04-.08-.013-.119.08-.119h.611c.088 0 .146.042.173.126l.591 2.531.658-2.531c.018-.084.073-.126.166-.126h.478c.093 0 .148.042.166.126l.658 2.531.591-2.531c.018-.084.076-.126.173-.126h.611l.086.029-.007.09-1.056 3.216c-.04.08-.102.12-.186.12h-.425z" fill="#222"/></svg>